<?xml version="1.0" encoding="UTF-8" standalone="no"?>
<!-- Created with Inkscape (http://www.inkscape.org/) and export_objects.py -->

<svg
   xmlns:dc="http://purl.org/dc/elements/1.1/"
   xmlns:cc="http://creativecommons.org/ns#"
   xmlns:rdf="http://www.w3.org/1999/02/22-rdf-syntax-ns#"
   xmlns:svg="http://www.w3.org/2000/svg"
   xmlns="http://www.w3.org/2000/svg"
   xmlns:sodipodi="http://sodipodi.sourceforge.net/DTD/sodipodi-0.dtd"
   xmlns:inkscape="http://www.inkscape.org/namespaces/inkscape"
   version="1.1"
   width="153.18622pt"
   height="144.74606pt"
   viewBox="0 0 54.040693 51.063192"
   id="svg8"
   inkscape:version="0.92.3 (2405546, 2018-03-11)"
   sodipodi:docname="arrows-clockwise-3.svg">
  <defs
     id="defs16" />
  <sodipodi:namedview
     id="base"
     pagecolor="#ffffff"
     bordercolor="#666666"
     borderopacity="1.0"
     inkscape:pageopacity="0.0"
     inkscape:pageshadow="2"
     inkscape:zoom="2.8298807"
     inkscape:cx="121.02984"
     inkscape:cy="97.640696"
     inkscape:document-units="mm"
     inkscape:current-layer="g13"
     showgrid="true"
     units="pt"
     inkscape:snap-grids="false"
     inkscape:snap-smooth-nodes="true"
     inkscape:snap-midpoints="true"
     inkscape:snap-object-midpoints="true"
     inkscape:snap-center="true"
     inkscape:snap-text-baseline="true"
     inkscape:snap-bbox="false"
     inkscape:snap-bbox-edge-midpoints="true"
     showguides="true"
     inkscape:guide-bbox="true"
     inkscape:bbox-nodes="true"
     inkscape:snap-intersection-paths="false"
     inkscape:object-paths="false"
     inkscape:snap-bbox-midpoints="true"
     inkscape:bbox-paths="true"
     inkscape:snap-others="true"
     inkscape:snap-page="true"
     inkscape:window-width="1280"
     inkscape:window-height="940"
     inkscape:window-x="1909"
     inkscape:window-y="43"
     inkscape:window-maximized="1"
     fit-margin-top="0"
     fit-margin-left="0"
     fit-margin-right="0"
     fit-margin-bottom="0">
    <inkscape:grid
       type="xygrid"
       id="grid815"
       originx="1.3894509e-006"
       originy="-8.8084938e-006" />
    <sodipodi:guide
       position="117.475,188.52049"
       orientation="0,1"
       id="guide827"
       inkscape:locked="false" />
    <sodipodi:guide
       position="114.3,130.175"
       orientation="1,0"
       id="guide857"
       inkscape:locked="false" />
    <sodipodi:guide
       position="114.3,118.67049"
       orientation="0,1"
       id="guide859"
       inkscape:locked="false" />
  </sodipodi:namedview>
  <metadata
     id="metadata5">
    <rdf:RDF>
      <cc:Work
         rdf:about="">
        <dc:format>image/svg+xml</dc:format>
        <dc:type
           rdf:resource="http://purl.org/dc/dcmitype/StillImage" />
        <dc:title></dc:title>
      </cc:Work>
    </rdf:RDF>
  </metadata>
  <g
     inkscape:groupmode="layer"
     inkscape:label="arrows-"
     transform="translate(-50.255045,-157.67818)"
     id="g13">
    <path
       style="opacity:1;fill:#000000;fill-opacity:1;stroke:none;stroke-width:0.35277778;stroke-linecap:butt;stroke-linejoin:miter;stroke-miterlimit:47.14606857;stroke-dasharray:none;stroke-dashoffset:0;stroke-opacity:1;paint-order:markers fill stroke"
       d="m 88.488116,205.26081 c 3.759756,-2.20141 6.935021,-5.35888 9.163975,-9.21954 l -5.499334,-3.17513 c -2.815519,4.87662 -7.6441,8.25785 -13.1896,9.23567 -4.158976,0.73335 -8.40167,0.059 -12.082769,-1.8511 l 2.358588,-2.35884 -12.831368,-3.43816 3.438461,12.83166 2.383292,-2.38324 c 5.280715,3.28839 11.628228,4.54797 17.836366,3.45331 3.00381,-0.52966 5.84992,-1.58842 8.422389,-3.09463 z"
       id="path849"
       inkscape:connector-curvature="0" />
    <path
       id="path842"
       d="m 88.221388,161.2676 c -3.786347,-2.15532 -8.108427,-3.32645 -12.56634,-3.32645 l -6.9e-5,6.35012 c 5.631039,0 10.973559,2.49106 14.593122,6.8047 2.714577,3.2351 4.251939,7.24655 4.438277,11.38954 l -3.222111,-0.86319 3.438161,12.83139 9.393312,-9.39364 -3.2556,-0.87237 c 0.20748,-6.21743 -1.875453,-12.34432 -5.927532,-17.1734 -1.960589,-2.33655 -4.30057,-4.27197 -6.89122,-5.7467 z"
       style="opacity:1;fill:#000000;fill-opacity:1;stroke:none;stroke-width:0.35277778;stroke-linecap:butt;stroke-linejoin:miter;stroke-miterlimit:47.14606857;stroke-dasharray:none;stroke-dashoffset:0;stroke-opacity:1;paint-order:markers fill stroke"
       inkscape:connector-curvature="0" />
    <path
       inkscape:connector-curvature="0"
       style="opacity:1;fill:#000000;fill-opacity:1;stroke:none;stroke-width:0.35277778;stroke-linecap:butt;stroke-linejoin:miter;stroke-miterlimit:47.14606857;stroke-dasharray:none;stroke-dashoffset:0;stroke-opacity:1;paint-order:markers fill stroke"
       d="m 50.255517,183.49521 c 0.0266,4.35675 1.17343,8.68534 3.402391,12.546 l 5.4994,-3.175 c -2.81552,-4.87662 -3.32946,-10.74891 -1.40353,-16.04036 1.44439,-3.96845 4.14973,-7.30557 7.644489,-9.53844 l 0.863522,3.22202 9.393218,-9.39322 -12.831779,-3.43803 0.8723,3.25562 c -5.48818,2.92903 -9.752771,7.79634 -11.908831,13.72009 -1.043209,2.8662 -1.54935,5.86039 -1.53118,8.84132 z"
       id="path844" />
  </g>
</svg>
