<?xml version='1.0' encoding='UTF-8'?>
<!-- Created with Inkscape (http://www.inkscape.org/) and export_objects.py -->
<svg xmlns:cc="http://creativecommons.org/ns#" xmlns:dc="http://purl.org/dc/elements/1.1/" xmlns:inkscape="http://www.inkscape.org/namespaces/inkscape" xmlns:rdf="http://www.w3.org/1999/02/22-rdf-syntax-ns#" xmlns:sodipodi="http://sodipodi.sourceforge.net/DTD/sodipodi-0.dtd" xmlns:xlink="http://www.w3.org/1999/xlink" xmlns="http://www.w3.org/2000/svg" version="1.1" width="57.1500026458mm" height="88.8999973542mm" viewBox="0 0 57.1500026458 88.8999973542" id="svg4919" sodipodi:docname="n-005.svg"><sodipodi:namedview id="base" pagecolor="#ffffff" bordercolor="#666666" borderopacity="1.0" inkscape:pageopacity="0.0" inkscape:pageshadow="2" inkscape:zoom="0.35" inkscape:cx="-50" inkscape:cy="560" inkscape:document-units="mm" inkscape:current-layer="layer1" showgrid="false" inkscape:window-width="1280" inkscape:window-height="940" inkscape:window-x="1909" inkscape:window-y="43" inkscape:window-maximized="1"/>
  <metadata id="metadata4916">
    <rdf:RDF>
      <cc:Work rdf:about="">
        <dc:format>image/svg+xml</dc:format>
        <dc:type rdf:resource="http://purl.org/dc/dcmitype/StillImage"/>
      </cc:Work>
    </rdf:RDF>
  </metadata>
  <g inkscape:groupmode="layer" inkscape:label="n-" transform="matrix(1.000000,0.000000,0.000000,1.000000,-153.609519,91.105966)"><g transform="matrix(0.26448498,0,0,0.26448498,-195.58756,-28.595439)" id="g3941" inkscape:label="005">
      <rect style="display:inline;opacity:1;fill:#ffffff;fill-opacity:1;stroke:none;stroke-width:0.13338292;stroke-linecap:butt;stroke-linejoin:miter;stroke-miterlimit:47.14606857;stroke-dasharray:none;stroke-dashoffset:0;stroke-opacity:1;paint-order:markers fill stroke" id="rect17383" width="216.08034" height="336.12494" x="1320.2908" y="-236.34811"/>
      <g id="text17387" style="font-style:normal;font-variant:normal;font-weight:normal;font-stretch:normal;font-size:80.02975464px;line-height:125%;font-family:'Stint Ultra Condensed';-inkscape-font-specification:'Stint Ultra Condensed, ';font-variant-ligatures:normal;font-variant-caps:normal;font-variant-numeric:normal;font-feature-settings:normal;text-align:center;letter-spacing:0px;word-spacing:0px;writing-mode:lr-tb;text-anchor:middle;display:inline;fill:#000000;fill-opacity:1;stroke:none;stroke-width:1.00037193" aria-label="9" transform="translate(-2088.7764,79.839752)">
        <path id="path12744" style="font-style:normal;font-variant:normal;font-weight:normal;font-stretch:normal;font-size:80.02975464px;font-family:'Stint Ultra Condensed';-inkscape-font-specification:'Stint Ultra Condensed, ';text-align:center;text-anchor:middle;stroke-width:1.00037193" d="m 3444.6661,-275.91508 q -0.2735,0.70339 -0.8206,1.79755 -0.508,1.09415 -1.4068,2.11016 -0.8596,1.016 -2.1101,1.75846 -1.2505,0.70339 -2.9699,0.70339 -1.9147,0 -3.5951,-1.05508 -1.6803,-1.09416 -2.9307,-3.28247 -1.2114,-2.18831 -1.9539,-5.47079 -0.7034,-3.32154 -0.7034,-7.77632 0,-3.67324 0.6643,-6.87756 0.6644,-3.24339 1.9539,-5.62709 1.2895,-2.42278 3.1652,-3.79047 1.8757,-1.40678 4.2985,-1.40678 2.3837,0 4.4157,1.64124 2.0711,1.60216 3.5951,4.88463 1.524,3.24339 2.3837,8.16709 0.8988,4.92371 0.8988,11.56681 0,6.7994 -0.6643,12.27018 -0.6644,5.43171 -2.0711,9.26126 -1.3677,3.82955 -3.517,5.90063 -2.1101,2.032 -5.0409,2.032 -1.8757,0 -3.556,-1.05507 -1.6803,-1.01601 -2.9699,-3.04801 -1.2504,-2.03201 -1.9929,-5.04094 -0.7034,-3.04801 -0.7034,-7.03386 h 4.8065 q 0,5.82247 1.1332,8.87048 1.1723,3.04801 3.517,3.04801 1.6412,0 2.8135,-1.79754 1.1723,-1.83662 1.9148,-4.92371 0.7425,-3.08709 1.0941,-7.1511 0.3517,-4.10308 0.3517,-8.6751 z m -6.3304,2.14924 q 1.2113,0 2.1883,-1.13323 0.9769,-1.13324 1.7194,-2.77447 0.7815,-1.64124 1.2895,-3.51694 0.508,-1.87569 0.7425,-3.3997 0.078,-2.8917 -0.3517,-5.74432 -0.3908,-2.8917 -1.2114,-5.15817 -0.7816,-2.26647 -1.9539,-3.67324 -1.1332,-1.40677 -2.5009,-1.40677 -1.2505,0 -2.2274,0.97692 -0.9769,0.93785 -1.6412,2.69632 -0.6643,1.75847 -1.016,4.2594 -0.3126,2.46185 -0.3126,5.50986 0,3.12616 0.3126,5.62709 0.3126,2.46185 0.9378,4.18124 0.6643,1.71939 1.6413,2.65724 1.016,0.89877 2.3837,0.89877 z" inkscape:connector-curvature="0"/>
      </g>
      <g id="text17391" style="font-style:normal;font-variant:normal;font-weight:normal;font-stretch:normal;font-size:80.02975464px;line-height:125%;font-family:'Stint Ultra Condensed';-inkscape-font-specification:'Stint Ultra Condensed, ';font-variant-ligatures:normal;font-variant-caps:normal;font-variant-numeric:normal;font-feature-settings:normal;text-align:center;letter-spacing:0px;word-spacing:0px;writing-mode:lr-tb;text-anchor:middle;display:inline;fill:#000000;fill-opacity:1;stroke:none;stroke-width:1.00037193" transform="rotate(180,-1044.3882,39.919876)" aria-label="9">
        <path id="path12741" style="font-style:normal;font-variant:normal;font-weight:normal;font-stretch:normal;font-size:80.02975464px;font-family:'Stint Ultra Condensed';-inkscape-font-specification:'Stint Ultra Condensed, ';text-align:center;text-anchor:middle;stroke-width:1.00037193" d="m -3589.5482,20.335663 q -0.2736,0.703387 -0.8206,1.797544 -0.508,1.094156 -1.4068,2.110159 -0.8597,1.016003 -2.1102,1.758467 -1.2504,0.703386 -2.9698,0.703386 -1.9148,0 -3.5951,-1.05508 -1.6803,-1.094157 -2.9308,-3.28247 -1.2114,-2.188314 -1.9538,-5.470784 -0.7034,-3.321548 -0.7034,-7.7763289 0,-3.6732406 0.6643,-6.877557 0.6643,-3.2433934 1.9538,-5.6270921 1.2896,-2.4227758 3.1653,-3.7904718 1.8757,-1.406773 4.2985,-1.406773 2.3837,0 4.4157,1.6412352 2.071,1.6021582 3.595,4.8846286 1.524,3.2433933 2.3837,8.1670989 0.8988,4.9237061 0.8988,11.5668001 0,6.799403 -0.6643,12.270187 -0.6643,5.431707 -2.0711,9.261256 -1.3677,3.829549 -3.5169,5.900632 -2.1102,2.032005 -5.0409,2.032005 -1.8757,0 -3.5561,-1.05508 -1.6803,-1.016003 -2.9698,-3.048008 -1.2505,-2.032005 -1.9929,-5.040937 -0.7034,-3.048008 -0.7034,-7.033865 h 4.8064 q 0,5.822477 1.1333,8.870486 1.1723,3.048008 3.5169,3.048008 1.6412,0 2.8136,-1.797543 1.1723,-1.836621 1.9147,-4.923706 0.7425,-3.087085 1.0942,-7.151096 0.3517,-4.103088 0.3517,-8.675101 z m -6.3305,2.149237 q 1.2114,0 2.1883,-1.133234 0.9769,-1.133234 1.7194,-2.774469 0.7815,-1.641235 1.2896,-3.516933 0.508,-1.875697 0.7424,-3.399701 0.078,-2.8917001 -0.3517,-5.7443232 -0.3907,-2.8917001 -1.2114,-5.15816778 -0.7815,-2.26646762 -1.9538,-3.67324072 -1.1333,-1.406773 -2.5009,-1.406773 -1.2505,0 -2.2274,0.9769257 -0.977,0.9378487 -1.6413,2.69631499 -0.6643,1.75846631 -1.016,4.25939611 -0.3126,2.4618528 -0.3126,5.509861 0,3.1261619 0.3126,5.6270919 0.3126,2.461853 0.9379,4.181242 0.6643,1.71939 1.6412,2.657238 1.016,0.898772 2.3837,0.898772 z" inkscape:connector-curvature="0"/>
      </g>
      <g id="g17479" transform="matrix(-3.7797426,0,0,-3.7797426,1407.342,-188.33018)" style="display:inline;stroke-width:0.63496387">
        <path inkscape:connector-curvature="0" id="path17465" d="m 3.35,4.66 c 0,-1.81 -1.51,-3.28 -3.38,-3.28 -1.87,0 -3.38,1.47 -3.38,3.28 0,1.81 1.51,3.28 3.38,3.28 1.87,0 3.38,-1.47 3.38,-3.28 z" style="stroke-width:0.63496387"/>
        <path inkscape:connector-curvature="0" id="path17467" d="m 7.71,-1.55 c 0,-1.81 -1.51,-3.28 -3.38,-3.28 -1.87,0 -3.38,1.47 -3.38,3.28 0,1.81 1.51,3.28 3.38,3.28 1.87,0 3.38,-1.47 3.38,-3.28 z" style="stroke-width:0.63496387"/>
        <path inkscape:connector-curvature="0" id="path17469" d="m -0.95,-1.57 c 0,-0.66 -0.2,-1.28 -0.55,-1.8 -0.6,-0.89 -1.65,-1.48 -2.83,-1.48 -1.87,0 -3.38,1.47 -3.38,3.28 0,1.81 1.51,3.28 3.38,3.28 1.87,0 3.38,-1.47 3.38,-3.28 z" style="stroke-width:0.63496387"/>
        <path inkscape:connector-curvature="0" id="path17471" d="m 3.94,-7.94 c -1.67,0 -2.55,1.36 -3.01,2.72 -0.46,1.36 -0.5,2.72 -0.5,2.72 h -0.86 c 0,0 -0.16,-5.43 -3.5,-5.44 z" style="stroke-width:0.63496387"/>
        <path inkscape:connector-curvature="0" id="path17473" d="m -2.32,2.25 c 1.9,-1.9 1.9,-4.75 1.9,-4.75 l 0.85,-0.01 c 0,0 0,2.91 1.85,4.76" style="stroke-width:0.63496387"/>
        <path inkscape:connector-curvature="0" id="path17475" d="m -1.94,-3.85 c 1.9,1.9 4.75,1.9 4.75,1.9 v 0.85 c 0,0 -2.91,0 -4.76,1.85" style="stroke-width:0.63496387"/>
        <path inkscape:connector-curvature="0" id="path17477" d="m 1.87,-3.86 c -1.9,1.9 -4.75,1.9 -4.75,1.9 v 0.85 c 0,0 2.91,0 4.76,1.85" style="stroke-width:0.63496387"/>
      </g>
      <g style="display:inline;stroke-width:0.63496387" transform="matrix(-3.7797426,0,0,-3.7797426,1491.3733,-188.33018)" id="g17495">
        <path style="stroke-width:0.63496387" d="m 3.35,4.66 c 0,-1.81 -1.51,-3.28 -3.38,-3.28 -1.87,0 -3.38,1.47 -3.38,3.28 0,1.81 1.51,3.28 3.38,3.28 1.87,0 3.38,-1.47 3.38,-3.28 z" id="path17481" inkscape:connector-curvature="0"/>
        <path style="stroke-width:0.63496387" d="m 7.71,-1.55 c 0,-1.81 -1.51,-3.28 -3.38,-3.28 -1.87,0 -3.38,1.47 -3.38,3.28 0,1.81 1.51,3.28 3.38,3.28 1.87,0 3.38,-1.47 3.38,-3.28 z" id="path17483" inkscape:connector-curvature="0"/>
        <path style="stroke-width:0.63496387" d="m -0.95,-1.57 c 0,-0.66 -0.2,-1.28 -0.55,-1.8 -0.6,-0.89 -1.65,-1.48 -2.83,-1.48 -1.87,0 -3.38,1.47 -3.38,3.28 0,1.81 1.51,3.28 3.38,3.28 1.87,0 3.38,-1.47 3.38,-3.28 z" id="path17485" inkscape:connector-curvature="0"/>
        <path style="stroke-width:0.63496387" d="m 3.94,-7.94 c -1.67,0 -2.55,1.36 -3.01,2.72 -0.46,1.36 -0.5,2.72 -0.5,2.72 h -0.86 c 0,0 -0.16,-5.43 -3.5,-5.44 z" id="path17487" inkscape:connector-curvature="0"/>
        <path style="stroke-width:0.63496387" d="m -2.32,2.25 c 1.9,-1.9 1.9,-4.75 1.9,-4.75 l 0.85,-0.01 c 0,0 0,2.91 1.85,4.76" id="path17489" inkscape:connector-curvature="0"/>
        <path style="stroke-width:0.63496387" d="m -1.94,-3.85 c 1.9,1.9 4.75,1.9 4.75,1.9 v 0.85 c 0,0 -2.91,0 -4.76,1.85" id="path17491" inkscape:connector-curvature="0"/>
        <path style="stroke-width:0.63496387" d="m 1.87,-3.86 c -1.9,1.9 -4.75,1.9 -4.75,1.9 v 0.85 c 0,0 2.91,0 4.76,1.85" id="path17493" inkscape:connector-curvature="0"/>
      </g>
      <g id="g17511" transform="matrix(-3.7797426,0,0,-3.7797426,1449.3576,-140.31232)" style="display:inline;stroke-width:0.63496387">
        <path inkscape:connector-curvature="0" id="path17497" d="m 3.35,4.66 c 0,-1.81 -1.51,-3.28 -3.38,-3.28 -1.87,0 -3.38,1.47 -3.38,3.28 0,1.81 1.51,3.28 3.38,3.28 1.87,0 3.38,-1.47 3.38,-3.28 z" style="stroke-width:0.63496387"/>
        <path inkscape:connector-curvature="0" id="path17499" d="m 7.71,-1.55 c 0,-1.81 -1.51,-3.28 -3.38,-3.28 -1.87,0 -3.38,1.47 -3.38,3.28 0,1.81 1.51,3.28 3.38,3.28 1.87,0 3.38,-1.47 3.38,-3.28 z" style="stroke-width:0.63496387"/>
        <path inkscape:connector-curvature="0" id="path17501" d="m -0.95,-1.57 c 0,-0.66 -0.2,-1.28 -0.55,-1.8 -0.6,-0.89 -1.65,-1.48 -2.83,-1.48 -1.87,0 -3.38,1.47 -3.38,3.28 0,1.81 1.51,3.28 3.38,3.28 1.87,0 3.38,-1.47 3.38,-3.28 z" style="stroke-width:0.63496387"/>
        <path inkscape:connector-curvature="0" id="path17503" d="m 3.94,-7.94 c -1.67,0 -2.55,1.36 -3.01,2.72 -0.46,1.36 -0.5,2.72 -0.5,2.72 h -0.86 c 0,0 -0.16,-5.43 -3.5,-5.44 z" style="stroke-width:0.63496387"/>
        <path inkscape:connector-curvature="0" id="path17505" d="m -2.32,2.25 c 1.9,-1.9 1.9,-4.75 1.9,-4.75 l 0.85,-0.01 c 0,0 0,2.91 1.85,4.76" style="stroke-width:0.63496387"/>
        <path inkscape:connector-curvature="0" id="path17507" d="m -1.94,-3.85 c 1.9,1.9 4.75,1.9 4.75,1.9 v 0.85 c 0,0 -2.91,0 -4.76,1.85" style="stroke-width:0.63496387"/>
        <path inkscape:connector-curvature="0" id="path17509" d="m 1.87,-3.86 c -1.9,1.9 -4.75,1.9 -4.75,1.9 v 0.85 c 0,0 2.91,0 4.76,1.85" style="stroke-width:0.63496387"/>
      </g>
      <g style="display:inline;stroke-width:0.63496387" transform="matrix(-3.7797426,0,0,-3.7797426,1407.342,-92.294475)" id="g17527">
        <path style="stroke-width:0.63496387" d="m 3.35,4.66 c 0,-1.81 -1.51,-3.28 -3.38,-3.28 -1.87,0 -3.38,1.47 -3.38,3.28 0,1.81 1.51,3.28 3.38,3.28 1.87,0 3.38,-1.47 3.38,-3.28 z" id="path17513" inkscape:connector-curvature="0"/>
        <path style="stroke-width:0.63496387" d="m 7.71,-1.55 c 0,-1.81 -1.51,-3.28 -3.38,-3.28 -1.87,0 -3.38,1.47 -3.38,3.28 0,1.81 1.51,3.28 3.38,3.28 1.87,0 3.38,-1.47 3.38,-3.28 z" id="path17515" inkscape:connector-curvature="0"/>
        <path style="stroke-width:0.63496387" d="m -0.95,-1.57 c 0,-0.66 -0.2,-1.28 -0.55,-1.8 -0.6,-0.89 -1.65,-1.48 -2.83,-1.48 -1.87,0 -3.38,1.47 -3.38,3.28 0,1.81 1.51,3.28 3.38,3.28 1.87,0 3.38,-1.47 3.38,-3.28 z" id="path17517" inkscape:connector-curvature="0"/>
        <path style="stroke-width:0.63496387" d="m 3.94,-7.94 c -1.67,0 -2.55,1.36 -3.01,2.72 -0.46,1.36 -0.5,2.72 -0.5,2.72 h -0.86 c 0,0 -0.16,-5.43 -3.5,-5.44 z" id="path17519" inkscape:connector-curvature="0"/>
        <path style="stroke-width:0.63496387" d="m -2.32,2.25 c 1.9,-1.9 1.9,-4.75 1.9,-4.75 l 0.85,-0.01 c 0,0 0,2.91 1.85,4.76" id="path17521" inkscape:connector-curvature="0"/>
        <path style="stroke-width:0.63496387" d="m -1.94,-3.85 c 1.9,1.9 4.75,1.9 4.75,1.9 v 0.85 c 0,0 -2.91,0 -4.76,1.85" id="path17523" inkscape:connector-curvature="0"/>
        <path style="stroke-width:0.63496387" d="m 1.87,-3.86 c -1.9,1.9 -4.75,1.9 -4.75,1.9 v 0.85 c 0,0 2.91,0 4.76,1.85" id="path17525" inkscape:connector-curvature="0"/>
      </g>
      <g id="g17543" transform="matrix(-3.7797426,0,0,-3.7797426,1491.3732,-92.294477)" style="display:inline;stroke-width:0.63496387">
        <path inkscape:connector-curvature="0" id="path17529" d="m 3.35,4.66 c 0,-1.81 -1.51,-3.28 -3.38,-3.28 -1.87,0 -3.38,1.47 -3.38,3.28 0,1.81 1.51,3.28 3.38,3.28 1.87,0 3.38,-1.47 3.38,-3.28 z" style="stroke-width:0.63496387"/>
        <path inkscape:connector-curvature="0" id="path17531" d="m 7.71,-1.55 c 0,-1.81 -1.51,-3.28 -3.38,-3.28 -1.87,0 -3.38,1.47 -3.38,3.28 0,1.81 1.51,3.28 3.38,3.28 1.87,0 3.38,-1.47 3.38,-3.28 z" style="stroke-width:0.63496387"/>
        <path inkscape:connector-curvature="0" id="path17533" d="m -0.95,-1.57 c 0,-0.66 -0.2,-1.28 -0.55,-1.8 -0.6,-0.89 -1.65,-1.48 -2.83,-1.48 -1.87,0 -3.38,1.47 -3.38,3.28 0,1.81 1.51,3.28 3.38,3.28 1.87,0 3.38,-1.47 3.38,-3.28 z" style="stroke-width:0.63496387"/>
        <path inkscape:connector-curvature="0" id="path17535" d="m 3.94,-7.94 c -1.67,0 -2.55,1.36 -3.01,2.72 -0.46,1.36 -0.5,2.72 -0.5,2.72 h -0.86 c 0,0 -0.16,-5.43 -3.5,-5.44 z" style="stroke-width:0.63496387"/>
        <path inkscape:connector-curvature="0" id="path17537" d="m -2.32,2.25 c 1.9,-1.9 1.9,-4.75 1.9,-4.75 l 0.85,-0.01 c 0,0 0,2.91 1.85,4.76" style="stroke-width:0.63496387"/>
        <path inkscape:connector-curvature="0" id="path17539" d="m -1.94,-3.85 c 1.9,1.9 4.75,1.9 4.75,1.9 v 0.85 c 0,0 -2.91,0 -4.76,1.85" style="stroke-width:0.63496387"/>
        <path inkscape:connector-curvature="0" id="path17541" d="m 1.87,-3.86 c -1.9,1.9 -4.75,1.9 -4.75,1.9 v 0.85 c 0,0 2.91,0 4.76,1.85" style="stroke-width:0.63496387"/>
      </g>
      <g id="g17559" transform="matrix(3.7797426,0,0,3.7797426,1365.2887,51.759087)" style="display:inline;stroke-width:0.63496387">
        <path inkscape:connector-curvature="0" id="path17545" d="m 3.35,4.66 c 0,-1.81 -1.51,-3.28 -3.38,-3.28 -1.87,0 -3.38,1.47 -3.38,3.28 0,1.81 1.51,3.28 3.38,3.28 1.87,0 3.38,-1.47 3.38,-3.28 z" style="stroke-width:0.63496387"/>
        <path inkscape:connector-curvature="0" id="path17547" d="m 7.71,-1.55 c 0,-1.81 -1.51,-3.28 -3.38,-3.28 -1.87,0 -3.38,1.47 -3.38,3.28 0,1.81 1.51,3.28 3.38,3.28 1.87,0 3.38,-1.47 3.38,-3.28 z" style="stroke-width:0.63496387"/>
        <path inkscape:connector-curvature="0" id="path17549" d="m -0.95,-1.57 c 0,-0.66 -0.2,-1.28 -0.55,-1.8 -0.6,-0.89 -1.65,-1.48 -2.83,-1.48 -1.87,0 -3.38,1.47 -3.38,3.28 0,1.81 1.51,3.28 3.38,3.28 1.87,0 3.38,-1.47 3.38,-3.28 z" style="stroke-width:0.63496387"/>
        <path inkscape:connector-curvature="0" id="path17551" d="m 3.94,-7.94 c -1.67,0 -2.55,1.36 -3.01,2.72 -0.46,1.36 -0.5,2.72 -0.5,2.72 h -0.86 c 0,0 -0.16,-5.43 -3.5,-5.44 z" style="stroke-width:0.63496387"/>
        <path inkscape:connector-curvature="0" id="path17553" d="m -2.32,2.25 c 1.9,-1.9 1.9,-4.75 1.9,-4.75 l 0.85,-0.01 c 0,0 0,2.91 1.85,4.76" style="stroke-width:0.63496387"/>
        <path inkscape:connector-curvature="0" id="path17555" d="m -1.94,-3.85 c 1.9,1.9 4.75,1.9 4.75,1.9 v 0.85 c 0,0 -2.91,0 -4.76,1.85" style="stroke-width:0.63496387"/>
        <path inkscape:connector-curvature="0" id="path17557" d="m 1.87,-3.86 c -1.9,1.9 -4.75,1.9 -4.75,1.9 v 0.85 c 0,0 2.91,0 4.76,1.85" style="stroke-width:0.63496387"/>
      </g>
      <g style="display:inline;stroke-width:0.63496387" transform="matrix(3.7797426,0,0,3.7797426,1449.3198,51.759094)" id="g17575">
        <path style="stroke-width:0.63496387" d="m 3.35,4.66 c 0,-1.81 -1.51,-3.28 -3.38,-3.28 -1.87,0 -3.38,1.47 -3.38,3.28 0,1.81 1.51,3.28 3.38,3.28 1.87,0 3.38,-1.47 3.38,-3.28 z" id="path17561" inkscape:connector-curvature="0"/>
        <path style="stroke-width:0.63496387" d="m 7.71,-1.55 c 0,-1.81 -1.51,-3.28 -3.38,-3.28 -1.87,0 -3.38,1.47 -3.38,3.28 0,1.81 1.51,3.28 3.38,3.28 1.87,0 3.38,-1.47 3.38,-3.28 z" id="path17563" inkscape:connector-curvature="0"/>
        <path style="stroke-width:0.63496387" d="m -0.95,-1.57 c 0,-0.66 -0.2,-1.28 -0.55,-1.8 -0.6,-0.89 -1.65,-1.48 -2.83,-1.48 -1.87,0 -3.38,1.47 -3.38,3.28 0,1.81 1.51,3.28 3.38,3.28 1.87,0 3.38,-1.47 3.38,-3.28 z" id="path17565" inkscape:connector-curvature="0"/>
        <path style="stroke-width:0.63496387" d="m 3.94,-7.94 c -1.67,0 -2.55,1.36 -3.01,2.72 -0.46,1.36 -0.5,2.72 -0.5,2.72 h -0.86 c 0,0 -0.16,-5.43 -3.5,-5.44 z" id="path17567" inkscape:connector-curvature="0"/>
        <path style="stroke-width:0.63496387" d="m -2.32,2.25 c 1.9,-1.9 1.9,-4.75 1.9,-4.75 l 0.85,-0.01 c 0,0 0,2.91 1.85,4.76" id="path17569" inkscape:connector-curvature="0"/>
        <path style="stroke-width:0.63496387" d="m -1.94,-3.85 c 1.9,1.9 4.75,1.9 4.75,1.9 v 0.85 c 0,0 -2.91,0 -4.76,1.85" id="path17571" inkscape:connector-curvature="0"/>
        <path style="stroke-width:0.63496387" d="m 1.87,-3.86 c -1.9,1.9 -4.75,1.9 -4.75,1.9 v 0.85 c 0,0 2.91,0 4.76,1.85" id="path17573" inkscape:connector-curvature="0"/>
      </g>
      <g style="display:inline;stroke-width:0.63496387" transform="matrix(3.7797426,0,0,3.7797426,1365.2886,-44.276632)" id="g17607">
        <path style="stroke-width:0.63496387" d="m 3.35,4.66 c 0,-1.81 -1.51,-3.28 -3.38,-3.28 -1.87,0 -3.38,1.47 -3.38,3.28 0,1.81 1.51,3.28 3.38,3.28 1.87,0 3.38,-1.47 3.38,-3.28 z" id="path17593" inkscape:connector-curvature="0"/>
        <path style="stroke-width:0.63496387" d="m 7.71,-1.55 c 0,-1.81 -1.51,-3.28 -3.38,-3.28 -1.87,0 -3.38,1.47 -3.38,3.28 0,1.81 1.51,3.28 3.38,3.28 1.87,0 3.38,-1.47 3.38,-3.28 z" id="path17595" inkscape:connector-curvature="0"/>
        <path style="stroke-width:0.63496387" d="m -0.95,-1.57 c 0,-0.66 -0.2,-1.28 -0.55,-1.8 -0.6,-0.89 -1.65,-1.48 -2.83,-1.48 -1.87,0 -3.38,1.47 -3.38,3.28 0,1.81 1.51,3.28 3.38,3.28 1.87,0 3.38,-1.47 3.38,-3.28 z" id="path17597" inkscape:connector-curvature="0"/>
        <path style="stroke-width:0.63496387" d="m 3.94,-7.94 c -1.67,0 -2.55,1.36 -3.01,2.72 -0.46,1.36 -0.5,2.72 -0.5,2.72 h -0.86 c 0,0 -0.16,-5.43 -3.5,-5.44 z" id="path17599" inkscape:connector-curvature="0"/>
        <path style="stroke-width:0.63496387" d="m -2.32,2.25 c 1.9,-1.9 1.9,-4.75 1.9,-4.75 l 0.85,-0.01 c 0,0 0,2.91 1.85,4.76" id="path17601" inkscape:connector-curvature="0"/>
        <path style="stroke-width:0.63496387" d="m -1.94,-3.85 c 1.9,1.9 4.75,1.9 4.75,1.9 v 0.85 c 0,0 -2.91,0 -4.76,1.85" id="path17603" inkscape:connector-curvature="0"/>
        <path style="stroke-width:0.63496387" d="m 1.87,-3.86 c -1.9,1.9 -4.75,1.9 -4.75,1.9 v 0.85 c 0,0 2.91,0 4.76,1.85" id="path17605" inkscape:connector-curvature="0"/>
      </g>
      <g id="g17623" transform="matrix(3.7797426,0,0,3.7797426,1449.3198,-44.276625)" style="display:inline;stroke-width:0.63496387">
        <path inkscape:connector-curvature="0" id="path17609" d="m 3.35,4.66 c 0,-1.81 -1.51,-3.28 -3.38,-3.28 -1.87,0 -3.38,1.47 -3.38,3.28 0,1.81 1.51,3.28 3.38,3.28 1.87,0 3.38,-1.47 3.38,-3.28 z" style="stroke-width:0.63496387"/>
        <path inkscape:connector-curvature="0" id="path17611" d="m 7.71,-1.55 c 0,-1.81 -1.51,-3.28 -3.38,-3.28 -1.87,0 -3.38,1.47 -3.38,3.28 0,1.81 1.51,3.28 3.38,3.28 1.87,0 3.38,-1.47 3.38,-3.28 z" style="stroke-width:0.63496387"/>
        <path inkscape:connector-curvature="0" id="path17613" d="m -0.95,-1.57 c 0,-0.66 -0.2,-1.28 -0.55,-1.8 -0.6,-0.89 -1.65,-1.48 -2.83,-1.48 -1.87,0 -3.38,1.47 -3.38,3.28 0,1.81 1.51,3.28 3.38,3.28 1.87,0 3.38,-1.47 3.38,-3.28 z" style="stroke-width:0.63496387"/>
        <path inkscape:connector-curvature="0" id="path17615" d="m 3.94,-7.94 c -1.67,0 -2.55,1.36 -3.01,2.72 -0.46,1.36 -0.5,2.72 -0.5,2.72 h -0.86 c 0,0 -0.16,-5.43 -3.5,-5.44 z" style="stroke-width:0.63496387"/>
        <path inkscape:connector-curvature="0" id="path17617" d="m -2.32,2.25 c 1.9,-1.9 1.9,-4.75 1.9,-4.75 l 0.85,-0.01 c 0,0 0,2.91 1.85,4.76" style="stroke-width:0.63496387"/>
        <path inkscape:connector-curvature="0" id="path17619" d="m -1.94,-3.85 c 1.9,1.9 4.75,1.9 4.75,1.9 v 0.85 c 0,0 -2.91,0 -4.76,1.85" style="stroke-width:0.63496387"/>
        <path inkscape:connector-curvature="0" id="path17621" d="m 1.87,-3.86 c -1.9,1.9 -4.75,1.9 -4.75,1.9 v 0.85 c 0,0 2.91,0 4.76,1.85" style="stroke-width:0.63496387"/>
      </g>
      <g style="display:inline;stroke-width:1.0582732" transform="matrix(-2.2678455,0,0,-2.2678455,1350.3134,-146.31467)" id="g17639">
        <path style="stroke-width:1.0582732" d="m 3.35,4.66 c 0,-1.81 -1.51,-3.28 -3.38,-3.28 -1.87,0 -3.38,1.47 -3.38,3.28 0,1.81 1.51,3.28 3.38,3.28 1.87,0 3.38,-1.47 3.38,-3.28 z" id="path17625" inkscape:connector-curvature="0"/>
        <path style="stroke-width:1.0582732" d="m 7.71,-1.55 c 0,-1.81 -1.51,-3.28 -3.38,-3.28 -1.87,0 -3.38,1.47 -3.38,3.28 0,1.81 1.51,3.28 3.38,3.28 1.87,0 3.38,-1.47 3.38,-3.28 z" id="path17627" inkscape:connector-curvature="0"/>
        <path style="stroke-width:1.0582732" d="m -0.95,-1.57 c 0,-0.66 -0.2,-1.28 -0.55,-1.8 -0.6,-0.89 -1.65,-1.48 -2.83,-1.48 -1.87,0 -3.38,1.47 -3.38,3.28 0,1.81 1.51,3.28 3.38,3.28 1.87,0 3.38,-1.47 3.38,-3.28 z" id="path17629" inkscape:connector-curvature="0"/>
        <path style="stroke-width:1.0582732" d="m 3.94,-7.94 c -1.67,0 -2.55,1.36 -3.01,2.72 -0.46,1.36 -0.5,2.72 -0.5,2.72 h -0.86 c 0,0 -0.16,-5.43 -3.5,-5.44 z" id="path17631" inkscape:connector-curvature="0"/>
        <path style="stroke-width:1.0582732" d="m -2.32,2.25 c 1.9,-1.9 1.9,-4.75 1.9,-4.75 l 0.85,-0.01 c 0,0 0,2.91 1.85,4.76" id="path17633" inkscape:connector-curvature="0"/>
        <path style="stroke-width:1.0582732" d="m -1.94,-3.85 c 1.9,1.9 4.75,1.9 4.75,1.9 v 0.85 c 0,0 -2.91,0 -4.76,1.85" id="path17635" inkscape:connector-curvature="0"/>
        <path style="stroke-width:1.0582732" d="m 1.87,-3.86 c -1.9,1.9 -4.75,1.9 -4.75,1.9 v 0.85 c 0,0 2.91,0 4.76,1.85" id="path17637" inkscape:connector-curvature="0"/>
      </g>
      <g id="g17655" transform="matrix(2.2678455,0,0,2.2678455,1506.3485,9.7433857)" style="display:inline;stroke-width:1.0582732">
        <path inkscape:connector-curvature="0" id="path17641" d="m 3.35,4.66 c 0,-1.81 -1.51,-3.28 -3.38,-3.28 -1.87,0 -3.38,1.47 -3.38,3.28 0,1.81 1.51,3.28 3.38,3.28 1.87,0 3.38,-1.47 3.38,-3.28 z" style="stroke-width:1.0582732"/>
        <path inkscape:connector-curvature="0" id="path17643" d="m 7.71,-1.55 c 0,-1.81 -1.51,-3.28 -3.38,-3.28 -1.87,0 -3.38,1.47 -3.38,3.28 0,1.81 1.51,3.28 3.38,3.28 1.87,0 3.38,-1.47 3.38,-3.28 z" style="stroke-width:1.0582732"/>
        <path inkscape:connector-curvature="0" id="path17645" d="m -0.95,-1.57 c 0,-0.66 -0.2,-1.28 -0.55,-1.8 -0.6,-0.89 -1.65,-1.48 -2.83,-1.48 -1.87,0 -3.38,1.47 -3.38,3.28 0,1.81 1.51,3.28 3.38,3.28 1.87,0 3.38,-1.47 3.38,-3.28 z" style="stroke-width:1.0582732"/>
        <path inkscape:connector-curvature="0" id="path17647" d="m 3.94,-7.94 c -1.67,0 -2.55,1.36 -3.01,2.72 -0.46,1.36 -0.5,2.72 -0.5,2.72 h -0.86 c 0,0 -0.16,-5.43 -3.5,-5.44 z" style="stroke-width:1.0582732"/>
        <path inkscape:connector-curvature="0" id="path17649" d="m -2.32,2.25 c 1.9,-1.9 1.9,-4.75 1.9,-4.75 l 0.85,-0.01 c 0,0 0,2.91 1.85,4.76" style="stroke-width:1.0582732"/>
        <path inkscape:connector-curvature="0" id="path17651" d="m -1.94,-3.85 c 1.9,1.9 4.75,1.9 4.75,1.9 v 0.85 c 0,0 -2.91,0 -4.76,1.85" style="stroke-width:1.0582732"/>
        <path inkscape:connector-curvature="0" id="path17653" d="m 1.87,-3.86 c -1.9,1.9 -4.75,1.9 -4.75,1.9 v 0.85 c 0,0 2.91,0 4.76,1.85" style="stroke-width:1.0582732"/>
      </g>
    </g>
    </g></svg>
