<?xml version='1.0' encoding='UTF-8'?>
<!-- Created with Inkscape (http://www.inkscape.org/) and export_objects.py -->
<svg xmlns:cc="http://creativecommons.org/ns#" xmlns:dc="http://purl.org/dc/elements/1.1/" xmlns:inkscape="http://www.inkscape.org/namespaces/inkscape" xmlns:rdf="http://www.w3.org/1999/02/22-rdf-syntax-ns#" xmlns:sodipodi="http://sodipodi.sourceforge.net/DTD/sodipodi-0.dtd" xmlns:xlink="http://www.w3.org/1999/xlink" xmlns="http://www.w3.org/2000/svg" version="1.1" width="57.1500026458mm" height="88.8999973542mm" viewBox="0 0 57.1500026458 88.8999973542" id="svg24051" sodipodi:docname="club-012.svg"><sodipodi:namedview id="base" pagecolor="#ffffff" bordercolor="#666666" borderopacity="1.0" inkscape:pageopacity="0.0" inkscape:pageshadow="2" inkscape:zoom="0.35" inkscape:cx="-50" inkscape:cy="560" inkscape:document-units="mm" inkscape:current-layer="layer1" showgrid="false" inkscape:lockguides="true" inkscape:window-width="1280" inkscape:window-height="940" inkscape:window-x="1909" inkscape:window-y="43" inkscape:window-maximized="1"/>
  <metadata id="metadata24048">
    <rdf:RDF>
      <cc:Work rdf:about="">
        <dc:format>image/svg+xml</dc:format>
        <dc:type rdf:resource="http://purl.org/dc/dcmitype/StillImage"/>
      </cc:Work>
    </rdf:RDF>
  </metadata>
  <g inkscape:groupmode="layer" inkscape:label="club-" transform="matrix(1.000000,0.000000,0.000000,1.000000,-164.192897,65.705956)"><g transform="matrix(0.26448498,0,0,0.26448498,-604.1042,-3.1954291)" id="g17636" inkscape:label="012">
      <rect style="display:inline;opacity:1;fill:#ffffff;fill-opacity:1;stroke:none;stroke-width:0.13338292;stroke-linecap:butt;stroke-linejoin:miter;stroke-miterlimit:47.14606857;stroke-dasharray:none;stroke-dashoffset:0;stroke-opacity:1;paint-order:markers fill stroke" id="rect19531" width="216.08034" height="336.12494" x="2904.8799" y="-236.34811"/>
      <g id="text19535" style="font-style:normal;font-variant:normal;font-weight:normal;font-stretch:normal;font-size:80.02975464px;line-height:125%;font-family:'Stint Ultra Condensed';-inkscape-font-specification:'Stint Ultra Condensed, ';font-variant-ligatures:normal;font-variant-caps:normal;font-variant-numeric:normal;font-feature-settings:normal;text-align:center;letter-spacing:0px;word-spacing:0px;writing-mode:lr-tb;text-anchor:middle;display:inline;fill:#000000;fill-opacity:1;stroke:none;stroke-width:1.00037193" aria-label="3" transform="translate(-2088.7764,79.839752)">
        <path id="path12708" style="font-style:normal;font-variant:normal;font-weight:normal;font-stretch:normal;font-size:80.02975464px;font-family:'Stint Ultra Condensed';-inkscape-font-specification:'Stint Ultra Condensed, ';text-align:center;text-anchor:middle;stroke-width:1.00037193" d="m 5024.449,-283.53501 q 3.1262,0.78154 4.9628,2.69632 1.8757,1.8757 2.8135,4.29847 0.977,2.3837 1.2505,5.00186 0.3126,2.57909 0.3126,4.72832 0,4.22032 -0.7424,7.54187 -0.7425,3.28247 -2.1493,5.54894 -1.4067,2.26646 -3.3997,3.43878 -1.9538,1.17231 -4.4157,1.17231 -2.0711,0 -3.9077,-1.01601 -1.7975,-0.97692 -3.1652,-3.20431 -1.3677,-2.22739 -2.1493,-5.74433 -0.7815,-3.55601 -0.7815,-8.63602 h 4.8065 q 0,7.46371 1.3286,10.90249 1.3286,3.43878 4.1031,3.43878 1.524,0 2.5791,-1.05508 1.0551,-1.09416 1.6803,-2.93078 0.6643,-1.83662 0.9378,-4.25939 0.3126,-2.42278 0.3126,-5.11909 0,-2.93078 -0.4689,-5.31448 -0.4689,-2.42278 -1.524,-4.14216 -1.016,-1.71939 -2.6963,-2.65724 -1.6803,-0.97693 -4.1031,-1.01601 v -4.22031 l 8.0108,-15.3182 h -9.6911 v 8.44064 h -4.2594 v -12.89542 h 19.4604 v 3.36062 z" inkscape:connector-curvature="0"/>
      </g>
      <g id="text19539" style="font-style:normal;font-variant:normal;font-weight:normal;font-stretch:normal;font-size:80.02975464px;line-height:125%;font-family:'Stint Ultra Condensed';-inkscape-font-specification:'Stint Ultra Condensed, ';font-variant-ligatures:normal;font-variant-caps:normal;font-variant-numeric:normal;font-feature-settings:normal;text-align:center;letter-spacing:0px;word-spacing:0px;writing-mode:lr-tb;text-anchor:middle;display:inline;fill:#000000;fill-opacity:1;stroke:none;stroke-width:1.00037193" transform="rotate(180,-1044.3882,39.919876)" aria-label="3">
        <path id="path12705" style="font-style:normal;font-variant:normal;font-weight:normal;font-stretch:normal;font-size:80.02975464px;font-family:'Stint Ultra Condensed';-inkscape-font-specification:'Stint Ultra Condensed, ';text-align:center;text-anchor:middle;stroke-width:1.00037193" d="m -5178.944,12.715566 q 3.1261,0.781541 4.9627,2.696315 1.8757,1.875698 2.8136,4.298474 0.9769,2.383698 1.2504,5.001859 0.3127,2.579084 0.3127,4.728321 0,4.220319 -0.7425,7.541866 -0.7425,3.282471 -2.1492,5.548938 -1.4068,2.266468 -3.3997,3.438779 -1.9539,1.172311 -4.4157,1.172311 -2.0711,0 -3.9077,-1.016003 -1.7976,-0.976926 -3.1653,-3.204316 -1.3677,-2.227391 -2.1492,-5.744324 -0.7816,-3.556009 -0.7816,-8.636023 h 4.8065 q 0,7.463713 1.3286,10.902491 1.3287,3.438779 4.1031,3.438779 1.524,0 2.5791,-1.05508 1.0551,-1.094157 1.6803,-2.930777 0.6643,-1.836621 0.9379,-4.259396 0.3126,-2.422776 0.3126,-5.119091 0,-2.930777 -0.4689,-5.314476 -0.469,-2.422776 -1.524,-4.142165 -1.016,-1.719389 -2.6964,-2.657238 -1.6803,-0.976926 -4.103,-1.016003 v -4.220319 l 8.0107,-15.3181951 h -9.6911 V 5.290931 h -4.2594 V -7.6044884 h 19.4604 v 3.3606245 z" inkscape:connector-curvature="0"/>
      </g>
      <g style="display:inline;stroke-width:0.63496387" transform="matrix(-3.7797426,0,0,-3.7797426,3012.9394,-68.28557)" id="g19609">
        <path style="stroke-width:0.63496387" d="m 3.35,4.66 c 0,-1.81 -1.51,-3.28 -3.38,-3.28 -1.87,0 -3.38,1.47 -3.38,3.28 0,1.81 1.51,3.28 3.38,3.28 1.87,0 3.38,-1.47 3.38,-3.28 z" id="path19595" inkscape:connector-curvature="0"/>
        <path style="stroke-width:0.63496387" d="m 7.71,-1.55 c 0,-1.81 -1.51,-3.28 -3.38,-3.28 -1.87,0 -3.38,1.47 -3.38,3.28 0,1.81 1.51,3.28 3.38,3.28 1.87,0 3.38,-1.47 3.38,-3.28 z" id="path19597" inkscape:connector-curvature="0"/>
        <path style="stroke-width:0.63496387" d="m -0.95,-1.57 c 0,-0.66 -0.2,-1.28 -0.55,-1.8 -0.6,-0.89 -1.65,-1.48 -2.83,-1.48 -1.87,0 -3.38,1.47 -3.38,3.28 0,1.81 1.51,3.28 3.38,3.28 1.87,0 3.38,-1.47 3.38,-3.28 z" id="path19599" inkscape:connector-curvature="0"/>
        <path style="stroke-width:0.63496387" d="m 3.94,-7.94 c -1.67,0 -2.55,1.36 -3.01,2.72 -0.46,1.36 -0.5,2.72 -0.5,2.72 h -0.86 c 0,0 -0.16,-5.43 -3.5,-5.44 z" id="path19601" inkscape:connector-curvature="0"/>
        <path style="stroke-width:0.63496387" d="m -2.32,2.25 c 1.9,-1.9 1.9,-4.75 1.9,-4.75 l 0.85,-0.01 c 0,0 0,2.91 1.85,4.76" id="path19603" inkscape:connector-curvature="0"/>
        <path style="stroke-width:0.63496387" d="m -1.94,-3.85 c 1.9,1.9 4.75,1.9 4.75,1.9 v 0.85 c 0,0 -2.91,0 -4.76,1.85" id="path19605" inkscape:connector-curvature="0"/>
        <path style="stroke-width:0.63496387" d="m 1.87,-3.86 c -1.9,1.9 -4.75,1.9 -4.75,1.9 v 0.85 c 0,0 2.91,0 4.76,1.85" id="path19607" inkscape:connector-curvature="0"/>
      </g>
      <g id="g19657" transform="matrix(-3.7797426,0,0,-3.7797426,3012.9395,-188.33014)" style="display:inline;stroke-width:0.63496387">
        <path inkscape:connector-curvature="0" id="path19643" d="m 3.35,4.66 c 0,-1.81 -1.51,-3.28 -3.38,-3.28 -1.87,0 -3.38,1.47 -3.38,3.28 0,1.81 1.51,3.28 3.38,3.28 1.87,0 3.38,-1.47 3.38,-3.28 z" style="stroke-width:0.63496387"/>
        <path inkscape:connector-curvature="0" id="path19645" d="m 7.71,-1.55 c 0,-1.81 -1.51,-3.28 -3.38,-3.28 -1.87,0 -3.38,1.47 -3.38,3.28 0,1.81 1.51,3.28 3.38,3.28 1.87,0 3.38,-1.47 3.38,-3.28 z" style="stroke-width:0.63496387"/>
        <path inkscape:connector-curvature="0" id="path19647" d="m -0.95,-1.57 c 0,-0.66 -0.2,-1.28 -0.55,-1.8 -0.6,-0.89 -1.65,-1.48 -2.83,-1.48 -1.87,0 -3.38,1.47 -3.38,3.28 0,1.81 1.51,3.28 3.38,3.28 1.87,0 3.38,-1.47 3.38,-3.28 z" style="stroke-width:0.63496387"/>
        <path inkscape:connector-curvature="0" id="path19649" d="m 3.94,-7.94 c -1.67,0 -2.55,1.36 -3.01,2.72 -0.46,1.36 -0.5,2.72 -0.5,2.72 h -0.86 c 0,0 -0.16,-5.43 -3.5,-5.44 z" style="stroke-width:0.63496387"/>
        <path inkscape:connector-curvature="0" id="path19651" d="m -2.32,2.25 c 1.9,-1.9 1.9,-4.75 1.9,-4.75 l 0.85,-0.01 c 0,0 0,2.91 1.85,4.76" style="stroke-width:0.63496387"/>
        <path inkscape:connector-curvature="0" id="path19653" d="m -1.94,-3.85 c 1.9,1.9 4.75,1.9 4.75,1.9 v 0.85 c 0,0 -2.91,0 -4.76,1.85" style="stroke-width:0.63496387"/>
        <path inkscape:connector-curvature="0" id="path19655" d="m 1.87,-3.86 c -1.9,1.9 -4.75,1.9 -4.75,1.9 v 0.85 c 0,0 2.91,0 4.76,1.85" style="stroke-width:0.63496387"/>
      </g>
      <g id="g19705" transform="matrix(3.7797426,0,0,3.7797426,3012.9017,51.759144)" style="display:inline;stroke-width:0.63496387">
        <path inkscape:connector-curvature="0" id="path19691" d="m 3.35,4.66 c 0,-1.81 -1.51,-3.28 -3.38,-3.28 -1.87,0 -3.38,1.47 -3.38,3.28 0,1.81 1.51,3.28 3.38,3.28 1.87,0 3.38,-1.47 3.38,-3.28 z" style="stroke-width:0.63496387"/>
        <path inkscape:connector-curvature="0" id="path19693" d="m 7.71,-1.55 c 0,-1.81 -1.51,-3.28 -3.38,-3.28 -1.87,0 -3.38,1.47 -3.38,3.28 0,1.81 1.51,3.28 3.38,3.28 1.87,0 3.38,-1.47 3.38,-3.28 z" style="stroke-width:0.63496387"/>
        <path inkscape:connector-curvature="0" id="path19695" d="m -0.95,-1.57 c 0,-0.66 -0.2,-1.28 -0.55,-1.8 -0.6,-0.89 -1.65,-1.48 -2.83,-1.48 -1.87,0 -3.38,1.47 -3.38,3.28 0,1.81 1.51,3.28 3.38,3.28 1.87,0 3.38,-1.47 3.38,-3.28 z" style="stroke-width:0.63496387"/>
        <path inkscape:connector-curvature="0" id="path19697" d="m 3.94,-7.94 c -1.67,0 -2.55,1.36 -3.01,2.72 -0.46,1.36 -0.5,2.72 -0.5,2.72 h -0.86 c 0,0 -0.16,-5.43 -3.5,-5.44 z" style="stroke-width:0.63496387"/>
        <path inkscape:connector-curvature="0" id="path19699" d="m -2.32,2.25 c 1.9,-1.9 1.9,-4.75 1.9,-4.75 l 0.85,-0.01 c 0,0 0,2.91 1.85,4.76" style="stroke-width:0.63496387"/>
        <path inkscape:connector-curvature="0" id="path19701" d="m -1.94,-3.85 c 1.9,1.9 4.75,1.9 4.75,1.9 v 0.85 c 0,0 -2.91,0 -4.76,1.85" style="stroke-width:0.63496387"/>
        <path inkscape:connector-curvature="0" id="path19703" d="m 1.87,-3.86 c -1.9,1.9 -4.75,1.9 -4.75,1.9 v 0.85 c 0,0 2.91,0 4.76,1.85" style="stroke-width:0.63496387"/>
      </g>
      <g style="display:inline;stroke-width:1.0582732" transform="matrix(-2.2678455,0,0,-2.2678455,2934.903,-146.31461)" id="g19721">
        <path style="stroke-width:1.0582732" d="m 3.35,4.66 c 0,-1.81 -1.51,-3.28 -3.38,-3.28 -1.87,0 -3.38,1.47 -3.38,3.28 0,1.81 1.51,3.28 3.38,3.28 1.87,0 3.38,-1.47 3.38,-3.28 z" id="path19707" inkscape:connector-curvature="0"/>
        <path style="stroke-width:1.0582732" d="m 7.71,-1.55 c 0,-1.81 -1.51,-3.28 -3.38,-3.28 -1.87,0 -3.38,1.47 -3.38,3.28 0,1.81 1.51,3.28 3.38,3.28 1.87,0 3.38,-1.47 3.38,-3.28 z" id="path19709" inkscape:connector-curvature="0"/>
        <path style="stroke-width:1.0582732" d="m -0.95,-1.57 c 0,-0.66 -0.2,-1.28 -0.55,-1.8 -0.6,-0.89 -1.65,-1.48 -2.83,-1.48 -1.87,0 -3.38,1.47 -3.38,3.28 0,1.81 1.51,3.28 3.38,3.28 1.87,0 3.38,-1.47 3.38,-3.28 z" id="path19711" inkscape:connector-curvature="0"/>
        <path style="stroke-width:1.0582732" d="m 3.94,-7.94 c -1.67,0 -2.55,1.36 -3.01,2.72 -0.46,1.36 -0.5,2.72 -0.5,2.72 h -0.86 c 0,0 -0.16,-5.43 -3.5,-5.44 z" id="path19713" inkscape:connector-curvature="0"/>
        <path style="stroke-width:1.0582732" d="m -2.32,2.25 c 1.9,-1.9 1.9,-4.75 1.9,-4.75 l 0.85,-0.01 c 0,0 0,2.91 1.85,4.76" id="path19715" inkscape:connector-curvature="0"/>
        <path style="stroke-width:1.0582732" d="m -1.94,-3.85 c 1.9,1.9 4.75,1.9 4.75,1.9 v 0.85 c 0,0 -2.91,0 -4.76,1.85" id="path19717" inkscape:connector-curvature="0"/>
        <path style="stroke-width:1.0582732" d="m 1.87,-3.86 c -1.9,1.9 -4.75,1.9 -4.75,1.9 v 0.85 c 0,0 2.91,0 4.76,1.85" id="path19719" inkscape:connector-curvature="0"/>
      </g>
      <g id="g19737" transform="matrix(2.2678455,0,0,2.2678455,3090.9381,9.7434557)" style="display:inline;stroke-width:1.0582732">
        <path inkscape:connector-curvature="0" id="path19723" d="m 3.35,4.66 c 0,-1.81 -1.51,-3.28 -3.38,-3.28 -1.87,0 -3.38,1.47 -3.38,3.28 0,1.81 1.51,3.28 3.38,3.28 1.87,0 3.38,-1.47 3.38,-3.28 z" style="stroke-width:1.0582732"/>
        <path inkscape:connector-curvature="0" id="path19725" d="m 7.71,-1.55 c 0,-1.81 -1.51,-3.28 -3.38,-3.28 -1.87,0 -3.38,1.47 -3.38,3.28 0,1.81 1.51,3.28 3.38,3.28 1.87,0 3.38,-1.47 3.38,-3.28 z" style="stroke-width:1.0582732"/>
        <path inkscape:connector-curvature="0" id="path19727" d="m -0.95,-1.57 c 0,-0.66 -0.2,-1.28 -0.55,-1.8 -0.6,-0.89 -1.65,-1.48 -2.83,-1.48 -1.87,0 -3.38,1.47 -3.38,3.28 0,1.81 1.51,3.28 3.38,3.28 1.87,0 3.38,-1.47 3.38,-3.28 z" style="stroke-width:1.0582732"/>
        <path inkscape:connector-curvature="0" id="path19729" d="m 3.94,-7.94 c -1.67,0 -2.55,1.36 -3.01,2.72 -0.46,1.36 -0.5,2.72 -0.5,2.72 h -0.86 c 0,0 -0.16,-5.43 -3.5,-5.44 z" style="stroke-width:1.0582732"/>
        <path inkscape:connector-curvature="0" id="path19731" d="m -2.32,2.25 c 1.9,-1.9 1.9,-4.75 1.9,-4.75 l 0.85,-0.01 c 0,0 0,2.91 1.85,4.76" style="stroke-width:1.0582732"/>
        <path inkscape:connector-curvature="0" id="path19733" d="m -1.94,-3.85 c 1.9,1.9 4.75,1.9 4.75,1.9 v 0.85 c 0,0 -2.91,0 -4.76,1.85" style="stroke-width:1.0582732"/>
        <path inkscape:connector-curvature="0" id="path19735" d="m 1.87,-3.86 c -1.9,1.9 -4.75,1.9 -4.75,1.9 v 0.85 c 0,0 2.91,0 4.76,1.85" style="stroke-width:1.0582732"/>
      </g>
    </g>
    </g></svg>
