<?xml version='1.0' encoding='UTF-8'?>
<!-- Created with Inkscape (http://www.inkscape.org/) and export_objects.py -->
<svg xmlns:cc="http://creativecommons.org/ns#" xmlns:dc="http://purl.org/dc/elements/1.1/" xmlns:inkscape="http://www.inkscape.org/namespaces/inkscape" xmlns:rdf="http://www.w3.org/1999/02/22-rdf-syntax-ns#" xmlns:sodipodi="http://sodipodi.sourceforge.net/DTD/sodipodi-0.dtd" xmlns:xlink="http://www.w3.org/1999/xlink" xmlns="http://www.w3.org/2000/svg" version="1.1" width="57.1500052917mm" height="88.9000026458mm" viewBox="0 0 57.1500052917 88.9000026458" id="svg3285" sodipodi:docname="six-002.svg"><sodipodi:namedview id="base" pagecolor="#ffffff" bordercolor="#666666" borderopacity="1.0" inkscape:pageopacity="0.0" inkscape:pageshadow="2" inkscape:zoom="0.35" inkscape:cx="-50" inkscape:cy="560" inkscape:document-units="mm" inkscape:current-layer="layer1" showgrid="false" inkscape:window-width="1280" inkscape:window-height="940" inkscape:window-x="1909" inkscape:window-y="43" inkscape:window-maximized="1"/>
  <metadata id="metadata3282">
    <rdf:RDF>
      <cc:Work rdf:about="">
        <dc:format>image/svg+xml</dc:format>
        <dc:type rdf:resource="http://purl.org/dc/dcmitype/StillImage"/>
      </cc:Work>
    </rdf:RDF>
  </metadata>
  <g inkscape:groupmode="layer" inkscape:label="six-" transform="matrix(1.000000,0.000000,0.000000,1.000000,-74.234519,39.701197)"><g id="g3673" inkscape:label="002">
      <rect y="-39.701199" x="74.23452" height="88.900002" width="57.150005" id="rect18691" style="display:inline;opacity:1;fill:#ffffff;fill-opacity:1;stroke:none;stroke-width:0.03527778;stroke-linecap:butt;stroke-linejoin:miter;stroke-miterlimit:47.14606857;stroke-dasharray:none;stroke-dashoffset:0;stroke-opacity:1;paint-order:markers fill stroke"/>
      <g id="text18695" style="font-style:normal;font-variant:normal;font-weight:normal;font-stretch:normal;font-size:21.16666794px;line-height:125%;font-family:'Stint Ultra Condensed';-inkscape-font-specification:'Stint Ultra Condensed, ';font-variant-ligatures:normal;font-variant-caps:normal;font-variant-numeric:normal;font-feature-settings:normal;text-align:center;letter-spacing:0px;word-spacing:0px;writing-mode:lr-tb;text-anchor:middle;display:inline;fill:#000000;fill-opacity:1;stroke:none;stroke-width:0.26458338" aria-label="6">
        <path id="path3600" style="font-style:normal;font-variant:normal;font-weight:normal;font-stretch:normal;font-size:21.16666794px;font-family:'Stint Ultra Condensed';-inkscape-font-specification:'Stint Ultra Condensed, ';text-align:center;text-anchor:middle;stroke-width:0.26458338" d="m 80.704432,-29.607751 q 0.07235,-0.186035 0.206706,-0.475423 0.144694,-0.289388 0.37207,-0.558106 0.237712,-0.279052 0.568441,-0.465088 0.330729,-0.19637 0.785482,-0.19637 0.506429,0 0.950846,0.289388 0.444418,0.289388 0.764811,0.868164 0.33073,0.578776 0.516765,1.457276 0.19637,0.868164 0.19637,2.046386 0,0.971517 -0.186035,1.829346 -0.1757,0.847494 -0.516764,1.488282 -0.341065,0.630452 -0.837159,1.002522 -0.496093,0.361735 -1.126546,0.361735 -0.630452,0 -1.178223,-0.423746 -0.537434,-0.434082 -0.940511,-1.291911 -0.403076,-0.868164 -0.640787,-2.170411 -0.227377,-1.302246 -0.227377,-3.059244 0,-1.79834 0.1757,-3.234945 0.1757,-1.446941 0.537435,-2.459799 0.37207,-1.012858 0.930176,-1.550293 0.568441,-0.54777 1.343587,-0.54777 0.496094,0 0.940511,0.279053 0.444418,0.268717 0.775147,0.806152 0.341064,0.537435 0.527099,1.343588 0.196371,0.795817 0.196371,1.850016 h -1.27124 q 0,-1.539958 -0.310059,-2.34611 -0.299723,-0.806153 -0.919841,-0.806153 -0.434082,0 -0.74414,0.485759 -0.310059,0.475423 -0.506429,1.291911 -0.196371,0.816487 -0.289388,1.901693 -0.09302,1.074869 -0.09302,2.284098 z m 1.674317,-0.568441 q -0.320394,0 -0.578776,0.299724 -0.258383,0.299723 -0.465088,0.733805 -0.196371,0.434082 -0.33073,0.930176 -0.134358,0.496094 -0.19637,0.888834 -0.02067,0.775147 0.08268,1.529623 0.113688,0.754476 0.320394,1.364258 0.217041,0.599446 0.516765,0.971517 0.310058,0.37207 0.671793,0.37207 0.330729,0 0.589112,-0.248047 0.258382,-0.258382 0.434082,-0.72347 0.175699,-0.465088 0.258382,-1.116211 0.09302,-0.661458 0.09302,-1.467611 0,-0.826823 -0.08268,-1.477946 -0.08268,-0.661458 -0.258382,-1.116211 -0.165365,-0.454752 -0.434082,-0.692464 -0.258382,-0.248047 -0.620117,-0.248047 z"/>
      </g>
      <g id="text18699" style="font-style:normal;font-variant:normal;font-weight:normal;font-stretch:normal;font-size:21.16666794px;line-height:125%;font-family:'Stint Ultra Condensed';-inkscape-font-specification:'Stint Ultra Condensed, ';font-variant-ligatures:normal;font-variant-caps:normal;font-variant-numeric:normal;font-feature-settings:normal;text-align:center;letter-spacing:0px;word-spacing:0px;writing-mode:lr-tb;text-anchor:middle;display:inline;fill:#000000;fill-opacity:1;stroke:none;stroke-width:0.26458338" transform="scale(-1)" aria-label="6">
        <path id="path3597" style="font-style:normal;font-variant:normal;font-weight:normal;font-stretch:normal;font-size:21.16666794px;font-family:'Stint Ultra Condensed';-inkscape-font-specification:'Stint Ultra Condensed, ';text-align:center;text-anchor:middle;stroke-width:0.26458338" d="m -124.91468,-39.105374 q 0.0724,-0.186036 0.20671,-0.475424 0.14469,-0.289388 0.37207,-0.558105 0.23771,-0.279053 0.56844,-0.465088 0.33073,-0.196371 0.78548,-0.196371 0.50643,0 0.95085,0.289388 0.44441,0.289389 0.76481,0.868165 0.33073,0.578776 0.51676,1.457275 0.19637,0.868164 0.19637,2.046387 0,0.971517 -0.18603,1.829346 -0.1757,0.847493 -0.51677,1.488281 -0.34106,0.630453 -0.83715,1.002523 -0.4961,0.361735 -1.12655,0.361735 -0.63045,0 -1.17822,-0.423747 -0.53744,-0.434082 -0.94051,-1.291911 -0.40308,-0.868164 -0.64079,-2.17041 -0.22738,-1.302246 -0.22738,-3.059245 0,-1.79834 0.1757,-3.234945 0.1757,-1.44694 0.53744,-2.459798 0.37207,-1.012858 0.93017,-1.550293 0.56844,-0.54777 1.34359,-0.54777 0.49609,0 0.94051,0.279052 0.44442,0.268718 0.77515,0.806153 0.34106,0.537435 0.5271,1.343587 0.19637,0.795817 0.19637,1.850016 h -1.27124 q 0,-1.539957 -0.31006,-2.34611 -0.29973,-0.806152 -0.91984,-0.806152 -0.43408,0 -0.74414,0.485758 -0.31006,0.475424 -0.50643,1.291911 -0.19637,0.816488 -0.28939,1.901693 -0.093,1.07487 -0.093,2.284099 z m 1.67432,-0.568441 q -0.3204,0 -0.57878,0.299723 -0.25838,0.299723 -0.46509,0.733805 -0.19637,0.434083 -0.33072,0.930176 -0.13436,0.496094 -0.19638,0.888835 -0.0207,0.775147 0.0827,1.529622 0.11369,0.754476 0.32039,1.364258 0.21704,0.599447 0.51677,0.971517 0.31005,0.372071 0.67179,0.372071 0.33073,0 0.58911,-0.248047 0.25838,-0.258382 0.43408,-0.72347 0.1757,-0.465088 0.25838,-1.116211 0.093,-0.661459 0.093,-1.467611 0,-0.826823 -0.0827,-1.477946 -0.0827,-0.661458 -0.25838,-1.116211 -0.16537,-0.454753 -0.43408,-0.692464 -0.25839,-0.248047 -0.62012,-0.248047 z"/>
      </g>
      <g transform="matrix(0.26448498,0,0,0.26448498,-1123.4321,139.17506)" id="g3677" style="display:inline">
        <g id="g3151" transform="matrix(-1.8898713,-3.2733531,3.2733531,-1.8898713,4594.9322,-484.3295)" style="stroke-width:0.63496387">
          <path inkscape:connector-curvature="0" id="path3137" d="m 3.35,4.66 c 0,-1.81 -1.51,-3.28 -3.38,-3.28 -1.87,0 -3.38,1.47 -3.38,3.28 0,1.81 1.51,3.28 3.38,3.28 1.87,0 3.38,-1.47 3.38,-3.28 z" style="stroke-width:0.63496387"/>
          <path inkscape:connector-curvature="0" id="path3139" d="m 7.71,-1.55 c 0,-1.81 -1.51,-3.28 -3.38,-3.28 -1.87,0 -3.38,1.47 -3.38,3.28 0,1.81 1.51,3.28 3.38,3.28 1.87,0 3.38,-1.47 3.38,-3.28 z" style="stroke-width:0.63496387"/>
          <path inkscape:connector-curvature="0" id="path3141" d="m -0.95,-1.57 c 0,-0.66 -0.2,-1.28 -0.55,-1.8 -0.6,-0.89 -1.65,-1.48 -2.83,-1.48 -1.87,0 -3.38,1.47 -3.38,3.28 0,1.81 1.51,3.28 3.38,3.28 1.87,0 3.38,-1.47 3.38,-3.28 z" style="stroke-width:0.63496387"/>
          <path inkscape:connector-curvature="0" id="path3143" d="m 3.94,-7.94 c -1.67,0 -2.55,1.36 -3.01,2.72 -0.46,1.36 -0.5,2.72 -0.5,2.72 h -0.86 c 0,0 -0.16,-5.43 -3.5,-5.44 z" style="stroke-width:0.63496387"/>
          <path inkscape:connector-curvature="0" id="path3145" d="m -2.32,2.25 c 1.9,-1.9 1.9,-4.75 1.9,-4.75 l 0.85,-0.01 c 0,0 0,2.91 1.85,4.76" style="stroke-width:0.63496387"/>
          <path inkscape:connector-curvature="0" id="path3147" d="m -1.94,-3.85 c 1.9,1.9 4.75,1.9 4.75,1.9 v 0.85 c 0,0 -2.91,0 -4.76,1.85" style="stroke-width:0.63496387"/>
          <path inkscape:connector-curvature="0" id="path3149" d="m 1.87,-3.86 c -1.9,1.9 -4.75,1.9 -4.75,1.9 v 0.85 c 0,0 2.91,0 4.76,1.85" style="stroke-width:0.63496387"/>
        </g>
        <g style="stroke-width:0.63496387" transform="matrix(1.8898713,-3.2733531,3.2733531,1.8898713,4594.9133,-532.15106)" id="g3167">
          <path style="stroke-width:0.63496387" d="m 3.35,4.66 c 0,-1.81 -1.51,-3.28 -3.38,-3.28 -1.87,0 -3.38,1.47 -3.38,3.28 0,1.81 1.51,3.28 3.38,3.28 1.87,0 3.38,-1.47 3.38,-3.28 z" id="path3153" inkscape:connector-curvature="0"/>
          <path style="stroke-width:0.63496387" d="m 7.71,-1.55 c 0,-1.81 -1.51,-3.28 -3.38,-3.28 -1.87,0 -3.38,1.47 -3.38,3.28 0,1.81 1.51,3.28 3.38,3.28 1.87,0 3.38,-1.47 3.38,-3.28 z" id="path3155" inkscape:connector-curvature="0"/>
          <path style="stroke-width:0.63496387" d="m -0.95,-1.57 c 0,-0.66 -0.2,-1.28 -0.55,-1.8 -0.6,-0.89 -1.65,-1.48 -2.83,-1.48 -1.87,0 -3.38,1.47 -3.38,3.28 0,1.81 1.51,3.28 3.38,3.28 1.87,0 3.38,-1.47 3.38,-3.28 z" id="path3157" inkscape:connector-curvature="0"/>
          <path style="stroke-width:0.63496387" d="m 3.94,-7.94 c -1.67,0 -2.55,1.36 -3.01,2.72 -0.46,1.36 -0.5,2.72 -0.5,2.72 h -0.86 c 0,0 -0.16,-5.43 -3.5,-5.44 z" id="path3159" inkscape:connector-curvature="0"/>
          <path style="stroke-width:0.63496387" d="m -2.32,2.25 c 1.9,-1.9 1.9,-4.75 1.9,-4.75 l 0.85,-0.01 c 0,0 0,2.91 1.85,4.76" id="path3161" inkscape:connector-curvature="0"/>
          <path style="stroke-width:0.63496387" d="m -1.94,-3.85 c 1.9,1.9 4.75,1.9 4.75,1.9 v 0.85 c 0,0 -2.91,0 -4.76,1.85" id="path3163" inkscape:connector-curvature="0"/>
          <path style="stroke-width:0.63496387" d="m 1.87,-3.86 c -1.9,1.9 -4.75,1.9 -4.75,1.9 v 0.85 c 0,0 2.91,0 4.76,1.85" id="path3165" inkscape:connector-curvature="0"/>
        </g>
        <g id="g3435" transform="matrix(3.7797426,0,0,3.7797426,4636.3185,-556.07821)" style="stroke-width:0.63496387">
          <path inkscape:connector-curvature="0" id="path3421" d="m 3.35,4.66 c 0,-1.81 -1.51,-3.28 -3.38,-3.28 -1.87,0 -3.38,1.47 -3.38,3.28 0,1.81 1.51,3.28 3.38,3.28 1.87,0 3.38,-1.47 3.38,-3.28 z" style="stroke-width:0.63496387"/>
          <path inkscape:connector-curvature="0" id="path3423" d="m 7.71,-1.55 c 0,-1.81 -1.51,-3.28 -3.38,-3.28 -1.87,0 -3.38,1.47 -3.38,3.28 0,1.81 1.51,3.28 3.38,3.28 1.87,0 3.38,-1.47 3.38,-3.28 z" style="stroke-width:0.63496387"/>
          <path inkscape:connector-curvature="0" id="path3425" d="m -0.95,-1.57 c 0,-0.66 -0.2,-1.28 -0.55,-1.8 -0.6,-0.89 -1.65,-1.48 -2.83,-1.48 -1.87,0 -3.38,1.47 -3.38,3.28 0,1.81 1.51,3.28 3.38,3.28 1.87,0 3.38,-1.47 3.38,-3.28 z" style="stroke-width:0.63496387"/>
          <path inkscape:connector-curvature="0" id="path3427" d="m 3.94,-7.94 c -1.67,0 -2.55,1.36 -3.01,2.72 -0.46,1.36 -0.5,2.72 -0.5,2.72 h -0.86 c 0,0 -0.16,-5.43 -3.5,-5.44 z" style="stroke-width:0.63496387"/>
          <path inkscape:connector-curvature="0" id="path3429" d="m -2.32,2.25 c 1.9,-1.9 1.9,-4.75 1.9,-4.75 l 0.85,-0.01 c 0,0 0,2.91 1.85,4.76" style="stroke-width:0.63496387"/>
          <path inkscape:connector-curvature="0" id="path3431" d="m -1.94,-3.85 c 1.9,1.9 4.75,1.9 4.75,1.9 v 0.85 c 0,0 -2.91,0 -4.76,1.85" style="stroke-width:0.63496387"/>
          <path inkscape:connector-curvature="0" id="path3433" d="m 1.87,-3.86 c -1.9,1.9 -4.75,1.9 -4.75,1.9 v 0.85 c 0,0 2.91,0 4.76,1.85" style="stroke-width:0.63496387"/>
        </g>
        <g style="stroke-width:0.63496387" transform="matrix(1.8898713,3.2733531,-3.2733531,1.8898713,4677.7426,-532.18383)" id="g3467">
          <path style="stroke-width:0.63496387" d="m 3.35,4.66 c 0,-1.81 -1.51,-3.28 -3.38,-3.28 -1.87,0 -3.38,1.47 -3.38,3.28 0,1.81 1.51,3.28 3.38,3.28 1.87,0 3.38,-1.47 3.38,-3.28 z" id="path3453" inkscape:connector-curvature="0"/>
          <path style="stroke-width:0.63496387" d="m 7.71,-1.55 c 0,-1.81 -1.51,-3.28 -3.38,-3.28 -1.87,0 -3.38,1.47 -3.38,3.28 0,1.81 1.51,3.28 3.38,3.28 1.87,0 3.38,-1.47 3.38,-3.28 z" id="path3455" inkscape:connector-curvature="0"/>
          <path style="stroke-width:0.63496387" d="m -0.95,-1.57 c 0,-0.66 -0.2,-1.28 -0.55,-1.8 -0.6,-0.89 -1.65,-1.48 -2.83,-1.48 -1.87,0 -3.38,1.47 -3.38,3.28 0,1.81 1.51,3.28 3.38,3.28 1.87,0 3.38,-1.47 3.38,-3.28 z" id="path3457" inkscape:connector-curvature="0"/>
          <path style="stroke-width:0.63496387" d="m 3.94,-7.94 c -1.67,0 -2.55,1.36 -3.01,2.72 -0.46,1.36 -0.5,2.72 -0.5,2.72 h -0.86 c 0,0 -0.16,-5.43 -3.5,-5.44 z" id="path3459" inkscape:connector-curvature="0"/>
          <path style="stroke-width:0.63496387" d="m -2.32,2.25 c 1.9,-1.9 1.9,-4.75 1.9,-4.75 l 0.85,-0.01 c 0,0 0,2.91 1.85,4.76" id="path3461" inkscape:connector-curvature="0"/>
          <path style="stroke-width:0.63496387" d="m -1.94,-3.85 c 1.9,1.9 4.75,1.9 4.75,1.9 v 0.85 c 0,0 -2.91,0 -4.76,1.85" id="path3463" inkscape:connector-curvature="0"/>
          <path style="stroke-width:0.63496387" d="m 1.87,-3.86 c -1.9,1.9 -4.75,1.9 -4.75,1.9 v 0.85 c 0,0 2.91,0 4.76,1.85" id="path3465" inkscape:connector-curvature="0"/>
        </g>
        <g id="g3499" transform="matrix(-1.8898713,3.2733531,-3.2733531,-1.8898713,4677.7615,-484.36231)" style="stroke-width:0.63496387">
          <path inkscape:connector-curvature="0" id="path3485" d="m 3.35,4.66 c 0,-1.81 -1.51,-3.28 -3.38,-3.28 -1.87,0 -3.38,1.47 -3.38,3.28 0,1.81 1.51,3.28 3.38,3.28 1.87,0 3.38,-1.47 3.38,-3.28 z" style="stroke-width:0.63496387"/>
          <path inkscape:connector-curvature="0" id="path3487" d="m 7.71,-1.55 c 0,-1.81 -1.51,-3.28 -3.38,-3.28 -1.87,0 -3.38,1.47 -3.38,3.28 0,1.81 1.51,3.28 3.38,3.28 1.87,0 3.38,-1.47 3.38,-3.28 z" style="stroke-width:0.63496387"/>
          <path inkscape:connector-curvature="0" id="path3489" d="m -0.95,-1.57 c 0,-0.66 -0.2,-1.28 -0.55,-1.8 -0.6,-0.89 -1.65,-1.48 -2.83,-1.48 -1.87,0 -3.38,1.47 -3.38,3.28 0,1.81 1.51,3.28 3.38,3.28 1.87,0 3.38,-1.47 3.38,-3.28 z" style="stroke-width:0.63496387"/>
          <path inkscape:connector-curvature="0" id="path3491" d="m 3.94,-7.94 c -1.67,0 -2.55,1.36 -3.01,2.72 -0.46,1.36 -0.5,2.72 -0.5,2.72 h -0.86 c 0,0 -0.16,-5.43 -3.5,-5.44 z" style="stroke-width:0.63496387"/>
          <path inkscape:connector-curvature="0" id="path3493" d="m -2.32,2.25 c 1.9,-1.9 1.9,-4.75 1.9,-4.75 l 0.85,-0.01 c 0,0 0,2.91 1.85,4.76" style="stroke-width:0.63496387"/>
          <path inkscape:connector-curvature="0" id="path3495" d="m -1.94,-3.85 c 1.9,1.9 4.75,1.9 4.75,1.9 v 0.85 c 0,0 -2.91,0 -4.76,1.85" style="stroke-width:0.63496387"/>
          <path inkscape:connector-curvature="0" id="path3497" d="m 1.87,-3.86 c -1.9,1.9 -4.75,1.9 -4.75,1.9 v 0.85 c 0,0 2.91,0 4.76,1.85" style="stroke-width:0.63496387"/>
        </g>
        <g style="stroke-width:0.63496387" transform="matrix(-3.7797426,0,0,-3.7797426,4636.3563,-460.43518)" id="g3531">
          <path style="stroke-width:0.63496387" d="m 3.35,4.66 c 0,-1.81 -1.51,-3.28 -3.38,-3.28 -1.87,0 -3.38,1.47 -3.38,3.28 0,1.81 1.51,3.28 3.38,3.28 1.87,0 3.38,-1.47 3.38,-3.28 z" id="path3517" inkscape:connector-curvature="0"/>
          <path style="stroke-width:0.63496387" d="m 7.71,-1.55 c 0,-1.81 -1.51,-3.28 -3.38,-3.28 -1.87,0 -3.38,1.47 -3.38,3.28 0,1.81 1.51,3.28 3.38,3.28 1.87,0 3.38,-1.47 3.38,-3.28 z" id="path3519" inkscape:connector-curvature="0"/>
          <path style="stroke-width:0.63496387" d="m -0.95,-1.57 c 0,-0.66 -0.2,-1.28 -0.55,-1.8 -0.6,-0.89 -1.65,-1.48 -2.83,-1.48 -1.87,0 -3.38,1.47 -3.38,3.28 0,1.81 1.51,3.28 3.38,3.28 1.87,0 3.38,-1.47 3.38,-3.28 z" id="path3521" inkscape:connector-curvature="0"/>
          <path style="stroke-width:0.63496387" d="m 3.94,-7.94 c -1.67,0 -2.55,1.36 -3.01,2.72 -0.46,1.36 -0.5,2.72 -0.5,2.72 h -0.86 c 0,0 -0.16,-5.43 -3.5,-5.44 z" id="path3523" inkscape:connector-curvature="0"/>
          <path style="stroke-width:0.63496387" d="m -2.32,2.25 c 1.9,-1.9 1.9,-4.75 1.9,-4.75 l 0.85,-0.01 c 0,0 0,2.91 1.85,4.76" id="path3525" inkscape:connector-curvature="0"/>
          <path style="stroke-width:0.63496387" d="m -1.94,-3.85 c 1.9,1.9 4.75,1.9 4.75,1.9 v 0.85 c 0,0 -2.91,0 -4.76,1.85" id="path3527" inkscape:connector-curvature="0"/>
          <path style="stroke-width:0.63496387" d="m 1.87,-3.86 c -1.9,1.9 -4.75,1.9 -4.75,1.9 v 0.85 c 0,0 2.91,0 4.76,1.85" id="path3529" inkscape:connector-curvature="0"/>
        </g>
      </g>
      <g id="g18881" transform="matrix(-0.59981108,0,0,-0.59981108,82.175052,-15.888701)" style="display:inline;stroke-width:1.0582732">
        <path inkscape:connector-curvature="0" id="path18867" d="m 3.35,4.66 c 0,-1.81 -1.51,-3.28 -3.38,-3.28 -1.87,0 -3.38,1.47 -3.38,3.28 0,1.81 1.51,3.28 3.38,3.28 1.87,0 3.38,-1.47 3.38,-3.28 z" style="stroke-width:1.0582732"/>
        <path inkscape:connector-curvature="0" id="path18869" d="m 7.71,-1.55 c 0,-1.81 -1.51,-3.28 -3.38,-3.28 -1.87,0 -3.38,1.47 -3.38,3.28 0,1.81 1.51,3.28 3.38,3.28 1.87,0 3.38,-1.47 3.38,-3.28 z" style="stroke-width:1.0582732"/>
        <path inkscape:connector-curvature="0" id="path18871" d="m -0.95,-1.57 c 0,-0.66 -0.2,-1.28 -0.55,-1.8 -0.6,-0.89 -1.65,-1.48 -2.83,-1.48 -1.87,0 -3.38,1.47 -3.38,3.28 0,1.81 1.51,3.28 3.38,3.28 1.87,0 3.38,-1.47 3.38,-3.28 z" style="stroke-width:1.0582732"/>
        <path inkscape:connector-curvature="0" id="path18873" d="m 3.94,-7.94 c -1.67,0 -2.55,1.36 -3.01,2.72 -0.46,1.36 -0.5,2.72 -0.5,2.72 h -0.86 c 0,0 -0.16,-5.43 -3.5,-5.44 z" style="stroke-width:1.0582732"/>
        <path inkscape:connector-curvature="0" id="path18875" d="m -2.32,2.25 c 1.9,-1.9 1.9,-4.75 1.9,-4.75 l 0.85,-0.01 c 0,0 0,2.91 1.85,4.76" style="stroke-width:1.0582732"/>
        <path inkscape:connector-curvature="0" id="path18877" d="m -1.94,-3.85 c 1.9,1.9 4.75,1.9 4.75,1.9 v 0.85 c 0,0 -2.91,0 -4.76,1.85" style="stroke-width:1.0582732"/>
        <path inkscape:connector-curvature="0" id="path18879" d="m 1.87,-3.86 c -1.9,1.9 -4.75,1.9 -4.75,1.9 v 0.85 c 0,0 2.91,0 4.76,1.85" style="stroke-width:1.0582732"/>
      </g>
      <g style="display:inline;stroke-width:1.0582732" transform="matrix(0.59981108,0,0,0.59981108,123.44399,25.386311)" id="g18897">
        <path style="stroke-width:1.0582732" d="m 3.35,4.66 c 0,-1.81 -1.51,-3.28 -3.38,-3.28 -1.87,0 -3.38,1.47 -3.38,3.28 0,1.81 1.51,3.28 3.38,3.28 1.87,0 3.38,-1.47 3.38,-3.28 z" id="path18883" inkscape:connector-curvature="0"/>
        <path style="stroke-width:1.0582732" d="m 7.71,-1.55 c 0,-1.81 -1.51,-3.28 -3.38,-3.28 -1.87,0 -3.38,1.47 -3.38,3.28 0,1.81 1.51,3.28 3.38,3.28 1.87,0 3.38,-1.47 3.38,-3.28 z" id="path18885" inkscape:connector-curvature="0"/>
        <path style="stroke-width:1.0582732" d="m -0.95,-1.57 c 0,-0.66 -0.2,-1.28 -0.55,-1.8 -0.6,-0.89 -1.65,-1.48 -2.83,-1.48 -1.87,0 -3.38,1.47 -3.38,3.28 0,1.81 1.51,3.28 3.38,3.28 1.87,0 3.38,-1.47 3.38,-3.28 z" id="path18887" inkscape:connector-curvature="0"/>
        <path style="stroke-width:1.0582732" d="m 3.94,-7.94 c -1.67,0 -2.55,1.36 -3.01,2.72 -0.46,1.36 -0.5,2.72 -0.5,2.72 h -0.86 c 0,0 -0.16,-5.43 -3.5,-5.44 z" id="path18889" inkscape:connector-curvature="0"/>
        <path style="stroke-width:1.0582732" d="m -2.32,2.25 c 1.9,-1.9 1.9,-4.75 1.9,-4.75 l 0.85,-0.01 c 0,0 0,2.91 1.85,4.76" id="path18891" inkscape:connector-curvature="0"/>
        <path style="stroke-width:1.0582732" d="m -1.94,-3.85 c 1.9,1.9 4.75,1.9 4.75,1.9 v 0.85 c 0,0 -2.91,0 -4.76,1.85" id="path18893" inkscape:connector-curvature="0"/>
        <path style="stroke-width:1.0582732" d="m 1.87,-3.86 c -1.9,1.9 -4.75,1.9 -4.75,1.9 v 0.85 c 0,0 2.91,0 4.76,1.85" id="path18895" inkscape:connector-curvature="0"/>
      </g>
    </g>
    </g></svg>
