<?xml version='1.0' encoding='UTF-8'?>
<!-- Created with Inkscape (http://www.inkscape.org/) and export_objects.py -->
<svg xmlns:cc="http://creativecommons.org/ns#" xmlns:dc="http://purl.org/dc/elements/1.1/" xmlns:inkscape="http://www.inkscape.org/namespaces/inkscape" xmlns:rdf="http://www.w3.org/1999/02/22-rdf-syntax-ns#" xmlns:sodipodi="http://sodipodi.sourceforge.net/DTD/sodipodi-0.dtd" xmlns:xlink="http://www.w3.org/1999/xlink" xmlns="http://www.w3.org/2000/svg" version="1.1" width="57.1500026458mm" height="88.8999973542mm" viewBox="0 0 57.1500026458 88.8999973542" id="svg24051" sodipodi:docname="club-011.svg"><sodipodi:namedview id="base" pagecolor="#ffffff" bordercolor="#666666" borderopacity="1.0" inkscape:pageopacity="0.0" inkscape:pageshadow="2" inkscape:zoom="0.35" inkscape:cx="-50" inkscape:cy="560" inkscape:document-units="mm" inkscape:current-layer="layer1" showgrid="false" inkscape:lockguides="true" inkscape:window-width="1280" inkscape:window-height="940" inkscape:window-x="1909" inkscape:window-y="43" inkscape:window-maximized="1"/>
  <metadata id="metadata24048">
    <rdf:RDF>
      <cc:Work rdf:about="">
        <dc:format>image/svg+xml</dc:format>
        <dc:type rdf:resource="http://purl.org/dc/dcmitype/StillImage"/>
      </cc:Work>
    </rdf:RDF>
  </metadata>
  <g inkscape:groupmode="layer" inkscape:label="club-" transform="matrix(1.000000,0.000000,0.000000,1.000000,-94.342905,65.705956)"><g transform="matrix(0.26448498,0,0,0.26448498,-604.1042,-3.1954291)" id="g17589" inkscape:label="011">
      <rect y="-236.34811" x="2640.7817" height="336.12494" width="216.08034" id="rect19251" style="display:inline;opacity:1;fill:#ffffff;fill-opacity:1;stroke:none;stroke-width:0.13338292;stroke-linecap:butt;stroke-linejoin:miter;stroke-miterlimit:47.14606857;stroke-dasharray:none;stroke-dashoffset:0;stroke-opacity:1;paint-order:markers fill stroke"/>
      <g id="text19255" style="font-style:normal;font-variant:normal;font-weight:normal;font-stretch:normal;font-size:80.02975464px;line-height:125%;font-family:'Stint Ultra Condensed';-inkscape-font-specification:'Stint Ultra Condensed, ';font-variant-ligatures:normal;font-variant-caps:normal;font-variant-numeric:normal;font-feature-settings:normal;text-align:center;letter-spacing:0px;word-spacing:0px;writing-mode:lr-tb;text-anchor:middle;display:inline;fill:#000000;fill-opacity:1;stroke:none;stroke-width:1.00037193" aria-label="4" transform="translate(-2088.7764,79.839752)">
        <path id="path12714" style="font-style:normal;font-variant:normal;font-weight:normal;font-stretch:normal;font-size:80.02975464px;font-family:'Stint Ultra Condensed';-inkscape-font-specification:'Stint Ultra Condensed, ';text-align:center;text-anchor:middle;stroke-width:1.00037193" d="m 4756.2087,-254.57896 h 4.7674 v -9.57387 h -13.1689 v -4.10309 l 11.684,-35.59917 h 6.2132 v 35.52102 h 5.549 v 4.18124 h -5.549 v 9.57387 h 4.8065 v 4.41571 h -14.3022 z m 4.7674,-41.61703 -9.0268,27.86192 h 9.0268 z" inkscape:connector-curvature="0"/>
      </g>
      <g id="text19259" style="font-style:normal;font-variant:normal;font-weight:normal;font-stretch:normal;font-size:80.02975464px;line-height:125%;font-family:'Stint Ultra Condensed';-inkscape-font-specification:'Stint Ultra Condensed, ';font-variant-ligatures:normal;font-variant-caps:normal;font-variant-numeric:normal;font-feature-settings:normal;text-align:center;letter-spacing:0px;word-spacing:0px;writing-mode:lr-tb;text-anchor:middle;display:inline;fill:#000000;fill-opacity:1;stroke:none;stroke-width:1.00037193" transform="rotate(180,-1044.3882,39.919876)" aria-label="4">
        <path id="path12711" style="font-style:normal;font-variant:normal;font-weight:normal;font-stretch:normal;font-size:80.02975464px;font-family:'Stint Ultra Condensed';-inkscape-font-specification:'Stint Ultra Condensed, ';text-align:center;text-anchor:middle;stroke-width:1.00037193" d="m -4918.9881,41.67166 h 4.7674 v -9.573872 h -13.1689 V 27.9947 l 11.684,-35.5991731 h 6.2133 V 27.916546 h 5.5489 v 4.181242 h -5.5489 v 9.573872 h 4.8064 v 4.415704 h -14.3022 z m 4.7674,-41.61703553 -9.0268,27.86192153 h 9.0268 z" inkscape:connector-curvature="0"/>
      </g>
      <g style="display:inline;stroke-width:0.63496387" transform="matrix(-3.7797426,0,0,-3.7797426,2814.8659,-68.28558)" id="g19345">
        <path style="stroke-width:0.63496387" d="m 3.35,4.66 c 0,-1.81 -1.51,-3.28 -3.38,-3.28 -1.87,0 -3.38,1.47 -3.38,3.28 0,1.81 1.51,3.28 3.38,3.28 1.87,0 3.38,-1.47 3.38,-3.28 z" id="path19331" inkscape:connector-curvature="0"/>
        <path style="stroke-width:0.63496387" d="m 7.71,-1.55 c 0,-1.81 -1.51,-3.28 -3.38,-3.28 -1.87,0 -3.38,1.47 -3.38,3.28 0,1.81 1.51,3.28 3.38,3.28 1.87,0 3.38,-1.47 3.38,-3.28 z" id="path19333" inkscape:connector-curvature="0"/>
        <path style="stroke-width:0.63496387" d="m -0.95,-1.57 c 0,-0.66 -0.2,-1.28 -0.55,-1.8 -0.6,-0.89 -1.65,-1.48 -2.83,-1.48 -1.87,0 -3.38,1.47 -3.38,3.28 0,1.81 1.51,3.28 3.38,3.28 1.87,0 3.38,-1.47 3.38,-3.28 z" id="path19335" inkscape:connector-curvature="0"/>
        <path style="stroke-width:0.63496387" d="m 3.94,-7.94 c -1.67,0 -2.55,1.36 -3.01,2.72 -0.46,1.36 -0.5,2.72 -0.5,2.72 h -0.86 c 0,0 -0.16,-5.43 -3.5,-5.44 z" id="path19337" inkscape:connector-curvature="0"/>
        <path style="stroke-width:0.63496387" d="m -2.32,2.25 c 1.9,-1.9 1.9,-4.75 1.9,-4.75 l 0.85,-0.01 c 0,0 0,2.91 1.85,4.76" id="path19339" inkscape:connector-curvature="0"/>
        <path style="stroke-width:0.63496387" d="m -1.94,-3.85 c 1.9,1.9 4.75,1.9 4.75,1.9 v 0.85 c 0,0 -2.91,0 -4.76,1.85" id="path19341" inkscape:connector-curvature="0"/>
        <path style="stroke-width:0.63496387" d="m 1.87,-3.86 c -1.9,1.9 -4.75,1.9 -4.75,1.9 v 0.85 c 0,0 2.91,0 4.76,1.85" id="path19343" inkscape:connector-curvature="0"/>
      </g>
      <g id="g19361" transform="matrix(-3.7797426,0,0,-3.7797426,2682.8166,-68.28558)" style="display:inline;stroke-width:0.63496387">
        <path inkscape:connector-curvature="0" id="path19347" d="m 3.35,4.66 c 0,-1.81 -1.51,-3.28 -3.38,-3.28 -1.87,0 -3.38,1.47 -3.38,3.28 0,1.81 1.51,3.28 3.38,3.28 1.87,0 3.38,-1.47 3.38,-3.28 z" style="stroke-width:0.63496387"/>
        <path inkscape:connector-curvature="0" id="path19349" d="m 7.71,-1.55 c 0,-1.81 -1.51,-3.28 -3.38,-3.28 -1.87,0 -3.38,1.47 -3.38,3.28 0,1.81 1.51,3.28 3.38,3.28 1.87,0 3.38,-1.47 3.38,-3.28 z" style="stroke-width:0.63496387"/>
        <path inkscape:connector-curvature="0" id="path19351" d="m -0.95,-1.57 c 0,-0.66 -0.2,-1.28 -0.55,-1.8 -0.6,-0.89 -1.65,-1.48 -2.83,-1.48 -1.87,0 -3.38,1.47 -3.38,3.28 0,1.81 1.51,3.28 3.38,3.28 1.87,0 3.38,-1.47 3.38,-3.28 z" style="stroke-width:0.63496387"/>
        <path inkscape:connector-curvature="0" id="path19353" d="m 3.94,-7.94 c -1.67,0 -2.55,1.36 -3.01,2.72 -0.46,1.36 -0.5,2.72 -0.5,2.72 h -0.86 c 0,0 -0.16,-5.43 -3.5,-5.44 z" style="stroke-width:0.63496387"/>
        <path inkscape:connector-curvature="0" id="path19355" d="m -2.32,2.25 c 1.9,-1.9 1.9,-4.75 1.9,-4.75 l 0.85,-0.01 c 0,0 0,2.91 1.85,4.76" style="stroke-width:0.63496387"/>
        <path inkscape:connector-curvature="0" id="path19357" d="m -1.94,-3.85 c 1.9,1.9 4.75,1.9 4.75,1.9 v 0.85 c 0,0 -2.91,0 -4.76,1.85" style="stroke-width:0.63496387"/>
        <path inkscape:connector-curvature="0" id="path19359" d="m 1.87,-3.86 c -1.9,1.9 -4.75,1.9 -4.75,1.9 v 0.85 c 0,0 2.91,0 4.76,1.85" style="stroke-width:0.63496387"/>
      </g>
      <g style="display:inline;stroke-width:0.63496387" transform="matrix(-3.7797426,0,0,-3.7797426,2748.8412,-188.33015)" id="g19377">
        <path style="stroke-width:0.63496387" d="m 3.35,4.66 c 0,-1.81 -1.51,-3.28 -3.38,-3.28 -1.87,0 -3.38,1.47 -3.38,3.28 0,1.81 1.51,3.28 3.38,3.28 1.87,0 3.38,-1.47 3.38,-3.28 z" id="path19363" inkscape:connector-curvature="0"/>
        <path style="stroke-width:0.63496387" d="m 7.71,-1.55 c 0,-1.81 -1.51,-3.28 -3.38,-3.28 -1.87,0 -3.38,1.47 -3.38,3.28 0,1.81 1.51,3.28 3.38,3.28 1.87,0 3.38,-1.47 3.38,-3.28 z" id="path19365" inkscape:connector-curvature="0"/>
        <path style="stroke-width:0.63496387" d="m -0.95,-1.57 c 0,-0.66 -0.2,-1.28 -0.55,-1.8 -0.6,-0.89 -1.65,-1.48 -2.83,-1.48 -1.87,0 -3.38,1.47 -3.38,3.28 0,1.81 1.51,3.28 3.38,3.28 1.87,0 3.38,-1.47 3.38,-3.28 z" id="path19367" inkscape:connector-curvature="0"/>
        <path style="stroke-width:0.63496387" d="m 3.94,-7.94 c -1.67,0 -2.55,1.36 -3.01,2.72 -0.46,1.36 -0.5,2.72 -0.5,2.72 h -0.86 c 0,0 -0.16,-5.43 -3.5,-5.44 z" id="path19369" inkscape:connector-curvature="0"/>
        <path style="stroke-width:0.63496387" d="m -2.32,2.25 c 1.9,-1.9 1.9,-4.75 1.9,-4.75 l 0.85,-0.01 c 0,0 0,2.91 1.85,4.76" id="path19371" inkscape:connector-curvature="0"/>
        <path style="stroke-width:0.63496387" d="m -1.94,-3.85 c 1.9,1.9 4.75,1.9 4.75,1.9 v 0.85 c 0,0 -2.91,0 -4.76,1.85" id="path19373" inkscape:connector-curvature="0"/>
        <path style="stroke-width:0.63496387" d="m 1.87,-3.86 c -1.9,1.9 -4.75,1.9 -4.75,1.9 v 0.85 c 0,0 2.91,0 4.76,1.85" id="path19375" inkscape:connector-curvature="0"/>
      </g>
      <g style="display:inline;stroke-width:0.63496387" transform="matrix(3.7797426,0,0,3.7797426,2748.8034,51.759134)" id="g19425">
        <path style="stroke-width:0.63496387" d="m 3.35,4.66 c 0,-1.81 -1.51,-3.28 -3.38,-3.28 -1.87,0 -3.38,1.47 -3.38,3.28 0,1.81 1.51,3.28 3.38,3.28 1.87,0 3.38,-1.47 3.38,-3.28 z" id="path19411" inkscape:connector-curvature="0"/>
        <path style="stroke-width:0.63496387" d="m 7.71,-1.55 c 0,-1.81 -1.51,-3.28 -3.38,-3.28 -1.87,0 -3.38,1.47 -3.38,3.28 0,1.81 1.51,3.28 3.38,3.28 1.87,0 3.38,-1.47 3.38,-3.28 z" id="path19413" inkscape:connector-curvature="0"/>
        <path style="stroke-width:0.63496387" d="m -0.95,-1.57 c 0,-0.66 -0.2,-1.28 -0.55,-1.8 -0.6,-0.89 -1.65,-1.48 -2.83,-1.48 -1.87,0 -3.38,1.47 -3.38,3.28 0,1.81 1.51,3.28 3.38,3.28 1.87,0 3.38,-1.47 3.38,-3.28 z" id="path19415" inkscape:connector-curvature="0"/>
        <path style="stroke-width:0.63496387" d="m 3.94,-7.94 c -1.67,0 -2.55,1.36 -3.01,2.72 -0.46,1.36 -0.5,2.72 -0.5,2.72 h -0.86 c 0,0 -0.16,-5.43 -3.5,-5.44 z" id="path19417" inkscape:connector-curvature="0"/>
        <path style="stroke-width:0.63496387" d="m -2.32,2.25 c 1.9,-1.9 1.9,-4.75 1.9,-4.75 l 0.85,-0.01 c 0,0 0,2.91 1.85,4.76" id="path19419" inkscape:connector-curvature="0"/>
        <path style="stroke-width:0.63496387" d="m -1.94,-3.85 c 1.9,1.9 4.75,1.9 4.75,1.9 v 0.85 c 0,0 -2.91,0 -4.76,1.85" id="path19421" inkscape:connector-curvature="0"/>
        <path style="stroke-width:0.63496387" d="m 1.87,-3.86 c -1.9,1.9 -4.75,1.9 -4.75,1.9 v 0.85 c 0,0 2.91,0 4.76,1.85" id="path19423" inkscape:connector-curvature="0"/>
      </g>
      <g id="g19441" transform="matrix(-2.2678455,0,0,-2.2678455,2670.8047,-146.31462)" style="display:inline;stroke-width:1.0582732">
        <path inkscape:connector-curvature="0" id="path19427" d="m 3.35,4.66 c 0,-1.81 -1.51,-3.28 -3.38,-3.28 -1.87,0 -3.38,1.47 -3.38,3.28 0,1.81 1.51,3.28 3.38,3.28 1.87,0 3.38,-1.47 3.38,-3.28 z" style="stroke-width:1.0582732"/>
        <path inkscape:connector-curvature="0" id="path19429" d="m 7.71,-1.55 c 0,-1.81 -1.51,-3.28 -3.38,-3.28 -1.87,0 -3.38,1.47 -3.38,3.28 0,1.81 1.51,3.28 3.38,3.28 1.87,0 3.38,-1.47 3.38,-3.28 z" style="stroke-width:1.0582732"/>
        <path inkscape:connector-curvature="0" id="path19431" d="m -0.95,-1.57 c 0,-0.66 -0.2,-1.28 -0.55,-1.8 -0.6,-0.89 -1.65,-1.48 -2.83,-1.48 -1.87,0 -3.38,1.47 -3.38,3.28 0,1.81 1.51,3.28 3.38,3.28 1.87,0 3.38,-1.47 3.38,-3.28 z" style="stroke-width:1.0582732"/>
        <path inkscape:connector-curvature="0" id="path19433" d="m 3.94,-7.94 c -1.67,0 -2.55,1.36 -3.01,2.72 -0.46,1.36 -0.5,2.72 -0.5,2.72 h -0.86 c 0,0 -0.16,-5.43 -3.5,-5.44 z" style="stroke-width:1.0582732"/>
        <path inkscape:connector-curvature="0" id="path19435" d="m -2.32,2.25 c 1.9,-1.9 1.9,-4.75 1.9,-4.75 l 0.85,-0.01 c 0,0 0,2.91 1.85,4.76" style="stroke-width:1.0582732"/>
        <path inkscape:connector-curvature="0" id="path19437" d="m -1.94,-3.85 c 1.9,1.9 4.75,1.9 4.75,1.9 v 0.85 c 0,0 -2.91,0 -4.76,1.85" style="stroke-width:1.0582732"/>
        <path inkscape:connector-curvature="0" id="path19439" d="m 1.87,-3.86 c -1.9,1.9 -4.75,1.9 -4.75,1.9 v 0.85 c 0,0 2.91,0 4.76,1.85" style="stroke-width:1.0582732"/>
      </g>
      <g style="display:inline;stroke-width:1.0582732" transform="matrix(2.2678455,0,0,2.2678455,2826.8398,9.7434457)" id="g19457">
        <path style="stroke-width:1.0582732" d="m 3.35,4.66 c 0,-1.81 -1.51,-3.28 -3.38,-3.28 -1.87,0 -3.38,1.47 -3.38,3.28 0,1.81 1.51,3.28 3.38,3.28 1.87,0 3.38,-1.47 3.38,-3.28 z" id="path19443" inkscape:connector-curvature="0"/>
        <path style="stroke-width:1.0582732" d="m 7.71,-1.55 c 0,-1.81 -1.51,-3.28 -3.38,-3.28 -1.87,0 -3.38,1.47 -3.38,3.28 0,1.81 1.51,3.28 3.38,3.28 1.87,0 3.38,-1.47 3.38,-3.28 z" id="path19445" inkscape:connector-curvature="0"/>
        <path style="stroke-width:1.0582732" d="m -0.95,-1.57 c 0,-0.66 -0.2,-1.28 -0.55,-1.8 -0.6,-0.89 -1.65,-1.48 -2.83,-1.48 -1.87,0 -3.38,1.47 -3.38,3.28 0,1.81 1.51,3.28 3.38,3.28 1.87,0 3.38,-1.47 3.38,-3.28 z" id="path19447" inkscape:connector-curvature="0"/>
        <path style="stroke-width:1.0582732" d="m 3.94,-7.94 c -1.67,0 -2.55,1.36 -3.01,2.72 -0.46,1.36 -0.5,2.72 -0.5,2.72 h -0.86 c 0,0 -0.16,-5.43 -3.5,-5.44 z" id="path19449" inkscape:connector-curvature="0"/>
        <path style="stroke-width:1.0582732" d="m -2.32,2.25 c 1.9,-1.9 1.9,-4.75 1.9,-4.75 l 0.85,-0.01 c 0,0 0,2.91 1.85,4.76" id="path19451" inkscape:connector-curvature="0"/>
        <path style="stroke-width:1.0582732" d="m -1.94,-3.85 c 1.9,1.9 4.75,1.9 4.75,1.9 v 0.85 c 0,0 -2.91,0 -4.76,1.85" id="path19453" inkscape:connector-curvature="0"/>
        <path style="stroke-width:1.0582732" d="m 1.87,-3.86 c -1.9,1.9 -4.75,1.9 -4.75,1.9 v 0.85 c 0,0 2.91,0 4.76,1.85" id="path19455" inkscape:connector-curvature="0"/>
      </g>
    </g>
    </g></svg>
