<?xml version='1.0' encoding='UTF-8'?>
<!-- Created with Inkscape (http://www.inkscape.org/) and export_objects.py -->
<svg xmlns:cc="http://creativecommons.org/ns#" xmlns:dc="http://purl.org/dc/elements/1.1/" xmlns:inkscape="http://www.inkscape.org/namespaces/inkscape" xmlns:rdf="http://www.w3.org/1999/02/22-rdf-syntax-ns#" xmlns:sodipodi="http://sodipodi.sourceforge.net/DTD/sodipodi-0.dtd" xmlns:xlink="http://www.w3.org/1999/xlink" xmlns="http://www.w3.org/2000/svg" version="1.1" width="57.1500026458mm" height="88.8999973542mm" viewBox="0 0 57.1500026458 88.8999973542" id="svg24051" sodipodi:docname="club-009.svg"><sodipodi:namedview id="base" pagecolor="#ffffff" bordercolor="#666666" borderopacity="1.0" inkscape:pageopacity="0.0" inkscape:pageshadow="2" inkscape:zoom="0.35" inkscape:cx="-50" inkscape:cy="560" inkscape:document-units="mm" inkscape:current-layer="layer1" showgrid="false" inkscape:lockguides="true" inkscape:window-width="1280" inkscape:window-height="940" inkscape:window-x="1909" inkscape:window-y="43" inkscape:window-maximized="1"/>
  <metadata id="metadata24048">
    <rdf:RDF>
      <cc:Work rdf:about="">
        <dc:format>image/svg+xml</dc:format>
        <dc:type rdf:resource="http://purl.org/dc/dcmitype/StillImage"/>
      </cc:Work>
    </rdf:RDF>
  </metadata>
  <g inkscape:groupmode="layer" inkscape:label="club-" transform="matrix(1.000000,0.000000,0.000000,1.000000,45.357079,65.705956)"><g transform="matrix(0.26448498,0,0,0.26448498,-604.1042,-3.1954291)" id="g17008" inkscape:label="009">
      <rect y="-236.34811" x="2112.5854" height="336.12494" width="216.08034" id="rect18691" style="display:inline;opacity:1;fill:#ffffff;fill-opacity:1;stroke:none;stroke-width:0.13338292;stroke-linecap:butt;stroke-linejoin:miter;stroke-miterlimit:47.14606857;stroke-dasharray:none;stroke-dashoffset:0;stroke-opacity:1;paint-order:markers fill stroke"/>
      <g id="text18695" style="font-style:normal;font-variant:normal;font-weight:normal;font-stretch:normal;font-size:80.02975464px;line-height:125%;font-family:'Stint Ultra Condensed';-inkscape-font-specification:'Stint Ultra Condensed, ';font-variant-ligatures:normal;font-variant-caps:normal;font-variant-numeric:normal;font-feature-settings:normal;text-align:center;letter-spacing:0px;word-spacing:0px;writing-mode:lr-tb;text-anchor:middle;display:inline;fill:#000000;fill-opacity:1;stroke:none;stroke-width:1.00037193" aria-label="6" transform="translate(-2088.7764,79.839752)">
        <path id="path12726" style="font-style:normal;font-variant:normal;font-weight:normal;font-stretch:normal;font-size:80.02975464px;font-family:'Stint Ultra Condensed';-inkscape-font-specification:'Stint Ultra Condensed, ';text-align:center;text-anchor:middle;stroke-width:1.00037193" d="m 4225.8241,-278.02521 q 0.2735,-0.70338 0.7815,-1.79754 0.5471,-1.09416 1.4068,-2.11016 0.8988,-1.05508 2.1493,-1.75846 1.2504,-0.74247 2.9698,-0.74247 1.9148,0 3.5951,1.09416 1.6803,1.09416 2.8917,3.28247 1.2505,2.18831 1.9539,5.50986 0.7424,3.28247 0.7424,7.73725 0,3.67324 -0.7034,6.91664 -0.6643,3.20431 -1.9538,5.62709 -1.2896,2.3837 -3.1653,3.79047 -1.8757,1.3677 -4.2594,1.3677 -2.3837,0 -4.4547,-1.60216 -2.032,-1.64124 -3.556,-4.88463 -1.5241,-3.28247 -2.4228,-8.20618 -0.8597,-4.9237 -0.8597,-11.5668 0,-6.7994 0.6643,-12.23111 0.6643,-5.47078 2.032,-9.30033 1.4068,-3.82955 3.5169,-5.86155 2.1493,-2.07109 5.08,-2.07109 1.8757,0 3.5561,1.05508 1.6803,1.01601 2.9307,3.04801 1.2896,2.03201 1.993,5.08001 0.7424,3.00894 0.7424,6.99479 h -4.8065 q 0,-5.82247 -1.1723,-8.87048 -1.1332,-3.04801 -3.4778,-3.04801 -1.6413,0 -2.8136,1.83662 -1.1723,1.79754 -1.9147,4.88463 -0.7425,3.08708 -1.0942,7.19017 -0.3517,4.06401 -0.3517,8.63602 z m 6.3305,-2.14923 q -1.2114,0 -2.1883,1.13323 -0.977,1.13324 -1.7585,2.77447 -0.7425,1.64124 -1.2505,3.51693 -0.508,1.8757 -0.7424,3.36063 -0.078,2.93077 0.3126,5.7834 0.4298,2.85262 1.2114,5.15817 0.8206,2.26646 1.9538,3.67324 1.1723,1.40677 2.54,1.40677 1.2505,0 2.2274,-0.93785 0.977,-0.97693 1.6413,-2.73539 0.6643,-1.75847 0.9769,-4.22032 0.3517,-2.50093 0.3517,-5.54894 0,-3.12616 -0.3126,-5.58801 -0.3126,-2.50093 -0.977,-4.22032 -0.6252,-1.71939 -1.6412,-2.61816 -0.9769,-0.93785 -2.3446,-0.93785 z" inkscape:connector-curvature="0"/>
      </g>
      <g id="text18699" style="font-style:normal;font-variant:normal;font-weight:normal;font-stretch:normal;font-size:80.02975464px;line-height:125%;font-family:'Stint Ultra Condensed';-inkscape-font-specification:'Stint Ultra Condensed, ';font-variant-ligatures:normal;font-variant-caps:normal;font-variant-numeric:normal;font-feature-settings:normal;text-align:center;letter-spacing:0px;word-spacing:0px;writing-mode:lr-tb;text-anchor:middle;display:inline;fill:#000000;fill-opacity:1;stroke:none;stroke-width:1.00037193" transform="rotate(180,-1044.3882,39.919876)" aria-label="6">
        <path id="path12723" style="font-style:normal;font-variant:normal;font-weight:normal;font-stretch:normal;font-size:80.02975464px;font-family:'Stint Ultra Condensed';-inkscape-font-specification:'Stint Ultra Condensed, ';text-align:center;text-anchor:middle;stroke-width:1.00037193" d="m -4392.9801,18.225489 q 0.2735,-0.703387 0.7816,-1.797544 0.547,-1.094157 1.4067,-2.110159 0.8988,-1.05508 2.1493,-1.758467 1.2504,-0.742463 2.9698,-0.742463 1.9148,0 3.5951,1.094157 1.6803,1.094156 2.8917,3.28247 1.2505,2.188314 1.9539,5.509861 0.7424,3.282471 0.7424,7.737252 0,3.67324 -0.7034,6.916634 -0.6643,3.204316 -1.9538,5.627092 -1.2896,2.383699 -3.1653,3.790472 -1.8757,1.367696 -4.2594,1.367696 -2.3837,0 -4.4547,-1.602158 -2.032,-1.641236 -3.556,-4.884629 -1.5241,-3.28247 -2.4228,-8.206176 -0.8597,-4.923706 -0.8597,-11.5668 0,-6.799403 0.6643,-12.2311105 0.6643,-5.470784 2.032,-9.30033277 1.4068,-3.82954883 3.5169,-5.86155433 2.1493,-2.0710825 5.08,-2.0710825 1.8757,0 3.5561,1.0550798 1.6803,1.0160027 2.9307,3.0480082 1.2896,2.0320055 1.993,5.08001375 0.7424,3.00893115 0.7424,6.99478815 h -4.8065 q 0,-5.8224773 -1.1723,-8.8704855 -1.1332,-3.0480083 -3.4778,-3.0480083 -1.6413,0 -2.8136,1.8366204 -1.1723,1.7975433 -1.9147,4.8846286 -0.7425,3.0870852 -1.0942,7.1901732 -0.3517,4.0640108 -0.3517,8.6360238 z m 6.3305,-2.149237 q -1.2114,0 -2.1883,1.133234 -0.977,1.133234 -1.7585,2.774469 -0.7425,1.641235 -1.2505,3.516932 -0.508,1.875698 -0.7424,3.360625 -0.078,2.930777 0.3126,5.7834 0.4298,2.852623 1.2114,5.158168 0.8206,2.266468 1.9538,3.673241 1.1723,1.406773 2.54,1.406773 1.2505,0 2.2274,-0.937849 0.977,-0.976926 1.6413,-2.735392 0.6643,-1.758466 0.9769,-4.220319 0.3517,-2.50093 0.3517,-5.548938 0,-3.126163 -0.3126,-5.588015 -0.3126,-2.50093 -0.977,-4.220319 -0.6252,-1.71939 -1.6412,-2.618161 -0.9769,-0.937849 -2.3446,-0.937849 z" inkscape:connector-curvature="0"/>
      </g>
      <g id="g18769" transform="matrix(-3.7797426,0,0,-3.7797426,2256.6578,-68.28562)" style="display:inline;stroke-width:0.63496387">
        <path inkscape:connector-curvature="0" id="path18755" d="m 3.35,4.66 c 0,-1.81 -1.51,-3.28 -3.38,-3.28 -1.87,0 -3.38,1.47 -3.38,3.28 0,1.81 1.51,3.28 3.38,3.28 1.87,0 3.38,-1.47 3.38,-3.28 z" style="stroke-width:0.63496387"/>
        <path inkscape:connector-curvature="0" id="path18757" d="m 7.71,-1.55 c 0,-1.81 -1.51,-3.28 -3.38,-3.28 -1.87,0 -3.38,1.47 -3.38,3.28 0,1.81 1.51,3.28 3.38,3.28 1.87,0 3.38,-1.47 3.38,-3.28 z" style="stroke-width:0.63496387"/>
        <path inkscape:connector-curvature="0" id="path18759" d="m -0.95,-1.57 c 0,-0.66 -0.2,-1.28 -0.55,-1.8 -0.6,-0.89 -1.65,-1.48 -2.83,-1.48 -1.87,0 -3.38,1.47 -3.38,3.28 0,1.81 1.51,3.28 3.38,3.28 1.87,0 3.38,-1.47 3.38,-3.28 z" style="stroke-width:0.63496387"/>
        <path inkscape:connector-curvature="0" id="path18761" d="m 3.94,-7.94 c -1.67,0 -2.55,1.36 -3.01,2.72 -0.46,1.36 -0.5,2.72 -0.5,2.72 h -0.86 c 0,0 -0.16,-5.43 -3.5,-5.44 z" style="stroke-width:0.63496387"/>
        <path inkscape:connector-curvature="0" id="path18763" d="m -2.32,2.25 c 1.9,-1.9 1.9,-4.75 1.9,-4.75 l 0.85,-0.01 c 0,0 0,2.91 1.85,4.76" style="stroke-width:0.63496387"/>
        <path inkscape:connector-curvature="0" id="path18765" d="m -1.94,-3.85 c 1.9,1.9 4.75,1.9 4.75,1.9 v 0.85 c 0,0 -2.91,0 -4.76,1.85" style="stroke-width:0.63496387"/>
        <path inkscape:connector-curvature="0" id="path18767" d="m 1.87,-3.86 c -1.9,1.9 -4.75,1.9 -4.75,1.9 v 0.85 c 0,0 2.91,0 4.76,1.85" style="stroke-width:0.63496387"/>
      </g>
      <g id="g18801" transform="matrix(-3.7797426,0,0,-3.7797426,2190.6333,-68.28562)" style="display:inline;stroke-width:0.63496387">
        <path inkscape:connector-curvature="0" id="path18787" d="m 3.35,4.66 c 0,-1.81 -1.51,-3.28 -3.38,-3.28 -1.87,0 -3.38,1.47 -3.38,3.28 0,1.81 1.51,3.28 3.38,3.28 1.87,0 3.38,-1.47 3.38,-3.28 z" style="stroke-width:0.63496387"/>
        <path inkscape:connector-curvature="0" id="path18789" d="m 7.71,-1.55 c 0,-1.81 -1.51,-3.28 -3.38,-3.28 -1.87,0 -3.38,1.47 -3.38,3.28 0,1.81 1.51,3.28 3.38,3.28 1.87,0 3.38,-1.47 3.38,-3.28 z" style="stroke-width:0.63496387"/>
        <path inkscape:connector-curvature="0" id="path18791" d="m -0.95,-1.57 c 0,-0.66 -0.2,-1.28 -0.55,-1.8 -0.6,-0.89 -1.65,-1.48 -2.83,-1.48 -1.87,0 -3.38,1.47 -3.38,3.28 0,1.81 1.51,3.28 3.38,3.28 1.87,0 3.38,-1.47 3.38,-3.28 z" style="stroke-width:0.63496387"/>
        <path inkscape:connector-curvature="0" id="path18793" d="m 3.94,-7.94 c -1.67,0 -2.55,1.36 -3.01,2.72 -0.46,1.36 -0.5,2.72 -0.5,2.72 h -0.86 c 0,0 -0.16,-5.43 -3.5,-5.44 z" style="stroke-width:0.63496387"/>
        <path inkscape:connector-curvature="0" id="path18795" d="m -2.32,2.25 c 1.9,-1.9 1.9,-4.75 1.9,-4.75 l 0.85,-0.01 c 0,0 0,2.91 1.85,4.76" style="stroke-width:0.63496387"/>
        <path inkscape:connector-curvature="0" id="path18797" d="m -1.94,-3.85 c 1.9,1.9 4.75,1.9 4.75,1.9 v 0.85 c 0,0 -2.91,0 -4.76,1.85" style="stroke-width:0.63496387"/>
        <path inkscape:connector-curvature="0" id="path18799" d="m 1.87,-3.86 c -1.9,1.9 -4.75,1.9 -4.75,1.9 v 0.85 c 0,0 2.91,0 4.76,1.85" style="stroke-width:0.63496387"/>
      </g>
      <g style="display:inline;stroke-width:0.63496387" transform="matrix(-3.7797426,0,0,-3.7797426,2220.6445,-188.33018)" id="g18817">
        <path style="stroke-width:0.63496387" d="m 3.35,4.66 c 0,-1.81 -1.51,-3.28 -3.38,-3.28 -1.87,0 -3.38,1.47 -3.38,3.28 0,1.81 1.51,3.28 3.38,3.28 1.87,0 3.38,-1.47 3.38,-3.28 z" id="path18803" inkscape:connector-curvature="0"/>
        <path style="stroke-width:0.63496387" d="m 7.71,-1.55 c 0,-1.81 -1.51,-3.28 -3.38,-3.28 -1.87,0 -3.38,1.47 -3.38,3.28 0,1.81 1.51,3.28 3.38,3.28 1.87,0 3.38,-1.47 3.38,-3.28 z" id="path18805" inkscape:connector-curvature="0"/>
        <path style="stroke-width:0.63496387" d="m -0.95,-1.57 c 0,-0.66 -0.2,-1.28 -0.55,-1.8 -0.6,-0.89 -1.65,-1.48 -2.83,-1.48 -1.87,0 -3.38,1.47 -3.38,3.28 0,1.81 1.51,3.28 3.38,3.28 1.87,0 3.38,-1.47 3.38,-3.28 z" id="path18807" inkscape:connector-curvature="0"/>
        <path style="stroke-width:0.63496387" d="m 3.94,-7.94 c -1.67,0 -2.55,1.36 -3.01,2.72 -0.46,1.36 -0.5,2.72 -0.5,2.72 h -0.86 c 0,0 -0.16,-5.43 -3.5,-5.44 z" id="path18809" inkscape:connector-curvature="0"/>
        <path style="stroke-width:0.63496387" d="m -2.32,2.25 c 1.9,-1.9 1.9,-4.75 1.9,-4.75 l 0.85,-0.01 c 0,0 0,2.91 1.85,4.76" id="path18811" inkscape:connector-curvature="0"/>
        <path style="stroke-width:0.63496387" d="m -1.94,-3.85 c 1.9,1.9 4.75,1.9 4.75,1.9 v 0.85 c 0,0 -2.91,0 -4.76,1.85" id="path18813" inkscape:connector-curvature="0"/>
        <path style="stroke-width:0.63496387" d="m 1.87,-3.86 c -1.9,1.9 -4.75,1.9 -4.75,1.9 v 0.85 c 0,0 2.91,0 4.76,1.85" id="path18815" inkscape:connector-curvature="0"/>
      </g>
      <g id="g18833" transform="matrix(-3.7797426,0,0,-3.7797426,2286.6692,-188.33014)" style="display:inline;stroke-width:0.63496387">
        <path inkscape:connector-curvature="0" id="path18819" d="m 3.35,4.66 c 0,-1.81 -1.51,-3.28 -3.38,-3.28 -1.87,0 -3.38,1.47 -3.38,3.28 0,1.81 1.51,3.28 3.38,3.28 1.87,0 3.38,-1.47 3.38,-3.28 z" style="stroke-width:0.63496387"/>
        <path inkscape:connector-curvature="0" id="path18821" d="m 7.71,-1.55 c 0,-1.81 -1.51,-3.28 -3.38,-3.28 -1.87,0 -3.38,1.47 -3.38,3.28 0,1.81 1.51,3.28 3.38,3.28 1.87,0 3.38,-1.47 3.38,-3.28 z" style="stroke-width:0.63496387"/>
        <path inkscape:connector-curvature="0" id="path18823" d="m -0.95,-1.57 c 0,-0.66 -0.2,-1.28 -0.55,-1.8 -0.6,-0.89 -1.65,-1.48 -2.83,-1.48 -1.87,0 -3.38,1.47 -3.38,3.28 0,1.81 1.51,3.28 3.38,3.28 1.87,0 3.38,-1.47 3.38,-3.28 z" style="stroke-width:0.63496387"/>
        <path inkscape:connector-curvature="0" id="path18825" d="m 3.94,-7.94 c -1.67,0 -2.55,1.36 -3.01,2.72 -0.46,1.36 -0.5,2.72 -0.5,2.72 h -0.86 c 0,0 -0.16,-5.43 -3.5,-5.44 z" style="stroke-width:0.63496387"/>
        <path inkscape:connector-curvature="0" id="path18827" d="m -2.32,2.25 c 1.9,-1.9 1.9,-4.75 1.9,-4.75 l 0.85,-0.01 c 0,0 0,2.91 1.85,4.76" style="stroke-width:0.63496387"/>
        <path inkscape:connector-curvature="0" id="path18829" d="m -1.94,-3.85 c 1.9,1.9 4.75,1.9 4.75,1.9 v 0.85 c 0,0 -2.91,0 -4.76,1.85" style="stroke-width:0.63496387"/>
        <path inkscape:connector-curvature="0" id="path18831" d="m 1.87,-3.86 c -1.9,1.9 -4.75,1.9 -4.75,1.9 v 0.85 c 0,0 2.91,0 4.76,1.85" style="stroke-width:0.63496387"/>
      </g>
      <g id="g18849" transform="matrix(3.7797426,0,0,3.7797426,2220.6067,51.759084)" style="display:inline;stroke-width:0.63496387">
        <path inkscape:connector-curvature="0" id="path18835" d="m 3.35,4.66 c 0,-1.81 -1.51,-3.28 -3.38,-3.28 -1.87,0 -3.38,1.47 -3.38,3.28 0,1.81 1.51,3.28 3.38,3.28 1.87,0 3.38,-1.47 3.38,-3.28 z" style="stroke-width:0.63496387"/>
        <path inkscape:connector-curvature="0" id="path18837" d="m 7.71,-1.55 c 0,-1.81 -1.51,-3.28 -3.38,-3.28 -1.87,0 -3.38,1.47 -3.38,3.28 0,1.81 1.51,3.28 3.38,3.28 1.87,0 3.38,-1.47 3.38,-3.28 z" style="stroke-width:0.63496387"/>
        <path inkscape:connector-curvature="0" id="path18839" d="m -0.95,-1.57 c 0,-0.66 -0.2,-1.28 -0.55,-1.8 -0.6,-0.89 -1.65,-1.48 -2.83,-1.48 -1.87,0 -3.38,1.47 -3.38,3.28 0,1.81 1.51,3.28 3.38,3.28 1.87,0 3.38,-1.47 3.38,-3.28 z" style="stroke-width:0.63496387"/>
        <path inkscape:connector-curvature="0" id="path18841" d="m 3.94,-7.94 c -1.67,0 -2.55,1.36 -3.01,2.72 -0.46,1.36 -0.5,2.72 -0.5,2.72 h -0.86 c 0,0 -0.16,-5.43 -3.5,-5.44 z" style="stroke-width:0.63496387"/>
        <path inkscape:connector-curvature="0" id="path18843" d="m -2.32,2.25 c 1.9,-1.9 1.9,-4.75 1.9,-4.75 l 0.85,-0.01 c 0,0 0,2.91 1.85,4.76" style="stroke-width:0.63496387"/>
        <path inkscape:connector-curvature="0" id="path18845" d="m -1.94,-3.85 c 1.9,1.9 4.75,1.9 4.75,1.9 v 0.85 c 0,0 -2.91,0 -4.76,1.85" style="stroke-width:0.63496387"/>
        <path inkscape:connector-curvature="0" id="path18847" d="m 1.87,-3.86 c -1.9,1.9 -4.75,1.9 -4.75,1.9 v 0.85 c 0,0 2.91,0 4.76,1.85" style="stroke-width:0.63496387"/>
      </g>
      <g style="display:inline;stroke-width:0.63496387" transform="matrix(3.7797426,0,0,3.7797426,2154.5821,51.759084)" id="g18865">
        <path style="stroke-width:0.63496387" d="m 3.35,4.66 c 0,-1.81 -1.51,-3.28 -3.38,-3.28 -1.87,0 -3.38,1.47 -3.38,3.28 0,1.81 1.51,3.28 3.38,3.28 1.87,0 3.38,-1.47 3.38,-3.28 z" id="path18851" inkscape:connector-curvature="0"/>
        <path style="stroke-width:0.63496387" d="m 7.71,-1.55 c 0,-1.81 -1.51,-3.28 -3.38,-3.28 -1.87,0 -3.38,1.47 -3.38,3.28 0,1.81 1.51,3.28 3.38,3.28 1.87,0 3.38,-1.47 3.38,-3.28 z" id="path18853" inkscape:connector-curvature="0"/>
        <path style="stroke-width:0.63496387" d="m -0.95,-1.57 c 0,-0.66 -0.2,-1.28 -0.55,-1.8 -0.6,-0.89 -1.65,-1.48 -2.83,-1.48 -1.87,0 -3.38,1.47 -3.38,3.28 0,1.81 1.51,3.28 3.38,3.28 1.87,0 3.38,-1.47 3.38,-3.28 z" id="path18855" inkscape:connector-curvature="0"/>
        <path style="stroke-width:0.63496387" d="m 3.94,-7.94 c -1.67,0 -2.55,1.36 -3.01,2.72 -0.46,1.36 -0.5,2.72 -0.5,2.72 h -0.86 c 0,0 -0.16,-5.43 -3.5,-5.44 z" id="path18857" inkscape:connector-curvature="0"/>
        <path style="stroke-width:0.63496387" d="m -2.32,2.25 c 1.9,-1.9 1.9,-4.75 1.9,-4.75 l 0.85,-0.01 c 0,0 0,2.91 1.85,4.76" id="path18859" inkscape:connector-curvature="0"/>
        <path style="stroke-width:0.63496387" d="m -1.94,-3.85 c 1.9,1.9 4.75,1.9 4.75,1.9 v 0.85 c 0,0 -2.91,0 -4.76,1.85" id="path18861" inkscape:connector-curvature="0"/>
        <path style="stroke-width:0.63496387" d="m 1.87,-3.86 c -1.9,1.9 -4.75,1.9 -4.75,1.9 v 0.85 c 0,0 2.91,0 4.76,1.85" id="path18863" inkscape:connector-curvature="0"/>
      </g>
      <g id="g18881" transform="matrix(-2.2678455,0,0,-2.2678455,2142.6081,-146.31466)" style="display:inline;stroke-width:1.0582732">
        <path inkscape:connector-curvature="0" id="path18867" d="m 3.35,4.66 c 0,-1.81 -1.51,-3.28 -3.38,-3.28 -1.87,0 -3.38,1.47 -3.38,3.28 0,1.81 1.51,3.28 3.38,3.28 1.87,0 3.38,-1.47 3.38,-3.28 z" style="stroke-width:1.0582732"/>
        <path inkscape:connector-curvature="0" id="path18869" d="m 7.71,-1.55 c 0,-1.81 -1.51,-3.28 -3.38,-3.28 -1.87,0 -3.38,1.47 -3.38,3.28 0,1.81 1.51,3.28 3.38,3.28 1.87,0 3.38,-1.47 3.38,-3.28 z" style="stroke-width:1.0582732"/>
        <path inkscape:connector-curvature="0" id="path18871" d="m -0.95,-1.57 c 0,-0.66 -0.2,-1.28 -0.55,-1.8 -0.6,-0.89 -1.65,-1.48 -2.83,-1.48 -1.87,0 -3.38,1.47 -3.38,3.28 0,1.81 1.51,3.28 3.38,3.28 1.87,0 3.38,-1.47 3.38,-3.28 z" style="stroke-width:1.0582732"/>
        <path inkscape:connector-curvature="0" id="path18873" d="m 3.94,-7.94 c -1.67,0 -2.55,1.36 -3.01,2.72 -0.46,1.36 -0.5,2.72 -0.5,2.72 h -0.86 c 0,0 -0.16,-5.43 -3.5,-5.44 z" style="stroke-width:1.0582732"/>
        <path inkscape:connector-curvature="0" id="path18875" d="m -2.32,2.25 c 1.9,-1.9 1.9,-4.75 1.9,-4.75 l 0.85,-0.01 c 0,0 0,2.91 1.85,4.76" style="stroke-width:1.0582732"/>
        <path inkscape:connector-curvature="0" id="path18877" d="m -1.94,-3.85 c 1.9,1.9 4.75,1.9 4.75,1.9 v 0.85 c 0,0 -2.91,0 -4.76,1.85" style="stroke-width:1.0582732"/>
        <path inkscape:connector-curvature="0" id="path18879" d="m 1.87,-3.86 c -1.9,1.9 -4.75,1.9 -4.75,1.9 v 0.85 c 0,0 2.91,0 4.76,1.85" style="stroke-width:1.0582732"/>
      </g>
      <g style="display:inline;stroke-width:1.0582732" transform="matrix(2.2678455,0,0,2.2678455,2298.6432,9.7434057)" id="g18897">
        <path style="stroke-width:1.0582732" d="m 3.35,4.66 c 0,-1.81 -1.51,-3.28 -3.38,-3.28 -1.87,0 -3.38,1.47 -3.38,3.28 0,1.81 1.51,3.28 3.38,3.28 1.87,0 3.38,-1.47 3.38,-3.28 z" id="path18883" inkscape:connector-curvature="0"/>
        <path style="stroke-width:1.0582732" d="m 7.71,-1.55 c 0,-1.81 -1.51,-3.28 -3.38,-3.28 -1.87,0 -3.38,1.47 -3.38,3.28 0,1.81 1.51,3.28 3.38,3.28 1.87,0 3.38,-1.47 3.38,-3.28 z" id="path18885" inkscape:connector-curvature="0"/>
        <path style="stroke-width:1.0582732" d="m -0.95,-1.57 c 0,-0.66 -0.2,-1.28 -0.55,-1.8 -0.6,-0.89 -1.65,-1.48 -2.83,-1.48 -1.87,0 -3.38,1.47 -3.38,3.28 0,1.81 1.51,3.28 3.38,3.28 1.87,0 3.38,-1.47 3.38,-3.28 z" id="path18887" inkscape:connector-curvature="0"/>
        <path style="stroke-width:1.0582732" d="m 3.94,-7.94 c -1.67,0 -2.55,1.36 -3.01,2.72 -0.46,1.36 -0.5,2.72 -0.5,2.72 h -0.86 c 0,0 -0.16,-5.43 -3.5,-5.44 z" id="path18889" inkscape:connector-curvature="0"/>
        <path style="stroke-width:1.0582732" d="m -2.32,2.25 c 1.9,-1.9 1.9,-4.75 1.9,-4.75 l 0.85,-0.01 c 0,0 0,2.91 1.85,4.76" id="path18891" inkscape:connector-curvature="0"/>
        <path style="stroke-width:1.0582732" d="m -1.94,-3.85 c 1.9,1.9 4.75,1.9 4.75,1.9 v 0.85 c 0,0 -2.91,0 -4.76,1.85" id="path18893" inkscape:connector-curvature="0"/>
        <path style="stroke-width:1.0582732" d="m 1.87,-3.86 c -1.9,1.9 -4.75,1.9 -4.75,1.9 v 0.85 c 0,0 2.91,0 4.76,1.85" id="path18895" inkscape:connector-curvature="0"/>
      </g>
    </g>
    </g></svg>
