<?xml version='1.0' encoding='UTF-8'?>
<!-- Created with Inkscape (http://www.inkscape.org/) and export_objects.py -->
<svg xmlns:cc="http://creativecommons.org/ns#" xmlns:dc="http://purl.org/dc/elements/1.1/" xmlns:inkscape="http://www.inkscape.org/namespaces/inkscape" xmlns:rdf="http://www.w3.org/1999/02/22-rdf-syntax-ns#" xmlns:sodipodi="http://sodipodi.sourceforge.net/DTD/sodipodi-0.dtd" xmlns:xlink="http://www.w3.org/1999/xlink" xmlns="http://www.w3.org/2000/svg" version="1.1" width="50.8mm" height="50.8mm" viewBox="0 0 50.8 50.8" id="svg1654" sodipodi:docname="cow-head-2.svg"><sodipodi:namedview id="base" pagecolor="#ffffff" bordercolor="#666666" borderopacity="1.0" inkscape:pageopacity="0.0" inkscape:pageshadow="2" inkscape:zoom="0.91591534" inkscape:cx="473.99275" inkscape:cy="850.28571" inkscape:document-units="mm" inkscape:current-layer="layer1" showgrid="true" inkscape:window-width="1280" inkscape:window-height="940" inkscape:window-x="1909" inkscape:window-y="43" inkscape:window-maximized="1">
    <inkscape:grid type="xygrid" id="grid2271"/>
  </sodipodi:namedview>
  <metadata id="metadata1651">
    <rdf:RDF>
      <cc:Work rdf:about="">
        <dc:format>image/svg+xml</dc:format>
        <dc:type rdf:resource="http://purl.org/dc/dcmitype/StillImage"/>
      </cc:Work>
    </rdf:RDF>
  </metadata>
  <g inkscape:groupmode="layer" inkscape:label="cow-head-" transform="matrix(1.000000,0.000000,0.000000,1.000000,-127.000000,-17.600000)"><g id="g2285" inkscape:label="2">
      <rect y="17.6" x="127" height="50.799999" width="50.799999" id="rect2274" style="opacity:1;fill:none;fill-opacity:1;stroke:none;stroke-width:0.35277778;stroke-linecap:butt;stroke-linejoin:miter;stroke-miterlimit:47.14606857;stroke-dasharray:none;stroke-dashoffset:0;stroke-opacity:1;paint-order:markers fill stroke"/>
      <g style="stroke-width:2.29214048" id="g1646" transform="matrix(0.15390758,0,0,-0.15390758,-83.901014,219.55849)">
        <g style="stroke-width:2.29214048" id="g380" transform="translate(1396.9307,1075.5922)">
          <path d="m 0,0 c 3.422,7.421 8.056,7.615 14.968,8.308 3.697,2.588 8.502,2.761 10.496,0 0.889,-1.777 3.721,-1.444 4.554,-3.499 2.055,-2.333 1.833,-4.638 6.776,-5.332 1,-0.5 2.611,-0.555 3.499,-1.444 -2.101,-5.568 2.317,-6.283 8.459,-6.826 2.176,-0.192 4.477,0.008 6.425,-0.894 2.833,-1.333 6.498,-0.166 8.442,-2.832 0.722,-0.389 2.456,-1.508 3.038,-1.598 1.109,-0.171 1.023,-0.877 0.003,-0.924 -4.793,-0.218 -8.997,-0.974 -11.872,-4.92 -0.999,-1.833 -8.108,-3.388 -9.719,-4.943 -3.332,-4.054 -13.218,0.361 -21.327,-1.888 -2.286,-0.75 -4.685,-0.351 -6.838,0.32 -6.256,1.952 -4.354,3.725 -2.246,6.328 1.881,2.322 1.686,6.163 -0.269,7.008 -0.313,0.135 -0.211,0.696 0.149,0.983 0.673,0.537 1.34,1.369 1.901,2.744 0.889,3.36 3.249,2.777 2.638,5.943 -0.055,3.11 -3.943,0.444 -3.61,2.943 C 16.5,4.472 11.657,5.46 7.081,2.976 6.748,1.588 5.192,1.282 3.637,1.865 1.998,1.934 1.304,0.804 0.612,-0.346 0.178,-1.067 -0.315,-0.685 0,0 m 5.859,-13.574 c 3.016,2.02 3.241,3.573 3.786,6.329 0.674,3.402 2.942,3.832 4.378,1.391 1.77,-4.604 -4.159,-9.355 -8.164,-7.72 m 60.548,141.92 c -1.295,-1.204 -2.561,-2.462 -2.677,-4.24 -1.277,-0.389 -1.943,1.111 -3.054,1.332 -1.77,-2.995 -4.358,-4.391 -7.887,-0.666 -0.722,0.722 -0.5,2.277 -1.721,2.277 -1.556,-1.666 -3.361,-1.832 -5.194,-1.465 -17.498,3.513 -23.006,10.665 -24.262,25.084 -0.447,5.135 1.034,2.048 2.359,0.069 8.006,-11.963 20.848,-16.252 30.623,-18.145 1.79,-0.346 2.856,-0.475 1.443,-2.657 -0.59,-0.912 -1.626,-1.59 -1.36,-2.997 1.095,-2.189 2.525,-2.323 3.034,0.59 0.174,0.993 0.271,2.048 0.965,2.742 1.314,2.672 4.561,1.787 7.428,2.001 0.769,0.057 3.791,1.11 4.569,1.554 -0.389,-0.833 -3.094,-4.389 -4.266,-5.479 m 3.599,-29.677 c 2.499,3.832 6.942,6.72 11.441,8.109 1.333,0.139 3.61,0.389 1.11,-0.528 -4.498,-2.166 -8.941,-4.915 -12.551,-7.581 m 1.559,-20.263 c 1.974,1.889 5.652,0.827 8.438,1.324 -0.278,-1.277 -7.718,-2.35 -8.072,-2.439 -0.969,-0.243 -0.856,0.645 -0.366,1.115 m 1.645,-93.038 c 4.695,0.898 9.63,1.93 13.846,3.724 1.222,1.388 2.833,0.055 4.277,0.666 4.551,3.577 2.066,0.246 0.944,-0.778 -2.166,-1.999 -5.471,-2.332 -8.303,-1.888 -2.834,-2.138 -7.142,-1.495 -10.654,-2.13 -0.411,-0.075 -0.796,0.275 -0.11,0.406 M 94.116,88.46 C 90.955,81.442 89.46,77.619 80.826,77.012 c -0.354,-0.025 -0.439,0.191 -0.115,0.333 4.356,1.906 7.767,5.78 10.455,9.605 1.317,0.044 1.558,1.13 2.398,1.747 0.222,0.164 0.641,-0.039 0.552,-0.237 m 4.288,58.022 c -6.321,4.795 -16.517,16.415 -19.975,23.149 -2.235,3.598 -2.167,9.581 -2.078,8.97 -0.606,4.184 0.471,2.334 2.234,1.021 2.123,-1.58 3.528,-2.337 3.528,-0.7 0.265,1.706 1.06,0.87 2.114,-0.489 1.262,-1.629 2.896,-4.009 4.44,-3.676 3.921,-7.869 17.105,-11.982 22.349,-15.142 0.549,-0.331 0.163,-1.11 -0.33,-1.048 -1.918,0.245 -2.673,1.468 -1.394,-0.847 0.767,-1.387 1.972,-2.961 -1.379,-0.961 -2.769,1.652 -7.52,6.466 -8.583,6.668 2.453,-6.792 -0.703,-3.983 -2.554,-2.388 -1.277,0.833 -2.611,2.554 -3.999,3.054 -0.833,-0.388 -3.317,1.328 -3.832,1.824 -9.377,9.046 -10.892,7.661 -2.81,-3.362 5.476,-6.941 18.138,-17.9 18.916,-17.4 1.083,0.729 4.847,-0.292 6.032,-1.942 1.056,-1.469 4.099,-0.52 6.039,0.536 1.836,0.999 2.611,0.971 0.765,-0.382 -1.649,-1.21 -3.8,-2.185 -5.394,-2.6 -6.12,-1.767 -8.556,1.518 -14.089,5.715 m 4.805,-97.114 c 0.072,0.714 0.477,0.572 0.449,-0.148 -0.047,-1.266 -0.254,-2.488 0.171,-3.868 0.764,-2.457 -0.056,-5.498 1.222,-6.942 -0.445,-1.722 1.055,-7.387 1.333,-9.053 -0.125,-1.041 0.406,-1.833 0.609,-2.749 0.067,-0.306 -0.607,-0.768 -0.754,-0.468 -0.273,0.559 -0.233,1.454 -0.522,1.995 0.389,3.888 -1.61,7.164 -1.888,10.941 -1.097,3.381 -0.953,6.987 -0.62,10.292 m 11.29,-16.67 c -0.021,1.559 0.481,2.922 0.438,4.49 0.333,1.944 0.76,11.961 1.207,15.125 0.085,0.599 0.397,0.545 0.452,-0.098 0.227,-2.574 0.217,-5.241 0.174,-8.085 0.221,-1.11 -0.389,-2.166 0,-3.054 0,-2.888 -0.76,-5.684 -1.426,-8.35 -0.449,-2.918 -0.802,-3.051 -0.845,-0.028 m 4.547,91.685 c 1.058,1.748 1.012,4.446 0.586,6.742 -1.774,9.569 9.834,17.771 13.253,18.119 9.397,0.955 22.092,-3.749 24.705,-15.641 1.361,-7.498 -1.166,-17.051 -2.166,-18.939 -1.166,-5.776 -4.665,-10.497 -5.331,-16.384 -0.722,-1.388 -0.223,-4.443 -2.944,-3.221 -1.111,1.055 2.166,4.276 2.166,5.887 0.166,1.444 0.5,3.11 -0.667,4.221 1.222,1.055 3.444,5.054 2.5,5.776 0.166,1.277 -0.834,1.888 -0.667,3.055 4.943,2.332 5.277,7.831 4.943,13.051 0.166,0.5 -0.655,2.726 -1.057,3.458 -0.993,1.81 -2.436,0.072 -1.537,-1.512 0.695,-1.225 1.74,-4.015 0.984,-4.223 -0.278,-0.097 -0.556,-0.944 0,-1.333 -0.443,-3.049 -1.844,-6.446 -4.472,-7.917 -1.135,-0.635 -1.548,-1.264 -0.939,-2.837 0.81,-2.095 2.347,-2.328 -0.187,-4.517 -0.723,-0.624 -1.539,-1.228 -1.733,-2.057 -0.611,-1.555 0.499,-2.444 0.944,-3.61 0.333,-1.833 -1.555,-1.944 -2.389,-3.055 -0.221,-1.11 -0.777,-2.249 0,-3.61 -0.055,-5.581 -5.809,-10.078 -6.487,-8.886 -0.682,0.622 -1.419,1.322 -2.565,0.889 -0.834,-0.389 -1.999,-0.5 -2.277,-1.555 -2.978,-2.127 -5.181,-2.195 -6.785,4.622 -0.542,2.304 -1.193,4.596 -1.324,7.096 -0.5,0.834 -1.611,1.278 -1.333,2.5 -2.499,1.832 -4.832,8.608 -6.165,15.217 -0.527,2.555 -0.499,4.36 0.944,8.664 m 2.017,-62.944 c -0.023,0.765 0.551,0.481 0.794,-0.125 0.357,-0.889 0.708,-1.775 0.411,-2.799 0.73,-2.718 1.704,-14.319 1.579,-16.163 -0.174,-2.578 -0.188,-5.178 -0.691,-7.552 -1.367,-3.951 -1.123,-5.774 -1.053,-8.77 0.078,-3.382 0.65,-7.208 1.341,-10.761 0.264,-1.355 -0.149,-1.338 -0.707,-0.005 -0.272,0.648 -0.569,1.295 -0.914,1.93 0,0.833 0.112,1.722 -0.499,2.277 0.111,0.666 -0.14,4.631 -0.158,5.242 -0.082,2.754 0.455,5.067 0.546,7.976 2.365,9.667 -0.363,19.192 -0.649,28.75 m 11.035,1.074 c 0.889,-1.277 0.056,-2.11 -0.278,-3.332 -0.499,1.389 0.389,2.111 0.278,3.332 m -0.111,-5.054 c 0.406,-2.186 0.673,-4.418 0.673,-6.783 0,-0.218 -0.322,-0.264 -0.349,-0.002 -0.309,2.916 -1.292,4.442 -0.324,6.785 m 1.731,-26.425 c 0.144,3.215 0.474,3.099 0.518,-0.074 0.031,-2.284 -0.206,-4.464 0.916,-6.268 0.643,-3.016 1.154,-5.68 1.885,-8.54 0.55,-2.151 0.226,-2.431 -0.741,-0.184 -0.171,0.399 -0.293,0.794 -0.269,1.032 -1.234,1.48 -2.552,8.593 -2.309,14.034 m 13.589,8.051 c 0.029,0.44 0.411,0.436 0.481,-0.023 0.058,-0.389 1.38,-9.938 0.738,-12.964 -0.114,-0.535 -0.551,-0.116 -0.565,0.279 -0.139,4.181 -0.93,8.373 -0.654,12.708 m 7.839,-38.664 c 0.778,1.167 1.056,5.11 1.611,5.332 -0.555,-2.055 0.056,-4.276 -0.5,-6.109 -0.389,0.166 -1.111,0.222 -1.111,0.777 m 4.277,31.324 c 0.666,2.61 -0.375,5.235 0.458,7.956 0.461,1.037 0.479,2.475 0.487,3.617 0.006,0.828 0.434,0.714 0.358,-0.132 -0.093,-1.04 -0.202,-2.076 0.197,-3.332 -0.778,-0.889 -0.167,-2.388 -0.667,-3.444 0.556,-0.777 0.556,-1.944 0.5,-2.777 -0.056,-0.999 -0.833,-1.61 -1.333,-1.888 m 0.666,90.25 c -0.333,0.889 0.32,1.555 0.695,0.431 0.736,-2.25 2.971,-7.318 3.582,-8.317 0.388,-0.445 0,-2.777 0.666,-3.166 0.944,-0.555 -0.222,-1.444 0.555,-2 0.515,-0.652 0.654,-10.399 0.709,-10.843 -0.099,-0.113 -0.377,-0.898 -0.429,-1.16 -0.154,-0.769 -0.474,-0.146 -0.455,0.18 0.105,1.815 -0.222,3.344 -0.269,4.992 -1.703,6.651 -1.141,11.809 -3.334,16.48 -0.622,1.327 -1.364,2.741 -1.72,3.403 m 1.759,-50.618 c 0.528,2.673 0.614,5.409 1.115,7.965 0.723,0.388 0.687,4.121 0.949,4.778 0.088,0.218 0.48,0.052 0.48,-0.119 -0.003,-0.861 -0.741,-4.626 -0.702,-5.585 0.013,-0.32 0.092,-0.657 0.287,-1.032 -0.434,-1.543 -1.319,-4.393 -1.616,-6.371 -0.283,-1.882 -0.882,-1.496 -0.513,0.364 m 0.771,-97.885 c 0,-0.813 -0.66,-1.472 -1.473,-1.472 -0.813,0 -1.473,0.659 -1.473,1.472 0,0.814 0.66,1.473 1.473,1.473 0.813,0 1.473,-0.659 1.473,-1.473 m -2.203,2.037 c -0.574,-0.159 -1.346,0.813 -1.722,2.171 -0.377,1.359 -0.216,2.59 0.359,2.749 0.575,0.159 1.346,-0.813 1.723,-2.172 0.375,-1.358 0.215,-2.589 -0.36,-2.748 m -1.782,-1.721 c -0.099,-0.588 -1.307,-0.875 -2.697,-0.64 -1.39,0.234 -2.437,0.901 -2.338,1.489 0.099,0.588 1.307,0.875 2.697,0.64 1.39,-0.234 2.437,-0.901 2.338,-1.489 m -5.858,-13.168 c -0.441,0.725 -1.056,1.421 -1.689,1.777 -2.8,1.572 -4.22,-0.627 -4.028,-2.104 l -0.293,0.057 c -0.677,1.753 1.582,4.453 4.758,2.216 0.744,-0.523 1.254,-1.227 1.492,-1.956 0.08,-0.243 -0.089,-0.238 -0.24,0.01 m -3.105,9.142 c -0.154,-0.575 -1.383,-0.747 -2.745,-0.382 -1.362,0.365 -2.341,1.127 -2.186,1.704 0.154,0.576 1.383,0.747 2.745,0.382 1.362,-0.364 2.34,-1.128 2.186,-1.704 m -3.164,4.584 c -1.004,-0.989 -2.635,-0.935 -2.658,-0.887 l 1.042,2.319 c 0.034,0.035 0.064,0.072 0.1,0.107 1.005,0.989 2.158,1.447 2.577,1.022 0.419,-0.425 -0.057,-1.572 -1.061,-2.561 m -3.016,-1.684 c 0.241,-0.262 0.397,-0.605 0.397,-0.989 0,-0.814 -0.659,-1.473 -1.473,-1.473 -0.01,0 -0.018,0.005 -0.027,0.006 z m -0.695,-3.19 c 0.578,0.15 1.332,-0.835 1.686,-2.2 0.353,-1.365 0.172,-2.592 -0.405,-2.742 -0.577,-0.15 -1.332,0.835 -1.685,2.2 -0.355,1.365 -0.173,2.592 0.404,2.742 m 2.262,-9.408 -0.261,-0.145 c -0.27,1.465 -2.294,3.123 -4.478,0.77 -0.495,-0.533 -0.867,-1.384 -1.065,-2.209 -0.068,-0.282 -0.226,-0.339 -0.225,-0.083 0.003,0.766 0.273,1.593 0.821,2.319 2.338,3.102 5.316,1.223 5.208,-0.652 m -6.03,-4.939 -0.916,-0.221 c -0.032,0.805 -0.821,1.346 -1.99,1.064 -0.085,-0.021 0.069,0.633 0.069,0.633 1.309,0.241 2.546,-0.391 2.837,-1.476 m -0.799,3.012 c -0.271,0.392 -0.597,0.763 -0.945,1.077 l 0.146,0.373 c 0.479,-0.42 0.833,-0.922 1.039,-1.447 0.094,-0.238 -0.075,-0.242 -0.24,-0.003 m -1.843,-2.778 c 0.47,0.114 0.929,-0.139 1.059,-0.563 l -1.744,-0.421 c -0.078,0.436 0.215,0.871 0.685,0.984 m 10.764,1.892 c 0.481,0.059 0.907,-0.246 0.987,-0.683 l -1.782,-0.215 c -0.025,0.443 0.315,0.841 0.795,0.898 m -1.683,-1.057 -0.846,-0.102 c -0.111,1.166 0.909,2.24 2.309,2.409 1.401,0.169 2.647,-0.63 2.818,-1.789 l -0.936,-0.113 c 0.061,0.803 -0.658,1.432 -1.853,1.287 -1.163,-0.14 -1.667,-1.161 -1.492,-1.692 m 12.99,13.07 c -0.934,-1.055 -2.054,-1.59 -2.5,-1.195 -0.447,0.396 -0.051,1.572 0.883,2.627 0.935,1.055 2.055,1.591 2.501,1.195 0.447,-0.395 0.051,-1.571 -0.884,-2.627 m 1.309,-7.255 -0.269,-0.129 c -0.185,1.477 -2.11,3.249 -4.427,1.025 -0.523,-0.503 -0.944,-1.331 -1.189,-2.144 -0.084,-0.278 -0.246,-0.325 -0.229,-0.07 0.047,0.765 0.364,1.575 0.952,2.268 2.513,2.963 5.378,0.916 5.162,-0.95 m -22.959,-11.216 c 19.491,5.343 37.213,6.547 57.15,3.008 4.496,-0.799 4.273,-1.441 -0.369,-0.801 -18.98,2.618 -36.314,2.429 -56.436,-3.057 -3.366,-0.917 -3.693,-0.067 -0.345,0.85 m -3.901,-4.218 c 14.597,7.029 51.638,9.234 65.339,2.398 0.277,-1.777 1.388,-3.333 1.721,-4.943 -17.604,5.848 -43.933,5.232 -69.034,-1.888 0,0.166 1.629,4.109 1.974,4.433 m 60.222,11.611 c 0.48,-0.061 0.819,-0.461 0.789,-0.904 l -1.779,0.226 c 0.082,0.436 0.51,0.739 0.99,0.678 m 2.386,-1.158 -0.935,0.119 c 0.257,0.764 -0.288,1.549 -1.482,1.701 -1.16,0.148 -1.899,-0.719 -1.86,-1.277 l -0.845,0.108 c 0.177,1.158 1.429,1.949 2.828,1.772 1.399,-0.178 2.412,-1.258 2.294,-2.423 m -0.72,6.93 c -0.347,-0.314 -0.674,-0.686 -0.944,-1.077 -0.166,-0.239 -0.334,-0.235 -0.241,0.003 0.206,0.525 0.56,1.027 1.039,1.447 z m -2.213,-1.305 -0.284,-0.094 c 0.004,1.489 -1.682,3.49 -4.261,1.577 -0.583,-0.433 -1.105,-1.201 -1.451,-1.976 -0.118,-0.265 -0.284,-0.292 -0.236,-0.041 0.144,0.754 0.561,1.517 1.232,2.13 2.868,2.621 5.45,0.228 5,-1.596 m -2.992,8.498 c -0.154,-0.576 -1.383,-0.747 -2.745,-0.383 -1.362,0.365 -2.34,1.128 -2.186,1.704 0.154,0.576 1.384,0.748 2.745,0.383 1.362,-0.365 2.341,-1.128 2.186,-1.704 m -2.817,4.445 c -1.004,-0.989 -2.157,-1.447 -2.576,-1.022 -0.419,0.425 0.056,1.572 1.061,2.561 1.004,0.989 2.158,1.446 2.576,1.021 0.419,-0.425 -0.056,-1.571 -1.061,-2.56 m -2.966,-2.535 c 0,-0.813 -0.659,-1.472 -1.473,-1.472 -0.813,0 -1.472,0.659 -1.472,1.472 0,0.814 0.659,1.473 1.472,1.473 0.814,0 1.473,-0.659 1.473,-1.473 m -2.202,2.036 c -0.575,-0.159 -1.346,0.813 -1.722,2.172 -0.377,1.358 -0.216,2.589 0.359,2.748 0.574,0.16 1.346,-0.813 1.722,-2.171 0.377,-1.359 0.216,-2.589 -0.359,-2.749 m -10.349,-11.039 c -0.556,-0.467 -1.031,-1.265 -1.331,-2.058 -0.102,-0.272 -0.267,-0.309 -0.234,-0.055 0.1,0.76 0.47,1.546 1.104,2.199 2.706,2.786 5.427,0.551 5.086,-1.296 l -0.277,-0.111 c -0.085,1.487 -1.887,3.385 -4.348,1.321 m 5.87,8.678 c -1.39,0.235 -2.438,0.902 -2.338,1.49 0.099,0.588 1.307,0.875 2.697,0.64 1.389,-0.234 2.437,-0.901 2.337,-1.49 -0.099,-0.587 -1.307,-0.874 -2.696,-0.64 m 3.404,-1.256 c 0.447,-0.396 0.051,-1.572 -0.884,-2.627 -0.935,-1.056 -2.054,-1.591 -2.5,-1.196 -0.447,0.396 -0.051,1.572 0.883,2.628 0.934,1.055 2.054,1.59 2.501,1.195 m 3.467,-5.562 c -0.578,-0.149 -1.332,0.836 -1.686,2.2 -0.354,1.365 -0.173,2.593 0.404,2.743 0.578,0.149 1.333,-0.836 1.686,-2.201 0.354,-1.364 0.173,-2.592 -0.404,-2.742 m 1.712,-3.799 c 0.049,-0.251 -0.118,-0.224 -0.236,0.041 -0.347,0.775 -0.868,1.543 -1.451,1.976 -2.58,1.913 -4.266,-0.088 -4.262,-1.577 l -0.283,0.094 c -0.451,1.824 2.132,4.217 5,1.596 0.671,-0.613 1.088,-1.376 1.232,-2.13 m -7.717,-2.999 c 0.484,10e-4 0.871,-0.353 0.899,-0.796 l -1.795,-0.002 c 0.027,0.443 0.413,0.797 0.896,0.798 m -1.798,-0.85 -0.851,-10e-4 c 0.028,1.172 1.169,2.116 2.58,2.117 1.409,0.002 2.553,-0.939 2.584,-2.111 l -0.943,-0.001 c 0.157,0.791 -0.484,1.5 -1.687,1.499 -1.17,-10e-4 -1.793,-0.954 -1.683,-1.503 m -12.123,19.276 c 1.003,0.989 2.157,1.447 2.576,1.022 0.418,-0.425 -0.057,-1.571 -1.061,-2.561 -1.005,-0.989 -2.158,-1.446 -2.577,-1.022 -0.419,0.426 0.057,1.572 1.062,2.561 m -2.543,-6.274 c 0.577,0.149 1.332,-0.835 1.686,-2.2 0.353,-1.365 0.172,-2.592 -0.405,-2.742 -0.578,-0.15 -1.332,0.835 -1.686,2.2 -0.354,1.365 -0.172,2.592 0.405,2.742 m 6.875,0.29 c -0.155,-0.576 -1.384,-0.747 -2.746,-0.382 -1.362,0.365 -2.34,1.128 -2.185,1.704 0.154,0.576 1.383,0.747 2.744,0.382 1.363,-0.365 2.341,-1.128 2.187,-1.704 m 0.649,-9.655 c 0.063,-0.248 -0.104,-0.231 -0.238,0.026 -0.393,0.754 -0.959,1.489 -1.566,1.886 -2.689,1.757 -4.252,-0.341 -4.161,-1.827 l -0.289,0.076 c -0.557,1.795 1.879,4.337 4.898,1.891 0.706,-0.572 1.167,-1.309 1.356,-2.052 m -5.693,-3.189 c 0.483,0.026 0.888,-0.306 0.939,-0.747 l -1.792,-0.097 c 0.004,0.443 0.371,0.818 0.853,0.844 m -1.75,-0.944 -0.85,-0.046 c -0.034,1.171 1.054,2.175 2.462,2.251 1.409,0.077 2.601,-0.803 2.693,-1.971 l -0.941,-0.051 c 0.115,0.798 -0.562,1.472 -1.763,1.407 -1.169,-0.063 -1.74,-1.048 -1.601,-1.59 m 20.086,52.138 c -0.056,0.389 -0.278,0.931 -0.777,1.042 -0.722,0.166 -1.445,0.555 -0.945,1.333 1.166,0.944 0.833,2.554 1.999,3.554 0.723,3.332 2.278,6.665 2.777,10.274 0.098,0.931 0.222,1.5 -0.11,2.167 0.611,1.666 1.111,4.068 0.943,5.331 -0.499,3.444 1.847,8.081 1.125,11.358 -0.541,3.582 0.333,25.867 -0.069,28.741 -0.347,1.083 -0.055,2.388 0.278,3.055 0.374,2.152 0.666,14.717 -0.445,17.494 0.722,2.611 -0.166,5.054 -0.222,7.831 -0.944,0.778 0.166,2.777 -0.944,3.499 -3.377,1.103 -4.192,3.406 -5.641,0.784 0.431,-2.073 0.119,-3.806 -1.996,-2.283 -1.221,-0.722 -0.805,1.111 -1.86,0 -1.222,-2.944 -0.667,-6.554 -0.778,-9.608 -2.887,-5.776 0.667,-11.608 -0.666,-17.828 -0.278,-0.556 0.666,-2.666 -0.778,-2.166 -2.096,0.555 -1.443,-4.554 -2.444,-6.22 -0.666,-1.278 -1.721,-2.347 -1.332,-4.832 0.61,-4.221 -0.417,-7.859 -1.833,-11.719 -0.889,-3.319 -1.75,-8.095 -0.944,-10.663 0.962,-3.345 -1.44,-5.442 -1.905,-8.163 -0.273,-1.599 -0.707,-1.574 -0.673,0.061 0.052,2.506 0.382,5.019 0.023,7.713 -0.778,7.831 1.999,22.257 1.499,23.604 -0.916,1.319 -0.111,4.498 0.667,6.386 1.222,4.777 1.444,9.664 1.833,14.663 1.144,-2.517 6.329,-2.797 3.776,0.777 0.889,5.332 -1.471,13.51 -0.444,15.218 0.681,0.639 -0.111,1.333 -0.5,1.832 -1.749,2.75 2.444,4.222 1.611,7.332 1.388,0.277 1.611,-1.556 3.166,-0.889 2.028,1.268 2.104,2.305 4.943,1.055 0.943,-0.333 1.055,0.945 1.721,1.444 0.888,0.889 -0.111,1.333 -0.111,2 0.111,0.777 -1.388,1.61 -0.278,2.388 -1.332,0.74 -2.925,1.129 -1.222,2.832 2,0.611 3.86,-1.235 3.888,-2.666 0.445,-2.957 3.18,-6.109 2.777,-7.22 -1.097,-3.373 1.166,-10.108 1.5,-15.328 -0.5,-5.332 1.777,-11.275 -0.945,-15.718 -0.222,-1.943 0.389,-3.72 0,-5.609 -0.791,-2.763 -0.11,-15.051 -0.11,-23.326 0.11,-1.722 -0.833,-4.665 -0.556,-6.942 0.347,-1.875 -1.999,-14.829 -3.61,-22.216 0.056,-0.944 0.264,-2.569 -0.847,-3.179 -0.888,-2.444 -0.986,-4.582 -1.541,-7.193 M 85.396,87.388 c -0.24,0.166 0.256,0.216 0.617,-0.033 0.362,-0.249 1.981,-1.149 2.413,-1.322 0.432,-0.172 0.642,-0.281 0.329,-0.528 -0.473,-0.375 -1.873,-1.82 -2.421,-2.048 -0.547,-0.228 -0.444,0.128 -0.189,0.344 0.625,0.529 0.867,2.476 -0.749,3.587 m -13.823,0.173 c 0.462,2.04 2.826,4.681 6.827,5.357 4.614,0.781 10.173,-0.796 14.578,-1.379 0.251,-0.034 0.322,-0.412 0.166,-0.508 -3.998,-2.474 -8.519,-1.198 -12.746,-0.193 -1.908,0.454 -6.525,0.624 -8.52,-3.44 -0.153,-0.312 -0.383,-0.178 -0.305,0.163 m 2.043,-7.201 c -0.625,-0.646 -1.481,-0.745 -2.259,-0.981 0.556,0.444 0.445,1.444 0.667,2.221 0.333,-0.5 0.981,-1.185 1.592,-1.24 m 6.066,6.351 c 0.202,0.464 0.675,0.705 1.056,0.539 0.381,-0.166 0.526,-0.677 0.324,-1.141 -0.203,-0.464 -0.676,-0.705 -1.057,-0.539 -0.381,0.166 -0.526,0.677 -0.323,1.141 m -4.994,0.725 c -0.449,-0.803 -1.382,-1.533 -1.211,-0.578 0.955,4.254 9.375,3.04 11.219,1.333 -7.474,1.74 -9.841,-0.456 -10.008,-0.755 M 62.786,69.733 c -0.028,-2.457 -0.999,-0.388 -1.444,0.111 0.314,0.817 0.296,1.491 0.18,2.146 -0.443,2.476 -0.653,5.642 2.208,6.963 0.389,-0.556 0.333,-1.222 0.556,-1.777 -1.278,-2.166 -2.333,-4.721 -1.5,-7.443 M 61.27,12.717 c 0.388,0.288 1.345,-1.398 1.132,-1.712 C 60.963,8.885 57.066,6.364 57.843,1.754 57.788,1.81 57.732,1.921 57.621,1.865 54.289,4.642 50.79,1.31 47.735,0.144 46.428,-1.165 45.024,1.085 47.18,2.809 c 2.666,-0.166 6.276,1.25 6.581,2.639 0.333,1.221 2.554,1.277 2.36,3.082 -0.034,1.928 3.387,2.881 5.149,4.187 M 49.623,96.392 c 0.056,-2.333 -2.277,-9.442 -3.332,-10.275 -0.166,1.056 -0.111,2.111 -0.833,2.944 1.388,2.666 2.555,4.887 4.165,7.331 M 0.027,-19.573 c 2.333,-2.054 2.499,-7.219 6.665,-7.053 1.999,-2.388 6.414,-4.804 11.163,-5.054 3.583,-2.249 7.415,-5.342 11.262,-7.521 5.625,-3.185 9.57,-3.021 15.554,5.327 4.677,6.524 7.761,9.783 15.348,8.532 4.958,-0.818 9.574,-2.239 15.707,0.049 4.443,1.166 6.999,-1 11.886,-1.333 5.498,-0.833 12.94,2.694 16.495,2.388 12.327,-2.214 26.509,1.074 27.88,8.387 1.083,2.665 3.277,4.998 5.998,6.553 4.055,1.583 7.775,2.777 10.275,7.609 1.666,-0.333 2.999,-1.111 4.776,-0.445 2.055,-0.333 4.277,-1.277 6.387,-1.832 3.61,-1.361 3.256,-3.653 1.722,-3.775 -1.769,0.074 -4.934,-0.248 -5.534,-0.373 -9.992,-2.076 -11.933,-14.723 -13.849,-18.783 -0.764,-1.617 -10.485,-23.888 -13.221,-30.22 -1.573,-3.64 0.454,-4.136 4.894,-4.371 9.644,-0.509 32.731,-1.721 33.875,-1.127 0.888,-0.055 2.943,0.278 2.499,-1.5 -0.111,-0.694 -1,-0.888 -1.555,-1.166 0.447,-2.329 -2.284,-3.719 -2.425,-5.742 -0.175,-2.495 0.993,-3.19 4.412,-3.448 3.62,-0.274 5.559,0.721 4.792,3.15 -0.54,1.709 -2.314,3.271 -1.614,5.485 -0.778,0.888 -1.667,2.221 -1.833,3.221 8.792,-0.502 20.748,1.45 29.085,2.993 5.128,0.949 3.125,3.185 2.374,5.225 -1.37,3.727 -7.117,20.333 -7.83,22.94 -2.334,6.254 -1.866,13.41 -8.381,19.562 -1.293,1.221 -2.983,2.366 -5.14,3.097 0.277,0.416 1.278,0.611 1.888,0.666 9.675,-4.791 14.225,-15.906 16.106,-21.549 1.416,-4.165 4.776,-3.11 6.11,-7.108 0.777,-2.833 4.309,-10.233 4.901,-11.293 3.048,-5.455 3.253,-5.642 7.997,-2.064 18.469,13.93 46.956,46.848 55.483,85.457 0.665,3.009 2.948,29.146 5.374,37.644 6.982,20.779 1.566,33.427 -5.036,50.914 -2.789,7.386 -4.35,9.995 -8.752,9.558 -3.379,-0.336 -2.786,-3.303 -8.205,-0.657 -3.851,1.499 -13.589,0.999 -18.162,-1.333 -4.282,-2.142 -13.107,-0.111 -14.662,0.555 -5.443,1.204 -11.126,-3.24 -23.437,-2.166 -4.628,1.352 -9.257,1.463 -13.199,1.185 -2.583,0.231 -5.74,-1.685 -5.628,-3.407 -9.665,-5.72 -20.605,-2.443 -22.66,-1.999 1.194,8.358 -3.079,18.273 -9.611,21.579 -7.17,2.554 -13.972,6.804 -22.102,2.525 -2.7,-0.864 -5.542,-2.288 -6.005,0.712 -0.444,2.88 -6.01,8.394 -6.934,9.026 -9.234,6.309 -15.718,4.552 -23.288,15.248 -10.127,14.309 -9.363,16.617 -10.802,37.953 -0.533,7.908 -1.832,5.176 -3.936,0.725 -11.813,-24.983 -5.691,-43.691 7.923,-56.333 -2.999,-2.611 -7.831,-3.055 -9.608,-7.22 -2.444,-4.138 -1.611,-8.609 -3.61,-12.219 -1.833,-2.36 -6.607,-3.295 -9.21,-3.455 -9.791,-0.601 -32.264,4.846 -41.22,27.127 -0.717,1.783 -2.096,1.68 -2.198,-0.846 -1.032,-25.665 0.617,-36.107 38.41,-43.375 1.166,-0.472 3.665,-0.222 2.888,-2.11 -0.666,-1.166 -1.278,-2.666 -2.111,-3.888 C 52.467,100.321 47.565,101.512 43.764,89.116 43.57,87.867 43.097,86.34 42.681,86.784 39.293,88.922 36.46,89.144 42.514,84.118 41.292,80.175 41.654,76.426 38.433,73.204 35.806,70.456 34.311,66.271 32.601,62.236 30.824,58.237 23.492,38.687 19.744,33.744 15.717,28.58 10.108,15 6.969,10.53 4.193,6.864 -1.417,4.92 -2.361,-0.356 c -0.5,-2.027 -0.194,-4.554 -2.666,-8.275 -3.193,-5.61 2.333,-7.831 5.054,-10.942" style="fill:#231f20;fill-opacity:1;fill-rule:nonzero;stroke:none;stroke-width:2.29214048" id="path382" inkscape:connector-curvature="0"/>
        </g>
        <g style="stroke-width:2.29214048" id="g384" transform="translate(1523.9082,1189.972)">
          <path d="m 0,0 c 1.787,-2.444 3.112,-5.18 3.777,-8.383 0.117,-0.558 0.677,-0.714 0.677,-0.128 v 1.742 c -0.39,2.741 1.315,2.29 3.055,-0.444 0.12,-0.656 0.232,-1.354 0.387,-2.015 0.201,-0.852 1.432,-0.631 1.534,-0.241 0.307,1.169 0.911,2.283 0.078,3.366 0.111,1.944 -0.999,3.777 -0.778,5.999 0.445,1.444 2.888,1.388 2.944,3.165 0.5,0.222 1.333,0.055 1.444,0.667 -0.778,0.777 -0.611,0.999 -1.166,1.999 1.333,2.11 0.056,4.054 0.111,6.387 2.777,1.555 -1.333,4.165 0.277,6.665 0.556,0.277 1.944,0.222 2,0.444 1.222,2.721 3.554,-0.444 4.276,-1.611 0.445,-3.888 -0.555,-7.109 -1.332,-10.941 0.166,-0.389 1.777,-2.777 1.832,-4.11 1.333,-2.388 -1.666,-3.554 -1.832,-5.887 1.165,-1.055 -1,-1.777 -1.334,-2.555 0.278,-2.11 -1.277,-3.721 -2.443,-5.165 0,-0.335 0.19,-2.796 -0.604,-4.361 -0.909,-1.794 -3.743,-3.219 -5.117,-0.47 -0.499,1.499 -0.876,5.131 -0.92,5.419 -0.102,0.668 -0.649,0.509 -0.801,-0.095 -0.153,-0.604 -0.223,-5.269 -1.889,-5.824 -0.999,0.721 -0.722,2.054 -1.166,3.054 C 2.734,-9.091 1.887,-4.784 -0.573,-1.788 -2.019,-0.026 -1.303,1.782 0,0" style="fill:#231f20;fill-opacity:1;fill-rule:nonzero;stroke:none;stroke-width:2.29214048" id="path386" inkscape:connector-curvature="0"/>
        </g>
      </g>
    </g>
  </g></svg>
