<?xml version='1.0' encoding='UTF-8'?>
<!-- Created with Inkscape (http://www.inkscape.org/) and export_objects.py -->
<svg xmlns:cc="http://creativecommons.org/ns#" xmlns:dc="http://purl.org/dc/elements/1.1/" xmlns:inkscape="http://www.inkscape.org/namespaces/inkscape" xmlns:rdf="http://www.w3.org/1999/02/22-rdf-syntax-ns#" xmlns:sodipodi="http://sodipodi.sourceforge.net/DTD/sodipodi-0.dtd" xmlns:xlink="http://www.w3.org/1999/xlink" xmlns="http://www.w3.org/2000/svg" version="1.1" width="50.8mm" height="50.8mm" viewBox="0 0 50.8 50.8" id="svg1654" sodipodi:docname="cow-head-1.svg"><sodipodi:namedview id="base" pagecolor="#ffffff" bordercolor="#666666" borderopacity="1.0" inkscape:pageopacity="0.0" inkscape:pageshadow="2" inkscape:zoom="0.91591534" inkscape:cx="473.99275" inkscape:cy="850.28571" inkscape:document-units="mm" inkscape:current-layer="layer1" showgrid="true" inkscape:window-width="1280" inkscape:window-height="940" inkscape:window-x="1909" inkscape:window-y="43" inkscape:window-maximized="1">
    <inkscape:grid type="xygrid" id="grid2271"/>
  </sodipodi:namedview>
  <metadata id="metadata1651">
    <rdf:RDF>
      <cc:Work rdf:about="">
        <dc:format>image/svg+xml</dc:format>
        <dc:type rdf:resource="http://purl.org/dc/dcmitype/StillImage"/>
      </cc:Work>
    </rdf:RDF>
  </metadata>
  <g inkscape:groupmode="layer" inkscape:label="cow-head-" transform="matrix(1.000000,0.000000,0.000000,1.000000,-127.000000,-81.099999)"><g id="g2304" inkscape:label="1">
      <rect y="81.099998" x="127" height="50.799999" width="50.799999" id="rect2276" style="opacity:1;fill:none;fill-opacity:1;stroke:none;stroke-width:0.35277778;stroke-linecap:butt;stroke-linejoin:miter;stroke-miterlimit:47.14606857;stroke-dasharray:none;stroke-dashoffset:0;stroke-opacity:1;paint-order:markers fill stroke"/>
      <g style="stroke-width:2.50531697" id="g1640" transform="matrix(0.14081164,0,0,-0.14081164,-1.1190237,269.21067)">
        <g style="stroke-width:2.50531697" id="g352" transform="translate(1101.3418,1050.7047)">
          <path d="m 0,0 c -4.432,6.742 -1.859,25.119 11.284,33.438 2.031,1.303 5.365,4.613 5.165,5.315 -1.154,1.153 -2.131,0.626 -3.61,-0.251 -3.21,-2.156 -14.392,-10.28 -15.294,-10.931 0.225,5.54 14.943,12.135 19.756,13.939 2.658,1.129 5.867,2.307 6.118,5.667 -0.075,1.354 -1.755,3.059 -2.256,3.961 -0.955,3.218 -0.164,5.987 0.561,8.765 0.739,2.832 -0.412,6.498 -2.768,9.989 -0.602,0.753 -3.159,18.153 -3.209,18.905 -0.051,1.654 -2.858,0.25 -3.259,-0.452 C 11.685,82.328 10.883,76.211 12.237,69.892 14.336,60.224 11.554,49.893 9.858,46.498 6.385,39.545 0.897,38.743 -3.354,44.397 c -3.013,3.257 -7.916,18.121 -8.866,20.074 -0.921,1.894 -11.27,21.542 -11.933,22.804 -4.371,8.326 -8.473,18.446 -8.038,25.24 4.262,-3.936 1.906,-6.669 3.61,-9.528 4.413,-1.93 5.291,3.085 5.215,5.817 -0.301,3.36 0.752,6.82 0.953,10.23 -1.325,3.808 2.056,6.117 3.961,8.875 1.43,1.981 5.818,-0.652 8.174,-1.555 5.541,-1.103 9.778,3.31 10.129,4.313 -2.256,5.817 0.201,11.583 -0.25,17.35 -1.906,3.109 0.4,8.274 -2.056,11.333 -1.287,1.086 -9.277,10.68 -11.885,12.636 -1.93,1.655 -10.455,6.92 -8.674,8.625 5.49,0.426 11.948,-10.726 13.201,-11.078 1.816,-0.28 3.246,-0.957 3.497,0.046 -1.004,2.457 -7.622,10.079 -10.08,11.533 -0.952,0.652 -7.897,0.552 -7.571,1.554 0.953,1.555 3.46,2.308 4.412,4.113 2.533,0.276 10.029,-6.719 11.935,-9.779 1.429,-3.026 6.854,-14.438 7.922,-15.995 1.981,-2.533 2.232,-11.183 3.308,-13.121 2.258,-3.728 1.306,-8.392 3.462,-9.494 1.605,-0.351 3.812,-0.314 5.065,0.35 1.554,0.502 0.852,7.722 0.451,8.575 -1.404,4.889 3.61,5.391 4.563,6.018 2.054,0.817 2.557,-2.458 4.563,-1.505 1.254,0.502 2.357,0.702 3.761,0.401 2.256,-0.652 2.256,-5.917 4.463,-7.722 0.927,-0.451 1.805,3.685 2.657,1.705 0.652,-1.956 0.527,-6.168 1.738,-7.64 3.929,-5.423 7.266,-23.273 8.365,-35.516 0.183,-2.043 2.383,-26.294 2.534,-29.302 0.574,-5.92 3.405,-10.905 4.791,-16.703 2.028,-9.773 5.037,-6.514 6.742,-8.57 1.303,-1.956 -10.009,-5.808 -11.609,-5.967 -4.209,-0.42 -5.841,1.813 -13.079,3.727 C 26.456,47.726 16.03,37.552 17.552,32.987 14.744,32.585 4.443,30.524 3.926,15.064 3.342,-2.373 15.808,-14.64 29.507,-10.965 35.303,-9.41 42.518,-2.4 43.408,2.919 c 0.764,4.569 4.447,5.246 6.14,-0.431 2.575,-8.638 12.849,-10.316 20.624,-7.518 8.003,2.881 8.834,9.874 10.698,16.959 2.329,8.856 3.439,10.43 1.708,19.917 -1.174,6.43 -8.307,8.751 -11.472,7.96 -1.905,2.006 0.752,3.585 3.094,2.658 C 89.629,35.845 86.052,25.283 82.514,7.914 79.85,-5.404 73.684,-6.169 60.841,-8.578 56.313,-9.26 47.375,-5.56 45.657,-5.606 40.383,-5.748 37.366,-9.226 34.358,-10.603 26.339,-14.274 11.819,-17.977 0,0 m 69.842,136.211 c -0.69,0.757 -0.577,2.855 1.458,3.63 2.387,0.907 6.018,1.524 8.09,1.822 3.261,0.466 4.695,1.583 6.358,3.246 1.153,-1.167 -2.936,-7.593 -4.227,-8.638 -1.267,-1.027 -9.139,-2.847 -11.679,-0.06 m 16.157,26.348 c -0.853,0.802 0.902,1.555 2.306,0.15 0.402,-1.604 -0.601,-3.008 -1.454,-4.111 -0.451,1.254 0.201,3.008 -0.852,3.961 m -1.906,44.177 c -0.576,-0.753 4.313,-5.015 2.859,-6.72 -1.154,0.953 -1.956,2.207 -2.608,3.461 -0.752,2.406 -4.112,2.005 -5.315,3.76 -0.953,0.752 -0.903,2.457 -2.658,2.056 -2.447,1.566 2.476,6.532 4.539,8.063 6.359,4.724 18.928,5.577 25.448,5.375 10.583,-0.587 23.443,-10.379 28.909,-17.421 5.635,-7.258 12.431,-15.699 4.701,-23.684 -4.874,-5.034 -25.422,-17.67 -35.165,-17.011 -1.981,0.25 -0.501,1.103 1.304,2.156 3.485,1.479 18.904,6.744 22.013,9.177 3.06,2.497 6.994,4.54 9.204,8.001 6.061,9.493 -3.843,20.898 -8.798,25.675 -3.05,2.94 -14.49,9.648 -17.606,9.648 -0.551,-0.652 -1.203,-1.304 -1.203,-2.156 0.126,-2.859 -4.513,0.15 -5.064,-2.557 0.501,-0.402 8.925,-5.617 10.229,-9.729 -2.031,-0.225 -8.023,5.516 -9.477,5.667 -1.806,0.15 -7.472,1.128 -5.667,-1.003 1.204,-1.505 -0.551,-1.204 -0.501,-2.006 0.501,-2.156 3.109,-1.505 3.61,-3.61 -0.902,-1.404 -5.165,2.407 -7.07,3.109 -0.551,0.351 -3.109,-0.627 -1.605,-2.407 1.128,-1.73 -0.761,-2.234 4.112,-5.416 2.357,-1.905 3.034,-6.343 2.658,-7.32 -2.056,2.155 -2.507,5.716 -5.917,6.618 -1.304,1.906 -4.714,1.955 -5.265,4.564 0.366,3.569 -4.344,4.754 -5.667,3.71 m -10.981,-9.728 c 3.76,-4.187 4.061,-8.475 3.409,-8.675 -1.403,1.304 -2.206,4.813 -4.011,6.97 -0.15,2.808 -7.672,6.92 -6.368,8.775 0.501,-0.1 5.365,-4.914 6.97,-7.07 M 23.92,39.004 c 2.558,1.755 16.021,-4.864 19.732,-3.887 4.463,1.655 13.965,6.194 15.519,5.19 1.305,-0.952 1.806,-2.557 2.508,-3.711 -1.203,-2.406 -8.374,-0.977 -13.374,-7.174 -3.084,-3.243 -6.694,0.152 -9.43,1.119 -1.951,0.689 -12.021,3.449 -15.707,3.047 -1.454,0.402 -0.552,3.912 0.752,5.416 m 48.39,87.451 c 0.676,1.053 1.679,0.677 0.802,-0.451 -1.705,-3.611 -3.51,-6.518 -4.814,-9.879 -1.329,-3.158 -2.708,-9.426 -3.61,-11.432 -2.106,2.632 3.911,16.497 7.622,21.762 m -8.324,40.116 c 0.977,1.053 2.657,7.671 4.713,9.126 1.06,1.303 2.031,2.958 3.109,1.705 -1.103,-4.012 -3.911,-6.92 -5.516,-10.38 -2.006,-4.614 -4.212,-8.424 -5.064,-14.191 -0.276,-2.131 -1.655,-6.519 -3.009,-6.97 -0.702,2.808 -0.802,5.566 -0.351,8.674 0.652,7.372 1.404,15.646 5.867,21.863 1.003,1.405 4.237,4.639 4.964,1.706 -2.758,-1.555 -8.875,-14.617 -4.713,-11.533 m 10.831,-1.204 c 1.203,1.053 7.947,8.525 9.727,7.672 1.254,-1.605 2.307,-4.112 2.558,-6.468 -0.251,-1.053 -6.845,-0.076 -12.035,-5.667 -2.055,-2.808 -3.159,-12.385 -2.306,-13.99 -0.351,-0.501 -0.652,-1.304 -1.204,-1.554 -0.707,6.932 -1.677,14.103 3.26,20.007 m 4.713,-12.034 c -2.94,-0.858 -4.347,2.469 -2.206,4.813 1.412,1.266 2.645,0.662 2.898,-0.492 0.137,-0.63 -0.031,-3.244 -0.692,-4.321 m 5.014,-4.463 c 0.502,-5.767 -6.167,-4.112 -8.775,-5.165 -2.031,-0.903 -4.412,-2.658 -4.212,-1.104 1.053,1.204 1.906,1.655 3.009,2.056 2.206,1.605 5.942,1.028 9.978,4.213 m -17.199,-7.121 c 1.129,-0.576 0.05,-6.018 -1.053,-6.018 -0.852,1.806 -2.356,2.458 -2.407,4.714 0.502,4.614 0.702,12.136 1.304,14.693 0.401,1.554 6.569,14.892 7.421,19.004 0.607,3.86 1.705,12.135 0.753,15.394 4.262,-3.61 1.855,-17.4 -0.703,-20.358 -1.153,-5.616 -4.513,-9.678 -4.964,-15.645 -1.605,-3.309 -2.607,-10.731 -0.351,-11.784 M 12.738,5.758 C 13.392,4.678 13.165,4.154 12.062,4.154 9.008,7.367 6.424,14.281 8.125,18.896 c 3.04,9.842 5.368,10.282 8.675,11.432 2.758,1.054 6.519,-9.878 9.026,-11.933 2.708,-1.756 6.669,-0.828 9.427,-3.21 1.444,-1.42 5.27,-3.374 7.772,-2.758 1.357,0.334 1.63,3.26 3.611,3.46 2.783,0.176 2.01,-3.336 3.16,-3.537 1.937,-0.338 5.83,3.25 7.215,5.748 0.523,0.942 4.066,5.311 6.473,6.815 3.159,1.505 4.112,9.077 6.452,10.407 7.445,3.59 9.764,-3.429 9.662,-12.988 C 79.53,15.914 72.573,1.999 64.487,2.499 c -4.663,1.153 -2.532,13.439 -1.354,14.09 1.329,-0.777 0.326,-8.274 0.709,-8.963 2.145,-3.869 6.552,0.976 9.38,4 4.195,4.486 3.681,14.022 -0.21,19.405 C 71.733,32.36 70.605,28.977 70.354,27.42 69.351,24.462 59.397,19.021 57.693,15.436 56.389,13.179 52.653,11.224 50.296,9.92 49.243,9.519 46.912,11.926 44.229,9.719 41.646,8.29 36.607,13.381 35.805,12.628 33.047,9.97 37.384,5.783 33.514,-0.621 29.647,-6.343 14.243,0.817 14.042,4.103 c 0.401,0.677 8.481,-2.917 10.33,-3.61 7.57,-1.925 9.636,5.544 8.675,9.477 -0.928,2.207 -6.569,1.204 -9.123,4.304 C 23.24,15.213 17.953,28.473 15.496,28.273 13.852,27.944 13.091,26.776 12.494,25.44 10.945,21.978 7.975,12.241 12.738,5.758 m 50.395,175.454 c -2.006,-1.554 -2.457,-4.512 -3.36,-6.819 -2.507,-2.257 -1.605,-6.469 -2.658,-9.427 -0.601,-1.655 -0.3,-3.21 -0.701,-4.914 0.602,-4.614 -2.558,-8.124 -1.956,-12.737 0.401,-1.353 0.301,-3.059 0.151,-4.462 -2.934,1.454 -1.304,20.007 -0.251,23.216 0.802,4.463 4.839,19.356 9.728,18.302 1.956,-0.852 -0.451,-2.256 -0.953,-3.159 m -3.46,5.567 c -1.354,-0.452 -1.605,-2.107 -2.206,-3.26 -0.552,-0.802 -3.661,-11.257 -4.664,-11.784 -2.056,-1.554 -1.253,-4.663 -2.056,-6.769 -0.802,-2.508 -1.353,-13.389 -1.554,-15.495 -1.78,0.476 -2.769,6.366 -1.705,11.684 -1.855,0.652 -0.2,3.961 -2.256,5.416 0.161,3.182 -1.815,7.239 -0.855,10.375 0.235,0.768 0.403,2.085 -0.223,3.088 -0.828,0.878 3.008,7.647 3.685,8.8 0.452,1.254 1.955,0.903 2.658,1.906 0.852,1.354 -0.452,4.463 1.103,4.714 2.708,0.25 5.967,4.638 8.775,3.109 0.752,-0.352 0.577,-3.235 -0.852,-4.564 -2.357,-2.758 -4.814,-6.468 -7.472,-9.176 -1.103,-1.404 -3.159,-3.159 -3.961,-5.266 -1.204,-2.657 -1.805,-9.677 0.25,-9.777 1.084,0.361 0.327,3.108 1.9,5.237 2.156,2.557 0.758,5.294 3.616,7.299 0.602,0.401 3.661,6.819 6.018,7.22 2.081,-0.225 1.078,-2.231 -0.201,-2.757 m -10.48,9.978 c -0.401,-2.958 -2.457,-5.666 -3.51,-8.073 -1.504,-3.159 -1.956,-5.717 -2.658,-9.127 -0.551,-0.3 -1.404,-2.707 -1.805,-0.601 0.551,1.855 0.551,4.062 0.502,6.018 -1.079,8.098 2.682,9.978 2.406,11.783 -0.351,1.304 0.652,4.338 2.658,4.463 2.357,0.301 2.006,2.959 4.212,3.46 -0.05,0.602 1.555,1.654 0,1.705 -2.406,-1.053 -5.014,-0.201 -6.619,-2.657 -0.977,0 -6.368,6.393 -5.064,8.072 1.303,0.502 2.657,1.054 2.908,2.658 0.551,1.053 3.936,-1.329 4.663,0.953 -0.1,1.103 -3.71,1.855 -3.008,3.51 1.103,0.602 5.666,1.354 6.268,0.802 0.652,-1.078 -2.758,-2.156 -0.352,-2.858 0.151,-1.454 1.956,-0.602 2.257,-1.705 0,-1.529 -3.76,-4.914 -1.404,-6.017 1.028,-0.526 3.26,-1.154 3.811,-1.555 1.981,-0.852 -3.46,-8.775 -5.265,-10.831 M 33.297,168.476 c -1.304,0.652 -3.309,-12.887 -4.563,-13.941 -2.005,-0.826 -1.88,3.561 -4.112,5.166 -0.902,0.777 -1.504,5.265 -0.953,8.073 -0.1,1.504 4.814,3.61 5.517,7.571 0.175,3.06 1.604,3.16 2.657,5.065 0.903,0.752 1.906,-2.507 3.682,-0.904 1.043,0.81 1.944,1.573 2.837,0.051 0.652,-1.654 1.905,-3.534 2.407,-5.315 1.354,-4.262 3.008,-23.793 -0.251,-24.67 -2.106,-0.101 -3.66,1.855 -4.814,3.51 -2.056,4.062 -0.752,8.374 -1.454,11.081 -1.604,1.505 1.203,3.21 -0.953,4.313 M 1.549,166.46 c -2.055,1.504 -1.447,2.116 -2.049,4.523 -1.203,1.655 -2.056,3.109 -3.009,4.814 -1.755,4.964 -10.881,10.38 -9.878,12.761 2.006,4.388 9.252,-8.098 13.664,-10.655 1.404,-2.407 4.388,-11.283 4.488,-13.389 -1.228,-0.777 -2.983,0.101 -3.216,1.946 m 9.986,-1.494 c -0.251,0.351 -1.806,1.605 -2.407,1.203 -3.084,2.081 -0.702,4.589 0.1,5.666 2.332,1.68 4.864,-3.811 6.118,-5.164 0.978,-1.304 0.1,-5.617 -0.703,-6.268 -2.155,0.351 -2.256,3.009 -3.108,4.563 m -7.622,-5.767 c -0.151,1.254 -0.502,2.908 1.353,2.658 1.304,-0.101 1.204,1.555 2.056,1.905 2.107,0.226 4.689,-4.897 6.369,-6.017 1.128,-1.153 -0.878,-2.658 -3.761,-1.654 -1.755,0.751 -2.507,-2.633 -4.664,-1.204 -1.052,1.052 -0.952,2.808 -1.453,4.212 0.05,0 0.1,0.1 0.1,0.1 m 46.935,64.134 c -1.179,-0.802 -5.441,1.079 -7.422,1.004 -0.852,-0.451 -1.805,-0.853 -1.604,-2.056 -1.455,0.25 -5.265,-0.251 -5.015,-0.953 0.051,-0.752 2.157,-3.31 1.906,-4.965 -0.301,-0.702 -2.808,-3.71 -3.61,-4.462 -1.104,-1.028 1.253,-2.106 0.601,-3.611 -1.078,-2.181 4.463,-4.813 4.463,-6.97 0.351,-1.855 -1.655,-2.006 -3.009,-2.156 -2.407,-0.325 0.502,-3.259 -0.601,-4.563 -1.179,-1.404 -4.363,-2.407 -4.112,-3.159 0.928,-3.259 -3.836,-1.505 -6.018,-3.711 -2.356,-1.404 -0.902,-4.764 -1.654,-6.87 -2.056,-0.801 -0.151,-3.108 -0.752,-4.663 -1.204,-1.204 -2.808,-1.304 -4.062,-2.406 -1.03,-1.031 1.254,-4.163 -0.752,-4.113 -3.636,-0.05 -5.14,7.095 -8.425,5.917 -2.356,-0.952 -1.228,3.937 -7.922,4.563 -2.457,0.502 -0.752,4.564 -2.156,6.62 0.451,1.654 1.103,3.86 0.802,5.666 -0.602,3.259 -3.861,-0.151 -4.663,0.1 -1.054,0.2 -1.455,4.287 -6.369,3.611 -2.858,0.551 -1.254,4.412 -1.604,6.719 -0.376,1.855 -1.881,4.362 -2.859,4.713 -1.153,0.602 -4.036,2.784 -4.463,5.666 0.051,2.383 2.157,3.059 3.511,2.758 1.604,0.301 0.251,2.558 1.554,2.909 1.63,0.602 2.257,1.655 6.619,-0.251 1.154,0.151 0.852,1.504 1.053,2.157 2.708,0.802 2.507,-2.357 4.965,-2.508 1.78,-0.05 2.532,2.457 3.359,4.212 1.931,2.382 3.184,-5.516 6.719,-5.415 0.727,3.786 2.984,0.401 3.762,1.053 0.902,1.103 0.852,7.747 3.108,7.822 1.379,-0.075 2.508,-6.845 5.767,-7.321 0.852,0.703 -1.379,7.371 1.203,6.468 0.752,-0.3 1.204,-1.554 1.956,-1.654 1.153,0.05 3.234,3.435 4.062,-2.156 0.676,-2.307 3.435,-0.051 3.51,2.406 -0.151,1.505 -1.755,2.859 -2.056,4.564 -0.402,2.006 2.357,4.137 4.813,3.259 2.183,-1.282 4.413,-1.604 5.767,-0.752 2.056,1.379 2.959,-1.003 4.112,-1.805 0.326,-0.952 -3.561,-0.702 -2.307,-2.081 2.708,-1.103 8.274,-1.253 7.823,-3.586 M -21.46,200.368 c -0.301,-0.803 2.181,-2.407 0.351,-3.51 -0.746,-1.176 -8.324,-9.052 -12.987,-12.386 -1.605,1.204 0.501,3.41 0.35,5.165 -0.451,2.432 3.736,1.178 3.686,2.683 -0.351,1.002 3.636,1.253 1.479,3.585 -1.303,-0.201 -2.933,1.078 -3.736,1.93 -0.125,1.756 3.009,2.257 0.527,3.485 -2.869,1.196 2.733,7.297 3.209,10.23 0.552,2.406 2.056,3.861 3.159,5.917 2.999,4.689 1.129,11.708 3.26,10.48 3.51,-2.532 -0.802,-11.132 -1.605,-12.286 -1.103,-2.506 -2.056,-4.763 -3.008,-7.371 1.203,-1.504 2.808,0.853 4.362,0.401 0.702,-0.3 -0.376,-4.337 1.454,-4.963 2.558,-1.63 -0.25,-2.458 -0.501,-3.36 m -20.81,-5.316 c -4.839,-0.1 -11.483,5.542 -12.536,7.823 11.458,-2.783 17.199,0.952 18.202,1.805 4.34,-1.085 -3.905,-9.312 -5.666,-9.628 m -15.996,-2.607 c -1.755,0.125 1.504,-11.032 -0.401,-11.233 -1.103,0.327 -6.494,19.382 -8.525,15.044 -0.25,-0.702 2.031,-7.321 -0.35,-7.923 -0.502,3.309 -1.004,6.168 -2.658,8.775 -1.555,0 -2.156,-1.303 -3.36,-1.654 -0.878,0.25 0.125,3.385 -0.351,4.562 -0.902,1.355 -1.755,0.101 -2.407,-0.35 -1.379,-0.201 -0.451,3.71 -2.407,3.109 -1.504,-1.455 -1.003,1.604 -2.406,1.704 -1.354,0.452 -1.956,-0.852 -2.558,-1.604 -0.802,0.702 -1.204,2.105 -2.407,2.407 -1.605,0.451 -2.257,-2.357 -3.46,-0.602 -0.852,0.201 -1.955,0.752 -2.658,-0.1 -1.053,-1.204 -4.212,-0.953 -7.12,-1.455 -5.441,-1.404 -16.125,-11.095 -18.496,-13.041 -7.725,-6.338 -6.011,-8.761 -0.988,-16.194 6.26,-9.264 23.121,-20.831 29.386,-22.37 9.747,-2.395 15.997,-0.444 27.405,4.922 0.251,-2.859 -12.65,-8.146 -21.438,-7.809 -10.934,0.419 -28.031,9.513 -37.76,23.902 -5.271,7.798 -7.246,10.403 -0.868,17.284 9.796,10.568 30.656,25.05 49.153,21.394 13.546,-3.976 11.038,-11.748 14.424,-13.503 1.378,-1.504 3.008,-5.265 0.25,-5.265 m 14.893,-36.956 c 3.938,4.069 10.645,1.136 14.316,-1.279 1.128,-0.752 -0.251,-1.755 -1.128,-0.877 -3.605,2.832 -12.263,2.993 -14.141,-2.207 -0.777,-1.554 -5.516,-3.41 -5.766,-2.858 -0.778,2.557 5.766,7.17 6.719,7.221 m 7.22,-9.879 c -0.918,1.287 0,7.02 3.761,6.519 0.577,-3.185 -2.181,-5.942 -3.761,-6.519 m 14.091,-6.017 c -0.451,-0.552 -3.46,-0.552 -4.814,0 -4.229,-6.043 -15.694,-3.519 -15.996,0.702 0.903,1.128 4.167,-2.535 8.179,-2.786 3.783,0.311 5.461,3.188 7.817,3.789 2.15,0.164 5.316,0.15 4.814,-1.705 m -4.312,3.36 c -1.806,-0.151 -1.505,4.362 -1.806,6.017 2.006,-1.028 2.809,-3.761 1.806,-6.017 m 19.004,-8.074 c 1.505,-0.476 1.555,-2.808 2.407,-4.212 -3.267,-1.11 -12.11,0.692 -13.739,4.814 -0.828,1.806 -0.702,5.441 -2.507,7.12 -1.455,0.903 -2.157,2.959 -2.909,4.563 -0.451,1.054 -3.811,4.363 -4.563,5.667 2.965,2.441 4.741,-5.726 7.647,-8.148 1.128,-0.502 2.783,-1.73 3.285,-2.332 2.106,-2.808 4.738,-7.697 10.379,-7.472 m -21.411,41.069 c 0.351,1.83 5.24,1.454 7.572,-1.455 2.206,-1.955 4.462,-3.861 6.117,-6.518 0.802,-0.853 9.352,-10.129 7.121,-13.841 -1.705,1.906 -2.909,4.363 -4.213,6.419 -3.309,3.761 -5.315,8.826 -9.878,11.031 -2.156,0.853 -5.215,3.21 -6.719,4.364 m -2.207,-3.962 c 0.677,2.031 4.313,-2.357 6.419,-2.808 2.658,-0.552 5.566,-5.064 7.421,-8.274 1.655,-3.911 4.964,-6.97 5.215,-11.583 -0.902,-1.956 -1.153,-4.463 -1.955,-6.218 -1.455,1.855 -2.558,4.112 -3.109,6.469 -2.006,4.061 -2.909,9.527 -7.121,11.433 -3.811,2.407 -4.613,7.421 -6.87,10.981 m -2.607,-12.887 c -10.004,2.632 -13.037,-3.059 -14.341,-3.16 -2.683,3.536 0.401,7.121 1.454,8.425 1.755,1.504 14.033,-2.017 12.887,-5.265 m -6.619,12.285 c 2.307,0.501 4.714,1.154 6.719,-0.15 1.053,-2.206 1.755,-4.663 2.658,-6.87 2.206,-4.112 6.017,-6.268 8.424,-9.728 0.602,-0.953 3.51,-6.193 2.758,-7.722 -0.949,0.988 -6.476,8.509 -10.342,12.882 -1.236,1.399 -6.331,6.699 -8.913,7.126 -1.43,0.325 -2.157,2.858 -1.304,4.462 m -7.472,-25.523 c 0.326,1.078 1.705,1.328 1.805,-0.251 0.151,-4.437 -0.986,-6.936 4.263,-10.674 7.797,-3.667 12.386,1.699 17.5,1.748 2.081,-0.275 -1.053,-3.46 -2.657,-3.961 -3.034,-0.577 -6.419,-5.817 -7.923,-6.719 -1.505,-0.502 -0.752,2.507 -2.658,2.657 -4.749,0.149 -12.099,11.669 -10.33,17.2 M 1.853,-12.758 c 11.509,-5.454 29.871,-6.086 42.738,0.11 0.461,0.221 0.909,0.454 1.343,0.705 3.455,2.229 6.263,1.389 8.363,0.767 7.098,-2.102 26.051,2.74 31.578,12.084 2.327,3.934 6.447,7.604 5.797,12.615 -1.789,13.79 -2.118,23.35 -10.019,31.138 -4.282,4.222 -5.26,39.004 -3.452,50.493 0.665,4.225 5.806,30.685 6.318,32.826 0.68,2.846 8.967,18.849 4.037,25.553 -0.276,3.059 4.739,5.19 3.46,11.332 0.401,1.38 7.749,-4.277 17.2,-2.256 8.257,1.766 26.336,10.723 33.823,19.076 10.775,12.021 -4.167,27.768 -17.058,36.16 -11.957,7.785 -29.101,10.655 -39.81,5.137 -6.56,-3.381 -14.746,-5.974 -21.71,-5.224 -4.136,0.386 -7.295,6.804 -7.74,7.575 -0.989,1.714 -6.979,12.7 -8.965,15.231 -1.287,1.416 -3.212,3.829 -5.739,4.381 -2.492,0.545 -4.219,1.095 -6.212,2.859 -3.31,2.307 -10.265,-0.054 -11.082,-0.205 -1.962,-0.365 -3.95,-0.797 -4.162,-3.205 -10.271,2.568 -14.056,0.544 -17.241,0.519 -2.858,-0.101 -4.221,-4.931 -7.079,-4.58 -1.855,0.501 -4.614,3.008 -9.377,0.351 -1.63,-0.853 -2.207,-1.756 -3.26,-2.758 -1.379,-0.853 -4.011,0.275 -7.972,-2.658 -3.21,-2.407 -4.363,-7.121 -4.814,-11.182 -1.419,-6.986 -4.009,-13.471 -7.606,-16.498 -7.854,-6.61 -12.999,-3.143 -22.364,1.395 -13.511,6.547 -25.252,6.715 -36.75,2.215 -11.443,-4.478 -21.338,-13.7 -28.998,-21.191 -4.475,-4.377 -5.937,-9.735 -1.845,-17.045 7.48,-13.359 40.228,-31.502 51.169,-28.367 6.257,1.795 14.454,6.875 21.021,7.885 1.153,-0.602 4.162,-13.377 5.165,-16.171 1.768,-4.919 6.769,-13.665 9.221,-17.308 1.852,-3.712 6.724,-28.349 8.609,-33.529 2.19,-5.7 9.899,-21.597 15.014,-27.012 0.745,-6.254 3.988,-11.961 7.101,-17.544 2.557,-4.587 5.018,-14.405 3.134,-18.623 -2.333,-5.223 -4.161,-29.21 8.164,-35.051" style="fill:#231f20;fill-opacity:1;fill-rule:nonzero;stroke:none;stroke-width:2.50531697" id="path354" inkscape:connector-curvature="0"/>
        </g>
        <g style="stroke-width:2.50531697" id="g356" transform="translate(1113.8293,1147.8258)">
          <path d="m 0,0 c 0.652,-1.705 0.251,-2.908 0.351,-4.814 -0.501,-0.602 -1.454,-0.952 -2.156,-0.952 -1.204,2.757 -1.053,5.715 -2.407,8.273 -0.251,4.663 -1.655,8.875 -3.51,12.887 -0.497,2.253 -3.29,11.249 -3.711,19.606 -0.301,2.056 -1.529,7.297 2.156,6.97 2.257,-4.312 3.36,-9.778 8.174,-12.385 C 1.078,28.632 -1.705,23.843 0.2,22.991 2.583,20.233 0.501,15.294 2.156,10.931 3.209,9.076 -1.554,4.062 0,0" style="fill:#231f20;fill-opacity:1;fill-rule:nonzero;stroke:none;stroke-width:2.50531697" id="path358" inkscape:connector-curvature="0"/>
        </g>
        <g style="stroke-width:2.50531697" id="g360" transform="translate(1003.6685,1120.7335)">
          <path d="M 0,0 C 0.274,2.968 0.261,9.756 0.746,12.5 1.877,9.181 4.546,7.108 6.343,4.431 11.619,-3.437 10.317,-19.999 5.46,-25.008 0.988,-15.72 0.539,-11.116 0.395,-5.39 0.374,-4.564 -0.103,-1.124 0,0 m -36.661,52.014 c 1.303,-1.505 3.259,-3.109 3.46,-5.316 0.526,-5.892 17.199,-14.541 20.007,-19.857 6.453,-14.675 5.733,-17.617 4.814,-30.788 -0.05,-3.209 -2.307,-14.666 -3.36,-18.554 -4.638,-16.727 7.446,-36.144 10.894,-40.967 14.024,-19.617 27.017,-26.647 43.418,-35.307 18.202,-9.611 38.682,-11.797 53.639,-9.709 9.535,1.331 10.515,15.781 15.002,19.793 -2.983,4.011 -3.763,0.063 -6.719,0.852 -5.345,1.363 -13.291,4.196 -16.651,20.092 -1.542,7.301 -0.032,10.207 1.586,17.693 2.661,12.307 -7.501,28.257 -9.906,34.699 -0.231,0.62 -3.135,9.152 -6.669,5.391 0.802,-1.505 0.902,-3.461 0.852,-5.215 0.05,-1.681 -1.755,-3.009 -2.909,-1.404 -0.35,3.409 -2.356,6.167 -1.805,9.978 -0.652,1.655 -0.2,4.162 -2.055,4.915 -3.26,-0.853 -0.402,-4.464 -0.602,-6.72 -0.251,-1.605 -0.05,-2.707 -0.1,-4.212 -0.628,-1.605 -1.38,-0.853 -1.705,0.852 -1.806,5.917 -3.611,12.687 -2.157,19.256 -0.501,6.469 -3.961,12.185 -5.917,18.152 -1.554,4.814 -8.373,21.562 -9.377,22.364 -0.902,-0.1 -1.905,-0.301 -2.056,-1.404 2.257,-3.159 6.118,-13.689 6.419,-15.444 1.855,-4.914 3.661,-9.527 4.212,-15.044 0.101,-3.159 2.181,-9.777 -0.401,-9.628 -0.05,2.558 -1.103,9.478 -2.006,9.879 -1.053,0 -2.507,0 -2.306,-1.555 0.554,-5.214 1.629,-13.488 0.852,-16.748 -0.401,-0.952 -2.908,2.658 -3.159,4.012 -1.304,3.811 -1.805,8.775 -0.201,12.637 0.301,4.713 -3.761,15.569 -5.666,16.698 -1.103,0.05 -1.805,-0.402 -2.407,-1.204 1.204,-3.159 3.811,-5.416 3.711,-9.126 C 45.174,18.618 45.926,7.836 45.023,6.733 44.547,5.956 43.795,5.33 43.118,5.781 41.614,9.09 43.519,12.45 42.416,15.91 c -0.1,2.256 -0.702,4.262 -1.203,6.368 -0.853,0.953 -1.856,-0.049 -2.808,-0.351 -1.774,-0.682 3.259,-5.817 1.203,-10.38 -0.502,-1.404 0.451,-2.807 0.15,-4.463 -2.256,1.605 -2.281,6.569 -2.481,9.026 -0.853,5.115 -1.781,8.174 -2.583,13.238 -2.106,3.661 -4.463,7.773 -4.714,12.285 -0.652,3.661 -2.231,11.96 -3.711,12.888 -0.952,0.251 -1.779,0.827 -1.554,-0.853 0.552,-2.658 1.655,-5.415 1.554,-8.524 0.352,-1.705 1.304,-7.973 1.906,-9.377 0.251,-1.655 -0.677,-1.855 -1.429,-0.476 -0.602,4.212 -2.983,8.048 -3.986,12.109 -0.753,4.212 -2.106,8.675 -0.702,12.888 0.1,2.205 -1.705,9.727 -3.36,9.878 -0.703,-0.101 -1.73,-0.276 -2.156,-0.853 -0.702,-0.552 -0.251,-1.354 -0.401,-1.905 0.701,-2.407 0.701,-13.69 1.604,-15.043 0.903,-1.404 7.496,-26.978 5.867,-28.282 C 19.6,29.449 19.4,36.97 15.94,42.837 11.828,45.069 13.132,40.531 12.931,39.377 12.63,36.318 13.984,33.962 13.132,31.154 10.775,32.608 9.521,35.316 7.365,37.321 4.432,41.182 3.82,47.186 5.297,55.727 6.046,60.06 6.729,64.569 5.71,68.711 5.109,69.865 5.685,72.397 3.504,71.37 1.849,69.815 2.501,67.157 1.849,65.102 2.1,59.986 -0.908,55.674 -0.708,50.559 c -0.853,-2.005 -0.903,-3.911 -1.554,-6.017 -1.455,2.708 -1.291,7.694 -2.745,10.251 -0.351,3.961 -4.426,10.359 -5.429,9.356 -1.755,-1.906 -1.153,-5.466 -1.454,-8.074 1.053,-4.362 -1.204,-8.324 -0.1,-12.736 -1.806,-0.753 -6.318,1.003 -6.77,1.454 -1.955,2.056 -4.162,3.159 -6.619,4.814 -1.905,0.602 -7.873,2.106 -9.226,4.212 -1.58,2.156 -2.583,-0.477 -2.056,-1.805" style="fill:#231f20;fill-opacity:1;fill-rule:nonzero;stroke:none;stroke-width:2.50531697" id="path362" inkscape:connector-curvature="0"/>
        </g>
        <g style="stroke-width:2.50531697" id="g364" transform="translate(1086.501,1154.795)">
          <path d="m 0,0 c 5.064,-4.312 7.622,-11.031 13.238,-15.143 1.354,-0.853 2.758,-1.555 4.112,-1.805 3.128,-0.58 4.944,-3.984 5.415,-7.121 -1.053,-3.811 -1.003,-7.722 -1.454,-11.533 0.752,-2.306 -1.68,-15.319 -0.602,-19.054 0.401,-1.605 -1.504,-1.806 -2.306,-2.508 -2.031,-1.278 -6.268,10.029 -7.823,13.94 -3.109,7.171 -5.967,13.69 -8.424,21.061 C 0.25,-14.842 -2.708,-8.424 -3.962,-0.852 -4.187,1.354 -0.903,0.702 0,0" style="fill:#231f20;fill-opacity:1;fill-rule:nonzero;stroke:none;stroke-width:2.50531697" id="path366" inkscape:connector-curvature="0"/>
        </g>
        <g style="stroke-width:2.50531697" id="g368" transform="translate(1099.6384,1150.5836)">
          <path d="m 0,0 c -1.279,0.426 -3.034,6.569 -5.065,9.878 -1.404,2.959 -3.058,5.265 -4.563,8.073 -1.554,1.354 -1.403,3.761 -3.61,4.213 -2.457,0.075 -4.463,2.08 -0.251,3.359 1.455,0.702 7.071,-0.401 8.525,-3.009 1.554,-3.51 1.654,-7.07 3.761,-10.379 C -0.652,9.829 0.501,7.772 1.053,5.416 3.271,0.444 1.229,-0.201 0,0" style="fill:#231f20;fill-opacity:1;fill-rule:nonzero;stroke:none;stroke-width:2.50531697" id="path370" inkscape:connector-curvature="0"/>
        </g>
        <g style="stroke-width:2.50531697" id="g372" transform="translate(932.9333,1260.6549)">
          <path d="m 0,0 c 0.783,0.594 4.749,1.554 5.904,2.278 9.909,6.223 21.808,6.991 33.16,6.375 1.586,-0.086 15.275,-1.154 20.182,-1.165 9.672,-0.021 24.445,3.189 33.356,5.176 7.946,1.772 13.865,2.513 24.009,-1.405 3.67,-1.419 14.717,-4.484 18.052,-3.993 2.112,-2.414 -3.214,-6.941 -4.919,-8.2 -3.118,-2.303 -5.208,-2.676 -9.623,-3.334 -3.512,-0.175 -12.146,5.566 -15.717,7.766 -13.395,8.252 -39.478,-0.114 -48.755,-8.385 -0.557,-0.498 -5.366,-5.222 -6.281,-3.743 -5.552,6.49 -11.834,7.572 -17.45,5.667 -1.354,-1.404 -3.31,-2.057 -4.614,-3.611 -0.952,-4.192 -3.806,-7.66 -7.657,-9.457 -0.526,-0.247 -1.513,-0.036 -0.867,0.932 0.915,1.668 -0.961,3.993 -1.553,4.459 -1.105,1.158 -2.296,5.67 -5.317,6.611 -0.489,0.162 -3.674,1.537 -5.121,1.691 -0.683,0.073 -5.993,1.054 -6.53,0.897 C -0.73,-1.628 -0.744,-0.565 0,0" style="fill:#231f20;fill-opacity:1;fill-rule:nonzero;stroke:none;stroke-width:2.50531697" id="path374" inkscape:connector-curvature="0"/>
        </g>
        <g style="stroke-width:2.50531697" id="g376" transform="translate(1031.1414,1183.5782)">
          <path d="M 0,0 C -0.25,1.404 0.05,7.471 0.852,8.775 1.454,10.229 3.059,10.179 4.463,10.43 4.112,8.174 2.595,4.538 3.861,1.906 c 1.504,-3.31 6.381,-13.289 4.463,-17.702 -1.504,-3.008 -1.003,-6.869 0.451,-9.727 0.602,-0.953 1.003,-1.655 1.204,-2.758 -0.552,-0.251 -1.003,-0.853 -1.806,-0.602 -1.955,1.103 -2.506,3.51 -3.459,5.415 -0.452,2.057 -0.702,3.711 -0.251,5.867 -0.652,4.413 -3.611,7.472 -3.51,12.186 C 0.451,-3.811 -0.05,-1.805 0,0" style="fill:#231f20;fill-opacity:1;fill-rule:nonzero;stroke:none;stroke-width:2.50531697" id="path378" inkscape:connector-curvature="0"/>
        </g>
      </g>
    </g>
    </g></svg>
