<?xml version='1.0' encoding='UTF-8'?>
<!-- Created with Inkscape (http://www.inkscape.org/) and export_objects.py -->
<svg xmlns:cc="http://creativecommons.org/ns#" xmlns:dc="http://purl.org/dc/elements/1.1/" xmlns:inkscape="http://www.inkscape.org/namespaces/inkscape" xmlns:rdf="http://www.w3.org/1999/02/22-rdf-syntax-ns#" xmlns:sodipodi="http://sodipodi.sourceforge.net/DTD/sodipodi-0.dtd" xmlns:xlink="http://www.w3.org/1999/xlink" xmlns="http://www.w3.org/2000/svg" version="1.1" width="57.1500052917mm" height="88.9000026458mm" viewBox="0 0 57.1500052917 88.9000026458" id="svg3285" sodipodi:docname="six-004.svg"><sodipodi:namedview id="base" pagecolor="#ffffff" bordercolor="#666666" borderopacity="1.0" inkscape:pageopacity="0.0" inkscape:pageshadow="2" inkscape:zoom="0.35" inkscape:cx="-50" inkscape:cy="560" inkscape:document-units="mm" inkscape:current-layer="layer1" showgrid="false" inkscape:window-width="1280" inkscape:window-height="940" inkscape:window-x="1909" inkscape:window-y="43" inkscape:window-maximized="1"/>
  <metadata id="metadata3282">
    <rdf:RDF>
      <cc:Work rdf:about="">
        <dc:format>image/svg+xml</dc:format>
        <dc:type rdf:resource="http://purl.org/dc/dcmitype/StillImage"/>
      </cc:Work>
    </rdf:RDF>
  </metadata>
  <g inkscape:groupmode="layer" inkscape:label="six-" transform="matrix(1.000000,0.000000,0.000000,1.000000,-74.234519,-61.898816)"><g id="g3697" inkscape:label="004">
      <rect style="display:inline;opacity:1;fill:#ffffff;fill-opacity:1;stroke:none;stroke-width:0.03527778;stroke-linecap:butt;stroke-linejoin:miter;stroke-miterlimit:47.14606857;stroke-dasharray:none;stroke-dashoffset:0;stroke-opacity:1;paint-order:markers fill stroke" id="rect29789" width="57.150005" height="88.900002" x="74.23452" y="61.898815"/>
      <g id="text29835" style="font-style:normal;font-variant:normal;font-weight:normal;font-stretch:normal;font-size:21.16666794px;line-height:125%;font-family:'Stint Ultra Condensed';-inkscape-font-specification:'Stint Ultra Condensed, ';font-variant-ligatures:normal;font-variant-caps:normal;font-variant-numeric:normal;font-feature-settings:normal;text-align:center;letter-spacing:0px;word-spacing:0px;writing-mode:lr-tb;text-anchor:middle;display:inline;fill:#e6180a;fill-opacity:1;stroke:none;stroke-width:0.26458338" aria-label="6">
        <path id="path3594" style="font-style:normal;font-variant:normal;font-weight:normal;font-stretch:normal;font-size:21.16666794px;font-family:'Stint Ultra Condensed';-inkscape-font-specification:'Stint Ultra Condensed, ';text-align:center;text-anchor:middle;fill:#e6180a;fill-opacity:1;stroke-width:0.26458338" d="m 80.704432,71.992261 q 0.07235,-0.186035 0.206706,-0.475423 0.144694,-0.289388 0.37207,-0.558106 0.237712,-0.279053 0.568441,-0.465088 0.330729,-0.19637 0.785482,-0.19637 0.506429,0 0.950846,0.289388 0.444418,0.289388 0.764811,0.868164 0.33073,0.578776 0.516765,1.457275 0.19637,0.868164 0.19637,2.046387 0,0.971517 -0.186035,1.829346 -0.1757,0.847494 -0.516764,1.488281 -0.341065,0.630453 -0.837159,1.002523 -0.496093,0.361735 -1.126546,0.361735 -0.630452,0 -1.178223,-0.423747 -0.537434,-0.434082 -0.940511,-1.29191 -0.403076,-0.868165 -0.640787,-2.170411 -0.227377,-1.302246 -0.227377,-3.059245 0,-1.79834 0.1757,-3.234945 0.1757,-1.44694 0.537435,-2.459798 0.37207,-1.012858 0.930176,-1.550293 0.568441,-0.54777 1.343587,-0.54777 0.496094,0 0.940511,0.279053 0.444418,0.268717 0.775147,0.806152 0.341064,0.537435 0.527099,1.343587 0.196371,0.795817 0.196371,1.850017 h -1.27124 q 0,-1.539958 -0.310059,-2.34611 -0.299723,-0.806153 -0.919841,-0.806153 -0.434082,0 -0.74414,0.485759 -0.310059,0.475423 -0.506429,1.291911 -0.196371,0.816487 -0.289388,1.901692 -0.09302,1.07487 -0.09302,2.284099 z m 1.674317,-0.568441 q -0.320394,0 -0.578776,0.299723 -0.258383,0.299724 -0.465088,0.733806 -0.196371,0.434082 -0.33073,0.930176 -0.134358,0.496093 -0.19637,0.888834 -0.02067,0.775147 0.08268,1.529623 0.113688,0.754476 0.320394,1.364258 0.217041,0.599446 0.516765,0.971517 0.310058,0.37207 0.671793,0.37207 0.330729,0 0.589112,-0.248047 0.258382,-0.258382 0.434082,-0.72347 0.175699,-0.465088 0.258382,-1.116211 0.09302,-0.661458 0.09302,-1.467611 0,-0.826823 -0.08268,-1.477946 -0.08268,-0.661458 -0.258382,-1.116211 -0.165365,-0.454752 -0.434082,-0.692464 -0.258382,-0.248047 -0.620117,-0.248047 z"/>
      </g>
      <g id="text29839" style="font-style:normal;font-variant:normal;font-weight:normal;font-stretch:normal;font-size:21.16666794px;line-height:125%;font-family:'Stint Ultra Condensed';-inkscape-font-specification:'Stint Ultra Condensed, ';font-variant-ligatures:normal;font-variant-caps:normal;font-variant-numeric:normal;font-feature-settings:normal;text-align:center;letter-spacing:0px;word-spacing:0px;writing-mode:lr-tb;text-anchor:middle;display:inline;fill:#e6180a;fill-opacity:1;stroke:none;stroke-width:0.26458338" transform="scale(-1)" aria-label="6">
        <path id="path3591" style="font-style:normal;font-variant:normal;font-weight:normal;font-stretch:normal;font-size:21.16666794px;font-family:'Stint Ultra Condensed';-inkscape-font-specification:'Stint Ultra Condensed, ';text-align:center;text-anchor:middle;fill:#e6180a;fill-opacity:1;stroke-width:0.26458338" d="m -124.91468,-140.70538 q 0.0724,-0.18603 0.20671,-0.47542 0.14469,-0.28939 0.37207,-0.55811 0.23771,-0.27905 0.56844,-0.46509 0.33073,-0.19637 0.78548,-0.19637 0.50643,0 0.95085,0.28939 0.44441,0.28939 0.76481,0.86817 0.33073,0.57877 0.51676,1.45727 0.19637,0.86817 0.19637,2.04639 0,0.97152 -0.18603,1.82934 -0.1757,0.8475 -0.51677,1.48829 -0.34106,0.63045 -0.83715,1.00252 -0.4961,0.36173 -1.12655,0.36173 -0.63045,0 -1.17822,-0.42374 -0.53744,-0.43409 -0.94051,-1.29191 -0.40308,-0.86817 -0.64079,-2.17041 -0.22738,-1.30225 -0.22738,-3.05925 0,-1.79834 0.1757,-3.23494 0.1757,-1.44694 0.53744,-2.4598 0.37207,-1.01286 0.93017,-1.5503 0.56844,-0.54777 1.34359,-0.54777 0.49609,0 0.94051,0.27906 0.44442,0.26871 0.77515,0.80615 0.34106,0.53743 0.5271,1.34359 0.19637,0.79581 0.19637,1.85001 h -1.27124 q 0,-1.53995 -0.31006,-2.34611 -0.29973,-0.80615 -0.91984,-0.80615 -0.43408,0 -0.74414,0.48576 -0.31006,0.47542 -0.50643,1.29191 -0.19637,0.81649 -0.28939,1.90169 -0.093,1.07487 -0.093,2.2841 z m 1.67432,-0.56844 q -0.3204,0 -0.57878,0.29972 -0.25838,0.29973 -0.46509,0.73381 -0.19637,0.43408 -0.33072,0.93018 -0.13436,0.49609 -0.19638,0.88883 -0.0207,0.77515 0.0827,1.52962 0.11369,0.75448 0.32039,1.36426 0.21704,0.59945 0.51677,0.97152 0.31005,0.37207 0.67179,0.37207 0.33073,0 0.58911,-0.24805 0.25838,-0.25838 0.43408,-0.72347 0.1757,-0.46509 0.25838,-1.11621 0.093,-0.66146 0.093,-1.46761 0,-0.82682 -0.0827,-1.47795 -0.0827,-0.66146 -0.25838,-1.11621 -0.16537,-0.45475 -0.43408,-0.69246 -0.25839,-0.24805 -0.62012,-0.24805 z"/>
      </g>
      <g transform="matrix(0.26448498,0,0,0.26448498,-1027.7877,322.31034)" id="g3613" style="display:inline">
        <g id="g3229" transform="matrix(-3.7797426,0,0,-3.7797426,4274.7122,-766.25735)" style="stroke-width:0.63496387">
          <path inkscape:connector-curvature="0" id="path3227" d="m 0,0 c -2.56,0 -5.12,0 -7.68,0 0.8747,0.039 1.619,0.605 2.322,1.0728 C -3.779,2.264 -2.3,3.63 -1.132,5.228 -0.587,6.032 -0.0144,6.936 0,7.94 M -7.68,0 c 1.11,-0.035 2.058,-0.7413 2.904,-1.393 1.495,-1.255 2.789,-2.748 3.881,-4.364 C -0.494,-6.426 -0.022,-7.135 0,-7.94 0,-5.293 0,-2.647 0,0 m 0,-7.94 c 0.038,1.182 0.758,2.206 1.438,3.12 1.212,1.51 2.648,2.846 4.228,3.963 C 6.28,-0.474 6.932,-0.0185 7.68,0 5.12,0 2.56,0 0,0 M 7.68,0 C 6.57,0.035 5.622,0.741 4.776,1.392 3.281,2.648 1.987,4.141 0.895,5.757 0.494,6.426 0.0225,7.135 0,7.94 0,5.293 0,2.647 0,0" style="fill:#e6180a;stroke-width:0.63496387"/>
        </g>
        <g style="stroke-width:0.63496387" transform="matrix(-1.8898713,-3.2733531,3.2733531,-1.8898713,4231.1696,-791.3967)" id="g3233">
          <path style="fill:#e6180a;stroke-width:0.63496387" d="m 0,0 c -2.56,0 -5.12,0 -7.68,0 0.8747,0.039 1.619,0.605 2.322,1.0728 C -3.779,2.264 -2.3,3.63 -1.132,5.228 -0.587,6.032 -0.0144,6.936 0,7.94 M -7.68,0 c 1.11,-0.035 2.058,-0.7413 2.904,-1.393 1.495,-1.255 2.789,-2.748 3.881,-4.364 C -0.494,-6.426 -0.022,-7.135 0,-7.94 0,-5.293 0,-2.647 0,0 m 0,-7.94 c 0.038,1.182 0.758,2.206 1.438,3.12 1.212,1.51 2.648,2.846 4.228,3.963 C 6.28,-0.474 6.932,-0.0185 7.68,0 5.12,0 2.56,0 0,0 M 7.68,0 C 6.57,0.035 5.622,0.741 4.776,1.392 3.281,2.648 1.987,4.141 0.895,5.757 0.494,6.426 0.0225,7.135 0,7.94 0,5.293 0,2.647 0,0" id="path3231" inkscape:connector-curvature="0"/>
        </g>
        <g id="g3237" transform="matrix(1.8898713,-3.2733531,3.2733531,1.8898713,4231.1696,-841.6754)" style="stroke-width:0.63496387">
          <path inkscape:connector-curvature="0" id="path3235" d="m 0,0 c -2.56,0 -5.12,0 -7.68,0 0.8747,0.039 1.619,0.605 2.322,1.0728 C -3.779,2.264 -2.3,3.63 -1.132,5.228 -0.587,6.032 -0.0144,6.936 0,7.94 M -7.68,0 c 1.11,-0.035 2.058,-0.7413 2.904,-1.393 1.495,-1.255 2.789,-2.748 3.881,-4.364 C -0.494,-6.426 -0.022,-7.135 0,-7.94 0,-5.293 0,-2.647 0,0 m 0,-7.94 c 0.038,1.182 0.758,2.206 1.438,3.12 1.212,1.51 2.648,2.846 4.228,3.963 C 6.28,-0.474 6.932,-0.0185 7.68,0 5.12,0 2.56,0 0,0 M 7.68,0 C 6.57,0.035 5.622,0.741 4.776,1.392 3.281,2.648 1.987,4.141 0.895,5.757 0.494,6.426 0.0225,7.135 0,7.94 0,5.293 0,2.647 0,0" style="fill:#e6180a;stroke-width:0.63496387"/>
        </g>
        <g style="stroke-width:0.63496387" transform="matrix(3.7797426,0,0,3.7797426,4274.7122,-866.81475)" id="g3241">
          <path style="fill:#e6180a;stroke-width:0.63496387" d="m 0,0 c -2.56,0 -5.12,0 -7.68,0 0.8747,0.039 1.619,0.605 2.322,1.0728 C -3.779,2.264 -2.3,3.63 -1.132,5.228 -0.587,6.032 -0.0144,6.936 0,7.94 M -7.68,0 c 1.11,-0.035 2.058,-0.7413 2.904,-1.393 1.495,-1.255 2.789,-2.748 3.881,-4.364 C -0.494,-6.426 -0.022,-7.135 0,-7.94 0,-5.293 0,-2.647 0,0 m 0,-7.94 c 0.038,1.182 0.758,2.206 1.438,3.12 1.212,1.51 2.648,2.846 4.228,3.963 C 6.28,-0.474 6.932,-0.0185 7.68,0 5.12,0 2.56,0 0,0 M 7.68,0 C 6.57,0.035 5.622,0.741 4.776,1.392 3.281,2.648 1.987,4.141 0.895,5.757 0.494,6.426 0.0225,7.135 0,7.94 0,5.293 0,2.647 0,0" id="path3239" inkscape:connector-curvature="0"/>
        </g>
        <g id="g3245" transform="matrix(1.8898713,3.2733531,-3.2733531,1.8898713,4318.2548,-841.6754)" style="stroke-width:0.63496387">
          <path inkscape:connector-curvature="0" id="path3243" d="m 0,0 c -2.56,0 -5.12,0 -7.68,0 0.8747,0.039 1.619,0.605 2.322,1.0728 C -3.779,2.264 -2.3,3.63 -1.132,5.228 -0.587,6.032 -0.0144,6.936 0,7.94 M -7.68,0 c 1.11,-0.035 2.058,-0.7413 2.904,-1.393 1.495,-1.255 2.789,-2.748 3.881,-4.364 C -0.494,-6.426 -0.022,-7.135 0,-7.94 0,-5.293 0,-2.647 0,0 m 0,-7.94 c 0.038,1.182 0.758,2.206 1.438,3.12 1.212,1.51 2.648,2.846 4.228,3.963 C 6.28,-0.474 6.932,-0.0185 7.68,0 5.12,0 2.56,0 0,0 M 7.68,0 C 6.57,0.035 5.622,0.741 4.776,1.392 3.281,2.648 1.987,4.141 0.895,5.757 0.494,6.426 0.0225,7.135 0,7.94 0,5.293 0,2.647 0,0" style="fill:#e6180a;stroke-width:0.63496387"/>
        </g>
        <g style="stroke-width:0.63496387" transform="matrix(-1.8898713,3.2733531,-3.2733531,-1.8898713,4318.2548,-791.3967)" id="g3249">
          <path style="fill:#e6180a;stroke-width:0.63496387" d="m 0,0 c -2.56,0 -5.12,0 -7.68,0 0.8747,0.039 1.619,0.605 2.322,1.0728 C -3.779,2.264 -2.3,3.63 -1.132,5.228 -0.587,6.032 -0.0144,6.936 0,7.94 M -7.68,0 c 1.11,-0.035 2.058,-0.7413 2.904,-1.393 1.495,-1.255 2.789,-2.748 3.881,-4.364 C -0.494,-6.426 -0.022,-7.135 0,-7.94 0,-5.293 0,-2.647 0,0 m 0,-7.94 c 0.038,1.182 0.758,2.206 1.438,3.12 1.212,1.51 2.648,2.846 4.228,3.963 C 6.28,-0.474 6.932,-0.0185 7.68,0 5.12,0 2.56,0 0,0 M 7.68,0 C 6.57,0.035 5.622,0.741 4.776,1.392 3.281,2.648 1.987,4.141 0.895,5.757 0.494,6.426 0.0225,7.135 0,7.94 0,5.293 0,2.647 0,0" id="path3247" inkscape:connector-curvature="0"/>
        </g>
      </g>
      <g style="display:inline;stroke-width:1.0582732" transform="matrix(-0.59981108,0,0,-0.59981108,82.172062,85.7113)" id="g32085">
        <path style="fill:#e6180a;stroke-width:1.0582732" d="m 0,0 c -2.56,0 -5.12,0 -7.68,0 0.8747,0.039 1.619,0.605 2.322,1.0728 C -3.779,2.264 -2.3,3.63 -1.132,5.228 -0.587,6.032 -0.0144,6.936 0,7.94 M -7.68,0 c 1.11,-0.035 2.058,-0.7413 2.904,-1.393 1.495,-1.255 2.789,-2.748 3.881,-4.364 C -0.494,-6.426 -0.022,-7.135 0,-7.94 0,-5.293 0,-2.647 0,0 m 0,-7.94 c 0.038,1.182 0.758,2.206 1.438,3.12 1.212,1.51 2.648,2.846 4.228,3.963 C 6.28,-0.474 6.932,-0.0185 7.68,0 5.12,0 2.56,0 0,0 M 7.68,0 C 6.57,0.035 5.622,0.741 4.776,1.392 3.281,2.648 1.987,4.141 0.895,5.757 0.494,6.426 0.0225,7.135 0,7.94 0,5.293 0,2.647 0,0" id="path32083" inkscape:connector-curvature="0"/>
      </g>
      <g id="g32089" transform="matrix(0.59981108,0,0,0.59981108,123.44701,126.98631)" style="display:inline;stroke-width:1.0582732">
        <path inkscape:connector-curvature="0" id="path32087" d="m 0,0 c -2.56,0 -5.12,0 -7.68,0 0.8747,0.039 1.619,0.605 2.322,1.0728 C -3.779,2.264 -2.3,3.63 -1.132,5.228 -0.587,6.032 -0.0144,6.936 0,7.94 M -7.68,0 c 1.11,-0.035 2.058,-0.7413 2.904,-1.393 1.495,-1.255 2.789,-2.748 3.881,-4.364 C -0.494,-6.426 -0.022,-7.135 0,-7.94 0,-5.293 0,-2.647 0,0 m 0,-7.94 c 0.038,1.182 0.758,2.206 1.438,3.12 1.212,1.51 2.648,2.846 4.228,3.963 C 6.28,-0.474 6.932,-0.0185 7.68,0 5.12,0 2.56,0 0,0 M 7.68,0 C 6.57,0.035 5.622,0.741 4.776,1.392 3.281,2.648 1.987,4.141 0.895,5.757 0.494,6.426 0.0225,7.135 0,7.94 0,5.293 0,2.647 0,0" style="fill:#e6180a;stroke-width:1.0582732"/>
      </g>
    </g>
  </g></svg>
