<?xml version='1.0' encoding='UTF-8'?>
<!-- Created with Inkscape (http://www.inkscape.org/) and export_objects.py -->
<svg xmlns:cc="http://creativecommons.org/ns#" xmlns:dc="http://purl.org/dc/elements/1.1/" xmlns:inkscape="http://www.inkscape.org/namespaces/inkscape" xmlns:rdf="http://www.w3.org/1999/02/22-rdf-syntax-ns#" xmlns:sodipodi="http://sodipodi.sourceforge.net/DTD/sodipodi-0.dtd" xmlns:xlink="http://www.w3.org/1999/xlink" xmlns="http://www.w3.org/2000/svg" version="1.1" width="57.1500026458mm" height="88.8999973542mm" viewBox="0 0 57.1500026458 88.8999973542" id="svg24051" sodipodi:docname="diamond-005.svg"><sodipodi:namedview id="base" pagecolor="#ffffff" bordercolor="#666666" borderopacity="1.0" inkscape:pageopacity="0.0" inkscape:pageshadow="2" inkscape:zoom="0.35" inkscape:cx="-50" inkscape:cy="560" inkscape:document-units="mm" inkscape:current-layer="layer1" showgrid="false" inkscape:lockguides="true" inkscape:window-width="1280" inkscape:window-height="940" inkscape:window-x="1909" inkscape:window-y="43" inkscape:window-maximized="1"/>
  <metadata id="metadata24048">
    <rdf:RDF>
      <cc:Work rdf:about="">
        <dc:format>image/svg+xml</dc:format>
        <dc:type rdf:resource="http://purl.org/dc/dcmitype/StillImage"/>
      </cc:Work>
    </rdf:RDF>
  </metadata>
  <g inkscape:groupmode="layer" inkscape:label="diamond-" transform="matrix(1.000000,0.000000,0.000000,1.000000,249.161895,-24.252385)"><g transform="matrix(0.26448498,0,0,0.26448498,-528.50898,-14.837099)" id="g17041" inkscape:label="005">
      <rect style="display:inline;opacity:1;fill:#ffffff;fill-opacity:1;stroke:none;stroke-width:0.13338292;stroke-linecap:butt;stroke-linejoin:miter;stroke-miterlimit:47.14606857;stroke-dasharray:none;stroke-dashoffset:0;stroke-opacity:1;paint-order:markers fill stroke" id="rect29781" width="216.08034" height="336.12494" x="1056.1926" y="147.79472"/>
      <g id="text29803" style="font-style:normal;font-variant:normal;font-weight:normal;font-stretch:normal;font-size:80.02975464px;line-height:125%;font-family:'Stint Ultra Condensed';-inkscape-font-specification:'Stint Ultra Condensed, ';font-variant-ligatures:normal;font-variant-caps:normal;font-variant-numeric:normal;font-feature-settings:normal;text-align:center;letter-spacing:0px;word-spacing:0px;writing-mode:lr-tb;text-anchor:middle;display:inline;fill:#e6180a;fill-opacity:1;stroke:none;stroke-width:1.00037193" aria-label="10" transform="translate(-2088.7764,79.839752)">
        <path id="path12694" style="font-style:normal;font-variant:normal;font-weight:normal;font-stretch:normal;font-size:80.02975464px;font-family:'Stint Ultra Condensed';-inkscape-font-specification:'Stint Ultra Condensed, ';text-align:center;text-anchor:middle;fill:#e6180a;fill-opacity:1;stroke-width:1.00037193" d="m 3154.3082,129.56379 h 5.1973 V 84.586128 l -6.4087,4.024934 v -4.33755 l 6.4087,-3.985857 h 4.8065 v 49.276135 h 5.1972 v 4.4157 h -15.201 z" inkscape:connector-curvature="0"/>
        <path id="path12696" style="font-style:normal;font-variant:normal;font-weight:normal;font-stretch:normal;font-size:80.02975464px;font-family:'Stint Ultra Condensed';-inkscape-font-specification:'Stint Ultra Condensed, ';text-align:center;text-anchor:middle;fill:#e6180a;fill-opacity:1;stroke-width:1.00037193" d="m 3195.4954,107.17265 q 0,7.34648 -0.8597,12.62188 -0.8597,5.2754 -2.3837,8.6751 -1.524,3.36063 -3.6341,4.96278 -2.0711,1.60216 -4.4939,1.60216 -2.4618,0 -4.572,-1.60216 -2.0711,-1.60215 -3.6342,-4.96278 -1.524,-3.3997 -2.3837,-8.6751 -0.8597,-5.2754 -0.8597,-12.62188 0,-7.307404 0.8597,-12.582803 0.8597,-5.275399 2.3837,-8.6751 1.5631,-3.399702 3.6342,-5.00186 2.1102,-1.602158 4.572,-1.602158 2.4228,0 4.4939,1.602158 2.1101,1.602158 3.6341,5.00186 1.524,3.399701 2.3837,8.6751 0.8597,5.275399 0.8597,12.582803 z m -4.9628,0 q 0,-6.2914 -0.508,-10.746182 -0.4689,-4.493859 -1.3286,-7.346482 -0.8597,-2.852623 -2.032,-4.181242 -1.1723,-1.328619 -2.54,-1.328619 -1.3677,0 -2.5791,1.328619 -1.1723,1.328619 -2.0711,4.181242 -0.8597,2.852623 -1.3677,7.346482 -0.4689,4.454782 -0.4689,10.746182 0,6.2914 0.4689,10.78526 0.508,4.45478 1.3677,7.3074 0.8988,2.85263 2.0711,4.18125 1.2114,1.32862 2.5791,1.32862 1.3677,0 2.54,-1.32862 1.1723,-1.32862 2.032,-4.18125 0.8597,-2.8917 1.3286,-7.34648 0.508,-4.45478 0.508,-10.74618 z" inkscape:connector-curvature="0"/>
      </g>
      <g id="text29807" style="font-style:normal;font-variant:normal;font-weight:normal;font-stretch:normal;font-size:80.02975464px;line-height:125%;font-family:'Stint Ultra Condensed';-inkscape-font-specification:'Stint Ultra Condensed, ';font-variant-ligatures:normal;font-variant-caps:normal;font-variant-numeric:normal;font-feature-settings:normal;text-align:center;letter-spacing:0px;word-spacing:0px;writing-mode:lr-tb;text-anchor:middle;display:inline;fill:#e6180a;fill-opacity:1;stroke:none;stroke-width:1.00037193" transform="rotate(180,-1044.3882,39.919876)" aria-label="10">
        <path id="path12689" style="font-style:normal;font-variant:normal;font-weight:normal;font-stretch:normal;font-size:80.02975464px;font-family:'Stint Ultra Condensed';-inkscape-font-specification:'Stint Ultra Condensed, ';text-align:center;text-anchor:middle;fill:#e6180a;fill-opacity:1;stroke-width:1.00037193" d="m -3351.7098,-342.47106 h 5.1972 v -44.97766 l -6.4086,4.02493 v -4.33755 l 6.4086,-3.98586 h 4.8065 v 49.27614 h 5.1972 v 4.4157 h -15.2009 z" inkscape:connector-curvature="0"/>
        <path id="path12691" style="font-style:normal;font-variant:normal;font-weight:normal;font-stretch:normal;font-size:80.02975464px;font-family:'Stint Ultra Condensed';-inkscape-font-specification:'Stint Ultra Condensed, ';text-align:center;text-anchor:middle;fill:#e6180a;fill-opacity:1;stroke-width:1.00037193" d="m -3310.5226,-364.8622 q 0,7.34648 -0.8597,12.62188 -0.8597,5.2754 -2.3837,8.6751 -1.524,3.36062 -3.6342,4.96278 -2.0711,1.60216 -4.4939,1.60216 -2.4618,0 -4.572,-1.60216 -2.0711,-1.60216 -3.6341,-4.96278 -1.524,-3.3997 -2.3837,-8.6751 -0.8597,-5.2754 -0.8597,-12.62188 0,-7.3074 0.8597,-12.5828 0.8597,-5.2754 2.3837,-8.6751 1.563,-3.39971 3.6341,-5.00186 2.1102,-1.60216 4.572,-1.60216 2.4228,0 4.4939,1.60216 2.1102,1.60215 3.6342,5.00186 1.524,3.3997 2.3837,8.6751 0.8597,5.2754 0.8597,12.5828 z m -4.9628,0 q 0,-6.2914 -0.508,-10.74618 -0.469,-4.49386 -1.3286,-7.34648 -0.8597,-2.85263 -2.0321,-4.18125 -1.1723,-1.32862 -2.54,-1.32862 -1.3677,0 -2.579,1.32862 -1.1724,1.32862 -2.0711,4.18125 -0.8597,2.85262 -1.3677,7.34648 -0.4689,4.45478 -0.4689,10.74618 0,6.2914 0.4689,10.78526 0.508,4.45478 1.3677,7.3074 0.8987,2.85263 2.0711,4.18125 1.2113,1.32861 2.579,1.32861 1.3677,0 2.54,-1.32861 1.1724,-1.32862 2.0321,-4.18125 0.8596,-2.8917 1.3286,-7.34648 0.508,-4.45478 0.508,-10.74618 z" inkscape:connector-curvature="0"/>
      </g>
      <g id="g31833" transform="matrix(-3.7797426,0,0,-3.7797426,1143.2251,195.81262)" style="display:inline;stroke-width:0.63496387">
        <path inkscape:connector-curvature="0" id="path31831" d="m 0,0 c -2.56,0 -5.12,0 -7.68,0 0.8747,0.039 1.619,0.605 2.322,1.0728 C -3.779,2.264 -2.3,3.63 -1.132,5.228 -0.587,6.032 -0.0144,6.936 0,7.94 M -7.68,0 c 1.11,-0.035 2.058,-0.7413 2.904,-1.393 1.495,-1.255 2.789,-2.748 3.881,-4.364 C -0.494,-6.426 -0.022,-7.135 0,-7.94 0,-5.293 0,-2.647 0,0 m 0,-7.94 c 0.038,1.182 0.758,2.206 1.438,3.12 1.212,1.51 2.648,2.846 4.228,3.963 C 6.28,-0.474 6.932,-0.0185 7.68,0 5.12,0 2.56,0 0,0 M 7.68,0 C 6.57,0.035 5.622,0.741 4.776,1.392 3.281,2.648 1.987,4.141 0.895,5.757 0.494,6.426 0.0225,7.135 0,7.94 0,5.293 0,2.647 0,0" style="fill:#e6180a;stroke-width:0.63496387"/>
      </g>
      <g style="display:inline;stroke-width:0.63496387" transform="matrix(-3.7797426,0,0,-3.7797426,1230.2575,195.81262)" id="g31837">
        <path style="fill:#e6180a;stroke-width:0.63496387" d="m 0,0 c -2.56,0 -5.12,0 -7.68,0 0.8747,0.039 1.619,0.605 2.322,1.0728 C -3.779,2.264 -2.3,3.63 -1.132,5.228 -0.587,6.032 -0.0144,6.936 0,7.94 M -7.68,0 c 1.11,-0.035 2.058,-0.7413 2.904,-1.393 1.495,-1.255 2.789,-2.748 3.881,-4.364 C -0.494,-6.426 -0.022,-7.135 0,-7.94 0,-5.293 0,-2.647 0,0 m 0,-7.94 c 0.038,1.182 0.758,2.206 1.438,3.12 1.212,1.51 2.648,2.846 4.228,3.963 C 6.28,-0.474 6.932,-0.0185 7.68,0 5.12,0 2.56,0 0,0 M 7.68,0 C 6.57,0.035 5.622,0.741 4.776,1.392 3.281,2.648 1.987,4.141 0.895,5.757 0.494,6.426 0.0225,7.135 0,7.94 0,5.293 0,2.647 0,0" id="path31835" inkscape:connector-curvature="0"/>
      </g>
      <g id="g31841" transform="matrix(-3.7797426,0,0,-3.7797426,1185.2407,243.83047)" style="display:inline;stroke-width:0.63496387">
        <path inkscape:connector-curvature="0" id="path31839" d="m 0,0 c -2.56,0 -5.12,0 -7.68,0 0.8747,0.039 1.619,0.605 2.322,1.0728 C -3.779,2.264 -2.3,3.63 -1.132,5.228 -0.587,6.032 -0.0144,6.936 0,7.94 M -7.68,0 c 1.11,-0.035 2.058,-0.7413 2.904,-1.393 1.495,-1.255 2.789,-2.748 3.881,-4.364 C -0.494,-6.426 -0.022,-7.135 0,-7.94 0,-5.293 0,-2.647 0,0 m 0,-7.94 c 0.038,1.182 0.758,2.206 1.438,3.12 1.212,1.51 2.648,2.846 4.228,3.963 C 6.28,-0.474 6.932,-0.0185 7.68,0 5.12,0 2.56,0 0,0 M 7.68,0 C 6.57,0.035 5.622,0.741 4.776,1.392 3.281,2.648 1.987,4.141 0.895,5.757 0.494,6.426 0.0225,7.135 0,7.94 0,5.293 0,2.647 0,0" style="fill:#e6180a;stroke-width:0.63496387"/>
      </g>
      <g style="display:inline;stroke-width:0.63496387" transform="matrix(-3.7797426,0,0,-3.7797426,1143.2251,291.84832)" id="g31845">
        <path style="fill:#e6180a;stroke-width:0.63496387" d="m 0,0 c -2.56,0 -5.12,0 -7.68,0 0.8747,0.039 1.619,0.605 2.322,1.0728 C -3.779,2.264 -2.3,3.63 -1.132,5.228 -0.587,6.032 -0.0144,6.936 0,7.94 M -7.68,0 c 1.11,-0.035 2.058,-0.7413 2.904,-1.393 1.495,-1.255 2.789,-2.748 3.881,-4.364 C -0.494,-6.426 -0.022,-7.135 0,-7.94 0,-5.293 0,-2.647 0,0 m 0,-7.94 c 0.038,1.182 0.758,2.206 1.438,3.12 1.212,1.51 2.648,2.846 4.228,3.963 C 6.28,-0.474 6.932,-0.0185 7.68,0 5.12,0 2.56,0 0,0 M 7.68,0 C 6.57,0.035 5.622,0.741 4.776,1.392 3.281,2.648 1.987,4.141 0.895,5.757 0.494,6.426 0.0225,7.135 0,7.94 0,5.293 0,2.647 0,0" id="path31843" inkscape:connector-curvature="0"/>
      </g>
      <g id="g31849" transform="matrix(-3.7797426,0,0,-3.7797426,1230.2574,291.84832)" style="display:inline;stroke-width:0.63496387">
        <path inkscape:connector-curvature="0" id="path31847" d="m 0,0 c -2.56,0 -5.12,0 -7.68,0 0.8747,0.039 1.619,0.605 2.322,1.0728 C -3.779,2.264 -2.3,3.63 -1.132,5.228 -0.587,6.032 -0.0144,6.936 0,7.94 M -7.68,0 c 1.11,-0.035 2.058,-0.7413 2.904,-1.393 1.495,-1.255 2.789,-2.748 3.881,-4.364 C -0.494,-6.426 -0.022,-7.135 0,-7.94 0,-5.293 0,-2.647 0,0 m 0,-7.94 c 0.038,1.182 0.758,2.206 1.438,3.12 1.212,1.51 2.648,2.846 4.228,3.963 C 6.28,-0.474 6.932,-0.0185 7.68,0 5.12,0 2.56,0 0,0 M 7.68,0 C 6.57,0.035 5.622,0.741 4.776,1.392 3.281,2.648 1.987,4.141 0.895,5.757 0.494,6.426 0.0225,7.135 0,7.94 0,5.293 0,2.647 0,0" style="fill:#e6180a;stroke-width:0.63496387"/>
      </g>
      <g id="g31853" transform="matrix(3.7797426,0,0,3.7797426,1098.2085,435.90189)" style="display:inline;stroke-width:0.63496387">
        <path inkscape:connector-curvature="0" id="path31851" d="m 0,0 c -2.56,0 -5.12,0 -7.68,0 0.8747,0.039 1.619,0.605 2.322,1.0728 C -3.779,2.264 -2.3,3.63 -1.132,5.228 -0.587,6.032 -0.0144,6.936 0,7.94 M -7.68,0 c 1.11,-0.035 2.058,-0.7413 2.904,-1.393 1.495,-1.255 2.789,-2.748 3.881,-4.364 C -0.494,-6.426 -0.022,-7.135 0,-7.94 0,-5.293 0,-2.647 0,0 m 0,-7.94 c 0.038,1.182 0.758,2.206 1.438,3.12 1.212,1.51 2.648,2.846 4.228,3.963 C 6.28,-0.474 6.932,-0.0185 7.68,0 5.12,0 2.56,0 0,0 M 7.68,0 C 6.57,0.035 5.622,0.741 4.776,1.392 3.281,2.648 1.987,4.141 0.895,5.757 0.494,6.426 0.0225,7.135 0,7.94 0,5.293 0,2.647 0,0" style="fill:#e6180a;stroke-width:0.63496387"/>
      </g>
      <g style="display:inline;stroke-width:0.63496387" transform="matrix(3.7797426,0,0,3.7797426,1185.2407,435.90189)" id="g31857">
        <path style="fill:#e6180a;stroke-width:0.63496387" d="m 0,0 c -2.56,0 -5.12,0 -7.68,0 0.8747,0.039 1.619,0.605 2.322,1.0728 C -3.779,2.264 -2.3,3.63 -1.132,5.228 -0.587,6.032 -0.0144,6.936 0,7.94 M -7.68,0 c 1.11,-0.035 2.058,-0.7413 2.904,-1.393 1.495,-1.255 2.789,-2.748 3.881,-4.364 C -0.494,-6.426 -0.022,-7.135 0,-7.94 0,-5.293 0,-2.647 0,0 m 0,-7.94 c 0.038,1.182 0.758,2.206 1.438,3.12 1.212,1.51 2.648,2.846 4.228,3.963 C 6.28,-0.474 6.932,-0.0185 7.68,0 5.12,0 2.56,0 0,0 M 7.68,0 C 6.57,0.035 5.622,0.741 4.776,1.392 3.281,2.648 1.987,4.141 0.895,5.757 0.494,6.426 0.0225,7.135 0,7.94 0,5.293 0,2.647 0,0" id="path31855" inkscape:connector-curvature="0"/>
      </g>
      <g id="g31861" transform="matrix(3.7797426,0,0,3.7797426,1143.2252,387.88404)" style="display:inline;stroke-width:0.63496387">
        <path inkscape:connector-curvature="0" id="path31859" d="m 0,0 c -2.56,0 -5.12,0 -7.68,0 0.8747,0.039 1.619,0.605 2.322,1.0728 C -3.779,2.264 -2.3,3.63 -1.132,5.228 -0.587,6.032 -0.0144,6.936 0,7.94 M -7.68,0 c 1.11,-0.035 2.058,-0.7413 2.904,-1.393 1.495,-1.255 2.789,-2.748 3.881,-4.364 C -0.494,-6.426 -0.022,-7.135 0,-7.94 0,-5.293 0,-2.647 0,0 m 0,-7.94 c 0.038,1.182 0.758,2.206 1.438,3.12 1.212,1.51 2.648,2.846 4.228,3.963 C 6.28,-0.474 6.932,-0.0185 7.68,0 5.12,0 2.56,0 0,0 M 7.68,0 C 6.57,0.035 5.622,0.741 4.776,1.392 3.281,2.648 1.987,4.141 0.895,5.757 0.494,6.426 0.0225,7.135 0,7.94 0,5.293 0,2.647 0,0" style="fill:#e6180a;stroke-width:0.63496387"/>
      </g>
      <g style="display:inline;stroke-width:0.63496387" transform="matrix(3.7797426,0,0,3.7797426,1098.2084,339.86618)" id="g31865">
        <path style="fill:#e6180a;stroke-width:0.63496387" d="m 0,0 c -2.56,0 -5.12,0 -7.68,0 0.8747,0.039 1.619,0.605 2.322,1.0728 C -3.779,2.264 -2.3,3.63 -1.132,5.228 -0.587,6.032 -0.0144,6.936 0,7.94 M -7.68,0 c 1.11,-0.035 2.058,-0.7413 2.904,-1.393 1.495,-1.255 2.789,-2.748 3.881,-4.364 C -0.494,-6.426 -0.022,-7.135 0,-7.94 0,-5.293 0,-2.647 0,0 m 0,-7.94 c 0.038,1.182 0.758,2.206 1.438,3.12 1.212,1.51 2.648,2.846 4.228,3.963 C 6.28,-0.474 6.932,-0.0185 7.68,0 5.12,0 2.56,0 0,0 M 7.68,0 C 6.57,0.035 5.622,0.741 4.776,1.392 3.281,2.648 1.987,4.141 0.895,5.757 0.494,6.426 0.0225,7.135 0,7.94 0,5.293 0,2.647 0,0" id="path31863" inkscape:connector-curvature="0"/>
      </g>
      <g id="g31869" transform="matrix(3.7797426,0,0,3.7797426,1185.2407,339.86618)" style="display:inline;stroke-width:0.63496387">
        <path inkscape:connector-curvature="0" id="path31867" d="m 0,0 c -2.56,0 -5.12,0 -7.68,0 0.8747,0.039 1.619,0.605 2.322,1.0728 C -3.779,2.264 -2.3,3.63 -1.132,5.228 -0.587,6.032 -0.0144,6.936 0,7.94 M -7.68,0 c 1.11,-0.035 2.058,-0.7413 2.904,-1.393 1.495,-1.255 2.789,-2.748 3.881,-4.364 C -0.494,-6.426 -0.022,-7.135 0,-7.94 0,-5.293 0,-2.647 0,0 m 0,-7.94 c 0.038,1.182 0.758,2.206 1.438,3.12 1.212,1.51 2.648,2.846 4.228,3.963 C 6.28,-0.474 6.932,-0.0185 7.68,0 5.12,0 2.56,0 0,0 M 7.68,0 C 6.57,0.035 5.622,0.741 4.776,1.392 3.281,2.648 1.987,4.141 0.895,5.757 0.494,6.426 0.0225,7.135 0,7.94 0,5.293 0,2.647 0,0" style="fill:#e6180a;stroke-width:0.63496387"/>
      </g>
      <g style="display:inline;stroke-width:1.0582732" transform="matrix(-2.2678455,0,0,-2.2678455,1086.204,237.82814)" id="g32053">
        <path style="fill:#e6180a;stroke-width:1.0582732" d="m 0,0 c -2.56,0 -5.12,0 -7.68,0 0.8747,0.039 1.619,0.605 2.322,1.0728 C -3.779,2.264 -2.3,3.63 -1.132,5.228 -0.587,6.032 -0.0144,6.936 0,7.94 M -7.68,0 c 1.11,-0.035 2.058,-0.7413 2.904,-1.393 1.495,-1.255 2.789,-2.748 3.881,-4.364 C -0.494,-6.426 -0.022,-7.135 0,-7.94 0,-5.293 0,-2.647 0,0 m 0,-7.94 c 0.038,1.182 0.758,2.206 1.438,3.12 1.212,1.51 2.648,2.846 4.228,3.963 C 6.28,-0.474 6.932,-0.0185 7.68,0 5.12,0 2.56,0 0,0 M 7.68,0 C 6.57,0.035 5.622,0.741 4.776,1.392 3.281,2.648 1.987,4.141 0.895,5.757 0.494,6.426 0.0225,7.135 0,7.94 0,5.293 0,2.647 0,0" id="path32051" inkscape:connector-curvature="0"/>
      </g>
      <g id="g32057" transform="matrix(2.2678455,0,0,2.2678455,1242.2619,393.88618)" style="display:inline;stroke-width:1.0582732">
        <path inkscape:connector-curvature="0" id="path32055" d="m 0,0 c -2.56,0 -5.12,0 -7.68,0 0.8747,0.039 1.619,0.605 2.322,1.0728 C -3.779,2.264 -2.3,3.63 -1.132,5.228 -0.587,6.032 -0.0144,6.936 0,7.94 M -7.68,0 c 1.11,-0.035 2.058,-0.7413 2.904,-1.393 1.495,-1.255 2.789,-2.748 3.881,-4.364 C -0.494,-6.426 -0.022,-7.135 0,-7.94 0,-5.293 0,-2.647 0,0 m 0,-7.94 c 0.038,1.182 0.758,2.206 1.438,3.12 1.212,1.51 2.648,2.846 4.228,3.963 C 6.28,-0.474 6.932,-0.0185 7.68,0 5.12,0 2.56,0 0,0 M 7.68,0 C 6.57,0.035 5.622,0.741 4.776,1.392 3.281,2.648 1.987,4.141 0.895,5.757 0.494,6.426 0.0225,7.135 0,7.94 0,5.293 0,2.647 0,0" style="fill:#e6180a;stroke-width:1.0582732"/>
      </g>
    </g>
    </g></svg>
