<?xml version='1.0' encoding='UTF-8'?>
<!-- Created with Inkscape (http://www.inkscape.org/) and export_objects.py -->
<svg xmlns:cc="http://creativecommons.org/ns#" xmlns:dc="http://purl.org/dc/elements/1.1/" xmlns:inkscape="http://www.inkscape.org/namespaces/inkscape" xmlns:rdf="http://www.w3.org/1999/02/22-rdf-syntax-ns#" xmlns:sodipodi="http://sodipodi.sourceforge.net/DTD/sodipodi-0.dtd" xmlns:xlink="http://www.w3.org/1999/xlink" xmlns="http://www.w3.org/2000/svg" version="1.1" width="57.1500026458mm" height="88.8999973542mm" viewBox="0 0 57.1500026458 88.8999973542" id="svg4919" sodipodi:docname="n-012.svg"><sodipodi:namedview id="base" pagecolor="#ffffff" bordercolor="#666666" borderopacity="1.0" inkscape:pageopacity="0.0" inkscape:pageshadow="2" inkscape:zoom="0.35" inkscape:cx="-50" inkscape:cy="560" inkscape:document-units="mm" inkscape:current-layer="layer1" showgrid="false" inkscape:window-width="1280" inkscape:window-height="940" inkscape:window-x="1909" inkscape:window-y="43" inkscape:window-maximized="1"/>
  <metadata id="metadata4916">
    <rdf:RDF>
      <cc:Work rdf:about="">
        <dc:format>image/svg+xml</dc:format>
        <dc:type rdf:resource="http://purl.org/dc/dcmitype/StillImage"/>
      </cc:Work>
    </rdf:RDF>
  </metadata>
  <g inkscape:groupmode="layer" inkscape:label="n-" transform="matrix(1.000000,0.000000,0.000000,1.000000,-223.459511,-10.494045)"><g transform="matrix(0.26448498,0,0,0.26448498,-195.58756,-28.595439)" id="g4117" inkscape:label="012">
      <rect style="display:inline;opacity:1;fill:#ffffff;fill-opacity:1;stroke:none;stroke-width:0.13338292;stroke-linecap:butt;stroke-linejoin:miter;stroke-miterlimit:47.14606857;stroke-dasharray:none;stroke-dashoffset:0;stroke-opacity:1;paint-order:markers fill stroke" id="rect29785" width="216.08034" height="336.12494" x="1584.3889" y="147.79472"/>
      <g id="text29819" style="font-style:normal;font-variant:normal;font-weight:normal;font-stretch:normal;font-size:80.02975464px;line-height:125%;font-family:'Stint Ultra Condensed';-inkscape-font-specification:'Stint Ultra Condensed, ';font-variant-ligatures:normal;font-variant-caps:normal;font-variant-numeric:normal;font-feature-settings:normal;text-align:center;letter-spacing:0px;word-spacing:0px;writing-mode:lr-tb;text-anchor:middle;display:inline;fill:#e6180a;fill-opacity:1;stroke:none;stroke-width:1.00037193" aria-label="8" transform="translate(-2088.7764,79.839752)">
        <path id="path12680" style="font-style:normal;font-variant:normal;font-weight:normal;font-stretch:normal;font-size:80.02975464px;font-family:'Stint Ultra Condensed';-inkscape-font-specification:'Stint Ultra Condensed, ';text-align:center;text-anchor:middle;fill:#e6180a;fill-opacity:1;stroke-width:1.00037193" d="m 3707.0058,104.67175 q 3.556,1.32862 5.3145,5.15817 1.7975,3.82955 1.7975,9.49572 0,3.47785 -0.7424,6.36955 -0.7425,2.8917 -2.1493,4.96279 -1.4067,2.07108 -3.4387,3.24339 -2.032,1.13323 -4.6111,1.13323 -2.5791,0 -4.6111,-1.13323 -2.032,-1.17231 -3.4779,-3.24339 -1.4067,-2.07109 -2.1492,-4.96279 -0.7425,-2.8917 -0.7425,-6.36955 0,-2.81355 0.4689,-5.23632 0.469,-2.42278 1.3677,-4.29848 0.8988,-1.91477 2.2274,-3.24339 1.3287,-1.3677 3.048,-2.03201 -1.4067,-0.82061 -2.4618,-2.11016 -1.016,-1.32862 -1.7194,-2.85262 -0.6643,-1.563081 -1.016,-3.28247 -0.3126,-1.719389 -0.3126,-3.360624 0,-3.008932 0.6643,-5.509861 0.6643,-2.50093 1.8757,-4.298474 1.2505,-1.797543 2.9698,-2.774469 1.7194,-1.016002 3.7905,-1.016002 2.0711,0 3.7905,1.016002 1.7194,0.976926 2.9698,2.774469 1.2505,1.797544 1.9539,4.298474 0.7034,2.500929 0.7034,5.509861 0,1.641235 -0.3517,3.399701 -0.3126,1.719389 -1.016,3.321548 -0.6643,1.563085 -1.7194,2.891695 -1.016,1.32862 -2.4228,2.14924 z m 0.7034,-11.488645 q 0,-1.914775 -0.2735,-3.673241 -0.2345,-1.758466 -0.7816,-3.087085 -0.508,-1.367696 -1.4067,-2.149237 -0.8597,-0.78154 -2.0711,-0.78154 -1.2505,0 -2.1493,0.78154 -0.8597,0.781541 -1.4067,2.149237 -0.5471,1.328619 -0.7816,3.087085 -0.2344,1.758466 -0.2344,3.673241 0,1.914774 0.2735,3.673241 0.2735,1.758466 0.8206,3.087085 0.5862,1.328619 1.4459,2.110159 0.8597,0.78154 2.032,0.78154 1.1723,0 2.032,-0.78154 0.8597,-0.78154 1.4067,-2.110159 0.5471,-1.328619 0.8207,-3.087085 0.2735,-1.758467 0.2735,-3.673241 z m -4.5329,13.598805 q -2.8527,0 -4.4548,3.16524 -1.5631,3.16524 -1.5631,8.83141 0,5.62709 1.524,8.87048 1.524,3.20432 4.4939,3.20432 2.9307,0 4.4548,-3.20432 1.524,-3.24339 1.524,-8.87048 0,-2.81355 -0.4299,-5.04094 -0.3908,-2.22739 -1.1723,-3.75139 -0.7815,-1.56308 -1.9148,-2.3837 -1.0941,-0.82062 -2.4618,-0.82062 z" inkscape:connector-curvature="0"/>
      </g>
      <g id="text29823" style="font-style:normal;font-variant:normal;font-weight:normal;font-stretch:normal;font-size:80.02975464px;line-height:125%;font-family:'Stint Ultra Condensed';-inkscape-font-specification:'Stint Ultra Condensed, ';font-variant-ligatures:normal;font-variant-caps:normal;font-variant-numeric:normal;font-feature-settings:normal;text-align:center;letter-spacing:0px;word-spacing:0px;writing-mode:lr-tb;text-anchor:middle;display:inline;fill:#e6180a;fill-opacity:1;stroke:none;stroke-width:1.00037193" transform="rotate(180,-1044.3882,39.919876)" aria-label="8">
        <path id="path12677" style="font-style:normal;font-variant:normal;font-weight:normal;font-stretch:normal;font-size:80.02975464px;font-family:'Stint Ultra Condensed';-inkscape-font-specification:'Stint Ultra Condensed, ';text-align:center;text-anchor:middle;fill:#e6180a;fill-opacity:1;stroke-width:1.00037193" d="m -3855.4048,-367.36316 q 3.556,1.32862 5.3144,5.15817 1.7976,3.82955 1.7976,9.49571 0,3.47786 -0.7425,6.36956 -0.7424,2.8917 -2.1492,4.96278 -1.4068,2.07109 -3.4388,3.2434 -2.032,1.13323 -4.6111,1.13323 -2.5791,0 -4.6111,-1.13323 -2.032,-1.17231 -3.4778,-3.2434 -1.4068,-2.07108 -2.1493,-4.96278 -0.7424,-2.8917 -0.7424,-6.36956 0,-2.81354 0.4689,-5.23632 0.4689,-2.42277 1.3677,-4.29847 0.8988,-1.91477 2.2274,-3.24339 1.3286,-1.3677 3.048,-2.03201 -1.4068,-0.82062 -2.4619,-2.11016 -1.016,-1.32862 -1.7193,-2.85262 -0.6644,-1.56308 -1.016,-3.28247 -0.3127,-1.71939 -0.3127,-3.36063 0,-3.00893 0.6643,-5.50986 0.6644,-2.50093 1.8757,-4.29847 1.2505,-1.79754 2.9699,-2.77447 1.7194,-1.016 3.7905,-1.016 2.0711,0 3.7904,1.016 1.7194,0.97693 2.9699,2.77447 1.2505,1.79754 1.9538,4.29847 0.7034,2.50093 0.7034,5.50986 0,1.64124 -0.3517,3.3997 -0.3126,1.71939 -1.016,3.32155 -0.6643,1.56308 -1.7194,2.8917 -1.016,1.32862 -2.4227,2.14924 z m 0.7034,-11.48865 q 0,-1.91477 -0.2736,-3.67324 -0.2344,-1.75846 -0.7815,-3.08708 -0.508,-1.3677 -1.4068,-2.14924 -0.8597,-0.78154 -2.0711,-0.78154 -1.2504,0 -2.1492,0.78154 -0.8597,0.78154 -1.4068,2.14924 -0.5471,1.32862 -0.7815,3.08708 -0.2345,1.75847 -0.2345,3.67324 0,1.91478 0.2736,3.67324 0.2735,1.75847 0.8206,3.08709 0.5861,1.32862 1.4458,2.11016 0.8597,0.78154 2.032,0.78154 1.1723,0 2.032,-0.78154 0.8597,-0.78154 1.4068,-2.11016 0.5471,-1.32862 0.8206,-3.08709 0.2736,-1.75846 0.2736,-3.67324 z m -4.533,13.59881 q -2.8526,0 -4.4548,3.16524 -1.563,3.16524 -1.563,8.83141 0,5.62709 1.524,8.87048 1.524,3.20432 4.4938,3.20432 2.9308,0 4.4548,-3.20432 1.524,-3.24339 1.524,-8.87048 0,-2.81355 -0.4298,-5.04094 -0.3908,-2.22739 -1.1723,-3.75139 -0.7816,-1.56309 -1.9148,-2.3837 -1.0942,-0.82062 -2.4619,-0.82062 z" inkscape:connector-curvature="0"/>
      </g>
      <g id="g31909" transform="matrix(-3.7797426,0,0,-3.7797426,1671.4214,195.81264)" style="display:inline;stroke-width:0.63496387">
        <path inkscape:connector-curvature="0" id="path31907" d="m 0,0 c -2.56,0 -5.12,0 -7.68,0 0.8747,0.039 1.619,0.605 2.322,1.0728 C -3.779,2.264 -2.3,3.63 -1.132,5.228 -0.587,6.032 -0.0144,6.936 0,7.94 M -7.68,0 c 1.11,-0.035 2.058,-0.7413 2.904,-1.393 1.495,-1.255 2.789,-2.748 3.881,-4.364 C -0.494,-6.426 -0.022,-7.135 0,-7.94 0,-5.293 0,-2.647 0,0 m 0,-7.94 c 0.038,1.182 0.758,2.206 1.438,3.12 1.212,1.51 2.648,2.846 4.228,3.963 C 6.28,-0.474 6.932,-0.0185 7.68,0 5.12,0 2.56,0 0,0 M 7.68,0 C 6.57,0.035 5.622,0.741 4.776,1.392 3.281,2.648 1.987,4.141 0.895,5.757 0.494,6.426 0.0225,7.135 0,7.94 0,5.293 0,2.647 0,0" style="fill:#e6180a;stroke-width:0.63496387"/>
      </g>
      <g style="display:inline;stroke-width:0.63496387" transform="matrix(-3.7797426,0,0,-3.7797426,1755.4526,195.81261)" id="g31913">
        <path style="fill:#e6180a;stroke-width:0.63496387" d="m 0,0 c -2.56,0 -5.12,0 -7.68,0 0.8747,0.039 1.619,0.605 2.322,1.0728 C -3.779,2.264 -2.3,3.63 -1.132,5.228 -0.587,6.032 -0.0144,6.936 0,7.94 M -7.68,0 c 1.11,-0.035 2.058,-0.7413 2.904,-1.393 1.495,-1.255 2.789,-2.748 3.881,-4.364 C -0.494,-6.426 -0.022,-7.135 0,-7.94 0,-5.293 0,-2.647 0,0 m 0,-7.94 c 0.038,1.182 0.758,2.206 1.438,3.12 1.212,1.51 2.648,2.846 4.228,3.963 C 6.28,-0.474 6.932,-0.0185 7.68,0 5.12,0 2.56,0 0,0 M 7.68,0 C 6.57,0.035 5.622,0.741 4.776,1.392 3.281,2.648 1.987,4.141 0.895,5.757 0.494,6.426 0.0225,7.135 0,7.94 0,5.293 0,2.647 0,0" id="path31911" inkscape:connector-curvature="0"/>
      </g>
      <g style="display:inline;stroke-width:0.63496387" transform="matrix(-3.7797426,0,0,-3.7797426,1671.4214,291.84834)" id="g31917">
        <path style="fill:#e6180a;stroke-width:0.63496387" d="m 0,0 c -2.56,0 -5.12,0 -7.68,0 0.8747,0.039 1.619,0.605 2.322,1.0728 C -3.779,2.264 -2.3,3.63 -1.132,5.228 -0.587,6.032 -0.0144,6.936 0,7.94 M -7.68,0 c 1.11,-0.035 2.058,-0.7413 2.904,-1.393 1.495,-1.255 2.789,-2.748 3.881,-4.364 C -0.494,-6.426 -0.022,-7.135 0,-7.94 0,-5.293 0,-2.647 0,0 m 0,-7.94 c 0.038,1.182 0.758,2.206 1.438,3.12 1.212,1.51 2.648,2.846 4.228,3.963 C 6.28,-0.474 6.932,-0.0185 7.68,0 5.12,0 2.56,0 0,0 M 7.68,0 C 6.57,0.035 5.622,0.741 4.776,1.392 3.281,2.648 1.987,4.141 0.895,5.757 0.494,6.426 0.0225,7.135 0,7.94 0,5.293 0,2.647 0,0" id="path31915" inkscape:connector-curvature="0"/>
      </g>
      <g id="g31921" transform="matrix(-3.7797426,0,0,-3.7797426,1755.4525,291.84831)" style="display:inline;stroke-width:0.63496387">
        <path inkscape:connector-curvature="0" id="path31919" d="m 0,0 c -2.56,0 -5.12,0 -7.68,0 0.8747,0.039 1.619,0.605 2.322,1.0728 C -3.779,2.264 -2.3,3.63 -1.132,5.228 -0.587,6.032 -0.0144,6.936 0,7.94 M -7.68,0 c 1.11,-0.035 2.058,-0.7413 2.904,-1.393 1.495,-1.255 2.789,-2.748 3.881,-4.364 C -0.494,-6.426 -0.022,-7.135 0,-7.94 0,-5.293 0,-2.647 0,0 m 0,-7.94 c 0.038,1.182 0.758,2.206 1.438,3.12 1.212,1.51 2.648,2.846 4.228,3.963 C 6.28,-0.474 6.932,-0.0185 7.68,0 5.12,0 2.56,0 0,0 M 7.68,0 C 6.57,0.035 5.622,0.741 4.776,1.392 3.281,2.648 1.987,4.141 0.895,5.757 0.494,6.426 0.0225,7.135 0,7.94 0,5.293 0,2.647 0,0" style="fill:#e6180a;stroke-width:0.63496387"/>
      </g>
      <g id="g31925" transform="matrix(3.7797426,0,0,3.7797426,1629.4058,435.90189)" style="display:inline;stroke-width:0.63496387">
        <path inkscape:connector-curvature="0" id="path31923" d="m 0,0 c -2.56,0 -5.12,0 -7.68,0 0.8747,0.039 1.619,0.605 2.322,1.0728 C -3.779,2.264 -2.3,3.63 -1.132,5.228 -0.587,6.032 -0.0144,6.936 0,7.94 M -7.68,0 c 1.11,-0.035 2.058,-0.7413 2.904,-1.393 1.495,-1.255 2.789,-2.748 3.881,-4.364 C -0.494,-6.426 -0.022,-7.135 0,-7.94 0,-5.293 0,-2.647 0,0 m 0,-7.94 c 0.038,1.182 0.758,2.206 1.438,3.12 1.212,1.51 2.648,2.846 4.228,3.963 C 6.28,-0.474 6.932,-0.0185 7.68,0 5.12,0 2.56,0 0,0 M 7.68,0 C 6.57,0.035 5.622,0.741 4.776,1.392 3.281,2.648 1.987,4.141 0.895,5.757 0.494,6.426 0.0225,7.135 0,7.94 0,5.293 0,2.647 0,0" style="fill:#e6180a;stroke-width:0.63496387"/>
      </g>
      <g style="display:inline;stroke-width:0.63496387" transform="matrix(3.7797426,0,0,3.7797426,1713.437,435.9019)" id="g31929">
        <path style="fill:#e6180a;stroke-width:0.63496387" d="m 0,0 c -2.56,0 -5.12,0 -7.68,0 0.8747,0.039 1.619,0.605 2.322,1.0728 C -3.779,2.264 -2.3,3.63 -1.132,5.228 -0.587,6.032 -0.0144,6.936 0,7.94 M -7.68,0 c 1.11,-0.035 2.058,-0.7413 2.904,-1.393 1.495,-1.255 2.789,-2.748 3.881,-4.364 C -0.494,-6.426 -0.022,-7.135 0,-7.94 0,-5.293 0,-2.647 0,0 m 0,-7.94 c 0.038,1.182 0.758,2.206 1.438,3.12 1.212,1.51 2.648,2.846 4.228,3.963 C 6.28,-0.474 6.932,-0.0185 7.68,0 5.12,0 2.56,0 0,0 M 7.68,0 C 6.57,0.035 5.622,0.741 4.776,1.392 3.281,2.648 1.987,4.141 0.895,5.757 0.494,6.426 0.0225,7.135 0,7.94 0,5.293 0,2.647 0,0" id="path31927" inkscape:connector-curvature="0"/>
      </g>
      <g style="display:inline;stroke-width:0.63496387" transform="matrix(3.7797426,0,0,3.7797426,1629.4057,339.86618)" id="g31933">
        <path style="fill:#e6180a;stroke-width:0.63496387" d="m 0,0 c -2.56,0 -5.12,0 -7.68,0 0.8747,0.039 1.619,0.605 2.322,1.0728 C -3.779,2.264 -2.3,3.63 -1.132,5.228 -0.587,6.032 -0.0144,6.936 0,7.94 M -7.68,0 c 1.11,-0.035 2.058,-0.7413 2.904,-1.393 1.495,-1.255 2.789,-2.748 3.881,-4.364 C -0.494,-6.426 -0.022,-7.135 0,-7.94 0,-5.293 0,-2.647 0,0 m 0,-7.94 c 0.038,1.182 0.758,2.206 1.438,3.12 1.212,1.51 2.648,2.846 4.228,3.963 C 6.28,-0.474 6.932,-0.0185 7.68,0 5.12,0 2.56,0 0,0 M 7.68,0 C 6.57,0.035 5.622,0.741 4.776,1.392 3.281,2.648 1.987,4.141 0.895,5.757 0.494,6.426 0.0225,7.135 0,7.94 0,5.293 0,2.647 0,0" id="path31931" inkscape:connector-curvature="0"/>
      </g>
      <g id="g31937" transform="matrix(3.7797426,0,0,3.7797426,1713.437,339.86619)" style="display:inline;stroke-width:0.63496387">
        <path inkscape:connector-curvature="0" id="path31935" d="m 0,0 c -2.56,0 -5.12,0 -7.68,0 0.8747,0.039 1.619,0.605 2.322,1.0728 C -3.779,2.264 -2.3,3.63 -1.132,5.228 -0.587,6.032 -0.0144,6.936 0,7.94 M -7.68,0 c 1.11,-0.035 2.058,-0.7413 2.904,-1.393 1.495,-1.255 2.789,-2.748 3.881,-4.364 C -0.494,-6.426 -0.022,-7.135 0,-7.94 0,-5.293 0,-2.647 0,0 m 0,-7.94 c 0.038,1.182 0.758,2.206 1.438,3.12 1.212,1.51 2.648,2.846 4.228,3.963 C 6.28,-0.474 6.932,-0.0185 7.68,0 5.12,0 2.56,0 0,0 M 7.68,0 C 6.57,0.035 5.622,0.741 4.776,1.392 3.281,2.648 1.987,4.141 0.895,5.757 0.494,6.426 0.0225,7.135 0,7.94 0,5.293 0,2.647 0,0" style="fill:#e6180a;stroke-width:0.63496387"/>
      </g>
      <g style="display:inline;stroke-width:1.0582732" transform="matrix(-2.2678455,0,0,-2.2678455,1614.4003,237.82816)" id="g32069">
        <path style="fill:#e6180a;stroke-width:1.0582732" d="m 0,0 c -2.56,0 -5.12,0 -7.68,0 0.8747,0.039 1.619,0.605 2.322,1.0728 C -3.779,2.264 -2.3,3.63 -1.132,5.228 -0.587,6.032 -0.0144,6.936 0,7.94 M -7.68,0 c 1.11,-0.035 2.058,-0.7413 2.904,-1.393 1.495,-1.255 2.789,-2.748 3.881,-4.364 C -0.494,-6.426 -0.022,-7.135 0,-7.94 0,-5.293 0,-2.647 0,0 m 0,-7.94 c 0.038,1.182 0.758,2.206 1.438,3.12 1.212,1.51 2.648,2.846 4.228,3.963 C 6.28,-0.474 6.932,-0.0185 7.68,0 5.12,0 2.56,0 0,0 M 7.68,0 C 6.57,0.035 5.622,0.741 4.776,1.392 3.281,2.648 1.987,4.141 0.895,5.757 0.494,6.426 0.0225,7.135 0,7.94 0,5.293 0,2.647 0,0" id="path32067" inkscape:connector-curvature="0"/>
      </g>
      <g id="g32073" transform="matrix(2.2678455,0,0,2.2678455,1770.4582,393.88621)" style="display:inline;stroke-width:1.0582732">
        <path inkscape:connector-curvature="0" id="path32071" d="m 0,0 c -2.56,0 -5.12,0 -7.68,0 0.8747,0.039 1.619,0.605 2.322,1.0728 C -3.779,2.264 -2.3,3.63 -1.132,5.228 -0.587,6.032 -0.0144,6.936 0,7.94 M -7.68,0 c 1.11,-0.035 2.058,-0.7413 2.904,-1.393 1.495,-1.255 2.789,-2.748 3.881,-4.364 C -0.494,-6.426 -0.022,-7.135 0,-7.94 0,-5.293 0,-2.647 0,0 m 0,-7.94 c 0.038,1.182 0.758,2.206 1.438,3.12 1.212,1.51 2.648,2.846 4.228,3.963 C 6.28,-0.474 6.932,-0.0185 7.68,0 5.12,0 2.56,0 0,0 M 7.68,0 C 6.57,0.035 5.622,0.741 4.776,1.392 3.281,2.648 1.987,4.141 0.895,5.757 0.494,6.426 0.0225,7.135 0,7.94 0,5.293 0,2.647 0,0" style="fill:#e6180a;stroke-width:1.0582732"/>
      </g>
    </g>
  </g></svg>
