<?xml version='1.0' encoding='UTF-8'?>
<!-- Created with Inkscape (http://www.inkscape.org/) and export_objects.py -->
<svg xmlns:cc="http://creativecommons.org/ns#" xmlns:dc="http://purl.org/dc/elements/1.1/" xmlns:inkscape="http://www.inkscape.org/namespaces/inkscape" xmlns:rdf="http://www.w3.org/1999/02/22-rdf-syntax-ns#" xmlns:sodipodi="http://sodipodi.sourceforge.net/DTD/sodipodi-0.dtd" xmlns:xlink="http://www.w3.org/1999/xlink" xmlns="http://www.w3.org/2000/svg" version="1.1" width="57.1500026458mm" height="88.8999973542mm" viewBox="0 0 57.1500026458 88.8999973542" id="svg24051" sodipodi:docname="diamond-012.svg"><sodipodi:namedview id="base" pagecolor="#ffffff" bordercolor="#666666" borderopacity="1.0" inkscape:pageopacity="0.0" inkscape:pageshadow="2" inkscape:zoom="0.35" inkscape:cx="-50" inkscape:cy="560" inkscape:document-units="mm" inkscape:current-layer="layer1" showgrid="false" inkscape:lockguides="true" inkscape:window-width="1280" inkscape:window-height="940" inkscape:window-x="1909" inkscape:window-y="43" inkscape:window-maximized="1"/>
  <metadata id="metadata24048">
    <rdf:RDF>
      <cc:Work rdf:about="">
        <dc:format>image/svg+xml</dc:format>
        <dc:type rdf:resource="http://purl.org/dc/dcmitype/StillImage"/>
      </cc:Work>
    </rdf:RDF>
  </metadata>
  <g inkscape:groupmode="layer" inkscape:label="diamond-" transform="matrix(1.000000,0.000000,0.000000,1.000000,-239.788118,-24.252385)"><g transform="matrix(0.26448498,0,0,0.26448498,-528.50898,-14.837099)" id="g17732" inkscape:label="012">
      <rect y="147.79472" x="2904.8799" height="336.12494" width="216.08034" id="rect29795" style="display:inline;opacity:1;fill:#ffffff;fill-opacity:1;stroke:none;stroke-width:0.13338292;stroke-linecap:butt;stroke-linejoin:miter;stroke-miterlimit:47.14606857;stroke-dasharray:none;stroke-dashoffset:0;stroke-opacity:1;paint-order:markers fill stroke"/>
      <g id="text29859" style="font-style:normal;font-variant:normal;font-weight:normal;font-stretch:normal;font-size:80.02975464px;line-height:125%;font-family:'Stint Ultra Condensed';-inkscape-font-specification:'Stint Ultra Condensed, ';font-variant-ligatures:normal;font-variant-caps:normal;font-variant-numeric:normal;font-feature-settings:normal;text-align:center;letter-spacing:0px;word-spacing:0px;writing-mode:lr-tb;text-anchor:middle;display:inline;fill:#e6180a;fill-opacity:1;stroke:none;stroke-width:1.00037193" aria-label="3" transform="translate(-2088.7764,79.839752)">
        <path id="path12650" style="font-style:normal;font-variant:normal;font-weight:normal;font-stretch:normal;font-size:80.02975464px;font-family:'Stint Ultra Condensed';-inkscape-font-specification:'Stint Ultra Condensed, ';text-align:center;text-anchor:middle;fill:#e6180a;fill-opacity:1;stroke-width:1.00037193" d="m 5024.449,100.6078 q 3.1262,0.78154 4.9628,2.69632 1.8757,1.87569 2.8135,4.29847 0.977,2.3837 1.2505,5.00186 0.3126,2.57908 0.3126,4.72832 0,4.22032 -0.7424,7.54187 -0.7425,3.28247 -2.1493,5.54893 -1.4067,2.26647 -3.3997,3.43878 -1.9538,1.17231 -4.4157,1.17231 -2.0711,0 -3.9077,-1.016 -1.7975,-0.97692 -3.1652,-3.20432 -1.3677,-2.22739 -2.1493,-5.74432 -0.7815,-3.55601 -0.7815,-8.63602 h 4.8065 q 0,7.46371 1.3286,10.90249 1.3286,3.43878 4.1031,3.43878 1.524,0 2.5791,-1.05508 1.0551,-1.09416 1.6803,-2.93078 0.6643,-1.83662 0.9378,-4.2594 0.3126,-2.42277 0.3126,-5.11909 0,-2.93077 -0.4689,-5.31447 -0.4689,-2.42278 -1.524,-4.14217 -1.016,-1.71939 -2.6963,-2.65724 -1.6803,-0.97692 -4.1031,-1.016 v -4.22032 l 8.0108,-15.318192 h -9.6911 v 8.440638 h -4.2594 v -12.89542 h 19.4604 v 3.360625 z" inkscape:connector-curvature="0"/>
      </g>
      <g id="text29863" style="font-style:normal;font-variant:normal;font-weight:normal;font-stretch:normal;font-size:80.02975464px;line-height:125%;font-family:'Stint Ultra Condensed';-inkscape-font-specification:'Stint Ultra Condensed, ';font-variant-ligatures:normal;font-variant-caps:normal;font-variant-numeric:normal;font-feature-settings:normal;text-align:center;letter-spacing:0px;word-spacing:0px;writing-mode:lr-tb;text-anchor:middle;display:inline;fill:#e6180a;fill-opacity:1;stroke:none;stroke-width:1.00037193" transform="rotate(180,-1044.3882,39.919876)" aria-label="3">
        <path id="path12647" style="font-style:normal;font-variant:normal;font-weight:normal;font-stretch:normal;font-size:80.02975464px;font-family:'Stint Ultra Condensed';-inkscape-font-specification:'Stint Ultra Condensed, ';text-align:center;text-anchor:middle;fill:#e6180a;fill-opacity:1;stroke-width:1.00037193" d="m -5178.944,-371.42723 q 3.1261,0.78154 4.9627,2.69631 1.8757,1.8757 2.8136,4.29848 0.9769,2.38369 1.2504,5.00185 0.3127,2.57909 0.3127,4.72833 0,4.22031 -0.7425,7.54186 -0.7425,3.28247 -2.1492,5.54894 -1.4068,2.26647 -3.3997,3.43878 -1.9539,1.17231 -4.4157,1.17231 -2.0711,0 -3.9077,-1.016 -1.7976,-0.97693 -3.1653,-3.20432 -1.3677,-2.22739 -2.1492,-5.74432 -0.7816,-3.55601 -0.7816,-8.63603 h 4.8065 q 0,7.46372 1.3286,10.90249 1.3287,3.43878 4.1031,3.43878 1.524,0 2.5791,-1.05508 1.0551,-1.09415 1.6803,-2.93077 0.6643,-1.83662 0.9379,-4.2594 0.3126,-2.42278 0.3126,-5.11909 0,-2.93078 -0.4689,-5.31448 -0.469,-2.42277 -1.524,-4.14216 -1.016,-1.71939 -2.6964,-2.65724 -1.6803,-0.97693 -4.103,-1.016 v -4.22032 l 8.0107,-15.3182 h -9.6911 v 8.44064 h -4.2594 v -12.89542 h 19.4604 v 3.36063 z" inkscape:connector-curvature="0"/>
      </g>
      <g id="g32029" transform="matrix(-3.7797426,0,0,-3.7797426,3012.9206,315.85723)" style="display:inline;stroke-width:0.63496387">
        <path inkscape:connector-curvature="0" id="path32027" d="m 0,0 c -2.56,0 -5.12,0 -7.68,0 0.8747,0.039 1.619,0.605 2.322,1.0728 C -3.779,2.264 -2.3,3.63 -1.132,5.228 -0.587,6.032 -0.0144,6.936 0,7.94 M -7.68,0 c 1.11,-0.035 2.058,-0.7413 2.904,-1.393 1.495,-1.255 2.789,-2.748 3.881,-4.364 C -0.494,-6.426 -0.022,-7.135 0,-7.94 0,-5.293 0,-2.647 0,0 m 0,-7.94 c 0.038,1.182 0.758,2.206 1.438,3.12 1.212,1.51 2.648,2.846 4.228,3.963 C 6.28,-0.474 6.932,-0.0185 7.68,0 5.12,0 2.56,0 0,0 M 7.68,0 C 6.57,0.035 5.622,0.741 4.776,1.392 3.281,2.648 1.987,4.141 0.895,5.757 0.494,6.426 0.0225,7.135 0,7.94 0,5.293 0,2.647 0,0" style="fill:#e6180a;stroke-width:0.63496387"/>
      </g>
      <g style="display:inline;stroke-width:0.63496387" transform="matrix(-3.7797426,0,0,-3.7797426,3012.9204,195.81265)" id="g32033">
        <path style="fill:#e6180a;stroke-width:0.63496387" d="m 0,0 c -2.56,0 -5.12,0 -7.68,0 0.8747,0.039 1.619,0.605 2.322,1.0728 C -3.779,2.264 -2.3,3.63 -1.132,5.228 -0.587,6.032 -0.0144,6.936 0,7.94 M -7.68,0 c 1.11,-0.035 2.058,-0.7413 2.904,-1.393 1.495,-1.255 2.789,-2.748 3.881,-4.364 C -0.494,-6.426 -0.022,-7.135 0,-7.94 0,-5.293 0,-2.647 0,0 m 0,-7.94 c 0.038,1.182 0.758,2.206 1.438,3.12 1.212,1.51 2.648,2.846 4.228,3.963 C 6.28,-0.474 6.932,-0.0185 7.68,0 5.12,0 2.56,0 0,0 M 7.68,0 C 6.57,0.035 5.622,0.741 4.776,1.392 3.281,2.648 1.987,4.141 0.895,5.757 0.494,6.426 0.0225,7.135 0,7.94 0,5.293 0,2.647 0,0" id="path32031" inkscape:connector-curvature="0"/>
      </g>
      <g style="display:inline;stroke-width:0.63496387" transform="matrix(3.7797426,0,0,3.7797426,3012.9207,435.90195)" id="g32037">
        <path style="fill:#e6180a;stroke-width:0.63496387" d="m 0,0 c -2.56,0 -5.12,0 -7.68,0 0.8747,0.039 1.619,0.605 2.322,1.0728 C -3.779,2.264 -2.3,3.63 -1.132,5.228 -0.587,6.032 -0.0144,6.936 0,7.94 M -7.68,0 c 1.11,-0.035 2.058,-0.7413 2.904,-1.393 1.495,-1.255 2.789,-2.748 3.881,-4.364 C -0.494,-6.426 -0.022,-7.135 0,-7.94 0,-5.293 0,-2.647 0,0 m 0,-7.94 c 0.038,1.182 0.758,2.206 1.438,3.12 1.212,1.51 2.648,2.846 4.228,3.963 C 6.28,-0.474 6.932,-0.0185 7.68,0 5.12,0 2.56,0 0,0 M 7.68,0 C 6.57,0.035 5.622,0.741 4.776,1.392 3.281,2.648 1.987,4.141 0.895,5.757 0.494,6.426 0.0225,7.135 0,7.94 0,5.293 0,2.647 0,0" id="path32035" inkscape:connector-curvature="0"/>
      </g>
      <g id="g32109" transform="matrix(-2.2678455,0,0,-2.2678455,2934.8917,237.8282)" style="display:inline;stroke-width:1.0582732">
        <path inkscape:connector-curvature="0" id="path32107" d="m 0,0 c -2.56,0 -5.12,0 -7.68,0 0.8747,0.039 1.619,0.605 2.322,1.0728 C -3.779,2.264 -2.3,3.63 -1.132,5.228 -0.587,6.032 -0.0144,6.936 0,7.94 M -7.68,0 c 1.11,-0.035 2.058,-0.7413 2.904,-1.393 1.495,-1.255 2.789,-2.748 3.881,-4.364 C -0.494,-6.426 -0.022,-7.135 0,-7.94 0,-5.293 0,-2.647 0,0 m 0,-7.94 c 0.038,1.182 0.758,2.206 1.438,3.12 1.212,1.51 2.648,2.846 4.228,3.963 C 6.28,-0.474 6.932,-0.0185 7.68,0 5.12,0 2.56,0 0,0 M 7.68,0 C 6.57,0.035 5.622,0.741 4.776,1.392 3.281,2.648 1.987,4.141 0.895,5.757 0.494,6.426 0.0225,7.135 0,7.94 0,5.293 0,2.647 0,0" style="fill:#e6180a;stroke-width:1.0582732"/>
      </g>
      <g style="display:inline;stroke-width:1.0582732" transform="matrix(2.2678455,0,0,2.2678455,3090.9496,393.88627)" id="g32113">
        <path style="fill:#e6180a;stroke-width:1.0582732" d="m 0,0 c -2.56,0 -5.12,0 -7.68,0 0.8747,0.039 1.619,0.605 2.322,1.0728 C -3.779,2.264 -2.3,3.63 -1.132,5.228 -0.587,6.032 -0.0144,6.936 0,7.94 M -7.68,0 c 1.11,-0.035 2.058,-0.7413 2.904,-1.393 1.495,-1.255 2.789,-2.748 3.881,-4.364 C -0.494,-6.426 -0.022,-7.135 0,-7.94 0,-5.293 0,-2.647 0,0 m 0,-7.94 c 0.038,1.182 0.758,2.206 1.438,3.12 1.212,1.51 2.648,2.846 4.228,3.963 C 6.28,-0.474 6.932,-0.0185 7.68,0 5.12,0 2.56,0 0,0 M 7.68,0 C 6.57,0.035 5.622,0.741 4.776,1.392 3.281,2.648 1.987,4.141 0.895,5.757 0.494,6.426 0.0225,7.135 0,7.94 0,5.293 0,2.647 0,0" id="path32111" inkscape:connector-curvature="0"/>
      </g>
    </g>
    </g></svg>
