<?xml version='1.0' encoding='UTF-8'?>
<!-- Created with Inkscape (http://www.inkscape.org/) and export_objects.py -->
<svg xmlns:cc="http://creativecommons.org/ns#" xmlns:dc="http://purl.org/dc/elements/1.1/" xmlns:inkscape="http://www.inkscape.org/namespaces/inkscape" xmlns:rdf="http://www.w3.org/1999/02/22-rdf-syntax-ns#" xmlns:sodipodi="http://sodipodi.sourceforge.net/DTD/sodipodi-0.dtd" xmlns:xlink="http://www.w3.org/1999/xlink" xmlns="http://www.w3.org/2000/svg" version="1.1" width="57.1500026458mm" height="88.8999973542mm" viewBox="0 0 57.1500026458 88.8999973542" id="svg24051" sodipodi:docname="diamond-009.svg"><sodipodi:namedview id="base" pagecolor="#ffffff" bordercolor="#666666" borderopacity="1.0" inkscape:pageopacity="0.0" inkscape:pageshadow="2" inkscape:zoom="0.35" inkscape:cx="-50" inkscape:cy="560" inkscape:document-units="mm" inkscape:current-layer="layer1" showgrid="false" inkscape:lockguides="true" inkscape:window-width="1280" inkscape:window-height="940" inkscape:window-x="1909" inkscape:window-y="43" inkscape:window-maximized="1"/>
  <metadata id="metadata24048">
    <rdf:RDF>
      <cc:Work rdf:about="">
        <dc:format>image/svg+xml</dc:format>
        <dc:type rdf:resource="http://purl.org/dc/dcmitype/StillImage"/>
      </cc:Work>
    </rdf:RDF>
  </metadata>
  <g inkscape:groupmode="layer" inkscape:label="diamond-" transform="matrix(1.000000,0.000000,0.000000,1.000000,-30.238139,-24.252385)"><g transform="matrix(0.26448498,0,0,0.26448498,-528.50898,-14.837099)" id="g17146" inkscape:label="009">
      <rect style="display:inline;opacity:1;fill:#ffffff;fill-opacity:1;stroke:none;stroke-width:0.13338292;stroke-linecap:butt;stroke-linejoin:miter;stroke-miterlimit:47.14606857;stroke-dasharray:none;stroke-dashoffset:0;stroke-opacity:1;paint-order:markers fill stroke" id="rect29789" width="216.08034" height="336.12494" x="2112.5854" y="147.79472"/>
      <g id="text29835" style="font-style:normal;font-variant:normal;font-weight:normal;font-stretch:normal;font-size:80.02975464px;line-height:125%;font-family:'Stint Ultra Condensed';-inkscape-font-specification:'Stint Ultra Condensed, ';font-variant-ligatures:normal;font-variant-caps:normal;font-variant-numeric:normal;font-feature-settings:normal;text-align:center;letter-spacing:0px;word-spacing:0px;writing-mode:lr-tb;text-anchor:middle;display:inline;fill:#e6180a;fill-opacity:1;stroke:none;stroke-width:1.00037193" aria-label="6" transform="translate(-2088.7764,79.839752)">
        <path id="path12668" style="font-style:normal;font-variant:normal;font-weight:normal;font-stretch:normal;font-size:80.02975464px;font-family:'Stint Ultra Condensed';-inkscape-font-specification:'Stint Ultra Condensed, ';text-align:center;text-anchor:middle;fill:#e6180a;fill-opacity:1;stroke-width:1.00037193" d="m 4225.8241,106.1176 q 0.2735,-0.70339 0.7815,-1.79754 0.5471,-1.09416 1.4068,-2.11016 0.8988,-1.05508 2.1493,-1.75847 1.2504,-0.742461 2.9698,-0.742461 1.9148,0 3.5951,1.094161 1.6803,1.09415 2.8917,3.28247 1.2505,2.18831 1.9539,5.50986 0.7424,3.28247 0.7424,7.73725 0,3.67324 -0.7034,6.91663 -0.6643,3.20432 -1.9538,5.62709 -1.2896,2.3837 -3.1653,3.79048 -1.8757,1.36769 -4.2594,1.36769 -2.3837,0 -4.4547,-1.60216 -2.032,-1.64123 -3.556,-4.88462 -1.5241,-3.28247 -2.4228,-8.20618 -0.8597,-4.92371 -0.8597,-11.5668 0,-6.7994 0.6643,-12.231111 0.6643,-5.470784 2.032,-9.300333 1.4068,-3.829548 3.5169,-5.861554 2.1493,-2.071082 5.08,-2.071082 1.8757,0 3.5561,1.055079 1.6803,1.016003 2.9307,3.048009 1.2896,2.032005 1.993,5.080013 0.7424,3.008932 0.7424,6.994789 h -4.8065 q 0,-5.822478 -1.1723,-8.870486 -1.1332,-3.048008 -3.4778,-3.048008 -1.6413,0 -2.8136,1.83662 -1.1723,1.797543 -1.9147,4.884629 -0.7425,3.087085 -1.0942,7.190173 -0.3517,4.064012 -0.3517,8.636022 z m 6.3305,-2.14924 q -1.2114,0 -2.1883,1.13324 -0.977,1.13323 -1.7585,2.77447 -0.7425,1.64123 -1.2505,3.51693 -0.508,1.8757 -0.7424,3.36062 -0.078,2.93078 0.3126,5.7834 0.4298,2.85263 1.2114,5.15817 0.8206,2.26647 1.9538,3.67324 1.1723,1.40678 2.54,1.40678 1.2505,0 2.2274,-0.93785 0.977,-0.97693 1.6413,-2.73539 0.6643,-1.75847 0.9769,-4.22032 0.3517,-2.50093 0.3517,-5.54894 0,-3.12616 -0.3126,-5.58802 -0.3126,-2.50093 -0.977,-4.22032 -0.6252,-1.71938 -1.6412,-2.61816 -0.9769,-0.93785 -2.3446,-0.93785 z" inkscape:connector-curvature="0"/>
      </g>
      <g id="text29839" style="font-style:normal;font-variant:normal;font-weight:normal;font-stretch:normal;font-size:80.02975464px;line-height:125%;font-family:'Stint Ultra Condensed';-inkscape-font-specification:'Stint Ultra Condensed, ';font-variant-ligatures:normal;font-variant-caps:normal;font-variant-numeric:normal;font-feature-settings:normal;text-align:center;letter-spacing:0px;word-spacing:0px;writing-mode:lr-tb;text-anchor:middle;display:inline;fill:#e6180a;fill-opacity:1;stroke:none;stroke-width:1.00037193" transform="rotate(180,-1044.3882,39.919876)" aria-label="6">
        <path id="path12665" style="font-style:normal;font-variant:normal;font-weight:normal;font-stretch:normal;font-size:80.02975464px;font-family:'Stint Ultra Condensed';-inkscape-font-specification:'Stint Ultra Condensed, ';text-align:center;text-anchor:middle;fill:#e6180a;fill-opacity:1;stroke-width:1.00037193" d="m -4392.9801,-365.91731 q 0.2735,-0.70339 0.7816,-1.79754 0.547,-1.09416 1.4067,-2.11016 0.8988,-1.05508 2.1493,-1.75847 1.2504,-0.74246 2.9698,-0.74246 1.9148,0 3.5951,1.09415 1.6803,1.09416 2.8917,3.28247 1.2505,2.18832 1.9539,5.50986 0.7424,3.28248 0.7424,7.73726 0,3.67324 -0.7034,6.91663 -0.6643,3.20432 -1.9538,5.62709 -1.2896,2.3837 -3.1653,3.79047 -1.8757,1.3677 -4.2594,1.3677 -2.3837,0 -4.4547,-1.60216 -2.032,-1.64123 -3.556,-4.88463 -1.5241,-3.28247 -2.4228,-8.20617 -0.8597,-4.92371 -0.8597,-11.5668 0,-6.79941 0.6643,-12.23111 0.6643,-5.47079 2.032,-9.30034 1.4068,-3.82954 3.5169,-5.86155 2.1493,-2.07108 5.08,-2.07108 1.8757,0 3.5561,1.05508 1.6803,1.016 2.9307,3.04801 1.2896,2.032 1.993,5.08001 0.7424,3.00893 0.7424,6.99479 h -4.8065 q 0,-5.82248 -1.1723,-8.87049 -1.1332,-3.04801 -3.4778,-3.04801 -1.6413,0 -2.8136,1.83662 -1.1723,1.79755 -1.9147,4.88463 -0.7425,3.08709 -1.0942,7.19018 -0.3517,4.06401 -0.3517,8.63602 z m 6.3305,-2.14924 q -1.2114,0 -2.1883,1.13324 -0.977,1.13323 -1.7585,2.77447 -0.7425,1.64123 -1.2505,3.51693 -0.508,1.8757 -0.7424,3.36062 -0.078,2.93078 0.3126,5.7834 0.4298,2.85263 1.2114,5.15817 0.8206,2.26647 1.9538,3.67324 1.1723,1.40677 2.54,1.40677 1.2505,0 2.2274,-0.93784 0.977,-0.97693 1.6413,-2.7354 0.6643,-1.75846 0.9769,-4.22032 0.3517,-2.50093 0.3517,-5.54893 0,-3.12617 -0.3126,-5.58802 -0.3126,-2.50093 -0.977,-4.22032 -0.6252,-1.71939 -1.6412,-2.61816 -0.9769,-0.93785 -2.3446,-0.93785 z" inkscape:connector-curvature="0"/>
      </g>
      <g style="display:inline;stroke-width:0.63496387" transform="matrix(-3.7797426,0,0,-3.7797426,2256.639,315.85718)" id="g31969">
        <path style="fill:#e6180a;stroke-width:0.63496387" d="m 0,0 c -2.56,0 -5.12,0 -7.68,0 0.8747,0.039 1.619,0.605 2.322,1.0728 C -3.779,2.264 -2.3,3.63 -1.132,5.228 -0.587,6.032 -0.0144,6.936 0,7.94 M -7.68,0 c 1.11,-0.035 2.058,-0.7413 2.904,-1.393 1.495,-1.255 2.789,-2.748 3.881,-4.364 C -0.494,-6.426 -0.022,-7.135 0,-7.94 0,-5.293 0,-2.647 0,0 m 0,-7.94 c 0.038,1.182 0.758,2.206 1.438,3.12 1.212,1.51 2.648,2.846 4.228,3.963 C 6.28,-0.474 6.932,-0.0185 7.68,0 5.12,0 2.56,0 0,0 M 7.68,0 C 6.57,0.035 5.622,0.741 4.776,1.392 3.281,2.648 1.987,4.141 0.895,5.757 0.494,6.426 0.0225,7.135 0,7.94 0,5.293 0,2.647 0,0" id="path31967" inkscape:connector-curvature="0"/>
      </g>
      <g style="display:inline;stroke-width:0.63496387" transform="matrix(-3.7797426,0,0,-3.7797426,2190.6145,315.85718)" id="g31973">
        <path style="fill:#e6180a;stroke-width:0.63496387" d="m 0,0 c -2.56,0 -5.12,0 -7.68,0 0.8747,0.039 1.619,0.605 2.322,1.0728 C -3.779,2.264 -2.3,3.63 -1.132,5.228 -0.587,6.032 -0.0144,6.936 0,7.94 M -7.68,0 c 1.11,-0.035 2.058,-0.7413 2.904,-1.393 1.495,-1.255 2.789,-2.748 3.881,-4.364 C -0.494,-6.426 -0.022,-7.135 0,-7.94 0,-5.293 0,-2.647 0,0 m 0,-7.94 c 0.038,1.182 0.758,2.206 1.438,3.12 1.212,1.51 2.648,2.846 4.228,3.963 C 6.28,-0.474 6.932,-0.0185 7.68,0 5.12,0 2.56,0 0,0 M 7.68,0 C 6.57,0.035 5.622,0.741 4.776,1.392 3.281,2.648 1.987,4.141 0.895,5.757 0.494,6.426 0.0225,7.135 0,7.94 0,5.293 0,2.647 0,0" id="path31971" inkscape:connector-curvature="0"/>
      </g>
      <g id="g31977" transform="matrix(-3.7797426,0,0,-3.7797426,2220.6255,195.81261)" style="display:inline;stroke-width:0.63496387">
        <path inkscape:connector-curvature="0" id="path31975" d="m 0,0 c -2.56,0 -5.12,0 -7.68,0 0.8747,0.039 1.619,0.605 2.322,1.0728 C -3.779,2.264 -2.3,3.63 -1.132,5.228 -0.587,6.032 -0.0144,6.936 0,7.94 M -7.68,0 c 1.11,-0.035 2.058,-0.7413 2.904,-1.393 1.495,-1.255 2.789,-2.748 3.881,-4.364 C -0.494,-6.426 -0.022,-7.135 0,-7.94 0,-5.293 0,-2.647 0,0 m 0,-7.94 c 0.038,1.182 0.758,2.206 1.438,3.12 1.212,1.51 2.648,2.846 4.228,3.963 C 6.28,-0.474 6.932,-0.0185 7.68,0 5.12,0 2.56,0 0,0 M 7.68,0 C 6.57,0.035 5.622,0.741 4.776,1.392 3.281,2.648 1.987,4.141 0.895,5.757 0.494,6.426 0.0225,7.135 0,7.94 0,5.293 0,2.647 0,0" style="fill:#e6180a;stroke-width:0.63496387"/>
      </g>
      <g style="display:inline;stroke-width:0.63496387" transform="matrix(-3.7797426,0,0,-3.7797426,2286.6501,195.81265)" id="g31981">
        <path style="fill:#e6180a;stroke-width:0.63496387" d="m 0,0 c -2.56,0 -5.12,0 -7.68,0 0.8747,0.039 1.619,0.605 2.322,1.0728 C -3.779,2.264 -2.3,3.63 -1.132,5.228 -0.587,6.032 -0.0144,6.936 0,7.94 M -7.68,0 c 1.11,-0.035 2.058,-0.7413 2.904,-1.393 1.495,-1.255 2.789,-2.748 3.881,-4.364 C -0.494,-6.426 -0.022,-7.135 0,-7.94 0,-5.293 0,-2.647 0,0 m 0,-7.94 c 0.038,1.182 0.758,2.206 1.438,3.12 1.212,1.51 2.648,2.846 4.228,3.963 C 6.28,-0.474 6.932,-0.0185 7.68,0 5.12,0 2.56,0 0,0 M 7.68,0 C 6.57,0.035 5.622,0.741 4.776,1.392 3.281,2.648 1.987,4.141 0.895,5.757 0.494,6.426 0.0225,7.135 0,7.94 0,5.293 0,2.647 0,0" id="path31979" inkscape:connector-curvature="0"/>
      </g>
      <g style="display:inline;stroke-width:0.63496387" transform="matrix(3.7797426,0,0,3.7797426,2220.6258,435.90189)" id="g31985">
        <path style="fill:#e6180a;stroke-width:0.63496387" d="m 0,0 c -2.56,0 -5.12,0 -7.68,0 0.8747,0.039 1.619,0.605 2.322,1.0728 C -3.779,2.264 -2.3,3.63 -1.132,5.228 -0.587,6.032 -0.0144,6.936 0,7.94 M -7.68,0 c 1.11,-0.035 2.058,-0.7413 2.904,-1.393 1.495,-1.255 2.789,-2.748 3.881,-4.364 C -0.494,-6.426 -0.022,-7.135 0,-7.94 0,-5.293 0,-2.647 0,0 m 0,-7.94 c 0.038,1.182 0.758,2.206 1.438,3.12 1.212,1.51 2.648,2.846 4.228,3.963 C 6.28,-0.474 6.932,-0.0185 7.68,0 5.12,0 2.56,0 0,0 M 7.68,0 C 6.57,0.035 5.622,0.741 4.776,1.392 3.281,2.648 1.987,4.141 0.895,5.757 0.494,6.426 0.0225,7.135 0,7.94 0,5.293 0,2.647 0,0" id="path31983" inkscape:connector-curvature="0"/>
      </g>
      <g id="g31989" transform="matrix(3.7797426,0,0,3.7797426,2154.6011,435.90189)" style="display:inline;stroke-width:0.63496387">
        <path inkscape:connector-curvature="0" id="path31987" d="m 0,0 c -2.56,0 -5.12,0 -7.68,0 0.8747,0.039 1.619,0.605 2.322,1.0728 C -3.779,2.264 -2.3,3.63 -1.132,5.228 -0.587,6.032 -0.0144,6.936 0,7.94 M -7.68,0 c 1.11,-0.035 2.058,-0.7413 2.904,-1.393 1.495,-1.255 2.789,-2.748 3.881,-4.364 C -0.494,-6.426 -0.022,-7.135 0,-7.94 0,-5.293 0,-2.647 0,0 m 0,-7.94 c 0.038,1.182 0.758,2.206 1.438,3.12 1.212,1.51 2.648,2.846 4.228,3.963 C 6.28,-0.474 6.932,-0.0185 7.68,0 5.12,0 2.56,0 0,0 M 7.68,0 C 6.57,0.035 5.622,0.741 4.776,1.392 3.281,2.648 1.987,4.141 0.895,5.757 0.494,6.426 0.0225,7.135 0,7.94 0,5.293 0,2.647 0,0" style="fill:#e6180a;stroke-width:0.63496387"/>
      </g>
      <g style="display:inline;stroke-width:1.0582732" transform="matrix(-2.2678455,0,0,-2.2678455,2142.5967,237.82816)" id="g32085">
        <path style="fill:#e6180a;stroke-width:1.0582732" d="m 0,0 c -2.56,0 -5.12,0 -7.68,0 0.8747,0.039 1.619,0.605 2.322,1.0728 C -3.779,2.264 -2.3,3.63 -1.132,5.228 -0.587,6.032 -0.0144,6.936 0,7.94 M -7.68,0 c 1.11,-0.035 2.058,-0.7413 2.904,-1.393 1.495,-1.255 2.789,-2.748 3.881,-4.364 C -0.494,-6.426 -0.022,-7.135 0,-7.94 0,-5.293 0,-2.647 0,0 m 0,-7.94 c 0.038,1.182 0.758,2.206 1.438,3.12 1.212,1.51 2.648,2.846 4.228,3.963 C 6.28,-0.474 6.932,-0.0185 7.68,0 5.12,0 2.56,0 0,0 M 7.68,0 C 6.57,0.035 5.622,0.741 4.776,1.392 3.281,2.648 1.987,4.141 0.895,5.757 0.494,6.426 0.0225,7.135 0,7.94 0,5.293 0,2.647 0,0" id="path32083" inkscape:connector-curvature="0"/>
      </g>
      <g id="g32089" transform="matrix(2.2678455,0,0,2.2678455,2298.6546,393.88621)" style="display:inline;stroke-width:1.0582732">
        <path inkscape:connector-curvature="0" id="path32087" d="m 0,0 c -2.56,0 -5.12,0 -7.68,0 0.8747,0.039 1.619,0.605 2.322,1.0728 C -3.779,2.264 -2.3,3.63 -1.132,5.228 -0.587,6.032 -0.0144,6.936 0,7.94 M -7.68,0 c 1.11,-0.035 2.058,-0.7413 2.904,-1.393 1.495,-1.255 2.789,-2.748 3.881,-4.364 C -0.494,-6.426 -0.022,-7.135 0,-7.94 0,-5.293 0,-2.647 0,0 m 0,-7.94 c 0.038,1.182 0.758,2.206 1.438,3.12 1.212,1.51 2.648,2.846 4.228,3.963 C 6.28,-0.474 6.932,-0.0185 7.68,0 5.12,0 2.56,0 0,0 M 7.68,0 C 6.57,0.035 5.622,0.741 4.776,1.392 3.281,2.648 1.987,4.141 0.895,5.757 0.494,6.426 0.0225,7.135 0,7.94 0,5.293 0,2.647 0,0" style="fill:#e6180a;stroke-width:1.0582732"/>
      </g>
    </g>
    </g></svg>
