<?xml version='1.0' encoding='UTF-8'?>
<!-- Created with Inkscape (http://www.inkscape.org/) and export_objects.py -->
<svg xmlns:cc="http://creativecommons.org/ns#" xmlns:dc="http://purl.org/dc/elements/1.1/" xmlns:inkscape="http://www.inkscape.org/namespaces/inkscape" xmlns:rdf="http://www.w3.org/1999/02/22-rdf-syntax-ns#" xmlns:sodipodi="http://sodipodi.sourceforge.net/DTD/sodipodi-0.dtd" xmlns:xlink="http://www.w3.org/1999/xlink" xmlns="http://www.w3.org/2000/svg" version="1.1" width="57.1500026458mm" height="88.8999973542mm" viewBox="0 0 57.1500026458 88.8999973542" id="svg24051" sodipodi:docname="diamond-011.svg"><sodipodi:namedview id="base" pagecolor="#ffffff" bordercolor="#666666" borderopacity="1.0" inkscape:pageopacity="0.0" inkscape:pageshadow="2" inkscape:zoom="0.35" inkscape:cx="-50" inkscape:cy="560" inkscape:document-units="mm" inkscape:current-layer="layer1" showgrid="false" inkscape:lockguides="true" inkscape:window-width="1280" inkscape:window-height="940" inkscape:window-x="1909" inkscape:window-y="43" inkscape:window-maximized="1"/>
  <metadata id="metadata24048">
    <rdf:RDF>
      <cc:Work rdf:about="">
        <dc:format>image/svg+xml</dc:format>
        <dc:type rdf:resource="http://purl.org/dc/dcmitype/StillImage"/>
      </cc:Work>
    </rdf:RDF>
  </metadata>
  <g inkscape:groupmode="layer" inkscape:label="diamond-" transform="matrix(1.000000,0.000000,0.000000,1.000000,-169.938126,-24.252385)"><g transform="matrix(0.26448498,0,0,0.26448498,-528.50898,-14.837099)" id="g17715" inkscape:label="011">
      <rect style="display:inline;opacity:1;fill:#ffffff;fill-opacity:1;stroke:none;stroke-width:0.13338292;stroke-linecap:butt;stroke-linejoin:miter;stroke-miterlimit:47.14606857;stroke-dasharray:none;stroke-dashoffset:0;stroke-opacity:1;paint-order:markers fill stroke" id="rect29793" width="216.08034" height="336.12494" x="2640.7817" y="147.79472"/>
      <g id="text29851" style="font-style:normal;font-variant:normal;font-weight:normal;font-stretch:normal;font-size:80.02975464px;line-height:125%;font-family:'Stint Ultra Condensed';-inkscape-font-specification:'Stint Ultra Condensed, ';font-variant-ligatures:normal;font-variant-caps:normal;font-variant-numeric:normal;font-feature-settings:normal;text-align:center;letter-spacing:0px;word-spacing:0px;writing-mode:lr-tb;text-anchor:middle;display:inline;fill:#e6180a;fill-opacity:1;stroke:none;stroke-width:1.00037193" aria-label="4" transform="translate(-2088.7764,79.839752)">
        <path id="path12656" style="font-style:normal;font-variant:normal;font-weight:normal;font-stretch:normal;font-size:80.02975464px;font-family:'Stint Ultra Condensed';-inkscape-font-specification:'Stint Ultra Condensed, ';text-align:center;text-anchor:middle;fill:#e6180a;fill-opacity:1;stroke-width:1.00037193" d="m 4756.2087,129.56386 h 4.7674 v -9.57387 h -13.1689 v -4.10309 l 11.684,-35.599169 h 6.2132 v 35.521019 h 5.549 v 4.18124 h -5.549 v 9.57387 h 4.8065 v 4.41571 h -14.3022 z m 4.7674,-41.617031 -9.0268,27.861921 h 9.0268 z" inkscape:connector-curvature="0"/>
      </g>
      <g id="text29855" style="font-style:normal;font-variant:normal;font-weight:normal;font-stretch:normal;font-size:80.02975464px;line-height:125%;font-family:'Stint Ultra Condensed';-inkscape-font-specification:'Stint Ultra Condensed, ';font-variant-ligatures:normal;font-variant-caps:normal;font-variant-numeric:normal;font-feature-settings:normal;text-align:center;letter-spacing:0px;word-spacing:0px;writing-mode:lr-tb;text-anchor:middle;display:inline;fill:#e6180a;fill-opacity:1;stroke:none;stroke-width:1.00037193" transform="rotate(180,-1044.3882,39.919876)" aria-label="4">
        <path id="path12653" style="font-style:normal;font-variant:normal;font-weight:normal;font-stretch:normal;font-size:80.02975464px;font-family:'Stint Ultra Condensed';-inkscape-font-specification:'Stint Ultra Condensed, ';text-align:center;text-anchor:middle;fill:#e6180a;fill-opacity:1;stroke-width:1.00037193" d="m -4918.9881,-342.47115 h 4.7674 v -9.57388 h -13.1689 v -4.10308 l 11.684,-35.59918 h 6.2133 v 35.52102 h 5.5489 v 4.18124 h -5.5489 v 9.57388 h 4.8064 v 4.4157 h -14.3022 z m 4.7674,-41.61704 -9.0268,27.86192 h 9.0268 z" inkscape:connector-curvature="0"/>
      </g>
      <g id="g32013" transform="matrix(-3.7797426,0,0,-3.7797426,2814.847,315.85722)" style="display:inline;stroke-width:0.63496387">
        <path inkscape:connector-curvature="0" id="path32011" d="m 0,0 c -2.56,0 -5.12,0 -7.68,0 0.8747,0.039 1.619,0.605 2.322,1.0728 C -3.779,2.264 -2.3,3.63 -1.132,5.228 -0.587,6.032 -0.0144,6.936 0,7.94 M -7.68,0 c 1.11,-0.035 2.058,-0.7413 2.904,-1.393 1.495,-1.255 2.789,-2.748 3.881,-4.364 C -0.494,-6.426 -0.022,-7.135 0,-7.94 0,-5.293 0,-2.647 0,0 m 0,-7.94 c 0.038,1.182 0.758,2.206 1.438,3.12 1.212,1.51 2.648,2.846 4.228,3.963 C 6.28,-0.474 6.932,-0.0185 7.68,0 5.12,0 2.56,0 0,0 M 7.68,0 C 6.57,0.035 5.622,0.741 4.776,1.392 3.281,2.648 1.987,4.141 0.895,5.757 0.494,6.426 0.0225,7.135 0,7.94 0,5.293 0,2.647 0,0" style="fill:#e6180a;stroke-width:0.63496387"/>
      </g>
      <g style="display:inline;stroke-width:0.63496387" transform="matrix(-3.7797426,0,0,-3.7797426,2682.7979,315.85722)" id="g32017">
        <path style="fill:#e6180a;stroke-width:0.63496387" d="m 0,0 c -2.56,0 -5.12,0 -7.68,0 0.8747,0.039 1.619,0.605 2.322,1.0728 C -3.779,2.264 -2.3,3.63 -1.132,5.228 -0.587,6.032 -0.0144,6.936 0,7.94 M -7.68,0 c 1.11,-0.035 2.058,-0.7413 2.904,-1.393 1.495,-1.255 2.789,-2.748 3.881,-4.364 C -0.494,-6.426 -0.022,-7.135 0,-7.94 0,-5.293 0,-2.647 0,0 m 0,-7.94 c 0.038,1.182 0.758,2.206 1.438,3.12 1.212,1.51 2.648,2.846 4.228,3.963 C 6.28,-0.474 6.932,-0.0185 7.68,0 5.12,0 2.56,0 0,0 M 7.68,0 C 6.57,0.035 5.622,0.741 4.776,1.392 3.281,2.648 1.987,4.141 0.895,5.757 0.494,6.426 0.0225,7.135 0,7.94 0,5.293 0,2.647 0,0" id="path32015" inkscape:connector-curvature="0"/>
      </g>
      <g id="g32021" transform="matrix(-3.7797426,0,0,-3.7797426,2748.8221,195.81264)" style="display:inline;stroke-width:0.63496387">
        <path inkscape:connector-curvature="0" id="path32019" d="m 0,0 c -2.56,0 -5.12,0 -7.68,0 0.8747,0.039 1.619,0.605 2.322,1.0728 C -3.779,2.264 -2.3,3.63 -1.132,5.228 -0.587,6.032 -0.0144,6.936 0,7.94 M -7.68,0 c 1.11,-0.035 2.058,-0.7413 2.904,-1.393 1.495,-1.255 2.789,-2.748 3.881,-4.364 C -0.494,-6.426 -0.022,-7.135 0,-7.94 0,-5.293 0,-2.647 0,0 m 0,-7.94 c 0.038,1.182 0.758,2.206 1.438,3.12 1.212,1.51 2.648,2.846 4.228,3.963 C 6.28,-0.474 6.932,-0.0185 7.68,0 5.12,0 2.56,0 0,0 M 7.68,0 C 6.57,0.035 5.622,0.741 4.776,1.392 3.281,2.648 1.987,4.141 0.895,5.757 0.494,6.426 0.0225,7.135 0,7.94 0,5.293 0,2.647 0,0" style="fill:#e6180a;stroke-width:0.63496387"/>
      </g>
      <g id="g32025" transform="matrix(3.7797426,0,0,3.7797426,2748.8224,435.90193)" style="display:inline;stroke-width:0.63496387">
        <path inkscape:connector-curvature="0" id="path32023" d="m 0,0 c -2.56,0 -5.12,0 -7.68,0 0.8747,0.039 1.619,0.605 2.322,1.0728 C -3.779,2.264 -2.3,3.63 -1.132,5.228 -0.587,6.032 -0.0144,6.936 0,7.94 M -7.68,0 c 1.11,-0.035 2.058,-0.7413 2.904,-1.393 1.495,-1.255 2.789,-2.748 3.881,-4.364 C -0.494,-6.426 -0.022,-7.135 0,-7.94 0,-5.293 0,-2.647 0,0 m 0,-7.94 c 0.038,1.182 0.758,2.206 1.438,3.12 1.212,1.51 2.648,2.846 4.228,3.963 C 6.28,-0.474 6.932,-0.0185 7.68,0 5.12,0 2.56,0 0,0 M 7.68,0 C 6.57,0.035 5.622,0.741 4.776,1.392 3.281,2.648 1.987,4.141 0.895,5.757 0.494,6.426 0.0225,7.135 0,7.94 0,5.293 0,2.647 0,0" style="fill:#e6180a;stroke-width:0.63496387"/>
      </g>
      <g style="display:inline;stroke-width:1.0582732" transform="matrix(-2.2678455,0,0,-2.2678455,2670.7934,237.82819)" id="g32101">
        <path style="fill:#e6180a;stroke-width:1.0582732" d="m 0,0 c -2.56,0 -5.12,0 -7.68,0 0.8747,0.039 1.619,0.605 2.322,1.0728 C -3.779,2.264 -2.3,3.63 -1.132,5.228 -0.587,6.032 -0.0144,6.936 0,7.94 M -7.68,0 c 1.11,-0.035 2.058,-0.7413 2.904,-1.393 1.495,-1.255 2.789,-2.748 3.881,-4.364 C -0.494,-6.426 -0.022,-7.135 0,-7.94 0,-5.293 0,-2.647 0,0 m 0,-7.94 c 0.038,1.182 0.758,2.206 1.438,3.12 1.212,1.51 2.648,2.846 4.228,3.963 C 6.28,-0.474 6.932,-0.0185 7.68,0 5.12,0 2.56,0 0,0 M 7.68,0 C 6.57,0.035 5.622,0.741 4.776,1.392 3.281,2.648 1.987,4.141 0.895,5.757 0.494,6.426 0.0225,7.135 0,7.94 0,5.293 0,2.647 0,0" id="path32099" inkscape:connector-curvature="0"/>
      </g>
      <g id="g32105" transform="matrix(2.2678455,0,0,2.2678455,2826.8513,393.88625)" style="display:inline;stroke-width:1.0582732">
        <path inkscape:connector-curvature="0" id="path32103" d="m 0,0 c -2.56,0 -5.12,0 -7.68,0 0.8747,0.039 1.619,0.605 2.322,1.0728 C -3.779,2.264 -2.3,3.63 -1.132,5.228 -0.587,6.032 -0.0144,6.936 0,7.94 M -7.68,0 c 1.11,-0.035 2.058,-0.7413 2.904,-1.393 1.495,-1.255 2.789,-2.748 3.881,-4.364 C -0.494,-6.426 -0.022,-7.135 0,-7.94 0,-5.293 0,-2.647 0,0 m 0,-7.94 c 0.038,1.182 0.758,2.206 1.438,3.12 1.212,1.51 2.648,2.846 4.228,3.963 C 6.28,-0.474 6.932,-0.0185 7.68,0 5.12,0 2.56,0 0,0 M 7.68,0 C 6.57,0.035 5.622,0.741 4.776,1.392 3.281,2.648 1.987,4.141 0.895,5.757 0.494,6.426 0.0225,7.135 0,7.94 0,5.293 0,2.647 0,0" style="fill:#e6180a;stroke-width:1.0582732"/>
      </g>
    </g>
    </g></svg>
