<?xml version='1.0' encoding='UTF-8'?>
<!-- Created with Inkscape (http://www.inkscape.org/) and export_objects.py -->
<svg xmlns:cc="http://creativecommons.org/ns#" xmlns:dc="http://purl.org/dc/elements/1.1/" xmlns:inkscape="http://www.inkscape.org/namespaces/inkscape" xmlns:rdf="http://www.w3.org/1999/02/22-rdf-syntax-ns#" xmlns:sodipodi="http://sodipodi.sourceforge.net/DTD/sodipodi-0.dtd" xmlns:xlink="http://www.w3.org/1999/xlink" xmlns="http://www.w3.org/2000/svg" version="1.1" width="57.1500026458mm" height="88.8999973542mm" viewBox="0 0 57.1500026458 88.8999973542" id="svg24051" sodipodi:docname="heart-009.svg"><sodipodi:namedview id="base" pagecolor="#ffffff" bordercolor="#666666" borderopacity="1.0" inkscape:pageopacity="0.0" inkscape:pageshadow="2" inkscape:zoom="0.35" inkscape:cx="-50" inkscape:cy="560" inkscape:document-units="mm" inkscape:current-layer="layer1" showgrid="false" inkscape:lockguides="true" inkscape:window-width="1280" inkscape:window-height="940" inkscape:window-x="1909" inkscape:window-y="43" inkscape:window-maximized="1"/>
  <metadata id="metadata24048">
    <rdf:RDF>
      <cc:Work rdf:about="">
        <dc:format>image/svg+xml</dc:format>
        <dc:type rdf:resource="http://purl.org/dc/dcmitype/StillImage"/>
      </cc:Work>
    </rdf:RDF>
  </metadata>
  <g inkscape:groupmode="layer" inkscape:label="heart-" transform="matrix(1.000000,0.000000,0.000000,1.000000,-57.452429,-62.049985)"><g transform="matrix(0.26448498,0,0,0.26448498,-501.29469,-78.639478)" id="g17284" inkscape:label="009">
      <rect style="display:inline;opacity:1;fill:#ffffff;fill-opacity:1;stroke:none;stroke-width:0.13338292;stroke-linecap:butt;stroke-linejoin:miter;stroke-miterlimit:47.14606857;stroke-dasharray:none;stroke-dashoffset:0;stroke-opacity:1;paint-order:markers fill stroke" id="rect32139" width="216.08034" height="336.12494" x="2112.5854" y="531.93744"/>
      <g id="text32205" style="font-style:normal;font-variant:normal;font-weight:normal;font-stretch:normal;font-size:80.02975464px;line-height:125%;font-family:'Stint Ultra Condensed';-inkscape-font-specification:'Stint Ultra Condensed, ';font-variant-ligatures:normal;font-variant-caps:normal;font-variant-numeric:normal;font-feature-settings:normal;text-align:center;letter-spacing:0px;word-spacing:0px;writing-mode:lr-tb;text-anchor:middle;display:inline;fill:#e6180a;fill-opacity:1;stroke:none;stroke-width:1.00037193" aria-label="6" transform="translate(-2088.7764,79.839752)">
        <path id="path12610" style="font-style:normal;font-variant:normal;font-weight:normal;font-stretch:normal;font-size:80.02975464px;font-family:'Stint Ultra Condensed';-inkscape-font-specification:'Stint Ultra Condensed, ';text-align:center;text-anchor:middle;fill:#e6180a;fill-opacity:1;stroke-width:1.00037193" d="m 4225.8241,490.26045 q 0.2735,-0.70338 0.7815,-1.79754 0.5471,-1.09416 1.4068,-2.11016 0.8988,-1.05508 2.1493,-1.75847 1.2504,-0.74246 2.9698,-0.74246 1.9148,0 3.5951,1.09416 1.6803,1.09415 2.8917,3.28247 1.2505,2.18831 1.9539,5.50986 0.7424,3.28247 0.7424,7.73725 0,3.67324 -0.7034,6.91664 -0.6643,3.20431 -1.9538,5.62709 -1.2896,2.3837 -3.1653,3.79047 -1.8757,1.3677 -4.2594,1.3677 -2.3837,0 -4.4547,-1.60216 -2.032,-1.64124 -3.556,-4.88463 -1.5241,-3.28247 -2.4228,-8.20618 -0.8597,-4.9237 -0.8597,-11.5668 0,-6.7994 0.6643,-12.23111 0.6643,-5.47078 2.032,-9.30033 1.4068,-3.82955 3.5169,-5.86156 2.1493,-2.07108 5.08,-2.07108 1.8757,0 3.5561,1.05508 1.6803,1.016 2.9307,3.04801 1.2896,2.03201 1.993,5.08001 0.7424,3.00894 0.7424,6.99479 h -4.8065 q 0,-5.82247 -1.1723,-8.87048 -1.1332,-3.04801 -3.4778,-3.04801 -1.6413,0 -2.8136,1.83662 -1.1723,1.79754 -1.9147,4.88463 -0.7425,3.08708 -1.0942,7.19017 -0.3517,4.06401 -0.3517,8.63602 z m 6.3305,-2.14923 q -1.2114,0 -2.1883,1.13323 -0.977,1.13324 -1.7585,2.77447 -0.7425,1.64124 -1.2505,3.51693 -0.508,1.8757 -0.7424,3.36063 -0.078,2.93077 0.3126,5.7834 0.4298,2.85262 1.2114,5.15817 0.8206,2.26646 1.9538,3.67324 1.1723,1.40677 2.54,1.40677 1.2505,0 2.2274,-0.93785 0.977,-0.97693 1.6413,-2.73539 0.6643,-1.75847 0.9769,-4.22032 0.3517,-2.50093 0.3517,-5.54894 0,-3.12616 -0.3126,-5.58801 -0.3126,-2.50093 -0.977,-4.22032 -0.6252,-1.71939 -1.6412,-2.61816 -0.9769,-0.93785 -2.3446,-0.93785 z" inkscape:connector-curvature="0"/>
      </g>
      <g id="text32209" style="font-style:normal;font-variant:normal;font-weight:normal;font-stretch:normal;font-size:80.02975464px;line-height:125%;font-family:'Stint Ultra Condensed';-inkscape-font-specification:'Stint Ultra Condensed, ';font-variant-ligatures:normal;font-variant-caps:normal;font-variant-numeric:normal;font-feature-settings:normal;text-align:center;letter-spacing:0px;word-spacing:0px;writing-mode:lr-tb;text-anchor:middle;display:inline;fill:#e6180a;fill-opacity:1;stroke:none;stroke-width:1.00037193" transform="rotate(180,-1044.3882,39.919876)" aria-label="6">
        <path id="path12607" style="font-style:normal;font-variant:normal;font-weight:normal;font-stretch:normal;font-size:80.02975464px;font-family:'Stint Ultra Condensed';-inkscape-font-specification:'Stint Ultra Condensed, ';text-align:center;text-anchor:middle;fill:#e6180a;fill-opacity:1;stroke-width:1.00037193" d="m -4392.9801,-750.06016 q 0.2735,-0.70339 0.7816,-1.79755 0.547,-1.09415 1.4067,-2.11016 0.8988,-1.05508 2.1493,-1.75846 1.2504,-0.74247 2.9698,-0.74247 1.9148,0 3.5951,1.09416 1.6803,1.09416 2.8917,3.28247 1.2505,2.18831 1.9539,5.50986 0.7424,3.28247 0.7424,7.73725 0,3.67324 -0.7034,6.91664 -0.6643,3.20431 -1.9538,5.62709 -1.2896,2.3837 -3.1653,3.79047 -1.8757,1.3677 -4.2594,1.3677 -2.3837,0 -4.4547,-1.60216 -2.032,-1.64124 -3.556,-4.88463 -1.5241,-3.28247 -2.4228,-8.20618 -0.8597,-4.9237 -0.8597,-11.5668 0,-6.7994 0.6643,-12.23111 0.6643,-5.47078 2.032,-9.30033 1.4068,-3.82955 3.5169,-5.86155 2.1493,-2.07109 5.08,-2.07109 1.8757,0 3.5561,1.05508 1.6803,1.01601 2.9307,3.04801 1.2896,2.03201 1.993,5.08002 0.7424,3.00893 0.7424,6.99478 h -4.8065 q 0,-5.82247 -1.1723,-8.87048 -1.1332,-3.04801 -3.4778,-3.04801 -1.6413,0 -2.8136,1.83662 -1.1723,1.79754 -1.9147,4.88463 -0.7425,3.08709 -1.0942,7.19017 -0.3517,4.06401 -0.3517,8.63603 z m 6.3305,-2.14924 q -1.2114,0 -2.1883,1.13323 -0.977,1.13324 -1.7585,2.77447 -0.7425,1.64124 -1.2505,3.51694 -0.508,1.87569 -0.7424,3.36062 -0.078,2.93078 0.3126,5.7834 0.4298,2.85262 1.2114,5.15817 0.8206,2.26647 1.9538,3.67324 1.1723,1.40677 2.54,1.40677 1.2505,0 2.2274,-0.93785 0.977,-0.97692 1.6413,-2.73539 0.6643,-1.75847 0.9769,-4.22032 0.3517,-2.50093 0.3517,-5.54894 0,-3.12616 -0.3126,-5.58801 -0.3126,-2.50093 -0.977,-4.22032 -0.6252,-1.71939 -1.6412,-2.61816 -0.9769,-0.93785 -2.3446,-0.93785 z" inkscape:connector-curvature="0"/>
      </g>
      <g style="display:inline;stroke-width:0.63496554" transform="matrix(-3.7797328,0,0,-3.7797328,2256.5254,700.00009)" id="g35769">
        <path style="fill:#e6180a;stroke-width:0.63496554" d="m -7.67,3.93 c 0.01,-4.71 5.91,-8.14 7.64,-11.87 1.75,3.72 7.66,7.12 7.7,11.83 C 7.68,6.11 5.96,7.92 3.85,7.92 1.73,7.92 0,6.13 0,3.91 0,6.14 -1.71,7.94 -3.82,7.94 -5.94,7.95 -7.66,6.15 -7.67,3.93 Z" id="path35767" inkscape:connector-curvature="0"/>
      </g>
      <g style="display:inline;stroke-width:0.63496554" transform="matrix(-3.7797328,0,0,-3.7797328,2190.501,700.00009)" id="g35773">
        <path style="fill:#e6180a;stroke-width:0.63496554" d="m -7.67,3.93 c 0.01,-4.71 5.91,-8.14 7.64,-11.87 1.75,3.72 7.66,7.12 7.7,11.83 C 7.68,6.11 5.96,7.92 3.85,7.92 1.73,7.92 0,6.13 0,3.91 0,6.14 -1.71,7.94 -3.82,7.94 -5.94,7.95 -7.66,6.15 -7.67,3.93 Z" id="path35771" inkscape:connector-curvature="0"/>
      </g>
      <g id="g35777" transform="matrix(-3.7797328,0,0,-3.7797328,2220.5118,579.95552)" style="display:inline;stroke-width:0.63496554">
        <path inkscape:connector-curvature="0" id="path35775" d="m -7.67,3.93 c 0.01,-4.71 5.91,-8.14 7.64,-11.87 1.75,3.72 7.66,7.12 7.7,11.83 C 7.68,6.11 5.96,7.92 3.85,7.92 1.73,7.92 0,6.13 0,3.91 0,6.14 -1.71,7.94 -3.82,7.94 -5.94,7.95 -7.66,6.15 -7.67,3.93 Z" style="fill:#e6180a;stroke-width:0.63496554"/>
      </g>
      <g style="display:inline;stroke-width:0.63496554" transform="matrix(-3.7797328,0,0,-3.7797328,2286.5366,579.95556)" id="g35781">
        <path style="fill:#e6180a;stroke-width:0.63496554" d="m -7.67,3.93 c 0.01,-4.71 5.91,-8.14 7.64,-11.87 1.75,3.72 7.66,7.12 7.7,11.83 C 7.68,6.11 5.96,7.92 3.85,7.92 1.73,7.92 0,6.13 0,3.91 0,6.14 -1.71,7.94 -3.82,7.94 -5.94,7.95 -7.66,6.15 -7.67,3.93 Z" id="path35779" inkscape:connector-curvature="0"/>
      </g>
      <g style="display:inline;stroke-width:0.63496554" transform="matrix(3.7797328,0,0,3.7797328,2220.7389,820.04467)" id="g35785">
        <path style="fill:#e6180a;stroke-width:0.63496554" d="m -7.67,3.93 c 0.01,-4.71 5.91,-8.14 7.64,-11.87 1.75,3.72 7.66,7.12 7.7,11.83 C 7.68,6.11 5.96,7.92 3.85,7.92 1.73,7.92 0,6.13 0,3.91 0,6.14 -1.71,7.94 -3.82,7.94 -5.94,7.95 -7.66,6.15 -7.67,3.93 Z" id="path35783" inkscape:connector-curvature="0"/>
      </g>
      <g id="g35789" transform="matrix(3.7797328,0,0,3.7797328,2154.7144,820.04467)" style="display:inline;stroke-width:0.63496554">
        <path inkscape:connector-curvature="0" id="path35787" d="m -7.67,3.93 c 0.01,-4.71 5.91,-8.14 7.64,-11.87 1.75,3.72 7.66,7.12 7.7,11.83 C 7.68,6.11 5.96,7.92 3.85,7.92 1.73,7.92 0,6.13 0,3.91 0,6.14 -1.71,7.94 -3.82,7.94 -5.94,7.95 -7.66,6.15 -7.67,3.93 Z" style="fill:#e6180a;stroke-width:0.63496554"/>
      </g>
      <g style="display:inline;stroke-width:1.05827594" transform="matrix(-2.2678397,0,0,-2.2678397,2142.5284,621.97103)" id="g36105">
        <path style="fill:#e6180a;stroke-width:1.05827594" d="m -7.67,3.93 c 0.01,-4.71 5.91,-8.14 7.64,-11.87 1.75,3.72 7.66,7.12 7.7,11.83 C 7.68,6.11 5.96,7.92 3.85,7.92 1.73,7.92 0,6.13 0,3.91 0,6.14 -1.71,7.94 -3.82,7.94 -5.94,7.95 -7.66,6.15 -7.67,3.93 Z" id="path36103" inkscape:connector-curvature="0"/>
      </g>
      <g id="g36109" transform="matrix(2.2678397,0,0,2.2678397,2298.7225,778.02896)" style="display:inline;stroke-width:1.05827594">
        <path inkscape:connector-curvature="0" id="path36107" d="m -7.67,3.93 c 0.01,-4.71 5.91,-8.14 7.64,-11.87 1.75,3.72 7.66,7.12 7.7,11.83 C 7.68,6.11 5.96,7.92 3.85,7.92 1.73,7.92 0,6.13 0,3.91 0,6.14 -1.71,7.94 -3.82,7.94 -5.94,7.95 -7.66,6.15 -7.67,3.93 Z" style="fill:#e6180a;stroke-width:1.05827594"/>
      </g>
    </g>
    </g></svg>
