<?xml version='1.0' encoding='UTF-8'?>
<!-- Created with Inkscape (http://www.inkscape.org/) and export_objects.py -->
<svg xmlns:cc="http://creativecommons.org/ns#" xmlns:dc="http://purl.org/dc/elements/1.1/" xmlns:inkscape="http://www.inkscape.org/namespaces/inkscape" xmlns:rdf="http://www.w3.org/1999/02/22-rdf-syntax-ns#" xmlns:sodipodi="http://sodipodi.sourceforge.net/DTD/sodipodi-0.dtd" xmlns:xlink="http://www.w3.org/1999/xlink" xmlns="http://www.w3.org/2000/svg" version="1.1" width="57.1500026458mm" height="88.8999973542mm" viewBox="0 0 57.1500026458 88.8999973542" id="svg4919" sodipodi:docname="n-008.svg"><sodipodi:namedview id="base" pagecolor="#ffffff" bordercolor="#666666" borderopacity="1.0" inkscape:pageopacity="0.0" inkscape:pageshadow="2" inkscape:zoom="0.35" inkscape:cx="-50" inkscape:cy="560" inkscape:document-units="mm" inkscape:current-layer="layer1" showgrid="false" inkscape:window-width="1280" inkscape:window-height="940" inkscape:window-x="1909" inkscape:window-y="43" inkscape:window-maximized="1"/>
  <metadata id="metadata4916">
    <rdf:RDF>
      <cc:Work rdf:about="">
        <dc:format>image/svg+xml</dc:format>
        <dc:type rdf:resource="http://purl.org/dc/dcmitype/StillImage"/>
      </cc:Work>
    </rdf:RDF>
  </metadata>
  <g inkscape:groupmode="layer" inkscape:label="n-" transform="matrix(1.000000,0.000000,0.000000,1.000000,-153.609519,-112.094023)"><g transform="matrix(0.26448498,0,0,0.26448498,-195.58756,-28.595439)" id="g4179" inkscape:label="008">
      <rect y="531.93744" x="1320.2908" height="336.12494" width="216.08034" id="rect32133" style="display:inline;opacity:1;fill:#ffffff;fill-opacity:1;stroke:none;stroke-width:0.13338292;stroke-linecap:butt;stroke-linejoin:miter;stroke-miterlimit:47.14606857;stroke-dasharray:none;stroke-dashoffset:0;stroke-opacity:1;paint-order:markers fill stroke"/>
      <g id="text32181" style="font-style:normal;font-variant:normal;font-weight:normal;font-stretch:normal;font-size:80.02975464px;line-height:125%;font-family:'Stint Ultra Condensed';-inkscape-font-specification:'Stint Ultra Condensed, ';font-variant-ligatures:normal;font-variant-caps:normal;font-variant-numeric:normal;font-feature-settings:normal;text-align:center;letter-spacing:0px;word-spacing:0px;writing-mode:lr-tb;text-anchor:middle;display:inline;fill:#e6180a;fill-opacity:1;stroke:none;stroke-width:1.00037193" aria-label="9" transform="translate(-2088.7764,79.839752)">
        <path id="path12628" style="font-style:normal;font-variant:normal;font-weight:normal;font-stretch:normal;font-size:80.02975464px;font-family:'Stint Ultra Condensed';-inkscape-font-specification:'Stint Ultra Condensed, ';text-align:center;text-anchor:middle;fill:#e6180a;fill-opacity:1;stroke-width:1.00037193" d="m 3444.6661,492.37061 q -0.2735,0.70339 -0.8206,1.79755 -0.508,1.09415 -1.4068,2.11016 -0.8596,1.016 -2.1101,1.75846 -1.2505,0.70339 -2.9699,0.70339 -1.9147,0 -3.5951,-1.05508 -1.6803,-1.09416 -2.9307,-3.28247 -1.2114,-2.18831 -1.9539,-5.47078 -0.7034,-3.32155 -0.7034,-7.77633 0,-3.67324 0.6643,-6.87756 0.6644,-3.24339 1.9539,-5.62709 1.2895,-2.42278 3.1652,-3.79047 1.8757,-1.40678 4.2985,-1.40678 2.3837,0 4.4157,1.64124 2.0711,1.60216 3.5951,4.88463 1.524,3.24339 2.3837,8.1671 0.8988,4.9237 0.8988,11.5668 0,6.7994 -0.6643,12.27018 -0.6644,5.43171 -2.0711,9.26126 -1.3677,3.82955 -3.517,5.90063 -2.1101,2.03201 -5.0409,2.03201 -1.8757,0 -3.556,-1.05508 -1.6803,-1.01601 -2.9699,-3.04801 -1.2504,-2.03201 -1.9929,-5.04094 -0.7034,-3.04801 -0.7034,-7.03386 h 4.8065 q 0,5.82247 1.1332,8.87048 1.1723,3.04801 3.517,3.04801 1.6412,0 2.8135,-1.79754 1.1723,-1.83662 1.9148,-4.92371 0.7425,-3.08709 1.0941,-7.1511 0.3517,-4.10308 0.3517,-8.6751 z m -6.3304,2.14924 q 1.2113,0 2.1883,-1.13323 0.9769,-1.13324 1.7194,-2.77447 0.7815,-1.64124 1.2895,-3.51694 0.508,-1.87569 0.7425,-3.3997 0.078,-2.8917 -0.3517,-5.74432 -0.3908,-2.8917 -1.2114,-5.15817 -0.7816,-2.26647 -1.9539,-3.67324 -1.1332,-1.40677 -2.5009,-1.40677 -1.2505,0 -2.2274,0.97692 -0.9769,0.93785 -1.6412,2.69632 -0.6643,1.75847 -1.016,4.2594 -0.3126,2.46185 -0.3126,5.50986 0,3.12616 0.3126,5.62709 0.3126,2.46185 0.9378,4.18124 0.6643,1.71939 1.6413,2.65724 1.016,0.89877 2.3837,0.89877 z" inkscape:connector-curvature="0"/>
      </g>
      <g id="text32185" style="font-style:normal;font-variant:normal;font-weight:normal;font-stretch:normal;font-size:80.02975464px;line-height:125%;font-family:'Stint Ultra Condensed';-inkscape-font-specification:'Stint Ultra Condensed, ';font-variant-ligatures:normal;font-variant-caps:normal;font-variant-numeric:normal;font-feature-settings:normal;text-align:center;letter-spacing:0px;word-spacing:0px;writing-mode:lr-tb;text-anchor:middle;display:inline;fill:#e6180a;fill-opacity:1;stroke:none;stroke-width:1.00037193" transform="rotate(180,-1044.3882,39.919876)" aria-label="9">
        <path id="path12625" style="font-style:normal;font-variant:normal;font-weight:normal;font-stretch:normal;font-size:80.02975464px;font-family:'Stint Ultra Condensed';-inkscape-font-specification:'Stint Ultra Condensed, ';text-align:center;text-anchor:middle;fill:#e6180a;fill-opacity:1;stroke-width:1.00037193" d="m -3589.5482,-747.95 q -0.2736,0.70338 -0.8206,1.79754 -0.508,1.09416 -1.4068,2.11016 -0.8597,1.016 -2.1102,1.75847 -1.2504,0.70338 -2.9698,0.70338 -1.9148,0 -3.5951,-1.05508 -1.6803,-1.09415 -2.9308,-3.28247 -1.2114,-2.18831 -1.9538,-5.47078 -0.7034,-3.32155 -0.7034,-7.77633 0,-3.67324 0.6643,-6.87756 0.6643,-3.24339 1.9538,-5.62709 1.2896,-2.42278 3.1653,-3.79047 1.8757,-1.40678 4.2985,-1.40678 2.3837,0 4.4157,1.64124 2.071,1.60216 3.595,4.88463 1.524,3.24339 2.3837,8.1671 0.8988,4.9237 0.8988,11.5668 0,6.7994 -0.6643,12.27018 -0.6643,5.43171 -2.0711,9.26126 -1.3677,3.82955 -3.5169,5.90063 -2.1102,2.03201 -5.0409,2.03201 -1.8757,0 -3.5561,-1.05508 -1.6803,-1.016 -2.9698,-3.04801 -1.2505,-2.03201 -1.9929,-5.04094 -0.7034,-3.04801 -0.7034,-7.03386 h 4.8064 q 0,5.82247 1.1333,8.87048 1.1723,3.04801 3.5169,3.04801 1.6412,0 2.8136,-1.79754 1.1723,-1.83662 1.9147,-4.92371 0.7425,-3.08708 1.0942,-7.15109 0.3517,-4.10309 0.3517,-8.6751 z m -6.3305,2.14923 q 1.2114,0 2.1883,-1.13323 0.9769,-1.13324 1.7194,-2.77447 0.7815,-1.64124 1.2896,-3.51693 0.508,-1.8757 0.7424,-3.3997 0.078,-2.8917 -0.3517,-5.74433 -0.3907,-2.8917 -1.2114,-5.15817 -0.7815,-2.26646 -1.9538,-3.67324 -1.1333,-1.40677 -2.5009,-1.40677 -1.2505,0 -2.2274,0.97693 -0.977,0.93785 -1.6413,2.69631 -0.6643,1.75847 -1.016,4.2594 -0.3126,2.46185 -0.3126,5.50986 0,3.12616 0.3126,5.62709 0.3126,2.46185 0.9379,4.18124 0.6643,1.71939 1.6412,2.65724 1.016,0.89877 2.3837,0.89877 z" inkscape:connector-curvature="0"/>
      </g>
      <g style="display:inline;stroke-width:0.63496554" transform="matrix(-3.7797328,0,0,-3.7797328,1407.2098,579.95552)" id="g35673">
        <path style="fill:#e6180a;stroke-width:0.63496554" d="m -7.67,3.93 c 0.01,-4.71 5.91,-8.14 7.64,-11.87 1.75,3.72 7.66,7.12 7.7,11.83 C 7.68,6.11 5.96,7.92 3.85,7.92 1.73,7.92 0,6.13 0,3.91 0,6.14 -1.71,7.94 -3.82,7.94 -5.94,7.95 -7.66,6.15 -7.67,3.93 Z" id="path35671" inkscape:connector-curvature="0"/>
      </g>
      <g id="g35677" transform="matrix(-3.7797328,0,0,-3.7797328,1491.2411,579.95552)" style="display:inline;stroke-width:0.63496554">
        <path inkscape:connector-curvature="0" id="path35675" d="m -7.67,3.93 c 0.01,-4.71 5.91,-8.14 7.64,-11.87 1.75,3.72 7.66,7.12 7.7,11.83 C 7.68,6.11 5.96,7.92 3.85,7.92 1.73,7.92 0,6.13 0,3.91 0,6.14 -1.71,7.94 -3.82,7.94 -5.94,7.95 -7.66,6.15 -7.67,3.93 Z" style="fill:#e6180a;stroke-width:0.63496554"/>
      </g>
      <g style="display:inline;stroke-width:0.63496554" transform="matrix(-3.7797328,0,0,-3.7797328,1449.2254,627.97337)" id="g35681">
        <path style="fill:#e6180a;stroke-width:0.63496554" d="m -7.67,3.93 c 0.01,-4.71 5.91,-8.14 7.64,-11.87 1.75,3.72 7.66,7.12 7.7,11.83 C 7.68,6.11 5.96,7.92 3.85,7.92 1.73,7.92 0,6.13 0,3.91 0,6.14 -1.71,7.94 -3.82,7.94 -5.94,7.95 -7.66,6.15 -7.67,3.93 Z" id="path35679" inkscape:connector-curvature="0"/>
      </g>
      <g id="g35685" transform="matrix(-3.7797328,0,0,-3.7797328,1407.2098,675.99122)" style="display:inline;stroke-width:0.63496554">
        <path inkscape:connector-curvature="0" id="path35683" d="m -7.67,3.93 c 0.01,-4.71 5.91,-8.14 7.64,-11.87 1.75,3.72 7.66,7.12 7.7,11.83 C 7.68,6.11 5.96,7.92 3.85,7.92 1.73,7.92 0,6.13 0,3.91 0,6.14 -1.71,7.94 -3.82,7.94 -5.94,7.95 -7.66,6.15 -7.67,3.93 Z" style="fill:#e6180a;stroke-width:0.63496554"/>
      </g>
      <g style="display:inline;stroke-width:0.63496554" transform="matrix(-3.7797328,0,0,-3.7797328,1491.241,675.99122)" id="g35689">
        <path style="fill:#e6180a;stroke-width:0.63496554" d="m -7.67,3.93 c 0.01,-4.71 5.91,-8.14 7.64,-11.87 1.75,3.72 7.66,7.12 7.7,11.83 C 7.68,6.11 5.96,7.92 3.85,7.92 1.73,7.92 0,6.13 0,3.91 0,6.14 -1.71,7.94 -3.82,7.94 -5.94,7.95 -7.66,6.15 -7.67,3.93 Z" id="path35687" inkscape:connector-curvature="0"/>
      </g>
      <g style="display:inline;stroke-width:0.63496554" transform="matrix(3.7797328,0,0,3.7797328,1365.421,820.04456)" id="g35693">
        <path style="fill:#e6180a;stroke-width:0.63496554" d="m -7.67,3.93 c 0.01,-4.71 5.91,-8.14 7.64,-11.87 1.75,3.72 7.66,7.12 7.7,11.83 C 7.68,6.11 5.96,7.92 3.85,7.92 1.73,7.92 0,6.13 0,3.91 0,6.14 -1.71,7.94 -3.82,7.94 -5.94,7.95 -7.66,6.15 -7.67,3.93 Z" id="path35691" inkscape:connector-curvature="0"/>
      </g>
      <g id="g35697" transform="matrix(3.7797328,0,0,3.7797328,1449.4521,820.04457)" style="display:inline;stroke-width:0.63496554">
        <path inkscape:connector-curvature="0" id="path35695" d="m -7.67,3.93 c 0.01,-4.71 5.91,-8.14 7.64,-11.87 1.75,3.72 7.66,7.12 7.7,11.83 C 7.68,6.11 5.96,7.92 3.85,7.92 1.73,7.92 0,6.13 0,3.91 0,6.14 -1.71,7.94 -3.82,7.94 -5.94,7.95 -7.66,6.15 -7.67,3.93 Z" style="fill:#e6180a;stroke-width:0.63496554"/>
      </g>
      <g id="g35701" transform="matrix(3.7797328,0,0,3.7797328,1365.4209,724.00889)" style="display:inline;stroke-width:0.63496554">
        <path inkscape:connector-curvature="0" id="path35699" d="m -7.67,3.93 c 0.01,-4.71 5.91,-8.14 7.64,-11.87 1.75,3.72 7.66,7.12 7.7,11.83 C 7.68,6.11 5.96,7.92 3.85,7.92 1.73,7.92 0,6.13 0,3.91 0,6.14 -1.71,7.94 -3.82,7.94 -5.94,7.95 -7.66,6.15 -7.67,3.93 Z" style="fill:#e6180a;stroke-width:0.63496554"/>
      </g>
      <g style="display:inline;stroke-width:0.63496554" transform="matrix(3.7797328,0,0,3.7797328,1449.4521,724.0089)" id="g35705">
        <path style="fill:#e6180a;stroke-width:0.63496554" d="m -7.67,3.93 c 0.01,-4.71 5.91,-8.14 7.64,-11.87 1.75,3.72 7.66,7.12 7.7,11.83 C 7.68,6.11 5.96,7.92 3.85,7.92 1.73,7.92 0,6.13 0,3.91 0,6.14 -1.71,7.94 -3.82,7.94 -5.94,7.95 -7.66,6.15 -7.67,3.93 Z" id="path35703" inkscape:connector-curvature="0"/>
      </g>
      <g id="g36081" transform="matrix(-2.2678397,0,0,-2.2678397,1350.2338,621.97102)" style="display:inline;stroke-width:1.05827594">
        <path inkscape:connector-curvature="0" id="path36079" d="m -7.67,3.93 c 0.01,-4.71 5.91,-8.14 7.64,-11.87 1.75,3.72 7.66,7.12 7.7,11.83 C 7.68,6.11 5.96,7.92 3.85,7.92 1.73,7.92 0,6.13 0,3.91 0,6.14 -1.71,7.94 -3.82,7.94 -5.94,7.95 -7.66,6.15 -7.67,3.93 Z" style="fill:#e6180a;stroke-width:1.05827594"/>
      </g>
      <g style="display:inline;stroke-width:1.05827594" transform="matrix(2.2678397,0,0,2.2678397,1506.4279,778.02896)" id="g36085">
        <path style="fill:#e6180a;stroke-width:1.05827594" d="m -7.67,3.93 c 0.01,-4.71 5.91,-8.14 7.64,-11.87 1.75,3.72 7.66,7.12 7.7,11.83 C 7.68,6.11 5.96,7.92 3.85,7.92 1.73,7.92 0,6.13 0,3.91 0,6.14 -1.71,7.94 -3.82,7.94 -5.94,7.95 -7.66,6.15 -7.67,3.93 Z" id="path36083" inkscape:connector-curvature="0"/>
      </g>
    </g>
    </g></svg>
