<?xml version='1.0' encoding='UTF-8'?>
<!-- Created with Inkscape (http://www.inkscape.org/) and export_objects.py -->
<svg xmlns:cc="http://creativecommons.org/ns#" xmlns:dc="http://purl.org/dc/elements/1.1/" xmlns:inkscape="http://www.inkscape.org/namespaces/inkscape" xmlns:rdf="http://www.w3.org/1999/02/22-rdf-syntax-ns#" xmlns:sodipodi="http://sodipodi.sourceforge.net/DTD/sodipodi-0.dtd" xmlns:xlink="http://www.w3.org/1999/xlink" xmlns="http://www.w3.org/2000/svg" version="1.1" width="57.1500026458mm" height="88.8999973542mm" viewBox="0 0 57.1500026458 88.8999973542" id="svg24051" sodipodi:docname="heart-005.svg"><sodipodi:namedview id="base" pagecolor="#ffffff" bordercolor="#666666" borderopacity="1.0" inkscape:pageopacity="0.0" inkscape:pageshadow="2" inkscape:zoom="0.35" inkscape:cx="-50" inkscape:cy="560" inkscape:document-units="mm" inkscape:current-layer="layer1" showgrid="false" inkscape:lockguides="true" inkscape:window-width="1280" inkscape:window-height="940" inkscape:window-x="1909" inkscape:window-y="43" inkscape:window-maximized="1"/>
  <metadata id="metadata24048">
    <rdf:RDF>
      <cc:Work rdf:about="">
        <dc:format>image/svg+xml</dc:format>
        <dc:type rdf:resource="http://purl.org/dc/dcmitype/StillImage"/>
      </cc:Work>
    </rdf:RDF>
  </metadata>
  <g inkscape:groupmode="layer" inkscape:label="heart-" transform="matrix(1.000000,0.000000,0.000000,1.000000,221.947605,-62.049985)"><g transform="matrix(0.26448498,0,0,0.26448498,-501.29469,-78.639478)" id="g17179" inkscape:label="005">
      <rect style="display:inline;opacity:1;fill:#ffffff;fill-opacity:1;stroke:none;stroke-width:0.13338292;stroke-linecap:butt;stroke-linejoin:miter;stroke-miterlimit:47.14606857;stroke-dasharray:none;stroke-dashoffset:0;stroke-opacity:1;paint-order:markers fill stroke" id="rect32131" width="216.08034" height="336.12494" x="1056.1926" y="531.93744"/>
      <g id="text32173" style="font-style:normal;font-variant:normal;font-weight:normal;font-stretch:normal;font-size:80.02975464px;line-height:125%;font-family:'Stint Ultra Condensed';-inkscape-font-specification:'Stint Ultra Condensed, ';font-variant-ligatures:normal;font-variant-caps:normal;font-variant-numeric:normal;font-feature-settings:normal;text-align:center;letter-spacing:0px;word-spacing:0px;writing-mode:lr-tb;text-anchor:middle;display:inline;fill:#e6180a;fill-opacity:1;stroke:none;stroke-width:1.00037193" aria-label="10" transform="translate(-2088.7764,79.839752)">
        <path id="path12636" style="font-style:normal;font-variant:normal;font-weight:normal;font-stretch:normal;font-size:80.02975464px;font-family:'Stint Ultra Condensed';-inkscape-font-specification:'Stint Ultra Condensed, ';text-align:center;text-anchor:middle;fill:#e6180a;fill-opacity:1;stroke-width:1.00037193" d="m 3154.3082,513.70667 h 5.1973 v -44.97766 l -6.4087,4.02494 v -4.33755 l 6.4087,-3.98586 h 4.8065 v 49.27613 h 5.1972 v 4.41571 h -15.201 z" inkscape:connector-curvature="0"/>
        <path id="path12638" style="font-style:normal;font-variant:normal;font-weight:normal;font-stretch:normal;font-size:80.02975464px;font-family:'Stint Ultra Condensed';-inkscape-font-specification:'Stint Ultra Condensed, ';text-align:center;text-anchor:middle;fill:#e6180a;fill-opacity:1;stroke-width:1.00037193" d="m 3195.4954,491.31553 q 0,7.34649 -0.8597,12.62188 -0.8597,5.2754 -2.3837,8.6751 -1.524,3.36063 -3.6341,4.96279 -2.0711,1.60216 -4.4939,1.60216 -2.4618,0 -4.572,-1.60216 -2.0711,-1.60216 -3.6342,-4.96279 -1.524,-3.3997 -2.3837,-8.6751 -0.8597,-5.27539 -0.8597,-12.62188 0,-7.3074 0.8597,-12.5828 0.8597,-5.2754 2.3837,-8.6751 1.5631,-3.3997 3.6342,-5.00186 2.1102,-1.60216 4.572,-1.60216 2.4228,0 4.4939,1.60216 2.1101,1.60216 3.6341,5.00186 1.524,3.3997 2.3837,8.6751 0.8597,5.2754 0.8597,12.5828 z m -4.9628,0 q 0,-6.2914 -0.508,-10.74618 -0.4689,-4.49386 -1.3286,-7.34648 -0.8597,-2.85262 -2.032,-4.18124 -1.1723,-1.32862 -2.54,-1.32862 -1.3677,0 -2.5791,1.32862 -1.1723,1.32862 -2.0711,4.18124 -0.8597,2.85262 -1.3677,7.34648 -0.4689,4.45478 -0.4689,10.74618 0,6.29141 0.4689,10.78526 0.508,4.45479 1.3677,7.30741 0.8988,2.85262 2.0711,4.18124 1.2114,1.32862 2.5791,1.32862 1.3677,0 2.54,-1.32862 1.1723,-1.32862 2.032,-4.18124 0.8597,-2.8917 1.3286,-7.34648 0.508,-4.45478 0.508,-10.74619 z" inkscape:connector-curvature="0"/>
      </g>
      <g id="text32177" style="font-style:normal;font-variant:normal;font-weight:normal;font-stretch:normal;font-size:80.02975464px;line-height:125%;font-family:'Stint Ultra Condensed';-inkscape-font-specification:'Stint Ultra Condensed, ';font-variant-ligatures:normal;font-variant-caps:normal;font-variant-numeric:normal;font-feature-settings:normal;text-align:center;letter-spacing:0px;word-spacing:0px;writing-mode:lr-tb;text-anchor:middle;display:inline;fill:#e6180a;fill-opacity:1;stroke:none;stroke-width:1.00037193" transform="rotate(180,-1044.3882,39.919876)" aria-label="10">
        <path id="path12631" style="font-style:normal;font-variant:normal;font-weight:normal;font-stretch:normal;font-size:80.02975464px;font-family:'Stint Ultra Condensed';-inkscape-font-specification:'Stint Ultra Condensed, ';text-align:center;text-anchor:middle;fill:#e6180a;fill-opacity:1;stroke-width:1.00037193" d="m -3351.7098,-726.61395 h 5.1972 v -44.97766 l -6.4086,4.02494 v -4.33755 l 6.4086,-3.98586 h 4.8065 v 49.27613 h 5.1972 v 4.41571 h -15.2009 z" inkscape:connector-curvature="0"/>
        <path id="path12633" style="font-style:normal;font-variant:normal;font-weight:normal;font-stretch:normal;font-size:80.02975464px;font-family:'Stint Ultra Condensed';-inkscape-font-specification:'Stint Ultra Condensed, ';text-align:center;text-anchor:middle;fill:#e6180a;fill-opacity:1;stroke-width:1.00037193" d="m -3310.5226,-749.00508 q 0,7.34648 -0.8597,12.62188 -0.8597,5.2754 -2.3837,8.6751 -1.524,3.36062 -3.6342,4.96278 -2.0711,1.60216 -4.4939,1.60216 -2.4618,0 -4.572,-1.60216 -2.0711,-1.60216 -3.6341,-4.96278 -1.524,-3.3997 -2.3837,-8.6751 -0.8597,-5.2754 -0.8597,-12.62188 0,-7.30741 0.8597,-12.58281 0.8597,-5.2754 2.3837,-8.6751 1.563,-3.3997 3.6341,-5.00186 2.1102,-1.60216 4.572,-1.60216 2.4228,0 4.4939,1.60216 2.1102,1.60216 3.6342,5.00186 1.524,3.3997 2.3837,8.6751 0.8597,5.2754 0.8597,12.58281 z m -4.9628,0 q 0,-6.29141 -0.508,-10.74619 -0.469,-4.49385 -1.3286,-7.34648 -0.8597,-2.85262 -2.0321,-4.18124 -1.1723,-1.32862 -2.54,-1.32862 -1.3677,0 -2.579,1.32862 -1.1724,1.32862 -2.0711,4.18124 -0.8597,2.85263 -1.3677,7.34648 -0.4689,4.45478 -0.4689,10.74619 0,6.2914 0.4689,10.78526 0.508,4.45478 1.3677,7.3074 0.8987,2.85262 2.0711,4.18124 1.2113,1.32862 2.579,1.32862 1.3677,0 2.54,-1.32862 1.1724,-1.32862 2.0321,-4.18124 0.8596,-2.8917 1.3286,-7.34648 0.508,-4.45478 0.508,-10.74618 z" inkscape:connector-curvature="0"/>
      </g>
      <g id="g35633" transform="matrix(-3.7797328,0,0,-3.7797328,1143.1117,579.95551)" style="display:inline;stroke-width:0.63496554">
        <path inkscape:connector-curvature="0" id="path35631" d="m -7.67,3.93 c 0.01,-4.71 5.91,-8.14 7.64,-11.87 1.75,3.72 7.66,7.12 7.7,11.83 C 7.68,6.11 5.96,7.92 3.85,7.92 1.73,7.92 0,6.13 0,3.91 0,6.14 -1.71,7.94 -3.82,7.94 -5.94,7.95 -7.66,6.15 -7.67,3.93 Z" style="fill:#e6180a;stroke-width:0.63496554"/>
      </g>
      <g style="display:inline;stroke-width:0.63496554" transform="matrix(-3.7797328,0,0,-3.7797328,1230.144,579.95551)" id="g35637">
        <path style="fill:#e6180a;stroke-width:0.63496554" d="m -7.67,3.93 c 0.01,-4.71 5.91,-8.14 7.64,-11.87 1.75,3.72 7.66,7.12 7.7,11.83 C 7.68,6.11 5.96,7.92 3.85,7.92 1.73,7.92 0,6.13 0,3.91 0,6.14 -1.71,7.94 -3.82,7.94 -5.94,7.95 -7.66,6.15 -7.67,3.93 Z" id="path35635" inkscape:connector-curvature="0"/>
      </g>
      <g id="g35641" transform="matrix(-3.7797328,0,0,-3.7797328,1185.1273,627.97336)" style="display:inline;stroke-width:0.63496554">
        <path inkscape:connector-curvature="0" id="path35639" d="m -7.67,3.93 c 0.01,-4.71 5.91,-8.14 7.64,-11.87 1.75,3.72 7.66,7.12 7.7,11.83 C 7.68,6.11 5.96,7.92 3.85,7.92 1.73,7.92 0,6.13 0,3.91 0,6.14 -1.71,7.94 -3.82,7.94 -5.94,7.95 -7.66,6.15 -7.67,3.93 Z" style="fill:#e6180a;stroke-width:0.63496554"/>
      </g>
      <g style="display:inline;stroke-width:0.63496554" transform="matrix(-3.7797328,0,0,-3.7797328,1143.1117,675.99121)" id="g35645">
        <path style="fill:#e6180a;stroke-width:0.63496554" d="m -7.67,3.93 c 0.01,-4.71 5.91,-8.14 7.64,-11.87 1.75,3.72 7.66,7.12 7.7,11.83 C 7.68,6.11 5.96,7.92 3.85,7.92 1.73,7.92 0,6.13 0,3.91 0,6.14 -1.71,7.94 -3.82,7.94 -5.94,7.95 -7.66,6.15 -7.67,3.93 Z" id="path35643" inkscape:connector-curvature="0"/>
      </g>
      <g id="g35649" transform="matrix(-3.7797328,0,0,-3.7797328,1230.1439,675.99121)" style="display:inline;stroke-width:0.63496554">
        <path inkscape:connector-curvature="0" id="path35647" d="m -7.67,3.93 c 0.01,-4.71 5.91,-8.14 7.64,-11.87 1.75,3.72 7.66,7.12 7.7,11.83 C 7.68,6.11 5.96,7.92 3.85,7.92 1.73,7.92 0,6.13 0,3.91 0,6.14 -1.71,7.94 -3.82,7.94 -5.94,7.95 -7.66,6.15 -7.67,3.93 Z" style="fill:#e6180a;stroke-width:0.63496554"/>
      </g>
      <g id="g35653" transform="matrix(3.7797328,0,0,3.7797328,1098.3217,820.04457)" style="display:inline;stroke-width:0.63496554">
        <path inkscape:connector-curvature="0" id="path35651" d="m -7.67,3.93 c 0.01,-4.71 5.91,-8.14 7.64,-11.87 1.75,3.72 7.66,7.12 7.7,11.83 C 7.68,6.11 5.96,7.92 3.85,7.92 1.73,7.92 0,6.13 0,3.91 0,6.14 -1.71,7.94 -3.82,7.94 -5.94,7.95 -7.66,6.15 -7.67,3.93 Z" style="fill:#e6180a;stroke-width:0.63496554"/>
      </g>
      <g style="display:inline;stroke-width:0.63496554" transform="matrix(3.7797328,0,0,3.7797328,1185.354,820.04457)" id="g35657">
        <path style="fill:#e6180a;stroke-width:0.63496554" d="m -7.67,3.93 c 0.01,-4.71 5.91,-8.14 7.64,-11.87 1.75,3.72 7.66,7.12 7.7,11.83 C 7.68,6.11 5.96,7.92 3.85,7.92 1.73,7.92 0,6.13 0,3.91 0,6.14 -1.71,7.94 -3.82,7.94 -5.94,7.95 -7.66,6.15 -7.67,3.93 Z" id="path35655" inkscape:connector-curvature="0"/>
      </g>
      <g id="g35661" transform="matrix(3.7797328,0,0,3.7797328,1143.3385,772.02672)" style="display:inline;stroke-width:0.63496554">
        <path inkscape:connector-curvature="0" id="path35659" d="m -7.67,3.93 c 0.01,-4.71 5.91,-8.14 7.64,-11.87 1.75,3.72 7.66,7.12 7.7,11.83 C 7.68,6.11 5.96,7.92 3.85,7.92 1.73,7.92 0,6.13 0,3.91 0,6.14 -1.71,7.94 -3.82,7.94 -5.94,7.95 -7.66,6.15 -7.67,3.93 Z" style="fill:#e6180a;stroke-width:0.63496554"/>
      </g>
      <g style="display:inline;stroke-width:0.63496554" transform="matrix(3.7797328,0,0,3.7797328,1098.3216,724.00889)" id="g35665">
        <path style="fill:#e6180a;stroke-width:0.63496554" d="m -7.67,3.93 c 0.01,-4.71 5.91,-8.14 7.64,-11.87 1.75,3.72 7.66,7.12 7.7,11.83 C 7.68,6.11 5.96,7.92 3.85,7.92 1.73,7.92 0,6.13 0,3.91 0,6.14 -1.71,7.94 -3.82,7.94 -5.94,7.95 -7.66,6.15 -7.67,3.93 Z" id="path35663" inkscape:connector-curvature="0"/>
      </g>
      <g id="g35669" transform="matrix(3.7797328,0,0,3.7797328,1185.354,724.00889)" style="display:inline;stroke-width:0.63496554">
        <path inkscape:connector-curvature="0" id="path35667" d="m -7.67,3.93 c 0.01,-4.71 5.91,-8.14 7.64,-11.87 1.75,3.72 7.66,7.12 7.7,11.83 C 7.68,6.11 5.96,7.92 3.85,7.92 1.73,7.92 0,6.13 0,3.91 0,6.14 -1.71,7.94 -3.82,7.94 -5.94,7.95 -7.66,6.15 -7.67,3.93 Z" style="fill:#e6180a;stroke-width:0.63496554"/>
      </g>
      <g style="display:inline;stroke-width:1.05827594" transform="matrix(-2.2678397,0,0,-2.2678397,1086.1357,621.97101)" id="g36073">
        <path style="fill:#e6180a;stroke-width:1.05827594" d="m -7.67,3.93 c 0.01,-4.71 5.91,-8.14 7.64,-11.87 1.75,3.72 7.66,7.12 7.7,11.83 C 7.68,6.11 5.96,7.92 3.85,7.92 1.73,7.92 0,6.13 0,3.91 0,6.14 -1.71,7.94 -3.82,7.94 -5.94,7.95 -7.66,6.15 -7.67,3.93 Z" id="path36071" inkscape:connector-curvature="0"/>
      </g>
      <g id="g36077" transform="matrix(2.2678397,0,0,2.2678397,1242.3298,778.02896)" style="display:inline;stroke-width:1.05827594">
        <path inkscape:connector-curvature="0" id="path36075" d="m -7.67,3.93 c 0.01,-4.71 5.91,-8.14 7.64,-11.87 1.75,3.72 7.66,7.12 7.7,11.83 C 7.68,6.11 5.96,7.92 3.85,7.92 1.73,7.92 0,6.13 0,3.91 0,6.14 -1.71,7.94 -3.82,7.94 -5.94,7.95 -7.66,6.15 -7.67,3.93 Z" style="fill:#e6180a;stroke-width:1.05827594"/>
      </g>
    </g>
    </g></svg>
