<?xml version='1.0' encoding='UTF-8'?>
<!-- Created with Inkscape (http://www.inkscape.org/) and export_objects.py -->
<svg xmlns:cc="http://creativecommons.org/ns#" xmlns:dc="http://purl.org/dc/elements/1.1/" xmlns:inkscape="http://www.inkscape.org/namespaces/inkscape" xmlns:rdf="http://www.w3.org/1999/02/22-rdf-syntax-ns#" xmlns:sodipodi="http://sodipodi.sourceforge.net/DTD/sodipodi-0.dtd" xmlns:xlink="http://www.w3.org/1999/xlink" xmlns="http://www.w3.org/2000/svg" version="1.1" width="57.1500026458mm" height="88.8999973542mm" viewBox="0 0 57.1500026458 88.8999973542" id="svg24051" sodipodi:docname="heart-010.svg"><sodipodi:namedview id="base" pagecolor="#ffffff" bordercolor="#666666" borderopacity="1.0" inkscape:pageopacity="0.0" inkscape:pageshadow="2" inkscape:zoom="0.35" inkscape:cx="-50" inkscape:cy="560" inkscape:document-units="mm" inkscape:current-layer="layer1" showgrid="false" inkscape:lockguides="true" inkscape:window-width="1280" inkscape:window-height="940" inkscape:window-x="1909" inkscape:window-y="43" inkscape:window-maximized="1"/>
  <metadata id="metadata24048">
    <rdf:RDF>
      <cc:Work rdf:about="">
        <dc:format>image/svg+xml</dc:format>
        <dc:type rdf:resource="http://purl.org/dc/dcmitype/StillImage"/>
      </cc:Work>
    </rdf:RDF>
  </metadata>
  <g inkscape:groupmode="layer" inkscape:label="heart-" transform="matrix(1.000000,0.000000,0.000000,1.000000,-127.302424,-62.049985)"><g transform="matrix(0.26448498,0,0,0.26448498,-501.29469,-78.639478)" id="g17768" inkscape:label="010">
      <rect y="531.93744" x="2376.6836" height="336.12494" width="216.08034" id="rect32141" style="display:inline;opacity:1;fill:#ffffff;fill-opacity:1;stroke:none;stroke-width:0.13338292;stroke-linecap:butt;stroke-linejoin:miter;stroke-miterlimit:47.14606857;stroke-dasharray:none;stroke-dashoffset:0;stroke-opacity:1;paint-order:markers fill stroke"/>
      <g id="text32213" style="font-style:normal;font-variant:normal;font-weight:normal;font-stretch:normal;font-size:80.02975464px;line-height:125%;font-family:'Stint Ultra Condensed';-inkscape-font-specification:'Stint Ultra Condensed, ';font-variant-ligatures:normal;font-variant-caps:normal;font-variant-numeric:normal;font-feature-settings:normal;text-align:center;letter-spacing:0px;word-spacing:0px;writing-mode:lr-tb;text-anchor:middle;display:inline;fill:#e6180a;fill-opacity:1;stroke:none;stroke-width:1.00037193" aria-label="5" transform="translate(-2088.7764,79.839752)">
        <path id="path12604" style="font-style:normal;font-variant:normal;font-weight:normal;font-stretch:normal;font-size:80.02975464px;font-family:'Stint Ultra Condensed';-inkscape-font-specification:'Stint Ultra Condensed, ';text-align:center;text-anchor:middle;fill:#e6180a;fill-opacity:1;stroke-width:1.00037193" d="m 4490.4693,485.53213 q 1.2505,-1.44585 2.6182,-1.91477 1.4068,-0.46893 2.9308,-0.46893 2.2274,0 3.9858,1.3677 1.7976,1.3677 3.009,3.82955 1.2504,2.42278 1.9147,5.7834 0.6643,3.36062 0.6643,7.34648 0,3.67324 -0.5861,6.91664 -0.5862,3.20431 -1.8366,5.62709 -1.2114,2.3837 -3.1653,3.79047 -1.9538,1.3677 -4.6501,1.3677 -1.993,0.0782 -3.8687,-0.89878 -1.8366,-0.97692 -3.3215,-3.08708 -1.4459,-2.14924 -2.3446,-5.54894 -0.8597,-3.3997 -0.8597,-8.1671 h 4.8846 q 0,6.83848 1.5631,10.19911 1.6021,3.32154 3.9468,3.32154 1.3286,0 2.3055,-0.97692 0.9769,-1.01601 1.6412,-2.81355 0.6643,-1.79754 0.977,-4.25939 0.3517,-2.50093 0.3517,-5.47079 0,-6.87756 -1.3677,-10.51172 -1.3677,-3.63416 -4.3767,-3.63416 -1.7584,0 -3.048,1.17231 -1.2504,1.13323 -1.9147,3.43878 h -3.9859 l 0.9378,-27.51023 h 16.9595 v 4.45478 h -12.7001 z" inkscape:connector-curvature="0"/>
      </g>
      <g id="text32217" style="font-style:normal;font-variant:normal;font-weight:normal;font-stretch:normal;font-size:80.02975464px;line-height:125%;font-family:'Stint Ultra Condensed';-inkscape-font-specification:'Stint Ultra Condensed, ';font-variant-ligatures:normal;font-variant-caps:normal;font-variant-numeric:normal;font-feature-settings:normal;text-align:center;letter-spacing:0px;word-spacing:0px;writing-mode:lr-tb;text-anchor:middle;display:inline;fill:#e6180a;fill-opacity:1;stroke:none;stroke-width:1.00037193" transform="rotate(180,-1044.3882,39.919876)" aria-label="5">
        <path id="path12601" style="font-style:normal;font-variant:normal;font-weight:normal;font-stretch:normal;font-size:80.02975464px;font-family:'Stint Ultra Condensed';-inkscape-font-specification:'Stint Ultra Condensed, ';text-align:center;text-anchor:middle;fill:#e6180a;fill-opacity:1;stroke-width:1.00037193" d="m -4656.5312,-754.78848 q 1.2505,-1.44585 2.6182,-1.91478 1.4068,-0.46892 2.9308,-0.46892 2.2274,0 3.9858,1.36769 1.7976,1.3677 3.009,3.82955 1.2504,2.42278 1.9147,5.7834 0.6644,3.36063 0.6644,7.34648 0,3.67324 -0.5862,6.91664 -0.5862,3.20431 -1.8366,5.62709 -1.2114,2.3837 -3.1653,3.79047 -1.9538,1.3677 -4.6501,1.3677 -1.993,0.0781 -3.8687,-0.89877 -1.8366,-0.97693 -3.3215,-3.08709 -1.4459,-2.14924 -2.3446,-5.54894 -0.8597,-3.3997 -0.8597,-8.1671 h 4.8846 q 0,6.83848 1.5631,10.19911 1.6022,3.32155 3.9468,3.32155 1.3286,0 2.3055,-0.97693 0.9769,-1.016 1.6413,-2.81355 0.6643,-1.79754 0.9769,-4.25939 0.3517,-2.50093 0.3517,-5.47079 0,-6.87755 -1.3677,-10.51172 -1.3677,-3.63416 -4.3767,-3.63416 -1.7584,0 -3.048,1.17231 -1.2504,1.13323 -1.9147,3.43878 h -3.9859 l 0.9379,-27.51023 h 16.9594 v 4.45478 h -12.7 z" inkscape:connector-curvature="0"/>
      </g>
      <g id="g35793" transform="matrix(-3.7797328,0,0,-3.7797328,2484.6103,700.00011)" style="display:inline;stroke-width:0.63496554">
        <path inkscape:connector-curvature="0" id="path35791" d="m -7.67,3.93 c 0.01,-4.71 5.91,-8.14 7.64,-11.87 1.75,3.72 7.66,7.12 7.7,11.83 C 7.68,6.11 5.96,7.92 3.85,7.92 1.73,7.92 0,6.13 0,3.91 0,6.14 -1.71,7.94 -3.82,7.94 -5.94,7.95 -7.66,6.15 -7.67,3.93 Z" style="fill:#e6180a;stroke-width:0.63496554"/>
      </g>
      <g style="display:inline;stroke-width:0.63496554" transform="matrix(-3.7797328,0,0,-3.7797328,2550.635,700.00011)" id="g35797">
        <path style="fill:#e6180a;stroke-width:0.63496554" d="m -7.67,3.93 c 0.01,-4.71 5.91,-8.14 7.64,-11.87 1.75,3.72 7.66,7.12 7.7,11.83 C 7.68,6.11 5.96,7.92 3.85,7.92 1.73,7.92 0,6.13 0,3.91 0,6.14 -1.71,7.94 -3.82,7.94 -5.94,7.95 -7.66,6.15 -7.67,3.93 Z" id="path35795" inkscape:connector-curvature="0"/>
      </g>
      <g id="g35801" transform="matrix(-3.7797328,0,0,-3.7797328,2418.5858,700.00011)" style="display:inline;stroke-width:0.63496554">
        <path inkscape:connector-curvature="0" id="path35799" d="m -7.67,3.93 c 0.01,-4.71 5.91,-8.14 7.64,-11.87 1.75,3.72 7.66,7.12 7.7,11.83 C 7.68,6.11 5.96,7.92 3.85,7.92 1.73,7.92 0,6.13 0,3.91 0,6.14 -1.71,7.94 -3.82,7.94 -5.94,7.95 -7.66,6.15 -7.67,3.93 Z" style="fill:#e6180a;stroke-width:0.63496554"/>
      </g>
      <g style="display:inline;stroke-width:0.63496554" transform="matrix(-3.7797328,0,0,-3.7797328,2484.6101,579.95553)" id="g35805">
        <path style="fill:#e6180a;stroke-width:0.63496554" d="m -7.67,3.93 c 0.01,-4.71 5.91,-8.14 7.64,-11.87 1.75,3.72 7.66,7.12 7.7,11.83 C 7.68,6.11 5.96,7.92 3.85,7.92 1.73,7.92 0,6.13 0,3.91 0,6.14 -1.71,7.94 -3.82,7.94 -5.94,7.95 -7.66,6.15 -7.67,3.93 Z" id="path35803" inkscape:connector-curvature="0"/>
      </g>
      <g style="display:inline;stroke-width:0.63496554" transform="matrix(3.7797328,0,0,3.7797328,2484.8372,820.04467)" id="g35809">
        <path style="fill:#e6180a;stroke-width:0.63496554" d="m -7.67,3.93 c 0.01,-4.71 5.91,-8.14 7.64,-11.87 1.75,3.72 7.66,7.12 7.7,11.83 C 7.68,6.11 5.96,7.92 3.85,7.92 1.73,7.92 0,6.13 0,3.91 0,6.14 -1.71,7.94 -3.82,7.94 -5.94,7.95 -7.66,6.15 -7.67,3.93 Z" id="path35807" inkscape:connector-curvature="0"/>
      </g>
      <g id="g36113" transform="matrix(-2.2678397,0,0,-2.2678397,2406.6267,621.97104)" style="display:inline;stroke-width:1.05827594">
        <path inkscape:connector-curvature="0" id="path36111" d="m -7.67,3.93 c 0.01,-4.71 5.91,-8.14 7.64,-11.87 1.75,3.72 7.66,7.12 7.7,11.83 C 7.68,6.11 5.96,7.92 3.85,7.92 1.73,7.92 0,6.13 0,3.91 0,6.14 -1.71,7.94 -3.82,7.94 -5.94,7.95 -7.66,6.15 -7.67,3.93 Z" style="fill:#e6180a;stroke-width:1.05827594"/>
      </g>
      <g style="display:inline;stroke-width:1.05827594" transform="matrix(2.2678397,0,0,2.2678397,2562.8208,778.02896)" id="g36117">
        <path style="fill:#e6180a;stroke-width:1.05827594" d="m -7.67,3.93 c 0.01,-4.71 5.91,-8.14 7.64,-11.87 1.75,3.72 7.66,7.12 7.7,11.83 C 7.68,6.11 5.96,7.92 3.85,7.92 1.73,7.92 0,6.13 0,3.91 0,6.14 -1.71,7.94 -3.82,7.94 -5.94,7.95 -7.66,6.15 -7.67,3.93 Z" id="path36115" inkscape:connector-curvature="0"/>
      </g>
    </g>
    </g></svg>
