<?xml version='1.0' encoding='UTF-8'?>
<!-- Created with Inkscape (http://www.inkscape.org/) and export_objects.py -->
<svg xmlns:cc="http://creativecommons.org/ns#" xmlns:dc="http://purl.org/dc/elements/1.1/" xmlns:inkscape="http://www.inkscape.org/namespaces/inkscape" xmlns:rdf="http://www.w3.org/1999/02/22-rdf-syntax-ns#" xmlns:sodipodi="http://sodipodi.sourceforge.net/DTD/sodipodi-0.dtd" xmlns:xlink="http://www.w3.org/1999/xlink" xmlns="http://www.w3.org/2000/svg" version="1.1" width="57.1500052917mm" height="88.9000026458mm" viewBox="0 0 57.1500052917 88.9000026458" id="svg3285" sodipodi:docname="six-003.svg"><sodipodi:namedview id="base" pagecolor="#ffffff" bordercolor="#666666" borderopacity="1.0" inkscape:pageopacity="0.0" inkscape:pageshadow="2" inkscape:zoom="0.35" inkscape:cx="-50" inkscape:cy="560" inkscape:document-units="mm" inkscape:current-layer="layer1" showgrid="false" inkscape:window-width="1280" inkscape:window-height="940" inkscape:window-x="1909" inkscape:window-y="43" inkscape:window-maximized="1"/>
  <metadata id="metadata3282">
    <rdf:RDF>
      <cc:Work rdf:about="">
        <dc:format>image/svg+xml</dc:format>
        <dc:type rdf:resource="http://purl.org/dc/dcmitype/StillImage"/>
      </cc:Work>
    </rdf:RDF>
  </metadata>
  <g inkscape:groupmode="layer" inkscape:label="six-" transform="matrix(1.000000,0.000000,0.000000,1.000000,-74.234519,-163.498795)"><g id="g3721" inkscape:label="003">
      <rect style="display:inline;opacity:1;fill:#ffffff;fill-opacity:1;stroke:none;stroke-width:0.03527778;stroke-linecap:butt;stroke-linejoin:miter;stroke-miterlimit:47.14606857;stroke-dasharray:none;stroke-dashoffset:0;stroke-opacity:1;paint-order:markers fill stroke" id="rect32139" width="57.150005" height="88.900002" x="74.23452" y="163.49879"/>
      <g id="text32205" style="font-style:normal;font-variant:normal;font-weight:normal;font-stretch:normal;font-size:21.16666794px;line-height:125%;font-family:'Stint Ultra Condensed';-inkscape-font-specification:'Stint Ultra Condensed, ';font-variant-ligatures:normal;font-variant-caps:normal;font-variant-numeric:normal;font-feature-settings:normal;text-align:center;letter-spacing:0px;word-spacing:0px;writing-mode:lr-tb;text-anchor:middle;display:inline;fill:#e6180a;fill-opacity:1;stroke:none;stroke-width:0.26458338" aria-label="6">
        <path id="path3588" style="font-style:normal;font-variant:normal;font-weight:normal;font-stretch:normal;font-size:21.16666794px;font-family:'Stint Ultra Condensed';-inkscape-font-specification:'Stint Ultra Condensed, ';text-align:center;text-anchor:middle;fill:#e6180a;fill-opacity:1;stroke-width:0.26458338" d="m 80.704432,173.59227 q 0.07235,-0.18603 0.206706,-0.47542 0.144694,-0.28939 0.37207,-0.5581 0.237712,-0.27906 0.568441,-0.46509 0.330729,-0.19637 0.785482,-0.19637 0.506429,0 0.950846,0.28939 0.444418,0.28938 0.764811,0.86816 0.33073,0.57878 0.516765,1.45728 0.19637,0.86816 0.19637,2.04638 0,0.97152 -0.186035,1.82935 -0.1757,0.84749 -0.516764,1.48828 -0.341065,0.63045 -0.837159,1.00252 -0.496093,0.36174 -1.126546,0.36174 -0.630452,0 -1.178223,-0.42375 -0.537434,-0.43408 -0.940511,-1.29191 -0.403076,-0.86816 -0.640787,-2.17041 -0.227377,-1.30225 -0.227377,-3.05925 0,-1.79834 0.1757,-3.23494 0.1757,-1.44694 0.537435,-2.4598 0.37207,-1.01286 0.930176,-1.55029 0.568441,-0.54777 1.343587,-0.54777 0.496094,0 0.940511,0.27905 0.444418,0.26872 0.775147,0.80615 0.341064,0.53744 0.527099,1.34359 0.196371,0.79582 0.196371,1.85002 h -1.27124 q 0,-1.53996 -0.310059,-2.34611 -0.299723,-0.80616 -0.919841,-0.80616 -0.434082,0 -0.74414,0.48576 -0.310059,0.47543 -0.506429,1.29191 -0.196371,0.81649 -0.289388,1.9017 -0.09302,1.07487 -0.09302,2.28409 z m 1.674317,-0.56844 q -0.320394,0 -0.578776,0.29973 -0.258383,0.29972 -0.465088,0.7338 -0.196371,0.43408 -0.33073,0.93018 -0.134358,0.49609 -0.19637,0.88883 -0.02067,0.77515 0.08268,1.52963 0.113688,0.75447 0.320394,1.36425 0.217041,0.59945 0.516765,0.97152 0.310058,0.37207 0.671793,0.37207 0.330729,0 0.589112,-0.24805 0.258382,-0.25838 0.434082,-0.72347 0.175699,-0.46508 0.258382,-1.11621 0.09302,-0.66146 0.09302,-1.46761 0,-0.82682 -0.08268,-1.47794 -0.08268,-0.66146 -0.258382,-1.11622 -0.165365,-0.45475 -0.434082,-0.69246 -0.258382,-0.24805 -0.620117,-0.24805 z"/>
      </g>
      <g id="text32209" style="font-style:normal;font-variant:normal;font-weight:normal;font-stretch:normal;font-size:21.16666794px;line-height:125%;font-family:'Stint Ultra Condensed';-inkscape-font-specification:'Stint Ultra Condensed, ';font-variant-ligatures:normal;font-variant-caps:normal;font-variant-numeric:normal;font-feature-settings:normal;text-align:center;letter-spacing:0px;word-spacing:0px;writing-mode:lr-tb;text-anchor:middle;display:inline;fill:#e6180a;fill-opacity:1;stroke:none;stroke-width:0.26458338" transform="scale(-1)" aria-label="6">
        <path id="path3585" style="font-style:normal;font-variant:normal;font-weight:normal;font-stretch:normal;font-size:21.16666794px;font-family:'Stint Ultra Condensed';-inkscape-font-specification:'Stint Ultra Condensed, ';text-align:center;text-anchor:middle;fill:#e6180a;fill-opacity:1;stroke-width:0.26458338" d="m -124.91468,-242.3054 q 0.0724,-0.18604 0.20671,-0.47542 0.14469,-0.28939 0.37207,-0.55811 0.23771,-0.27905 0.56844,-0.46509 0.33073,-0.19637 0.78548,-0.19637 0.50643,0 0.95085,0.28939 0.44441,0.28939 0.76481,0.86817 0.33073,0.57877 0.51676,1.45727 0.19637,0.86816 0.19637,2.04639 0,0.97151 -0.18603,1.82934 -0.1757,0.8475 -0.51677,1.48828 -0.34106,0.63046 -0.83715,1.00253 -0.4961,0.36173 -1.12655,0.36173 -0.63045,0 -1.17822,-0.42374 -0.53744,-0.43409 -0.94051,-1.29192 -0.40308,-0.86816 -0.64079,-2.17041 -0.22738,-1.30224 -0.22738,-3.05924 0,-1.79834 0.1757,-3.23495 0.1757,-1.44694 0.53744,-2.45979 0.37207,-1.01286 0.93017,-1.5503 0.56844,-0.54777 1.34359,-0.54777 0.49609,0 0.94051,0.27906 0.44442,0.26871 0.77515,0.80615 0.34106,0.53743 0.5271,1.34359 0.19637,0.79581 0.19637,1.85001 h -1.27124 q 0,-1.53996 -0.31006,-2.34611 -0.29973,-0.80615 -0.91984,-0.80615 -0.43408,0 -0.74414,0.48576 -0.31006,0.47542 -0.50643,1.29191 -0.19637,0.81649 -0.28939,1.90169 -0.093,1.07487 -0.093,2.2841 z m 1.67432,-0.56844 q -0.3204,0 -0.57878,0.29972 -0.25838,0.29973 -0.46509,0.73381 -0.19637,0.43408 -0.33072,0.93017 -0.13436,0.4961 -0.19638,0.88884 -0.0207,0.77514 0.0827,1.52962 0.11369,0.75448 0.32039,1.36426 0.21704,0.59945 0.51677,0.97152 0.31005,0.37207 0.67179,0.37207 0.33073,0 0.58911,-0.24805 0.25838,-0.25838 0.43408,-0.72347 0.1757,-0.46509 0.25838,-1.11621 0.093,-0.66146 0.093,-1.46761 0,-0.82683 -0.0827,-1.47795 -0.0827,-0.66146 -0.25838,-1.11621 -0.16537,-0.45475 -0.43408,-0.69246 -0.25839,-0.24805 -0.62012,-0.24805 z"/>
      </g>
      <g transform="matrix(0.26448498,0,0,0.26448498,-1097.0562,377.31296)" id="g3627" style="display:inline">
        <g id="g3265" transform="matrix(1.8898664,3.2733446,-3.2733446,1.8898664,4500.563,-619.48073)" style="stroke-width:0.63496554">
          <path inkscape:connector-curvature="0" id="path3263" d="m -7.67,3.93 c 0.01,-4.71 5.91,-8.14 7.64,-11.87 1.75,3.72 7.66,7.12 7.7,11.83 C 7.68,6.11 5.96,7.92 3.85,7.92 1.73,7.92 0,6.13 0,3.91 0,6.14 -1.71,7.94 -3.82,7.94 -5.94,7.95 -7.66,6.15 -7.67,3.93 Z" style="fill:#e6180a;stroke-width:0.63496554"/>
        </g>
        <g style="stroke-width:0.63496554" transform="matrix(-1.8898664,3.2733446,-3.2733446,-1.8898664,4500.5102,-661.13691)" id="g3269">
          <path style="fill:#e6180a;stroke-width:0.63496554" d="m -7.67,3.93 c 0.01,-4.71 5.91,-8.14 7.64,-11.87 1.75,3.72 7.66,7.12 7.7,11.83 C 7.68,6.11 5.96,7.92 3.85,7.92 1.73,7.92 0,6.13 0,3.91 0,6.14 -1.71,7.94 -3.82,7.94 -5.94,7.95 -7.66,6.15 -7.67,3.93 Z" id="path3267" inkscape:connector-curvature="0"/>
        </g>
        <g id="g3375" transform="matrix(-3.7797328,-1.2158643e-8,1.2158643e-8,-3.7797328,4536.5591,-682.01072)" style="stroke-width:0.63496554">
          <path inkscape:connector-curvature="0" id="path3373" d="m -7.67,3.93 c 0.01,-4.71 5.91,-8.14 7.64,-11.87 1.75,3.72 7.66,7.12 7.7,11.83 C 7.68,6.11 5.96,7.92 3.85,7.92 1.73,7.92 0,6.13 0,3.91 0,6.14 -1.71,7.94 -3.82,7.94 -5.94,7.95 -7.66,6.15 -7.67,3.93 Z" style="fill:#e6180a;stroke-width:0.63496554"/>
        </g>
        <g style="stroke-width:0.63496554" transform="matrix(-1.8898664,-3.2733446,3.2733446,-1.8898664,4572.6608,-661.22837)" id="g3387">
          <path style="fill:#e6180a;stroke-width:0.63496554" d="m -7.67,3.93 c 0.01,-4.71 5.91,-8.14 7.64,-11.87 1.75,3.72 7.66,7.12 7.7,11.83 C 7.68,6.11 5.96,7.92 3.85,7.92 1.73,7.92 0,6.13 0,3.91 0,6.14 -1.71,7.94 -3.82,7.94 -5.94,7.95 -7.66,6.15 -7.67,3.93 Z" id="path3385" inkscape:connector-curvature="0"/>
        </g>
        <g id="g3395" transform="matrix(1.8898664,-3.2733446,3.2733446,1.8898664,4572.7136,-619.57221)" style="stroke-width:0.63496554">
          <path inkscape:connector-curvature="0" id="path3393" d="m -7.67,3.93 c 0.01,-4.71 5.91,-8.14 7.64,-11.87 1.75,3.72 7.66,7.12 7.7,11.83 C 7.68,6.11 5.96,7.92 3.85,7.92 1.73,7.92 0,6.13 0,3.91 0,6.14 -1.71,7.94 -3.82,7.94 -5.94,7.95 -7.66,6.15 -7.67,3.93 Z" style="fill:#e6180a;stroke-width:0.63496554"/>
        </g>
        <g style="stroke-width:0.63496554" transform="matrix(3.7797328,1.2158643e-8,-1.2158643e-8,3.7797328,4536.6647,-598.6984)" id="g3403">
          <path style="fill:#e6180a;stroke-width:0.63496554" d="m -7.67,3.93 c 0.01,-4.71 5.91,-8.14 7.64,-11.87 1.75,3.72 7.66,7.12 7.7,11.83 C 7.68,6.11 5.96,7.92 3.85,7.92 1.73,7.92 0,6.13 0,3.91 0,6.14 -1.71,7.94 -3.82,7.94 -5.94,7.95 -7.66,6.15 -7.67,3.93 Z" id="path3401" inkscape:connector-curvature="0"/>
        </g>
      </g>
      <g style="display:inline;stroke-width:1.05827594" transform="matrix(-0.59980954,0,0,-0.59980954,82.153991,187.31132)" id="g36105">
        <path style="fill:#e6180a;stroke-width:1.05827594" d="m -7.67,3.93 c 0.01,-4.71 5.91,-8.14 7.64,-11.87 1.75,3.72 7.66,7.12 7.7,11.83 C 7.68,6.11 5.96,7.92 3.85,7.92 1.73,7.92 0,6.13 0,3.91 0,6.14 -1.71,7.94 -3.82,7.94 -5.94,7.95 -7.66,6.15 -7.67,3.93 Z" id="path36103" inkscape:connector-curvature="0"/>
      </g>
      <g id="g36109" transform="matrix(0.59980954,0,0,0.59980954,123.46498,228.5863)" style="display:inline;stroke-width:1.05827594">
        <path inkscape:connector-curvature="0" id="path36107" d="m -7.67,3.93 c 0.01,-4.71 5.91,-8.14 7.64,-11.87 1.75,3.72 7.66,7.12 7.7,11.83 C 7.68,6.11 5.96,7.92 3.85,7.92 1.73,7.92 0,6.13 0,3.91 0,6.14 -1.71,7.94 -3.82,7.94 -5.94,7.95 -7.66,6.15 -7.67,3.93 Z" style="fill:#e6180a;stroke-width:1.05827594"/>
      </g>
    </g>
    </g></svg>
