<?xml version='1.0' encoding='UTF-8'?>
<!-- Created with Inkscape (http://www.inkscape.org/) and export_objects.py -->
<svg xmlns:cc="http://creativecommons.org/ns#" xmlns:dc="http://purl.org/dc/elements/1.1/" xmlns:inkscape="http://www.inkscape.org/namespaces/inkscape" xmlns:rdf="http://www.w3.org/1999/02/22-rdf-syntax-ns#" xmlns:sodipodi="http://sodipodi.sourceforge.net/DTD/sodipodi-0.dtd" xmlns:xlink="http://www.w3.org/1999/xlink" xmlns="http://www.w3.org/2000/svg" version="1.1" width="57.1500026458mm" height="88.8999973542mm" viewBox="0 0 57.1500026458 88.8999973542" id="svg24051" sodipodi:docname="heart-007.svg"><sodipodi:namedview id="base" pagecolor="#ffffff" bordercolor="#666666" borderopacity="1.0" inkscape:pageopacity="0.0" inkscape:pageshadow="2" inkscape:zoom="0.35" inkscape:cx="-50" inkscape:cy="560" inkscape:document-units="mm" inkscape:current-layer="layer1" showgrid="false" inkscape:lockguides="true" inkscape:window-width="1280" inkscape:window-height="940" inkscape:window-x="1909" inkscape:window-y="43" inkscape:window-maximized="1"/>
  <metadata id="metadata24048">
    <rdf:RDF>
      <cc:Work rdf:about="">
        <dc:format>image/svg+xml</dc:format>
        <dc:type rdf:resource="http://purl.org/dc/dcmitype/StillImage"/>
      </cc:Work>
    </rdf:RDF>
  </metadata>
  <g inkscape:groupmode="layer" inkscape:label="heart-" transform="matrix(1.000000,0.000000,0.000000,1.000000,82.247618,-62.049985)"><g transform="matrix(0.26448498,0,0,0.26448498,-501.29469,-78.639478)" id="g17236" inkscape:label="007">
      <rect style="display:inline;opacity:1;fill:#ffffff;fill-opacity:1;stroke:none;stroke-width:0.13338292;stroke-linecap:butt;stroke-linejoin:miter;stroke-miterlimit:47.14606857;stroke-dasharray:none;stroke-dashoffset:0;stroke-opacity:1;paint-order:markers fill stroke" id="rect32135" width="216.08034" height="336.12494" x="1584.3889" y="531.93744"/>
      <g id="text32189" style="font-style:normal;font-variant:normal;font-weight:normal;font-stretch:normal;font-size:80.02975464px;line-height:125%;font-family:'Stint Ultra Condensed';-inkscape-font-specification:'Stint Ultra Condensed, ';font-variant-ligatures:normal;font-variant-caps:normal;font-variant-numeric:normal;font-feature-settings:normal;text-align:center;letter-spacing:0px;word-spacing:0px;writing-mode:lr-tb;text-anchor:middle;display:inline;fill:#e6180a;fill-opacity:1;stroke:none;stroke-width:1.00037193" aria-label="8" transform="translate(-2088.7764,79.839752)">
        <path id="path12622" style="font-style:normal;font-variant:normal;font-weight:normal;font-stretch:normal;font-size:80.02975464px;font-family:'Stint Ultra Condensed';-inkscape-font-specification:'Stint Ultra Condensed, ';text-align:center;text-anchor:middle;fill:#e6180a;fill-opacity:1;stroke-width:1.00037193" d="m 3707.0058,488.8146 q 3.556,1.32862 5.3145,5.15817 1.7975,3.82955 1.7975,9.49572 0,3.47786 -0.7424,6.36956 -0.7425,2.8917 -2.1493,4.96278 -1.4067,2.07108 -3.4387,3.24339 -2.032,1.13324 -4.6111,1.13324 -2.5791,0 -4.6111,-1.13324 -2.032,-1.17231 -3.4779,-3.24339 -1.4067,-2.07108 -2.1492,-4.96278 -0.7425,-2.8917 -0.7425,-6.36956 0,-2.81355 0.4689,-5.23632 0.469,-2.42278 1.3677,-4.29848 0.8988,-1.91477 2.2274,-3.24339 1.3287,-1.36769 3.048,-2.032 -1.4067,-0.82062 -2.4618,-2.11016 -1.016,-1.32862 -1.7194,-2.85263 -0.6643,-1.56308 -1.016,-3.28247 -0.3126,-1.71939 -0.3126,-3.36062 0,-3.00893 0.6643,-5.50986 0.6643,-2.50093 1.8757,-4.29848 1.2505,-1.79754 2.9698,-2.77446 1.7194,-1.01601 3.7905,-1.01601 2.0711,0 3.7905,1.01601 1.7194,0.97692 2.9698,2.77446 1.2505,1.79755 1.9539,4.29848 0.7034,2.50093 0.7034,5.50986 0,1.64123 -0.3517,3.3997 -0.3126,1.71939 -1.016,3.32155 -0.6643,1.56308 -1.7194,2.8917 -1.016,1.32862 -2.4228,2.14923 z m 0.7034,-11.48864 q 0,-1.91478 -0.2735,-3.67324 -0.2345,-1.75847 -0.7816,-3.08709 -0.508,-1.36769 -1.4067,-2.14923 -0.8597,-0.78155 -2.0711,-0.78155 -1.2505,0 -2.1493,0.78155 -0.8597,0.78154 -1.4067,2.14923 -0.5471,1.32862 -0.7816,3.08709 -0.2344,1.75846 -0.2344,3.67324 0,1.91477 0.2735,3.67324 0.2735,1.75846 0.8206,3.08708 0.5862,1.32862 1.4459,2.11016 0.8597,0.78154 2.032,0.78154 1.1723,0 2.032,-0.78154 0.8597,-0.78154 1.4067,-2.11016 0.5471,-1.32862 0.8207,-3.08708 0.2735,-1.75847 0.2735,-3.67324 z m -4.5329,13.5988 q -2.8527,0 -4.4548,3.16524 -1.5631,3.16524 -1.5631,8.83141 0,5.62709 1.524,8.87049 1.524,3.20431 4.4939,3.20431 2.9307,0 4.4548,-3.20431 1.524,-3.2434 1.524,-8.87049 0,-2.81354 -0.4299,-5.04094 -0.3908,-2.22739 -1.1723,-3.75139 -0.7815,-1.56308 -1.9148,-2.3837 -1.0941,-0.82062 -2.4618,-0.82062 z" inkscape:connector-curvature="0"/>
      </g>
      <g id="text32193" style="font-style:normal;font-variant:normal;font-weight:normal;font-stretch:normal;font-size:80.02975464px;line-height:125%;font-family:'Stint Ultra Condensed';-inkscape-font-specification:'Stint Ultra Condensed, ';font-variant-ligatures:normal;font-variant-caps:normal;font-variant-numeric:normal;font-feature-settings:normal;text-align:center;letter-spacing:0px;word-spacing:0px;writing-mode:lr-tb;text-anchor:middle;display:inline;fill:#e6180a;fill-opacity:1;stroke:none;stroke-width:1.00037193" transform="rotate(180,-1044.3882,39.919876)" aria-label="8">
        <path id="path12619" style="font-style:normal;font-variant:normal;font-weight:normal;font-stretch:normal;font-size:80.02975464px;font-family:'Stint Ultra Condensed';-inkscape-font-specification:'Stint Ultra Condensed, ';text-align:center;text-anchor:middle;fill:#e6180a;fill-opacity:1;stroke-width:1.00037193" d="m -3855.4048,-751.50601 q 3.556,1.32862 5.3144,5.15816 1.7976,3.82955 1.7976,9.49572 0,3.47786 -0.7425,6.36956 -0.7424,2.8917 -2.1492,4.96278 -1.4068,2.07108 -3.4388,3.24339 -2.032,1.13324 -4.6111,1.13324 -2.5791,0 -4.6111,-1.13324 -2.032,-1.17231 -3.4778,-3.24339 -1.4068,-2.07108 -2.1493,-4.96278 -0.7424,-2.8917 -0.7424,-6.36956 0,-2.81354 0.4689,-5.23632 0.4689,-2.42278 1.3677,-4.29847 0.8988,-1.91478 2.2274,-3.2434 1.3286,-1.36769 3.048,-2.032 -1.4068,-0.82062 -2.4619,-2.11016 -1.016,-1.32862 -1.7193,-2.85262 -0.6644,-1.56309 -1.016,-3.28247 -0.3127,-1.71939 -0.3127,-3.36063 0,-3.00893 0.6643,-5.50986 0.6644,-2.50093 1.8757,-4.29847 1.2505,-1.79755 2.9699,-2.77447 1.7194,-1.01601 3.7905,-1.01601 2.0711,0 3.7904,1.01601 1.7194,0.97692 2.9699,2.77447 1.2505,1.79754 1.9538,4.29847 0.7034,2.50093 0.7034,5.50986 0,1.64124 -0.3517,3.3997 -0.3126,1.71939 -1.016,3.32155 -0.6643,1.56308 -1.7194,2.8917 -1.016,1.32862 -2.4227,2.14924 z m 0.7034,-11.48865 q 0,-1.91477 -0.2736,-3.67324 -0.2344,-1.75847 -0.7815,-3.08709 -0.508,-1.36769 -1.4068,-2.14923 -0.8597,-0.78154 -2.0711,-0.78154 -1.2504,0 -2.1492,0.78154 -0.8597,0.78154 -1.4068,2.14923 -0.5471,1.32862 -0.7815,3.08709 -0.2345,1.75847 -0.2345,3.67324 0,1.91477 0.2736,3.67324 0.2735,1.75847 0.8206,3.08709 0.5861,1.32861 1.4458,2.11016 0.8597,0.78154 2.032,0.78154 1.1723,0 2.032,-0.78154 0.8597,-0.78155 1.4068,-2.11016 0.5471,-1.32862 0.8206,-3.08709 0.2736,-1.75847 0.2736,-3.67324 z m -4.533,13.59881 q -2.8526,0 -4.4548,3.16524 -1.563,3.16523 -1.563,8.8314 0,5.6271 1.524,8.87049 1.524,3.20432 4.4938,3.20432 2.9308,0 4.4548,-3.20432 1.524,-3.24339 1.524,-8.87049 0,-2.81354 -0.4298,-5.04093 -0.3908,-2.22739 -1.1723,-3.7514 -0.7816,-1.56308 -1.9148,-2.3837 -1.0942,-0.82061 -2.4619,-0.82061 z" inkscape:connector-curvature="0"/>
      </g>
      <g id="g35709" transform="matrix(-3.7797328,0,0,-3.7797328,1671.308,579.95553)" style="display:inline;stroke-width:0.63496554">
        <path inkscape:connector-curvature="0" id="path35707" d="m -7.67,3.93 c 0.01,-4.71 5.91,-8.14 7.64,-11.87 1.75,3.72 7.66,7.12 7.7,11.83 C 7.68,6.11 5.96,7.92 3.85,7.92 1.73,7.92 0,6.13 0,3.91 0,6.14 -1.71,7.94 -3.82,7.94 -5.94,7.95 -7.66,6.15 -7.67,3.93 Z" style="fill:#e6180a;stroke-width:0.63496554"/>
      </g>
      <g style="display:inline;stroke-width:0.63496554" transform="matrix(-3.7797328,0,0,-3.7797328,1758.3404,579.95553)" id="g35713">
        <path style="fill:#e6180a;stroke-width:0.63496554" d="m -7.67,3.93 c 0.01,-4.71 5.91,-8.14 7.64,-11.87 1.75,3.72 7.66,7.12 7.7,11.83 C 7.68,6.11 5.96,7.92 3.85,7.92 1.73,7.92 0,6.13 0,3.91 0,6.14 -1.71,7.94 -3.82,7.94 -5.94,7.95 -7.66,6.15 -7.67,3.93 Z" id="path35711" inkscape:connector-curvature="0"/>
      </g>
      <g style="display:inline;stroke-width:0.63496554" transform="matrix(-3.7797328,0,0,-3.7797328,1671.308,675.99123)" id="g35717">
        <path style="fill:#e6180a;stroke-width:0.63496554" d="m -7.67,3.93 c 0.01,-4.71 5.91,-8.14 7.64,-11.87 1.75,3.72 7.66,7.12 7.7,11.83 C 7.68,6.11 5.96,7.92 3.85,7.92 1.73,7.92 0,6.13 0,3.91 0,6.14 -1.71,7.94 -3.82,7.94 -5.94,7.95 -7.66,6.15 -7.67,3.93 Z" id="path35715" inkscape:connector-curvature="0"/>
      </g>
      <g id="g35721" transform="matrix(-3.7797328,0,0,-3.7797328,1758.3403,675.99123)" style="display:inline;stroke-width:0.63496554">
        <path inkscape:connector-curvature="0" id="path35719" d="m -7.67,3.93 c 0.01,-4.71 5.91,-8.14 7.64,-11.87 1.75,3.72 7.66,7.12 7.7,11.83 C 7.68,6.11 5.96,7.92 3.85,7.92 1.73,7.92 0,6.13 0,3.91 0,6.14 -1.71,7.94 -3.82,7.94 -5.94,7.95 -7.66,6.15 -7.67,3.93 Z" style="fill:#e6180a;stroke-width:0.63496554"/>
      </g>
      <g id="g35725" transform="matrix(3.7797328,0,0,3.7797328,1626.5181,820.04467)" style="display:inline;stroke-width:0.63496554">
        <path inkscape:connector-curvature="0" id="path35723" d="m -7.67,3.93 c 0.01,-4.71 5.91,-8.14 7.64,-11.87 1.75,3.72 7.66,7.12 7.7,11.83 C 7.68,6.11 5.96,7.92 3.85,7.92 1.73,7.92 0,6.13 0,3.91 0,6.14 -1.71,7.94 -3.82,7.94 -5.94,7.95 -7.66,6.15 -7.67,3.93 Z" style="fill:#e6180a;stroke-width:0.63496554"/>
      </g>
      <g style="display:inline;stroke-width:0.63496554" transform="matrix(3.7797328,0,0,3.7797328,1713.5502,820.04467)" id="g35729">
        <path style="fill:#e6180a;stroke-width:0.63496554" d="m -7.67,3.93 c 0.01,-4.71 5.91,-8.14 7.64,-11.87 1.75,3.72 7.66,7.12 7.7,11.83 C 7.68,6.11 5.96,7.92 3.85,7.92 1.73,7.92 0,6.13 0,3.91 0,6.14 -1.71,7.94 -3.82,7.94 -5.94,7.95 -7.66,6.15 -7.67,3.93 Z" id="path35727" inkscape:connector-curvature="0"/>
      </g>
      <g style="display:inline;stroke-width:0.63496554" transform="matrix(3.7797328,0,0,3.7797328,1626.518,724.00891)" id="g35733">
        <path style="fill:#e6180a;stroke-width:0.63496554" d="m -7.67,3.93 c 0.01,-4.71 5.91,-8.14 7.64,-11.87 1.75,3.72 7.66,7.12 7.7,11.83 C 7.68,6.11 5.96,7.92 3.85,7.92 1.73,7.92 0,6.13 0,3.91 0,6.14 -1.71,7.94 -3.82,7.94 -5.94,7.95 -7.66,6.15 -7.67,3.93 Z" id="path35731" inkscape:connector-curvature="0"/>
      </g>
      <g id="g35737" transform="matrix(3.7797328,0,0,3.7797328,1713.5502,724.00891)" style="display:inline;stroke-width:0.63496554">
        <path inkscape:connector-curvature="0" id="path35735" d="m -7.67,3.93 c 0.01,-4.71 5.91,-8.14 7.64,-11.87 1.75,3.72 7.66,7.12 7.7,11.83 C 7.68,6.11 5.96,7.92 3.85,7.92 1.73,7.92 0,6.13 0,3.91 0,6.14 -1.71,7.94 -3.82,7.94 -5.94,7.95 -7.66,6.15 -7.67,3.93 Z" style="fill:#e6180a;stroke-width:0.63496554"/>
      </g>
      <g style="display:inline;stroke-width:1.05827594" transform="matrix(-2.2678397,0,0,-2.2678397,1614.332,621.97103)" id="g36089">
        <path style="fill:#e6180a;stroke-width:1.05827594" d="m -7.67,3.93 c 0.01,-4.71 5.91,-8.14 7.64,-11.87 1.75,3.72 7.66,7.12 7.7,11.83 C 7.68,6.11 5.96,7.92 3.85,7.92 1.73,7.92 0,6.13 0,3.91 0,6.14 -1.71,7.94 -3.82,7.94 -5.94,7.95 -7.66,6.15 -7.67,3.93 Z" id="path36087" inkscape:connector-curvature="0"/>
      </g>
      <g id="g36093" transform="matrix(2.2678397,0,0,2.2678397,1770.5261,778.02896)" style="display:inline;stroke-width:1.05827594">
        <path inkscape:connector-curvature="0" id="path36091" d="m -7.67,3.93 c 0.01,-4.71 5.91,-8.14 7.64,-11.87 1.75,3.72 7.66,7.12 7.7,11.83 C 7.68,6.11 5.96,7.92 3.85,7.92 1.73,7.92 0,6.13 0,3.91 0,6.14 -1.71,7.94 -3.82,7.94 -5.94,7.95 -7.66,6.15 -7.67,3.93 Z" style="fill:#e6180a;stroke-width:1.05827594"/>
      </g>
    </g>
    </g></svg>
