<?xml version='1.0' encoding='UTF-8'?>
<!-- Created with Inkscape (http://www.inkscape.org/) and export_objects.py -->
<svg xmlns:cc="http://creativecommons.org/ns#" xmlns:dc="http://purl.org/dc/elements/1.1/" xmlns:inkscape="http://www.inkscape.org/namespaces/inkscape" xmlns:rdf="http://www.w3.org/1999/02/22-rdf-syntax-ns#" xmlns:sodipodi="http://sodipodi.sourceforge.net/DTD/sodipodi-0.dtd" xmlns:xlink="http://www.w3.org/1999/xlink" xmlns="http://www.w3.org/2000/svg" version="1.1" width="57.1500026458mm" height="88.8999973542mm" viewBox="0 0 57.1500026458 88.8999973542" id="svg24051" sodipodi:docname="heart-011.svg"><sodipodi:namedview id="base" pagecolor="#ffffff" bordercolor="#666666" borderopacity="1.0" inkscape:pageopacity="0.0" inkscape:pageshadow="2" inkscape:zoom="0.35" inkscape:cx="-50" inkscape:cy="560" inkscape:document-units="mm" inkscape:current-layer="layer1" showgrid="false" inkscape:lockguides="true" inkscape:window-width="1280" inkscape:window-height="940" inkscape:window-x="1909" inkscape:window-y="43" inkscape:window-maximized="1"/>
  <metadata id="metadata24048">
    <rdf:RDF>
      <cc:Work rdf:about="">
        <dc:format>image/svg+xml</dc:format>
        <dc:type rdf:resource="http://purl.org/dc/dcmitype/StillImage"/>
      </cc:Work>
    </rdf:RDF>
  </metadata>
  <g inkscape:groupmode="layer" inkscape:label="heart-" transform="matrix(1.000000,0.000000,0.000000,1.000000,-197.152416,-62.049985)"><g transform="matrix(0.26448498,0,0,0.26448498,-501.29469,-78.639478)" id="g17787" inkscape:label="011">
      <rect style="display:inline;opacity:1;fill:#ffffff;fill-opacity:1;stroke:none;stroke-width:0.13338292;stroke-linecap:butt;stroke-linejoin:miter;stroke-miterlimit:47.14606857;stroke-dasharray:none;stroke-dashoffset:0;stroke-opacity:1;paint-order:markers fill stroke" id="rect32143" width="216.08034" height="336.12494" x="2640.7817" y="531.93744"/>
      <g id="text32221" style="font-style:normal;font-variant:normal;font-weight:normal;font-stretch:normal;font-size:80.02975464px;line-height:125%;font-family:'Stint Ultra Condensed';-inkscape-font-specification:'Stint Ultra Condensed, ';font-variant-ligatures:normal;font-variant-caps:normal;font-variant-numeric:normal;font-feature-settings:normal;text-align:center;letter-spacing:0px;word-spacing:0px;writing-mode:lr-tb;text-anchor:middle;display:inline;fill:#e6180a;fill-opacity:1;stroke:none;stroke-width:1.00037193" aria-label="4" transform="translate(-2088.7764,79.839752)">
        <path id="path12598" style="font-style:normal;font-variant:normal;font-weight:normal;font-stretch:normal;font-size:80.02975464px;font-family:'Stint Ultra Condensed';-inkscape-font-specification:'Stint Ultra Condensed, ';text-align:center;text-anchor:middle;fill:#e6180a;fill-opacity:1;stroke-width:1.00037193" d="m 4756.2087,513.70673 h 4.7674 v -9.57387 h -13.1689 v -4.10309 l 11.684,-35.59917 h 6.2132 v 35.52102 h 5.549 v 4.18124 h -5.549 v 9.57387 h 4.8065 v 4.41571 h -14.3022 z m 4.7674,-41.61703 -9.0268,27.86192 h 9.0268 z" inkscape:connector-curvature="0"/>
      </g>
      <g id="text32225" style="font-style:normal;font-variant:normal;font-weight:normal;font-stretch:normal;font-size:80.02975464px;line-height:125%;font-family:'Stint Ultra Condensed';-inkscape-font-specification:'Stint Ultra Condensed, ';font-variant-ligatures:normal;font-variant-caps:normal;font-variant-numeric:normal;font-feature-settings:normal;text-align:center;letter-spacing:0px;word-spacing:0px;writing-mode:lr-tb;text-anchor:middle;display:inline;fill:#e6180a;fill-opacity:1;stroke:none;stroke-width:1.00037193" transform="rotate(180,-1044.3882,39.919876)" aria-label="4">
        <path id="path12595" style="font-style:normal;font-variant:normal;font-weight:normal;font-stretch:normal;font-size:80.02975464px;font-family:'Stint Ultra Condensed';-inkscape-font-specification:'Stint Ultra Condensed, ';text-align:center;text-anchor:middle;fill:#e6180a;fill-opacity:1;stroke-width:1.00037193" d="m -4918.9881,-726.61401 h 4.7674 v -9.57387 h -13.1689 v -4.10309 l 11.684,-35.59917 h 6.2133 v 35.52102 h 5.5489 v 4.18124 h -5.5489 v 9.57387 h 4.8064 v 4.41571 h -14.3022 z m 4.7674,-41.61703 -9.0268,27.86192 h 9.0268 z" inkscape:connector-curvature="0"/>
      </g>
      <g id="g35813" transform="matrix(-3.7797328,0,0,-3.7797328,2814.7334,700.00013)" style="display:inline;stroke-width:0.63496554">
        <path inkscape:connector-curvature="0" id="path35811" d="m -7.67,3.93 c 0.01,-4.71 5.91,-8.14 7.64,-11.87 1.75,3.72 7.66,7.12 7.7,11.83 C 7.68,6.11 5.96,7.92 3.85,7.92 1.73,7.92 0,6.13 0,3.91 0,6.14 -1.71,7.94 -3.82,7.94 -5.94,7.95 -7.66,6.15 -7.67,3.93 Z" style="fill:#e6180a;stroke-width:0.63496554"/>
      </g>
      <g style="display:inline;stroke-width:0.63496554" transform="matrix(-3.7797328,0,0,-3.7797328,2682.6842,700.00013)" id="g35817">
        <path style="fill:#e6180a;stroke-width:0.63496554" d="m -7.67,3.93 c 0.01,-4.71 5.91,-8.14 7.64,-11.87 1.75,3.72 7.66,7.12 7.7,11.83 C 7.68,6.11 5.96,7.92 3.85,7.92 1.73,7.92 0,6.13 0,3.91 0,6.14 -1.71,7.94 -3.82,7.94 -5.94,7.95 -7.66,6.15 -7.67,3.93 Z" id="path35815" inkscape:connector-curvature="0"/>
      </g>
      <g id="g35821" transform="matrix(-3.7797328,0,0,-3.7797328,2748.7085,579.95555)" style="display:inline;stroke-width:0.63496554">
        <path inkscape:connector-curvature="0" id="path35819" d="m -7.67,3.93 c 0.01,-4.71 5.91,-8.14 7.64,-11.87 1.75,3.72 7.66,7.12 7.7,11.83 C 7.68,6.11 5.96,7.92 3.85,7.92 1.73,7.92 0,6.13 0,3.91 0,6.14 -1.71,7.94 -3.82,7.94 -5.94,7.95 -7.66,6.15 -7.67,3.93 Z" style="fill:#e6180a;stroke-width:0.63496554"/>
      </g>
      <g id="g35825" transform="matrix(3.7797328,0,0,3.7797328,2748.9356,820.04467)" style="display:inline;stroke-width:0.63496554">
        <path inkscape:connector-curvature="0" id="path35823" d="m -7.67,3.93 c 0.01,-4.71 5.91,-8.14 7.64,-11.87 1.75,3.72 7.66,7.12 7.7,11.83 C 7.68,6.11 5.96,7.92 3.85,7.92 1.73,7.92 0,6.13 0,3.91 0,6.14 -1.71,7.94 -3.82,7.94 -5.94,7.95 -7.66,6.15 -7.67,3.93 Z" style="fill:#e6180a;stroke-width:0.63496554"/>
      </g>
      <g style="display:inline;stroke-width:1.05827594" transform="matrix(-2.2678397,0,0,-2.2678397,2670.7251,621.97106)" id="g36121">
        <path style="fill:#e6180a;stroke-width:1.05827594" d="m -7.67,3.93 c 0.01,-4.71 5.91,-8.14 7.64,-11.87 1.75,3.72 7.66,7.12 7.7,11.83 C 7.68,6.11 5.96,7.92 3.85,7.92 1.73,7.92 0,6.13 0,3.91 0,6.14 -1.71,7.94 -3.82,7.94 -5.94,7.95 -7.66,6.15 -7.67,3.93 Z" id="path36119" inkscape:connector-curvature="0"/>
      </g>
      <g id="g36125" transform="matrix(2.2678397,0,0,2.2678397,2826.9192,778.02906)" style="display:inline;stroke-width:1.05827594">
        <path inkscape:connector-curvature="0" id="path36123" d="m -7.67,3.93 c 0.01,-4.71 5.91,-8.14 7.64,-11.87 1.75,3.72 7.66,7.12 7.7,11.83 C 7.68,6.11 5.96,7.92 3.85,7.92 1.73,7.92 0,6.13 0,3.91 0,6.14 -1.71,7.94 -3.82,7.94 -5.94,7.95 -7.66,6.15 -7.67,3.93 Z" style="fill:#e6180a;stroke-width:1.05827594"/>
      </g>
    </g>
    </g></svg>
