<?xml version='1.0' encoding='UTF-8'?>
<!-- Created with Inkscape (http://www.inkscape.org/) and export_objects.py -->
<svg xmlns:cc="http://creativecommons.org/ns#" xmlns:dc="http://purl.org/dc/elements/1.1/" xmlns:inkscape="http://www.inkscape.org/namespaces/inkscape" xmlns:rdf="http://www.w3.org/1999/02/22-rdf-syntax-ns#" xmlns:sodipodi="http://sodipodi.sourceforge.net/DTD/sodipodi-0.dtd" xmlns:xlink="http://www.w3.org/1999/xlink" xmlns="http://www.w3.org/2000/svg" version="1.1" width="57.1500026458mm" height="88.8999973542mm" viewBox="0 0 57.1500026458 88.8999973542" id="svg24051" sodipodi:docname="heart-012.svg"><sodipodi:namedview id="base" pagecolor="#ffffff" bordercolor="#666666" borderopacity="1.0" inkscape:pageopacity="0.0" inkscape:pageshadow="2" inkscape:zoom="0.35" inkscape:cx="-50" inkscape:cy="560" inkscape:document-units="mm" inkscape:current-layer="layer1" showgrid="false" inkscape:lockguides="true" inkscape:window-width="1280" inkscape:window-height="940" inkscape:window-x="1909" inkscape:window-y="43" inkscape:window-maximized="1"/>
  <metadata id="metadata24048">
    <rdf:RDF>
      <cc:Work rdf:about="">
        <dc:format>image/svg+xml</dc:format>
        <dc:type rdf:resource="http://purl.org/dc/dcmitype/StillImage"/>
      </cc:Work>
    </rdf:RDF>
  </metadata>
  <g inkscape:groupmode="layer" inkscape:label="heart-" transform="matrix(1.000000,0.000000,0.000000,1.000000,-267.002419,-62.049985)"><g transform="matrix(0.26448498,0,0,0.26448498,-501.29469,-78.639478)" id="g17804" inkscape:label="012">
      <rect y="531.93744" x="2904.8799" height="336.12494" width="216.08034" id="rect32145" style="display:inline;opacity:1;fill:#ffffff;fill-opacity:1;stroke:none;stroke-width:0.13338292;stroke-linecap:butt;stroke-linejoin:miter;stroke-miterlimit:47.14606857;stroke-dasharray:none;stroke-dashoffset:0;stroke-opacity:1;paint-order:markers fill stroke"/>
      <g id="text32229" style="font-style:normal;font-variant:normal;font-weight:normal;font-stretch:normal;font-size:80.02975464px;line-height:125%;font-family:'Stint Ultra Condensed';-inkscape-font-specification:'Stint Ultra Condensed, ';font-variant-ligatures:normal;font-variant-caps:normal;font-variant-numeric:normal;font-feature-settings:normal;text-align:center;letter-spacing:0px;word-spacing:0px;writing-mode:lr-tb;text-anchor:middle;display:inline;fill:#e6180a;fill-opacity:1;stroke:none;stroke-width:1.00037193" aria-label="3" transform="translate(-2088.7764,79.839752)">
        <path id="path12592" style="font-style:normal;font-variant:normal;font-weight:normal;font-stretch:normal;font-size:80.02975464px;font-family:'Stint Ultra Condensed';-inkscape-font-specification:'Stint Ultra Condensed, ';text-align:center;text-anchor:middle;fill:#e6180a;fill-opacity:1;stroke-width:1.00037193" d="m 5024.449,484.75065 q 3.1262,0.78154 4.9628,2.69632 1.8757,1.8757 2.8135,4.29847 0.977,2.3837 1.2505,5.00186 0.3126,2.57909 0.3126,4.72832 0,4.22032 -0.7424,7.54187 -0.7425,3.28247 -2.1493,5.54894 -1.4067,2.26646 -3.3997,3.43878 -1.9538,1.17231 -4.4157,1.17231 -2.0711,0 -3.9077,-1.01601 -1.7975,-0.97692 -3.1652,-3.20431 -1.3677,-2.22739 -2.1493,-5.74433 -0.7815,-3.55601 -0.7815,-8.63602 h 4.8065 q 0,7.46371 1.3286,10.90249 1.3286,3.43878 4.1031,3.43878 1.524,0 2.5791,-1.05508 1.0551,-1.09416 1.6803,-2.93078 0.6643,-1.83662 0.9378,-4.25939 0.3126,-2.42278 0.3126,-5.11909 0,-2.93078 -0.4689,-5.31448 -0.4689,-2.42278 -1.524,-4.14216 -1.016,-1.71939 -2.6963,-2.65724 -1.6803,-0.97693 -4.1031,-1.01601 v -4.22031 l 8.0108,-15.3182 h -9.6911 v 8.44064 h -4.2594 V 464.4306 h 19.4604 v 3.36062 z" inkscape:connector-curvature="0"/>
      </g>
      <g id="text32233" style="font-style:normal;font-variant:normal;font-weight:normal;font-stretch:normal;font-size:80.02975464px;line-height:125%;font-family:'Stint Ultra Condensed';-inkscape-font-specification:'Stint Ultra Condensed, ';font-variant-ligatures:normal;font-variant-caps:normal;font-variant-numeric:normal;font-feature-settings:normal;text-align:center;letter-spacing:0px;word-spacing:0px;writing-mode:lr-tb;text-anchor:middle;display:inline;fill:#e6180a;fill-opacity:1;stroke:none;stroke-width:1.00037193" transform="rotate(180,-1044.3882,39.919876)" aria-label="3">
        <path id="path12589" style="font-style:normal;font-variant:normal;font-weight:normal;font-stretch:normal;font-size:80.02975464px;font-family:'Stint Ultra Condensed';-inkscape-font-specification:'Stint Ultra Condensed, ';text-align:center;text-anchor:middle;fill:#e6180a;fill-opacity:1;stroke-width:1.00037193" d="m -5178.944,-755.57009 q 3.1261,0.78154 4.9627,2.69632 1.8757,1.8757 2.8136,4.29847 0.9769,2.3837 1.2504,5.00186 0.3127,2.57909 0.3127,4.72832 0,4.22032 -0.7425,7.54187 -0.7425,3.28247 -2.1492,5.54894 -1.4068,2.26646 -3.3997,3.43878 -1.9539,1.17231 -4.4157,1.17231 -2.0711,0 -3.9077,-1.01601 -1.7976,-0.97692 -3.1653,-3.20431 -1.3677,-2.22739 -2.1492,-5.74433 -0.7816,-3.55601 -0.7816,-8.63602 h 4.8065 q 0,7.46371 1.3286,10.90249 1.3287,3.43878 4.1031,3.43878 1.524,0 2.5791,-1.05508 1.0551,-1.09416 1.6803,-2.93078 0.6643,-1.83662 0.9379,-4.25939 0.3126,-2.42278 0.3126,-5.11909 0,-2.93078 -0.4689,-5.31448 -0.469,-2.42278 -1.524,-4.14216 -1.016,-1.71939 -2.6964,-2.65724 -1.6803,-0.97693 -4.103,-1.016 v -4.22032 l 8.0107,-15.3182 h -9.6911 v 8.44064 h -4.2594 v -12.89542 h 19.4604 v 3.36062 z" inkscape:connector-curvature="0"/>
      </g>
      <g id="g35829" transform="matrix(-3.7797328,0,0,-3.7797328,3012.807,700.00014)" style="display:inline;stroke-width:0.63496554">
        <path inkscape:connector-curvature="0" id="path35827" d="m -7.67,3.93 c 0.01,-4.71 5.91,-8.14 7.64,-11.87 1.75,3.72 7.66,7.12 7.7,11.83 C 7.68,6.11 5.96,7.92 3.85,7.92 1.73,7.92 0,6.13 0,3.91 0,6.14 -1.71,7.94 -3.82,7.94 -5.94,7.95 -7.66,6.15 -7.67,3.93 Z" style="fill:#e6180a;stroke-width:0.63496554"/>
      </g>
      <g style="display:inline;stroke-width:0.63496554" transform="matrix(-3.7797328,0,0,-3.7797328,3012.8068,579.95556)" id="g35833">
        <path style="fill:#e6180a;stroke-width:0.63496554" d="m -7.67,3.93 c 0.01,-4.71 5.91,-8.14 7.64,-11.87 1.75,3.72 7.66,7.12 7.7,11.83 C 7.68,6.11 5.96,7.92 3.85,7.92 1.73,7.92 0,6.13 0,3.91 0,6.14 -1.71,7.94 -3.82,7.94 -5.94,7.95 -7.66,6.15 -7.67,3.93 Z" id="path35831" inkscape:connector-curvature="0"/>
      </g>
      <g style="display:inline;stroke-width:0.63496554" transform="matrix(3.7797328,0,0,3.7797328,3013.0339,820.04467)" id="g35837">
        <path style="fill:#e6180a;stroke-width:0.63496554" d="m -7.67,3.93 c 0.01,-4.71 5.91,-8.14 7.64,-11.87 1.75,3.72 7.66,7.12 7.7,11.83 C 7.68,6.11 5.96,7.92 3.85,7.92 1.73,7.92 0,6.13 0,3.91 0,6.14 -1.71,7.94 -3.82,7.94 -5.94,7.95 -7.66,6.15 -7.67,3.93 Z" id="path35835" inkscape:connector-curvature="0"/>
      </g>
      <g id="g36129" transform="matrix(-2.2678397,0,0,-2.2678397,2934.8234,621.97107)" style="display:inline;stroke-width:1.05827594">
        <path inkscape:connector-curvature="0" id="path36127" d="m -7.67,3.93 c 0.01,-4.71 5.91,-8.14 7.64,-11.87 1.75,3.72 7.66,7.12 7.7,11.83 C 7.68,6.11 5.96,7.92 3.85,7.92 1.73,7.92 0,6.13 0,3.91 0,6.14 -1.71,7.94 -3.82,7.94 -5.94,7.95 -7.66,6.15 -7.67,3.93 Z" style="fill:#e6180a;stroke-width:1.05827594"/>
      </g>
      <g style="display:inline;stroke-width:1.05827594" transform="matrix(2.2678397,0,0,2.2678397,3091.0175,778.02906)" id="g36133">
        <path style="fill:#e6180a;stroke-width:1.05827594" d="m -7.67,3.93 c 0.01,-4.71 5.91,-8.14 7.64,-11.87 1.75,3.72 7.66,7.12 7.7,11.83 C 7.68,6.11 5.96,7.92 3.85,7.92 1.73,7.92 0,6.13 0,3.91 0,6.14 -1.71,7.94 -3.82,7.94 -5.94,7.95 -7.66,6.15 -7.67,3.93 Z" id="path36131" inkscape:connector-curvature="0"/>
      </g>
    </g>
    </g></svg>
