<?xml version='1.0' encoding='UTF-8'?>
<!-- Created with Inkscape (http://www.inkscape.org/) and export_objects.py -->
<svg xmlns:cc="http://creativecommons.org/ns#" xmlns:dc="http://purl.org/dc/elements/1.1/" xmlns:inkscape="http://www.inkscape.org/namespaces/inkscape" xmlns:rdf="http://www.w3.org/1999/02/22-rdf-syntax-ns#" xmlns:sodipodi="http://sodipodi.sourceforge.net/DTD/sodipodi-0.dtd" xmlns:xlink="http://www.w3.org/1999/xlink" xmlns="http://www.w3.org/2000/svg" version="1.1" width="57.1500026458mm" height="88.8999973542mm" viewBox="0 0 57.1500026458 88.8999973542" id="svg24051" sodipodi:docname="heart-013.svg"><sodipodi:namedview id="base" pagecolor="#ffffff" bordercolor="#666666" borderopacity="1.0" inkscape:pageopacity="0.0" inkscape:pageshadow="2" inkscape:zoom="0.35" inkscape:cx="-50" inkscape:cy="560" inkscape:document-units="mm" inkscape:current-layer="layer1" showgrid="false" inkscape:lockguides="true" inkscape:window-width="1280" inkscape:window-height="940" inkscape:window-x="1909" inkscape:window-y="43" inkscape:window-maximized="1"/>
  <metadata id="metadata24048">
    <rdf:RDF>
      <cc:Work rdf:about="">
        <dc:format>image/svg+xml</dc:format>
        <dc:type rdf:resource="http://purl.org/dc/dcmitype/StillImage"/>
      </cc:Work>
    </rdf:RDF>
  </metadata>
  <g inkscape:groupmode="layer" inkscape:label="heart-" transform="matrix(1.000000,0.000000,0.000000,1.000000,-336.852392,-62.049985)"><g transform="matrix(0.26448498,0,0,0.26448498,-501.29469,-78.639478)" id="g17819" inkscape:label="013">
      <rect style="display:inline;opacity:1;fill:#ffffff;fill-opacity:1;stroke:none;stroke-width:0.13338292;stroke-linecap:butt;stroke-linejoin:miter;stroke-miterlimit:47.14606857;stroke-dasharray:none;stroke-dashoffset:0;stroke-opacity:1;paint-order:markers fill stroke" id="rect32147" width="216.08034" height="336.12494" x="3168.978" y="531.93744"/>
      <g id="text32237" style="font-style:normal;font-variant:normal;font-weight:normal;font-stretch:normal;font-size:80.02975464px;line-height:125%;font-family:'Stint Ultra Condensed';-inkscape-font-specification:'Stint Ultra Condensed, ';font-variant-ligatures:normal;font-variant-caps:normal;font-variant-numeric:normal;font-feature-settings:normal;text-align:center;letter-spacing:0px;word-spacing:0px;writing-mode:lr-tb;text-anchor:middle;display:inline;fill:#e6180a;fill-opacity:1;stroke:none;stroke-width:1.00037193" aria-label="2" transform="translate(-2088.7764,79.839752)">
        <path id="path12586" style="font-style:normal;font-variant:normal;font-weight:normal;font-stretch:normal;font-size:80.02975464px;font-family:'Stint Ultra Condensed';-inkscape-font-specification:'Stint Ultra Condensed, ';text-align:center;text-anchor:middle;fill:#e6180a;fill-opacity:1;stroke-width:1.00037193" d="m 5276.7459,518.12244 v -3.28247 q 3.5169,-4.96279 6.2914,-9.49572 2.8136,-4.57201 4.7674,-9.0268 1.9539,-4.45478 2.9699,-9.02679 1.055,-4.57201 1.055,-9.57387 0,-1.95385 -0.2735,-3.7514 -0.2345,-1.79754 -0.7815,-3.16524 -0.5471,-1.40677 -1.485,-2.22739 -0.9378,-0.85969 -2.2664,-0.85969 -2.4619,0 -3.7124,3.43878 -1.2504,3.43878 -1.2504,10.86341 h -4.9628 q 0,-5.08001 0.8206,-8.59694 0.8206,-3.55601 2.1493,-5.74433 1.3676,-2.22739 3.1261,-3.20431 1.7976,-1.01601 3.6733,-1.01601 2.4227,0 4.2593,1.09416 1.8367,1.09416 3.0871,3.04801 1.2505,1.95385 1.8757,4.65016 0.6643,2.69632 0.6643,5.86156 0,7.50279 -3.4778,16.41235 -3.4388,8.87049 -10.5117,19.10867 h 10.3945 v -10.70711 h 4.2594 v 15.20097 z" inkscape:connector-curvature="0"/>
      </g>
      <g id="text32241" style="font-style:normal;font-variant:normal;font-weight:normal;font-stretch:normal;font-size:80.02975464px;line-height:125%;font-family:'Stint Ultra Condensed';-inkscape-font-specification:'Stint Ultra Condensed, ';font-variant-ligatures:normal;font-variant-caps:normal;font-variant-numeric:normal;font-feature-settings:normal;text-align:center;letter-spacing:0px;word-spacing:0px;writing-mode:lr-tb;text-anchor:middle;display:inline;fill:#e6180a;fill-opacity:1;stroke:none;stroke-width:1.00037193" transform="rotate(180,-1044.3882,39.919876)" aria-label="2">
        <path id="path12583" style="font-style:normal;font-variant:normal;font-weight:normal;font-stretch:normal;font-size:80.02975464px;font-family:'Stint Ultra Condensed';-inkscape-font-specification:'Stint Ultra Condensed, ';text-align:center;text-anchor:middle;fill:#e6180a;fill-opacity:1;stroke-width:1.00037193" d="m -5454.8435,-722.1983 v -3.28247 q 3.517,-4.96279 6.2914,-9.49572 2.8136,-4.57201 4.7674,-9.0268 1.9539,-4.45478 2.9699,-9.02679 1.0551,-4.57201 1.0551,-9.57387 0,-1.95385 -0.2736,-3.7514 -0.2344,-1.79754 -0.7815,-3.16523 -0.5471,-1.40678 -1.4849,-2.2274 -0.9379,-0.85969 -2.2665,-0.85969 -2.4618,0 -3.7123,3.43878 -1.2505,3.43878 -1.2505,10.86341 h -4.9628 q 0,-5.08001 0.8207,-8.59694 0.8206,-3.55601 2.1492,-5.74433 1.3677,-2.22739 3.1262,-3.20431 1.7975,-1.01601 3.6732,-1.01601 2.4228,0 4.2594,1.09416 1.8366,1.09416 3.0871,3.04801 1.2504,1.95385 1.8757,4.65017 0.6643,2.69631 0.6643,5.86155 0,7.50279 -3.4779,16.41235 -3.4387,8.87049 -10.5117,19.10867 h 10.3945 v -10.70711 h 4.2594 v 15.20097 z" inkscape:connector-curvature="0"/>
      </g>
      <g id="g35841" transform="matrix(-3.7797328,0,0,-3.7797328,3276.9052,579.95557)" style="display:inline;stroke-width:0.63496554">
        <path inkscape:connector-curvature="0" id="path35839" d="m -7.67,3.93 c 0.01,-4.71 5.91,-8.14 7.64,-11.87 1.75,3.72 7.66,7.12 7.7,11.83 C 7.68,6.11 5.96,7.92 3.85,7.92 1.73,7.92 0,6.13 0,3.91 0,6.14 -1.71,7.94 -3.82,7.94 -5.94,7.95 -7.66,6.15 -7.67,3.93 Z" style="fill:#e6180a;stroke-width:0.63496554"/>
      </g>
      <g id="g35845" transform="matrix(3.7797328,0,0,3.7797328,3277.1323,820.04467)" style="display:inline;stroke-width:0.63496554">
        <path inkscape:connector-curvature="0" id="path35843" d="m -7.67,3.93 c 0.01,-4.71 5.91,-8.14 7.64,-11.87 1.75,3.72 7.66,7.12 7.7,11.83 C 7.68,6.11 5.96,7.92 3.85,7.92 1.73,7.92 0,6.13 0,3.91 0,6.14 -1.71,7.94 -3.82,7.94 -5.94,7.95 -7.66,6.15 -7.67,3.93 Z" style="fill:#e6180a;stroke-width:0.63496554"/>
      </g>
      <g style="display:inline;stroke-width:1.05827594" transform="matrix(-2.2678397,0,0,-2.2678397,3198.9218,621.97108)" id="g36137">
        <path style="fill:#e6180a;stroke-width:1.05827594" d="m -7.67,3.93 c 0.01,-4.71 5.91,-8.14 7.64,-11.87 1.75,3.72 7.66,7.12 7.7,11.83 C 7.68,6.11 5.96,7.92 3.85,7.92 1.73,7.92 0,6.13 0,3.91 0,6.14 -1.71,7.94 -3.82,7.94 -5.94,7.95 -7.66,6.15 -7.67,3.93 Z" id="path36135" inkscape:connector-curvature="0"/>
      </g>
      <g id="g36141" transform="matrix(2.2678397,0,0,2.2678397,3355.1159,778.02906)" style="display:inline;stroke-width:1.05827594">
        <path inkscape:connector-curvature="0" id="path36139" d="m -7.67,3.93 c 0.01,-4.71 5.91,-8.14 7.64,-11.87 1.75,3.72 7.66,7.12 7.7,11.83 C 7.68,6.11 5.96,7.92 3.85,7.92 1.73,7.92 0,6.13 0,3.91 0,6.14 -1.71,7.94 -3.82,7.94 -5.94,7.95 -7.66,6.15 -7.67,3.93 Z" style="fill:#e6180a;stroke-width:1.05827594"/>
      </g>
    </g>
  </g></svg>
