<?xml version='1.0' encoding='UTF-8'?>
<!-- Created with Inkscape (http://www.inkscape.org/) and export_objects.py -->
<svg xmlns:cc="http://creativecommons.org/ns#" xmlns:dc="http://purl.org/dc/elements/1.1/" xmlns:inkscape="http://www.inkscape.org/namespaces/inkscape" xmlns:rdf="http://www.w3.org/1999/02/22-rdf-syntax-ns#" xmlns:sodipodi="http://sodipodi.sourceforge.net/DTD/sodipodi-0.dtd" xmlns:xlink="http://www.w3.org/1999/xlink" xmlns="http://www.w3.org/2000/svg" version="1.1" width="57.1500026458mm" height="88.8999973542mm" viewBox="0 0 57.1500026458 88.8999973542" id="svg3673" sodipodi:docname="joker-002.svg"><sodipodi:namedview id="base" pagecolor="#ffffff" bordercolor="#666666" borderopacity="1.0" inkscape:pageopacity="0.0" inkscape:pageshadow="2" inkscape:zoom="0.91101083" inkscape:cx="241.42857" inkscape:cy="515.71429" inkscape:document-units="mm" inkscape:current-layer="layer1" showgrid="false" inkscape:window-width="1920" inkscape:window-height="986" inkscape:window-x="-11" inkscape:window-y="-11" inkscape:window-maximized="1"/>
  <metadata id="metadata3670">
    <rdf:RDF>
      <cc:Work rdf:about="">
        <dc:format>image/svg+xml</dc:format>
        <dc:type rdf:resource="http://purl.org/dc/dcmitype/StillImage"/>
      </cc:Work>
    </rdf:RDF>
  </metadata>
  <g inkscape:groupmode="layer" inkscape:label="joker-" transform="matrix(1.000000,0.000000,0.000000,1.000000,-42.796762,-118.662553)"><g transform="matrix(0.26448498,0,0,0.26448498,42.84967,-225.22694)" id="g4593" inkscape:label="002">
      <rect y="1300.2231" x="-0.20003985" height="336.12494" width="216.08034" id="rect37793" style="display:inline;opacity:1;fill:#ffffff;fill-opacity:1;stroke:none;stroke-width:0.13338292;stroke-linecap:butt;stroke-linejoin:miter;stroke-miterlimit:47.14606857;stroke-dasharray:none;stroke-dashoffset:0;stroke-opacity:1;paint-order:markers fill stroke"/>
      <g id="g4469">
        <path style="fill:#e6180a;stroke-width:0.20300001" d="m 128.99706,1558.2247 -0.85925,1.6603 0.88719,5.7749 2.31228,-0.4006 4.58265,-3.1016 -5.09493,-4.8481" id="path3993" inkscape:connector-curvature="0"/>
        <path style="fill:#e6180a;stroke-width:0.20300001" d="m 146.52428,1404.9948 c 0.32135,0.1211 -7.36064,7.363 -8.327,7.363 l -6.5177,3.6209 -3.88174,5.733 -2.91771,6.4571 -0.1793,7.1604 2.71512,3.8608 5.77255,1.1876 7.22093,-1.2668 7.91252,-5.0344 4.00981,-5.195 1.51591,-5.074 -0.53558,-3.3834 -3.593,-1.7348 -3.06906,-0.2864 -0.21423,-1.2924 0.55187,-3.104 -2.62897,-2.0957 -4.7992,0.3167 7.79143,-7.0463 8.07319,2.0468 3.80955,-0.6892 10.84886,13.3125 -5.80515,7.9986 -0.89651,3.4556 1.20621,4.8668 1.81163,4.9901 -0.88718,5.3907 -1.36688,1.9304 0.16067,4.2636 -0.84527,2.1726 -2.93634,1.2481 -2.73609,-1.1666 -1.68822,-2.9364 0.84528,-3.4207 2.29132,-1.2877 2.05148,-0.039 0.36326,-0.6031 -1.60905,-4.1449 -3.66053,-2.6942 -2.97825,-0.1607 -7.23956,4.9064 -0.80569,4.2263 -0.0792,7.0789 6.99971,4.6269 3.17619,5.1089 1.00594,5.9542 0.80569,7.4025 6.63646,16.4934 2.33323,4.1844 -0.88486,0.7242 -5.43025,-2.5358 -4.90864,-5.0693 -0.28176,-3.8608 0.92677,-3.0178 -1.2877,-2.2518 -2.17257,0.04 -1.36687,2.1726 0.20026,1.7697 1.76972,2.8967 -0.80336,4.4663 -3.2181,5.9541 -1.69055,0.04 -3.33918,-4.7479 -1.85123,-6.3152 1.73014,-4.1029 -0.0396,-1.651 -2.93634,-2.3728 -2.25406,0.7242 -1.64864,2.5335 1.69055,5.5117 -1.81163,3.26 -6.79946,5.7516 -1.24579,-0.7242 -1.56946,-4.1029 -0.40284,-6.1149 3.70244,-2.8967 0.28176,-3.2181 -2.0934,-1.8093 -2.29132,0.3609 -2.29365,1.6486 -0.16067,3.0179 0.0396,3.6209 -4.54539,5.8331 -5.02973,3.8212 -2.09106,-0.5635 -0.88486,-2.6546 -0.16068,-11.1026 4.42431,-2.3333 1.2877,-2.5335 -1.40879,-2.254 -2.89675,-0.8849 -2.5335,1.609 -1.12703,2.6546 0.84527,3.621 -1.85122,2.0514 -2.73375,2.2937 -7.120799,3.3788 -3.138926,0.482 0.03959,-4.585 2.493909,-7.9242 2.093393,-3.0178 4.745643,-1.4088 1.52988,-2.9363 -0.84528,-2.2937 -3.05742,-1.3668 -2.775667,1.5694 -0.966361,1.8489 -0.521602,2.7361 -3.781614,2.615 -9.856879,3.0178 -1.406463,-1.3273 2.93634,-8.49 3.860786,-3.8212 4.545388,-0.6427 1.851221,-3.1785 -0.88486,-3.0178 -2.736082,-1.2062 -2.573081,1.2458 -2.051479,4.5058 -3.823529,2.4962 -9.211862,1.6882 1.045532,-4.0214 2.212151,-4.1053 1.569463,-1.3669 2.57541,-2.8572 4.224044,-0.3609 1.688221,-1.7697 0.563516,-1.5695 -0.200258,-1.609 -2.293651,-1.488 -3.781614,1.1247 -1.969979,0.1211 -3.742028,-3.6209 -1.408791,-2.3333 0.88486,-0.4424 4.869061,0.1211 5.590921,-1.488 10.983912,-5.0693 4.787554,-0.9244 4.86674,1.0059 3.70011,2.2122 -0.0792,-2.3729 1.52755,-1.9723 4.82714,-0.9244 0.24217,-0.6054 0.16068,-3.5395 2.61499,-2.2517 1.97231,-6.9602 3.94229,-6.1148 0.0396,-1.8512 -2.53349,-5.3511 0.0792,-5.6724 1.12703,-3.1762 2.21215,-3.0574 5.19041,-2.2541 2.09106,-3.1366 2.17257,-1.0059 2.65458,0.7241 1.69055,2.6942 -0.84528,3.8631 -3.21809,1.3669 -3.70012,-1.488 -0.72419,0.2818 -0.52393,4.103 1.04554,3.5394 2.29365,1.3692 8.44809,-2.133" id="path3995" inkscape:connector-curvature="0"/>
        <rect width="0.71757758" height="10.519435" x="1145.8704" y="798.30695" transform="matrix(0.64764842,0.76193932,-0.74576121,0.66621335,0,0)" style="fill:#e6180a;stroke-width:0.14750156" id="rect3997"/>
        <path style="fill:#e6180a;stroke-width:0.20300001" d="m 72.121492,1448.991 3.555741,0.801 2.503224,4.2567 -2.75471,13.2729 -7.160384,13.3241 -10.969941,11.2704 h -9.665936 l -1.553163,-2.1051 12.320517,-11.119 9.868523,-16.1277" id="path3999" inkscape:connector-curvature="0"/>
        <path style="fill:#e6180a;stroke-width:0.20300001" d="m 135.11424,1499.9869 1.54618,-1.1596 4.44293,-1.0945 1.4181,1.2877 2.38214,9.0163 0.83829,4.8924 -0.64502,9.1443 -3.66984,14.8773 -2.70581,6.5666 -4.37773,5.6677 -5.34642,3.6699 0.38654,-2.5754 1.54618,-2.5102 2.96196,-4.8947 2.64061,-7.7914 2.38213,-10.4973 0.83829,-7.4701 -1.15963,-8.3712 -3.3485,-5.9891" id="path4001" inkscape:connector-curvature="0"/>
        <path style="fill:#000000;stroke-width:0.20300001" d="m 110.53608,1514.3496 1.02457,-1.0083 3.17386,-0.3167 2.49624,-0.9011 0.39353,-0.4471 1.31564,0.333 0.60543,-0.85 0.91979,0.4192 0.70091,-0.156 1.61137,-0.4401 3.84915,-7.4655 1.78602,-4.3637 1.32496,0.638 1.56713,-0.4727 10.56943,-3.2414 0.68926,1.4437 -2.03751,0.1398 -3.75833,0.9966 -2.21913,1.4763 0.44243,2.4078 -1.41578,0.6496 -2.88977,4.1659 0.35627,1.3412 2.63829,-0.6031 1.42276,-2.8851 -0.4727,-1.5834 0.77774,-0.1933 2.88511,5.2696 -0.65899,6.1009 1.84424,3.2134 -1.06882,8.0103 -1.14333,5.1206 -1.36455,5.3697 -2.28201,6.499 -3.66053,6.1498 -0.43544,-2.7361 2.20284,-5.5862 -1.05485,-9.985 0.1956,-9.305 -2.17024,-0.7032 -1.26674,2.1586 0.27011,20.7639 1.17361,3.0901 0.43078,3.0015 -0.84527,3.6722 1.47399,3.7839 -1.03156,1.2411 -0.9943,2.4194 1.64164,4.4337 0.90116,-0.035 5.66078,-3.4323 1.10142,2.9387 -2.71745,3.3624 -4.45225,0.9431 -2.72909,-4.0145 -0.46339,-5.6049 0.0186,-2.0095 -1.55316,-0.971 -0.16533,-4.1309 -3.04113,-8.3317 -0.83596,-8.6903 -0.11643,-8.5179 0.10712,-5.407 -6.3384,0.333 -0.54954,1.0013 -1.6044,-0.9454 -2.86648,0.8267 -2.19818,-0.065 -2.48459,1.4111 -4.46622,1.0502 -4.168157,0.5542 1.65562,-1.8745 8.757787,-1.7255 3.01784,-1.8373 0.96171,-4.5756" id="path4003" inkscape:connector-curvature="0"/>
        <rect style="fill:#000000;stroke-width:0.16829424" width="1.0816721" height="1.0291393" x="134.35027" y="1502.5406" id="rect4005"/>
        <rect style="fill:#000000;stroke-width:0.1936198" width="1.0510231" height="2.8853886" x="128.85818" y="1546.8383" id="rect4007"/>
        <rect style="fill:#000000;stroke-width:0.21486738" width="1.6190172" height="8.3989992" x="-26.993067" y="1515.0386" transform="matrix(0.99298144,-0.11827032,0.10810061,0.99413996,0,0)" id="rect4009"/>
        <path style="fill:#000000;stroke-width:0.20300001" d="m 143.25729,1497.6374 c 0,0.2841 2.22379,4.9598 2.22379,4.9598 l 1.42509,7.1837 0.17231,9.6916 -2.22379,13.9109 -0.5705,1.3669 0.51229,0.2864 0.5705,-0.4005 6.55728,-13.8527 2.62198,-11.2308 0.5705,-6.0426 1.02458,0.3981 -0.74049,8.7788 -3.36247,12.0294 -5.64448,11.6872 -6.21498,8.2664 -2.85018,2.2238 -0.2282,-1.1969 3.59067,-6.5572 4.21939,-16.0766 0.7987,-9.4633 -1.82561,-10.5462 -1.76739,-5.4162" id="path4011" inkscape:connector-curvature="0"/>
        <path inkscape:connector-curvature="0" id="path4013" d="m 101.39407,1378.6469 4.49882,0.3936 2.47528,5.6188 -1.89546,4.0913 -6.22197,-0.7637 -1.00129,-5.8005" style="fill:#e6180a;stroke-width:0.20300001"/>
        <path inkscape:connector-curvature="0" id="path4015" d="m 115.40514,1373.0025 3.69778,-1.8024 1.47399,0.5123 0.52626,1.9095 0.0116,1.7883 -1.05252,3.0132 -3.64423,3.2763 -6.39428,1.46 -0.45873,-1.7627 2.27502,-0.7102 3.11797,-3.0528" style="fill:#e6180a;stroke-width:0.20300001"/>
        <path inkscape:connector-curvature="0" id="path4017" d="m 71.374157,1375.5311 a 2.4193016,2.5686101 0 1 1 -4.838603,0 2.4193016,2.5686101 0 1 1 4.838603,0 z" style="fill:#ff009c;stroke-width:0.22329079"/>
        <path inkscape:connector-curvature="0" id="path4019" d="m 77.02893,1388.5546 a 2.5183666,2.3842595 0 1 1 -5.036733,0 2.5183666,2.3842595 0 1 1 5.036733,0 z" style="fill:#00ff0a;stroke-width:0.24759442"/>
        <path inkscape:connector-curvature="0" id="path4021" d="m 89.664957,1408.0241 a 2.732315,2.4860872 0 1 1 -5.46463,0 2.732315,2.4860872 0 1 1 5.46463,0 z" style="fill:#ff9e00;stroke-width:0.23948775"/>
        <path inkscape:connector-curvature="0" id="path4023" d="m 99.795422,1414.7124 a 2.6760275,2.7377582 0 1 1 -5.352055,0 2.6760275,2.7377582 0 1 1 5.352055,0 z" style="fill:#0072ff;stroke-width:0.23540124"/>
        <path inkscape:connector-curvature="0" id="path4025" d="m 110.48384,1418.0857 a 2.7123,3.0196506 0 1 1 -5.4246,0 2.7123,3.0196506 0 1 1 5.4246,0 z" style="fill:#ffff00;stroke-width:0.200937"/>
        <path inkscape:connector-curvature="0" id="path4027" d="m 82.458106,1399.7997 a 1.3630903,1.7753154 59.25499 1 1 -3.038658,1.8366 1.3630903,1.7753154 59.25499 1 1 3.038658,-1.8366 z" style="fill:#e6180a;stroke-width:0.21497883"/>
        <path inkscape:connector-curvature="0" id="path4029" d="m 88.958334,1395.4789 a 0.94200379,1.0860498 0 1 1 -1.884007,0 0.94200379,1.0860498 0 1 1 1.884007,0 z" style="fill:#e6180a;stroke-width:0.22217143"/>
        <path inkscape:connector-curvature="0" id="path4031" d="m 75.590452,1405.8786 a 0.46153541,1.1764926 54.419178 1 1 -1.916345,1.3606 0.46153541,1.1764926 54.419178 1 1 1.916345,-1.3606 z" style="fill:#e6180a;stroke-width:0.23446156"/>
        <rect id="rect4033" transform="matrix(0.73251847,-0.68074716,0.70491741,0.70928939,0,0)" y="1077.8707" x="-961.38879" height="2.9386313" width="6.05406" style="fill:#e6180a;stroke-width:0.2264607"/>
        <rect id="rect4035" transform="matrix(0.77826554,-0.6279353,0.65499597,0.75563237,0,0)" y="1139.515" x="-899.32452" height="2.8142838" width="8.3053551" style="fill:#e6180a;stroke-width:0.22735232"/>
        <path inkscape:connector-curvature="0" id="path4037" d="m 44.426425,1429.2809 a 0.88076325,1.1954011 48.82762 1 1 -1.845253,1.5143 0.88076325,1.1954011 48.82762 1 1 1.845253,-1.5143 z" style="fill:#e6180a;stroke-width:0.23995899"/>
        <path inkscape:connector-curvature="0" id="path4039" d="m 43.764043,1496.8457 1.706849,-0.6125 2.465967,1.3134 2.228451,2.0794 0.02329,2.2051 -4.761947,2.4777 -2.386794,-1.5835 0.237515,-4.7386" style="fill:#e6180a;stroke-width:0.20300001"/>
        <path inkscape:connector-curvature="0" id="path4041" d="m 62.772242,1425.7471 5.455864,-1.7255 1.259761,1.8652 -1.585763,20.934 3.21577,3.7304 -3.448628,13.2403 -3.916671,1.772 -9.651965,-3.6349 -0.465716,-3.9167 3.683814,-17.9976 4.475531,-12.6814" style="fill:#e6180a;stroke-width:0.20300001"/>
        <path inkscape:connector-curvature="0" id="path4043" d="m 114.11743,1514.7757 15.07523,-3.4533 3.90969,-1.6742 2.84319,-0.2701 0.74282,1.3692 0.0675,6.7692 -1.20155,1.134 -21.28555,1.6742 -2.18188,-0.3888 -0.15136,-2.8945" style="fill:#e6180a;stroke-width:0.20300001"/>
        <path inkscape:connector-curvature="0" id="path4045" d="m 165.2321,1388.4619 c 0.32134,0 2.37282,0.3213 2.65458,0.5635 0.28175,0.2399 1.84889,2.1726 1.84889,2.1726 l -0.48202,3.7001 0.24218,1.5695 2.97592,5.188 1.12703,6.1149 -1.12703,7.8054 -2.09106,4.748 -11.18417,-13.72 3.9027,-1.2458 3.70011,-3.7816 0.84527,-4.1449 -0.36093,-0.4424 -3.86311,-0.4821 -2.25174,-3.3391 1.56714,-3.5395" style="fill:#e6180a;stroke-width:0.20300001"/>
        <path inkscape:connector-curvature="0" id="path4047" d="m 82.628045,1396.9077 c -2.773339,2.1586 -5.812136,6.017 -9.090777,7.2908 -1.304005,0.496 -3.592999,-3.1413 -4.796875,-0.1188 -1.93505,-0.5542 -3.399727,0.3144 -3.49287,2.3286 -2.167908,0.01 -4.899333,1.6556 -6.114851,3.5022 -1.215519,1.8535 0.856917,3.9004 -0.64036,5.5956 -3.49287,3.9492 -8.846276,7.0323 -12.904991,10.3947 -1.376191,1.1294 -4.109944,2.5685 -3.737371,4.7224 0.512288,2.9433 5.148491,-0.9314 6.107866,-1.7464 2.775667,-2.2727 5.628178,-4.904 8.673961,-6.7715 0.60543,-0.3703 2.046822,-1.9607 2.764024,-1.8163 0.794046,0.1793 2.400766,4.1844 2.566095,4.9808 0.258473,1.3972 -1.37619,3.572 -1.837249,4.89 -1.560149,4.4709 -3.278641,8.9441 -4.522103,13.5058 -1.308662,4.8038 -1.357562,10.2504 -3.11564,14.9029 -0.90116,2.3519 -2.796625,4.245 -3.919,6.52 -1.872179,3.8003 -3.39507,8.4691 -4.424302,12.5744 -0.978004,3.9027 -1.087447,8.5575 -0.787061,12.5743 0.07451,0.7288 0.931432,1.2202 0.91979,1.8629 -0.0163,0.6985 -1.310991,0.8755 -1.513577,1.6439 -0.26313,0.9943 0.509959,1.8489 0.493659,2.7804 -0.0652,3.579 -1.590421,7.7728 0.565844,11.1771 1.618364,2.4055 8.150031,-0.7591 9.081463,-2.6802 0.54023,-1.0129 -0.232858,-2.0235 -0.621731,-2.9084 -1.285376,-2.6615 -3.364798,-4.1425 -5.665435,-5.875 -0.649674,-0.5053 -1.117719,-2.8199 -0.528588,-3.5301 0.528588,-0.6054 1.522891,-0.1397 2.158594,-0.014 1.630006,0.354 3.65587,0.1444 5.355734,0.1072 5.812136,-0.1444 11.023498,-0.8756 16.532919,-2.9527 1.602063,-0.6054 4.477859,-1.3226 5.355734,-2.8688 -4.980833,0.2329 -9.426092,3.6256 -14.670055,2.7943 0.0815,0.014 3.744357,-3.6861 3.744357,-3.6861 1.648635,-2.0771 7.053269,-8.4202 8.264131,-10.7511 0.861574,-1.63 1.697535,-4.4103 3.071397,-5.6817 0.805689,-0.7452 2.945654,-0.4401 4.014472,-0.652 2.561438,-0.5193 5.234648,-1.467 7.34667,-3.0994 2.095722,-1.6207 1.019918,-4.9692 4.296231,-5.7818 1.813963,-0.4495 3.448627,1.1386 3.592999,2.8758 0.121086,1.4553 -1.168948,2.9247 -2.428709,3.4952 -1.290034,0.5844 -2.619653,-0.091 -3.958587,0.7125 -3.260012,1.9467 -5.029733,6.3221 -6.082251,9.7637 -0.298058,0.9757 -0.950061,3.1366 -0.204915,4.0471 0.882532,1.0758 5.185748,-0.3213 6.287166,-0.7102 2.843197,-0.9361 6.608511,-2.1446 8.715876,-4.3964 0.72186,-0.7731 0.596116,-1.9467 0.93376,-2.899 0.873218,-2.4707 3.001541,-3.8771 5.444221,-2.5219 1.90711,1.0665 1.55083,3.2228 0.25149,4.6176 -1.7674,1.8838 -4.312534,0.7032 -5.821454,2.8036 -2.205165,3.0737 -3.045783,7.5213 -3.779285,11.1679 -0.174644,0.8708 -0.621731,3.3182 0.218886,3.9585 0.698574,0.5426 1.930393,0 2.654581,-0.2282 2.400766,-0.7032 4.699072,-1.6998 6.848352,-3.0085 2.10737,-1.283 3.67683,-2.8176 5.49312,-4.4476 -2.79429,5.2836 -5.12753,10.8605 -7.61213,16.3001 -0.88253,1.9304 -1.65096,5.4442 -3.215765,6.8903 -1.513577,1.3971 -5.583935,-2.2774 -7.102169,-2.8432 -0.756788,-0.2865 -2.244751,-0.6404 -2.794296,0.2188 -1.397148,2.1889 3.485884,5.2137 4.65716,6.4456 -3.835171,-0.1654 -7.814715,-1.0828 -11.6429,-0.9222 -1.16429,0.049 -3.106326,-0.01 -3.958586,0.8756 -0.931433,0.9337 -0.125744,1.8442 0.931432,2.0771 2.857167,0.631 6.170737,1.1713 9.081462,1.4623 v 0.2329 c -2.435695,0.5798 -4.994804,-0.067 -7.451456,0.3702 -0.845275,0.1514 -2.137637,0.4192 -2.561438,1.2831 -0.556531,1.2341 1.16429,1.9117 2.095722,2.0282 3.09934,0.3912 6.431538,0.2747 9.547178,0.2747 v 0.4658 c -3.09934,0.2445 -6.063623,0.8336 -9.081462,1.5764 -0.931432,0.2259 -3.071398,0.9105 -1.953679,2.2517 0.789389,0.9734 2.419395,0.8709 3.583685,0.829 3.192483,-0.1537 6.364009,-1.3319 9.547178,-1.3971 -1.497277,1.9699 -4.515117,2.4846 -6.287166,4.4243 -2.982911,3.3415 2.372823,2.0072 3.958586,1.1643 -0.873218,2.5684 -2.193522,4.9645 -3.260012,7.4514 -0.365587,0.8499 -1.187576,2.0259 -1.047861,3.0272 0.116429,0.787 0.815003,0.4657 1.157304,0 0.747474,-1.2039 1.227162,-2.6779 1.753421,-3.9586 h 0.232858 l -0.465716,2.3286 c 2.095722,-0.3423 3.553413,-5.5793 4.191444,-7.4515 h 0.232858 c -0.232858,0.8732 -2.235437,4.2217 -1.266747,4.8481 0.568173,0.3889 1.033889,-0.7591 1.199218,-1.1224 0.766103,-1.7697 1.697535,-3.5347 2.396109,-5.3557 h 0.232858 l -1.630006,5.1229 c 2.680196,-0.7964 2.90374,-5.9752 4.65716,-7.9172 l -2.32858,6.2872 c 1.862864,-0.1514 2.726768,-3.4929 3.260012,-5.1229 h 0.232858 l -1.16429,3.9586 c 1.685892,-0.2748 2.372826,-2.7175 2.794296,-4.1915 h 0.23286 l -0.69858,3.0272 c 1.51358,-0.2329 1.90245,-1.963 2.32858,-3.26 h 0.23286 c -0.86856,2.7943 0.93143,1.7161 1.63001,-0.2329 h 0.23286 v 1.3972 c 1.46933,-0.2329 1.86286,-1.7628 2.32858,-3.0272 h 0.23285 l -0.23285,2.0957 c 1.28537,-0.2212 1.59042,-1.3971 1.86286,-2.5614 h 0.23286 l -0.23286,1.63 c 1.49495,-0.1187 1.95368,-1.4903 2.32858,-2.7943 h 0.23286 l -0.23286,2.0957 c 1.13402,-0.2026 1.45769,-1.3436 1.86287,-2.3285 h 0.23285 v 1.3971 c 1.39715,-0.2305 1.79534,-1.5252 2.09573,-2.7943 h 0.23285 c -0.54256,3.104 1.12704,0.5728 2.13997,0.1397 0.93609,-0.3726 2.42172,-0.2445 3.44863,-0.3726 0,9.6823 -0.77775,18.7474 2.28433,28.1759 0.38655,1.1899 1.09444,2.2796 1.39715,3.4928 0.43312,1.7325 -0.6846,4.2264 1.90478,4.4243 -0.16533,3.8771 -0.29573,7.6168 2.23311,10.9444 1.80465,2.3285 6.84369,-0.3959 7.93114,-2.3286 2.00025,-3.5558 -1.82328,-6.7529 -4.57566,-8.6949 -0.98266,-0.68 -3.54875,-2.2238 -2.95031,-3.8305 0.36792,-0.9804 2.10737,-1.7185 2.95031,-2.2425 2.24475,-1.3971 4.34513,-3.0458 6.27552,-4.8574 5.06699,-4.7596 8.55288,-10.7487 11.56606,-16.9311 3.58369,-7.3793 6.14512,-16.2139 6.14512,-24.4501 0,-2.0957 -0.0373,-4.1914 -0.0675,-6.2872 -0.007,-0.461 -0.0256,-1.7999 -0.81966,-1.63 -0.76844,0.1281 -0.50763,1.7372 -0.50763,2.2611 0.0675,2.3961 -0.16301,4.7247 -0.49599,7.0533 -0.80569,5.7353 -1.89081,11.6429 -4.16117,16.9986 -1.53454,3.7257 -3.95859,7.2186 -5.35574,10.9443 h -0.23286 c 3.02716,-9.5332 3.57437,-20.2563 1.58344,-30.0387 -0.54256,-2.6639 -1.45071,-5.4023 -2.98059,-7.6843 -0.34928,-0.5775 -0.73815,-1.63 -1.44604,-1.8628 -0.73583,-0.2865 -2.41008,0.5262 -3.11331,0.8266 -2.34489,1.0362 -4.75497,1.9188 -7.08355,2.8991 2.08641,-1.793 7.25819,-5.251 7.19532,-8.3806 -0.0396,-1.8652 -1.83958,-3.2623 -1.56248,-5.358 0.1793,-1.3972 1.73479,-2.7943 3.21111,-2.6756 0.56818,0.051 1.01992,0.3703 1.46235,0.7033 3.1366,2.3681 -0.22354,4.3102 -0.23053,6.86 -0.007,2.3379 1.33195,5.6002 2.48227,7.6144 0.71254,1.2854 2.39145,4.9133 4.33116,4.1286 1.03854,-0.4238 1.5974,-1.9537 2.04449,-2.8851 1.23648,-2.5661 2.89675,-5.6655 2.41474,-8.6251 -0.32833,-2.0119 -3.68149,-4.4243 -0.25149,-6.0543 1.141,-0.5612 2.30995,0.5286 2.49391,1.63 0.23984,1.4274 -0.96403,2.7943 -1.00828,4.1915 -0.0559,3.5324 3.17619,6.3779 5.6864,8.3223 0.83363,0.6567 5.83076,3.9097 6.46414,1.637 0.28408,-1.0153 -0.74282,-2.5684 -1.16197,-3.4393 -1.44372,-2.9387 -2.97359,-5.7912 -4.14021,-8.8486 -1.49495,-3.9214 -3.20879,-7.6843 -3.94927,-11.8758 -0.68693,-3.8747 -0.23985,-8.15 -1.92807,-11.8362 -1.15497,-2.4985 -3.10865,-4.5523 -5.4023,-6.0519 -1.21087,-0.7894 -2.91539,-1.3203 -3.85846,-2.459 -0.69625,-0.8406 0.0489,-1.9933 0.1141,-2.9387 0.17231,-2.5055 -0.74747,-4.8853 0.39586,-7.3886 0.40983,-0.8941 2.11668,-1.5834 2.88744,-2.1586 1.56713,-1.2574 2.83621,-2.6429 4.89002,-2.9107 3.40904,-0.4447 6.71562,3.8026 6.98574,6.8693 -1.06184,0 -2.03984,0.068 -3.02716,0.5053 -5.94719,2.6383 0.0466,12.5976 5.53969,7.6797 2.14463,-1.9397 0.40983,-3.8748 0.68693,-6.0893 0.11178,-0.9011 0.93842,-1.5438 1.32962,-2.3285 0.72186,-1.4531 1.06184,-3.7258 0.97102,-5.3558 -0.26313,-3.5371 -3.01318,-6.6644 -2.87579,-10.2457 0.16998,-4.408 5.86802,-8.4691 7.78211,-12.3415 2.63595,-5.4233 3.06907,-12.4882 0.85226,-18.1629 -0.66364,-1.6999 -2.17489,-3.0272 -2.78265,-4.6455 -0.326,-0.8104 0.53091,-1.7348 0.58214,-2.5731 0.18396,-2.9666 -1.60439,-5.7819 -4.8644,-5.4978 -3.37411,0.2934 -5.69571,4.408 -3.7886,7.3606 1.22716,1.9374 3.50451,2.4893 5.65146,2.0958 -0.0559,6.541 -7.39324,10.0851 -13.2729,9.2142 -3.37412,-0.4984 -5.97514,-2.3752 -9.54718,-2.2192 -2.60335,0.1141 -4.94125,1.0595 -7.45146,1.6207 -0.82432,0.1467 -2.12832,0.6986 -2.92004,0.2329 -3.16687,-1.7651 -1.78602,-5.5351 -1.50426,-8.1501 1.86286,1.3087 4.05639,2.3286 6.28484,1.0153 3.32055,-1.9467 2.63828,-7.661 -1.16196,-8.5901 -1.78137,-0.4355 -3.87942,0.2747 -4.97152,1.7627 -0.50298,0.6893 -0.53325,1.7907 -1.20388,2.3332 -1.32496,1.0712 -3.49287,1.1993 -4.95522,2.3589 -3.10865,2.4636 -4.13556,7.4072 -3.73504,11.1329 0.163,1.5322 0.65899,3.267 1.35756,4.6572 0.53092,1.0502 1.59974,1.9304 1.11539,3.2204 -0.92444,2.459 -3.06907,4.6362 -4.18678,7.0649 -0.88952,1.8629 -0.74515,4.2194 -1.68823,5.9705 -0.46338,0.8616 -1.5322,1.2574 -2.1516,2.0096 -1.01526,1.2365 -0.81501,2.8571 -0.54256,4.3218 -3.26001,-0.7661 -7.3653,1.5672 -6.52003,5.1229 -1.40879,-0.9757 -3.21344,-2.3286 -4.89002,-2.764 -7.130107,-1.6603 -14.693335,4.224 -21.211031,6.2615 -1.543849,0.4844 -3.485885,0.985 -5.101919,0.9245 -1.16429,-0.056 -2.857168,-0.659 -3.893386,0.01 -1.77205,1.1573 0.866232,2.7477 1.331948,3.6186 0.526259,0.957 -1.026904,0.6054 -1.397148,0.4308 -1.397148,-0.6544 -5.122877,-2.2937 -5.821451,-3.6629 -0.50763,-1.0548 0,-3.3788 -0.0047,-4.5826 -0.09547,-4.7713 1.113062,-9.482 1.168947,-14.209 0,-1.4484 0.323673,-2.9946 0.209573,-4.4243 -0.06753,-0.85 -0.57516,-1.6906 -0.16533,-2.5219 0.59146,-1.2015 1.77205,-2.1353 2.433367,-3.3392 0.915132,-1.6533 1.220176,-3.5417 2.570752,-4.9389 1.473991,-1.5415 4.347459,-2.9293 5.358063,-4.8621 0.454073,-0.8662 -0.391202,-1.6696 -0.02329,-2.452 0.309701,-0.7195 1.799993,-1.3575 2.426381,-1.7953 2.095722,-1.4484 4.051729,-3.0248 6.049651,-4.5989 0.689259,-0.5449 1.732463,-2.1889 2.680195,-1.2528 1.839579,1.8163 0.679946,8.5622 -1.813964,9.4633 -1.329619,0.4657 -2.642938,-1.4414 -4.354444,-0.6985 -1.231819,0.4796 -1.862864,1.758 -1.862864,3.0271 -0.07451,4.5105 7.335027,3.7607 6.054308,-0.6986 5.521063,-1.5089 4.375402,-8.6087 5.637492,-12.8072 0.484345,-1.6113 2.251737,-2.7547 2.512538,-4.1914 0.998961,-0.2957 1.916422,-1.6952 2.850182,-0.4122 0.87554,1.2435 -0.12109,5.3022 -0.0559,6.9322 0.19094,4.0215 1.39715,7.6843 -0.13971,11.6429 -0.34929,0.8849 -0.66598,2.3286 -1.539192,2.8199 -0.619402,0.659 -2.584724,0.2795 -3.8212,0.8546 -2.307623,1.6393 -1.779035,6.8856 2.810596,5.2626 2.475276,-0.8732 1.141005,-2.5475 2.323916,-4.1006 1.23182,-1.6207 3.20413,-2.6197 4.32418,-4.3684 2.54746,-3.947 1.23414,-8.6111 0.46571,-12.8072 -0.23285,-1.2295 -0.77774,-6.0054 1.38784,-6.0054 0.81966,0 1.16894,1.2085 1.39482,1.8139 0.76843,2.0958 1.53453,4.1309 2.00956,6.2872 1.02923,4.7387 1.60206,11.3309 -1.38085,15.6015 -0.98499,1.3971 -3.09934,0.7218 -3.87708,2.5661 -0.78008,2.0165 0.15368,4.2729 2.32858,4.7619 2.32858,0.5309 4.0494,-1.3878 3.94927,-3.6 -0.0373,-0.8196 -0.69625,-1.8069 -0.28642,-2.5614 0.64968,-1.2178 1.8978,-1.9979 2.53583,-3.26 2.06545,-4.0913 2.37748,-9.8988 0.85692,-14.2043 -1.23415,-3.3974 -6.83206,-7.4515 -5.68174,-11.1772 0.95239,-3.0877 4.57799,-2.5405 7.0067,-3.8189 5.5001,-2.8944 6.79014,-6.8763 4.897,-12.2087 -0.13273,-0.9315 1.01293,-1.8396 0.45175,-2.799 -0.50298,-0.8592 -1.62302,-0.7335 -2.14463,0 -1.0432,1.481 0.86391,2.5265 -1.02923,3.9679 -1.1736,0.9105 -2.70581,0.5728 -4.03543,1.0502 -0.61707,0.2235 -1.05484,0.9081 -1.69055,1.0269 -0.99663,0.2072 -1.89779,-0.5705 -2.84319,0.2072 -1.52755,1.1667 -1.05485,4.5757 -3.84915,4.8901 -4.32184,0.3888 -3.98653,-2.9364 -6.163745,-5.5886 -1.695206,-2.0655 -4.314859,-3.302 -6.876297,-3.9051 -3.807228,-0.8941 -8.103459,0.1374 -10.485596,3.4766 -1.390163,1.9351 -2.023536,6.6621 -5.115891,6.5573 -1.206204,-0.042 -4.268287,-0.9943 -4.740989,-2.2215 -0.614745,-1.5042 0.398187,-2.9782 -1.336605,-4.1402 -1.63932,-1.0688 -4.088986,-0.34 -4.54306,1.6323 -0.423801,1.8582 0.374902,3.9144 2.470624,4.1403 0.845275,0.093 1.734792,-0.4192 2.521852,-0.03 2.093394,1.113 3.693128,3.0271 6.326752,2.5312 3.429999,-0.6474 4.424303,-5.2463 6.985741,-7.2745 3.157554,-2.487 8.981333,-0.3679 12.108616,1.1945 1.127033,0.6008 2.947983,1.5322 3.183169,2.9294 0.260801,1.5345 -2.950311,0.5332 -3.648885,0.4657 -3.8701,-0.5519 -8.382888,0.631 -10.422724,4.1961 -1.47632,2.5777 -0.37723,5.3604 -4.014472,6.4455 -0.998961,0.3027 -2.505553,0.7684 -3.374113,-0.061 -1.124704,-1.0339 -0.649674,-2.8619 -2.451995,-3.4417 -1.930393,-0.617 -4.084329,0.2492 -4.368416,2.4101 -0.06054,0.4681 0,0.9501 0.144372,1.3972 1.199219,3.7886 4.189115,0.9873 6.554953,1.29 2.288994,0.2934 4.421973,0.9663 6.51071,-0.6893 2.626638,-2.0817 2.105036,-5.2579 5.830764,-6.5759 1.543849,-0.5402 6.354695,-1.8442 7.067241,0.3889 0.512288,1.6253 -1.741778,2.6546 -2.740739,3.4253 -2.319266,1.7907 -4.587303,3.6932 -6.88794,5.563 -0.72186,0.6311 -4.226373,3.3439 -5.199719,4.089 z m 27.561075,-15.4152 c 2.30064,-0.2329 5.06,-2.9503 5.68872,-5.1229 0.2771,-0.9314 -0.22122,-2.3286 0.33764,-3.1808 0.63105,-0.9454 3.4137,-2.2587 4.16583,-0.992 2.46131,4.1728 -2.76635,9.3353 -6.46879,9.7917 -1.16196,0.142 -3.25769,1.0944 -3.7234,-0.496 z m -41.448727,-8.2897 c 2.833882,-0.3703 3.581356,4.3404 0.698574,4.7456 -3.078383,0.4331 -3.725728,-4.3544 -0.698574,-4.7456 z m 39.818717,3.8654 c -0.0792,0.7102 0.23286,2.126 1.26908,1.297 0.42613,-0.3446 -1.66494,-2.4613 -0.43079,-3.7164 0.70323,-0.6986 1.81629,-0.063 2.65458,-0.1816 0.80336,-0.1141 1.63001,-1.0665 2.48693,-0.7359 1.07347,0.4192 0.47736,2.6523 0.0745,3.3579 -1.04786,1.8721 -3.66053,4.536 -6.05431,4.1052 -2.62198,-0.4773 -1.64165,-3.1412 0,-4.1262 z m 3.26001,-1.3972 0.93144,1.6301 c 1.52289,-0.9315 0.69857,-2.4031 -0.93144,-1.6301 z m -2.09572,2.48 c -0.0838,0.084 -0.44708,0.2794 -0.59844,0.2212 -0.15136,-0.058 -0.36093,-1.6952 -0.36093,-1.6952 0,0 1.0432,1.3902 0.95937,1.474 z m -6.52002,0.9547 c 2.72444,-0.6404 5.09493,4.9669 4.25199,7.044 -0.71954,1.7534 -1.87917,0.3446 -3.0877,0.6403 -0.69858,0.1723 -0.93143,0.999 -1.64398,1.1364 -0.45174,0.088 -0.9617,-0.1304 -0.97567,-0.6101 -0.0279,-0.9827 1.52056,-1.2854 1.11306,-2.3216 -0.43079,-1.0921 -3.150572,-0.333 -2.917714,-1.637 0.274774,-1.5415 2.216804,0 2.773344,-0.9966 0.5379,-0.9245 -1.31565,-2.8223 0.48667,-3.2554 z m -29.340111,7.356 c 2.994554,-0.5449 4.233359,3.7653 0.931432,4.2916 -2.861825,0.4587 -3.895714,-3.7351 -0.931432,-4.2916 z m 91.746061,113.3227 c -4.42431,-0.8546 -9.35391,-4.5128 -10.52752,-9.0815 -0.65898,-2.5614 2.93867,-5.9076 -1.11539,-7.5609 -1.97696,-0.8197 -3.59299,1.977 -3.59067,3.6023 0.002,1.7022 1.41578,2.4567 1.82561,3.9586 0.64735,2.3565 -1.49495,5.903 -2.52185,7.9172 -0.37025,0.6986 -0.84993,1.9932 -1.76739,2.1143 -1.39948,0.2143 -3.0714,-3.6256 -3.52315,-4.6758 -0.69624,-1.6207 -1.93272,-4.0191 -1.7604,-5.8214 0.10013,-1.0409 0.93609,-1.8093 1.20853,-2.7943 0.66365,-2.4241 -0.22587,-4.89 -2.67787,-5.7865 -1.72082,-0.6311 -3.95858,0.9058 -4.4732,2.5288 -0.88253,2.5917 1.49495,4.3219 1.16895,6.52 -0.48435,3.26 -5.82378,6.3966 -8.10579,8.3829 h -0.23286 c -2.0375,-1.8186 -1.86286,-4.4243 -2.19352,-6.9857 -0.13506,-0.9315 -0.44709,-2.5079 0.0978,-3.3555 1.33661,-2.0003 4.19145,-2.3053 3.61629,-5.4931 -0.61475,-3.3835 -4.78058,-3.8259 -6.78316,-1.3879 -1.95368,2.3705 0.12109,4.8039 -0.95472,7.2093 -1.74177,3.8934 -5.88897,6.8484 -8.91613,9.5472 0,0 -1.18059,-0.01 -1.41112,-0.2422 -0.23053,-0.2328 -0.74281,-0.822 -0.95472,-1.4274 -0.57981,-1.6579 -0.79637,-4.0447 -0.59378,-5.7819 0.16533,-1.7115 -0.40518,-4.4243 0.30737,-5.9891 0.61242,-1.3249 3.3485,-1.6882 4.39636,-2.7919 2.36584,-2.4893 -0.59146,-6.5294 -3.60697,-6.0706 -2.27735,0.3469 -4.0983,2.8129 -3.91435,5.0739 0.0862,1.0619 0.92911,2.3729 0.32135,3.3742 -2.57075,4.2356 -9.279393,6.7063 -13.871353,7.5702 0,-4.1915 1.334276,-11.3565 4.545388,-14.3627 1.706845,-1.5997 4.349785,-0.2236 5.933225,-2.8688 1.69288,-2.7943 -0.39819,-6.0404 -3.49054,-6.2336 -2.167912,-0.1351 -3.884076,2.0421 -4.424306,3.905 -0.176973,0.6986 0,1.63 -0.393531,2.1819 -1.779035,2.296 -5.660778,3.274 -8.222216,4.2403 -0.978003,0.3633 -4.801532,1.6719 -5.588592,0.6567 -0.763774,-1.0106 0.675288,-3.5395 1.057175,-4.5151 1.038547,-2.6849 2.479938,-5.9589 5.229991,-7.377 2.042165,-1.0525 4.091315,0.2166 5.651464,-2.1702 2.032851,-3.1599 -0.575159,-7.8543 -4.487174,-6.5061 -3.027154,1.0386 -2.32858,3.8748 -4.058715,5.6981 -2.810596,2.941 -7.98703,3.3694 -11.775629,3.3694 0.437773,-3.4928 4.030772,-8.9604 7.025326,-10.8023 0.968689,-0.5961 1.969978,-0.023 2.987568,-0.2514 2.095722,-0.4821 3.946943,-3.0784 3.39507,-5.237 -0.526259,-2.0562 -3.474242,-2.8036 -5.257934,-2.1027 -0.707888,0.2864 -1.322634,1.0991 -2.095722,1.1806 -0.794046,0.086 -1.397148,-0.8779 -1.883821,-1.3483 -1.31332,-1.2225 -3.413699,-2.3682 -3.704771,-4.259 3.378769,0 6.520024,0 9.749764,-1.1643 5.229991,-1.921 10.450668,-5.542 16.097473,-6.2429 3.82819,-0.475 5.97281,2.9829 9.54718,2.9829 -0.0163,-0.7917 -0.32134,-1.7953 -0.0512,-2.5521 0.94308,-2.6313 4.89933,-1.3343 6.19868,-3.0365 0.64502,-0.8988 0.18629,-2.0724 0.57283,-3.0271 0.49832,-1.2598 1.89547,-1.6812 2.49391,-2.7943 0.87322,-1.6882 0.7987,-3.8398 1.57878,-5.5886 1.19223,-2.7058 3.64423,-5.3557 4.4569,-8.15 0.53325,-1.8629 -1.42043,-4.0471 -1.97696,-5.8215 -1.16429,-3.6465 -0.85459,-7.3606 1.08977,-10.7115 1.70452,-2.9852 4.11926,-2.7663 6.58988,-4.3637 1.93273,-1.2248 3.09236,-5.0623 6.2895,-3.4463 2.46364,1.2435 2.51487,5.3231 0,6.5736 -2.1749,1.0804 -3.49287,-0.999 -5.35574,-0.6241 -3.34151,0.5961 -1.39714,7.2489 -0.0838,8.7764 0.978,1.1457 2.23543,1.0223 3.57669,0.7708 2.83854,-0.6217 5.45587,-1.5788 8.38289,-1.8233 2.7943,-0.2328 4.89002,1.5904 7.45146,2.1772 5.39532,1.3134 14.13448,-1.0525 15.60149,-7.1091 0.23285,-0.9873 0.69857,-2.5615 -0.10246,-3.3928 -0.72652,-0.7381 -1.78137,-0.4633 -2.69184,-0.6473 -1.87218,-0.3749 -3.2833,-2.2098 -2.95031,-4.1123 0.57283,-3.26 4.95056,-4.3265 6.81808,-1.63 1.33195,1.9234 -0.4075,3.6675 0.0536,5.5886 0.23053,0.9338 1.27606,1.7022 1.74643,2.5614 1.08512,1.9887 1.7511,4.0541 2.1423,6.2872 1.03389,5.889 -0.5053,11.6429 -3.87243,16.5329 -1.88615,2.7384 -5.19041,5.1299 -5.73064,8.6158 -0.61474,3.9749 2.3053,7.335 2.68486,11.1772 0.15135,1.5368 -0.10712,3.6861 -0.72652,5.1228 -0.33997,0.7708 -1.13402,1.2249 -1.27373,2.1004 -0.37025,2.3239 1.28537,4.5501 -1.25278,6.3757 -2.58938,1.8628 -6.64344,-1.0246 -5.92624,-4.0518 0.26779,-1.1153 1.11306,-2.3774 2.23078,-2.7407 0.88253,-0.2864 2.22845,-0.1537 2.78731,-1.0502 0.64269,-1.0292 -0.16998,-2.7291 -0.71953,-3.6605 -1.64398,-2.6942 -4.1146,-4.6968 -7.42351,-4.245 -1.47399,0.2002 -2.59637,1.3389 -3.72573,2.2051 -1.16429,0.8803 -2.91538,1.7116 -3.81654,2.8316 -1.71849,2.1307 -0.85459,5.4978 -0.84528,7.8264 0.005,1.0967 -0.8476,2.4403 -0.52858,3.4928 0.46804,1.5229 3.23905,2.4753 4.49416,3.26 2.38912,1.4438 4.27061,3.5395 5.50243,6.0544 2.24009,4.5803 1.43906,10.8767 2.8595,15.8343 1.25277,4.3731 3.19015,8.7135 5.14383,12.8072 1.01992,2.0887 2.38912,4.0703 3.02483,6.2802 z M 87.83475,1394.472 c 1.16429,-0.3446 1.529877,1.6999 0.433116,1.9816 -1.241133,0.319 -1.616035,-1.63 -0.433116,-1.9816 z m -7.684314,4.7177 -0.232858,0.2329 z m 0.931432,0.347 c 2.237765,-0.4215 1.820949,2.3006 -0.232858,2.6103 -2.251737,0.3423 -1.408791,-2.3006 0.232858,-2.6103 z m -10.874469,4.9412 c 2.007236,-0.7125 2.77101,5.4233 1.287704,5.6748 -1.285376,0.2212 -2.75471,-5.1415 -1.287704,-5.6748 z m -1.234148,7.9847 c -1.862864,-0.312 -3.176183,-4.8248 -2.389123,-6.4548 0.919789,-1.9001 2.088736,1.0106 2.156265,1.7977 0.0815,0.6217 0.195601,1.2364 0.223544,1.8628 0.0093,0.9314 0.0093,1.8652 0.0093,2.7943 z m 10.245753,-6.9857 c -0.631046,2.0957 -3.260013,2.9619 -4.59196,4.4662 -1.560149,1.7231 -2.000251,4.5128 -3.558071,6.4106 -0.840617,1.0874 -2.908396,1.609 -3.511499,2.5195 -0.447087,0.652 0.950061,0.9454 1.276062,1.2737 0.712546,0.6986 0.372573,2.2541 -0.225872,2.8945 -0.859246,0.8755 -4.524431,2.4613 -5.618864,1.6183 -0.926775,-0.7149 -1.178261,-2.3169 -1.57412,-3.3485 -0.267787,-0.6939 -0.824317,-1.5136 -0.707888,-2.289 0.100129,-0.7964 1.860535,-2.6732 2.677867,-2.6941 0.693917,-0.016 1.117718,0.6054 1.851221,0.3446 1.22949,-0.4378 0.943075,-1.8582 1.695206,-2.6709 1.185248,-1.2947 2.596367,-0.1909 2.973597,-2.7058 4.065701,0.4867 5.043705,-5.3534 9.314321,-5.8191 z m 6.752882,0.333 c 3.260012,-0.9431 5.025076,3.4369 1.85355,4.401 -2.847854,0.8662 -4.708389,-3.5697 -1.85355,-4.401 z m -10.478611,0.1327 c -0.172315,0.9617 -0.714874,1.0804 -1.630006,1.1643 0.169987,-1.0153 0.658989,-1.1317 1.630006,-1.1643 z m -11.787272,1.8046 c 0.742817,-0.2142 1.13169,0.6777 1.299348,1.2225 0.339972,1.1061 1.702192,5.6166 0.190943,6.2267 -0.745145,0.3004 -1.255104,-0.5449 -1.483305,-1.1038 -0.440102,-1.0804 -1.751093,-5.8214 -0.007,-6.3454 z m -1.485634,8.4411 c -1.630006,-0.5355 -3.092355,-4.1914 -2.095722,-5.7562 0.931432,-1.4624 1.862864,0.4517 2.025864,1.3319 0.06986,0.6171 0.06986,1.2435 0.167658,1.8629 0.118758,0.9314 0.06753,1.6719 -0.0978,2.5614 z m 91.280341,3.7258 c 0,0 -1.44838,-0.9594 -3.12961,-1.4112 -1.29702,-0.3492 -2.75704,-0.2188 -3.62327,-0.2188 0.17231,-1.3553 0.978,-3.0761 0.46571,-4.4243 -1.64863,-4.7201 -10.10371,-1.63 -12.80719,-0.049 -6.54797,3.8584 -10.94665,12.055 -9.87551,19.6113 0.14903,1.0432 -0.13738,1.9862 0.26546,3.0271 1.81397,4.6572 8.15469,4.2008 12.17149,3.7653 8.92079,-0.9733 19.24106,-10.942 16.53292,-20.3005 z m -56.817356,-7.5726 c 3.434656,-0.8639 3.569716,4.1356 0.891846,4.7131 -3.453284,0.7637 -4.254315,-3.8678 -0.891846,-4.7131 z m 40.517296,10.134 -2.56144,2.5614 c 2.42405,-0.4168 5.55366,-1.8558 6.62015,-4.1914 1.06416,-2.4101 -1.14799,-6.52 -3.82585,-6.7529 0.61008,2.1959 5.04137,6.2872 0.93143,7.6843 0,-2.8804 -0.46572,-5.9704 -3.95859,-6.0543 1.01992,-3.3904 9.77771,-4.6059 11.9363,-1.7837 1.09444,1.4298 -1.0758,3.5418 0.27478,4.6618 1.9397,1.6091 5.71666,-0.4191 6.75055,3.1762 0.89417,3.111 -1.32031,6.5201 -3.06441,8.8486 -4.51978,6.0893 -15.25686,12.4253 -22.88296,7.6844 -1.90012,-1.2226 -2.32858,-3.7258 -2.32858,-5.8215 -0.007,-4.5174 1.14799,-7.6168 3.5604,-11.41 0.78939,-1.2412 2.02819,-4.0704 3.64423,-4.3848 0.71254,-0.1467 1.03855,1.3553 1.25045,1.821 0.76843,1.8046 1.67657,3.3741 3.65354,3.9609 z m -77.26229,-6.9857 c 0.824318,-0.1514 1.348248,0.985 1.120047,1.6393 -0.312029,1.0688 -2.288994,3.1622 -3.453284,3.2507 -0.73816,0 -1.669592,-1.0479 -1.301676,-1.7441 0.370244,-0.7545 2.840868,-3.0365 3.634913,-3.1459 z m 46.99075,0.1397 c 3.07605,-1.1992 4.71304,3.437 2.07476,4.5407 -3.15522,1.3226 -4.94357,-3.4137 -2.07476,-4.5407 z m 30.57658,6.1428 c -0.163,0.1211 -0.31901,-0.012 -0.59611,-0.1025 -0.27711,-0.091 -0.91747,-0.7638 -1.26442,-1.1596 -0.34696,-0.3959 -1.08978,-1.474 -1.08978,-1.474 0,0 0.7009,0.2329 1.38085,-0.3819 0.67994,-0.6147 0.70789,-1.325 0.70789,-1.325 0,0 0.35161,0.4029 0.75679,1.6138 0.21655,0.652 0.45873,1.9071 0.40983,2.1842 -0.0489,0.2771 -0.14205,0.5239 -0.30505,0.645 z m -3.19248,-5.1904 c 0.49133,-0.4914 0.7661,-0.2934 1.02923,-0.2003 0.26313,0.093 0.8965,0.4634 0.8965,0.4634 0,0 -0.55885,-0.079 -1.20387,0.503 -0.64502,0.5821 -0.67762,1.0874 -0.67762,1.0874 0,0 -0.28641,-0.6171 -0.326,-0.9384 -0.0559,-0.4424 -0.2119,-0.4215 0.28176,-0.9151 z m -86.064322,11.0165 c -2.65691,-1.6906 2.228451,-5.4745 4.191444,-5.9426 2.52651,-0.5774 0.742817,2.2169 0,2.8153 -0.530916,0.4448 -1.075804,0.8755 -1.630006,1.29 -0.840617,0.6287 -1.727806,1.1969 -2.561438,1.8373 z m 95.704642,-3.7257 3.49287,1.8721 2.7943,2.0864 c -0.17465,-3.2018 -3.40904,-4.8085 -6.28717,-3.9585 z m -16.53292,4.1914 2.7943,-3.7257 c -1.94204,0.1304 -3.267,1.786 -2.7943,3.7257 z m -61.241655,-3.1832 c 3.637242,-0.6054 2.302966,5.0554 2.056136,7.3746 -0.42613,3.6606 -0.658988,7.2699 -0.912803,10.9444 -0.08616,1.269 -0.677617,2.7151 -0.561188,3.9586 0.165329,2.0957 1.865193,1.9443 2.535824,3.3322 0.605431,1.262 0.04424,3.5091 -0.190944,4.8178 -0.391201,2.1679 -1.611377,8.1034 -4.114601,8.7741 -1.075804,0.3073 -2.226122,-0.2352 -3.239055,-0.524 -2.566095,-0.7311 -6.752882,-1.2364 -7.144084,-4.5244 -0.242172,-1.9444 0.547217,-4.3474 0.826646,-6.2872 0.931432,-6.4734 2.885111,-12.8071 4.654832,-19.0943 0.966361,-3.4673 1.88615,-8.0732 6.089237,-8.7718 z m 75.911715,1.5532 h -1.16429 c 0.22121,3.0574 4.29623,4.9575 6.98574,5.3557 -0.005,-1.5159 -0.0675,-4.1425 -1.22949,-5.2579 -1.12937,-1.0898 -4.21939,-2.3752 -4.59196,-0.098 z m -3.26002,7.4514 -1.63,2.5615 c 4.14953,-0.6474 2.56144,-4.4103 1.39715,-6.9858 -1.16429,1.1108 -0.10479,2.0073 0.23285,3.2601 -2.26338,-0.3423 -4.5547,-2.7897 -6.0543,-4.4243 -0.52393,-0.6078 -1.16429,-2.1796 -2.09573,-2.1796 -2.62663,0 -2.15393,5.2859 -1.04786,6.5526 1.94204,2.2238 6.63646,1.6906 9.19789,1.2155 z m -3.49287,-7.6843 c -0.23285,1.5509 1.39715,2.4101 2.7943,2.5615 -0.11643,-1.5159 -1.48331,-2.0957 -2.7943,-2.5615 z m -4.65716,0.9315 5.35574,6.0543 c -2.9573,0 -7.87759,-2.3286 -5.35574,-6.0543 z m 11.85015,-0.5333 c 0.20491,-0.3702 0.66597,-0.8103 1.31797,-0.8779 0.65201,0 1.15498,0.4727 1.15498,0.4727 0,0 -0.77542,0.2026 -1.32962,0.8197 -0.5542,0.6171 -0.68926,1.7488 -0.68926,1.7488 -0.652,-0.1351 -0.7661,-1.5089 -0.45407,-2.1633 z m 2.58239,1.8163 c 0.63803,-0.6217 0.62639,-1.5834 0.62639,-1.5834 0,0 0.71953,0.5262 1.06416,1.4879 0.35162,0.9804 0.65899,2.1237 0.31436,2.4683 -0.34463,0.3447 -1.53686,-0.2142 -2.27968,-0.5565 -0.60776,-0.2794 -1.34359,-1.0269 -1.34359,-1.0269 0,0 1.01759,-0.2049 1.61836,-0.7894 z m -101.521432,0.7242 c 1.532206,-0.082 1.010604,1.7185 -0.232858,1.8186 -1.306333,0.1397 -0.959375,-1.7301 0.232858,-1.8186 z m 82.604052,15.697 c -0.54955,0.5192 0.39819,1.1992 0.75912,1.4181 0.99197,0.5565 3.26001,1.602 4.27061,0.4983 0.93842,-1.0316 -4.31486,-2.5917 -5.02973,-1.9164 z m -10.41807,1.3901 c 1.39715,6.0078 8.36426,9.1607 13.73862,10.4227 2.09573,0.5217 5.66777,0.8966 7.2186,-0.8755 -4.75729,-1.2318 -9.10707,-1.1643 -13.50576,-3.8678 -2.33091,-1.4134 -4.77592,-5.4465 -7.45146,-5.6794 z m -38.200355,10.46 c -3.376442,13.3684 -9.114063,24.3267 -17.345594,31.3543 -2.733753,2.3356 -5.611878,3.3602 -9.188577,3.3602 -0.73816,0 -2.794296,0.3539 -3.106325,-0.5379 -0.405173,-1.0619 7.491042,-7.5633 9.954679,-10.1736 5.316149,-5.7469 9.137349,-12.3159 11.780287,-19.5601 1.397148,-3.7699 2.782653,-7.5678 2.794296,-11.6429 0.917461,0 5.474492,2.5312 5.111234,7.2 z m 0.244501,3.7444 1.16429,-6.9858 -2.328581,-3.7257 c 1.39482,0.3796 2.519524,1.9304 3.958587,2.0957 2.32858,0.2468 4.65716,-2.5451 7.085869,-0.058 0.686931,0.7125 0.423801,1.8419 0.0023,2.6197 -1.841906,3.3904 -4.293901,1.0012 -6.622481,2.6056 -1.315648,0.9082 -1.77205,2.9829 -3.260012,3.4487 z m -28.874394,24.6829 c -1.299347,-0.4121 2.694167,-12.9725 3.488213,-15.0962 0.621731,-1.6672 1.634663,-4.5314 2.943326,-5.7772 0.703231,-0.6776 2.333237,-0.4541 2.50788,0.6287 0.244501,1.5113 -1.550834,3.4999 -2.084079,4.8761 -1.690549,4.3544 -2.964282,8.5296 -4.088987,13.04 -0.323672,1.2784 -1.467005,2.7408 -2.766353,2.3286 z m 63.337378,-7.838 c 2.39844,-0.4704 4.62922,1.3622 3.49287,3.8794 -0.61707,1.3972 -3.17152,2.8153 -4.65716,3.104 -1.27606,0.2515 -1.5322,-1.7068 -1.65795,-2.6383 -0.27244,-1.9536 0.72652,-3.9353 2.82224,-4.3451 z m 2.56144,35.3153 c -0.46572,-1.63 1.78136,-4.9762 2.51021,-6.5201 2.51486,-5.3301 5.40696,-10.758 7.43515,-16.3 0.68228,-1.8629 -1.32961,-3.94 -0.67994,-6.0543 0.56352,-1.9281 2.99455,-3.26 4.87139,-2.2611 1.92341,1.0525 1.55316,3.423 0.25149,4.8202 -0.92445,0.9663 -2.41474,1.276 -3.21112,2.3728 -1.39947,1.9211 -2.21448,4.5547 -3.20412,6.7086 -2.62431,5.7074 -4.94591,11.7431 -7.97306,17.2339 z m -3.95859,-26.5459 -3.18782,7.9172 -7.05793,15.8344 h -0.23286 c 0.3097,-3.4929 7.63775,-20.2354 10.47861,-23.7516 z m 0,3.0272 c 0,0 -5.67475,18.4121 -8.8486,20.4915 l 5.72365,-13.2729 z m 15.60149,1.3971 -2.46364,6.2872 -7.08354,15.3686 h -0.23286 c 0.81501,-4.5803 4.04475,-9.5076 5.98213,-13.7386 1.15497,-2.5218 2.01887,-5.7679 3.79791,-7.9172 z m -3.95859,1.6301 -9.54717,20.9572 h -0.23286 c -0.23286,-1.7162 1.39249,-4.0518 2.15393,-5.5886 1.74877,-3.4929 3.28796,-7.1651 5.00412,-10.7115 0.75912,-1.5718 1.26675,-3.4929 2.62198,-4.6571 z m 4.19145,1.8628 c -0.46572,4.266 -3.87709,9.3749 -5.66078,13.2729 -0.63337,1.3972 -1.18292,3.5697 -2.48925,4.4243 l 5.1741,-11.6429 z m -15.83435,0.4657 -4.09364,9.5472 -2.8921,6.0543 c -0.23286,-1.7883 1.32264,-4.2427 2.09572,-5.8214 1.63001,-3.1459 3.02716,-6.5107 4.42431,-9.7801 z m 16.06721,1.3972 c 0.37024,2.0305 -0.62406,3.5464 -1.42975,5.3557 -1.42044,3.1878 -3.78162,6.8158 -4.3917,10.2458 2.01887,0 2.56143,-1.3157 3.32288,-3.0272 1.26442,-2.8874 3.40671,-5.9425 3.89571,-9.0814 h -0.23285 l -5.35574,11.6429 h -0.23286 c 0.56818,-3.8422 3.40206,-8.7602 5.35574,-12.1087 0,0 1.44372,1.1643 1.86286,1.1643 0.41915,0 1.93272,-0.4051 5.02275,-1.6835 0.41216,-0.1351 7.97771,-2.5079 7.02765,-1.0386 -0.29107,0.4587 -1.5322,0.1071 -2.03983,0.3935 0,0 -5.9635,1.0037 -5.53737,3.0295 0.64735,3.1157 3.37645,5.8541 4.14022,9.0792 2.01189,8.15 -0.1141,16.5538 -2.02121,24.4501 -0.87322,3.6209 -2.33556,7.6843 -4.10528,10.9443 -0.97801,1.8093 -2.9899,3.8584 -3.48123,5.8214 -0.1956,0.7778 -0.63803,2.5056 -0.44476,3.26 0.22587,0.9687 1.13402,1.9165 0.95705,2.9876 -0.32601,1.9933 -2.01888,2.7128 -1.49495,5.1625 0.11177,0.5588 0.326,1.1037 0.54488,1.63 1.42975,3.4928 3.25769,0.3143 5.85406,-0.5635 0.57748,-0.1956 1.45303,-0.5915 2.0212,-0.198 1.62535,1.1317 -0.9291,4.0215 -2.03052,4.4895 -0.95705,0.4192 -2.82922,1.2435 -3.86078,0.7871 -1.963,-0.8662 -2.93402,-5.1741 -3.0714,-7.0766 -0.0815,-1.127 0.47969,-2.3868 0.0489,-3.4812 -0.326,-0.7987 -1.25744,-1.0874 -1.54851,-1.8745 -0.4075,-0.9757 0.17465,-2.0282 -0.0885,-3.0271 -0.54955,-2.0702 -1.72315,-3.9586 -2.31228,-6.0544 -1.17594,-4.1472 -1.51591,-8.5342 -1.92341,-12.8071 -0.27244,-2.7711 0.0233,-5.8215 0.19327,-8.6158 0.10013,-1.148 0.54489,-2.5614 0.0931,-3.7118 -0.68926,-1.7091 -4.05172,-0.9454 -5.21601,-0.2468 h -0.23286 c -0.98034,-0.3935 -1.55084,-0.077 -1.86287,0.9315 h -0.23285 c -0.69858,-1.2738 -2.20517,-0.9082 -3.26002,-0.2329 h -1.63 -0.23286 c -1.16429,-0.3842 -3.26001,0.6986 -3.95859,1.63 -0.93143,-0.3213 -1.41345,-0.2212 -2.09572,0.4657 l -5.588592,0.9314 c 0.98499,-1.7301 4.047072,-1.779 5.821452,-2.0957 1.72082,-0.3493 5.66543,-1.2714 6.75288,-2.6615 1.16429,-1.4181 1.26675,-4.7666 0.93143,-6.4199 l 0.69858,-0.6986 c 1.55316,0.2398 4.94357,-0.5123 6.05431,-1.63 l 1.39714,0.4657 0.46572,-0.9314 h 0.23286 l 0.93143,0.4657 c 0,-2.3286 1.53919,-4.6479 2.52185,-6.7529 1.43674,-3.0714 2.66623,-6.1591 3.76532,-9.3143 z m -8.15003,0.2328 -2.59171,6.0543 -5.32547,11.6429 h -0.23286 l 5.02508,-11.41 z m -74.440053,0.8407 c 1.772049,-0.8337 5.977465,2.0957 5.651464,4.0494 -0.251487,1.5042 -1.480977,0.7661 -2.344881,1.3342 -0.47503,0.3121 -0.670631,0.9315 -1.173604,1.2272 -3.03414,1.6649 -4.361431,-5.563 -2.132979,-6.6108 z m 66.755733,0.091 c -0.17231,3.3066 -2.88977,7.2628 -4.29623,10.2457 -0.51927,1.1038 -0.91979,2.6127 -1.99094,3.26 1.16429,-4.1309 3.70012,-10.085 6.28717,-13.5057 z m 18.39578,54.4887 c 0.53558,-2.9503 3.49287,-5.712 4.63621,-8.6157 2.89209,-7.4515 5.26957,-15.5037 5.82145,-23.5187 0.24916,-3.6046 0.13971,-7.5446 -1.18991,-10.9443 -0.89417,-2.2843 -3.3159,-5.2998 -3.53478,-7.6796 -0.15602,-1.6813 4.18678,-2.5522 5.44422,-2.4427 1.57412,0.1374 1.92341,2.1446 2.30296,3.3694 1.12005,3.6047 1.79301,7.2186 2.18654,10.9444 0.95006,9.0814 -4.69675,25.8542 -5.33478,27.4772 -0.63803,1.623 -5.37902,9.1047 -10.33191,11.41 z m 13.27291,-53.3244 c 4.50813,6.3384 4.62922,17.7787 3.39274,25.1486 -0.4564,2.7151 -0.84993,5.4745 -1.52988,8.1501 -0.18162,0.8685 -0.93143,2.5684 -0.54954,3.4253 0.46339,1.0572 1.71383,-0.3982 2.03052,-0.8639 1.37153,-1.8629 2.09572,-4.1915 3.11797,-6.2872 3.43,-6.9578 5.77488,-15.0007 6.11019,-22.8201 h 0.23286 c 0,10.7511 -4.22171,22.4499 -9.96166,31.4359 -2.1749,3.4044 -4.35911,6.9368 -7.73555,9.3143 4.84811,-8.83 9.54485,-26.5505 7.65172,-36.4609 -0.54722,-2.8758 -2.75937,-11.0421 -2.75937,-11.0421 z m -27.01153,0.6985 c -1.00129,4.6782 -4.23569,9.6404 -6.28717,13.9715 h -0.23285 l 4.56867,-10.2457 z m 15.83435,0 v 0.2329 h -0.69858 z m -19.32722,0.2329 -5.58859,12.1086 1.16429,0.4657 4.10529,-8.8486 1.94902,-3.4928 -5.82145,12.8071 -1.46468,-1.2155 1.93039,-4.6455 3.26001,-7.179 z m 21.65347,3.7397 c -1.86054,0.2468 -5.35574,6.4432 -2.32625,6.2289 1.92107,-0.135 3.39972,-1.2853 3.67682,-3.2157 0.13273,-0.9175 0.11643,-3.2111 -1.35057,-3.0132 z m 0.23518,0.6846 c 1.38318,2.5917 -0.46571,4.5547 -3.02715,4.89 0.19793,-1.9281 1.39715,-3.8375 3.02715,-4.89 z m -23.2858,12.1086 v 0.2329 c -0.97101,1.1107 -0.5705,3.6395 -1.53686,4.4243 -3.00853,2.4147 -8.40617,2.3286 -11.968902,3.6163 -3.856128,1.4297 -7.006697,4.8178 -11.177184,5.4651 1.348248,-2.5614 6.580567,-2.5241 7.276813,-5.5792 0.332987,-1.4647 -2.27968,-1.2202 -3.085369,-1.1341 -3.783943,0.4262 -7.309413,1.8419 -11.177184,1.1247 v -0.2328 l 12.80719,-2.7943 c -0.817331,-2.5615 -2.880453,-1.7045 -4.899332,-1.63 -2.556781,0.044 -6.166081,0.023 -8.606432,-0.6986 v -0.2329 c 2.712795,-1.1526 5.961165,-0.9314 8.848604,-0.9314 0.929103,0 3.106326,0.2515 3.725728,-0.6008 0.884861,-1.1363 -2.025865,-1.4646 -2.561438,-1.6323 -3.055097,-0.9594 -6.566596,-1.4926 -9.780036,-1.4926 0.454073,-1.2924 1.907107,-0.7917 3.027154,-0.8732 3.250697,-0.2422 6.14978,0.6403 9.31432,0.8732 1.05019,0.056 3.793257,0.3958 3.949272,-1.1643 0.09082,-0.9012 -1.008275,-1.5089 -1.620692,-1.942 -1.397148,-0.9664 -3.357812,-2.0888 -3.49287,-3.8795 l 8.15003,3.9586 7.917168,1.8629 z m 17.2315,-4.4709 c -3.3811,1.1201 -6.99972,1.8582 -10.47861,2.6104 -1.39715,0.291 -3.17386,0.063 -4.38239,0.8615 -1.43907,0.9431 -2.23544,3.7956 -1.49961,5.3721 0.72186,1.5438 4.33815,0.5821 5.64914,0.5193 4.65716,-0.2306 9.54718,-0.3936 14.20434,-0.9967 1.36454,-0.1676 3.72572,0.065 4.78989,-0.9663 1.49727,-1.4833 0.82431,-7.6797 -0.10712,-9.3912 -0.63337,-1.1666 -6.41989,1.4088 -8.17564,1.9909 z m 6.97409,-1.432 c 0.86623,0.082 1.09211,1.0129 1.15498,1.7115 0.13273,1.5112 0.77542,5.4698 -0.54489,6.5526 -1.15265,0.9454 -3.63026,0.51 -5.0437,0.6939 -4.31952,0.5635 -8.88819,0.7941 -13.25195,0.9058 -1.32729,0.035 -3.32754,0.7056 -4.58265,0.089 -1.7441,-0.8592 0.3912,-4.0913 1.55549,-4.4965 4.25898,-1.4903 9.13735,-1.6207 13.50577,-3.0201 2.06545,-0.659 5.02042,-2.5871 7.20695,-2.4357 z m -6.27552,10.9257 c -1.75808,0.5169 -1.55549,3.5045 -1.63001,4.9901 -0.23285,5.2649 0,10.5857 0.23286,15.8343 0.0512,0.9757 0.13972,6.1219 1.72315,5.6236 1.42043,-0.4471 2.23544,-3.6512 2.60102,-4.925 0.62872,-2.2703 -0.36558,-5.3394 -0.55885,-7.6843 -0.28409,-2.9782 -0.0396,-6.0543 -0.0396,-9.0815 0,-1.7906 0.68926,-5.6421 -2.32858,-4.7572 z m 0.46572,25.7145 c -1.16429,-0.6986 -0.94541,-3.3741 -1.09677,-4.6572 -0.57515,-4.8528 -0.30038,-9.78 -0.30038,-14.67 0,-1.1643 -0.26546,-5.0321 1.00129,-5.5886 2.49158,-1.162 1.29003,4.7479 1.42509,5.8214 0.35161,2.7943 -0.0373,5.5956 0.13506,8.3829 0.13971,1.7231 0.99197,3.6419 0.80103,5.3557 -0.2119,1.9025 -1.60207,3.5208 -1.96532,5.3558 z m -17.2315,-24.2173 -0.46571,1.3972 h -0.23286 z m 1.63001,0 -0.23286,1.1643 h -0.23286 z m -5.35574,0.4658 -0.46571,1.3971 h -0.23286 z m 1.63001,0 -0.69857,2.0957 h -0.23286 z m -3.49287,0.9314 v 0.2328 l -0.69857,0.9315 z m -2.32858,0.6986 -1.16429,2.7943 h -0.23286 z m 3.49287,0 -0.23286,0.9314 h -0.23286 z m -5.58859,0.6985 -0.93143,2.3286 h -0.23286 z m 3.49287,0 -0.69858,1.8629 h -0.23285 z m -5.35574,0.2329 -0.69857,1.8629 h -0.232858 l 0.465716,-1.8629 z m -2.095718,0.4657 v 0.6986 h -0.232858 z m -2.095722,0.9314 -0.931432,2.5615 H 94.82049 Z m 3.260012,0.6986 -0.232858,0.2329 z m -5.355734,0.2329 -1.397148,3.26 h -0.232858 z m -2.095722,0.9314 -3.260012,7.4515 h -0.232858 c 0.291072,-1.9444 1.774378,-6.4036 3.49287,-7.4515 z m 38.188714,36.7916 c -1.39715,-1.2505 -2.7943,-7.8171 0.69857,-7.2 0.88021,0.1537 4.69908,3.3578 4.14953,4.2543 -0.31901,0.5193 -1.52755,0.6171 -2.0538,0.8499 -1.11074,0.4658 -2.00491,1.1946 -2.7943,2.0958 z" style="fill:#000000;stroke-width:0.20300001"/>
        <path style="fill:#e6180a;stroke-width:1.0001626" d="m 59.598641,1521.1916 c -2.231709,4.9212 2.294168,11.3103 2.324394,16.0274 3.597599,-3.0501 11.385266,-3.7858 13.669167,-8.6832 1.067247,-2.3126 0.133463,-5.0208 -2.069053,-6.0252 -2.212954,-1.0092 -4.870919,0.036 -5.927727,2.3531 1.061568,-2.3278 0.133463,-5.0208 -2.069053,-6.0252 -2.208194,-1.0197 -4.860481,0.04 -5.927728,2.3531 z" id="path4189" inkscape:connector-curvature="0"/>
        <path style="fill:#e6180a;stroke-width:0.99951243" d="m 79.219223,1551.8099 c -2.842565,0.7312 -5.685131,1.4624 -8.527696,2.1936 0.960107,-0.2931 1.624898,-1.1342 2.271878,-1.8544 1.41305,-1.7737 2.665136,-3.7129 3.50563,-5.8209 0.375513,-1.0484 0.753111,-2.2158 0.482334,-3.3347 m -6.259842,11.01 c 1.242515,-0.2782 2.496889,0.2353 3.622409,0.7173 2.018472,0.9665 3.881736,2.2547 5.555836,3.7372 0.636344,0.6283 1.362949,1.2807 1.617305,2.1683 -0.756047,-2.9392 -1.511808,-5.8772 -2.267854,-8.8164 m 2.267854,8.8164 c -0.295414,-1.3233 0.211579,-2.666 0.705575,-3.8751 0.914485,-2.0229 2.127393,-3.9165 3.562747,-5.6081 0.572378,-0.6006 1.166242,-1.2926 1.99152,-1.5268 -2.842565,0.7312 -5.685131,1.4624 -8.527696,2.1936 m 8.527696,-2.1936 c -1.242515,0.2782 -2.496803,-0.235 -3.622123,-0.7162 -2.018758,-0.9676 -3.882022,-2.2558 -5.556122,-3.7383 -0.636344,-0.6283 -1.362394,-1.2809 -1.617305,-2.1683 0.756047,2.9392 1.511808,5.8772 2.267854,8.8164" id="path4193" inkscape:connector-curvature="0"/>
        <path style="stroke-width:1.00042498" d="m 111.49741,1551.1368 c -1.00696,1.8167 -3.34036,2.4521 -5.21728,1.4117 -1.87691,-1.0403 -2.57468,-3.3558 -1.56772,-5.1725 1.00697,-1.8167 3.34037,-2.4521 5.21728,-1.4118 1.87692,1.0404 2.57469,3.3559 1.56772,5.1726 z" id="path4197" inkscape:connector-curvature="0"/>
        <path style="stroke-width:1.00042498" d="m 112.41869,1559.7954 c -1.00696,1.8167 -3.34036,2.452 -5.21728,1.4117 -1.87691,-1.0404 -2.57468,-3.3559 -1.56772,-5.1725 1.00697,-1.8167 3.34037,-2.4521 5.21728,-1.4118 1.87692,1.0404 2.57469,3.3559 1.56772,5.1726 z" id="path4199" inkscape:connector-curvature="0"/>
        <path style="stroke-width:1.00042498" d="m 103.71554,1554.9976 c -0.36718,0.6624 -0.91285,1.1735 -1.55344,1.5007 -1.09736,0.5594 -2.479477,0.5675 -3.663841,-0.089 -1.876916,-1.0403 -2.574687,-3.3558 -1.56772,-5.1725 1.006968,-1.8167 3.340361,-2.4521 5.217281,-1.4118 1.87692,1.0404 2.57469,3.3559 1.56772,5.1726 z" id="path4201" inkscape:connector-curvature="0"/>
        <path style="stroke-width:1.00042498" d="m 105.07977,1564.1116 c -1.67618,-0.9291 -1.80282,-2.7837 -1.5079,-4.4046 0.29491,-1.6209 1.01138,-3.0082 1.01138,-3.0082 l -0.86318,-0.4785 c 0,0 -3.18149,5.3611 -6.539409,3.513 z" id="path4203" inkscape:connector-curvature="0"/>
        <path style="stroke-width:1.00042498" d="m 104.46568,1550.4013 c 0.84998,2.964 -0.73557,5.8246 -0.73557,5.8246 l 0.84758,0.4829 c 0,0 1.61893,-2.9208 4.505,-3.7484" id="path4205" inkscape:connector-curvature="0"/>
        <path style="stroke-width:1.00042498" d="m 101.45343,1556.7352 c 2.96407,-0.8499 5.82461,0.7356 5.82461,0.7356 l 0.47288,-0.8531 c 0,0 -2.92076,-1.619 -3.74838,-4.505" id="path4207" inkscape:connector-curvature="0"/>
        <path style="stroke-width:1.00042498" d="m 105.27196,1558.8649 c -0.84999,-2.964 -3.71053,-4.5496 -3.71053,-4.5496 l 0.47289,-0.8531 c 0,0 2.92076,1.6189 5.80682,0.7913" id="path4209" inkscape:connector-curvature="0"/>
        <path style="stroke-width:1.00012505" d="m 84.469116,1507.3958 c -1.84092,0.5306 -3.376567,-1.152 -4.449228,-2.968 -1.072661,-1.816 -1.682336,-3.7655 -1.682336,-3.7655 l -0.940173,0.2591 c 0,0 2.089126,7.9106 -1.592714,8.9718 z" id="path4213" inkscape:connector-curvature="0"/>
        <path style="stroke-width:1.00012505" d="m 85.323257,1498.6368 c -1.113589,-3.822 -7.657529,-4.9444 -10.214735,-7.4787 -0.8128,3.5176 -5.75532,7.9509 -4.666956,11.7682 0.521097,1.8079 2.608239,2.7942 4.669629,2.2 2.050366,-0.591 3.292314,-2.5369 2.771217,-4.3447 0.521097,1.8078 2.608239,2.7942 4.669629,2.2 2.06139,-0.5942 3.292314,-2.5369 2.771216,-4.3448 z" id="path4215" inkscape:connector-curvature="0"/>
      </g>
      <g id="g4517">
        <path inkscape:connector-curvature="0" id="path59420" style="font-style:normal;font-variant:normal;font-weight:normal;font-stretch:ultra-condensed;font-size:53.35316849px;line-height:80.00000119%;font-family:'Stint Ultra Condensed';-inkscape-font-specification:'Stint Ultra Condensed, Ultra-Condensed';font-variant-ligatures:normal;font-variant-caps:normal;font-variant-numeric:normal;font-feature-settings:normal;text-align:center;letter-spacing:0px;word-spacing:0px;writing-mode:lr-tb;text-anchor:middle;fill:#e6180a;fill-opacity:1;stroke:none;stroke-width:1.00037193" d="m 21.5946,1312.4465 h 10.2122 v 2.9177 h -3.2044 v 23.1076 q 0,2.8135 -0.4428,4.7674 -0.4169,1.9278 -1.2244,3.1522 -0.7816,1.1983 -1.9278,1.7454 -1.1203,0.521 -2.5531,0.521 -1.4067,0 -2.527,-0.4689 -1.0941,-0.4689 -1.8757,-1.7454 -0.7815,-1.3026 -1.1983,-3.5951 -0.4168,-2.2925 -0.4168,-5.9137 h 3.2564 q 0.026,2.4489 0.1042,4.1161 0.1042,1.6673 0.3647,2.7094 0.2866,1.016 0.8336,1.4849 0.5471,0.4429 1.4589,0.4429 0.9118,0 1.485,-0.4689 0.5731,-0.495 0.8857,-1.4068 0.3126,-0.9379 0.4168,-2.3186 0.1042,-1.3807 0.1042,-3.1782 v -22.9513 h -3.7514 z"/>
        <path inkscape:connector-curvature="0" id="path59422" style="font-style:normal;font-variant:normal;font-weight:normal;font-stretch:ultra-condensed;font-size:53.35316849px;line-height:80.00000119%;font-family:'Stint Ultra Condensed';-inkscape-font-specification:'Stint Ultra Condensed, Ultra-Condensed';font-variant-ligatures:normal;font-variant-caps:normal;font-variant-numeric:normal;font-feature-settings:normal;text-align:center;letter-spacing:0px;word-spacing:0px;writing-mode:lr-tb;text-anchor:middle;fill:#e6180a;fill-opacity:1;stroke:none;stroke-width:1.00037193" d="m 32.927,1373.0523 q 0,4.8195 -0.7034,8.3365 -0.7034,3.4908 -1.9278,5.7834 -1.1984,2.2664 -2.8657,3.3606 -1.6673,1.0941 -3.569,1.0941 -1.9539,0 -3.6211,-1.0941 -1.6673,-1.0942 -2.8917,-3.3606 -1.2245,-2.2926 -1.9278,-5.7834 -0.7034,-3.517 -0.7034,-8.3365 0,-4.7934 0.7034,-8.2843 0.7033,-3.5169 1.9278,-5.8095 1.2504,-2.2925 2.9177,-3.3866 1.6673,-1.0942 3.5951,-1.0942 1.9017,0 3.569,1.0942 1.6673,1.0941 2.8657,3.3866 1.2244,2.2665 1.9278,5.7834 0.7034,3.4909 0.7034,8.3104 z m -3.5951,0 q 0,-7.607 -1.3807,-11.5928 -1.3808,-3.9859 -4.0901,-3.9859 -2.7875,0 -4.1682,4.038 -1.3807,4.0119 -1.3807,11.5407 0,7.607 1.3807,11.5929 1.3807,3.9858 4.1682,3.9858 2.7093,0 4.0901,-3.9858 1.3807,-3.9859 1.3807,-11.5929 z"/>
        <path inkscape:connector-curvature="0" id="path59424" style="font-style:normal;font-variant:normal;font-weight:normal;font-stretch:ultra-condensed;font-size:53.35316849px;line-height:80.00000119%;font-family:'Stint Ultra Condensed';-inkscape-font-specification:'Stint Ultra Condensed, Ultra-Condensed';font-variant-ligatures:normal;font-variant-caps:normal;font-variant-numeric:normal;font-feature-settings:normal;text-align:center;letter-spacing:0px;word-spacing:0px;writing-mode:lr-tb;text-anchor:middle;fill:#e6180a;fill-opacity:1;stroke:none;stroke-width:1.00037193" d="m 14.2481,1397.8115 h 9.639 v 2.9178 h -3.2043 v 12.2181 l 6.6171,-12.2181 H 25.346 v -2.9178 h 7.9457 v 2.9178 h -2.6833 l -6.7213,12.4525 7.3726,17.4805 h 2.9438 v 2.9438 h -8.4928 v -2.9438 h 2.1884 l -6.044,-14.719 -1.1723,2.1362 v 12.5828 h 3.2043 v 2.9438 h -9.639 v -2.9438 h 3.1783 v -29.933 h -3.1783 z"/>
        <path inkscape:connector-curvature="0" id="path59426" style="font-style:normal;font-variant:normal;font-weight:normal;font-stretch:ultra-condensed;font-size:53.35316849px;line-height:80.00000119%;font-family:'Stint Ultra Condensed';-inkscape-font-specification:'Stint Ultra Condensed, Ultra-Condensed';font-variant-ligatures:normal;font-variant-caps:normal;font-variant-numeric:normal;font-feature-settings:normal;text-align:center;letter-spacing:0px;word-spacing:0px;writing-mode:lr-tb;text-anchor:middle;fill:#e6180a;fill-opacity:1;stroke:none;stroke-width:1.00037193" d="m 28.1856,1451.2012 v -7.7894 h -6.1741 v 12.5047 h 5.7573 v 2.9177 h -5.7573 v 14.5106 h 6.5649 v -8.3104 h 2.8135 v 11.2542 H 15.2902 v -2.9438 h 3.1783 v -29.933 h -3.1783 v -2.9177 h 15.735 v 10.7071 z"/>
        <path inkscape:connector-curvature="0" id="path59428" style="font-style:normal;font-variant:normal;font-weight:normal;font-stretch:ultra-condensed;font-size:53.35316849px;line-height:80.00000119%;font-family:'Stint Ultra Condensed';-inkscape-font-specification:'Stint Ultra Condensed, Ultra-Condensed';font-variant-ligatures:normal;font-variant-caps:normal;font-variant-numeric:normal;font-feature-settings:normal;text-align:center;letter-spacing:0px;word-spacing:0px;writing-mode:lr-tb;text-anchor:middle;fill:#e6180a;fill-opacity:1;stroke:none;stroke-width:1.00037193" d="m 25.4502,1516.0274 h 1.9018 l -4.2203,-12.4786 H 22.4022 20.787 v 12.4786 h 3.2044 v 2.9438 h -9.639 v -2.9438 h 3.1782 v -29.933 h -3.1782 v -2.9178 h 9.7953 q 3.4127,0 5.0279,2.553 1.6412,2.5531 1.6412,7.7373 0,4.038 -1.0941,6.4347 -1.0942,2.3967 -3.543,3.2825 l 4.6371,12.8433 h 2.8917 v 2.9438 h -8.2583 z m 1.7976,-22.5605 q 0,-2.2925 -0.1824,-3.7253 -0.1823,-1.4589 -0.6252,-2.2665 -0.4429,-0.8076 -1.1723,-1.0942 -0.7034,-0.2865 -1.7455,-0.2865 H 20.787 v 14.5106 h 2.6833 q 1.0421,0 1.7715,-0.2345 0.7295,-0.2605 1.1723,-1.016 0.4429,-0.7815 0.6253,-2.1623 0.2084,-1.4067 0.2084,-3.7253 z"/>
      </g>
      <g id="g4524">
        <path inkscape:connector-curvature="0" id="path59409" style="font-style:normal;font-variant:normal;font-weight:normal;font-stretch:ultra-condensed;font-size:53.35316849px;line-height:80.00000119%;font-family:'Stint Ultra Condensed';-inkscape-font-specification:'Stint Ultra Condensed, Ultra-Condensed';font-variant-ligatures:normal;font-variant-caps:normal;font-variant-numeric:normal;font-feature-settings:normal;text-align:center;letter-spacing:0px;word-spacing:0px;writing-mode:lr-tb;text-anchor:middle;fill:#e6180a;fill-opacity:1;stroke:none;stroke-width:1.00037193" d="m 194.0858,1624.1248 h -10.2122 v -2.9177 h 3.2043 v -23.1076 q 0,-2.8135 0.4429,-4.7674 0.4168,-1.9278 1.2244,-3.1522 0.7816,-1.1984 1.9278,-1.7454 1.1202,-0.5211 2.5531,-0.5211 1.4067,0 2.5269,0.469 1.0942,0.4689 1.8757,1.7454 0.7816,1.3026 1.1984,3.5951 0.4168,2.2925 0.4168,5.9136 h -3.2564 q -0.026,-2.4488 -0.1042,-4.1161 -0.1042,-1.6673 -0.3647,-2.7093 -0.2866,-1.016 -0.8337,-1.4849 -0.547,-0.4429 -1.4588,-0.4429 -0.9118,0 -1.485,0.4689 -0.5731,0.495 -0.8857,1.4068 -0.3126,0.9378 -0.4168,2.3185 -0.1042,1.3808 -0.1042,3.1783 v 22.9513 h 3.7514 z"/>
        <path inkscape:connector-curvature="0" id="path59411" style="font-style:normal;font-variant:normal;font-weight:normal;font-stretch:ultra-condensed;font-size:53.35316849px;line-height:80.00000119%;font-family:'Stint Ultra Condensed';-inkscape-font-specification:'Stint Ultra Condensed, Ultra-Condensed';font-variant-ligatures:normal;font-variant-caps:normal;font-variant-numeric:normal;font-feature-settings:normal;text-align:center;letter-spacing:0px;word-spacing:0px;writing-mode:lr-tb;text-anchor:middle;fill:#e6180a;fill-opacity:1;stroke:none;stroke-width:1.00037193" d="m 182.7534,1563.5189 q 0,-4.8195 0.7034,-8.3364 0.7034,-3.4909 1.9278,-5.7834 1.1984,-2.2665 2.8657,-3.3606 1.6672,-1.0942 3.569,-1.0942 1.9538,0 3.6211,1.0942 1.6673,1.0941 2.8917,3.3606 1.2244,2.2925 1.9278,5.7834 0.7034,3.5169 0.7034,8.3364 0,4.7935 -0.7034,8.2844 -0.7034,3.5169 -1.9278,5.8094 -1.2504,2.2925 -2.9177,3.3867 -1.6673,1.0942 -3.5951,1.0942 -1.9018,0 -3.569,-1.0942 -1.6673,-1.0942 -2.8657,-3.3867 -1.2244,-2.2664 -1.9278,-5.7834 -0.7034,-3.4909 -0.7034,-8.3104 z m 3.5951,0 q 0,7.607 1.3807,11.5929 1.3808,3.9858 4.0901,3.9858 2.7875,0 4.1682,-4.0379 1.3807,-4.0119 1.3807,-11.5408 0,-7.607 -1.3807,-11.5928 -1.3807,-3.9859 -4.1682,-3.9859 -2.7093,0 -4.0901,3.9859 -1.3807,3.9858 -1.3807,11.5928 z"/>
        <path inkscape:connector-curvature="0" id="path59413" style="font-style:normal;font-variant:normal;font-weight:normal;font-stretch:ultra-condensed;font-size:53.35316849px;line-height:80.00000119%;font-family:'Stint Ultra Condensed';-inkscape-font-specification:'Stint Ultra Condensed, Ultra-Condensed';font-variant-ligatures:normal;font-variant-caps:normal;font-variant-numeric:normal;font-feature-settings:normal;text-align:center;letter-spacing:0px;word-spacing:0px;writing-mode:lr-tb;text-anchor:middle;fill:#e6180a;fill-opacity:1;stroke:none;stroke-width:1.00037193" d="m 201.4322,1538.7597 h -9.639 v -2.9177 h 3.2044 v -12.2181 l -6.6171,12.2181 h 1.9539 v 2.9177 h -7.9457 v -2.9177 h 2.6833 l 6.7212,-12.4526 -7.3725,-17.4804 h -2.9438 v -2.9438 h 8.4927 v 2.9438 h -2.1883 l 6.0439,14.719 1.1724,-2.1362 v -12.5828 h -3.2044 v -2.9438 h 9.639 v 2.9438 h -3.1782 v 29.933 h 3.1782 z"/>
        <path inkscape:connector-curvature="0" id="path59415" style="font-style:normal;font-variant:normal;font-weight:normal;font-stretch:ultra-condensed;font-size:53.35316849px;line-height:80.00000119%;font-family:'Stint Ultra Condensed';-inkscape-font-specification:'Stint Ultra Condensed, Ultra-Condensed';font-variant-ligatures:normal;font-variant-caps:normal;font-variant-numeric:normal;font-feature-settings:normal;text-align:center;letter-spacing:0px;word-spacing:0px;writing-mode:lr-tb;text-anchor:middle;fill:#e6180a;fill-opacity:1;stroke:none;stroke-width:1.00037193" d="m 187.4948,1485.3701 v 7.7893 h 6.1741 v -12.5046 h -5.7573 v -2.9178 h 5.7573 v -14.5106 h -6.5649 v 8.3104 h -2.8136 v -11.2542 h 16.0998 v 2.9438 h -3.1783 v 29.933 h 3.1783 v 2.9178 h -15.735 v -10.7071 z"/>
        <path inkscape:connector-curvature="0" id="path59417" style="font-style:normal;font-variant:normal;font-weight:normal;font-stretch:ultra-condensed;font-size:53.35316849px;line-height:80.00000119%;font-family:'Stint Ultra Condensed';-inkscape-font-specification:'Stint Ultra Condensed, Ultra-Condensed';font-variant-ligatures:normal;font-variant-caps:normal;font-variant-numeric:normal;font-feature-settings:normal;text-align:center;letter-spacing:0px;word-spacing:0px;writing-mode:lr-tb;text-anchor:middle;fill:#e6180a;fill-opacity:1;stroke:none;stroke-width:1.00037193" d="m 190.2302,1420.5439 h -1.9018 l 4.2203,12.4786 h 0.7295 1.6152 v -12.4786 h -3.2044 v -2.9438 h 9.639 v 2.9438 h -3.1782 v 29.933 h 3.1782 v 2.9178 h -9.7953 q -3.4127,0 -5.0279,-2.5531 -1.6412,-2.553 -1.6412,-7.7372 0,-4.038 1.0941,-6.4347 1.0942,-2.3967 3.543,-3.2825 l -4.6371,-12.8433 h -2.8917 v -2.9438 h 8.2583 z m -1.7976,22.5605 q 0,2.2925 0.1824,3.7253 0.1823,1.4589 0.6252,2.2665 0.4429,0.8076 1.1723,1.0941 0.7034,0.2866 1.7455,0.2866 h 2.7354 v -14.5106 h -2.6833 q -1.0421,0 -1.7715,0.2345 -0.7295,0.2605 -1.1723,1.016 -0.4429,0.7815 -0.6253,2.1622 -0.2084,1.4068 -0.2084,3.7254 z"/>
      </g>
    </g>
  </g></svg>
