<?xml version='1.0' encoding='UTF-8'?>
<!-- Created with Inkscape (http://www.inkscape.org/) and export_objects.py -->
<svg xmlns:cc="http://creativecommons.org/ns#" xmlns:dc="http://purl.org/dc/elements/1.1/" xmlns:inkscape="http://www.inkscape.org/namespaces/inkscape" xmlns:rdf="http://www.w3.org/1999/02/22-rdf-syntax-ns#" xmlns:sodipodi="http://sodipodi.sourceforge.net/DTD/sodipodi-0.dtd" xmlns:xlink="http://www.w3.org/1999/xlink" xmlns="http://www.w3.org/2000/svg" version="1.1" width="57.1500026458mm" height="88.8999973542mm" viewBox="0 0 57.1500026458 88.8999973542" id="svg3673" sodipodi:docname="joker-001.svg"><sodipodi:namedview id="base" pagecolor="#ffffff" bordercolor="#666666" borderopacity="1.0" inkscape:pageopacity="0.0" inkscape:pageshadow="2" inkscape:zoom="0.91101083" inkscape:cx="241.42857" inkscape:cy="515.71429" inkscape:document-units="mm" inkscape:current-layer="layer1" showgrid="false" inkscape:window-width="1920" inkscape:window-height="986" inkscape:window-x="-11" inkscape:window-y="-11" inkscape:window-maximized="1"/>
  <metadata id="metadata3670">
    <rdf:RDF>
      <cc:Work rdf:about="">
        <dc:format>image/svg+xml</dc:format>
        <dc:type rdf:resource="http://purl.org/dc/dcmitype/StillImage"/>
      </cc:Work>
    </rdf:RDF>
  </metadata>
  <g inkscape:groupmode="layer" inkscape:label="joker-" transform="matrix(1.000000,0.000000,0.000000,1.000000,-112.646754,-118.662553)"><g transform="matrix(0.26448498,0,0,0.26448498,42.84967,-225.22694)" id="g4648" inkscape:label="001">
      <rect style="display:inline;opacity:1;fill:#ffffff;fill-opacity:1;stroke:none;stroke-width:0.13338292;stroke-linecap:butt;stroke-linejoin:miter;stroke-miterlimit:47.14606857;stroke-dasharray:none;stroke-dashoffset:0;stroke-opacity:1;paint-order:markers fill stroke" id="rect36853" width="216.08034" height="336.12494" x="263.8981" y="1300.2231"/>
      <g id="g4510">
        <path style="fill:#e6180a;stroke-width:0.20300001" d="m 393.09516,1558.2247 -0.85924,1.6603 0.88719,5.7749 2.31228,-0.4006 4.58264,-3.1016 -5.09493,-4.8481" id="path4070" inkscape:connector-curvature="0"/>
        <path style="fill:#e6180a;stroke-width:0.20300001" d="m 410.62239,1404.9948 c 0.32134,0.1211 -7.36064,7.363 -8.32701,7.363 l -6.51769,3.6209 -3.88174,5.733 -2.91772,6.4571 -0.1793,7.1604 2.71513,3.8608 5.77255,1.1876 7.22093,-1.2668 7.91251,-5.0344 4.00982,-5.195 1.5159,-5.074 -0.53557,-3.3834 -3.593,-1.7348 -3.06907,-0.2864 -0.21423,-1.2924 0.55187,-3.104 -2.62896,-2.0957 -4.79921,0.3167 7.79143,-7.0463 8.07319,2.0468 3.80956,-0.6892 10.84885,13.3125 -5.80515,7.9986 -0.8965,3.4556 1.2062,4.8668 1.81164,4.9901 -0.88719,5.3907 -1.36688,1.9304 0.16067,4.2636 -0.84527,2.1726 -2.93634,1.2481 -2.73608,-1.1666 -1.68822,-2.9364 0.84527,-3.4207 2.29133,-1.2877 2.05147,-0.039 0.36326,-0.6031 -1.60905,-4.1449 -3.66052,-2.6942 -2.97826,-0.1607 -7.23955,4.9064 -0.80569,4.2263 -0.0792,7.0789 6.99971,4.6269 3.17618,5.1089 1.00595,5.9542 0.80569,7.4025 6.63645,16.4934 2.33324,4.1844 -0.88486,0.7242 -5.43025,-2.5358 -4.90865,-5.0693 -0.28176,-3.8608 0.92678,-3.0178 -1.28771,-2.2518 -2.17256,0.04 -1.36688,2.1726 0.20026,1.7697 1.76972,2.8967 -0.80336,4.4663 -3.2181,5.9541 -1.69055,0.04 -3.33918,-4.7479 -1.85122,-6.3152 1.73013,-4.1029 -0.0396,-1.651 -2.93634,-2.3728 -2.25407,0.7242 -1.64863,2.5335 1.69055,5.5117 -1.81164,3.26 -6.79945,5.7516 -1.24579,-0.7242 -1.56947,-4.1029 -0.40284,-6.1149 3.70244,-2.8967 0.28176,-3.2181 -2.09339,-1.8093 -2.29133,0.3609 -2.29365,1.6486 -0.16067,3.0179 0.0396,3.6209 -4.54539,5.8331 -5.02973,3.8212 -2.09107,-0.5635 -0.88486,-2.6546 -0.16067,-11.1026 4.4243,-2.3333 1.2877,-2.5335 -1.40879,-2.254 -2.89675,-0.8849 -2.53349,1.609 -1.12704,2.6546 0.84528,3.621 -1.85122,2.0514 -2.73376,2.2937 -7.1208,3.3788 -3.13892,0.482 0.0396,-4.585 2.49391,-7.9242 2.0934,-3.0178 4.74564,-1.4088 1.52988,-2.9363 -0.84527,-2.2937 -3.05743,-1.3668 -2.77567,1.5694 -0.96636,1.8489 -0.5216,2.7361 -3.78161,2.615 -9.85688,3.0178 -1.40647,-1.3273 2.93634,-8.49 3.86079,-3.8212 4.54539,-0.6427 1.85122,-3.1785 -0.88486,-3.0178 -2.73608,-1.2062 -2.57308,1.2458 -2.05148,4.5058 -3.82353,2.4962 -9.21186,1.6882 1.04553,-4.0214 2.21215,-4.1053 1.56946,-1.3669 2.57541,-2.8572 4.22405,-0.3609 1.68822,-1.7697 0.56351,-1.5695 -0.20025,-1.609 -2.29366,-1.488 -3.78161,1.1247 -1.96998,0.1211 -3.74203,-3.6209 -1.40879,-2.3333 0.88486,-0.4424 4.86906,0.1211 5.59092,-1.488 10.98392,-5.0693 4.78756,-0.9244 4.86673,1.0059 3.70011,2.2122 -0.0792,-2.3729 1.52755,-1.9723 4.82715,-0.9244 0.24217,-0.6054 0.16067,-3.5395 2.615,-2.2517 1.9723,-6.9602 3.94229,-6.1148 0.0396,-1.8512 -2.5335,-5.3511 0.0792,-5.6724 1.12703,-3.1762 2.21216,-3.0574 5.1904,-2.2541 2.09107,-3.1366 2.17256,-1.0059 2.65458,0.7241 1.69055,2.6942 -0.84527,3.8631 -3.2181,1.3669 -3.70011,-1.488 -0.72419,0.2818 -0.52393,4.103 1.04553,3.5394 2.29365,1.3692 8.44809,-2.133" id="path4072" inkscape:connector-curvature="0"/>
        <rect width="0.71757758" height="10.519435" x="1321.8695" y="597.01917" transform="matrix(0.64764842,0.76193932,-0.74576121,0.66621335,0,0)" style="fill:#e6180a;stroke-width:0.14750156" id="rect4074"/>
        <path style="fill:#e6180a;stroke-width:0.20300001" d="m 336.2196,1448.991 3.55574,0.801 2.50322,4.2567 -2.75471,13.2729 -7.16038,13.3241 -10.96994,11.2704 h -9.66594 l -1.55316,-2.1051 12.32051,-11.119 9.86853,-16.1277" id="path4076" inkscape:connector-curvature="0"/>
        <path style="fill:#e6180a;stroke-width:0.20300001" d="m 399.21234,1499.9869 1.54618,-1.1596 4.44293,-1.0945 1.41811,1.2877 2.38214,9.0163 0.83828,4.8924 -0.64501,9.1443 -3.66984,14.8773 -2.70582,6.5666 -4.37773,5.6677 -5.34642,3.6699 0.38655,-2.5754 1.54618,-2.5102 2.96195,-4.8947 2.64061,-7.7914 2.38214,-10.4973 0.83829,-7.4701 -1.15964,-8.3712 -3.3485,-5.9891" id="path4078" inkscape:connector-curvature="0"/>
        <path style="fill:#000000;stroke-width:0.20300001" d="m 374.63418,1514.3496 1.02458,-1.0083 3.17385,-0.3167 2.49624,-0.9011 0.39353,-0.4471 1.31565,0.333 0.60543,-0.85 0.91979,0.4192 0.7009,-0.156 1.61138,-0.4401 3.84914,-7.4655 1.78602,-4.3637 1.32496,0.638 1.56714,-0.4727 10.56942,-3.2414 0.68926,1.4437 -2.03751,0.1398 -3.75832,0.9966 -2.21914,1.4763 0.44243,2.4078 -1.41578,0.6496 -2.88976,4.1659 0.35627,1.3412 2.63828,-0.6031 1.42276,-2.8851 -0.4727,-1.5834 0.77775,-0.1933 2.88511,5.2696 -0.65899,6.1009 1.84423,3.2134 -1.06881,8.0103 -1.14334,5.1206 -1.36455,5.3697 -2.282,6.499 -3.66053,6.1498 -0.43545,-2.7361 2.20284,-5.5862 -1.05485,-9.985 0.1956,-9.305 -2.17023,-0.7032 -1.26675,2.1586 0.27012,20.7639 1.1736,3.0901 0.43079,3.0015 -0.84528,3.6722 1.47399,3.7839 -1.03156,1.2411 -0.9943,2.4194 1.64165,4.4337 0.90116,-0.035 5.66078,-3.4323 1.10142,2.9387 -2.71746,3.3624 -4.45224,0.9431 -2.7291,-4.0145 -0.46339,-5.6049 0.0186,-2.0095 -1.55316,-0.971 -0.16533,-4.1309 -3.04113,-8.3317 -0.83596,-8.6903 -0.11642,-8.5179 0.10711,-5.407 -6.3384,0.333 -0.54954,1.0013 -1.60439,-0.9454 -2.86648,0.8267 -2.19818,-0.065 -2.4846,1.4111 -4.46621,1.0502 -4.16816,0.5542 1.65562,-1.8745 8.75779,-1.7255 3.01784,-1.8373 0.9617,-4.5756" id="path4080" inkscape:connector-curvature="0"/>
        <rect style="fill:#000000;stroke-width:0.16829424" width="1.0816721" height="1.0291393" x="398.44836" y="1502.5406" id="rect4082"/>
        <rect style="fill:#000000;stroke-width:0.1936198" width="1.0510231" height="2.8853886" x="392.95627" y="1546.8383" id="rect4084"/>
        <rect style="fill:#000000;stroke-width:0.21486738" width="1.6190172" height="8.3989992" x="235.57117" y="1546.2751" transform="matrix(0.99298144,-0.11827032,0.10810061,0.99413996,0,0)" id="rect4086"/>
        <path style="fill:#000000;stroke-width:0.20300001" d="m 407.35539,1497.6374 c 0,0.2841 2.22379,4.9598 2.22379,4.9598 l 1.42509,7.1837 0.17232,9.6916 -2.2238,13.9109 -0.5705,1.3669 0.51229,0.2864 0.5705,-0.4005 6.55728,-13.8527 2.62199,-11.2308 0.5705,-6.0426 1.02457,0.3981 -0.74049,8.7788 -3.36247,12.0294 -5.64447,11.6872 -6.21498,8.2664 -2.85019,2.2238 -0.2282,-1.1969 3.59067,-6.5572 4.21939,-16.0766 0.7987,-9.4633 -1.8256,-10.5462 -1.7674,-5.4162" id="path4088" inkscape:connector-curvature="0"/>
        <path inkscape:connector-curvature="0" id="path4090" d="m 365.49218,1378.6469 4.49881,0.3936 2.47528,5.6188 -1.89546,4.0913 -6.22197,-0.7637 -1.00129,-5.8005" style="fill:#e6180a;stroke-width:0.20300001"/>
        <path inkscape:connector-curvature="0" id="path4092" d="m 379.50324,1373.0025 3.69779,-1.8024 1.47399,0.5123 0.52626,1.9095 0.0116,1.7883 -1.05252,3.0132 -3.64423,3.2763 -6.39428,1.46 -0.45873,-1.7627 2.27503,-0.7102 3.11797,-3.0528" style="fill:#e6180a;stroke-width:0.20300001"/>
        <path inkscape:connector-curvature="0" id="path4094" d="m 335.47226,1375.5311 a 2.4193016,2.5686101 0 1 1 -4.8386,0 2.4193016,2.5686101 0 1 1 4.8386,0 z" style="fill:#ff009c;stroke-width:0.22329079"/>
        <path inkscape:connector-curvature="0" id="path4096" d="m 341.12703,1388.5546 a 2.5183666,2.3842595 0 1 1 -5.03673,0 2.5183666,2.3842595 0 1 1 5.03673,0 z" style="fill:#00ff0a;stroke-width:0.24759442"/>
        <path inkscape:connector-curvature="0" id="path4098" d="m 353.76306,1408.0241 a 2.732315,2.4860872 0 1 1 -5.46463,0 2.732315,2.4860872 0 1 1 5.46463,0 z" style="fill:#ff9e00;stroke-width:0.23948775"/>
        <path inkscape:connector-curvature="0" id="path4100" d="m 363.89352,1414.7124 a 2.6760275,2.7377582 0 1 1 -5.35205,0 2.6760275,2.7377582 0 1 1 5.35205,0 z" style="fill:#0072ff;stroke-width:0.23540124"/>
        <path inkscape:connector-curvature="0" id="path4102" d="m 374.58194,1418.0857 a 2.7123,3.0196506 0 1 1 -5.4246,0 2.7123,3.0196506 0 1 1 5.4246,0 z" style="fill:#ffff00;stroke-width:0.200937"/>
        <path inkscape:connector-curvature="0" id="path4104" d="m 346.55621,1399.7997 a 1.3630877,1.775312 59.25499 1 1 -3.03865,1.8366 1.3630877,1.775312 59.25499 1 1 3.03865,-1.8366 z" style="fill:#e6180a;stroke-width:0.21497883"/>
        <path inkscape:connector-curvature="0" id="path4106" d="m 353.05644,1395.4789 a 0.942005,1.0860512 0 1 1 -1.88401,0 0.942005,1.0860512 0 1 1 1.88401,0 z" style="fill:#e6180a;stroke-width:0.22217143"/>
        <path inkscape:connector-curvature="0" id="path4108" d="m 339.68855,1405.8786 a 0.46153541,1.1764926 54.419178 1 1 -1.91634,1.3606 0.46153541,1.1764926 54.419178 1 1 1.91634,-1.3606 z" style="fill:#e6180a;stroke-width:0.23446156"/>
        <rect id="rect4110" transform="matrix(0.73251847,-0.68074716,0.70491741,0.70928939,0,0)" y="1257.7559" x="-773.96155" height="2.9386313" width="6.05406" style="fill:#e6180a;stroke-width:0.2264607"/>
        <rect id="rect4112" transform="matrix(0.77826554,-0.6279353,0.65499597,0.75563237,0,0)" y="1305.4547" x="-699.63922" height="2.8142838" width="8.3053551" style="fill:#e6180a;stroke-width:0.22735232"/>
        <path inkscape:connector-curvature="0" id="path4114" d="m 308.52453,1429.2809 a 0.88076325,1.1954011 48.82762 1 1 -1.84525,1.5143 0.88076325,1.1954011 48.82762 1 1 1.84525,-1.5143 z" style="fill:#e6180a;stroke-width:0.23995899"/>
        <path inkscape:connector-curvature="0" id="path4116" d="m 307.86215,1496.8457 1.70685,-0.6125 2.46596,1.3134 2.22845,2.0794 0.0233,2.2051 -4.76195,2.4777 -2.38679,-1.5835 0.23751,-4.7386" style="fill:#e6180a;stroke-width:0.20300001"/>
        <path inkscape:connector-curvature="0" id="path4118" d="m 326.87035,1425.7471 5.45586,-1.7255 1.25976,1.8652 -1.58576,20.934 3.21577,3.7304 -3.44863,13.2403 -3.91667,1.772 -9.65197,-3.6349 -0.46571,-3.9167 3.68381,-17.9976 4.47553,-12.6814" style="fill:#e6180a;stroke-width:0.20300001"/>
        <path inkscape:connector-curvature="0" id="path4120" d="m 378.21554,1514.7757 15.07523,-3.4533 3.90968,-1.6742 2.8432,-0.2701 0.74281,1.3692 0.0675,6.7692 -1.20154,1.134 -21.28555,1.6742 -2.18188,-0.3888 -0.15136,-2.8945" style="fill:#e6180a;stroke-width:0.20300001"/>
        <path inkscape:connector-curvature="0" id="path4122" d="m 429.3302,1388.4619 c 0.32134,0 2.37282,0.3213 2.65458,0.5635 0.28176,0.2399 1.84889,2.1726 1.84889,2.1726 l -0.48201,3.7001 0.24217,1.5695 2.97592,5.188 1.12704,6.1149 -1.12704,7.8054 -2.09106,4.748 -11.18417,-13.72 3.9027,-1.2458 3.70011,-3.7816 0.84528,-4.1449 -0.36093,-0.4424 -3.86312,-0.4821 -2.25173,-3.3391 1.56713,-3.5395" style="fill:#e6180a;stroke-width:0.20300001"/>
        <path inkscape:connector-curvature="0" id="path4124" d="m 346.72614,1396.9077 c -2.77333,2.1586 -5.81213,6.017 -9.09077,7.2908 -1.30401,0.496 -3.593,-3.1413 -4.79688,-0.1188 -1.93505,-0.5542 -3.39972,0.3144 -3.49287,2.3286 -2.16791,0.01 -4.89933,1.6556 -6.11485,3.5022 -1.21552,1.8535 0.85692,3.9004 -0.64036,5.5956 -3.49287,3.9492 -8.84627,7.0323 -12.90499,10.3947 -1.37619,1.1294 -4.10994,2.5685 -3.73737,4.7224 0.51229,2.9433 5.14849,-0.9314 6.10787,-1.7464 2.77566,-2.2727 5.62817,-4.904 8.67396,-6.7715 0.60543,-0.3703 2.04682,-1.9607 2.76402,-1.8163 0.79405,0.1793 2.40077,4.1844 2.5661,4.9808 0.25847,1.3972 -1.37619,3.572 -1.83725,4.89 -1.56015,4.4709 -3.27864,8.9441 -4.52211,13.5058 -1.30866,4.8038 -1.35756,10.2504 -3.11564,14.9029 -0.90116,2.3519 -2.79662,4.245 -3.919,6.52 -1.87217,3.8003 -3.39507,8.4691 -4.4243,12.5744 -0.978,3.9027 -1.08745,8.5575 -0.78706,12.5743 0.0745,0.7288 0.93143,1.2202 0.91979,1.8629 -0.0163,0.6985 -1.31099,0.8755 -1.51358,1.6439 -0.26313,0.9943 0.50996,1.8489 0.49366,2.7804 -0.0652,3.579 -1.59042,7.7728 0.56585,11.1771 1.61836,2.4055 8.15003,-0.7591 9.08146,-2.6802 0.54023,-1.0129 -0.23286,-2.0235 -0.62173,-2.9084 -1.28538,-2.6615 -3.3648,-4.1425 -5.66544,-5.875 -0.64967,-0.5053 -1.11771,-2.8199 -0.52858,-3.5301 0.52858,-0.6054 1.52289,-0.1397 2.15859,-0.014 1.63001,0.354 3.65587,0.1444 5.35573,0.1072 5.81214,-0.1444 11.0235,-0.8756 16.53292,-2.9527 1.60207,-0.6054 4.47786,-1.3226 5.35574,-2.8688 -4.98084,0.2329 -9.4261,3.6256 -14.67006,2.7943 0.0815,0.014 3.74436,-3.6861 3.74436,-3.6861 1.64863,-2.0771 7.05327,-8.4202 8.26413,-10.7511 0.86157,-1.63 1.69753,-4.4103 3.0714,-5.6817 0.80569,-0.7452 2.94565,-0.4401 4.01447,-0.652 2.56144,-0.5193 5.23465,-1.467 7.34667,-3.0994 2.09572,-1.6207 1.01992,-4.9692 4.29623,-5.7818 1.81396,-0.4495 3.44863,1.1386 3.593,2.8758 0.12108,1.4553 -1.16895,2.9247 -2.42871,3.4952 -1.29003,0.5844 -2.61965,-0.091 -3.95859,0.7125 -3.26001,1.9467 -5.02973,6.3221 -6.08225,9.7637 -0.29806,0.9757 -0.95006,3.1366 -0.20491,4.0471 0.88253,1.0758 5.18575,-0.3213 6.28716,-0.7102 2.8432,-0.9361 6.60851,-2.1446 8.71588,-4.3964 0.72186,-0.7731 0.59612,-1.9467 0.93376,-2.899 0.87322,-2.4707 3.00154,-3.8771 5.44422,-2.5219 1.90711,1.0665 1.55083,3.2228 0.25149,4.6176 -1.7674,1.8838 -4.31253,0.7032 -5.82145,2.8036 -2.20517,3.0737 -3.04579,7.5213 -3.77929,11.1679 -0.17464,0.8708 -0.62173,3.3182 0.21889,3.9585 0.69857,0.5426 1.93039,0 2.65458,-0.2282 2.40076,-0.7032 4.69907,-1.6998 6.84835,-3.0085 2.10737,-1.283 3.67683,-2.8176 5.49312,-4.4476 -2.79429,5.2836 -5.12753,10.8605 -7.61213,16.3001 -0.88253,1.9304 -1.65096,5.4442 -3.21576,6.8903 -1.51358,1.3971 -5.58394,-2.2774 -7.10217,-2.8432 -0.75679,-0.2865 -2.24476,-0.6404 -2.7943,0.2188 -1.39715,2.1889 3.48588,5.2137 4.65716,6.4456 -3.83517,-0.1654 -7.81471,-1.0828 -11.6429,-0.9222 -1.16429,0.049 -3.10633,-0.01 -3.95859,0.8756 -0.93143,0.9337 -0.12574,1.8442 0.93144,2.0771 2.85716,0.631 6.17073,1.1713 9.08146,1.4623 v 0.2329 c -2.4357,0.5798 -4.99481,-0.067 -7.45146,0.3702 -0.84527,0.1514 -2.13763,0.4192 -2.56144,1.2831 -0.55653,1.2341 1.16429,1.9117 2.09573,2.0282 3.09934,0.3912 6.43153,0.2747 9.54717,0.2747 v 0.4658 c -3.09934,0.2445 -6.06362,0.8336 -9.08146,1.5764 -0.93143,0.2259 -3.0714,0.9105 -1.95368,2.2517 0.78939,0.9734 2.4194,0.8709 3.58369,0.829 3.19248,-0.1537 6.36401,-1.3319 9.54718,-1.3971 -1.49728,1.9699 -4.51512,2.4846 -6.28717,4.4243 -2.98291,3.3415 2.37282,2.0072 3.95859,1.1643 -0.87322,2.5684 -2.19353,4.9645 -3.26002,7.4514 -0.36558,0.8499 -1.18757,2.0259 -1.04786,3.0272 0.11643,0.787 0.81501,0.4657 1.15731,0 0.74747,-1.2039 1.22716,-2.6779 1.75342,-3.9586 h 0.23286 l -0.46572,2.3286 c 2.09572,-0.3423 3.55341,-5.5793 4.19144,-7.4515 h 0.23286 c -0.23286,0.8732 -2.23543,4.2217 -1.26675,4.8481 0.56818,0.3889 1.03389,-0.7591 1.19922,-1.1224 0.76611,-1.7697 1.69754,-3.5347 2.39611,-5.3557 h 0.23286 l -1.63001,5.1229 c 2.6802,-0.7964 2.90374,-5.9752 4.65716,-7.9172 l -2.32858,6.2872 c 1.86287,-0.1514 2.72677,-3.4929 3.26002,-5.1229 h 0.23285 l -1.16429,3.9586 c 1.6859,-0.2748 2.37283,-2.7175 2.7943,-4.1915 h 0.23286 l -0.69858,3.0272 c 1.51358,-0.2329 1.90245,-1.963 2.32858,-3.26 h 0.23286 c -0.86856,2.7943 0.93143,1.7161 1.63001,-0.2329 h 0.23286 v 1.3972 c 1.46933,-0.2329 1.86286,-1.7628 2.32858,-3.0272 h 0.23285 l -0.23285,2.0957 c 1.28537,-0.2212 1.59042,-1.3971 1.86286,-2.5614 h 0.23286 l -0.23286,1.63 c 1.49495,-0.1187 1.95368,-1.4903 2.32858,-2.7943 h 0.23286 l -0.23286,2.0957 c 1.13402,-0.2026 1.45769,-1.3436 1.86287,-2.3285 h 0.23285 v 1.3971 c 1.39715,-0.2305 1.79534,-1.5252 2.09573,-2.7943 h 0.23285 c -0.54256,3.104 1.12704,0.5728 2.13997,0.1397 0.93609,-0.3726 2.42172,-0.2445 3.44863,-0.3726 0,9.6823 -0.77775,18.7474 2.28433,28.1759 0.38655,1.1899 1.09444,2.2796 1.39715,3.4928 0.43312,1.7325 -0.6846,4.2264 1.90478,4.4243 -0.16533,3.8771 -0.29573,7.6168 2.23311,10.9444 1.80465,2.3285 6.84369,-0.3959 7.93114,-2.3286 2.00025,-3.5558 -1.82328,-6.7529 -4.57566,-8.6949 -0.98266,-0.68 -3.54875,-2.2238 -2.95031,-3.8305 0.36792,-0.9804 2.10737,-1.7185 2.95031,-2.2425 2.24475,-1.3971 4.34513,-3.0458 6.27552,-4.8574 5.06699,-4.7596 8.55288,-10.7487 11.56606,-16.9311 3.58369,-7.3793 6.14512,-16.2139 6.14512,-24.4501 0,-2.0957 -0.0373,-4.1914 -0.0675,-6.2872 -0.007,-0.461 -0.0256,-1.7999 -0.81966,-1.63 -0.76844,0.1281 -0.50763,1.7372 -0.50763,2.2611 0.0675,2.3961 -0.16301,4.7247 -0.49599,7.0533 -0.80569,5.7353 -1.89081,11.6429 -4.16117,16.9986 -1.53454,3.7257 -3.95859,7.2186 -5.35574,10.9443 h -0.23286 c 3.02716,-9.5332 3.57437,-20.2563 1.58344,-30.0387 -0.54256,-2.6639 -1.45071,-5.4023 -2.98059,-7.6843 -0.34928,-0.5775 -0.73815,-1.63 -1.44604,-1.8628 -0.73583,-0.2865 -2.41008,0.5262 -3.11331,0.8266 -2.34489,1.0362 -4.75497,1.9188 -7.08355,2.8991 2.08641,-1.793 7.25819,-5.251 7.19532,-8.3806 -0.0396,-1.8652 -1.83958,-3.2623 -1.56248,-5.358 0.1793,-1.3972 1.73479,-2.7943 3.21111,-2.6756 0.56818,0.051 1.01992,0.3703 1.46235,0.7033 3.1366,2.3681 -0.22354,4.3102 -0.23053,6.86 -0.007,2.3379 1.33195,5.6002 2.48227,7.6144 0.71254,1.2854 2.39145,4.9133 4.33116,4.1286 1.03854,-0.4238 1.5974,-1.9537 2.04449,-2.8851 1.23648,-2.5661 2.89675,-5.6655 2.41474,-8.6251 -0.32833,-2.0119 -3.68149,-4.4243 -0.25149,-6.0543 1.141,-0.5612 2.30995,0.5286 2.49391,1.63 0.23984,1.4274 -0.96403,2.7943 -1.00828,4.1915 -0.0559,3.5324 3.17619,6.3779 5.6864,8.3223 0.83363,0.6567 5.83076,3.9097 6.46414,1.637 0.28408,-1.0153 -0.74282,-2.5684 -1.16197,-3.4393 -1.44372,-2.9387 -2.97359,-5.7912 -4.14021,-8.8486 -1.49495,-3.9214 -3.20879,-7.6843 -3.94927,-11.8758 -0.68693,-3.8747 -0.23985,-8.15 -1.92807,-11.8362 -1.15497,-2.4985 -3.10865,-4.5523 -5.4023,-6.0519 -1.21087,-0.7894 -2.91539,-1.3203 -3.85846,-2.459 -0.69625,-0.8406 0.0489,-1.9933 0.1141,-2.9387 0.17231,-2.5055 -0.74747,-4.8853 0.39586,-7.3886 0.40983,-0.8941 2.11668,-1.5834 2.88744,-2.1586 1.56713,-1.2574 2.83621,-2.6429 4.89002,-2.9107 3.40904,-0.4447 6.71562,3.8026 6.98574,6.8693 -1.06184,0 -2.03984,0.068 -3.02716,0.5053 -5.94719,2.6383 0.0466,12.5976 5.53969,7.6797 2.14463,-1.9397 0.40983,-3.8748 0.68693,-6.0893 0.11178,-0.9011 0.93842,-1.5438 1.32962,-2.3285 0.72186,-1.4531 1.06184,-3.7258 0.97102,-5.3558 -0.26313,-3.5371 -3.01318,-6.6644 -2.87579,-10.2457 0.16998,-4.408 5.86802,-8.4691 7.78211,-12.3415 2.63595,-5.4233 3.06907,-12.4882 0.85226,-18.1629 -0.66364,-1.6999 -2.17489,-3.0272 -2.78265,-4.6455 -0.326,-0.8104 0.53091,-1.7348 0.58214,-2.5731 0.18396,-2.9666 -1.60439,-5.7819 -4.8644,-5.4978 -3.37411,0.2934 -5.69571,4.408 -3.7886,7.3606 1.22716,1.9374 3.50451,2.4893 5.65146,2.0958 -0.0559,6.541 -7.39324,10.0851 -13.2729,9.2142 -3.37412,-0.4984 -5.97514,-2.3752 -9.54718,-2.2192 -2.60335,0.1141 -4.94125,1.0595 -7.45146,1.6207 -0.82432,0.1467 -2.12832,0.6986 -2.92004,0.2329 -3.16687,-1.7651 -1.78602,-5.5351 -1.50426,-8.1501 1.86286,1.3087 4.05639,2.3286 6.28484,1.0153 3.32055,-1.9467 2.63828,-7.661 -1.16196,-8.5901 -1.78137,-0.4355 -3.87942,0.2747 -4.97152,1.7627 -0.50298,0.6893 -0.53325,1.7907 -1.20388,2.3332 -1.32496,1.0712 -3.49287,1.1993 -4.95522,2.3589 -3.10865,2.4636 -4.13556,7.4072 -3.73504,11.1329 0.163,1.5322 0.65899,3.267 1.35756,4.6572 0.53092,1.0502 1.59974,1.9304 1.11539,3.2204 -0.92444,2.459 -3.06907,4.6362 -4.18678,7.0649 -0.88952,1.8629 -0.74515,4.2194 -1.68823,5.9705 -0.46338,0.8616 -1.5322,1.2574 -2.1516,2.0096 -1.01526,1.2365 -0.81501,2.8571 -0.54256,4.3218 -3.26001,-0.7661 -7.3653,1.5672 -6.52003,5.1229 -1.40879,-0.9757 -3.21344,-2.3286 -4.89002,-2.764 -7.13011,-1.6603 -14.69334,4.224 -21.21103,6.2615 -1.54385,0.4844 -3.48589,0.985 -5.10192,0.9245 -1.16429,-0.056 -2.85717,-0.659 -3.89339,0.01 -1.77205,1.1573 0.86624,2.7477 1.33195,3.6186 0.52626,0.957 -1.0269,0.6054 -1.39715,0.4308 -1.39714,-0.6544 -5.12287,-2.2937 -5.82145,-3.6629 -0.50763,-1.0548 0,-3.3788 -0.005,-4.5826 -0.0955,-4.7713 1.11306,-9.482 1.16894,-14.209 0,-1.4484 0.32368,-2.9946 0.20958,-4.4243 -0.0675,-0.85 -0.57516,-1.6906 -0.16533,-2.5219 0.59146,-1.2015 1.77205,-2.1353 2.43336,-3.3392 0.91513,-1.6533 1.22018,-3.5417 2.57076,-4.9389 1.47399,-1.5415 4.34745,-2.9293 5.35806,-4.8621 0.45407,-0.8662 -0.3912,-1.6696 -0.0233,-2.452 0.3097,-0.7195 1.79999,-1.3575 2.42638,-1.7953 2.09572,-1.4484 4.05173,-3.0248 6.04965,-4.5989 0.68926,-0.5449 1.73247,-2.1889 2.6802,-1.2528 1.83958,1.8163 0.67994,8.5622 -1.81396,9.4633 -1.32962,0.4657 -2.64294,-1.4414 -4.35445,-0.6985 -1.23182,0.4796 -1.86286,1.758 -1.86286,3.0271 -0.0745,4.5105 7.33502,3.7607 6.0543,-0.6986 5.52107,-1.5089 4.37541,-8.6087 5.6375,-12.8072 0.48434,-1.6113 2.25173,-2.7547 2.51254,-4.1914 0.99896,-0.2957 1.91642,-1.6952 2.85018,-0.4122 0.87554,1.2435 -0.12109,5.3022 -0.0559,6.9322 0.19094,4.0215 1.39715,7.6843 -0.13971,11.6429 -0.34929,0.8849 -0.66598,2.3286 -1.53919,2.8199 -0.61941,0.659 -2.58473,0.2795 -3.8212,0.8546 -2.30763,1.6393 -1.77904,6.8856 2.81059,5.2626 2.47528,-0.8732 1.14101,-2.5475 2.32392,-4.1006 1.23182,-1.6207 3.20413,-2.6197 4.32418,-4.3684 2.54746,-3.947 1.23414,-8.6111 0.46571,-12.8072 -0.23285,-1.2295 -0.77774,-6.0054 1.38784,-6.0054 0.81966,0 1.16894,1.2085 1.39482,1.8139 0.76843,2.0958 1.53453,4.1309 2.00956,6.2872 1.02923,4.7387 1.60206,11.3309 -1.38085,15.6015 -0.98499,1.3971 -3.09934,0.7218 -3.87708,2.5661 -0.78008,2.0165 0.15368,4.2729 2.32858,4.7619 2.32858,0.5309 4.0494,-1.3878 3.94927,-3.6 -0.0373,-0.8196 -0.69625,-1.8069 -0.28642,-2.5614 0.64968,-1.2178 1.8978,-1.9979 2.53583,-3.26 2.06545,-4.0913 2.37748,-9.8988 0.85692,-14.2043 -1.23415,-3.3974 -6.83206,-7.4515 -5.68174,-11.1772 0.95239,-3.0877 4.57799,-2.5405 7.0067,-3.8189 5.5001,-2.8944 6.79014,-6.8763 4.897,-12.2087 -0.13273,-0.9315 1.01293,-1.8396 0.45175,-2.799 -0.50298,-0.8592 -1.62302,-0.7335 -2.14463,0 -1.0432,1.481 0.86391,2.5265 -1.02923,3.9679 -1.1736,0.9105 -2.70581,0.5728 -4.03543,1.0502 -0.61707,0.2235 -1.05484,0.9081 -1.69055,1.0269 -0.99663,0.2072 -1.89779,-0.5705 -2.84319,0.2072 -1.52755,1.1667 -1.05485,4.5757 -3.84915,4.8901 -4.32184,0.3888 -3.98653,-2.9364 -6.16375,-5.5886 -1.6952,-2.0655 -4.31486,-3.302 -6.8763,-3.9051 -3.80722,-0.8941 -8.10345,0.1374 -10.48559,3.4766 -1.39016,1.9351 -2.02354,6.6621 -5.11589,6.5573 -1.20621,-0.042 -4.26829,-0.9943 -4.74099,-2.2215 -0.61475,-1.5042 0.39819,-2.9782 -1.33661,-4.1402 -1.63932,-1.0688 -4.08898,-0.34 -4.54306,1.6323 -0.4238,1.8582 0.37491,3.9144 2.47063,4.1403 0.84527,0.093 1.73479,-0.4192 2.52185,-0.03 2.09339,1.113 3.69313,3.0271 6.32675,2.5312 3.43,-0.6474 4.4243,-5.2463 6.98574,-7.2745 3.15756,-2.487 8.98134,-0.3679 12.10862,1.1945 1.12703,0.6008 2.94798,1.5322 3.18317,2.9294 0.2608,1.5345 -2.95031,0.5332 -3.64889,0.4657 -3.8701,-0.5519 -8.38289,0.631 -10.42272,4.1961 -1.47632,2.5777 -0.37723,5.3604 -4.01447,6.4455 -0.99896,0.3027 -2.50556,0.7684 -3.37412,-0.061 -1.1247,-1.0339 -0.64967,-2.8619 -2.45199,-3.4417 -1.93039,-0.617 -4.08433,0.2492 -4.36842,2.4101 -0.0605,0.4681 0,0.9501 0.14437,1.3972 1.19922,3.7886 4.18912,0.9873 6.55496,1.29 2.28899,0.2934 4.42197,0.9663 6.51071,-0.6893 2.62664,-2.0817 2.10503,-5.2579 5.83076,-6.5759 1.54385,-0.5402 6.3547,-1.8442 7.06724,0.3889 0.51229,1.6253 -1.74178,2.6546 -2.74074,3.4253 -2.31926,1.7907 -4.5873,3.6932 -6.88794,5.563 -0.72186,0.6311 -4.22637,3.3439 -5.19972,4.089 z m 27.56108,-15.4152 c 2.30064,-0.2329 5.06,-2.9503 5.68872,-5.1229 0.2771,-0.9314 -0.22122,-2.3286 0.33764,-3.1808 0.63105,-0.9454 3.4137,-2.2587 4.16583,-0.992 2.46131,4.1728 -2.76635,9.3353 -6.46879,9.7917 -1.16196,0.142 -3.25769,1.0944 -3.7234,-0.496 z m -41.44873,-8.2897 c 2.83389,-0.3703 3.58136,4.3404 0.69858,4.7456 -3.07839,0.4331 -3.72573,-4.3544 -0.69858,-4.7456 z m 39.81872,3.8654 c -0.0792,0.7102 0.23286,2.126 1.26908,1.297 0.42613,-0.3446 -1.66494,-2.4613 -0.43079,-3.7164 0.70323,-0.6986 1.81629,-0.063 2.65458,-0.1816 0.80336,-0.1141 1.63001,-1.0665 2.48693,-0.7359 1.07347,0.4192 0.47736,2.6523 0.0745,3.3579 -1.04786,1.8721 -3.66053,4.536 -6.05431,4.1052 -2.62198,-0.4773 -1.64165,-3.1412 0,-4.1262 z m 3.26001,-1.3972 0.93144,1.6301 c 1.52289,-0.9315 0.69857,-2.4031 -0.93144,-1.6301 z m -2.09572,2.48 c -0.0838,0.084 -0.44708,0.2794 -0.59844,0.2212 -0.15136,-0.058 -0.36093,-1.6952 -0.36093,-1.6952 0,0 1.0432,1.3902 0.95937,1.474 z m -6.52002,0.9547 c 2.72444,-0.6404 5.09493,4.9669 4.25199,7.044 -0.71954,1.7534 -1.87917,0.3446 -3.0877,0.6403 -0.69858,0.1723 -0.93143,0.999 -1.64398,1.1364 -0.45174,0.088 -0.9617,-0.1304 -0.97567,-0.6101 -0.0279,-0.9827 1.52056,-1.2854 1.11306,-2.3216 -0.43079,-1.0921 -3.15057,-0.333 -2.91771,-1.637 0.27477,-1.5415 2.2168,0 2.77334,-0.9966 0.5379,-0.9245 -1.31565,-2.8223 0.48667,-3.2554 z m -29.34011,7.356 c 2.99455,-0.5449 4.23336,3.7653 0.93143,4.2916 -2.86182,0.4587 -3.89571,-3.7351 -0.93143,-4.2916 z m 91.74606,113.3227 c -4.42431,-0.8546 -9.35391,-4.5128 -10.52752,-9.0815 -0.65898,-2.5614 2.93867,-5.9076 -1.11539,-7.5609 -1.97696,-0.8197 -3.59299,1.977 -3.59067,3.6023 0.002,1.7022 1.41578,2.4567 1.82561,3.9586 0.64735,2.3565 -1.49495,5.903 -2.52185,7.9172 -0.37025,0.6986 -0.84993,1.9932 -1.76739,2.1143 -1.39948,0.2143 -3.0714,-3.6256 -3.52315,-4.6758 -0.69624,-1.6207 -1.93272,-4.0191 -1.7604,-5.8214 0.10013,-1.0409 0.93609,-1.8093 1.20853,-2.7943 0.66365,-2.4241 -0.22587,-4.89 -2.67787,-5.7865 -1.72082,-0.6311 -3.95858,0.9058 -4.4732,2.5288 -0.88253,2.5917 1.49495,4.3219 1.16895,6.52 -0.48435,3.26 -5.82378,6.3966 -8.10579,8.3829 h -0.23286 c -2.0375,-1.8186 -1.86286,-4.4243 -2.19352,-6.9857 -0.13506,-0.9315 -0.44709,-2.5079 0.0978,-3.3555 1.33661,-2.0003 4.19145,-2.3053 3.61629,-5.4931 -0.61475,-3.3835 -4.78058,-3.8259 -6.78316,-1.3879 -1.95368,2.3705 0.12109,4.8039 -0.95472,7.2093 -1.74177,3.8934 -5.88897,6.8484 -8.91613,9.5472 0,0 -1.18059,-0.01 -1.41112,-0.2422 -0.23053,-0.2328 -0.74281,-0.822 -0.95472,-1.4274 -0.57981,-1.6579 -0.79637,-4.0447 -0.59378,-5.7819 0.16533,-1.7115 -0.40518,-4.4243 0.30737,-5.9891 0.61242,-1.3249 3.3485,-1.6882 4.39636,-2.7919 2.36584,-2.4893 -0.59146,-6.5294 -3.60697,-6.0706 -2.27735,0.3469 -4.0983,2.8129 -3.91435,5.0739 0.0862,1.0619 0.92911,2.3729 0.32135,3.3742 -2.57075,4.2356 -9.27939,6.7063 -13.87135,7.5702 0,-4.1915 1.33427,-11.3565 4.54539,-14.3627 1.70684,-1.5997 4.34978,-0.2236 5.93322,-2.8688 1.69288,-2.7943 -0.39819,-6.0404 -3.49054,-6.2336 -2.16791,-0.1351 -3.88408,2.0421 -4.42431,3.905 -0.17697,0.6986 0,1.63 -0.39353,2.1819 -1.77903,2.296 -5.66077,3.274 -8.22221,4.2403 -0.97801,0.3633 -4.80154,1.6719 -5.5886,0.6567 -0.76377,-1.0106 0.67529,-3.5395 1.05718,-4.5151 1.03855,-2.6849 2.47994,-5.9589 5.22999,-7.377 2.04217,-1.0525 4.09132,0.2166 5.65147,-2.1702 2.03285,-3.1599 -0.57516,-7.8543 -4.48718,-6.5061 -3.02715,1.0386 -2.32858,3.8748 -4.05871,5.6981 -2.8106,2.941 -7.98703,3.3694 -11.77563,3.3694 0.43777,-3.4928 4.03077,-8.9604 7.02532,-10.8023 0.96869,-0.5961 1.96998,-0.023 2.98757,-0.2514 2.09572,-0.4821 3.94694,-3.0784 3.39507,-5.237 -0.52626,-2.0562 -3.47424,-2.8036 -5.25793,-2.1027 -0.70789,0.2864 -1.32264,1.0991 -2.09573,1.1806 -0.79404,0.086 -1.39714,-0.8779 -1.88382,-1.3483 -1.31332,-1.2225 -3.41369,-2.3682 -3.70477,-4.259 3.37877,0 6.52003,0 9.74977,-1.1643 5.22999,-1.921 10.45066,-5.542 16.09747,-6.2429 3.82819,-0.475 5.97281,2.9829 9.54718,2.9829 -0.0163,-0.7917 -0.32134,-1.7953 -0.0512,-2.5521 0.94308,-2.6313 4.89933,-1.3343 6.19868,-3.0365 0.64502,-0.8988 0.18629,-2.0724 0.57283,-3.0271 0.49832,-1.2598 1.89547,-1.6812 2.49391,-2.7943 0.87322,-1.6882 0.7987,-3.8398 1.57878,-5.5886 1.19223,-2.7058 3.64423,-5.3557 4.4569,-8.15 0.53325,-1.8629 -1.42043,-4.0471 -1.97696,-5.8215 -1.16429,-3.6465 -0.85459,-7.3606 1.08977,-10.7115 1.70452,-2.9852 4.11926,-2.7663 6.58988,-4.3637 1.93273,-1.2248 3.09236,-5.0623 6.2895,-3.4463 2.46364,1.2435 2.51487,5.3231 0,6.5736 -2.1749,1.0804 -3.49287,-0.999 -5.35574,-0.6241 -3.34151,0.5961 -1.39714,7.2489 -0.0838,8.7764 0.978,1.1457 2.23543,1.0223 3.57669,0.7708 2.83854,-0.6217 5.45587,-1.5788 8.38289,-1.8233 2.7943,-0.2328 4.89002,1.5904 7.45146,2.1772 5.39532,1.3134 14.13448,-1.0525 15.60149,-7.1091 0.23285,-0.9873 0.69857,-2.5615 -0.10246,-3.3928 -0.72652,-0.7381 -1.78137,-0.4633 -2.69184,-0.6473 -1.87218,-0.3749 -3.2833,-2.2098 -2.95031,-4.1123 0.57283,-3.26 4.95056,-4.3265 6.81808,-1.63 1.33195,1.9234 -0.4075,3.6675 0.0536,5.5886 0.23053,0.9338 1.27606,1.7022 1.74643,2.5614 1.08512,1.9887 1.7511,4.0541 2.1423,6.2872 1.03389,5.889 -0.5053,11.6429 -3.87243,16.5329 -1.88615,2.7384 -5.19041,5.1299 -5.73064,8.6158 -0.61474,3.9749 2.3053,7.335 2.68486,11.1772 0.15135,1.5368 -0.10712,3.6861 -0.72652,5.1228 -0.33997,0.7708 -1.13402,1.2249 -1.27373,2.1004 -0.37025,2.3239 1.28537,4.5501 -1.25278,6.3757 -2.58938,1.8628 -6.64344,-1.0246 -5.92624,-4.0518 0.26779,-1.1153 1.11306,-2.3774 2.23078,-2.7407 0.88253,-0.2864 2.22845,-0.1537 2.78731,-1.0502 0.64269,-1.0292 -0.16998,-2.7291 -0.71953,-3.6605 -1.64398,-2.6942 -4.1146,-4.6968 -7.42351,-4.245 -1.47399,0.2002 -2.59637,1.3389 -3.72573,2.2051 -1.16429,0.8803 -2.91538,1.7116 -3.81654,2.8316 -1.71849,2.1307 -0.85459,5.4978 -0.84528,7.8264 0.005,1.0967 -0.8476,2.4403 -0.52858,3.4928 0.46804,1.5229 3.23905,2.4753 4.49416,3.26 2.38912,1.4438 4.27061,3.5395 5.50243,6.0544 2.24009,4.5803 1.43906,10.8767 2.8595,15.8343 1.25277,4.3731 3.19015,8.7135 5.14383,12.8072 1.01992,2.0887 2.38912,4.0703 3.02483,6.2802 z M 351.93285,1394.472 c 1.16429,-0.3446 1.52988,1.6999 0.43312,1.9816 -1.24114,0.319 -1.61604,-1.63 -0.43312,-1.9816 z m -7.68431,4.7177 -0.23286,0.2329 z m 0.93143,0.347 c 2.23776,-0.4215 1.82095,2.3006 -0.23286,2.6103 -2.25174,0.3423 -1.40879,-2.3006 0.23286,-2.6103 z m -10.87447,4.9412 c 2.00723,-0.7125 2.77101,5.4233 1.2877,5.6748 -1.28537,0.2212 -2.75471,-5.1415 -1.2877,-5.6748 z m -1.23415,7.9847 c -1.86286,-0.312 -3.17618,-4.8248 -2.38912,-6.4548 0.91979,-1.9001 2.08873,1.0106 2.15626,1.7977 0.0815,0.6217 0.1956,1.2364 0.22355,1.8628 0.009,0.9314 0.009,1.8652 0.009,2.7943 z m 10.24575,-6.9857 c -0.63104,2.0957 -3.26001,2.9619 -4.59196,4.4662 -1.56015,1.7231 -2.00025,4.5128 -3.55807,6.4106 -0.84061,1.0874 -2.90839,1.609 -3.5115,2.5195 -0.44708,0.652 0.95007,0.9454 1.27607,1.2737 0.71254,0.6986 0.37257,2.2541 -0.22588,2.8945 -0.85924,0.8755 -4.52443,2.4613 -5.61886,1.6183 -0.92677,-0.7149 -1.17826,-2.3169 -1.57412,-3.3485 -0.26779,-0.6939 -0.82432,-1.5136 -0.70789,-2.289 0.10013,-0.7964 1.86054,-2.6732 2.67787,-2.6941 0.69392,-0.016 1.11772,0.6054 1.85122,0.3446 1.22949,-0.4378 0.94308,-1.8582 1.69521,-2.6709 1.18524,-1.2947 2.59636,-0.1909 2.97359,-2.7058 4.0657,0.4867 5.04371,-5.3534 9.31432,-5.8191 z m 6.75289,0.333 c 3.26001,-0.9431 5.02507,3.4369 1.85355,4.401 -2.84786,0.8662 -4.70839,-3.5697 -1.85355,-4.401 z m -10.47861,0.1327 c -0.17232,0.9617 -0.71488,1.0804 -1.63001,1.1643 0.16999,-1.0153 0.65899,-1.1317 1.63001,-1.1643 z m -11.78728,1.8046 c 0.74282,-0.2142 1.13169,0.6777 1.29935,1.2225 0.33997,1.1061 1.70219,5.6166 0.19094,6.2267 -0.74514,0.3004 -1.2551,-0.5449 -1.4833,-1.1038 -0.4401,-1.0804 -1.75109,-5.8214 -0.007,-6.3454 z m -1.48563,8.4411 c -1.63001,-0.5355 -3.09236,-4.1914 -2.09572,-5.7562 0.93143,-1.4624 1.86286,0.4517 2.02586,1.3319 0.0699,0.6171 0.0699,1.2435 0.16766,1.8629 0.11876,0.9314 0.0675,1.6719 -0.0978,2.5614 z m 91.28034,3.7258 c 0,0 -1.44838,-0.9594 -3.12961,-1.4112 -1.29702,-0.3492 -2.75704,-0.2188 -3.62327,-0.2188 0.17231,-1.3553 0.978,-3.0761 0.46571,-4.4243 -1.64863,-4.7201 -10.10371,-1.63 -12.80719,-0.049 -6.54797,3.8584 -10.94665,12.055 -9.87551,19.6113 0.14903,1.0432 -0.13738,1.9862 0.26546,3.0271 1.81397,4.6572 8.15469,4.2008 12.17149,3.7653 8.92079,-0.9733 19.24106,-10.942 16.53292,-20.3005 z m -56.81736,-7.5726 c 3.43466,-0.8639 3.56972,4.1356 0.89185,4.7131 -3.45328,0.7637 -4.25432,-3.8678 -0.89185,-4.7131 z m 40.5173,10.134 -2.56144,2.5614 c 2.42405,-0.4168 5.55366,-1.8558 6.62015,-4.1914 1.06416,-2.4101 -1.14799,-6.52 -3.82585,-6.7529 0.61008,2.1959 5.04137,6.2872 0.93143,7.6843 0,-2.8804 -0.46572,-5.9704 -3.95859,-6.0543 1.01992,-3.3904 9.77771,-4.6059 11.9363,-1.7837 1.09444,1.4298 -1.0758,3.5418 0.27478,4.6618 1.9397,1.6091 5.71666,-0.4191 6.75055,3.1762 0.89417,3.111 -1.32031,6.5201 -3.06441,8.8486 -4.51978,6.0893 -15.25686,12.4253 -22.88296,7.6844 -1.90012,-1.2226 -2.32858,-3.7258 -2.32858,-5.8215 -0.007,-4.5174 1.14799,-7.6168 3.5604,-11.41 0.78939,-1.2412 2.02819,-4.0704 3.64423,-4.3848 0.71254,-0.1467 1.03855,1.3553 1.25045,1.821 0.76843,1.8046 1.67657,3.3741 3.65354,3.9609 z m -77.26229,-6.9857 c 0.82432,-0.1514 1.34825,0.985 1.12005,1.6393 -0.31203,1.0688 -2.289,3.1622 -3.45329,3.2507 -0.73816,0 -1.66959,-1.0479 -1.30167,-1.7441 0.37024,-0.7545 2.84086,-3.0365 3.63491,-3.1459 z m 46.99075,0.1397 c 3.07605,-1.1992 4.71304,3.437 2.07476,4.5407 -3.15522,1.3226 -4.94357,-3.4137 -2.07476,-4.5407 z m 30.57658,6.1428 c -0.163,0.1211 -0.31901,-0.012 -0.59611,-0.1025 -0.27711,-0.091 -0.91747,-0.7638 -1.26442,-1.1596 -0.34696,-0.3959 -1.08978,-1.474 -1.08978,-1.474 0,0 0.7009,0.2329 1.38085,-0.3819 0.67994,-0.6147 0.70789,-1.325 0.70789,-1.325 0,0 0.35161,0.4029 0.75679,1.6138 0.21655,0.652 0.45873,1.9071 0.40983,2.1842 -0.0489,0.2771 -0.14205,0.5239 -0.30505,0.645 z m -3.19248,-5.1904 c 0.49133,-0.4914 0.7661,-0.2934 1.02923,-0.2003 0.26313,0.093 0.8965,0.4634 0.8965,0.4634 0,0 -0.55885,-0.079 -1.20387,0.503 -0.64502,0.5821 -0.67762,1.0874 -0.67762,1.0874 0,0 -0.28641,-0.6171 -0.326,-0.9384 -0.0559,-0.4424 -0.2119,-0.4215 0.28176,-0.9151 z m -86.06432,11.0165 c -2.65691,-1.6906 2.22845,-5.4745 4.19144,-5.9426 2.52651,-0.5774 0.74282,2.2169 0,2.8153 -0.53091,0.4448 -1.0758,0.8755 -1.63,1.29 -0.84062,0.6287 -1.72781,1.1969 -2.56144,1.8373 z m 95.70464,-3.7257 3.49287,1.8721 2.7943,2.0864 c -0.17465,-3.2018 -3.40904,-4.8085 -6.28717,-3.9585 z m -16.53292,4.1914 2.7943,-3.7257 c -1.94204,0.1304 -3.267,1.786 -2.7943,3.7257 z m -61.24165,-3.1832 c 3.63724,-0.6054 2.30296,5.0554 2.05613,7.3746 -0.42613,3.6606 -0.65899,7.2699 -0.9128,10.9444 -0.0862,1.269 -0.67762,2.7151 -0.56119,3.9586 0.16533,2.0957 1.86519,1.9443 2.53582,3.3322 0.60543,1.262 0.0443,3.5091 -0.19094,4.8178 -0.3912,2.1679 -1.61138,8.1034 -4.1146,8.7741 -1.0758,0.3073 -2.22612,-0.2352 -3.23906,-0.524 -2.56609,-0.7311 -6.75288,-1.2364 -7.14408,-4.5244 -0.24217,-1.9444 0.54722,-4.3474 0.82665,-6.2872 0.93143,-6.4734 2.88511,-12.8071 4.65483,-19.0943 0.96636,-3.4673 1.88615,-8.0732 6.08924,-8.7718 z m 75.91171,1.5532 h -1.16429 c 0.22121,3.0574 4.29623,4.9575 6.98574,5.3557 -0.005,-1.5159 -0.0675,-4.1425 -1.22949,-5.2579 -1.12937,-1.0898 -4.21939,-2.3752 -4.59196,-0.098 z m -3.26002,7.4514 -1.63,2.5615 c 4.14953,-0.6474 2.56144,-4.4103 1.39715,-6.9858 -1.16429,1.1108 -0.10479,2.0073 0.23285,3.2601 -2.26338,-0.3423 -4.5547,-2.7897 -6.0543,-4.4243 -0.52393,-0.6078 -1.16429,-2.1796 -2.09573,-2.1796 -2.62663,0 -2.15393,5.2859 -1.04786,6.5526 1.94204,2.2238 6.63646,1.6906 9.19789,1.2155 z m -3.49287,-7.6843 c -0.23285,1.5509 1.39715,2.4101 2.7943,2.5615 -0.11643,-1.5159 -1.48331,-2.0957 -2.7943,-2.5615 z m -4.65716,0.9315 5.35574,6.0543 c -2.9573,0 -7.87759,-2.3286 -5.35574,-6.0543 z m 11.85015,-0.5333 c 0.20491,-0.3702 0.66597,-0.8103 1.31797,-0.8779 0.65201,0 1.15498,0.4727 1.15498,0.4727 0,0 -0.77542,0.2026 -1.32962,0.8197 -0.5542,0.6171 -0.68926,1.7488 -0.68926,1.7488 -0.652,-0.1351 -0.7661,-1.5089 -0.45407,-2.1633 z m 2.58239,1.8163 c 0.63803,-0.6217 0.62639,-1.5834 0.62639,-1.5834 0,0 0.71953,0.5262 1.06416,1.4879 0.35162,0.9804 0.65899,2.1237 0.31436,2.4683 -0.34463,0.3447 -1.53686,-0.2142 -2.27968,-0.5565 -0.60776,-0.2794 -1.34359,-1.0269 -1.34359,-1.0269 0,0 1.01759,-0.2049 1.61836,-0.7894 z m -101.52143,0.7242 c 1.5322,-0.082 1.0106,1.7185 -0.23286,1.8186 -1.30633,0.1397 -0.95937,-1.7301 0.23286,-1.8186 z m 82.60405,15.697 c -0.54955,0.5192 0.39819,1.1992 0.75912,1.4181 0.99197,0.5565 3.26001,1.602 4.27061,0.4983 0.93842,-1.0316 -4.31486,-2.5917 -5.02973,-1.9164 z m -10.41807,1.3901 c 1.39715,6.0078 8.36426,9.1607 13.73862,10.4227 2.09573,0.5217 5.66777,0.8966 7.2186,-0.8755 -4.75729,-1.2318 -9.10707,-1.1643 -13.50576,-3.8678 -2.33091,-1.4134 -4.77592,-5.4465 -7.45146,-5.6794 z m -38.20036,10.46 c -3.37644,13.3684 -9.11406,24.3267 -17.34559,31.3543 -2.73375,2.3356 -5.61188,3.3602 -9.18858,3.3602 -0.73816,0 -2.79429,0.3539 -3.10632,-0.5379 -0.40517,-1.0619 7.49104,-7.5633 9.95468,-10.1736 5.31615,-5.7469 9.13735,-12.3159 11.78029,-19.5601 1.39714,-3.7699 2.78265,-7.5678 2.79429,-11.6429 0.91746,0 5.47449,2.5312 5.11123,7.2 z m 0.24451,3.7444 1.16429,-6.9858 -2.32858,-3.7257 c 1.39481,0.3796 2.51952,1.9304 3.95858,2.0957 2.32858,0.2468 4.65716,-2.5451 7.08587,-0.058 0.68693,0.7125 0.4238,1.8419 0.002,2.6197 -1.84191,3.3904 -4.2939,1.0012 -6.62248,2.6056 -1.31565,0.9082 -1.77205,2.9829 -3.26001,3.4487 z m -28.8744,24.6829 c -1.29935,-0.4121 2.69417,-12.9725 3.48822,-15.0962 0.62173,-1.6672 1.63466,-4.5314 2.94332,-5.7772 0.70323,-0.6776 2.33324,-0.4541 2.50788,0.6287 0.2445,1.5113 -1.55083,3.4999 -2.08408,4.8761 -1.69055,4.3544 -2.96428,8.5296 -4.08898,13.04 -0.32368,1.2784 -1.46701,2.7408 -2.76636,2.3286 z m 63.33738,-7.838 c 2.39844,-0.4704 4.62922,1.3622 3.49287,3.8794 -0.61707,1.3972 -3.17152,2.8153 -4.65716,3.104 -1.27606,0.2515 -1.5322,-1.7068 -1.65795,-2.6383 -0.27244,-1.9536 0.72652,-3.9353 2.82224,-4.3451 z m 2.56144,35.3153 c -0.46572,-1.63 1.78136,-4.9762 2.51021,-6.5201 2.51486,-5.3301 5.40696,-10.758 7.43515,-16.3 0.68228,-1.8629 -1.32961,-3.94 -0.67994,-6.0543 0.56352,-1.9281 2.99455,-3.26 4.87139,-2.2611 1.92341,1.0525 1.55316,3.423 0.25149,4.8202 -0.92445,0.9663 -2.41474,1.276 -3.21112,2.3728 -1.39947,1.9211 -2.21448,4.5547 -3.20412,6.7086 -2.62431,5.7074 -4.94591,11.7431 -7.97306,17.2339 z m -3.95859,-26.5459 -3.18782,7.9172 -7.05793,15.8344 h -0.23286 c 0.3097,-3.4929 7.63775,-20.2354 10.47861,-23.7516 z m 0,3.0272 c 0,0 -5.67475,18.4121 -8.8486,20.4915 l 5.72365,-13.2729 z m 15.60149,1.3971 -2.46364,6.2872 -7.08354,15.3686 h -0.23286 c 0.81501,-4.5803 4.04475,-9.5076 5.98213,-13.7386 1.15497,-2.5218 2.01887,-5.7679 3.79791,-7.9172 z m -3.95859,1.6301 -9.54717,20.9572 h -0.23286 c -0.23286,-1.7162 1.39249,-4.0518 2.15393,-5.5886 1.74877,-3.4929 3.28796,-7.1651 5.00412,-10.7115 0.75912,-1.5718 1.26675,-3.4929 2.62198,-4.6571 z m 4.19145,1.8628 c -0.46572,4.266 -3.87709,9.3749 -5.66078,13.2729 -0.63337,1.3972 -1.18292,3.5697 -2.48925,4.4243 l 5.1741,-11.6429 z m -15.83435,0.4657 -4.09364,9.5472 -2.8921,6.0543 c -0.23286,-1.7883 1.32264,-4.2427 2.09572,-5.8214 1.63001,-3.1459 3.02716,-6.5107 4.42431,-9.7801 z m 16.06721,1.3972 c 0.37024,2.0305 -0.62406,3.5464 -1.42975,5.3557 -1.42044,3.1878 -3.78162,6.8158 -4.3917,10.2458 2.01887,0 2.56143,-1.3157 3.32288,-3.0272 1.26442,-2.8874 3.40671,-5.9425 3.89571,-9.0814 h -0.23285 l -5.35574,11.6429 h -0.23286 c 0.56818,-3.8422 3.40206,-8.7602 5.35574,-12.1087 0,0 1.44372,1.1643 1.86286,1.1643 0.41915,0 1.93272,-0.4051 5.02275,-1.6835 0.41216,-0.1351 7.97771,-2.5079 7.02765,-1.0386 -0.29107,0.4587 -1.5322,0.1071 -2.03983,0.3935 0,0 -5.9635,1.0037 -5.53737,3.0295 0.64735,3.1157 3.37645,5.8541 4.14022,9.0792 2.01189,8.15 -0.1141,16.5538 -2.02121,24.4501 -0.87322,3.6209 -2.33556,7.6843 -4.10528,10.9443 -0.97801,1.8093 -2.9899,3.8584 -3.48123,5.8214 -0.1956,0.7778 -0.63803,2.5056 -0.44476,3.26 0.22587,0.9687 1.13402,1.9165 0.95705,2.9876 -0.32601,1.9933 -2.01888,2.7128 -1.49495,5.1625 0.11177,0.5588 0.326,1.1037 0.54488,1.63 1.42975,3.4928 3.25769,0.3143 5.85406,-0.5635 0.57748,-0.1956 1.45303,-0.5915 2.0212,-0.198 1.62535,1.1317 -0.9291,4.0215 -2.03052,4.4895 -0.95705,0.4192 -2.82922,1.2435 -3.86078,0.7871 -1.963,-0.8662 -2.93402,-5.1741 -3.0714,-7.0766 -0.0815,-1.127 0.47969,-2.3868 0.0489,-3.4812 -0.326,-0.7987 -1.25744,-1.0874 -1.54851,-1.8745 -0.4075,-0.9757 0.17465,-2.0282 -0.0885,-3.0271 -0.54955,-2.0702 -1.72315,-3.9586 -2.31228,-6.0544 -1.17594,-4.1472 -1.51591,-8.5342 -1.92341,-12.8071 -0.27244,-2.7711 0.0233,-5.8215 0.19327,-8.6158 0.10013,-1.148 0.54489,-2.5614 0.0931,-3.7118 -0.68926,-1.7091 -4.05172,-0.9454 -5.21601,-0.2468 h -0.23286 c -0.98034,-0.3935 -1.55084,-0.077 -1.86287,0.9315 h -0.23285 c -0.69858,-1.2738 -2.20517,-0.9082 -3.26002,-0.2329 h -1.63 -0.23286 c -1.16429,-0.3842 -3.26001,0.6986 -3.95859,1.63 -0.93143,-0.3213 -1.41345,-0.2212 -2.09572,0.4657 l -5.58859,0.9314 c 0.98499,-1.7301 4.04707,-1.779 5.82145,-2.0957 1.72082,-0.3493 5.66543,-1.2714 6.75288,-2.6615 1.16429,-1.4181 1.26675,-4.7666 0.93143,-6.4199 l 0.69858,-0.6986 c 1.55316,0.2398 4.94357,-0.5123 6.05431,-1.63 l 1.39714,0.4657 0.46572,-0.9314 h 0.23286 l 0.93143,0.4657 c 0,-2.3286 1.53919,-4.6479 2.52185,-6.7529 1.43674,-3.0714 2.66623,-6.1591 3.76532,-9.3143 z m -8.15003,0.2328 -2.59171,6.0543 -5.32547,11.6429 h -0.23286 l 5.02508,-11.41 z m -74.44005,0.8407 c 1.77205,-0.8337 5.97746,2.0957 5.65146,4.0494 -0.25149,1.5042 -1.48098,0.7661 -2.34488,1.3342 -0.47503,0.3121 -0.67063,0.9315 -1.1736,1.2272 -3.03414,1.6649 -4.36143,-5.563 -2.13298,-6.6108 z m 66.75573,0.091 c -0.17231,3.3066 -2.88977,7.2628 -4.29623,10.2457 -0.51927,1.1038 -0.91979,2.6127 -1.99094,3.26 1.16429,-4.1309 3.70012,-10.085 6.28717,-13.5057 z m 18.39578,54.4887 c 0.53558,-2.9503 3.49287,-5.712 4.63621,-8.6157 2.89209,-7.4515 5.26957,-15.5037 5.82145,-23.5187 0.24916,-3.6046 0.13971,-7.5446 -1.18991,-10.9443 -0.89417,-2.2843 -3.3159,-5.2998 -3.53478,-7.6796 -0.15602,-1.6813 4.18678,-2.5522 5.44422,-2.4427 1.57412,0.1374 1.92341,2.1446 2.30296,3.3694 1.12005,3.6047 1.79301,7.2186 2.18654,10.9444 0.95006,9.0814 -4.69675,25.8542 -5.33478,27.4772 -0.63803,1.623 -5.37902,9.1047 -10.33191,11.41 z m 13.27291,-53.3244 c 4.50813,6.3384 4.62922,17.7787 3.39274,25.1486 -0.4564,2.7151 -0.84993,5.4745 -1.52988,8.1501 -0.18162,0.8685 -0.93143,2.5684 -0.54954,3.4253 0.46339,1.0572 1.71383,-0.3982 2.03052,-0.8639 1.37153,-1.8629 2.09572,-4.1915 3.11797,-6.2872 3.43,-6.9578 5.77488,-15.0007 6.11019,-22.8201 h 0.23286 c 0,10.7511 -4.22171,22.4499 -9.96166,31.4359 -2.1749,3.4044 -4.35911,6.9368 -7.73555,9.3143 4.84811,-8.83 9.54485,-26.5505 7.65172,-36.4609 -0.54722,-2.8758 -2.75937,-11.0421 -2.75937,-11.0421 z m -27.01153,0.6985 c -1.00129,4.6782 -4.23569,9.6404 -6.28717,13.9715 h -0.23285 l 4.56867,-10.2457 z m 15.83435,0 v 0.2329 h -0.69858 z m -19.32722,0.2329 -5.58859,12.1086 1.16429,0.4657 4.10529,-8.8486 1.94902,-3.4928 -5.82145,12.8071 -1.46468,-1.2155 1.93039,-4.6455 3.26001,-7.179 z m 21.65347,3.7397 c -1.86054,0.2468 -5.35574,6.4432 -2.32625,6.2289 1.92107,-0.135 3.39972,-1.2853 3.67682,-3.2157 0.13273,-0.9175 0.11643,-3.2111 -1.35057,-3.0132 z m 0.23518,0.6846 c 1.38318,2.5917 -0.46571,4.5547 -3.02715,4.89 0.19793,-1.9281 1.39715,-3.8375 3.02715,-4.89 z m -23.2858,12.1086 v 0.2329 c -0.97101,1.1107 -0.5705,3.6395 -1.53686,4.4243 -3.00853,2.4147 -8.40617,2.3286 -11.9689,3.6163 -3.85613,1.4297 -7.0067,4.8178 -11.17719,5.4651 1.34825,-2.5614 6.58057,-2.5241 7.27682,-5.5792 0.33298,-1.4647 -2.27968,-1.2202 -3.08537,-1.1341 -3.78394,0.4262 -7.30941,1.8419 -11.17719,1.1247 v -0.2328 l 12.80719,-2.7943 c -0.81733,-2.5615 -2.88045,-1.7045 -4.89933,-1.63 -2.55678,0.044 -6.16608,0.023 -8.60643,-0.6986 v -0.2329 c 2.7128,-1.1526 5.96116,-0.9314 8.8486,-0.9314 0.92911,0 3.10633,0.2515 3.72573,-0.6008 0.88486,-1.1363 -2.02586,-1.4646 -2.56144,-1.6323 -3.05509,-0.9594 -6.56659,-1.4926 -9.78003,-1.4926 0.45407,-1.2924 1.9071,-0.7917 3.02715,-0.8732 3.2507,-0.2422 6.14978,0.6403 9.31432,0.8732 1.05019,0.056 3.79326,0.3958 3.94927,-1.1643 0.0908,-0.9012 -1.00827,-1.5089 -1.62069,-1.942 -1.39715,-0.9664 -3.35781,-2.0888 -3.49287,-3.8795 l 8.15003,3.9586 7.91717,1.8629 z m 17.2315,-4.4709 c -3.3811,1.1201 -6.99972,1.8582 -10.47861,2.6104 -1.39715,0.291 -3.17386,0.063 -4.38239,0.8615 -1.43907,0.9431 -2.23544,3.7956 -1.49961,5.3721 0.72186,1.5438 4.33815,0.5821 5.64914,0.5193 4.65716,-0.2306 9.54718,-0.3936 14.20434,-0.9967 1.36454,-0.1676 3.72572,0.065 4.78989,-0.9663 1.49727,-1.4833 0.82431,-7.6797 -0.10712,-9.3912 -0.63337,-1.1666 -6.41989,1.4088 -8.17564,1.9909 z m 6.97409,-1.432 c 0.86623,0.082 1.09211,1.0129 1.15498,1.7115 0.13273,1.5112 0.77542,5.4698 -0.54489,6.5526 -1.15265,0.9454 -3.63026,0.51 -5.0437,0.6939 -4.31952,0.5635 -8.88819,0.7941 -13.25195,0.9058 -1.32729,0.035 -3.32754,0.7056 -4.58265,0.089 -1.7441,-0.8592 0.3912,-4.0913 1.55549,-4.4965 4.25898,-1.4903 9.13735,-1.6207 13.50577,-3.0201 2.06545,-0.659 5.02042,-2.5871 7.20695,-2.4357 z m -6.27552,10.9257 c -1.75808,0.5169 -1.55549,3.5045 -1.63001,4.9901 -0.23285,5.2649 0,10.5857 0.23286,15.8343 0.0512,0.9757 0.13972,6.1219 1.72315,5.6236 1.42043,-0.4471 2.23544,-3.6512 2.60102,-4.925 0.62872,-2.2703 -0.36558,-5.3394 -0.55885,-7.6843 -0.28409,-2.9782 -0.0396,-6.0543 -0.0396,-9.0815 0,-1.7906 0.68926,-5.6421 -2.32858,-4.7572 z m 0.46572,25.7145 c -1.16429,-0.6986 -0.94541,-3.3741 -1.09677,-4.6572 -0.57515,-4.8528 -0.30038,-9.78 -0.30038,-14.67 0,-1.1643 -0.26546,-5.0321 1.00129,-5.5886 2.49158,-1.162 1.29003,4.7479 1.42509,5.8214 0.35161,2.7943 -0.0373,5.5956 0.13506,8.3829 0.13971,1.7231 0.99197,3.6419 0.80103,5.3557 -0.2119,1.9025 -1.60207,3.5208 -1.96532,5.3558 z m -17.2315,-24.2173 -0.46571,1.3972 h -0.23286 z m 1.63001,0 -0.23286,1.1643 h -0.23286 z m -5.35574,0.4658 -0.46571,1.3971 h -0.23286 z m 1.63001,0 -0.69857,2.0957 h -0.23286 z m -3.49287,0.9314 v 0.2328 l -0.69857,0.9315 z m -2.32858,0.6986 -1.16429,2.7943 h -0.23286 z m 3.49287,0 -0.23286,0.9314 h -0.23286 z m -5.58859,0.6985 -0.93143,2.3286 h -0.23286 z m 3.49287,0 -0.69858,1.8629 h -0.23285 z m -5.35574,0.2329 -0.69857,1.8629 h -0.23286 l 0.46572,-1.8629 z m -2.09572,0.4657 v 0.6986 h -0.23286 z m -2.09572,0.9314 -0.93143,2.5615 h -0.23286 z m 3.26001,0.6986 -0.23286,0.2329 z m -5.35573,0.2329 -1.39715,3.26 h -0.23286 z m -2.09572,0.9314 -3.26002,7.4515 h -0.23285 c 0.29107,-1.9444 1.77437,-6.4036 3.49287,-7.4515 z m 38.18871,36.7916 c -1.39715,-1.2505 -2.7943,-7.8171 0.69857,-7.2 0.88021,0.1537 4.69908,3.3578 4.14953,4.2543 -0.31901,0.5193 -1.52755,0.6171 -2.0538,0.8499 -1.11074,0.4658 -2.00491,1.1946 -2.7943,2.0958 z" style="fill:#000000;stroke-width:0.20300001"/>
        <path style="fill:#e6180a;stroke-width:1.0001626" d="m 323.69675,1521.1915 c -2.23171,4.9212 2.29416,11.3103 2.32439,16.0274 3.5976,-3.0501 11.38526,-3.7858 13.66917,-8.6832 1.06724,-2.3126 0.13346,-5.0208 -2.06906,-6.0252 -2.21295,-1.0092 -4.87092,0.036 -5.92772,2.3531 1.06156,-2.3278 0.13346,-5.0208 -2.06906,-6.0252 -2.20819,-1.0197 -4.86048,0.04 -5.92772,2.3531 z" id="path4159" inkscape:connector-curvature="0"/>
        <path style="fill:#e6180a;stroke-width:0.99951243" d="m 343.31732,1551.8099 c -2.84257,0.7312 -5.68513,1.4624 -8.5277,2.1936 0.96011,-0.2931 1.6249,-1.1342 2.27188,-1.8544 1.41305,-1.7737 2.66514,-3.7129 3.50563,-5.8209 0.37552,-1.0484 0.75311,-2.2158 0.48234,-3.3347 m -6.25985,11.01 c 1.24252,-0.2782 2.49689,0.2353 3.62241,0.7173 2.01847,0.9665 3.88174,2.2547 5.55584,3.7372 0.63634,0.6283 1.36295,1.2807 1.6173,2.1683 -0.75604,-2.9392 -1.5118,-5.8772 -2.26785,-8.8164 m 2.26785,8.8164 c -0.29541,-1.3233 0.21158,-2.666 0.70558,-3.8751 0.91448,-2.0229 2.12739,-3.9165 3.56275,-5.6081 0.57237,-0.6006 1.16624,-1.2926 1.99152,-1.5268 -2.84257,0.7312 -5.68513,1.4624 -8.5277,2.1936 m 8.5277,-2.1936 c -1.24252,0.2782 -2.49681,-0.235 -3.62213,-0.7162 -2.01875,-0.9676 -3.88202,-2.2558 -5.55612,-3.7383 -0.63634,-0.6283 -1.36239,-1.2809 -1.6173,-2.1683 0.75604,2.9392 1.5118,5.8772 2.26785,8.8164" id="path4163" inkscape:connector-curvature="0"/>
        <path style="stroke-width:1.00042498" d="m 375.59551,1551.1368 c -1.00696,1.8167 -3.34036,2.4521 -5.21728,1.4117 -1.87691,-1.0403 -2.57468,-3.3558 -1.56772,-5.1725 1.00697,-1.8167 3.34037,-2.4521 5.21728,-1.4118 1.87692,1.0404 2.57469,3.3559 1.56772,5.1726 z" id="path4167" inkscape:connector-curvature="0"/>
        <path style="stroke-width:1.00042498" d="m 376.51679,1559.7954 c -1.00696,1.8167 -3.34036,2.452 -5.21728,1.4117 -1.87691,-1.0404 -2.57468,-3.3559 -1.56772,-5.1725 1.00697,-1.8167 3.34037,-2.4521 5.21728,-1.4118 1.87692,1.0404 2.57469,3.3559 1.56772,5.1726 z" id="path4169" inkscape:connector-curvature="0"/>
        <path style="stroke-width:1.00042498" d="m 367.81364,1554.9976 c -0.36718,0.6624 -0.91285,1.1735 -1.55344,1.5007 -1.09736,0.5594 -2.47948,0.5675 -3.66384,-0.089 -1.87692,-1.0403 -2.57469,-3.3558 -1.56772,-5.1725 1.00697,-1.8167 3.34036,-2.4521 5.21728,-1.4118 1.87692,1.0404 2.57469,3.3559 1.56772,5.1726 z" id="path4171" inkscape:connector-curvature="0"/>
        <path style="stroke-width:1.00042498" d="m 369.17787,1564.1116 c -1.67618,-0.9291 -1.80282,-2.7837 -1.5079,-4.4046 0.29491,-1.6209 1.01138,-3.0082 1.01138,-3.0082 l -0.86318,-0.4785 c 0,0 -3.18149,5.3611 -6.53941,3.513 z" id="path4173" inkscape:connector-curvature="0"/>
        <path style="stroke-width:1.00042498" d="m 368.56378,1550.4013 c 0.84998,2.964 -0.73557,5.8246 -0.73557,5.8246 l 0.84758,0.4829 c 0,0 1.61893,-2.9208 4.505,-3.7484" id="path4175" inkscape:connector-curvature="0"/>
        <path style="stroke-width:1.00042498" d="m 365.55153,1556.7352 c 2.96407,-0.8499 5.82461,0.7356 5.82461,0.7356 l 0.47288,-0.8531 c 0,0 -2.92076,-1.619 -3.74838,-4.505" id="path4177" inkscape:connector-curvature="0"/>
        <path style="stroke-width:1.00042498" d="m 369.37006,1558.8649 c -0.84999,-2.964 -3.71053,-4.5496 -3.71053,-4.5496 l 0.47289,-0.8531 c 0,0 2.92076,1.6189 5.80682,0.7913" id="path4179" inkscape:connector-curvature="0"/>
        <path style="stroke-width:1.00012505" d="m 348.56722,1507.3958 c -1.84092,0.5306 -3.37657,-1.152 -4.44923,-2.968 -1.07266,-1.816 -1.68234,-3.7655 -1.68234,-3.7655 l -0.94017,0.2591 c 0,0 2.08913,7.9106 -1.59271,8.9718 z" id="path4183" inkscape:connector-curvature="0"/>
        <path style="stroke-width:1.00012505" d="m 349.42136,1498.6368 c -1.11359,-3.822 -7.65753,-4.9444 -10.21474,-7.4787 -0.8128,3.5176 -5.75532,7.9509 -4.66695,11.7682 0.5211,1.8079 2.60824,2.7942 4.66963,2.2 2.05036,-0.591 3.29231,-2.5369 2.77121,-4.3447 0.5211,1.8078 2.60824,2.7942 4.66963,2.2 2.06139,-0.5942 3.29232,-2.5369 2.77122,-4.3448 z" id="path4185" inkscape:connector-curvature="0"/>
      </g>
      <g id="g4531">
        <path inkscape:connector-curvature="0" id="path59442" style="font-style:normal;font-variant:normal;font-weight:normal;font-stretch:ultra-condensed;font-size:53.35316849px;line-height:80.00000119%;font-family:'Stint Ultra Condensed';-inkscape-font-specification:'Stint Ultra Condensed, Ultra-Condensed';font-variant-ligatures:normal;font-variant-caps:normal;font-variant-numeric:normal;font-feature-settings:normal;text-align:center;letter-spacing:0px;word-spacing:0px;writing-mode:lr-tb;text-anchor:middle;fill:#000000;fill-opacity:1;stroke:none;stroke-width:1.00037193" d="m 285.6928,1312.4465 h 10.2121 v 2.9177 h -3.2043 v 23.1076 q 0,2.8135 -0.4429,4.7674 -0.4168,1.9278 -1.2244,3.1522 -0.7815,1.1983 -1.9278,1.7454 -1.1202,0.521 -2.553,0.521 -1.4068,0 -2.527,-0.4689 -1.0942,-0.4689 -1.8757,-1.7454 -0.7816,-1.3026 -1.1984,-3.5951 -0.4168,-2.2925 -0.4168,-5.9137 h 3.2564 q 0.026,2.4489 0.1042,4.1161 0.1042,1.6673 0.3647,2.7094 0.2866,1.016 0.8337,1.4849 0.5471,0.4429 1.4589,0.4429 0.9118,0 1.4849,-0.4689 0.5731,-0.495 0.8857,-1.4068 0.3127,-0.9379 0.4169,-2.3186 0.1042,-1.3807 0.1042,-3.1782 v -22.9513 h -3.7514 z"/>
        <path inkscape:connector-curvature="0" id="path59444" style="font-style:normal;font-variant:normal;font-weight:normal;font-stretch:ultra-condensed;font-size:53.35316849px;line-height:80.00000119%;font-family:'Stint Ultra Condensed';-inkscape-font-specification:'Stint Ultra Condensed, Ultra-Condensed';font-variant-ligatures:normal;font-variant-caps:normal;font-variant-numeric:normal;font-feature-settings:normal;text-align:center;letter-spacing:0px;word-spacing:0px;writing-mode:lr-tb;text-anchor:middle;fill:#000000;fill-opacity:1;stroke:none;stroke-width:1.00037193" d="m 297.0251,1373.0523 q 0,4.8195 -0.7034,8.3365 -0.7034,3.4908 -1.9278,5.7834 -1.1983,2.2664 -2.8656,3.3606 -1.6673,1.0941 -3.5691,1.0941 -1.9538,0 -3.6211,-1.0941 -1.6673,-1.0942 -2.8917,-3.3606 -1.2244,-2.2926 -1.9278,-5.7834 -0.7034,-3.517 -0.7034,-8.3365 0,-4.7934 0.7034,-8.2843 0.7034,-3.5169 1.9278,-5.8095 1.2505,-2.2925 2.9178,-3.3866 1.6672,-1.0942 3.595,-1.0942 1.9018,0 3.5691,1.0942 1.6673,1.0941 2.8656,3.3866 1.2244,2.2665 1.9278,5.7834 0.7034,3.4909 0.7034,8.3104 z m -3.5951,0 q 0,-7.607 -1.3807,-11.5928 -1.3807,-3.9859 -4.0901,-3.9859 -2.7875,0 -4.1682,4.038 -1.3807,4.0119 -1.3807,11.5407 0,7.607 1.3807,11.5929 1.3807,3.9858 4.1682,3.9858 2.7094,0 4.0901,-3.9858 1.3807,-3.9859 1.3807,-11.5929 z"/>
        <path inkscape:connector-curvature="0" id="path59446" style="font-style:normal;font-variant:normal;font-weight:normal;font-stretch:ultra-condensed;font-size:53.35316849px;line-height:80.00000119%;font-family:'Stint Ultra Condensed';-inkscape-font-specification:'Stint Ultra Condensed, Ultra-Condensed';font-variant-ligatures:normal;font-variant-caps:normal;font-variant-numeric:normal;font-feature-settings:normal;text-align:center;letter-spacing:0px;word-spacing:0px;writing-mode:lr-tb;text-anchor:middle;fill:#000000;fill-opacity:1;stroke:none;stroke-width:1.00037193" d="m 278.3463,1397.8115 h 9.639 v 2.9178 h -3.2043 v 12.2181 l 6.617,-12.2181 h -1.9538 v -2.9178 h 7.9456 v 2.9178 h -2.6833 l -6.7212,12.4525 7.3725,17.4805 h 2.9438 v 2.9438 h -8.4927 v -2.9438 h 2.1883 l -6.0439,-14.719 -1.1723,2.1362 v 12.5828 h 3.2043 v 2.9438 h -9.639 v -2.9438 h 3.1783 v -29.933 h -3.1783 z"/>
        <path inkscape:connector-curvature="0" id="path59448" style="font-style:normal;font-variant:normal;font-weight:normal;font-stretch:ultra-condensed;font-size:53.35316849px;line-height:80.00000119%;font-family:'Stint Ultra Condensed';-inkscape-font-specification:'Stint Ultra Condensed, Ultra-Condensed';font-variant-ligatures:normal;font-variant-caps:normal;font-variant-numeric:normal;font-feature-settings:normal;text-align:center;letter-spacing:0px;word-spacing:0px;writing-mode:lr-tb;text-anchor:middle;fill:#000000;fill-opacity:1;stroke:none;stroke-width:1.00037193" d="m 292.2838,1451.2012 v -7.7894 h -6.1742 v 12.5047 h 5.7573 v 2.9177 h -5.7573 v 14.5106 h 6.5649 v -8.3104 h 2.8136 v 11.2542 h -16.0998 v -2.9438 h 3.1783 v -29.933 h -3.1783 v -2.9177 h 15.7351 v 10.7071 z"/>
        <path inkscape:connector-curvature="0" id="path59450" style="font-style:normal;font-variant:normal;font-weight:normal;font-stretch:ultra-condensed;font-size:53.35316849px;line-height:80.00000119%;font-family:'Stint Ultra Condensed';-inkscape-font-specification:'Stint Ultra Condensed, Ultra-Condensed';font-variant-ligatures:normal;font-variant-caps:normal;font-variant-numeric:normal;font-feature-settings:normal;text-align:center;letter-spacing:0px;word-spacing:0px;writing-mode:lr-tb;text-anchor:middle;fill:#000000;fill-opacity:1;stroke:none;stroke-width:1.00037193" d="m 289.5484,1516.0274 h 1.9017 l -4.2203,-12.4786 h -0.7294 -1.6152 v 12.4786 h 3.2043 v 2.9438 h -9.639 v -2.9438 h 3.1783 v -29.933 h -3.1783 v -2.9178 h 9.7953 q 3.4127,0 5.0279,2.553 1.6413,2.5531 1.6413,7.7373 0,4.038 -1.0942,6.4347 -1.0942,2.3967 -3.543,3.2825 l 4.6372,12.8433 h 2.8917 v 2.9438 h -8.2583 z m 1.7975,-22.5605 q 0,-2.2925 -0.1823,-3.7253 -0.1824,-1.4589 -0.6253,-2.2665 -0.4428,-0.8076 -1.1723,-1.0942 -0.7034,-0.2865 -1.7454,-0.2865 h -2.7354 v 14.5106 h 2.6833 q 1.042,0 1.7715,-0.2345 0.7294,-0.2605 1.1723,-1.016 0.4428,-0.7815 0.6252,-2.1623 0.2084,-1.4067 0.2084,-3.7253 z"/>
      </g>
      <g id="g4538">
        <path inkscape:connector-curvature="0" id="path59431" style="font-style:normal;font-variant:normal;font-weight:normal;font-stretch:ultra-condensed;font-size:53.35316849px;line-height:80.00000119%;font-family:'Stint Ultra Condensed';-inkscape-font-specification:'Stint Ultra Condensed, Ultra-Condensed';font-variant-ligatures:normal;font-variant-caps:normal;font-variant-numeric:normal;font-feature-settings:normal;text-align:center;letter-spacing:0px;word-spacing:0px;writing-mode:lr-tb;text-anchor:middle;fill:#000000;fill-opacity:1;stroke:none;stroke-width:1.00037193" d="m 458.1839,1624.1248 h -10.2121 v -2.9177 h 3.2043 v -23.1076 q 0,-2.8135 0.4429,-4.7674 0.4168,-1.9278 1.2244,-3.1522 0.7815,-1.1984 1.9278,-1.7454 1.1202,-0.5211 2.553,-0.5211 1.4068,0 2.527,0.469 1.0941,0.4689 1.8757,1.7454 0.7815,1.3026 1.1983,3.5951 0.4169,2.2925 0.4169,5.9136 h -3.2564 q -0.026,-2.4488 -0.1043,-4.1161 -0.1042,-1.6673 -0.3647,-2.7093 -0.2865,-1.016 -0.8336,-1.4849 -0.5471,-0.4429 -1.4589,-0.4429 -0.9118,0 -1.4849,0.4689 -0.5731,0.495 -0.8858,1.4068 -0.3126,0.9378 -0.4168,2.3185 -0.1042,1.3808 -0.1042,3.1783 v 22.9513 h 3.7514 z"/>
        <path inkscape:connector-curvature="0" id="path59433" style="font-style:normal;font-variant:normal;font-weight:normal;font-stretch:ultra-condensed;font-size:53.35316849px;line-height:80.00000119%;font-family:'Stint Ultra Condensed';-inkscape-font-specification:'Stint Ultra Condensed, Ultra-Condensed';font-variant-ligatures:normal;font-variant-caps:normal;font-variant-numeric:normal;font-feature-settings:normal;text-align:center;letter-spacing:0px;word-spacing:0px;writing-mode:lr-tb;text-anchor:middle;fill:#000000;fill-opacity:1;stroke:none;stroke-width:1.00037193" d="m 446.8516,1563.5189 q 0,-4.8195 0.7034,-8.3364 0.7033,-3.4909 1.9278,-5.7834 1.1983,-2.2665 2.8656,-3.3606 1.6673,-1.0942 3.569,-1.0942 1.9539,0 3.6212,1.0942 1.6673,1.0941 2.8917,3.3606 1.2244,2.2925 1.9278,5.7834 0.7034,3.5169 0.7034,8.3364 0,4.7935 -0.7034,8.2844 -0.7034,3.5169 -1.9278,5.8094 -1.2505,2.2925 -2.9178,3.3867 -1.6673,1.0942 -3.5951,1.0942 -1.9017,0 -3.569,-1.0942 -1.6673,-1.0942 -2.8656,-3.3867 -1.2245,-2.2664 -1.9278,-5.7834 -0.7034,-3.4909 -0.7034,-8.3104 z m 3.5951,0 q 0,7.607 1.3807,11.5929 1.3807,3.9858 4.09,3.9858 2.7875,0 4.1683,-4.0379 1.3807,-4.0119 1.3807,-11.5408 0,-7.607 -1.3807,-11.5928 -1.3808,-3.9859 -4.1683,-3.9859 -2.7093,0 -4.09,3.9859 -1.3807,3.9858 -1.3807,11.5928 z"/>
        <path inkscape:connector-curvature="0" id="path59435" style="font-style:normal;font-variant:normal;font-weight:normal;font-stretch:ultra-condensed;font-size:53.35316849px;line-height:80.00000119%;font-family:'Stint Ultra Condensed';-inkscape-font-specification:'Stint Ultra Condensed, Ultra-Condensed';font-variant-ligatures:normal;font-variant-caps:normal;font-variant-numeric:normal;font-feature-settings:normal;text-align:center;letter-spacing:0px;word-spacing:0px;writing-mode:lr-tb;text-anchor:middle;fill:#000000;fill-opacity:1;stroke:none;stroke-width:1.00037193" d="m 465.5304,1538.7597 h -9.639 v -2.9177 h 3.2043 v -12.2181 l -6.617,12.2181 h 1.9538 v 2.9177 h -7.9457 v -2.9177 h 2.6833 l 6.7213,-12.4526 -7.3725,-17.4804 h -2.9439 v -2.9438 h 8.4928 v 2.9438 h -2.1883 l 6.0439,14.719 1.1723,-2.1362 v -12.5828 h -3.2043 v -2.9438 h 9.639 v 2.9438 h -3.1783 v 29.933 h 3.1783 z"/>
        <path inkscape:connector-curvature="0" id="path59437" style="font-style:normal;font-variant:normal;font-weight:normal;font-stretch:ultra-condensed;font-size:53.35316849px;line-height:80.00000119%;font-family:'Stint Ultra Condensed';-inkscape-font-specification:'Stint Ultra Condensed, Ultra-Condensed';font-variant-ligatures:normal;font-variant-caps:normal;font-variant-numeric:normal;font-feature-settings:normal;text-align:center;letter-spacing:0px;word-spacing:0px;writing-mode:lr-tb;text-anchor:middle;fill:#000000;fill-opacity:1;stroke:none;stroke-width:1.00037193" d="m 451.5929,1485.3701 v 7.7893 h 6.1742 v -12.5046 h -5.7574 v -2.9178 h 5.7574 v -14.5106 h -6.565 v 8.3104 h -2.8135 v -11.2542 h 16.0997 v 2.9438 h -3.1782 v 29.933 h 3.1782 v 2.9178 h -15.735 v -10.7071 z"/>
        <path inkscape:connector-curvature="0" id="path59439" style="font-style:normal;font-variant:normal;font-weight:normal;font-stretch:ultra-condensed;font-size:53.35316849px;line-height:80.00000119%;font-family:'Stint Ultra Condensed';-inkscape-font-specification:'Stint Ultra Condensed, Ultra-Condensed';font-variant-ligatures:normal;font-variant-caps:normal;font-variant-numeric:normal;font-feature-settings:normal;text-align:center;letter-spacing:0px;word-spacing:0px;writing-mode:lr-tb;text-anchor:middle;fill:#000000;fill-opacity:1;stroke:none;stroke-width:1.00037193" d="m 454.3283,1420.5439 h -1.9017 l 4.2203,12.4786 h 0.7294 1.6152 v -12.4786 h -3.2043 v -2.9438 h 9.639 v 2.9438 h -3.1783 v 29.933 h 3.1783 v 2.9178 h -9.7953 q -3.4128,0 -5.0279,-2.5531 -1.6413,-2.553 -1.6413,-7.7372 0,-4.038 1.0942,-6.4347 1.0941,-2.3967 3.543,-3.2825 l -4.6372,-12.8433 H 446.07 v -2.9438 h 8.2583 z m -1.7975,22.5605 q 0,2.2925 0.1823,3.7253 0.1824,1.4589 0.6253,2.2665 0.4428,0.8076 1.1723,1.0941 0.7033,0.2866 1.7454,0.2866 h 2.7354 v -14.5106 h -2.6833 q -1.042,0 -1.7715,0.2345 -0.7294,0.2605 -1.1723,1.016 -0.4429,0.7815 -0.6252,2.1622 -0.2084,1.4068 -0.2084,3.7254 z"/>
      </g>
    </g>
    </g></svg>
