<?xml version='1.0' encoding='UTF-8'?>
<!-- Created with Inkscape (http://www.inkscape.org/) and export_objects.py -->
<svg xmlns:cc="http://creativecommons.org/ns#" xmlns:dc="http://purl.org/dc/elements/1.1/" xmlns:inkscape="http://www.inkscape.org/namespaces/inkscape" xmlns:rdf="http://www.w3.org/1999/02/22-rdf-syntax-ns#" xmlns:sodipodi="http://sodipodi.sourceforge.net/DTD/sodipodi-0.dtd" xmlns:xlink="http://www.w3.org/1999/xlink" xmlns="http://www.w3.org/2000/svg" version="1.1" width="57.1500026458mm" height="88.8999973542mm" viewBox="0 0 57.1500026458 88.8999973542" id="svg24051" sodipodi:docname="spade-009.svg"><sodipodi:namedview id="base" pagecolor="#ffffff" bordercolor="#666666" borderopacity="1.0" inkscape:pageopacity="0.0" inkscape:pageshadow="2" inkscape:zoom="0.23049644" inkscape:cx="312.64252" inkscape:cy="711.76062" inkscape:document-units="mm" inkscape:current-layer="layer1" showgrid="false" inkscape:lockguides="true" inkscape:window-width="1280" inkscape:window-height="940" inkscape:window-x="1909" inkscape:window-y="43" inkscape:window-maximized="1"/>
  <metadata id="metadata24048">
    <rdf:RDF>
      <cc:Work rdf:about="">
        <dc:format>image/svg+xml</dc:format>
        <dc:type rdf:resource="http://purl.org/dc/dcmitype/StillImage"/>
      </cc:Work>
    </rdf:RDF>
  </metadata>
  <g inkscape:groupmode="layer" inkscape:label="spade-" transform="matrix(1.000000,0.000000,0.000000,1.000000,-193.845050,-64.230001)"><g transform="matrix(0.26448498,0,0,0.26448498,-364.90207,-178.0595)" id="g17471" inkscape:label="009">
      <rect y="916.08038" x="2112.5854" height="336.12494" width="216.08034" id="rect32159" style="display:inline;opacity:1;fill:#ffffff;fill-opacity:1;stroke:none;stroke-width:0.13338292;stroke-linecap:butt;stroke-linejoin:miter;stroke-miterlimit:47.14606857;stroke-dasharray:none;stroke-dashoffset:0;stroke-opacity:1;paint-order:markers fill stroke"/>
      <g id="text32285" style="font-style:normal;font-variant:normal;font-weight:normal;font-stretch:normal;font-size:80.02975464px;line-height:125%;font-family:'Stint Ultra Condensed';-inkscape-font-specification:'Stint Ultra Condensed, ';font-variant-ligatures:normal;font-variant-caps:normal;font-variant-numeric:normal;font-feature-settings:normal;text-align:center;letter-spacing:0px;word-spacing:0px;writing-mode:lr-tb;text-anchor:middle;display:inline;fill:#000000;fill-opacity:1;stroke:none;stroke-width:1.00037193" aria-label="6" transform="translate(-2088.7764,79.839752)">
        <path id="path12552" style="font-style:normal;font-variant:normal;font-weight:normal;font-stretch:normal;font-size:80.02975464px;font-family:'Stint Ultra Condensed';-inkscape-font-specification:'Stint Ultra Condensed, ';text-align:center;text-anchor:middle;stroke-width:1.00037193" d="m 4225.8241,874.40328 q 0.2735,-0.70339 0.7815,-1.79755 0.5471,-1.09415 1.4068,-2.11016 0.8988,-1.05508 2.1493,-1.75846 1.2504,-0.74247 2.9698,-0.74247 1.9148,0 3.5951,1.09416 1.6803,1.09416 2.8917,3.28247 1.2505,2.18831 1.9539,5.50986 0.7424,3.28247 0.7424,7.73725 0,3.67324 -0.7034,6.91664 -0.6643,3.20431 -1.9538,5.62709 -1.2896,2.3837 -3.1653,3.79047 -1.8757,1.3677 -4.2594,1.3677 -2.3837,0 -4.4547,-1.60216 -2.032,-1.64124 -3.556,-4.88463 -1.5241,-3.28247 -2.4228,-8.20618 -0.8597,-4.9237 -0.8597,-11.5668 0,-6.7994 0.6643,-12.23111 0.6643,-5.47078 2.032,-9.30033 1.4068,-3.82955 3.5169,-5.86155 2.1493,-2.07109 5.08,-2.07109 1.8757,0 3.5561,1.05508 1.6803,1.01601 2.9307,3.04801 1.2896,2.03201 1.993,5.08002 0.7424,3.00893 0.7424,6.99478 h -4.8065 q 0,-5.82247 -1.1723,-8.87048 -1.1332,-3.04801 -3.4778,-3.04801 -1.6413,0 -2.8136,1.83662 -1.1723,1.79754 -1.9147,4.88463 -0.7425,3.08709 -1.0942,7.19017 -0.3517,4.06401 -0.3517,8.63603 z m 6.3305,-2.14924 q -1.2114,0 -2.1883,1.13323 -0.977,1.13324 -1.7585,2.77447 -0.7425,1.64124 -1.2505,3.51694 -0.508,1.87569 -0.7424,3.36062 -0.078,2.93078 0.3126,5.7834 0.4298,2.85262 1.2114,5.15817 0.8206,2.26647 1.9538,3.67324 1.1723,1.40677 2.54,1.40677 1.2505,0 2.2274,-0.93785 0.977,-0.97692 1.6413,-2.73539 0.6643,-1.75847 0.9769,-4.22032 0.3517,-2.50093 0.3517,-5.54894 0,-3.12616 -0.3126,-5.58801 -0.3126,-2.50093 -0.977,-4.22032 -0.6252,-1.71939 -1.6412,-2.61816 -0.9769,-0.93785 -2.3446,-0.93785 z" inkscape:connector-curvature="0"/>
      </g>
      <g id="text32289" style="font-style:normal;font-variant:normal;font-weight:normal;font-stretch:normal;font-size:80.02975464px;line-height:125%;font-family:'Stint Ultra Condensed';-inkscape-font-specification:'Stint Ultra Condensed, ';font-variant-ligatures:normal;font-variant-caps:normal;font-variant-numeric:normal;font-feature-settings:normal;text-align:center;letter-spacing:0px;word-spacing:0px;writing-mode:lr-tb;text-anchor:middle;display:inline;fill:#000000;fill-opacity:1;stroke:none;stroke-width:1.00037193" transform="rotate(180,-1044.3882,39.919876)" aria-label="6">
        <path id="path12549" style="font-style:normal;font-variant:normal;font-weight:normal;font-stretch:normal;font-size:80.02975464px;font-family:'Stint Ultra Condensed';-inkscape-font-specification:'Stint Ultra Condensed, ';text-align:center;text-anchor:middle;stroke-width:1.00037193" d="m -4392.9801,-1134.203 q 0.2735,-0.7034 0.7816,-1.7975 0.547,-1.0942 1.4067,-2.1102 0.8988,-1.0551 2.1493,-1.7585 1.2504,-0.7424 2.9698,-0.7424 1.9148,0 3.5951,1.0941 1.6803,1.0942 2.8917,3.2825 1.2505,2.1883 1.9539,5.5099 0.7424,3.2824 0.7424,7.7372 0,3.6733 -0.7034,6.9167 -0.6643,3.2043 -1.9538,5.627 -1.2896,2.3837 -3.1653,3.7905 -1.8757,1.3677 -4.2594,1.3677 -2.3837,0 -4.4547,-1.6021 -2.032,-1.6413 -3.556,-4.8847 -1.5241,-3.2824 -2.4228,-8.2061 -0.8597,-4.9238 -0.8597,-11.5668 0,-6.7995 0.6643,-12.2312 0.6643,-5.4707 2.032,-9.3003 1.4068,-3.8295 3.5169,-5.8615 2.1493,-2.0711 5.08,-2.0711 1.8757,0 3.5561,1.0551 1.6803,1.016 2.9307,3.048 1.2896,2.032 1.993,5.08 0.7424,3.0089 0.7424,6.9948 h -4.8065 q 0,-5.8225 -1.1723,-8.8705 -1.1332,-3.048 -3.4778,-3.048 -1.6413,0 -2.8136,1.8366 -1.1723,1.7975 -1.9147,4.8846 -0.7425,3.0871 -1.0942,7.1902 -0.3517,4.064 -0.3517,8.636 z m 6.3305,-2.1492 q -1.2114,0 -2.1883,1.1332 -0.977,1.1332 -1.7585,2.7745 -0.7425,1.6412 -1.2505,3.5169 -0.508,1.8757 -0.7424,3.3606 -0.078,2.9308 0.3126,5.7834 0.4298,2.8527 1.2114,5.1582 0.8206,2.2665 1.9538,3.6732 1.1723,1.4068 2.54,1.4068 1.2505,0 2.2274,-0.9378 0.977,-0.977 1.6413,-2.7354 0.6643,-1.7585 0.9769,-4.2203 0.3517,-2.501 0.3517,-5.549 0,-3.1261 -0.3126,-5.588 -0.3126,-2.5009 -0.977,-4.2203 -0.6252,-1.7194 -1.6412,-2.6182 -0.9769,-0.9378 -2.3446,-0.9378 z" inkscape:connector-curvature="0"/>
      </g>
      <g id="g32869" transform="matrix(-3.7845091,0,0,-3.7845091,2256.601,1084.1428)" style="display:inline;stroke-width:0.63416415">
        <path inkscape:connector-curvature="0" id="path32865" d="m 3.92,-7.93 c -1.67,0 -2.55,1.78 -3.01,3.56 -0.46,1.78 -0.5,3.56 -0.5,3.56 l -0.85,0.01 c 0,0 -0.16,-7.13 -3.5,-7.13 z" style="stroke-width:0.63416415"/>
        <path inkscape:connector-curvature="0" id="path32867" d="M 6.75,-0.8 C 6.74,2.67 1.53,5.19 0,7.93 -1.53,5.18 -6.74,2.66 -6.75,-0.8 c 0,-1.64 1.51,-2.97 3.38,-2.97 1.86,0 3.37,1.33 3.37,2.97 0,-1.64 1.51,-2.97 3.38,-2.97 1.87,0 3.37,1.33 3.37,2.97 z" style="stroke-width:0.63416415"/>
      </g>
      <g id="g32875" transform="matrix(-3.7845091,0,0,-3.7845091,2190.5765,1084.1428)" style="display:inline;stroke-width:0.63416415">
        <path inkscape:connector-curvature="0" id="path32871" d="m 3.92,-7.93 c -1.67,0 -2.55,1.78 -3.01,3.56 -0.46,1.78 -0.5,3.56 -0.5,3.56 l -0.85,0.01 c 0,0 -0.16,-7.13 -3.5,-7.13 z" style="stroke-width:0.63416415"/>
        <path inkscape:connector-curvature="0" id="path32873" d="M 6.75,-0.8 C 6.74,2.67 1.53,5.19 0,7.93 -1.53,5.18 -6.74,2.66 -6.75,-0.8 c 0,-1.64 1.51,-2.97 3.38,-2.97 1.86,0 3.37,1.33 3.37,2.97 0,-1.64 1.51,-2.97 3.38,-2.97 1.87,0 3.37,1.33 3.37,2.97 z" style="stroke-width:0.63416415"/>
      </g>
      <g style="display:inline;stroke-width:0.63416415" transform="matrix(-3.7845091,0,0,-3.7845091,2220.5874,964.09822)" id="g32881">
        <path style="stroke-width:0.63416415" d="m 3.92,-7.93 c -1.67,0 -2.55,1.78 -3.01,3.56 -0.46,1.78 -0.5,3.56 -0.5,3.56 l -0.85,0.01 c 0,0 -0.16,-7.13 -3.5,-7.13 z" id="path32877" inkscape:connector-curvature="0"/>
        <path style="stroke-width:0.63416415" d="M 6.75,-0.8 C 6.74,2.67 1.53,5.19 0,7.93 -1.53,5.18 -6.74,2.66 -6.75,-0.8 c 0,-1.64 1.51,-2.97 3.38,-2.97 1.86,0 3.37,1.33 3.37,2.97 0,-1.64 1.51,-2.97 3.38,-2.97 1.87,0 3.37,1.33 3.37,2.97 z" id="path32879" inkscape:connector-curvature="0"/>
      </g>
      <g id="g32887" transform="matrix(-3.7845091,0,0,-3.7845091,2286.6121,964.09832)" style="display:inline;stroke-width:0.63416415">
        <path inkscape:connector-curvature="0" id="path32883" d="m 3.92,-7.93 c -1.67,0 -2.55,1.78 -3.01,3.56 -0.46,1.78 -0.5,3.56 -0.5,3.56 l -0.85,0.01 c 0,0 -0.16,-7.13 -3.5,-7.13 z" style="stroke-width:0.63416415"/>
        <path inkscape:connector-curvature="0" id="path32885" d="M 6.75,-0.8 C 6.74,2.67 1.53,5.19 0,7.93 -1.53,5.18 -6.74,2.66 -6.75,-0.8 c 0,-1.64 1.51,-2.97 3.38,-2.97 1.86,0 3.37,1.33 3.37,2.97 0,-1.64 1.51,-2.97 3.38,-2.97 1.87,0 3.37,1.33 3.37,2.97 z" style="stroke-width:0.63416415"/>
      </g>
      <g id="g32893" transform="matrix(3.7845091,0,0,3.7845091,2220.6635,1204.1876)" style="display:inline;stroke-width:0.63416415">
        <path inkscape:connector-curvature="0" id="path32889" d="m 3.92,-7.93 c -1.67,0 -2.55,1.78 -3.01,3.56 -0.46,1.78 -0.5,3.56 -0.5,3.56 l -0.85,0.01 c 0,0 -0.16,-7.13 -3.5,-7.13 z" style="stroke-width:0.63416415"/>
        <path inkscape:connector-curvature="0" id="path32891" d="M 6.75,-0.8 C 6.74,2.67 1.53,5.19 0,7.93 -1.53,5.18 -6.74,2.66 -6.75,-0.8 c 0,-1.64 1.51,-2.97 3.38,-2.97 1.86,0 3.37,1.33 3.37,2.97 0,-1.64 1.51,-2.97 3.38,-2.97 1.87,0 3.37,1.33 3.37,2.97 z" style="stroke-width:0.63416415"/>
      </g>
      <g style="display:inline;stroke-width:0.63416415" transform="matrix(3.7845091,0,0,3.7845091,2154.6389,1204.1876)" id="g32899">
        <path style="stroke-width:0.63416415" d="m 3.92,-7.93 c -1.67,0 -2.55,1.78 -3.01,3.56 -0.46,1.78 -0.5,3.56 -0.5,3.56 l -0.85,0.01 c 0,0 -0.16,-7.13 -3.5,-7.13 z" id="path32895" inkscape:connector-curvature="0"/>
        <path style="stroke-width:0.63416415" d="M 6.75,-0.8 C 6.74,2.67 1.53,5.19 0,7.93 -1.53,5.18 -6.74,2.66 -6.75,-0.8 c 0,-1.64 1.51,-2.97 3.38,-2.97 1.86,0 3.37,1.33 3.37,2.97 0,-1.64 1.51,-2.97 3.38,-2.97 1.87,0 3.37,1.33 3.37,2.97 z" id="path32897" inkscape:connector-curvature="0"/>
      </g>
      <g id="g33163" transform="matrix(-2.2707054,0,0,-2.2707054,2142.5739,1006.1137)" style="display:inline;stroke-width:1.0569402">
        <path inkscape:connector-curvature="0" id="path33159" d="m 3.92,-7.93 c -1.67,0 -2.55,1.78 -3.01,3.56 -0.46,1.78 -0.5,3.56 -0.5,3.56 l -0.85,0.01 c 0,0 -0.16,-7.13 -3.5,-7.13 z" style="stroke-width:1.0569402"/>
        <path inkscape:connector-curvature="0" id="path33161" d="M 6.75,-0.8 C 6.74,2.67 1.53,5.19 0,7.93 -1.53,5.18 -6.74,2.66 -6.75,-0.8 c 0,-1.64 1.51,-2.97 3.38,-2.97 1.86,0 3.37,1.33 3.37,2.97 0,-1.64 1.51,-2.97 3.38,-2.97 1.87,0 3.37,1.33 3.37,2.97 z" style="stroke-width:1.0569402"/>
      </g>
      <g style="display:inline;stroke-width:1.0569402" transform="matrix(2.2707054,0,0,2.2707054,2298.6772,1162.1719)" id="g33169">
        <path style="stroke-width:1.0569402" d="m 3.92,-7.93 c -1.67,0 -2.55,1.78 -3.01,3.56 -0.46,1.78 -0.5,3.56 -0.5,3.56 l -0.85,0.01 c 0,0 -0.16,-7.13 -3.5,-7.13 z" id="path33165" inkscape:connector-curvature="0"/>
        <path style="stroke-width:1.0569402" d="M 6.75,-0.8 C 6.74,2.67 1.53,5.19 0,7.93 -1.53,5.18 -6.74,2.66 -6.75,-0.8 c 0,-1.64 1.51,-2.97 3.38,-2.97 1.86,0 3.37,1.33 3.37,2.97 0,-1.64 1.51,-2.97 3.38,-2.97 1.87,0 3.37,1.33 3.37,2.97 z" id="path33167" inkscape:connector-curvature="0"/>
      </g>
    </g>
    </g></svg>
