<?xml version='1.0' encoding='UTF-8'?>
<!-- Created with Inkscape (http://www.inkscape.org/) and export_objects.py -->
<svg xmlns:cc="http://creativecommons.org/ns#" xmlns:dc="http://purl.org/dc/elements/1.1/" xmlns:inkscape="http://www.inkscape.org/namespaces/inkscape" xmlns:rdf="http://www.w3.org/1999/02/22-rdf-syntax-ns#" xmlns:sodipodi="http://sodipodi.sourceforge.net/DTD/sodipodi-0.dtd" xmlns:xlink="http://www.w3.org/1999/xlink" xmlns="http://www.w3.org/2000/svg" version="1.1" width="57.1500026458mm" height="88.8999973542mm" viewBox="0 0 57.1500026458 88.8999973542" id="svg24051" sodipodi:docname="spade-001.svg"><sodipodi:namedview id="base" pagecolor="#ffffff" bordercolor="#666666" borderopacity="1.0" inkscape:pageopacity="0.0" inkscape:pageshadow="2" inkscape:zoom="0.23049644" inkscape:cx="312.64252" inkscape:cy="711.76062" inkscape:document-units="mm" inkscape:current-layer="layer1" showgrid="false" inkscape:lockguides="true" inkscape:window-width="1280" inkscape:window-height="940" inkscape:window-x="1909" inkscape:window-y="43" inkscape:window-maximized="1"/>
  <metadata id="metadata24048">
    <rdf:RDF>
      <cc:Work rdf:about="">
        <dc:format>image/svg+xml</dc:format>
        <dc:type rdf:resource="http://purl.org/dc/dcmitype/StillImage"/>
      </cc:Work>
    </rdf:RDF>
  </metadata>
  <g inkscape:groupmode="layer" inkscape:label="spade-" transform="matrix(1.000000,0.000000,0.000000,1.000000,364.955032,-64.229988)"><g transform="matrix(0.26448498,0,0,0.26448498,-917.35212,-156.97536)" style="display:inline" id="g64101" inkscape:label="001">
      <rect style="display:inline;opacity:1;fill:#ffffff;fill-opacity:1;stroke:none;stroke-width:0.13338292;stroke-linecap:butt;stroke-linejoin:miter;stroke-miterlimit:47.14606857;stroke-dasharray:none;stroke-dashoffset:0;stroke-opacity:1;paint-order:markers fill stroke" id="rect32169" width="216.08034" height="336.12494" x="2088.5764" y="836.36261" transform="translate(1.4799054e-5,3.192922e-6)"/>
      <g id="text32325" style="font-style:normal;font-variant:normal;font-weight:normal;font-stretch:normal;font-size:80.02975464px;line-height:125%;font-family:'Stint Ultra Condensed';-inkscape-font-specification:'Stint Ultra Condensed, ';font-variant-ligatures:normal;font-variant-caps:normal;font-variant-numeric:normal;font-feature-settings:normal;text-align:center;letter-spacing:0px;word-spacing:0px;writing-mode:lr-tb;text-anchor:middle;display:inline;fill:#000000;fill-opacity:1;stroke:none;stroke-width:1.00037193" aria-label="E" transform="translate(1.4799054e-5,3.192922e-6)">
        <path inkscape:connector-curvature="0" id="path59456" style="font-style:normal;font-variant:normal;font-weight:normal;font-stretch:normal;font-size:80.02975464px;font-family:'Stint Ultra Condensed';-inkscape-font-specification:'Stint Ultra Condensed, ';text-align:center;text-anchor:middle;stroke-width:1.00037193" d="m 2125.1526,864.75609 v -11.68403 h -9.2613 v 18.75697 h 8.6361 v 4.37663 h -8.6361 v 21.7659 h 9.8474 v -12.46557 h 4.2204 v 16.88128 h -24.1496 v -4.41571 h 4.7674 v -44.8995 h -4.7674 v -4.37663 h 23.6025 v 16.06066 z"/>
      </g>
      <g id="text32329" style="font-style:normal;font-variant:normal;font-weight:normal;font-stretch:normal;font-size:80.02975464px;line-height:125%;font-family:'Stint Ultra Condensed';-inkscape-font-specification:'Stint Ultra Condensed, ';font-variant-ligatures:normal;font-variant-caps:normal;font-variant-numeric:normal;font-feature-settings:normal;text-align:center;letter-spacing:0px;word-spacing:0px;writing-mode:lr-tb;text-anchor:middle;display:inline;fill:#000000;fill-opacity:1;stroke:none;stroke-width:1.00037193" transform="rotate(180,7.3995273e-6,1.596461e-6)" aria-label="E">
        <path inkscape:connector-curvature="0" id="path59453" style="font-style:normal;font-variant:normal;font-weight:normal;font-stretch:normal;font-size:80.02975464px;font-family:'Stint Ultra Condensed';-inkscape-font-specification:'Stint Ultra Condensed, ';text-align:center;text-anchor:middle;stroke-width:1.00037193" d="m -2268.0808,-1144.0943 v -11.684 h -9.2613 v 18.7569 h 8.6361 v 4.3767 h -8.6361 v 21.7659 h 9.8474 v -12.4656 h 4.2204 v 16.8813 h -24.1496 v -4.4157 h 4.7674 v -44.8995 h -4.7674 v -4.3767 h 23.6025 v 16.0607 z"/>
      </g>
      <g style="display:inline;stroke-width:0.63416415" transform="matrix(-3.7845091,0,0,-3.7845091,2196.5793,1004.4252)" id="g32989">
        <path style="stroke-width:0.63416415" d="m 3.92,-7.93 c -1.67,0 -2.55,1.78 -3.01,3.56 -0.46,1.78 -0.5,3.56 -0.5,3.56 l -0.85,0.01 c 0,0 -0.16,-7.13 -3.5,-7.13 z" id="path32985" inkscape:connector-curvature="0"/>
        <path style="stroke-width:0.63416415" d="M 6.75,-0.8 C 6.74,2.67 1.53,5.19 0,7.93 -1.53,5.18 -6.74,2.66 -6.75,-0.8 c 0,-1.64 1.51,-2.97 3.38,-2.97 1.86,0 3.37,1.33 3.37,2.97 0,-1.64 1.51,-2.97 3.38,-2.97 1.87,0 3.37,1.33 3.37,2.97 z" id="path32987" inkscape:connector-curvature="0"/>
      </g>
      <g style="stroke-width:1.0569402" transform="matrix(-2.2707054,0,0,-2.2707054,2118.5656,926.39612)" id="g33223">
        <path style="stroke-width:1.0569402" d="m 3.92,-7.93 c -1.67,0 -2.55,1.78 -3.01,3.56 -0.46,1.78 -0.5,3.56 -0.5,3.56 l -0.85,0.01 c 0,0 -0.16,-7.13 -3.5,-7.13 z" id="path33219" inkscape:connector-curvature="0"/>
        <path style="stroke-width:1.0569402" d="M 6.75,-0.8 C 6.74,2.67 1.53,5.19 0,7.93 -1.53,5.18 -6.74,2.66 -6.75,-0.8 c 0,-1.64 1.51,-2.97 3.38,-2.97 1.86,0 3.37,1.33 3.37,2.97 0,-1.64 1.51,-2.97 3.38,-2.97 1.87,0 3.37,1.33 3.37,2.97 z" id="path33221" inkscape:connector-curvature="0"/>
      </g>
      <g id="g33229" transform="matrix(2.2707054,0,0,2.2707054,2274.6689,1082.4542)" style="stroke-width:1.0569402">
        <path inkscape:connector-curvature="0" id="path33225" d="m 3.92,-7.93 c -1.67,0 -2.55,1.78 -3.01,3.56 -0.46,1.78 -0.5,3.56 -0.5,3.56 l -0.85,0.01 c 0,0 -0.16,-7.13 -3.5,-7.13 z" style="stroke-width:1.0569402"/>
        <path inkscape:connector-curvature="0" id="path33227" d="M 6.75,-0.8 C 6.74,2.67 1.53,5.19 0,7.93 -1.53,5.18 -6.74,2.66 -6.75,-0.8 c 0,-1.64 1.51,-2.97 3.38,-2.97 1.86,0 3.37,1.33 3.37,2.97 0,-1.64 1.51,-2.97 3.38,-2.97 1.87,0 3.37,1.33 3.37,2.97 z" style="stroke-width:1.0569402"/>
      </g>
    </g>
    </g></svg>
