<?xml version='1.0' encoding='UTF-8'?>
<!-- Created with Inkscape (http://www.inkscape.org/) and export_objects.py -->
<svg xmlns:cc="http://creativecommons.org/ns#" xmlns:dc="http://purl.org/dc/elements/1.1/" xmlns:inkscape="http://www.inkscape.org/namespaces/inkscape" xmlns:rdf="http://www.w3.org/1999/02/22-rdf-syntax-ns#" xmlns:sodipodi="http://sodipodi.sourceforge.net/DTD/sodipodi-0.dtd" xmlns:xlink="http://www.w3.org/1999/xlink" xmlns="http://www.w3.org/2000/svg" version="1.1" width="57.1500026458mm" height="88.8999973542mm" viewBox="0 0 57.1500026458 88.8999973542" id="svg24051" sodipodi:docname="spade-012.svg"><sodipodi:namedview id="base" pagecolor="#ffffff" bordercolor="#666666" borderopacity="1.0" inkscape:pageopacity="0.0" inkscape:pageshadow="2" inkscape:zoom="0.23049644" inkscape:cx="312.64252" inkscape:cy="711.76062" inkscape:document-units="mm" inkscape:current-layer="layer1" showgrid="false" inkscape:lockguides="true" inkscape:window-width="1280" inkscape:window-height="940" inkscape:window-x="1909" inkscape:window-y="43" inkscape:window-maximized="1"/>
  <metadata id="metadata24048">
    <rdf:RDF>
      <cc:Work rdf:about="">
        <dc:format>image/svg+xml</dc:format>
        <dc:type rdf:resource="http://purl.org/dc/dcmitype/StillImage"/>
      </cc:Work>
    </rdf:RDF>
  </metadata>
  <g inkscape:groupmode="layer" inkscape:label="spade-" transform="matrix(1.000000,0.000000,0.000000,1.000000,-403.395021,-64.230001)"><g transform="matrix(0.26448498,0,0,0.26448498,-364.90207,-178.0595)" id="g17894" inkscape:label="012">
      <rect style="display:inline;opacity:1;fill:#ffffff;fill-opacity:1;stroke:none;stroke-width:0.13338292;stroke-linecap:butt;stroke-linejoin:miter;stroke-miterlimit:47.14606857;stroke-dasharray:none;stroke-dashoffset:0;stroke-opacity:1;paint-order:markers fill stroke" id="rect32165" width="216.08034" height="336.12494" x="2904.8799" y="916.08038"/>
      <g id="text32309" style="font-style:normal;font-variant:normal;font-weight:normal;font-stretch:normal;font-size:80.02975464px;line-height:125%;font-family:'Stint Ultra Condensed';-inkscape-font-specification:'Stint Ultra Condensed, ';font-variant-ligatures:normal;font-variant-caps:normal;font-variant-numeric:normal;font-feature-settings:normal;text-align:center;letter-spacing:0px;word-spacing:0px;writing-mode:lr-tb;text-anchor:middle;display:inline;fill:#000000;fill-opacity:1;stroke:none;stroke-width:1.00037193" aria-label="3" transform="translate(-2088.7764,79.839752)">
        <path id="path12534" style="font-style:normal;font-variant:normal;font-weight:normal;font-stretch:normal;font-size:80.02975464px;font-family:'Stint Ultra Condensed';-inkscape-font-specification:'Stint Ultra Condensed, ';text-align:center;text-anchor:middle;stroke-width:1.00037193" d="m 5024.449,868.89348 q 3.1262,0.78154 4.9628,2.69631 1.8757,1.8757 2.8135,4.29847 0.977,2.3837 1.2505,5.00186 0.3126,2.57909 0.3126,4.72832 0,4.22032 -0.7424,7.54187 -0.7425,3.28247 -2.1493,5.54894 -1.4067,2.26647 -3.3997,3.43878 -1.9538,1.17231 -4.4157,1.17231 -2.0711,0 -3.9077,-1.016 -1.7975,-0.97693 -3.1652,-3.20432 -1.3677,-2.22739 -2.1493,-5.74432 -0.7815,-3.55601 -0.7815,-8.63603 h 4.8065 q 0,7.46372 1.3286,10.90249 1.3286,3.43878 4.1031,3.43878 1.524,0 2.5791,-1.05508 1.0551,-1.09415 1.6803,-2.93077 0.6643,-1.83662 0.9378,-4.2594 0.3126,-2.42278 0.3126,-5.11909 0,-2.93078 -0.4689,-5.31448 -0.4689,-2.42277 -1.524,-4.14216 -1.016,-1.71939 -2.6963,-2.65724 -1.6803,-0.97693 -4.1031,-1.016 v -4.22032 l 8.0108,-15.3182 h -9.6911 v 8.44064 h -4.2594 v -12.89542 h 19.4604 v 3.36063 z" inkscape:connector-curvature="0"/>
      </g>
      <g id="text32313" style="font-style:normal;font-variant:normal;font-weight:normal;font-stretch:normal;font-size:80.02975464px;line-height:125%;font-family:'Stint Ultra Condensed';-inkscape-font-specification:'Stint Ultra Condensed, ';font-variant-ligatures:normal;font-variant-caps:normal;font-variant-numeric:normal;font-feature-settings:normal;text-align:center;letter-spacing:0px;word-spacing:0px;writing-mode:lr-tb;text-anchor:middle;display:inline;fill:#000000;fill-opacity:1;stroke:none;stroke-width:1.00037193" transform="rotate(180,-1044.3882,39.919876)" aria-label="3">
        <path id="path12531" style="font-style:normal;font-variant:normal;font-weight:normal;font-stretch:normal;font-size:80.02975464px;font-family:'Stint Ultra Condensed';-inkscape-font-specification:'Stint Ultra Condensed, ';text-align:center;text-anchor:middle;stroke-width:1.00037193" d="m -5178.944,-1139.7128 q 3.1261,0.7815 4.9627,2.6963 1.8757,1.8757 2.8136,4.2984 0.9769,2.3837 1.2504,5.0019 0.3127,2.5791 0.3127,4.7283 0,4.2203 -0.7425,7.5419 -0.7425,3.2825 -2.1492,5.5489 -1.4068,2.2665 -3.3997,3.4388 -1.9539,1.1723 -4.4157,1.1723 -2.0711,0 -3.9077,-1.016 -1.7976,-0.9769 -3.1653,-3.2043 -1.3677,-2.2274 -2.1492,-5.7443 -0.7816,-3.556 -0.7816,-8.6361 h 4.8065 q 0,7.4638 1.3286,10.9025 1.3287,3.4388 4.1031,3.4388 1.524,0 2.5791,-1.0551 1.0551,-1.0941 1.6803,-2.9307 0.6643,-1.8367 0.9379,-4.2594 0.3126,-2.4228 0.3126,-5.1191 0,-2.9308 -0.4689,-5.3145 -0.469,-2.4228 -1.524,-4.1422 -1.016,-1.7194 -2.6964,-2.6572 -1.6803,-0.9769 -4.103,-1.016 v -4.2203 l 8.0107,-15.3182 h -9.6911 v 8.4406 h -4.2594 v -12.8954 h 19.4604 v 3.3606 z" inkscape:connector-curvature="0"/>
      </g>
      <g style="display:inline;stroke-width:0.63416415" transform="matrix(-3.7845091,0,0,-3.7845091,3012.8826,1084.1429)" id="g32959">
        <path style="stroke-width:0.63416415" d="m 3.92,-7.93 c -1.67,0 -2.55,1.78 -3.01,3.56 -0.46,1.78 -0.5,3.56 -0.5,3.56 l -0.85,0.01 c 0,0 -0.16,-7.13 -3.5,-7.13 z" id="path32955" inkscape:connector-curvature="0"/>
        <path style="stroke-width:0.63416415" d="M 6.75,-0.8 C 6.74,2.67 1.53,5.19 0,7.93 -1.53,5.18 -6.74,2.66 -6.75,-0.8 c 0,-1.64 1.51,-2.97 3.38,-2.97 1.86,0 3.37,1.33 3.37,2.97 0,-1.64 1.51,-2.97 3.38,-2.97 1.87,0 3.37,1.33 3.37,2.97 z" id="path32957" inkscape:connector-curvature="0"/>
      </g>
      <g id="g32965" transform="matrix(-3.7845091,0,0,-3.7845091,3012.8824,964.09832)" style="display:inline;stroke-width:0.63416415">
        <path inkscape:connector-curvature="0" id="path32961" d="m 3.92,-7.93 c -1.67,0 -2.55,1.78 -3.01,3.56 -0.46,1.78 -0.5,3.56 -0.5,3.56 l -0.85,0.01 c 0,0 -0.16,-7.13 -3.5,-7.13 z" style="stroke-width:0.63416415"/>
        <path inkscape:connector-curvature="0" id="path32963" d="M 6.75,-0.8 C 6.74,2.67 1.53,5.19 0,7.93 -1.53,5.18 -6.74,2.66 -6.75,-0.8 c 0,-1.64 1.51,-2.97 3.38,-2.97 1.86,0 3.37,1.33 3.37,2.97 0,-1.64 1.51,-2.97 3.38,-2.97 1.87,0 3.37,1.33 3.37,2.97 z" style="stroke-width:0.63416415"/>
      </g>
      <g id="g32971" transform="matrix(3.7845091,0,0,3.7845091,3012.9585,1204.1877)" style="display:inline;stroke-width:0.63416415">
        <path inkscape:connector-curvature="0" id="path32967" d="m 3.92,-7.93 c -1.67,0 -2.55,1.78 -3.01,3.56 -0.46,1.78 -0.5,3.56 -0.5,3.56 l -0.85,0.01 c 0,0 -0.16,-7.13 -3.5,-7.13 z" style="stroke-width:0.63416415"/>
        <path inkscape:connector-curvature="0" id="path32969" d="M 6.75,-0.8 C 6.74,2.67 1.53,5.19 0,7.93 -1.53,5.18 -6.74,2.66 -6.75,-0.8 c 0,-1.64 1.51,-2.97 3.38,-2.97 1.86,0 3.37,1.33 3.37,2.97 0,-1.64 1.51,-2.97 3.38,-2.97 1.87,0 3.37,1.33 3.37,2.97 z" style="stroke-width:0.63416415"/>
      </g>
      <g style="display:inline;stroke-width:1.0569402" transform="matrix(-2.2707054,0,0,-2.2707054,2934.8689,1006.1138)" id="g33199">
        <path style="stroke-width:1.0569402" d="m 3.92,-7.93 c -1.67,0 -2.55,1.78 -3.01,3.56 -0.46,1.78 -0.5,3.56 -0.5,3.56 l -0.85,0.01 c 0,0 -0.16,-7.13 -3.5,-7.13 z" id="path33195" inkscape:connector-curvature="0"/>
        <path style="stroke-width:1.0569402" d="M 6.75,-0.8 C 6.74,2.67 1.53,5.19 0,7.93 -1.53,5.18 -6.74,2.66 -6.75,-0.8 c 0,-1.64 1.51,-2.97 3.38,-2.97 1.86,0 3.37,1.33 3.37,2.97 0,-1.64 1.51,-2.97 3.38,-2.97 1.87,0 3.37,1.33 3.37,2.97 z" id="path33197" inkscape:connector-curvature="0"/>
      </g>
      <g id="g33205" transform="matrix(2.2707054,0,0,2.2707054,3090.9722,1162.172)" style="display:inline;stroke-width:1.0569402">
        <path inkscape:connector-curvature="0" id="path33201" d="m 3.92,-7.93 c -1.67,0 -2.55,1.78 -3.01,3.56 -0.46,1.78 -0.5,3.56 -0.5,3.56 l -0.85,0.01 c 0,0 -0.16,-7.13 -3.5,-7.13 z" style="stroke-width:1.0569402"/>
        <path inkscape:connector-curvature="0" id="path33203" d="M 6.75,-0.8 C 6.74,2.67 1.53,5.19 0,7.93 -1.53,5.18 -6.74,2.66 -6.75,-0.8 c 0,-1.64 1.51,-2.97 3.38,-2.97 1.86,0 3.37,1.33 3.37,2.97 0,-1.64 1.51,-2.97 3.38,-2.97 1.87,0 3.37,1.33 3.37,2.97 z" style="stroke-width:1.0569402"/>
      </g>
    </g>
    </g></svg>
