<?xml version='1.0' encoding='UTF-8'?>
<!-- Created with Inkscape (http://www.inkscape.org/) and export_objects.py -->
<svg xmlns:cc="http://creativecommons.org/ns#" xmlns:dc="http://purl.org/dc/elements/1.1/" xmlns:inkscape="http://www.inkscape.org/namespaces/inkscape" xmlns:rdf="http://www.w3.org/1999/02/22-rdf-syntax-ns#" xmlns:sodipodi="http://sodipodi.sourceforge.net/DTD/sodipodi-0.dtd" xmlns:xlink="http://www.w3.org/1999/xlink" xmlns="http://www.w3.org/2000/svg" version="1.1" width="57.1500052917mm" height="88.9000026458mm" viewBox="0 0 57.1500052917 88.9000026458" id="svg3285" sodipodi:docname="six-001.svg"><sodipodi:namedview id="base" pagecolor="#ffffff" bordercolor="#666666" borderopacity="1.0" inkscape:pageopacity="0.0" inkscape:pageshadow="2" inkscape:zoom="0.35" inkscape:cx="-50" inkscape:cy="560" inkscape:document-units="mm" inkscape:current-layer="layer1" showgrid="false" inkscape:window-width="1280" inkscape:window-height="940" inkscape:window-x="1909" inkscape:window-y="43" inkscape:window-maximized="1"/>
  <metadata id="metadata3282">
    <rdf:RDF>
      <cc:Work rdf:about="">
        <dc:format>image/svg+xml</dc:format>
        <dc:type rdf:resource="http://purl.org/dc/dcmitype/StillImage"/>
      </cc:Work>
    </rdf:RDF>
  </metadata>
  <g inkscape:groupmode="layer" inkscape:label="six-" transform="matrix(1.000000,0.000000,0.000000,1.000000,-74.234519,-265.098821)"><g id="g3753" inkscape:label="001">
      <rect y="265.09882" x="74.23452" height="88.900002" width="57.150005" id="rect32159" style="display:inline;opacity:1;fill:#ffffff;fill-opacity:1;stroke:none;stroke-width:0.03527778;stroke-linecap:butt;stroke-linejoin:miter;stroke-miterlimit:47.14606857;stroke-dasharray:none;stroke-dashoffset:0;stroke-opacity:1;paint-order:markers fill stroke"/>
      <g id="text32285" style="font-style:normal;font-variant:normal;font-weight:normal;font-stretch:normal;font-size:21.16666794px;line-height:125%;font-family:'Stint Ultra Condensed';-inkscape-font-specification:'Stint Ultra Condensed, ';font-variant-ligatures:normal;font-variant-caps:normal;font-variant-numeric:normal;font-feature-settings:normal;text-align:center;letter-spacing:0px;word-spacing:0px;writing-mode:lr-tb;text-anchor:middle;display:inline;fill:#000000;fill-opacity:1;stroke:none;stroke-width:0.26458338" aria-label="6">
        <path id="path3582" style="font-style:normal;font-variant:normal;font-weight:normal;font-stretch:normal;font-size:21.16666794px;font-family:'Stint Ultra Condensed';-inkscape-font-specification:'Stint Ultra Condensed, ';text-align:center;text-anchor:middle;stroke-width:0.26458338" d="m 80.704432,275.19228 q 0.07235,-0.18603 0.206706,-0.47542 0.144694,-0.28939 0.37207,-0.55811 0.237712,-0.27905 0.568441,-0.46509 0.330729,-0.19637 0.785482,-0.19637 0.506429,0 0.950846,0.28939 0.444418,0.28939 0.764811,0.86817 0.33073,0.57877 0.516765,1.45727 0.19637,0.86817 0.19637,2.04639 0,0.97152 -0.186035,1.82934 -0.1757,0.8475 -0.516764,1.48829 -0.341065,0.63045 -0.837159,1.00252 -0.496093,0.36173 -1.126546,0.36173 -0.630452,0 -1.178223,-0.42374 -0.537434,-0.43409 -0.940511,-1.29191 -0.403076,-0.86817 -0.640787,-2.17041 -0.227377,-1.30225 -0.227377,-3.05925 0,-1.79834 0.1757,-3.23494 0.1757,-1.44694 0.537435,-2.4598 0.37207,-1.01286 0.930176,-1.5503 0.568441,-0.54777 1.343587,-0.54777 0.496094,0 0.940511,0.27906 0.444418,0.26871 0.775147,0.80615 0.341064,0.53743 0.527099,1.34359 0.196371,0.79581 0.196371,1.85001 h -1.27124 q 0,-1.53996 -0.310059,-2.34611 -0.299723,-0.80615 -0.919841,-0.80615 -0.434082,0 -0.74414,0.48576 -0.310059,0.47542 -0.506429,1.29191 -0.196371,0.81649 -0.289388,1.90169 -0.09302,1.07487 -0.09302,2.2841 z m 1.674317,-0.56844 q -0.320394,0 -0.578776,0.29972 -0.258383,0.29973 -0.465088,0.73381 -0.196371,0.43408 -0.33073,0.93017 -0.134358,0.4961 -0.19637,0.88884 -0.02067,0.77515 0.08268,1.52962 0.113688,0.75448 0.320394,1.36426 0.217041,0.59945 0.516765,0.97152 0.310058,0.37207 0.671793,0.37207 0.330729,0 0.589112,-0.24805 0.258382,-0.25838 0.434082,-0.72347 0.175699,-0.46509 0.258382,-1.11621 0.09302,-0.66146 0.09302,-1.46761 0,-0.82682 -0.08268,-1.47795 -0.08268,-0.66146 -0.258382,-1.11621 -0.165365,-0.45475 -0.434082,-0.69246 -0.258382,-0.24805 -0.620117,-0.24805 z"/>
      </g>
      <g id="text32289" style="font-style:normal;font-variant:normal;font-weight:normal;font-stretch:normal;font-size:21.16666794px;line-height:125%;font-family:'Stint Ultra Condensed';-inkscape-font-specification:'Stint Ultra Condensed, ';font-variant-ligatures:normal;font-variant-caps:normal;font-variant-numeric:normal;font-feature-settings:normal;text-align:center;letter-spacing:0px;word-spacing:0px;writing-mode:lr-tb;text-anchor:middle;display:inline;fill:#000000;fill-opacity:1;stroke:none;stroke-width:0.26458338" transform="scale(-1)" aria-label="6">
        <path id="path3579" style="font-style:normal;font-variant:normal;font-weight:normal;font-stretch:normal;font-size:21.16666794px;font-family:'Stint Ultra Condensed';-inkscape-font-specification:'Stint Ultra Condensed, ';text-align:center;text-anchor:middle;stroke-width:0.26458338" d="m -124.91468,-343.90538 q 0.0724,-0.18603 0.20671,-0.47542 0.14469,-0.28939 0.37207,-0.5581 0.23771,-0.27906 0.56844,-0.46509 0.33073,-0.19637 0.78548,-0.19637 0.50643,0 0.95085,0.28939 0.44441,0.28938 0.76481,0.86816 0.33073,0.57878 0.51676,1.45727 0.19637,0.86817 0.19637,2.04639 0,0.97152 -0.18603,1.82935 -0.1757,0.84749 -0.51677,1.48828 -0.34106,0.63045 -0.83715,1.00252 -0.4961,0.36174 -1.12655,0.36174 -0.63045,0 -1.17822,-0.42375 -0.53744,-0.43408 -0.94051,-1.29191 -0.40308,-0.86816 -0.64079,-2.17041 -0.22738,-1.30225 -0.22738,-3.05925 0,-1.79834 0.1757,-3.23494 0.1757,-1.44694 0.53744,-2.4598 0.37207,-1.01286 0.93017,-1.55029 0.56844,-0.54777 1.34359,-0.54777 0.49609,0 0.94051,0.27905 0.44442,0.26872 0.77515,0.80615 0.34106,0.53744 0.5271,1.34359 0.19637,0.79582 0.19637,1.85002 h -1.27124 q 0,-1.53996 -0.31006,-2.34611 -0.29973,-0.80616 -0.91984,-0.80616 -0.43408,0 -0.74414,0.48576 -0.31006,0.47543 -0.50643,1.29191 -0.19637,0.81649 -0.28939,1.9017 -0.093,1.07487 -0.093,2.28409 z m 1.67432,-0.56844 q -0.3204,0 -0.57878,0.29973 -0.25838,0.29972 -0.46509,0.7338 -0.19637,0.43408 -0.33072,0.93018 -0.13436,0.49609 -0.19638,0.88883 -0.0207,0.77515 0.0827,1.52963 0.11369,0.75447 0.32039,1.36425 0.21704,0.59945 0.51677,0.97152 0.31005,0.37207 0.67179,0.37207 0.33073,0 0.58911,-0.24805 0.25838,-0.25838 0.43408,-0.72347 0.1757,-0.46508 0.25838,-1.11621 0.093,-0.66146 0.093,-1.46761 0,-0.82682 -0.0827,-1.47794 -0.0827,-0.66146 -0.25838,-1.11622 -0.16537,-0.45475 -0.43408,-0.69246 -0.25839,-0.24805 -0.62012,-0.24805 z"/>
      </g>
      <g transform="matrix(0.26448498,0,0,0.26448498,-1030.879,443.97449)" id="g3599" style="display:inline">
        <g id="g3299" transform="matrix(-1.8922546,-3.277481,3.277481,-1.8922546,4247.3981,-485.73654)" style="stroke-width:0.63416415">
          <path inkscape:connector-curvature="0" id="path3295" d="m 3.92,-7.93 c -1.67,0 -2.55,1.78 -3.01,3.56 -0.46,1.78 -0.5,3.56 -0.5,3.56 l -0.85,0.01 c 0,0 -0.16,-7.13 -3.5,-7.13 z" style="stroke-width:0.63416415"/>
          <path inkscape:connector-curvature="0" id="path3297" d="M 6.75,-0.8 C 6.74,2.67 1.53,5.19 0,7.93 -1.53,5.18 -6.74,2.66 -6.75,-0.8 c 0,-1.64 1.51,-2.97 3.38,-2.97 1.86,0 3.37,1.33 3.37,2.97 0,-1.64 1.51,-2.97 3.38,-2.97 1.87,0 3.37,1.33 3.37,2.97 z" style="stroke-width:0.63416415"/>
        </g>
        <g style="stroke-width:0.63416415" transform="matrix(1.8922545,-3.2774811,3.2774811,1.8922545,4247.3981,-530.7724)" id="g3305">
          <path style="stroke-width:0.63416415" d="m 3.92,-7.93 c -1.67,0 -2.55,1.78 -3.01,3.56 -0.46,1.78 -0.5,3.56 -0.5,3.56 l -0.85,0.01 c 0,0 -0.16,-7.13 -3.5,-7.13 z" id="path3301" inkscape:connector-curvature="0"/>
          <path style="stroke-width:0.63416415" d="M 6.75,-0.8 C 6.74,2.67 1.53,5.19 0,7.93 -1.53,5.18 -6.74,2.66 -6.75,-0.8 c 0,-1.64 1.51,-2.97 3.38,-2.97 1.86,0 3.37,1.33 3.37,2.97 0,-1.64 1.51,-2.97 3.38,-2.97 1.87,0 3.37,1.33 3.37,2.97 z" id="path3303" inkscape:connector-curvature="0"/>
        </g>
        <g id="g3543" transform="matrix(3.7845091,-8.2574579e-8,8.2574579e-8,3.7845091,4286.4003,-553.29033)" style="stroke-width:0.63416415">
          <path inkscape:connector-curvature="0" id="path3539" d="m 3.92,-7.93 c -1.67,0 -2.55,1.78 -3.01,3.56 -0.46,1.78 -0.5,3.56 -0.5,3.56 l -0.85,0.01 c 0,0 -0.16,-7.13 -3.5,-7.13 z" style="stroke-width:0.63416415"/>
          <path inkscape:connector-curvature="0" id="path3541" d="M 6.75,-0.8 C 6.74,2.67 1.53,5.19 0,7.93 -1.53,5.18 -6.74,2.66 -6.75,-0.8 c 0,-1.64 1.51,-2.97 3.38,-2.97 1.86,0 3.37,1.33 3.37,2.97 0,-1.64 1.51,-2.97 3.38,-2.97 1.87,0 3.37,1.33 3.37,2.97 z" style="stroke-width:0.63416415"/>
        </g>
        <g style="stroke-width:0.63416415" transform="matrix(1.8922546,3.277481,-3.277481,1.8922546,4325.4025,-530.7724)" id="g3555">
          <path style="stroke-width:0.63416415" d="m 3.92,-7.93 c -1.67,0 -2.55,1.78 -3.01,3.56 -0.46,1.78 -0.5,3.56 -0.5,3.56 l -0.85,0.01 c 0,0 -0.16,-7.13 -3.5,-7.13 z" id="path3551" inkscape:connector-curvature="0"/>
          <path style="stroke-width:0.63416415" d="M 6.75,-0.8 C 6.74,2.67 1.53,5.19 0,7.93 -1.53,5.18 -6.74,2.66 -6.75,-0.8 c 0,-1.64 1.51,-2.97 3.38,-2.97 1.86,0 3.37,1.33 3.37,2.97 0,-1.64 1.51,-2.97 3.38,-2.97 1.87,0 3.37,1.33 3.37,2.97 z" id="path3553" inkscape:connector-curvature="0"/>
        </g>
        <g id="g3567" transform="matrix(-1.8922545,3.2774811,-3.2774811,-1.8922545,4325.4025,-485.73654)" style="stroke-width:0.63416415">
          <path inkscape:connector-curvature="0" id="path3563" d="m 3.92,-7.93 c -1.67,0 -2.55,1.78 -3.01,3.56 -0.46,1.78 -0.5,3.56 -0.5,3.56 l -0.85,0.01 c 0,0 -0.16,-7.13 -3.5,-7.13 z" style="stroke-width:0.63416415"/>
          <path inkscape:connector-curvature="0" id="path3565" d="M 6.75,-0.8 C 6.74,2.67 1.53,5.19 0,7.93 -1.53,5.18 -6.74,2.66 -6.75,-0.8 c 0,-1.64 1.51,-2.97 3.38,-2.97 1.86,0 3.37,1.33 3.37,2.97 0,-1.64 1.51,-2.97 3.38,-2.97 1.87,0 3.37,1.33 3.37,2.97 z" style="stroke-width:0.63416415"/>
        </g>
        <g style="stroke-width:0.63416415" transform="matrix(-3.7845091,8.2574579e-8,-8.2574579e-8,-3.7845091,4286.4003,-463.21861)" id="g3579">
          <path style="stroke-width:0.63416415" d="m 3.92,-7.93 c -1.67,0 -2.55,1.78 -3.01,3.56 -0.46,1.78 -0.5,3.56 -0.5,3.56 l -0.85,0.01 c 0,0 -0.16,-7.13 -3.5,-7.13 z" id="path3575" inkscape:connector-curvature="0"/>
          <path style="stroke-width:0.63416415" d="M 6.75,-0.8 C 6.74,2.67 1.53,5.19 0,7.93 -1.53,5.18 -6.74,2.66 -6.75,-0.8 c 0,-1.64 1.51,-2.97 3.38,-2.97 1.86,0 3.37,1.33 3.37,2.97 0,-1.64 1.51,-2.97 3.38,-2.97 1.87,0 3.37,1.33 3.37,2.97 z" id="path3577" inkscape:connector-curvature="0"/>
        </g>
      </g>
      <g id="g33163" transform="matrix(-0.60056747,0,0,-0.60056747,82.16603,288.9113)" style="display:inline;stroke-width:1.0569402">
        <path inkscape:connector-curvature="0" id="path33159" d="m 3.92,-7.93 c -1.67,0 -2.55,1.78 -3.01,3.56 -0.46,1.78 -0.5,3.56 -0.5,3.56 l -0.85,0.01 c 0,0 -0.16,-7.13 -3.5,-7.13 z" style="stroke-width:1.0569402"/>
        <path inkscape:connector-curvature="0" id="path33161" d="M 6.75,-0.8 C 6.74,2.67 1.53,5.19 0,7.93 -1.53,5.18 -6.74,2.66 -6.75,-0.8 c 0,-1.64 1.51,-2.97 3.38,-2.97 1.86,0 3.37,1.33 3.37,2.97 0,-1.64 1.51,-2.97 3.38,-2.97 1.87,0 3.37,1.33 3.37,2.97 z" style="stroke-width:1.0569402"/>
      </g>
      <g style="display:inline;stroke-width:1.0569402" transform="matrix(0.60056747,0,0,0.60056747,123.45299,330.18633)" id="g33169">
        <path style="stroke-width:1.0569402" d="m 3.92,-7.93 c -1.67,0 -2.55,1.78 -3.01,3.56 -0.46,1.78 -0.5,3.56 -0.5,3.56 l -0.85,0.01 c 0,0 -0.16,-7.13 -3.5,-7.13 z" id="path33165" inkscape:connector-curvature="0"/>
        <path style="stroke-width:1.0569402" d="M 6.75,-0.8 C 6.74,2.67 1.53,5.19 0,7.93 -1.53,5.18 -6.74,2.66 -6.75,-0.8 c 0,-1.64 1.51,-2.97 3.38,-2.97 1.86,0 3.37,1.33 3.37,2.97 0,-1.64 1.51,-2.97 3.38,-2.97 1.87,0 3.37,1.33 3.37,2.97 z" id="path33167" inkscape:connector-curvature="0"/>
      </g>
    </g>
    </g></svg>
