<?xml version='1.0' encoding='UTF-8'?>
<!-- Created with Inkscape (http://www.inkscape.org/) and export_objects.py -->
<svg xmlns:cc="http://creativecommons.org/ns#" xmlns:dc="http://purl.org/dc/elements/1.1/" xmlns:inkscape="http://www.inkscape.org/namespaces/inkscape" xmlns:rdf="http://www.w3.org/1999/02/22-rdf-syntax-ns#" xmlns:sodipodi="http://sodipodi.sourceforge.net/DTD/sodipodi-0.dtd" xmlns:xlink="http://www.w3.org/1999/xlink" xmlns="http://www.w3.org/2000/svg" version="1.1" width="57.1500026458mm" height="88.8999973542mm" viewBox="0 0 57.1500026458 88.8999973542" id="svg4919" sodipodi:docname="n-003.svg"><sodipodi:namedview id="base" pagecolor="#ffffff" bordercolor="#666666" borderopacity="1.0" inkscape:pageopacity="0.0" inkscape:pageshadow="2" inkscape:zoom="0.35" inkscape:cx="-50" inkscape:cy="560" inkscape:document-units="mm" inkscape:current-layer="layer1" showgrid="false" inkscape:window-width="1280" inkscape:window-height="940" inkscape:window-x="1909" inkscape:window-y="43" inkscape:window-maximized="1"/>
  <metadata id="metadata4916">
    <rdf:RDF>
      <cc:Work rdf:about="">
        <dc:format>image/svg+xml</dc:format>
        <dc:type rdf:resource="http://purl.org/dc/dcmitype/StillImage"/>
      </cc:Work>
    </rdf:RDF>
  </metadata>
  <g inkscape:groupmode="layer" inkscape:label="n-" transform="matrix(1.000000,0.000000,0.000000,1.000000,-223.459511,-213.694063)"><g transform="matrix(0.26448498,0,0,0.26448498,-195.58756,-28.595439)" id="g4328" inkscape:label="003">
      <rect y="916.08038" x="1584.3889" height="336.12494" width="216.08034" id="rect32155" style="display:inline;opacity:1;fill:#ffffff;fill-opacity:1;stroke:none;stroke-width:0.13338292;stroke-linecap:butt;stroke-linejoin:miter;stroke-miterlimit:47.14606857;stroke-dasharray:none;stroke-dashoffset:0;stroke-opacity:1;paint-order:markers fill stroke"/>
      <g id="text32269" style="font-style:normal;font-variant:normal;font-weight:normal;font-stretch:normal;font-size:80.02975464px;line-height:125%;font-family:'Stint Ultra Condensed';-inkscape-font-specification:'Stint Ultra Condensed, ';font-variant-ligatures:normal;font-variant-caps:normal;font-variant-numeric:normal;font-feature-settings:normal;text-align:center;letter-spacing:0px;word-spacing:0px;writing-mode:lr-tb;text-anchor:middle;display:inline;fill:#000000;fill-opacity:1;stroke:none;stroke-width:1.00037193" aria-label="8" transform="translate(-2088.7764,79.839752)">
        <path id="path12564" style="font-style:normal;font-variant:normal;font-weight:normal;font-stretch:normal;font-size:80.02975464px;font-family:'Stint Ultra Condensed';-inkscape-font-specification:'Stint Ultra Condensed, ';text-align:center;text-anchor:middle;stroke-width:1.00037193" d="m 3707.0058,872.95743 q 3.556,1.32862 5.3145,5.15816 1.7975,3.82955 1.7975,9.49572 0,3.47786 -0.7424,6.36956 -0.7425,2.8917 -2.1493,4.96278 -1.4067,2.07108 -3.4387,3.24339 -2.032,1.13324 -4.6111,1.13324 -2.5791,0 -4.6111,-1.13324 -2.032,-1.17231 -3.4779,-3.24339 -1.4067,-2.07108 -2.1492,-4.96278 -0.7425,-2.8917 -0.7425,-6.36956 0,-2.81354 0.4689,-5.23632 0.469,-2.42278 1.3677,-4.29847 0.8988,-1.91478 2.2274,-3.2434 1.3287,-1.36769 3.048,-2.032 -1.4067,-0.82062 -2.4618,-2.11016 -1.016,-1.32862 -1.7194,-2.85262 -0.6643,-1.56309 -1.016,-3.28247 -0.3126,-1.71939 -0.3126,-3.36063 0,-3.00893 0.6643,-5.50986 0.6643,-2.50093 1.8757,-4.29847 1.2505,-1.79755 2.9698,-2.77447 1.7194,-1.01601 3.7905,-1.01601 2.0711,0 3.7905,1.01601 1.7194,0.97692 2.9698,2.77447 1.2505,1.79754 1.9539,4.29847 0.7034,2.50093 0.7034,5.50986 0,1.64124 -0.3517,3.3997 -0.3126,1.71939 -1.016,3.32155 -0.6643,1.56308 -1.7194,2.8917 -1.016,1.32862 -2.4228,2.14924 z m 0.7034,-11.48865 q 0,-1.91477 -0.2735,-3.67324 -0.2345,-1.75847 -0.7816,-3.08709 -0.508,-1.36769 -1.4067,-2.14923 -0.8597,-0.78154 -2.0711,-0.78154 -1.2505,0 -2.1493,0.78154 -0.8597,0.78154 -1.4067,2.14923 -0.5471,1.32862 -0.7816,3.08709 -0.2344,1.75847 -0.2344,3.67324 0,1.91477 0.2735,3.67324 0.2735,1.75847 0.8206,3.08709 0.5862,1.32861 1.4459,2.11016 0.8597,0.78154 2.032,0.78154 1.1723,0 2.032,-0.78154 0.8597,-0.78155 1.4067,-2.11016 0.5471,-1.32862 0.8207,-3.08709 0.2735,-1.75847 0.2735,-3.67324 z m -4.5329,13.59881 q -2.8527,0 -4.4548,3.16524 -1.5631,3.16523 -1.5631,8.8314 0,5.6271 1.524,8.87049 1.524,3.20432 4.4939,3.20432 2.9307,0 4.4548,-3.20432 1.524,-3.24339 1.524,-8.87049 0,-2.81354 -0.4299,-5.04093 -0.3908,-2.22739 -1.1723,-3.7514 -0.7815,-1.56308 -1.9148,-2.3837 -1.0941,-0.82061 -2.4618,-0.82061 z" inkscape:connector-curvature="0"/>
      </g>
      <g id="text32273" style="font-style:normal;font-variant:normal;font-weight:normal;font-stretch:normal;font-size:80.02975464px;line-height:125%;font-family:'Stint Ultra Condensed';-inkscape-font-specification:'Stint Ultra Condensed, ';font-variant-ligatures:normal;font-variant-caps:normal;font-variant-numeric:normal;font-feature-settings:normal;text-align:center;letter-spacing:0px;word-spacing:0px;writing-mode:lr-tb;text-anchor:middle;display:inline;fill:#000000;fill-opacity:1;stroke:none;stroke-width:1.00037193" transform="rotate(180,-1044.3882,39.919876)" aria-label="8">
        <path id="path12561" style="font-style:normal;font-variant:normal;font-weight:normal;font-stretch:normal;font-size:80.02975464px;font-family:'Stint Ultra Condensed';-inkscape-font-specification:'Stint Ultra Condensed, ';text-align:center;text-anchor:middle;stroke-width:1.00037193" d="m -3855.4048,-1135.6488 q 3.556,1.3286 5.3144,5.1581 1.7976,3.8296 1.7976,9.4957 0,3.4779 -0.7425,6.3696 -0.7424,2.8917 -2.1492,4.9628 -1.4068,2.0711 -3.4388,3.2434 -2.032,1.1332 -4.6111,1.1332 -2.5791,0 -4.6111,-1.1332 -2.032,-1.1723 -3.4778,-3.2434 -1.4068,-2.0711 -2.1493,-4.9628 -0.7424,-2.8917 -0.7424,-6.3696 0,-2.8135 0.4689,-5.2363 0.4689,-2.4227 1.3677,-4.2984 0.8988,-1.9148 2.2274,-3.2434 1.3286,-1.3677 3.048,-2.032 -1.4068,-0.8207 -2.4619,-2.1102 -1.016,-1.3286 -1.7193,-2.8526 -0.6644,-1.5631 -1.016,-3.2825 -0.3127,-1.7194 -0.3127,-3.3606 0,-3.009 0.6643,-5.5099 0.6644,-2.5009 1.8757,-4.2985 1.2505,-1.7975 2.9699,-2.7744 1.7194,-1.016 3.7905,-1.016 2.0711,0 3.7904,1.016 1.7194,0.9769 2.9699,2.7744 1.2505,1.7976 1.9538,4.2985 0.7034,2.5009 0.7034,5.5099 0,1.6412 -0.3517,3.3997 -0.3126,1.7194 -1.016,3.3215 -0.6643,1.5631 -1.7194,2.8917 -1.016,1.3286 -2.4227,2.1493 z m 0.7034,-11.4887 q 0,-1.9148 -0.2736,-3.6732 -0.2344,-1.7585 -0.7815,-3.0871 -0.508,-1.3677 -1.4068,-2.1492 -0.8597,-0.7816 -2.0711,-0.7816 -1.2504,0 -2.1492,0.7816 -0.8597,0.7815 -1.4068,2.1492 -0.5471,1.3286 -0.7815,3.0871 -0.2345,1.7584 -0.2345,3.6732 0,1.9148 0.2736,3.6733 0.2735,1.7584 0.8206,3.087 0.5861,1.3287 1.4458,2.1102 0.8597,0.7815 2.032,0.7815 1.1723,0 2.032,-0.7815 0.8597,-0.7815 1.4068,-2.1102 0.5471,-1.3286 0.8206,-3.087 0.2736,-1.7585 0.2736,-3.6733 z m -4.533,13.5988 q -2.8526,0 -4.4548,3.1653 -1.563,3.1652 -1.563,8.8314 0,5.6271 1.524,8.8705 1.524,3.2043 4.4938,3.2043 2.9308,0 4.4548,-3.2043 1.524,-3.2434 1.524,-8.8705 0,-2.8136 -0.4298,-5.041 -0.3908,-2.2274 -1.1723,-3.7514 -0.7816,-1.563 -1.9148,-2.3837 -1.0942,-0.8206 -2.4619,-0.8206 z" inkscape:connector-curvature="0"/>
      </g>
      <g style="display:inline;stroke-width:0.63416415" transform="matrix(-3.7845091,0,0,-3.7845091,1671.3835,964.09822)" id="g32779">
        <path style="stroke-width:0.63416415" d="m 3.92,-7.93 c -1.67,0 -2.55,1.78 -3.01,3.56 -0.46,1.78 -0.5,3.56 -0.5,3.56 l -0.85,0.01 c 0,0 -0.16,-7.13 -3.5,-7.13 z" id="path32775" inkscape:connector-curvature="0"/>
        <path style="stroke-width:0.63416415" d="M 6.75,-0.8 C 6.74,2.67 1.53,5.19 0,7.93 -1.53,5.18 -6.74,2.66 -6.75,-0.8 c 0,-1.64 1.51,-2.97 3.38,-2.97 1.86,0 3.37,1.33 3.37,2.97 0,-1.64 1.51,-2.97 3.38,-2.97 1.87,0 3.37,1.33 3.37,2.97 z" id="path32777" inkscape:connector-curvature="0"/>
      </g>
      <g id="g32785" transform="matrix(-3.7845091,0,0,-3.7845091,1755.4148,964.09822)" style="display:inline;stroke-width:0.63416415">
        <path inkscape:connector-curvature="0" id="path32781" d="m 3.92,-7.93 c -1.67,0 -2.55,1.78 -3.01,3.56 -0.46,1.78 -0.5,3.56 -0.5,3.56 l -0.85,0.01 c 0,0 -0.16,-7.13 -3.5,-7.13 z" style="stroke-width:0.63416415"/>
        <path inkscape:connector-curvature="0" id="path32783" d="M 6.75,-0.8 C 6.74,2.67 1.53,5.19 0,7.93 -1.53,5.18 -6.74,2.66 -6.75,-0.8 c 0,-1.64 1.51,-2.97 3.38,-2.97 1.86,0 3.37,1.33 3.37,2.97 0,-1.64 1.51,-2.97 3.38,-2.97 1.87,0 3.37,1.33 3.37,2.97 z" style="stroke-width:0.63416415"/>
      </g>
      <g id="g32791" transform="matrix(-3.7845091,0,0,-3.7845091,1671.3835,1060.1339)" style="display:inline;stroke-width:0.63416415">
        <path inkscape:connector-curvature="0" id="path32787" d="m 3.92,-7.93 c -1.67,0 -2.55,1.78 -3.01,3.56 -0.46,1.78 -0.5,3.56 -0.5,3.56 l -0.85,0.01 c 0,0 -0.16,-7.13 -3.5,-7.13 z" style="stroke-width:0.63416415"/>
        <path inkscape:connector-curvature="0" id="path32789" d="M 6.75,-0.8 C 6.74,2.67 1.53,5.19 0,7.93 -1.53,5.18 -6.74,2.66 -6.75,-0.8 c 0,-1.64 1.51,-2.97 3.38,-2.97 1.86,0 3.37,1.33 3.37,2.97 0,-1.64 1.51,-2.97 3.38,-2.97 1.87,0 3.37,1.33 3.37,2.97 z" style="stroke-width:0.63416415"/>
      </g>
      <g style="display:inline;stroke-width:0.63416415" transform="matrix(-3.7845091,0,0,-3.7845091,1755.4147,1060.1339)" id="g32797">
        <path style="stroke-width:0.63416415" d="m 3.92,-7.93 c -1.67,0 -2.55,1.78 -3.01,3.56 -0.46,1.78 -0.5,3.56 -0.5,3.56 l -0.85,0.01 c 0,0 -0.16,-7.13 -3.5,-7.13 z" id="path32793" inkscape:connector-curvature="0"/>
        <path style="stroke-width:0.63416415" d="M 6.75,-0.8 C 6.74,2.67 1.53,5.19 0,7.93 -1.53,5.18 -6.74,2.66 -6.75,-0.8 c 0,-1.64 1.51,-2.97 3.38,-2.97 1.86,0 3.37,1.33 3.37,2.97 0,-1.64 1.51,-2.97 3.38,-2.97 1.87,0 3.37,1.33 3.37,2.97 z" id="path32795" inkscape:connector-curvature="0"/>
      </g>
      <g style="display:inline;stroke-width:0.63416415" transform="matrix(3.7845091,0,0,3.7845091,1629.4437,1204.1875)" id="g32803">
        <path style="stroke-width:0.63416415" d="m 3.92,-7.93 c -1.67,0 -2.55,1.78 -3.01,3.56 -0.46,1.78 -0.5,3.56 -0.5,3.56 l -0.85,0.01 c 0,0 -0.16,-7.13 -3.5,-7.13 z" id="path32799" inkscape:connector-curvature="0"/>
        <path style="stroke-width:0.63416415" d="M 6.75,-0.8 C 6.74,2.67 1.53,5.19 0,7.93 -1.53,5.18 -6.74,2.66 -6.75,-0.8 c 0,-1.64 1.51,-2.97 3.38,-2.97 1.86,0 3.37,1.33 3.37,2.97 0,-1.64 1.51,-2.97 3.38,-2.97 1.87,0 3.37,1.33 3.37,2.97 z" id="path32801" inkscape:connector-curvature="0"/>
      </g>
      <g id="g32809" transform="matrix(3.7845091,0,0,3.7845091,1713.4748,1204.1875)" style="display:inline;stroke-width:0.63416415">
        <path inkscape:connector-curvature="0" id="path32805" d="m 3.92,-7.93 c -1.67,0 -2.55,1.78 -3.01,3.56 -0.46,1.78 -0.5,3.56 -0.5,3.56 l -0.85,0.01 c 0,0 -0.16,-7.13 -3.5,-7.13 z" style="stroke-width:0.63416415"/>
        <path inkscape:connector-curvature="0" id="path32807" d="M 6.75,-0.8 C 6.74,2.67 1.53,5.19 0,7.93 -1.53,5.18 -6.74,2.66 -6.75,-0.8 c 0,-1.64 1.51,-2.97 3.38,-2.97 1.86,0 3.37,1.33 3.37,2.97 0,-1.64 1.51,-2.97 3.38,-2.97 1.87,0 3.37,1.33 3.37,2.97 z" style="stroke-width:0.63416415"/>
      </g>
      <g id="g32815" transform="matrix(3.7845091,0,0,3.7845091,1629.4436,1108.1518)" style="display:inline;stroke-width:0.63416415">
        <path inkscape:connector-curvature="0" id="path32811" d="m 3.92,-7.93 c -1.67,0 -2.55,1.78 -3.01,3.56 -0.46,1.78 -0.5,3.56 -0.5,3.56 l -0.85,0.01 c 0,0 -0.16,-7.13 -3.5,-7.13 z" style="stroke-width:0.63416415"/>
        <path inkscape:connector-curvature="0" id="path32813" d="M 6.75,-0.8 C 6.74,2.67 1.53,5.19 0,7.93 -1.53,5.18 -6.74,2.66 -6.75,-0.8 c 0,-1.64 1.51,-2.97 3.38,-2.97 1.86,0 3.37,1.33 3.37,2.97 0,-1.64 1.51,-2.97 3.38,-2.97 1.87,0 3.37,1.33 3.37,2.97 z" style="stroke-width:0.63416415"/>
      </g>
      <g style="display:inline;stroke-width:0.63416415" transform="matrix(3.7845091,0,0,3.7845091,1713.4748,1108.1518)" id="g32821">
        <path style="stroke-width:0.63416415" d="m 3.92,-7.93 c -1.67,0 -2.55,1.78 -3.01,3.56 -0.46,1.78 -0.5,3.56 -0.5,3.56 l -0.85,0.01 c 0,0 -0.16,-7.13 -3.5,-7.13 z" id="path32817" inkscape:connector-curvature="0"/>
        <path style="stroke-width:0.63416415" d="M 6.75,-0.8 C 6.74,2.67 1.53,5.19 0,7.93 -1.53,5.18 -6.74,2.66 -6.75,-0.8 c 0,-1.64 1.51,-2.97 3.38,-2.97 1.86,0 3.37,1.33 3.37,2.97 0,-1.64 1.51,-2.97 3.38,-2.97 1.87,0 3.37,1.33 3.37,2.97 z" id="path32819" inkscape:connector-curvature="0"/>
      </g>
      <g id="g33139" transform="matrix(-2.2707054,0,0,-2.2707054,1614.3775,1006.1137)" style="display:inline;stroke-width:1.0569402">
        <path inkscape:connector-curvature="0" id="path33135" d="m 3.92,-7.93 c -1.67,0 -2.55,1.78 -3.01,3.56 -0.46,1.78 -0.5,3.56 -0.5,3.56 l -0.85,0.01 c 0,0 -0.16,-7.13 -3.5,-7.13 z" style="stroke-width:1.0569402"/>
        <path inkscape:connector-curvature="0" id="path33137" d="M 6.75,-0.8 C 6.74,2.67 1.53,5.19 0,7.93 -1.53,5.18 -6.74,2.66 -6.75,-0.8 c 0,-1.64 1.51,-2.97 3.38,-2.97 1.86,0 3.37,1.33 3.37,2.97 0,-1.64 1.51,-2.97 3.38,-2.97 1.87,0 3.37,1.33 3.37,2.97 z" style="stroke-width:1.0569402"/>
      </g>
      <g style="display:inline;stroke-width:1.0569402" transform="matrix(2.2707054,0,0,2.2707054,1770.4808,1162.1719)" id="g33145">
        <path style="stroke-width:1.0569402" d="m 3.92,-7.93 c -1.67,0 -2.55,1.78 -3.01,3.56 -0.46,1.78 -0.5,3.56 -0.5,3.56 l -0.85,0.01 c 0,0 -0.16,-7.13 -3.5,-7.13 z" id="path33141" inkscape:connector-curvature="0"/>
        <path style="stroke-width:1.0569402" d="M 6.75,-0.8 C 6.74,2.67 1.53,5.19 0,7.93 -1.53,5.18 -6.74,2.66 -6.75,-0.8 c 0,-1.64 1.51,-2.97 3.38,-2.97 1.86,0 3.37,1.33 3.37,2.97 0,-1.64 1.51,-2.97 3.38,-2.97 1.87,0 3.37,1.33 3.37,2.97 z" id="path33143" inkscape:connector-curvature="0"/>
      </g>
    </g>
    </g></svg>
