<?xml version='1.0' encoding='UTF-8'?>
<!-- Created with Inkscape (http://www.inkscape.org/) and export_objects.py -->
<svg xmlns:cc="http://creativecommons.org/ns#" xmlns:dc="http://purl.org/dc/elements/1.1/" xmlns:inkscape="http://www.inkscape.org/namespaces/inkscape" xmlns:rdf="http://www.w3.org/1999/02/22-rdf-syntax-ns#" xmlns:sodipodi="http://sodipodi.sourceforge.net/DTD/sodipodi-0.dtd" xmlns:xlink="http://www.w3.org/1999/xlink" xmlns="http://www.w3.org/2000/svg" version="1.1" width="57.1500026458mm" height="88.8999973542mm" viewBox="0 0 57.1500026458 88.8999973542" id="svg24051" sodipodi:docname="spade-010.svg"><sodipodi:namedview id="base" pagecolor="#ffffff" bordercolor="#666666" borderopacity="1.0" inkscape:pageopacity="0.0" inkscape:pageshadow="2" inkscape:zoom="0.23049644" inkscape:cx="312.64252" inkscape:cy="711.76062" inkscape:document-units="mm" inkscape:current-layer="layer1" showgrid="false" inkscape:lockguides="true" inkscape:window-width="1280" inkscape:window-height="940" inkscape:window-x="1909" inkscape:window-y="43" inkscape:window-maximized="1"/>
  <metadata id="metadata24048">
    <rdf:RDF>
      <cc:Work rdf:about="">
        <dc:format>image/svg+xml</dc:format>
        <dc:type rdf:resource="http://purl.org/dc/dcmitype/StillImage"/>
      </cc:Work>
    </rdf:RDF>
  </metadata>
  <g inkscape:groupmode="layer" inkscape:label="spade-" transform="matrix(1.000000,0.000000,0.000000,1.000000,-263.695042,-64.230001)"><g transform="matrix(0.26448498,0,0,0.26448498,-364.90207,-178.0595)" id="g17847" inkscape:label="010">
      <rect style="display:inline;opacity:1;fill:#ffffff;fill-opacity:1;stroke:none;stroke-width:0.13338292;stroke-linecap:butt;stroke-linejoin:miter;stroke-miterlimit:47.14606857;stroke-dasharray:none;stroke-dashoffset:0;stroke-opacity:1;paint-order:markers fill stroke" id="rect32161" width="216.08034" height="336.12494" x="2376.6836" y="916.08038"/>
      <g id="text32293" style="font-style:normal;font-variant:normal;font-weight:normal;font-stretch:normal;font-size:80.02975464px;line-height:125%;font-family:'Stint Ultra Condensed';-inkscape-font-specification:'Stint Ultra Condensed, ';font-variant-ligatures:normal;font-variant-caps:normal;font-variant-numeric:normal;font-feature-settings:normal;text-align:center;letter-spacing:0px;word-spacing:0px;writing-mode:lr-tb;text-anchor:middle;display:inline;fill:#000000;fill-opacity:1;stroke:none;stroke-width:1.00037193" aria-label="5" transform="translate(-2088.7764,79.839752)">
        <path id="path12546" style="font-style:normal;font-variant:normal;font-weight:normal;font-stretch:normal;font-size:80.02975464px;font-family:'Stint Ultra Condensed';-inkscape-font-specification:'Stint Ultra Condensed, ';text-align:center;text-anchor:middle;stroke-width:1.00037193" d="m 4490.4693,869.67496 q 1.2505,-1.44585 2.6182,-1.91478 1.4068,-0.46892 2.9308,-0.46892 2.2274,0 3.9858,1.36769 1.7976,1.3677 3.009,3.82955 1.2504,2.42278 1.9147,5.7834 0.6643,3.36063 0.6643,7.34648 0,3.67324 -0.5861,6.91664 -0.5862,3.20431 -1.8366,5.62709 -1.2114,2.3837 -3.1653,3.79047 -1.9538,1.3677 -4.6501,1.3677 -1.993,0.0781 -3.8687,-0.89877 -1.8366,-0.97693 -3.3215,-3.08709 -1.4459,-2.14924 -2.3446,-5.54894 -0.8597,-3.3997 -0.8597,-8.1671 h 4.8846 q 0,6.83848 1.5631,10.19911 1.6021,3.32155 3.9468,3.32155 1.3286,0 2.3055,-0.97693 0.9769,-1.016 1.6412,-2.81355 0.6643,-1.79754 0.977,-4.25939 0.3517,-2.50093 0.3517,-5.47079 0,-6.87755 -1.3677,-10.51172 -1.3677,-3.63416 -4.3767,-3.63416 -1.7584,0 -3.048,1.17231 -1.2504,1.13323 -1.9147,3.43878 h -3.9859 l 0.9378,-27.51023 h 16.9595 v 4.45478 h -12.7001 z" inkscape:connector-curvature="0"/>
      </g>
      <g id="text32297" style="font-style:normal;font-variant:normal;font-weight:normal;font-stretch:normal;font-size:80.02975464px;line-height:125%;font-family:'Stint Ultra Condensed';-inkscape-font-specification:'Stint Ultra Condensed, ';font-variant-ligatures:normal;font-variant-caps:normal;font-variant-numeric:normal;font-feature-settings:normal;text-align:center;letter-spacing:0px;word-spacing:0px;writing-mode:lr-tb;text-anchor:middle;display:inline;fill:#000000;fill-opacity:1;stroke:none;stroke-width:1.00037193" transform="rotate(180,-1044.3882,39.919876)" aria-label="5">
        <path id="path12543" style="font-style:normal;font-variant:normal;font-weight:normal;font-stretch:normal;font-size:80.02975464px;font-family:'Stint Ultra Condensed';-inkscape-font-specification:'Stint Ultra Condensed, ';text-align:center;text-anchor:middle;stroke-width:1.00037193" d="m -4656.5312,-1138.9313 q 1.2505,-1.4459 2.6182,-1.9148 1.4068,-0.4689 2.9308,-0.4689 2.2274,0 3.9858,1.3677 1.7976,1.3677 3.009,3.8295 1.2504,2.4228 1.9147,5.7834 0.6644,3.3607 0.6644,7.3465 0,3.6733 -0.5862,6.9167 -0.5862,3.2043 -1.8366,5.627 -1.2114,2.3837 -3.1653,3.7905 -1.9538,1.3677 -4.6501,1.3677 -1.993,0.078 -3.8687,-0.8988 -1.8366,-0.9769 -3.3215,-3.087 -1.4459,-2.1493 -2.3446,-5.549 -0.8597,-3.3997 -0.8597,-8.1671 h 4.8846 q 0,6.8385 1.5631,10.1991 1.6022,3.3216 3.9468,3.3216 1.3286,0 2.3055,-0.977 0.9769,-1.016 1.6413,-2.8135 0.6643,-1.7975 0.9769,-4.2594 0.3517,-2.5009 0.3517,-5.4708 0,-6.8775 -1.3677,-10.5117 -1.3677,-3.6342 -4.3767,-3.6342 -1.7584,0 -3.048,1.1723 -1.2504,1.1333 -1.9147,3.4388 h -3.9859 l 0.9379,-27.5102 h 16.9594 v 4.4548 h -12.7 z" inkscape:connector-curvature="0"/>
      </g>
      <g style="display:inline;stroke-width:0.63416415" transform="matrix(-3.7845091,0,0,-3.7845091,2484.6859,1084.1428)" id="g32905">
        <path style="stroke-width:0.63416415" d="m 3.92,-7.93 c -1.67,0 -2.55,1.78 -3.01,3.56 -0.46,1.78 -0.5,3.56 -0.5,3.56 l -0.85,0.01 c 0,0 -0.16,-7.13 -3.5,-7.13 z" id="path32901" inkscape:connector-curvature="0"/>
        <path style="stroke-width:0.63416415" d="M 6.75,-0.8 C 6.74,2.67 1.53,5.19 0,7.93 -1.53,5.18 -6.74,2.66 -6.75,-0.8 c 0,-1.64 1.51,-2.97 3.38,-2.97 1.86,0 3.37,1.33 3.37,2.97 0,-1.64 1.51,-2.97 3.38,-2.97 1.87,0 3.37,1.33 3.37,2.97 z" id="path32903" inkscape:connector-curvature="0"/>
      </g>
      <g id="g32911" transform="matrix(-3.7845091,0,0,-3.7845091,2550.7107,1084.1428)" style="display:inline;stroke-width:0.63416415">
        <path inkscape:connector-curvature="0" id="path32907" d="m 3.92,-7.93 c -1.67,0 -2.55,1.78 -3.01,3.56 -0.46,1.78 -0.5,3.56 -0.5,3.56 l -0.85,0.01 c 0,0 -0.16,-7.13 -3.5,-7.13 z" style="stroke-width:0.63416415"/>
        <path inkscape:connector-curvature="0" id="path32909" d="M 6.75,-0.8 C 6.74,2.67 1.53,5.19 0,7.93 -1.53,5.18 -6.74,2.66 -6.75,-0.8 c 0,-1.64 1.51,-2.97 3.38,-2.97 1.86,0 3.37,1.33 3.37,2.97 0,-1.64 1.51,-2.97 3.38,-2.97 1.87,0 3.37,1.33 3.37,2.97 z" style="stroke-width:0.63416415"/>
      </g>
      <g style="display:inline;stroke-width:0.63416415" transform="matrix(-3.7845091,0,0,-3.7845091,2418.6614,1084.1428)" id="g32917">
        <path style="stroke-width:0.63416415" d="m 3.92,-7.93 c -1.67,0 -2.55,1.78 -3.01,3.56 -0.46,1.78 -0.5,3.56 -0.5,3.56 l -0.85,0.01 c 0,0 -0.16,-7.13 -3.5,-7.13 z" id="path32913" inkscape:connector-curvature="0"/>
        <path style="stroke-width:0.63416415" d="M 6.75,-0.8 C 6.74,2.67 1.53,5.19 0,7.93 -1.53,5.18 -6.74,2.66 -6.75,-0.8 c 0,-1.64 1.51,-2.97 3.38,-2.97 1.86,0 3.37,1.33 3.37,2.97 0,-1.64 1.51,-2.97 3.38,-2.97 1.87,0 3.37,1.33 3.37,2.97 z" id="path32915" inkscape:connector-curvature="0"/>
      </g>
      <g id="g32923" transform="matrix(-3.7845091,0,0,-3.7845091,2484.6857,964.09822)" style="display:inline;stroke-width:0.63416415">
        <path inkscape:connector-curvature="0" id="path32919" d="m 3.92,-7.93 c -1.67,0 -2.55,1.78 -3.01,3.56 -0.46,1.78 -0.5,3.56 -0.5,3.56 l -0.85,0.01 c 0,0 -0.16,-7.13 -3.5,-7.13 z" style="stroke-width:0.63416415"/>
        <path inkscape:connector-curvature="0" id="path32921" d="M 6.75,-0.8 C 6.74,2.67 1.53,5.19 0,7.93 -1.53,5.18 -6.74,2.66 -6.75,-0.8 c 0,-1.64 1.51,-2.97 3.38,-2.97 1.86,0 3.37,1.33 3.37,2.97 0,-1.64 1.51,-2.97 3.38,-2.97 1.87,0 3.37,1.33 3.37,2.97 z" style="stroke-width:0.63416415"/>
      </g>
      <g id="g32929" transform="matrix(3.7845091,0,0,3.7845091,2484.7618,1204.1876)" style="display:inline;stroke-width:0.63416415">
        <path inkscape:connector-curvature="0" id="path32925" d="m 3.92,-7.93 c -1.67,0 -2.55,1.78 -3.01,3.56 -0.46,1.78 -0.5,3.56 -0.5,3.56 l -0.85,0.01 c 0,0 -0.16,-7.13 -3.5,-7.13 z" style="stroke-width:0.63416415"/>
        <path inkscape:connector-curvature="0" id="path32927" d="M 6.75,-0.8 C 6.74,2.67 1.53,5.19 0,7.93 -1.53,5.18 -6.74,2.66 -6.75,-0.8 c 0,-1.64 1.51,-2.97 3.38,-2.97 1.86,0 3.37,1.33 3.37,2.97 0,-1.64 1.51,-2.97 3.38,-2.97 1.87,0 3.37,1.33 3.37,2.97 z" style="stroke-width:0.63416415"/>
      </g>
      <g style="display:inline;stroke-width:1.0569402" transform="matrix(-2.2707054,0,0,-2.2707054,2406.6722,1006.1138)" id="g33175">
        <path style="stroke-width:1.0569402" d="m 3.92,-7.93 c -1.67,0 -2.55,1.78 -3.01,3.56 -0.46,1.78 -0.5,3.56 -0.5,3.56 l -0.85,0.01 c 0,0 -0.16,-7.13 -3.5,-7.13 z" id="path33171" inkscape:connector-curvature="0"/>
        <path style="stroke-width:1.0569402" d="M 6.75,-0.8 C 6.74,2.67 1.53,5.19 0,7.93 -1.53,5.18 -6.74,2.66 -6.75,-0.8 c 0,-1.64 1.51,-2.97 3.38,-2.97 1.86,0 3.37,1.33 3.37,2.97 0,-1.64 1.51,-2.97 3.38,-2.97 1.87,0 3.37,1.33 3.37,2.97 z" id="path33173" inkscape:connector-curvature="0"/>
      </g>
      <g id="g33181" transform="matrix(2.2707054,0,0,2.2707054,2562.7755,1162.172)" style="display:inline;stroke-width:1.0569402">
        <path inkscape:connector-curvature="0" id="path33177" d="m 3.92,-7.93 c -1.67,0 -2.55,1.78 -3.01,3.56 -0.46,1.78 -0.5,3.56 -0.5,3.56 l -0.85,0.01 c 0,0 -0.16,-7.13 -3.5,-7.13 z" style="stroke-width:1.0569402"/>
        <path inkscape:connector-curvature="0" id="path33179" d="M 6.75,-0.8 C 6.74,2.67 1.53,5.19 0,7.93 -1.53,5.18 -6.74,2.66 -6.75,-0.8 c 0,-1.64 1.51,-2.97 3.38,-2.97 1.86,0 3.37,1.33 3.37,2.97 0,-1.64 1.51,-2.97 3.38,-2.97 1.87,0 3.37,1.33 3.37,2.97 z" style="stroke-width:1.0569402"/>
      </g>
    </g>
    </g></svg>
