<?xml version='1.0' encoding='UTF-8'?>
<!-- Created with Inkscape (http://www.inkscape.org/) and export_objects.py -->
<svg xmlns:cc="http://creativecommons.org/ns#" xmlns:dc="http://purl.org/dc/elements/1.1/" xmlns:inkscape="http://www.inkscape.org/namespaces/inkscape" xmlns:rdf="http://www.w3.org/1999/02/22-rdf-syntax-ns#" xmlns:sodipodi="http://sodipodi.sourceforge.net/DTD/sodipodi-0.dtd" xmlns:xlink="http://www.w3.org/1999/xlink" xmlns="http://www.w3.org/2000/svg" version="1.1" width="57.1500026458mm" height="88.8999973542mm" viewBox="0 0 57.1500026458 88.8999973542" id="svg24051" sodipodi:docname="spade-006.svg"><sodipodi:namedview id="base" pagecolor="#ffffff" bordercolor="#666666" borderopacity="1.0" inkscape:pageopacity="0.0" inkscape:pageshadow="2" inkscape:zoom="0.23049644" inkscape:cx="312.64252" inkscape:cy="711.76062" inkscape:document-units="mm" inkscape:current-layer="layer1" showgrid="false" inkscape:lockguides="true" inkscape:window-width="1280" inkscape:window-height="940" inkscape:window-x="1909" inkscape:window-y="43" inkscape:window-maximized="1"/>
  <metadata id="metadata24048">
    <rdf:RDF>
      <cc:Work rdf:about="">
        <dc:format>image/svg+xml</dc:format>
        <dc:type rdf:resource="http://purl.org/dc/dcmitype/StillImage"/>
      </cc:Work>
    </rdf:RDF>
  </metadata>
  <g inkscape:groupmode="layer" inkscape:label="spade-" transform="matrix(1.000000,0.000000,0.000000,1.000000,15.704992,-64.230001)"><g transform="matrix(0.26448498,0,0,0.26448498,-364.90207,-178.0595)" id="g17369" inkscape:label="006">
      <rect style="display:inline;opacity:1;fill:#ffffff;fill-opacity:1;stroke:none;stroke-width:0.13338292;stroke-linecap:butt;stroke-linejoin:miter;stroke-miterlimit:47.14606857;stroke-dasharray:none;stroke-dashoffset:0;stroke-opacity:1;paint-order:markers fill stroke" id="rect32153" width="216.08034" height="336.12494" x="1320.2908" y="916.08038"/>
      <g id="text32261" style="font-style:normal;font-variant:normal;font-weight:normal;font-stretch:normal;font-size:80.02975464px;line-height:125%;font-family:'Stint Ultra Condensed';-inkscape-font-specification:'Stint Ultra Condensed, ';font-variant-ligatures:normal;font-variant-caps:normal;font-variant-numeric:normal;font-feature-settings:normal;text-align:center;letter-spacing:0px;word-spacing:0px;writing-mode:lr-tb;text-anchor:middle;display:inline;fill:#000000;fill-opacity:1;stroke:none;stroke-width:1.00037193" aria-label="9" transform="translate(-2088.7764,79.839752)">
        <path id="path12570" style="font-style:normal;font-variant:normal;font-weight:normal;font-stretch:normal;font-size:80.02975464px;font-family:'Stint Ultra Condensed';-inkscape-font-specification:'Stint Ultra Condensed, ';text-align:center;text-anchor:middle;stroke-width:1.00037193" d="m 3444.6661,876.51344 q -0.2735,0.70338 -0.8206,1.79754 -0.508,1.09416 -1.4068,2.11016 -0.8596,1.016 -2.1101,1.75847 -1.2505,0.70338 -2.9699,0.70338 -1.9147,0 -3.5951,-1.05508 -1.6803,-1.09416 -2.9307,-3.28247 -1.2114,-2.18831 -1.9539,-5.47078 -0.7034,-3.32155 -0.7034,-7.77633 0,-3.67324 0.6643,-6.87756 0.6644,-3.24339 1.9539,-5.62709 1.2895,-2.42278 3.1652,-3.79047 1.8757,-1.40678 4.2985,-1.40678 2.3837,0 4.4157,1.64124 2.0711,1.60216 3.5951,4.88463 1.524,3.24339 2.3837,8.1671 0.8988,4.9237 0.8988,11.5668 0,6.7994 -0.6643,12.27018 -0.6644,5.43171 -2.0711,9.26126 -1.3677,3.82955 -3.517,5.90063 -2.1101,2.03201 -5.0409,2.03201 -1.8757,0 -3.556,-1.05508 -1.6803,-1.016 -2.9699,-3.04801 -1.2504,-2.03201 -1.9929,-5.04094 -0.7034,-3.04801 -0.7034,-7.03386 h 4.8065 q 0,5.82247 1.1332,8.87048 1.1723,3.04801 3.517,3.04801 1.6412,0 2.8135,-1.79754 1.1723,-1.83662 1.9148,-4.92371 0.7425,-3.08708 1.0941,-7.15109 0.3517,-4.10309 0.3517,-8.6751 z m -6.3304,2.14923 q 1.2113,0 2.1883,-1.13323 0.9769,-1.13324 1.7194,-2.77447 0.7815,-1.64124 1.2895,-3.51693 0.508,-1.8757 0.7425,-3.3997 0.078,-2.8917 -0.3517,-5.74433 -0.3908,-2.8917 -1.2114,-5.15817 -0.7816,-2.26646 -1.9539,-3.67324 -1.1332,-1.40677 -2.5009,-1.40677 -1.2505,0 -2.2274,0.97693 -0.9769,0.93785 -1.6412,2.69631 -0.6643,1.75847 -1.016,4.2594 -0.3126,2.46185 -0.3126,5.50986 0,3.12616 0.3126,5.62709 0.3126,2.46185 0.9378,4.18124 0.6643,1.71939 1.6413,2.65724 1.016,0.89877 2.3837,0.89877 z" inkscape:connector-curvature="0"/>
      </g>
      <g id="text32265" style="font-style:normal;font-variant:normal;font-weight:normal;font-stretch:normal;font-size:80.02975464px;line-height:125%;font-family:'Stint Ultra Condensed';-inkscape-font-specification:'Stint Ultra Condensed, ';font-variant-ligatures:normal;font-variant-caps:normal;font-variant-numeric:normal;font-feature-settings:normal;text-align:center;letter-spacing:0px;word-spacing:0px;writing-mode:lr-tb;text-anchor:middle;display:inline;fill:#000000;fill-opacity:1;stroke:none;stroke-width:1.00037193" transform="rotate(180,-1044.3882,39.919876)" aria-label="9">
        <path id="path12567" style="font-style:normal;font-variant:normal;font-weight:normal;font-stretch:normal;font-size:80.02975464px;font-family:'Stint Ultra Condensed';-inkscape-font-specification:'Stint Ultra Condensed, ';text-align:center;text-anchor:middle;stroke-width:1.00037193" d="m -3589.5482,-1132.0928 q -0.2736,0.7034 -0.8206,1.7975 -0.508,1.0942 -1.4068,2.1102 -0.8597,1.016 -2.1102,1.7584 -1.2504,0.7034 -2.9698,0.7034 -1.9148,0 -3.5951,-1.0551 -1.6803,-1.0941 -2.9308,-3.2824 -1.2114,-2.1883 -1.9538,-5.4708 -0.7034,-3.3216 -0.7034,-7.7763 0,-3.6733 0.6643,-6.8776 0.6643,-3.2434 1.9538,-5.6271 1.2896,-2.4228 3.1653,-3.7905 1.8757,-1.4067 4.2985,-1.4067 2.3837,0 4.4157,1.6412 2.071,1.6022 3.595,4.8846 1.524,3.2434 2.3837,8.1671 0.8988,4.9237 0.8988,11.5668 0,6.7994 -0.6643,12.2702 -0.6643,5.4317 -2.0711,9.2613 -1.3677,3.8295 -3.5169,5.9006 -2.1102,2.032 -5.0409,2.032 -1.8757,0 -3.5561,-1.0551 -1.6803,-1.016 -2.9698,-3.048 -1.2505,-2.032 -1.9929,-5.0409 -0.7034,-3.048 -0.7034,-7.0339 h 4.8064 q 0,5.8225 1.1333,8.8705 1.1723,3.048 3.5169,3.048 1.6412,0 2.8136,-1.7975 1.1723,-1.8366 1.9147,-4.9237 0.7425,-3.0871 1.0942,-7.1511 0.3517,-4.1031 0.3517,-8.6751 z m -6.3305,2.1492 q 1.2114,0 2.1883,-1.1332 0.9769,-1.1333 1.7194,-2.7745 0.7815,-1.6412 1.2896,-3.5169 0.508,-1.8757 0.7424,-3.3997 0.078,-2.8917 -0.3517,-5.7443 -0.3907,-2.8918 -1.2114,-5.1582 -0.7815,-2.2665 -1.9538,-3.6733 -1.1333,-1.4067 -2.5009,-1.4067 -1.2505,0 -2.2274,0.9769 -0.977,0.9378 -1.6413,2.6963 -0.6643,1.7585 -1.016,4.2594 -0.3126,2.4619 -0.3126,5.5099 0,3.1261 0.3126,5.6271 0.3126,2.4618 0.9379,4.1812 0.6643,1.7194 1.6412,2.6572 1.016,0.8988 2.3837,0.8988 z" inkscape:connector-curvature="0"/>
      </g>
      <g id="g32725" transform="matrix(-3.7845091,0,0,-3.7845091,1407.2853,964.09822)" style="display:inline;stroke-width:0.63416415">
        <path inkscape:connector-curvature="0" id="path32721" d="m 3.92,-7.93 c -1.67,0 -2.55,1.78 -3.01,3.56 -0.46,1.78 -0.5,3.56 -0.5,3.56 l -0.85,0.01 c 0,0 -0.16,-7.13 -3.5,-7.13 z" style="stroke-width:0.63416415"/>
        <path inkscape:connector-curvature="0" id="path32723" d="M 6.75,-0.8 C 6.74,2.67 1.53,5.19 0,7.93 -1.53,5.18 -6.74,2.66 -6.75,-0.8 c 0,-1.64 1.51,-2.97 3.38,-2.97 1.86,0 3.37,1.33 3.37,2.97 0,-1.64 1.51,-2.97 3.38,-2.97 1.87,0 3.37,1.33 3.37,2.97 z" style="stroke-width:0.63416415"/>
      </g>
      <g style="display:inline;stroke-width:0.63416415" transform="matrix(-3.7845091,0,0,-3.7845091,1494.3176,964.09822)" id="g32731">
        <path style="stroke-width:0.63416415" d="m 3.92,-7.93 c -1.67,0 -2.55,1.78 -3.01,3.56 -0.46,1.78 -0.5,3.56 -0.5,3.56 l -0.85,0.01 c 0,0 -0.16,-7.13 -3.5,-7.13 z" id="path32727" inkscape:connector-curvature="0"/>
        <path style="stroke-width:0.63416415" d="M 6.75,-0.8 C 6.74,2.67 1.53,5.19 0,7.93 -1.53,5.18 -6.74,2.66 -6.75,-0.8 c 0,-1.64 1.51,-2.97 3.38,-2.97 1.86,0 3.37,1.33 3.37,2.97 0,-1.64 1.51,-2.97 3.38,-2.97 1.87,0 3.37,1.33 3.37,2.97 z" id="path32729" inkscape:connector-curvature="0"/>
      </g>
      <g id="g32737" transform="matrix(-3.7845091,0,0,-3.7845091,1449.3009,1012.1161)" style="display:inline;stroke-width:0.63416415">
        <path inkscape:connector-curvature="0" id="path32733" d="m 3.92,-7.93 c -1.67,0 -2.55,1.78 -3.01,3.56 -0.46,1.78 -0.5,3.56 -0.5,3.56 l -0.85,0.01 c 0,0 -0.16,-7.13 -3.5,-7.13 z" style="stroke-width:0.63416415"/>
        <path inkscape:connector-curvature="0" id="path32735" d="M 6.75,-0.8 C 6.74,2.67 1.53,5.19 0,7.93 -1.53,5.18 -6.74,2.66 -6.75,-0.8 c 0,-1.64 1.51,-2.97 3.38,-2.97 1.86,0 3.37,1.33 3.37,2.97 0,-1.64 1.51,-2.97 3.38,-2.97 1.87,0 3.37,1.33 3.37,2.97 z" style="stroke-width:0.63416415"/>
      </g>
      <g style="display:inline;stroke-width:0.63416415" transform="matrix(-3.7845091,0,0,-3.7845091,1407.2853,1060.1339)" id="g32743">
        <path style="stroke-width:0.63416415" d="m 3.92,-7.93 c -1.67,0 -2.55,1.78 -3.01,3.56 -0.46,1.78 -0.5,3.56 -0.5,3.56 l -0.85,0.01 c 0,0 -0.16,-7.13 -3.5,-7.13 z" id="path32739" inkscape:connector-curvature="0"/>
        <path style="stroke-width:0.63416415" d="M 6.75,-0.8 C 6.74,2.67 1.53,5.19 0,7.93 -1.53,5.18 -6.74,2.66 -6.75,-0.8 c 0,-1.64 1.51,-2.97 3.38,-2.97 1.86,0 3.37,1.33 3.37,2.97 0,-1.64 1.51,-2.97 3.38,-2.97 1.87,0 3.37,1.33 3.37,2.97 z" id="path32741" inkscape:connector-curvature="0"/>
      </g>
      <g id="g32749" transform="matrix(-3.7845091,0,0,-3.7845091,1494.3175,1060.1339)" style="display:inline;stroke-width:0.63416415">
        <path inkscape:connector-curvature="0" id="path32745" d="m 3.92,-7.93 c -1.67,0 -2.55,1.78 -3.01,3.56 -0.46,1.78 -0.5,3.56 -0.5,3.56 l -0.85,0.01 c 0,0 -0.16,-7.13 -3.5,-7.13 z" style="stroke-width:0.63416415"/>
        <path inkscape:connector-curvature="0" id="path32747" d="M 6.75,-0.8 C 6.74,2.67 1.53,5.19 0,7.93 -1.53,5.18 -6.74,2.66 -6.75,-0.8 c 0,-1.64 1.51,-2.97 3.38,-2.97 1.86,0 3.37,1.33 3.37,2.97 0,-1.64 1.51,-2.97 3.38,-2.97 1.87,0 3.37,1.33 3.37,2.97 z" style="stroke-width:0.63416415"/>
      </g>
      <g id="g32755" transform="matrix(3.7845091,0,0,3.7845091,1362.3444,1204.1875)" style="display:inline;stroke-width:0.63416415">
        <path inkscape:connector-curvature="0" id="path32751" d="m 3.92,-7.93 c -1.67,0 -2.55,1.78 -3.01,3.56 -0.46,1.78 -0.5,3.56 -0.5,3.56 l -0.85,0.01 c 0,0 -0.16,-7.13 -3.5,-7.13 z" style="stroke-width:0.63416415"/>
        <path inkscape:connector-curvature="0" id="path32753" d="M 6.75,-0.8 C 6.74,2.67 1.53,5.19 0,7.93 -1.53,5.18 -6.74,2.66 -6.75,-0.8 c 0,-1.64 1.51,-2.97 3.38,-2.97 1.86,0 3.37,1.33 3.37,2.97 0,-1.64 1.51,-2.97 3.38,-2.97 1.87,0 3.37,1.33 3.37,2.97 z" style="stroke-width:0.63416415"/>
      </g>
      <g style="display:inline;stroke-width:0.63416415" transform="matrix(3.7845091,0,0,3.7845091,1449.3765,1204.1875)" id="g32761">
        <path style="stroke-width:0.63416415" d="m 3.92,-7.93 c -1.67,0 -2.55,1.78 -3.01,3.56 -0.46,1.78 -0.5,3.56 -0.5,3.56 l -0.85,0.01 c 0,0 -0.16,-7.13 -3.5,-7.13 z" id="path32757" inkscape:connector-curvature="0"/>
        <path style="stroke-width:0.63416415" d="M 6.75,-0.8 C 6.74,2.67 1.53,5.19 0,7.93 -1.53,5.18 -6.74,2.66 -6.75,-0.8 c 0,-1.64 1.51,-2.97 3.38,-2.97 1.86,0 3.37,1.33 3.37,2.97 0,-1.64 1.51,-2.97 3.38,-2.97 1.87,0 3.37,1.33 3.37,2.97 z" id="path32759" inkscape:connector-curvature="0"/>
      </g>
      <g style="display:inline;stroke-width:0.63416415" transform="matrix(3.7845091,0,0,3.7845091,1362.3443,1108.1518)" id="g32767">
        <path style="stroke-width:0.63416415" d="m 3.92,-7.93 c -1.67,0 -2.55,1.78 -3.01,3.56 -0.46,1.78 -0.5,3.56 -0.5,3.56 l -0.85,0.01 c 0,0 -0.16,-7.13 -3.5,-7.13 z" id="path32763" inkscape:connector-curvature="0"/>
        <path style="stroke-width:0.63416415" d="M 6.75,-0.8 C 6.74,2.67 1.53,5.19 0,7.93 -1.53,5.18 -6.74,2.66 -6.75,-0.8 c 0,-1.64 1.51,-2.97 3.38,-2.97 1.86,0 3.37,1.33 3.37,2.97 0,-1.64 1.51,-2.97 3.38,-2.97 1.87,0 3.37,1.33 3.37,2.97 z" id="path32765" inkscape:connector-curvature="0"/>
      </g>
      <g id="g32773" transform="matrix(3.7845091,0,0,3.7845091,1449.3765,1108.1518)" style="display:inline;stroke-width:0.63416415">
        <path inkscape:connector-curvature="0" id="path32769" d="m 3.92,-7.93 c -1.67,0 -2.55,1.78 -3.01,3.56 -0.46,1.78 -0.5,3.56 -0.5,3.56 l -0.85,0.01 c 0,0 -0.16,-7.13 -3.5,-7.13 z" style="stroke-width:0.63416415"/>
        <path inkscape:connector-curvature="0" id="path32771" d="M 6.75,-0.8 C 6.74,2.67 1.53,5.19 0,7.93 -1.53,5.18 -6.74,2.66 -6.75,-0.8 c 0,-1.64 1.51,-2.97 3.38,-2.97 1.86,0 3.37,1.33 3.37,2.97 0,-1.64 1.51,-2.97 3.38,-2.97 1.87,0 3.37,1.33 3.37,2.97 z" style="stroke-width:0.63416415"/>
      </g>
      <g style="display:inline;stroke-width:1.0569402" transform="matrix(-2.2707054,0,0,-2.2707054,1350.2793,1006.1137)" id="g33127">
        <path style="stroke-width:1.0569402" d="m 3.92,-7.93 c -1.67,0 -2.55,1.78 -3.01,3.56 -0.46,1.78 -0.5,3.56 -0.5,3.56 l -0.85,0.01 c 0,0 -0.16,-7.13 -3.5,-7.13 z" id="path33123" inkscape:connector-curvature="0"/>
        <path style="stroke-width:1.0569402" d="M 6.75,-0.8 C 6.74,2.67 1.53,5.19 0,7.93 -1.53,5.18 -6.74,2.66 -6.75,-0.8 c 0,-1.64 1.51,-2.97 3.38,-2.97 1.86,0 3.37,1.33 3.37,2.97 0,-1.64 1.51,-2.97 3.38,-2.97 1.87,0 3.37,1.33 3.37,2.97 z" id="path33125" inkscape:connector-curvature="0"/>
      </g>
      <g id="g33133" transform="matrix(2.2707054,0,0,2.2707054,1506.3826,1162.1719)" style="display:inline;stroke-width:1.0569402">
        <path inkscape:connector-curvature="0" id="path33129" d="m 3.92,-7.93 c -1.67,0 -2.55,1.78 -3.01,3.56 -0.46,1.78 -0.5,3.56 -0.5,3.56 l -0.85,0.01 c 0,0 -0.16,-7.13 -3.5,-7.13 z" style="stroke-width:1.0569402"/>
        <path inkscape:connector-curvature="0" id="path33131" d="M 6.75,-0.8 C 6.74,2.67 1.53,5.19 0,7.93 -1.53,5.18 -6.74,2.66 -6.75,-0.8 c 0,-1.64 1.51,-2.97 3.38,-2.97 1.86,0 3.37,1.33 3.37,2.97 0,-1.64 1.51,-2.97 3.38,-2.97 1.87,0 3.37,1.33 3.37,2.97 z" style="stroke-width:1.0569402"/>
      </g>
    </g>
    </g></svg>
