<?xml version='1.0' encoding='UTF-8'?>
<!-- Created with Inkscape (http://www.inkscape.org/) and export_objects.py -->
<svg xmlns:cc="http://creativecommons.org/ns#" xmlns:dc="http://purl.org/dc/elements/1.1/" xmlns:inkscape="http://www.inkscape.org/namespaces/inkscape" xmlns:rdf="http://www.w3.org/1999/02/22-rdf-syntax-ns#" xmlns:sodipodi="http://sodipodi.sourceforge.net/DTD/sodipodi-0.dtd" xmlns:xlink="http://www.w3.org/1999/xlink" xmlns="http://www.w3.org/2000/svg" version="1.1" width="57.1500026458mm" height="88.8999973542mm" viewBox="0 0 57.1500026458 88.8999973542" id="svg24051" sodipodi:docname="spade-013.svg"><sodipodi:namedview id="base" pagecolor="#ffffff" bordercolor="#666666" borderopacity="1.0" inkscape:pageopacity="0.0" inkscape:pageshadow="2" inkscape:zoom="0.23049644" inkscape:cx="312.64252" inkscape:cy="711.76062" inkscape:document-units="mm" inkscape:current-layer="layer1" showgrid="false" inkscape:lockguides="true" inkscape:window-width="1280" inkscape:window-height="940" inkscape:window-x="1909" inkscape:window-y="43" inkscape:window-maximized="1"/>
  <metadata id="metadata24048">
    <rdf:RDF>
      <cc:Work rdf:about="">
        <dc:format>image/svg+xml</dc:format>
        <dc:type rdf:resource="http://purl.org/dc/dcmitype/StillImage"/>
      </cc:Work>
    </rdf:RDF>
  </metadata>
  <g inkscape:groupmode="layer" inkscape:label="spade-" transform="matrix(1.000000,0.000000,0.000000,1.000000,-473.245021,-64.230001)"><g transform="matrix(0.26448498,0,0,0.26448498,-364.90207,-178.0595)" id="g17914" inkscape:label="013">
      <rect y="916.08038" x="3168.978" height="336.12494" width="216.08034" id="rect32167" style="display:inline;opacity:1;fill:#ffffff;fill-opacity:1;stroke:none;stroke-width:0.13338292;stroke-linecap:butt;stroke-linejoin:miter;stroke-miterlimit:47.14606857;stroke-dasharray:none;stroke-dashoffset:0;stroke-opacity:1;paint-order:markers fill stroke"/>
      <g id="text32317" style="font-style:normal;font-variant:normal;font-weight:normal;font-stretch:normal;font-size:80.02975464px;line-height:125%;font-family:'Stint Ultra Condensed';-inkscape-font-specification:'Stint Ultra Condensed, ';font-variant-ligatures:normal;font-variant-caps:normal;font-variant-numeric:normal;font-feature-settings:normal;text-align:center;letter-spacing:0px;word-spacing:0px;writing-mode:lr-tb;text-anchor:middle;display:inline;fill:#000000;fill-opacity:1;stroke:none;stroke-width:1.00037193" aria-label="2" transform="translate(-2088.7764,79.839752)">
        <path id="path12528" style="font-style:normal;font-variant:normal;font-weight:normal;font-stretch:normal;font-size:80.02975464px;font-family:'Stint Ultra Condensed';-inkscape-font-specification:'Stint Ultra Condensed, ';text-align:center;text-anchor:middle;stroke-width:1.00037193" d="m 5276.7459,902.26526 v -3.28247 q 3.5169,-4.96278 6.2914,-9.49572 2.8136,-4.57201 4.7674,-9.02679 1.9539,-4.45478 2.9699,-9.0268 1.055,-4.57201 1.055,-9.57387 0,-1.95385 -0.2735,-3.75139 -0.2345,-1.79755 -0.7815,-3.16524 -0.5471,-1.40678 -1.485,-2.22739 -0.9378,-0.8597 -2.2664,-0.8597 -2.4619,0 -3.7124,3.43878 -1.2504,3.43878 -1.2504,10.86341 h -4.9628 q 0,-5.08001 0.8206,-8.59694 0.8206,-3.55601 2.1493,-5.74433 1.3676,-2.22739 3.1261,-3.20431 1.7976,-1.016 3.6733,-1.016 2.4227,0 4.2593,1.09415 1.8367,1.09416 3.0871,3.04801 1.2505,1.95385 1.8757,4.65017 0.6643,2.69631 0.6643,5.86155 0,7.50279 -3.4778,16.41235 -3.4388,8.87049 -10.5117,19.10867 h 10.3945 v -10.70711 h 4.2594 v 15.20097 z" inkscape:connector-curvature="0"/>
      </g>
      <g id="text32321" style="font-style:normal;font-variant:normal;font-weight:normal;font-stretch:normal;font-size:80.02975464px;line-height:125%;font-family:'Stint Ultra Condensed';-inkscape-font-specification:'Stint Ultra Condensed, ';font-variant-ligatures:normal;font-variant-caps:normal;font-variant-numeric:normal;font-feature-settings:normal;text-align:center;letter-spacing:0px;word-spacing:0px;writing-mode:lr-tb;text-anchor:middle;display:inline;fill:#000000;fill-opacity:1;stroke:none;stroke-width:1.00037193" transform="rotate(180,-1044.3882,39.919876)" aria-label="2">
        <path id="path12525" style="font-style:normal;font-variant:normal;font-weight:normal;font-stretch:normal;font-size:80.02975464px;font-family:'Stint Ultra Condensed';-inkscape-font-specification:'Stint Ultra Condensed, ';text-align:center;text-anchor:middle;stroke-width:1.00037193" d="m -5454.8435,-1106.3412 v -3.2825 q 3.517,-4.9627 6.2914,-9.4957 2.8136,-4.572 4.7674,-9.0268 1.9539,-4.4547 2.9699,-9.0268 1.0551,-4.572 1.0551,-9.5738 0,-1.9539 -0.2736,-3.7514 -0.2344,-1.7976 -0.7815,-3.1653 -0.5471,-1.4067 -1.4849,-2.2274 -0.9379,-0.8597 -2.2665,-0.8597 -2.4618,0 -3.7123,3.4388 -1.2505,3.4388 -1.2505,10.8634 h -4.9628 q 0,-5.08 0.8207,-8.5969 0.8206,-3.556 2.1492,-5.7443 1.3677,-2.2274 3.1262,-3.2043 1.7975,-1.016 3.6732,-1.016 2.4228,0 4.2594,1.0941 1.8366,1.0942 3.0871,3.048 1.2504,1.9539 1.8757,4.6502 0.6643,2.6963 0.6643,5.8615 0,7.5028 -3.4779,16.4124 -3.4387,8.8705 -10.5117,19.1087 h 10.3945 v -10.7072 h 4.2594 v 15.201 z" inkscape:connector-curvature="0"/>
      </g>
      <g style="display:inline;stroke-width:0.63416415" transform="matrix(-3.7845091,0,0,-3.7845091,3276.9808,964.09832)" id="g32977">
        <path style="stroke-width:0.63416415" d="m 3.92,-7.93 c -1.67,0 -2.55,1.78 -3.01,3.56 -0.46,1.78 -0.5,3.56 -0.5,3.56 l -0.85,0.01 c 0,0 -0.16,-7.13 -3.5,-7.13 z" id="path32973" inkscape:connector-curvature="0"/>
        <path style="stroke-width:0.63416415" d="M 6.75,-0.8 C 6.74,2.67 1.53,5.19 0,7.93 -1.53,5.18 -6.74,2.66 -6.75,-0.8 c 0,-1.64 1.51,-2.97 3.38,-2.97 1.86,0 3.37,1.33 3.37,2.97 0,-1.64 1.51,-2.97 3.38,-2.97 1.87,0 3.37,1.33 3.37,2.97 z" id="path32975" inkscape:connector-curvature="0"/>
      </g>
      <g style="display:inline;stroke-width:0.63416415" transform="matrix(3.7845091,0,0,3.7845091,3277.0569,1204.1877)" id="g32983">
        <path style="stroke-width:0.63416415" d="m 3.92,-7.93 c -1.67,0 -2.55,1.78 -3.01,3.56 -0.46,1.78 -0.5,3.56 -0.5,3.56 l -0.85,0.01 c 0,0 -0.16,-7.13 -3.5,-7.13 z" id="path32979" inkscape:connector-curvature="0"/>
        <path style="stroke-width:0.63416415" d="M 6.75,-0.8 C 6.74,2.67 1.53,5.19 0,7.93 -1.53,5.18 -6.74,2.66 -6.75,-0.8 c 0,-1.64 1.51,-2.97 3.38,-2.97 1.86,0 3.37,1.33 3.37,2.97 0,-1.64 1.51,-2.97 3.38,-2.97 1.87,0 3.37,1.33 3.37,2.97 z" id="path32981" inkscape:connector-curvature="0"/>
      </g>
      <g id="g33211" transform="matrix(-2.2707054,0,0,-2.2707054,3198.9673,1006.1138)" style="display:inline;stroke-width:1.0569402">
        <path inkscape:connector-curvature="0" id="path33207" d="m 3.92,-7.93 c -1.67,0 -2.55,1.78 -3.01,3.56 -0.46,1.78 -0.5,3.56 -0.5,3.56 l -0.85,0.01 c 0,0 -0.16,-7.13 -3.5,-7.13 z" style="stroke-width:1.0569402"/>
        <path inkscape:connector-curvature="0" id="path33209" d="M 6.75,-0.8 C 6.74,2.67 1.53,5.19 0,7.93 -1.53,5.18 -6.74,2.66 -6.75,-0.8 c 0,-1.64 1.51,-2.97 3.38,-2.97 1.86,0 3.37,1.33 3.37,2.97 0,-1.64 1.51,-2.97 3.38,-2.97 1.87,0 3.37,1.33 3.37,2.97 z" style="stroke-width:1.0569402"/>
      </g>
      <g style="display:inline;stroke-width:1.0569402" transform="matrix(2.2707054,0,0,2.2707054,3355.0706,1162.172)" id="g33217">
        <path style="stroke-width:1.0569402" d="m 3.92,-7.93 c -1.67,0 -2.55,1.78 -3.01,3.56 -0.46,1.78 -0.5,3.56 -0.5,3.56 l -0.85,0.01 c 0,0 -0.16,-7.13 -3.5,-7.13 z" id="path33213" inkscape:connector-curvature="0"/>
        <path style="stroke-width:1.0569402" d="M 6.75,-0.8 C 6.74,2.67 1.53,5.19 0,7.93 -1.53,5.18 -6.74,2.66 -6.75,-0.8 c 0,-1.64 1.51,-2.97 3.38,-2.97 1.86,0 3.37,1.33 3.37,2.97 0,-1.64 1.51,-2.97 3.38,-2.97 1.87,0 3.37,1.33 3.37,2.97 z" id="path33215" inkscape:connector-curvature="0"/>
      </g>
    </g>
  </g></svg>
