<?xml version="1.0" encoding="UTF-8" standalone="no"?>
<!-- Created with Inkscape (http://www.inkscape.org/) and export_objects.py -->

<svg
   xmlns:dc="http://purl.org/dc/elements/1.1/"
   xmlns:cc="http://creativecommons.org/ns#"
   xmlns:rdf="http://www.w3.org/1999/02/22-rdf-syntax-ns#"
   xmlns:svg="http://www.w3.org/2000/svg"
   xmlns="http://www.w3.org/2000/svg"
   xmlns:sodipodi="http://sodipodi.sourceforge.net/DTD/sodipodi-0.dtd"
   xmlns:inkscape="http://www.inkscape.org/namespaces/inkscape"
   version="1.1"
   width="15.215625pt"
   height="18.000029pt"
   viewBox="0 0 5.3677344 6.3500098"
   id="svg2376"
   inkscape:version="0.92.5 (2060ec1f9f, 2020-04-08)"
   sodipodi:docname="suit-clubs.svg">
  <defs
     id="defs26" />
  <sodipodi:namedview
     id="base"
     pagecolor="#ffffff"
     bordercolor="#666666"
     borderopacity="1.0"
     inkscape:pageopacity="0.0"
     inkscape:pageshadow="2"
     inkscape:zoom="7.4468445"
     inkscape:cx="36.99499"
     inkscape:cy="67.000264"
     inkscape:document-units="mm"
     inkscape:current-layer="g23"
     inkscape:document-rotation="0"
     showgrid="true"
     fit-margin-top="0"
     fit-margin-left="0"
     fit-margin-right="0"
     fit-margin-bottom="0"
     units="pt"
     inkscape:window-width="2880"
     inkscape:window-height="1526"
     inkscape:window-x="2869"
     inkscape:window-y="-11"
     inkscape:window-maximized="1">
    <inkscape:grid
       type="xygrid"
       id="grid39"
       originx="0.72183604"
       originy="-1.7050943" />
  </sodipodi:namedview>
  <metadata
     id="metadata2373">
    <rdf:RDF>
      <cc:Work
         rdf:about="">
        <dc:format>image/svg+xml</dc:format>
        <dc:type
           rdf:resource="http://purl.org/dc/dcmitype/StillImage" />
        <dc:title></dc:title>
      </cc:Work>
    </rdf:RDF>
  </metadata>
  <g
     inkscape:groupmode="layer"
     inkscape:label="suit-"
     transform="translate(397.00093,110.22835)"
     id="g23">
    <path
       inkscape:connector-curvature="0"
       style="display:inline;fill:#808080;fill-opacity:1;stroke:none;stroke-width:0.0705556;stroke-linecap:butt;stroke-linejoin:miter;stroke-miterlimit:4;stroke-dasharray:none;stroke-dashoffset:0;paint-order:normal"
       d="m -394.3171,-110.22835 c -0.60736,0 -1.13896,0.40794 -1.29615,0.99459 -0.15721,0.58667 0.0993,1.20577 0.62519,1.50945 -0.526,-0.30369 -1.19032,-0.21619 -1.61983,0.21328 -0.42946,0.42945 -0.51689,1.09384 -0.21321,1.61982 0.30368,0.52598 0.92281,0.78239 1.50944,0.62522 0.35313,-0.0946 0.64128,-0.32502 0.81496,-0.62582 l -0.53952,2.01347 h 1.43824 l -0.53951,-2.01364 c 0.1736,0.3009 0.46184,0.53133 0.81504,0.62599 0.58663,0.15717 1.20576,-0.0993 1.50944,-0.62522 0.30367,-0.52598 0.21624,-1.19037 -0.21328,-1.61982 -0.42945,-0.42948 -1.09385,-0.51697 -1.61984,-0.21328 0.52599,-0.30369 0.78248,-0.92279 0.62528,-1.50945 -0.15719,-0.58665 -0.68889,-0.99459 -1.29625,-0.99459 z"
       id="path4411"
       inkscape:export-filename="C:\mine\tarot\tarot-git\tarot\playingcards.io\le-plateau\le-plateau-board-heptagon.png"
       inkscape:export-xdpi="150.03937"
       inkscape:export-ydpi="150.03937"
       inkscape:label="2" />
  </g>
</svg>
