<?xml version='1.0' encoding='UTF-8'?>
<!-- Created with Inkscape (http://www.inkscape.org/) and export_objects.py -->
<svg xmlns:cc="http://creativecommons.org/ns#" xmlns:dc="http://purl.org/dc/elements/1.1/" xmlns:inkscape="http://www.inkscape.org/namespaces/inkscape" xmlns:rdf="http://www.w3.org/1999/02/22-rdf-syntax-ns#" xmlns:sodipodi="http://sodipodi.sourceforge.net/DTD/sodipodi-0.dtd" xmlns:xlink="http://www.w3.org/1999/xlink" xmlns="http://www.w3.org/2000/svg" version="1.1" width="19.2pt" height="19.2pt" viewBox="0 0 6.77333333333 6.77333333333" id="svg2376" inkscape:version="1.0.2-2 (e86c870879, 2021-01-15)" sodipodi:docname="suit-1.svg"><sodipodi:namedview id="base" pagecolor="#ffffff" bordercolor="#666666" borderopacity="1.0" inkscape:pageopacity="0.0" inkscape:pageshadow="2" inkscape:zoom="7.4468445" inkscape:cx="34.266791" inkscape:cy="84.666581" inkscape:document-units="mm" inkscape:current-layer="layer1" inkscape:document-rotation="0" showgrid="true" fit-margin-top="0" fit-margin-left="0" fit-margin-right="0" fit-margin-bottom="0" units="pt" inkscape:window-width="2880" inkscape:window-height="1526" inkscape:window-x="2869" inkscape:window-y="-11" inkscape:window-maximized="1">
    <inkscape:grid type="xygrid" id="grid39"/>
  </sodipodi:namedview>
  <metadata id="metadata2373">
    <rdf:RDF>
      <cc:Work rdf:about="">
        <dc:format>image/svg+xml</dc:format>
        <dc:type rdf:resource="http://purl.org/dc/dcmitype/StillImage"/>
        <dc:title/>
      </cc:Work>
    </rdf:RDF>
  </metadata>
  <g inkscape:groupmode="layer" inkscape:label="suit-" transform="matrix(1.000000,0.000000,0.000000,1.000000,396.802887,127.912011)"><g aria-label="🚫" id="text1730" style="font-style:normal;font-variant:normal;font-weight:normal;font-stretch:normal;font-size:6.46362px;line-height:120%;font-family:'Sweden Sans';-inkscape-font-specification:'Sweden Sans';text-align:end;letter-spacing:0px;word-spacing:0px;writing-mode:lr-tb;text-anchor:end;stroke-width:0.264583" transform="translate(0.15872439,0.15875685)" inkscape:label="1">
      <path d="m -394.47571,-128.16719 q 0.43869,0 0.84267,0.11362 0.40713,0.11362 0.75746,0.32192 0.35348,0.20514 0.64383,0.4955 0.29036,0.29036 0.49551,0.64384 0.2083,0.35032 0.32191,0.75745 0.11362,0.40398 0.11362,0.84267 0,0.4387 -0.11362,0.84583 -0.11361,0.40397 -0.32191,0.75745 -0.20515,0.35033 -0.49551,0.64068 -0.29035,0.29036 -0.64383,0.49551 -0.35033,0.2083 -0.75746,0.32192 -0.40398,0.11361 -0.84267,0.11361 -0.43869,0 -0.84582,-0.11361 -0.40398,-0.11362 -0.75746,-0.32192 -0.35032,-0.20515 -0.64068,-0.49551 -0.29036,-0.29035 -0.49866,-0.64068 -0.20514,-0.35348 -0.31876,-0.75745 -0.11362,-0.40713 -0.11362,-0.84583 0,-0.43869 0.11362,-0.84267 0.11362,-0.40713 0.31876,-0.75745 0.2083,-0.35348 0.49866,-0.64384 0.29036,-0.29036 0.64068,-0.4955 0.35348,-0.2083 0.75746,-0.32192 0.40713,-0.11362 0.84582,-0.11362 z m -2.72368,3.175 q 0,0.37557 0.0978,0.72274 0.0978,0.34717 0.27457,0.65015 0.17674,0.30298 0.42607,0.55231 0.24933,0.24933 0.55231,0.42607 0.30299,0.17674 0.65015,0.27458 0.34717,0.0978 0.72274,0.0978 0.48604,0 0.9342,-0.16727 0.45131,-0.16412 0.82057,-0.47973 l -3.83146,-3.83146 q -0.3156,0.36926 -0.48288,0.82058 -0.16411,0.44816 -0.16411,0.93419 z m 4.80037,1.75477 q 0.31561,-0.37241 0.47972,-0.81742 0.16412,-0.44816 0.16412,-0.93735 0,-0.37557 -0.0978,-0.72274 -0.0978,-0.34716 -0.27458,-0.65015 -0.17674,-0.30298 -0.42606,-0.54915 -0.24618,-0.24933 -0.54916,-0.42607 -0.30298,-0.17674 -0.65015,-0.27458 -0.34717,-0.0978 -0.72274,-0.0978 -0.48919,0 -0.93735,0.16411 -0.445,0.16412 -0.81742,0.47972 z" style="font-style:normal;font-variant:normal;font-weight:normal;font-stretch:normal;font-size:6.46362px;font-family:'Segoe UI Emoji';-inkscape-font-specification:'Segoe UI Emoji';text-align:center;text-anchor:middle;stroke-width:0.264583" id="path36"/>
    </g>
    </g></svg>
