<?xml version="1.0" encoding="UTF-8" standalone="no"?>
<!-- Created with Inkscape (http://www.inkscape.org/) and export_objects.py -->

<svg
   xmlns:dc="http://purl.org/dc/elements/1.1/"
   xmlns:cc="http://creativecommons.org/ns#"
   xmlns:rdf="http://www.w3.org/1999/02/22-rdf-syntax-ns#"
   xmlns:svg="http://www.w3.org/2000/svg"
   xmlns="http://www.w3.org/2000/svg"
   xmlns:sodipodi="http://sodipodi.sourceforge.net/DTD/sodipodi-0.dtd"
   xmlns:inkscape="http://www.inkscape.org/namespaces/inkscape"
   version="1.1"
   sodipodi:docname="symbol-cow.svg"
   inkscape:version="0.92.5 (2060ec1f9f, 2020-04-08)"
   id="svg8"
   viewBox="0 0 5.7148932 5.7149498"
   height="0.22499803in"
   width="0.22499579in">
  <defs
     id="defs887" />
  <sodipodi:namedview
     inkscape:snap-page="true"
     inkscape:guide-bbox="true"
     inkscape:snap-intersection-paths="false"
     inkscape:object-paths="false"
     inkscape:object-nodes="true"
     inkscape:snap-to-guides="true"
     inkscape:measure-end="319.939,-115.274"
     inkscape:measure-start="214.339,-115.274"
     inkscape:snap-midpoints="false"
     inkscape:snap-global="true"
     inkscape:snap-bbox-midpoints="false"
     inkscape:snap-bbox-edge-midpoints="true"
     inkscape:snap-nodes="true"
     inkscape:bbox-nodes="false"
     inkscape:bbox-paths="false"
     inkscape:snap-bbox="false"
     inkscape:snap-smooth-nodes="true"
     showguides="false"
     inkscape:snap-others="true"
     inkscape:snap-text-baseline="true"
     inkscape:snap-center="false"
     inkscape:snap-object-midpoints="false"
     inkscape:window-maximized="1"
     inkscape:window-y="-14"
     inkscape:window-x="-14"
     inkscape:window-height="1441"
     inkscape:window-width="2560"
     inkscape:snap-grids="true"
     units="in"
     showgrid="false"
     inkscape:current-layer="g884"
     inkscape:document-units="pt"
     inkscape:cy="10.799904"
     inkscape:cx="10.799798"
     inkscape:zoom="48.611535"
     inkscape:pageshadow="2"
     inkscape:pageopacity="0.0"
     borderopacity="1.0"
     bordercolor="#666666"
     pagecolor="#ffffff"
     id="base"
     inkscape:lockguides="true"
     inkscape:document-rotation="0"
     fit-margin-top="0"
     fit-margin-left="0"
     fit-margin-right="0"
     fit-margin-bottom="0"
     inkscape:pagecheckerboard="0"
     inkscape:blackoutopacity="0.0">
    <inkscape:grid
       empspacing="5"
       spacingy="1.2700001"
       spacingx="1.2700001"
       units="pt"
       id="grid10"
       type="xygrid"
       originx="3.4078333"
       originy="-9.4614892" />
    <sodipodi:guide
       position="236.855,179.07"
       orientation="1,0"
       id="guide5642"
       inkscape:locked="true" />
    <sodipodi:guide
       position="182.245,179.07"
       orientation="1,0"
       id="guide5644"
       inkscape:locked="true" />
    <sodipodi:guide
       position="127.63502,179.07"
       orientation="1,0"
       id="guide5646"
       inkscape:locked="true" />
    <sodipodi:guide
       position="79.375009,179.07"
       orientation="1,0"
       id="guide5648"
       inkscape:locked="true" />
    <sodipodi:guide
       position="1.9049997,73.025"
       orientation="0.99999943,-0.0010695711"
       id="guide5650"
       inkscape:locked="true" />
    <sodipodi:guide
       position="184.4675,173.0375"
       orientation="0,1"
       id="guide10921"
       inkscape:locked="true" />
    <sodipodi:guide
       position="1.2700157,90.17006"
       orientation="1,0"
       id="guide2171"
       inkscape:locked="true" />
    <sodipodi:guide
       position="119.6975,130.4925"
       orientation="0,-1"
       id="guide91967"
       inkscape:locked="true" />
    <sodipodi:guide
       position="-19.685001,64.769999"
       orientation="0.99999888,-0.0014979945"
       id="guide4340"
       inkscape:locked="true" />
  </sodipodi:namedview>
  <metadata
     id="metadata5">
    <rdf:RDF>
      <cc:Work
         rdf:about="">
        <dc:format>image/svg+xml</dc:format>
        <dc:type
           rdf:resource="http://purl.org/dc/dcmitype/StillImage" />
        <dc:title></dc:title>
      </cc:Work>
    </rdf:RDF>
  </metadata>
  <g
     inkscape:groupmode="layer"
     inkscape:label="symbols"
     transform="translate(-75.247558,-137.47748)"
     id="g884">
    <path
       inkscape:connector-curvature="0"
       id="path7006"
       style="font-style:normal;font-variant:normal;font-weight:normal;font-stretch:normal;font-size:medium;line-height:100%;font-family:'Segoe UI Emoji';-inkscape-font-specification:'Segoe UI Emoji';font-variant-ligatures:normal;font-variant-caps:normal;font-variant-numeric:normal;font-feature-settings:normal;text-align:center;letter-spacing:0px;word-spacing:0px;writing-mode:lr-tb;text-anchor:middle;display:inline;fill:#ff0000;fill-opacity:1;stroke:none;stroke-width:0.26458299"
       d="m 80.962451,138.36957 q 0,0.25592 -0.09938,0.48701 -0.09691,0.22859 -0.275805,0.4075 0.178901,0.17889 0.275805,0.40749 0.09938,0.2286 0.09938,0.48452 v 1.42872 h -0.536703 q -0.24102,0 -0.454708,-0.0845 -0.04473,0.11932 -0.111814,0.23107 -0.0646,0.10935 -0.1466,0.20623 0,0.15903 -0.05466,0.30562 -0.05218,0.14661 -0.149084,0.26338 -0.09442,0.11685 -0.228596,0.19879 -0.13169,0.082 -0.288229,0.11183 -0.178902,0.1789 -0.407497,0.2758 -0.226111,0.0994 -0.479554,0.0994 -0.253444,0 -0.482039,-0.0994 -0.228597,-0.0969 -0.407498,-0.2758 -0.156538,-0.0323 -0.290715,-0.11436 -0.13169,-0.0794 -0.226111,-0.19629 -0.09442,-0.11684 -0.149083,-0.26339 -0.05218,-0.1441 -0.05218,-0.30562 -0.082,-0.0969 -0.149084,-0.20622 -0.0646,-0.11183 -0.109328,-0.23108 -0.213687,0.0845 -0.454707,0.0845 h -0.536703 v -1.42873 q 0,-0.25591 0.09691,-0.48451 0.09938,-0.2286 0.278291,-0.40749 -0.178902,-0.17891 -0.278291,-0.4075 -0.09691,-0.23109 -0.09691,-0.48702 v -0.35532 q 0,-0.11182 0.04224,-0.20871 0.04223,-0.0969 0.114296,-0.16896 0.07453,-0.0745 0.171448,-0.11685 0.09691,-0.0422 0.208718,-0.0422 h 0.355318 v 0.53671 q 0,0.0721 0.05218,0.12668 0.05468,0.0522 0.126717,0.0522 h 3.573052 q 0.07206,0 0.124237,-0.0522 0.05466,-0.0547 0.05466,-0.12668 v -0.53671 h 0.355317 q 0.111815,0 0.20872,0.0422 0.09691,0.0422 0.168961,0.11685 0.07453,0.0721 0.116788,0.16896 0.04223,0.0969 0.04223,0.20871 z m -0.357802,2.85745 v -1.07093 q 0,-0.18139 -0.07206,-0.34289 -0.06958,-0.16399 -0.191325,-0.28574 -0.121759,-0.12169 -0.285744,-0.19132 -0.161508,-0.0721 -0.342894,-0.0721 0,-0.14662 -0.05715,-0.27582 -0.05715,-0.13168 -0.154052,-0.22859 -0.09691,-0.0969 -0.228596,-0.15406 -0.129207,-0.0571 -0.275806,-0.0571 H 77.21298 q -0.146599,0 -0.278291,0.0571 -0.129205,0.0572 -0.22611,0.15406 -0.09691,0.0969 -0.154054,0.22859 -0.05715,0.12917 -0.05715,0.27582 -0.166477,0 -0.327986,0.0672 -0.159022,0.0647 -0.285744,0.17889 -0.124236,0.11182 -0.201263,0.26588 -0.07703,0.15156 -0.07703,0.323 v 1.12808 q 0.101881,0 0.19381,-0.002 0.09442,-0.006 0.181385,-0.0224 0.08696,-0.0174 0.168963,-0.0522 0.08448,-0.0372 0.171447,-0.10192 0,-0.27084 -0.0025,-0.53421 0,-0.26587 0,-0.53671 l 0.178899,-0.1789 v 1.0734 q 0,0.14909 0.01491,0.2932 0.01739,0.14163 0.08945,0.27581 l 0.07453,0.13914 q 0,-0.12668 0.04224,-0.23852 0.04224,-0.11436 0.116788,-0.20624 0.07703,-0.0919 0.181385,-0.15653 0.104355,-0.0647 0.226111,-0.0919 0.06958,-0.12668 0.106842,-0.26587 0.03976,-0.14164 0.03976,-0.28574 v -0.89203 q 0,-0.14162 0.05468,-0.27332 0.05468,-0.13168 0.156539,-0.23356 0.09938,-0.0994 0.23108,-0.15406 0.131691,-0.0547 0.273321,-0.0547 0.144115,0 0.278291,0.0571 0.09691,0.0422 0.176417,0.11183 0.082,0.0672 0.139144,0.15404 0.05715,0.087 0.08697,0.18884 0.0323,0.0995 0.0323,0.20375 v 0.89203 q 0,0.13914 0.04224,0.28325 0.04224,0.14412 0.104356,0.26835 0.121758,0.0272 0.226112,0.0919 0.104355,0.0647 0.1789,0.15654 0.07703,0.0919 0.119267,0.20623 0.04473,0.11183 0.04473,0.23854 0.104356,-0.16398 0.141631,-0.34042 0.03727,-0.17641 0.03727,-0.36773 v -1.0734 l 0.178902,0.17889 q 0,0.15405 0,0.30564 0.0025,0.15156 0.0025,0.30562 0,0.11684 -0.0025,0.23106 0,0.11183 -0.0025,0.2286 0.08448,0.0672 0.168961,0.1044 0.08448,0.0348 0.171448,0.0522 0.08697,0.0174 0.178902,0.0199 0.09193,0.002 0.196293,0.002 z m -3.250038,-0.17642 q -0.104355,0 -0.196293,0.0472 -0.08945,0.0447 -0.156539,0.1217 -0.06708,0.0745 -0.106853,0.17145 -0.03976,0.0944 -0.03976,0.19379 v 0.35781 q 0,0.11182 0.04224,0.20872 0.04224,0.0969 0.114297,0.16895 0.07206,0.0745 0.168962,0.11685 0.09691,0.0422 0.208718,0.0422 h 1.428723 q 0.111815,0 0.208718,-0.0422 0.09691,-0.0422 0.168963,-0.11685 0.07454,-0.0721 0.116788,-0.16895 0.04224,-0.0969 0.04224,-0.20872 v -0.35781 q 0,-0.0993 -0.03976,-0.19379 -0.03976,-0.0969 -0.109328,-0.17145 -0.06708,-0.0769 -0.159023,-0.1217 -0.08945,-0.0472 -0.191325,-0.0472 z m 0.750392,-2.14434 q -0.111814,0 -0.208719,0.0422 -0.09691,0.0422 -0.171446,0.11683 -0.07206,0.0721 -0.114297,0.16897 -0.04223,0.097 -0.04223,0.20872 v 0.89203 q 0,0.13914 -0.0323,0.27579 -0.0323,0.13418 -0.08696,0.26089 h 1.311941 q -0.05466,-0.12667 -0.08696,-0.26089 -0.0323,-0.13665 -0.0323,-0.27579 v -0.89203 q 0,-0.11183 -0.04224,-0.20872 -0.04224,-0.0969 -0.116788,-0.16897 -0.07206,-0.0745 -0.168963,-0.11683 -0.09691,-0.0422 -0.208718,-0.0422 z m 2.015123,0.25842 q 0.111815,-0.0572 0.201264,-0.14163 0.08945,-0.0845 0.151568,-0.18635 0.0646,-0.1044 0.09691,-0.22363 0.03478,-0.11932 0.03478,-0.2435 v -0.35533 q 0,-0.0745 -0.05218,-0.12667 -0.05218,-0.0522 -0.126715,-0.0522 v 0.1789 q 0,0.11182 -0.04224,0.20871 -0.04224,0.0969 -0.114297,0.16896 -0.07206,0.0721 -0.168963,0.11435 -0.09691,0.0422 -0.208718,0.0422 h -0.357803 q 0.0646,0.0473 0.119268,0.10935 0.05715,0.0622 0.101881,0.13418 0.04473,0.0696 0.07453,0.14908 0.0323,0.0769 0.04473,0.15654 0.126715,0.0199 0.245989,0.0672 z m -4.514769,-0.79511 q 0,0.12419 0.0323,0.2435 0.03478,0.11921 0.09691,0.22363 0.0646,0.10193 0.154054,0.18635 0.08945,0.0845 0.201264,0.14163 0.114297,-0.0473 0.243504,-0.0672 0.0323,-0.16398 0.119266,-0.30809 0.08945,-0.14413 0.223627,-0.24103 H 76.31848 q -0.111814,0 -0.208719,-0.0422 -0.09691,-0.0422 -0.168961,-0.11435 -0.07206,-0.072 -0.114298,-0.16897 -0.04224,-0.0969 -0.04224,-0.20871 v -0.17889 q -0.07453,0 -0.126727,0.0522 -0.05218,0.0522 -0.05218,0.12667 z m 1.339274,1.0734 q 0.05466,0 0.101881,0.0224 0.0497,0.0199 0.08696,0.0571 0.03727,0.0348 0.05715,0.0845 0.02235,0.0473 0.02235,0.10192 v 0.35781 q 0,0.0547 -0.02235,0.1044 -0.01988,0.0472 -0.05715,0.0845 -0.03727,0.0372 -0.08696,0.0596 -0.04721,0.0199 -0.101881,0.0199 -0.05715,0 -0.106853,-0.0199 -0.04721,-0.0224 -0.08448,-0.0572 -0.03478,-0.0372 -0.05715,-0.0845 -0.01988,-0.0497 -0.01988,-0.10687 v -0.35781 q 0,-0.0547 0.01988,-0.1044 0.02235,-0.0497 0.05964,-0.0845 0.03727,-0.0348 0.08448,-0.0547 0.0497,-0.0224 0.104356,-0.0224 z m 2.320743,0 q 0.05468,0 0.101881,0.0224 0.0497,0.0199 0.08697,0.0547 0.03727,0.0348 0.05715,0.0845 0.02235,0.0497 0.02235,0.1044 v 0.35781 q 0,0.0571 -0.02235,0.10687 -0.01988,0.0473 -0.05715,0.0845 -0.03478,0.0348 -0.08448,0.0572 -0.0497,0.0199 -0.104356,0.0199 -0.05466,0 -0.104356,-0.0199 -0.04721,-0.0224 -0.08448,-0.0596 -0.03727,-0.0372 -0.05964,-0.0845 -0.01988,-0.0497 -0.01988,-0.1044 v -0.35781 q 0,-0.0547 0.01988,-0.10192 0.02235,-0.0497 0.05964,-0.0845 0.03727,-0.0372 0.08448,-0.0571 0.0497,-0.0224 0.104356,-0.0224 z m -0.501916,2.55929 q -0.04721,0 -0.08945,-0.0174 -0.03976,-0.0199 -0.0795,-0.0422 l -0.310594,-0.17888 0.350349,-0.20127 q 0.02982,-0.0174 0.06212,-0.0272 0.03478,-0.0101 0.06957,-0.0101 0.0497,0 0.09194,0.0199 0.04223,0.0174 0.07206,0.0522 0.0323,0.0323 0.0497,0.077 0.01739,0.0422 0.01739,0.0894 0,0.1044 -0.0646,0.17145 -0.0646,0.0672 -0.168962,0.0672 z m -1.319396,0 q -0.0497,0 -0.09194,-0.0174 -0.04224,-0.0199 -0.07454,-0.0522 -0.02982,-0.0348 -0.0472,-0.077 -0.01739,-0.0422 -0.01739,-0.0919 0,-0.0472 0.01739,-0.0894 0.01739,-0.0447 0.0472,-0.0769 0.0323,-0.0348 0.07454,-0.0522 0.04223,-0.0199 0.09194,-0.0199 0.03478,0 0.06708,0.0101 0.03478,0.0101 0.0646,0.0272 l 0.350348,0.20126 -0.310592,0.1789 q -0.04224,0.0249 -0.082,0.0422 -0.03976,0.0174 -0.08945,0.0174 z m 0.660941,0.83238 q 0.144115,0 0.280775,-0.0472 0.139145,-0.0447 0.255928,-0.13169 h -1.073407 q 0.116789,0.087 0.253443,0.13169 0.139146,0.0472 0.283261,0.0472 z"
       inkscape:export-filename="C:\mine\vira-github\vira\playingcards.io\vira-no-pulla.png"
       inkscape:export-xdpi="600"
       inkscape:export-ydpi="600"
       inkscape:label="4" />
  </g>
</svg>
