<?xml version="1.0" encoding="UTF-8" standalone="no"?>
<!-- Created with Inkscape (http://www.inkscape.org/) and export_objects.py -->

<svg
   xmlns:dc="http://purl.org/dc/elements/1.1/"
   xmlns:cc="http://creativecommons.org/ns#"
   xmlns:rdf="http://www.w3.org/1999/02/22-rdf-syntax-ns#"
   xmlns:svg="http://www.w3.org/2000/svg"
   xmlns="http://www.w3.org/2000/svg"
   xmlns:sodipodi="http://sodipodi.sourceforge.net/DTD/sodipodi-0.dtd"
   xmlns:inkscape="http://www.inkscape.org/namespaces/inkscape"
   version="1.1"
   sodipodi:docname="symbol-colour.svg"
   inkscape:version="0.92.5 (2060ec1f9f, 2020-04-08)"
   id="svg8"
   viewBox="0 0 3.1749955 3.1749961"
   height="0.12499984in"
   width="0.12499982in">
  <defs
     id="defs1468" />
  <sodipodi:namedview
     inkscape:snap-page="true"
     inkscape:guide-bbox="true"
     inkscape:snap-intersection-paths="false"
     inkscape:object-paths="false"
     inkscape:object-nodes="true"
     inkscape:snap-to-guides="true"
     inkscape:measure-end="319.939,-115.274"
     inkscape:measure-start="214.339,-115.274"
     inkscape:snap-midpoints="false"
     inkscape:snap-global="true"
     inkscape:snap-bbox-midpoints="false"
     inkscape:snap-bbox-edge-midpoints="true"
     inkscape:snap-nodes="true"
     inkscape:bbox-nodes="false"
     inkscape:bbox-paths="false"
     inkscape:snap-bbox="false"
     inkscape:snap-smooth-nodes="true"
     showguides="false"
     inkscape:snap-others="true"
     inkscape:snap-text-baseline="true"
     inkscape:snap-center="false"
     inkscape:snap-object-midpoints="false"
     inkscape:window-maximized="1"
     inkscape:window-y="-14"
     inkscape:window-x="-14"
     inkscape:window-height="1441"
     inkscape:window-width="2560"
     inkscape:snap-grids="true"
     units="in"
     showgrid="false"
     inkscape:current-layer="g1465"
     inkscape:document-units="pt"
     inkscape:cy="5.9999815"
     inkscape:cx="6.0000012"
     inkscape:zoom="87.500109"
     inkscape:pageshadow="2"
     inkscape:pageopacity="0.0"
     borderopacity="1.0"
     bordercolor="#666666"
     pagecolor="#ffffff"
     id="base"
     inkscape:lockguides="true"
     inkscape:document-rotation="0"
     fit-margin-top="0"
     fit-margin-left="0"
     fit-margin-right="0"
     fit-margin-bottom="0"
     inkscape:pagecheckerboard="0"
     inkscape:blackoutopacity="0.0">
    <inkscape:grid
       empspacing="5"
       spacingy="1.2700001"
       spacingx="1.2700001"
       units="pt"
       id="grid10"
       type="xygrid"
       originx="9.4191618"
       originy="-12.657662" />
    <sodipodi:guide
       position="236.855,179.07"
       orientation="1,0"
       id="guide5642"
       inkscape:locked="true" />
    <sodipodi:guide
       position="182.245,179.07"
       orientation="1,0"
       id="guide5644"
       inkscape:locked="true" />
    <sodipodi:guide
       position="127.63502,179.07"
       orientation="1,0"
       id="guide5646"
       inkscape:locked="true" />
    <sodipodi:guide
       position="79.375009,179.07"
       orientation="1,0"
       id="guide5648"
       inkscape:locked="true" />
    <sodipodi:guide
       position="1.9049997,73.025"
       orientation="0.99999943,-0.0010695711"
       id="guide5650"
       inkscape:locked="true" />
    <sodipodi:guide
       position="184.4675,173.0375"
       orientation="0,1"
       id="guide10921"
       inkscape:locked="true" />
    <sodipodi:guide
       position="1.2700157,90.17006"
       orientation="1,0"
       id="guide2171"
       inkscape:locked="true" />
    <sodipodi:guide
       position="119.6975,130.4925"
       orientation="0,-1"
       id="guide91967"
       inkscape:locked="true" />
    <sodipodi:guide
       position="-19.685001,64.769999"
       orientation="0.99999888,-0.0014979945"
       id="guide4340"
       inkscape:locked="true" />
  </sodipodi:namedview>
  <metadata
     id="metadata5">
    <rdf:RDF>
      <cc:Work
         rdf:about="">
        <dc:format>image/svg+xml</dc:format>
        <dc:type
           rdf:resource="http://purl.org/dc/dcmitype/StillImage" />
        <dc:title></dc:title>
      </cc:Work>
    </rdf:RDF>
  </metadata>
  <g
     inkscape:groupmode="layer"
     inkscape:label="symbols"
     transform="translate(-165.41753,-187.96002)"
     id="g1465">
    <g
       aria-label="🌈"
       id="g58236"
       style="font-size:3.52777004px;line-height:100%;font-family:'Segoe UI Emoji';-inkscape-font-specification:'Segoe UI Emoji';letter-spacing:0px;word-spacing:0px;writing-mode:lr-tb;display:inline;opacity:1;fill:#000000;fill-opacity:0.99259291;stroke:none;stroke-width:0.31981999"
       transform="matrix(0.82728946,0,0,0.82728946,98.073293,198.40075)"
       inkscape:export-xdpi="600"
       inkscape:export-ydpi="600"
       inkscape:label="6">
      <path
         d="m 85.241301,-12.620411 v 2.475296 h -0.248047 q -0.153306,0 -0.296277,0.03962 -0.141249,0.03962 -0.265272,0.113688 -0.124023,0.072347 -0.225653,0.1739769 -0.10163,0.1016301 -0.1757,0.2256533 -0.07235,0.1240231 -0.111965,0.2652717 -0.03962,0.1429712 -0.03962,0.2962776 v 0.2480463 h -2.475295 v -0.2480463 q 0,-0.370347 0.07235,-0.7217459 0.07407,-0.3513986 0.21015,-0.6735146 0.136081,-0.322116 0.330728,-0.609781 0.19637,-0.287665 0.439249,-0.530543 0.244601,-0.244601 0.532266,-0.439249 0.287665,-0.19637 0.609781,-0.332451 0.322116,-0.136081 0.673514,-0.208428 0.351399,-0.07407 0.721746,-0.07407 z m -0.248047,0.248046 q -0.461641,0 -0.888832,0.120578 -0.425469,0.118856 -0.797538,0.337619 -0.370347,0.21704 -0.675237,0.521931 -0.304891,0.30489 -0.523654,0.67696 -0.21704,0.370346 -0.337618,0.7975374 -0.118856,0.4271909 -0.118856,0.8871101 h 0.370347 q 0,-0.4099655 0.106798,-0.7889251 0.106798,-0.3789594 0.299722,-0.7079654 0.194648,-0.330729 0.465087,-0.601168 0.272162,-0.272162 0.601168,-0.465087 0.330729,-0.194647 0.709688,-0.301445 0.37896,-0.106798 0.788925,-0.106798 z m 0,0.742417 q -0.358289,0 -0.69074,0.09302 -0.330728,0.09302 -0.620116,0.263549 -0.289387,0.16881 -0.527098,0.406521 -0.235989,0.235988 -0.40652,0.525376 -0.16881,0.289387 -0.261827,0.6218379 -0.09302,0.3307285 -0.09302,0.6890176 h 0.372069 q 0,-0.3066128 0.07924,-0.5908326 0.08096,-0.2842197 0.225653,-0.5322659 0.144694,-0.248046 0.347954,-0.451307 0.20326,-0.20326 0.451307,-0.347954 0.248046,-0.144693 0.532266,-0.22393 0.28422,-0.08096 0.590832,-0.08096 z m 0,0.742416 q -0.256659,0 -0.49437,0.06718 -0.235988,0.06546 -0.442694,0.187758 -0.204982,0.120578 -0.375514,0.29111 -0.168809,0.168809 -0.29111,0.3755141 -0.120578,0.2049828 -0.187757,0.4409713 -0.06546,0.237711 -0.06546,0.4943701 h 0.37207 q 0,-0.2049827 0.0534,-0.3944626 0.0534,-0.1894798 0.149862,-0.3531215 0.09646,-0.1653642 0.232543,-0.3014454 0.136081,-0.136081 0.299723,-0.232543 0.165364,-0.09646 0.354844,-0.149862 0.18948,-0.0534 0.394462,-0.0534 z"
         style="fill:#000000;fill-opacity:0.99259291;stroke:none;stroke-width:0.31981999"
         id="path58234"
         inkscape:connector-curvature="0" />
    </g>
  </g>
</svg>
