<?xml version='1.0' encoding='UTF-8'?>
<!-- Created with Inkscape (http://www.inkscape.org/) and export_objects.py -->
<svg xmlns:cc="http://creativecommons.org/ns#" xmlns:dc="http://purl.org/dc/elements/1.1/" xmlns:inkscape="http://www.inkscape.org/namespaces/inkscape" xmlns:rdf="http://www.w3.org/1999/02/22-rdf-syntax-ns#" xmlns:sodipodi="http://sodipodi.sourceforge.net/DTD/sodipodi-0.dtd" xmlns:xlink="http://www.w3.org/1999/xlink" xmlns="http://www.w3.org/2000/svg" version="1.1" sodipodi:docname="symbols3.svg" inkscape:version="1.2-dev (0677221, 2021-12-22)" id="svg8" viewBox="0 0 5.88527877778 6.09596782667" height="0.239998733333in" width="0.231703888889in"><sodipodi:namedview inkscape:snap-page="true" inkscape:guide-bbox="true" inkscape:snap-intersection-paths="false" inkscape:object-paths="false" inkscape:object-nodes="true" inkscape:snap-to-guides="true" inkscape:measure-end="319.939,-115.274" inkscape:measure-start="214.339,-115.274" inkscape:snap-midpoints="false" inkscape:snap-global="true" inkscape:snap-bbox-midpoints="false" inkscape:snap-bbox-edge-midpoints="true" inkscape:snap-nodes="true" inkscape:bbox-nodes="false" inkscape:bbox-paths="false" inkscape:snap-bbox="false" inkscape:snap-smooth-nodes="true" showguides="false" inkscape:snap-others="true" inkscape:snap-text-baseline="true" inkscape:snap-center="false" inkscape:snap-object-midpoints="false" inkscape:window-maximized="1" inkscape:window-y="533" inkscape:window-x="4306" inkscape:window-height="1441" inkscape:window-width="2560" inkscape:snap-grids="true" units="in" showgrid="false" inkscape:current-layer="layer3" inkscape:document-units="pt" inkscape:cy="694.41652" inkscape:cx="357.0719" inkscape:zoom="1.8676764" inkscape:pageshadow="2" inkscape:pageopacity="0.0" borderopacity="1.0" bordercolor="#666666" pagecolor="#ffffff" id="base" inkscape:lockguides="true" inkscape:document-rotation="0" fit-margin-top="0" fit-margin-left="0" fit-margin-right="0" fit-margin-bottom="0" inkscape:pagecheckerboard="0" inkscape:blackoutopacity="0.0">
    <inkscape:grid empspacing="5" spacingy="1.2700001" spacingx="1.2700001" units="pt" id="grid10" type="xygrid" originx="0" originy="0"/>
    <sodipodi:guide position="236.855,179.07" orientation="1,0" id="guide5642" inkscape:locked="true"/>
    <sodipodi:guide position="182.245,179.07" orientation="1,0" id="guide5644" inkscape:locked="true"/>
    <sodipodi:guide position="127.63502,179.07" orientation="1,0" id="guide5646" inkscape:locked="true"/>
    <sodipodi:guide position="79.375009,179.07" orientation="1,0" id="guide5648" inkscape:locked="true"/>
    <sodipodi:guide position="1.9049997,73.025" orientation="0.99999943,-0.0010695711" id="guide5650" inkscape:locked="true"/>
    <sodipodi:guide position="184.4675,173.0375" orientation="0,1" id="guide10921" inkscape:locked="true"/>
    <sodipodi:guide position="1.2700157,90.17006" orientation="1,0" id="guide2171" inkscape:locked="true"/>
    <sodipodi:guide position="119.6975,130.4925" orientation="0,-1" id="guide91967" inkscape:locked="true"/>
    <sodipodi:guide position="-19.685001,64.769999" orientation="0.99999888,-0.0014979945" id="guide4340" inkscape:locked="true"/>
  </sodipodi:namedview>
  <metadata id="metadata5">
    <rdf:RDF>
      <cc:Work rdf:about="">
        <dc:format>image/svg+xml</dc:format>
        <dc:type rdf:resource="http://purl.org/dc/dcmitype/StillImage"/>
      </cc:Work>
    </rdf:RDF>
  </metadata>
  <g inkscape:groupmode="layer" inkscape:label="symbols" transform="matrix(1.000000,0.000000,0.000000,1.000000,-69.278030,-146.557962)"><path inkscape:connector-curvature="0" id="path7004" style="font-style:normal;font-variant:normal;font-weight:normal;font-stretch:normal;font-size:medium;line-height:100%;font-family:'Segoe UI Emoji';-inkscape-font-specification:'Segoe UI Emoji';font-variant-ligatures:normal;font-variant-caps:normal;font-variant-numeric:normal;font-feature-settings:normal;text-align:center;letter-spacing:0px;word-spacing:0px;writing-mode:lr-tb;text-anchor:middle;display:inline;fill:#800000;fill-opacity:1;stroke:none;stroke-width:0.264583" d="m 67.638199,137.47752 h 4.33553 v 2.95618 h -1.280641 l -1.083197,1.44517 v 0.52652 q 0,0.16454 -0.06307,0.30713 -0.06033,0.14256 -0.167278,0.24956 -0.106953,0.10699 -0.25229,0.16726 -0.142599,0.0631 -0.307135,0.0631 -0.161793,0 -0.307134,-0.0631 -0.142599,-0.0603 -0.249546,-0.16726 -0.106953,-0.10699 -0.170021,-0.2523 -0.06033,-0.14256 -0.06033,-0.30439 v -0.98722 q 0,-0.0987 0.02467,-0.19743 h -0.419568 q -0.161793,0 -0.307135,-0.0603 -0.142598,-0.0631 -0.249546,-0.17002 -0.106953,-0.10699 -0.170021,-0.24954 -0.06033,-0.14535 -0.06033,-0.30714 v -0.10699 q -0.183731,-0.10699 -0.29068,-0.28793 -0.104197,-0.18099 -0.104197,-0.3949 v -0.58958 q 0,-0.21389 0.104197,-0.39213 0.106953,-0.181 0.29068,-0.29069 v -0.10699 q 0,-0.16178 0.06033,-0.30438 0.06307,-0.14535 0.170021,-0.25231 0.106953,-0.10698 0.249546,-0.16727 0.145342,-0.0631 0.307135,-0.0631 z m 3.943384,2.5613 v -2.16915 h -2.520147 q 0.07405,0.0797 0.112443,0.18374 0.04113,0.10147 0.04113,0.21115 v 2.16914 q 0,0.12345 -0.04662,0.23309 -0.04662,0.10699 -0.128894,0.18647 -0.08226,0.0794 -0.191958,0.1262 -0.106954,0.0439 -0.230352,0.0439 -0.03016,0.0466 -0.06307,0.0933 -0.03291,0.0439 -0.06307,0.0932 -0.02743,0.0466 -0.04662,0.0987 -0.01646,0.0521 -0.01646,0.10968 v 0.98722 q 0,0.0822 0.03016,0.15357 0.03016,0.0713 0.08226,0.12345 0.05486,0.0549 0.126143,0.0849 0.07129,0.0302 0.153568,0.0302 0.08226,0 0.153567,-0.0302 0.07129,-0.0301 0.123407,-0.0849 0.05486,-0.0521 0.08502,-0.12345 0.03291,-0.0713 0.03291,-0.15357 v -0.65814 l 1.280641,-1.70843 z m -4.730416,-0.39491 q 0,0.0822 0.03016,0.15632 0.03016,0.0713 0.08228,0.1262 0.05486,0.0521 0.126143,0.0822 0.07129,0.0301 0.153568,0.0301 h 1.77425 v -0.59233 h -2.166394 z m 0,-0.58958 v 0.19745 h 2.166394 v -0.59234 h -1.77425 q -0.08226,0 -0.153568,0.0328 -0.07129,0.03 -0.126143,0.0849 -0.0521,0.0521 -0.08227,0.12345 -0.03016,0.0713 -0.03016,0.15357 z m 0.787032,1.77426 h 1.113362 q 0.02743,0 0.06856,-0.0246 0.04113,-0.0248 0.06307,-0.0411 0.07405,-0.0576 0.104197,-0.14809 0.03016,-0.0905 0.03016,-0.18097 v -0.19745 h -1.774249 v 0.19745 q 0,0.0822 0.03016,0.15357 0.03292,0.0713 0.08502,0.1262 0.05485,0.0521 0.126143,0.0849 0.07129,0.0301 0.153567,0.0301 z m -0.394888,-2.56403 v 0.19743 h 1.77425 v -0.19743 q 0,-0.0822 -0.03016,-0.15356 -0.03016,-0.0713 -0.08502,-0.12346 -0.0521,-0.0549 -0.123407,-0.0849 -0.07129,-0.0329 -0.153567,-0.0329 h -0.987218 q -0.08226,0 -0.153567,0.0329 -0.07129,0.03 -0.126143,0.0849 -0.0521,0.0521 -0.08502,0.12346 -0.03016,0.0713 -0.03016,0.15356 z" inkscape:export-filename="C:\mine\vira-github\vira\playingcards.io\vira-no-pulla.png" inkscape:export-xdpi="600" inkscape:export-ydpi="600" inkscape:label="3"/>
    </g></svg>
