<?xml version="1.0" encoding="UTF-8" standalone="no"?>
<!-- Created with Inkscape (http://www.inkscape.org/) -->

<svg
   width="18pt"
   height="19.202221pt"
   viewBox="0 0 6.3499999 6.774117"
   version="1.1"
   id="svg5"
   inkscape:version="1.1.2 (b8e25be833, 2022-02-05)"
   sodipodi:docname="symbol-flag.svg"
   xmlns:inkscape="http://www.inkscape.org/namespaces/inkscape"
   xmlns:sodipodi="http://sodipodi.sourceforge.net/DTD/sodipodi-0.dtd"
   xmlns="http://www.w3.org/2000/svg"
   xmlns:svg="http://www.w3.org/2000/svg">
  <sodipodi:namedview
     id="namedview7"
     pagecolor="#505050"
     bordercolor="#eeeeee"
     borderopacity="1"
     inkscape:pageshadow="0"
     inkscape:pageopacity="0"
     inkscape:pagecheckerboard="0"
     inkscape:document-units="mm"
     showgrid="false"
     fit-margin-top="0"
     fit-margin-left="0"
     fit-margin-right="0"
     fit-margin-bottom="0"
     units="pt"
     inkscape:zoom="9.0986324"
     inkscape:cx="-3.9566386"
     inkscape:cy="35.499841"
     inkscape:window-width="2880"
     inkscape:window-height="1526"
     inkscape:window-x="2869"
     inkscape:window-y="-11"
     inkscape:window-maximized="1"
     inkscape:current-layer="layer1" />
  <defs
     id="defs2" />
  <g
     inkscape:label="Layer 1"
     inkscape:groupmode="layer"
     id="layer1"
     transform="translate(-34.744903,-76.175461)">
    <g
       aria-label="ðŸ³ï¸"
       id="text8415"
       style="font-size:10.5833px;line-height:1.25;font-family:'Segoe UI Emoji';-inkscape-font-specification:'Segoe UI Emoji';stroke-width:0.264583"
       transform="matrix(0.56994602,0,0,0.56994602,14.942184,32.75956)">
      <path
         d="m 42.914924,76.919607 q 0.439248,0 0.806149,0.03617 0.366902,0.03101 0.713133,0.10852 0.346231,0.07235 0.69763,0.191203 0.351398,0.113687 0.754473,0.273884 v 6.800597 q -0.423745,-0.170532 -0.764809,-0.30489 -0.341063,-0.134359 -0.676959,-0.227376 -0.330728,-0.09302 -0.697629,-0.139526 -0.361734,-0.05168 -0.831988,-0.05168 -0.516763,0 -0.992185,0.06718 -0.470254,0.06718 -0.956011,0.248046 -0.620115,0.232543 -1.235062,0.330728 -0.60978,0.09302 -1.271237,0.09302 -0.377236,0 -0.749306,-0.03101 -0.366901,-0.03101 -0.73897,-0.103353 v 3.849882 h -1.855178 v -9.678965 q -0.180867,-0.180867 -0.279052,-0.41341 -0.09302,-0.237711 -0.09302,-0.490924 0,-0.268717 0.103352,-0.506428 0.103353,-0.237711 0.279052,-0.41341 0.175699,-0.175699 0.41341,-0.279052 0.237711,-0.103352 0.506428,-0.103352 0.268716,0 0.501259,0.103352 0.237711,0.103353 0.413411,0.28422 0.175699,0.175699 0.279051,0.41341 0.103353,0.232543 0.103353,0.50126 0,0.02584 0,0.04651 0,0.02067 -0.0052,0.04651 0.558104,0.09302 1.121375,0.09302 0.516763,0 0.987017,-0.06718 0.475422,-0.07235 0.961179,-0.253214 0.620115,-0.232543 1.229895,-0.32556 0.614947,-0.09819 1.276404,-0.09819 z m -7.42588,0.558104 q 0,0.180867 0.103353,0.32556 0.103352,0.139526 0.268716,0.19637 v 9.317231 h 0.366902 v -9.317231 q 0.165364,-0.05684 0.268716,-0.19637 0.103353,-0.144693 0.103353,-0.32556 0,-0.113688 -0.04651,-0.211873 -0.04134,-0.103353 -0.118855,-0.180867 -0.07235,-0.07751 -0.1757,-0.118855 -0.09819,-0.04651 -0.211872,-0.04651 -0.118856,0 -0.222208,0.04651 -0.09819,0.04134 -0.1757,0.118855 -0.07235,0.07235 -0.118855,0.175699 -0.04134,0.103353 -0.04134,0.217041 z m 9.653127,5.756736 v -5.2038 q -0.527098,-0.206705 -1.095537,-0.28422 -0.568439,-0.08268 -1.13171,-0.08268 -0.578775,0 -1.131711,0.08785 -0.547768,0.08785 -1.095536,0.279052 -0.547769,0.191202 -1.100705,0.284219 -0.547768,0.08785 -1.126543,0.08785 -0.470254,0 -0.940508,-0.05168 -0.465086,-0.05684 -0.919837,-0.191203 v 5.198633 q 0.454751,0.134358 0.919837,0.191202 0.470254,0.05684 0.940508,0.05684 0.578775,0 1.126543,-0.08785 0.552936,-0.09302 1.100705,-0.284219 0.547768,-0.191202 1.095536,-0.279052 0.552936,-0.09302 1.131711,-0.09302 0.558103,0 1.13171,0.08268 0.573606,0.07751 1.095537,0.289387 z"
         id="path9257" />
    </g>
  </g>
</svg>
