<?xml version="1.0" encoding="UTF-8" standalone="no"?>
<!-- Created with Inkscape (http://www.inkscape.org/) and export_objects.py -->

<svg
   xmlns:dc="http://purl.org/dc/elements/1.1/"
   xmlns:cc="http://creativecommons.org/ns#"
   xmlns:rdf="http://www.w3.org/1999/02/22-rdf-syntax-ns#"
   xmlns:svg="http://www.w3.org/2000/svg"
   xmlns="http://www.w3.org/2000/svg"
   xmlns:sodipodi="http://sodipodi.sourceforge.net/DTD/sodipodi-0.dtd"
   xmlns:inkscape="http://www.inkscape.org/namespaces/inkscape"
   version="1.1"
   sodipodi:docname="symbol-win.svg"
   inkscape:version="0.92.5 (2060ec1f9f, 2020-04-08)"
   id="svg8"
   viewBox="0 0 5.5175091 5.7149901"
   height="0.22499961in"
   width="0.21722476in">
  <defs
     id="defs849" />
  <sodipodi:namedview
     inkscape:snap-page="true"
     inkscape:guide-bbox="true"
     inkscape:snap-intersection-paths="false"
     inkscape:object-paths="false"
     inkscape:object-nodes="true"
     inkscape:snap-to-guides="true"
     inkscape:measure-end="319.939,-115.274"
     inkscape:measure-start="214.339,-115.274"
     inkscape:snap-midpoints="false"
     inkscape:snap-global="true"
     inkscape:snap-bbox-midpoints="false"
     inkscape:snap-bbox-edge-midpoints="true"
     inkscape:snap-nodes="true"
     inkscape:bbox-nodes="false"
     inkscape:bbox-paths="false"
     inkscape:snap-bbox="false"
     inkscape:snap-smooth-nodes="true"
     showguides="false"
     inkscape:snap-others="true"
     inkscape:snap-text-baseline="true"
     inkscape:snap-center="false"
     inkscape:snap-object-midpoints="false"
     inkscape:window-maximized="1"
     inkscape:window-y="-14"
     inkscape:window-x="-14"
     inkscape:window-height="1441"
     inkscape:window-width="2560"
     inkscape:snap-grids="true"
     units="in"
     showgrid="false"
     inkscape:current-layer="g846"
     inkscape:document-units="pt"
     inkscape:cy="10.799981"
     inkscape:cx="10.426789"
     inkscape:zoom="48.611196"
     inkscape:pageshadow="2"
     inkscape:pageopacity="0.0"
     borderopacity="1.0"
     bordercolor="#666666"
     pagecolor="#ffffff"
     id="base"
     inkscape:lockguides="true"
     inkscape:document-rotation="0"
     fit-margin-top="0"
     fit-margin-left="0"
     fit-margin-right="0"
     fit-margin-bottom="0"
     inkscape:pagecheckerboard="0"
     inkscape:blackoutopacity="0.0">
    <inkscape:grid
       empspacing="5"
       spacingy="1.2700001"
       spacingx="1.2700001"
       units="pt"
       id="grid10"
       type="xygrid"
       originx="2.2290791"
       originy="-9.4614841" />
    <sodipodi:guide
       position="236.855,179.07"
       orientation="1,0"
       id="guide5642"
       inkscape:locked="true" />
    <sodipodi:guide
       position="182.245,179.07"
       orientation="1,0"
       id="guide5644"
       inkscape:locked="true" />
    <sodipodi:guide
       position="127.63502,179.07"
       orientation="1,0"
       id="guide5646"
       inkscape:locked="true" />
    <sodipodi:guide
       position="79.375009,179.07"
       orientation="1,0"
       id="guide5648"
       inkscape:locked="true" />
    <sodipodi:guide
       position="1.9049997,73.025"
       orientation="0.99999943,-0.0010695711"
       id="guide5650"
       inkscape:locked="true" />
    <sodipodi:guide
       position="184.4675,173.0375"
       orientation="0,1"
       id="guide10921"
       inkscape:locked="true" />
    <sodipodi:guide
       position="1.2700157,90.17006"
       orientation="1,0"
       id="guide2171"
       inkscape:locked="true" />
    <sodipodi:guide
       position="119.6975,130.4925"
       orientation="0,-1"
       id="guide91967"
       inkscape:locked="true" />
    <sodipodi:guide
       position="-19.685001,64.769999"
       orientation="0.99999888,-0.0014979945"
       id="guide4340"
       inkscape:locked="true" />
  </sodipodi:namedview>
  <metadata
     id="metadata5">
    <rdf:RDF>
      <cc:Work
         rdf:about="">
        <dc:format>image/svg+xml</dc:format>
        <dc:type
           rdf:resource="http://purl.org/dc/dcmitype/StillImage" />
        <dc:title></dc:title>
      </cc:Work>
    </rdf:RDF>
  </metadata>
  <g
     inkscape:groupmode="layer"
     inkscape:label="symbols"
     transform="translate(-57.566242,-137.47736)"
     id="g846">
    <path
       inkscape:export-ydpi="600"
       inkscape:export-xdpi="600"
       inkscape:export-filename="C:\mine\vira-github\vira\playingcards.io\vira-no-pulla.png"
       inkscape:connector-curvature="0"
       id="path2225"
       style="font-style:normal;font-variant:normal;font-weight:normal;font-stretch:normal;font-size:medium;line-height:100%;font-family:'Segoe UI Emoji';-inkscape-font-specification:'Segoe UI Emoji';font-variant-ligatures:normal;font-variant-caps:normal;font-variant-numeric:normal;font-feature-settings:normal;text-align:center;letter-spacing:0px;word-spacing:0px;writing-mode:lr-tb;text-anchor:middle;display:inline;fill:#000000;fill-opacity:1;stroke:none;stroke-width:0.26458299"
       d="m 62.691593,140.34299 q 0.09323,0.0521 0.164539,0.1262 0.07405,0.0713 0.123409,0.16179 0.0521,0.0877 0.07678,0.18648 0.02743,0.0987 0.02743,0.20567 v 0.59234 q 0,0.2139 -0.104208,0.39489 -0.104209,0.181 -0.287942,0.28794 v 0.10699 q 0,0.16453 -0.06307,0.30714 -0.06033,0.14256 -0.16728,0.24955 -0.106954,0.10699 -0.252292,0.16728 -0.1426,0.0631 -0.307138,0.0631 h -4.335579 v -2.95621 h 1.280654 l 1.08321,-1.44518 v -0.52653 q 0,-0.16454 0.06033,-0.30714 0.06307,-0.14255 0.170023,-0.24955 0.106953,-0.10699 0.249549,-0.16728 0.145342,-0.0631 0.30988,-0.0631 0.161796,0 0.304395,0.0631 0.145343,0.0603 0.252292,0.16728 0.106953,0.10699 0.16728,0.2523 0.06307,0.14255 0.06307,0.30439 v 0.98723 q 0,0.10148 -0.02467,0.19471 h 0.419573 q 0.164538,0 0.307138,0.0631 0.145343,0.0603 0.252292,0.16728 0.106953,0.10698 0.16728,0.25228 0.06307,0.14256 0.06307,0.30714 z m -2.213037,2.45436 q -0.07129,-0.0797 -0.112444,-0.181 -0.04113,-0.10147 -0.04113,-0.21116 v -2.16915 q 0,-0.12621 0.04662,-0.2331 0.04662,-0.10969 0.128895,-0.18923 0.08226,-0.0797 0.19196,-0.12344 0.109688,-0.0466 0.233098,-0.0466 0.03016,-0.0439 0.06307,-0.0905 0.03291,-0.0466 0.06033,-0.0933 0.03016,-0.0466 0.04662,-0.0987 0.01919,-0.0521 0.01919,-0.10969 v -0.98723 q 0,-0.0822 -0.03291,-0.15358 -0.03016,-0.0713 -0.08502,-0.12344 -0.0521,-0.0549 -0.123409,-0.0849 -0.07129,-0.0329 -0.153569,-0.0329 -0.08226,0 -0.153569,0.0329 -0.07129,0.0301 -0.126145,0.0849 -0.0521,0.0521 -0.08502,0.12344 -0.03016,0.0713 -0.03016,0.15358 v 0.65814 l -1.280656,1.70846 h -1.08321 v 2.16642 z m 2.213037,-1.18193 v -0.19746 h -2.16916 v 0.59234 h 1.774269 q 0.08226,0 0.153569,-0.0301 0.07129,-0.0328 0.123409,-0.0849 0.05486,-0.0549 0.08502,-0.12621 0.03291,-0.0713 0.03291,-0.15357 z m 0,-0.59235 q 0,-0.0822 -0.03291,-0.15357 -0.03016,-0.0713 -0.08502,-0.12345 -0.0521,-0.0549 -0.123409,-0.0849 -0.07129,-0.0301 -0.153569,-0.0301 h -1.77427 v 0.58961 h 2.16916 z m -0.789783,-1.18193 h -1.110633 q -0.03016,0 -0.0713,0.022 -0.04113,0.0221 -0.06307,0.0439 -0.07129,0.0631 -0.104208,0.15082 -0.03016,0.0849 -0.03016,0.17825 v 0.19744 h 1.774269 v -0.19744 q 0,-0.0822 -0.03291,-0.15358 -0.03016,-0.0713 -0.08502,-0.12344 -0.0521,-0.0549 -0.123409,-0.0849 -0.07129,-0.0328 -0.153569,-0.0328 z m 0.394892,2.56405 v -0.19744 h -1.774269 v 0.19744 q 0,0.0822 0.03016,0.15357 0.03291,0.0713 0.08502,0.12346 0.05485,0.0548 0.126145,0.0849 0.07129,0.0301 0.153569,0.0301 h 0.984486 q 0.08226,0 0.153569,-0.0301 0.07129,-0.0302 0.12341,-0.0849 0.05485,-0.0521 0.08502,-0.12346 0.03291,-0.0713 0.03291,-0.15357 z"
       inkscape:label="5" />
  </g>
</svg>
