<?xml version='1.0' encoding='UTF-8'?>
<!-- Created with Inkscape (http://www.inkscape.org/) and export_objects.py -->
<svg xmlns:cc="http://creativecommons.org/ns#" xmlns:dc="http://purl.org/dc/elements/1.1/" xmlns:inkscape="http://www.inkscape.org/namespaces/inkscape" xmlns:rdf="http://www.w3.org/1999/02/22-rdf-syntax-ns#" xmlns:sodipodi="http://sodipodi.sourceforge.net/DTD/sodipodi-0.dtd" xmlns:xlink="http://www.w3.org/1999/xlink" xmlns="http://www.w3.org/2000/svg" version="1.1" sodipodi:docname="symbols1.svg" inkscape:version="1.2-dev (0677221, 2021-12-22)" id="svg8" viewBox="0 0 3.76182156222 3.38666271556" height="0.133333177778in" width="0.148103211111in"><sodipodi:namedview inkscape:snap-page="true" inkscape:guide-bbox="true" inkscape:snap-intersection-paths="false" inkscape:object-paths="false" inkscape:object-nodes="true" inkscape:snap-to-guides="true" inkscape:measure-end="319.939,-115.274" inkscape:measure-start="214.339,-115.274" inkscape:snap-midpoints="false" inkscape:snap-global="true" inkscape:snap-bbox-midpoints="false" inkscape:snap-bbox-edge-midpoints="true" inkscape:snap-nodes="true" inkscape:bbox-nodes="false" inkscape:bbox-paths="false" inkscape:snap-bbox="false" inkscape:snap-smooth-nodes="true" showguides="false" inkscape:snap-others="true" inkscape:snap-text-baseline="true" inkscape:snap-center="false" inkscape:snap-object-midpoints="false" inkscape:window-maximized="1" inkscape:window-y="533" inkscape:window-x="4306" inkscape:window-height="1441" inkscape:window-width="2560" inkscape:snap-grids="true" units="in" showgrid="false" inkscape:current-layer="layer3" inkscape:document-units="pt" inkscape:cy="694.41652" inkscape:cx="357.0719" inkscape:zoom="1.8676764" inkscape:pageshadow="2" inkscape:pageopacity="0.0" borderopacity="1.0" bordercolor="#666666" pagecolor="#ffffff" id="base" inkscape:lockguides="true" inkscape:document-rotation="0" fit-margin-top="0" fit-margin-left="0" fit-margin-right="0" fit-margin-bottom="0" inkscape:pagecheckerboard="0" inkscape:blackoutopacity="0.0">
    <inkscape:grid empspacing="5" spacingy="1.2700001" spacingx="1.2700001" units="pt" id="grid10" type="xygrid" originx="0" originy="0"/>
    <sodipodi:guide position="236.855,179.07" orientation="1,0" id="guide5642" inkscape:locked="true"/>
    <sodipodi:guide position="182.245,179.07" orientation="1,0" id="guide5644" inkscape:locked="true"/>
    <sodipodi:guide position="127.63502,179.07" orientation="1,0" id="guide5646" inkscape:locked="true"/>
    <sodipodi:guide position="79.375009,179.07" orientation="1,0" id="guide5648" inkscape:locked="true"/>
    <sodipodi:guide position="1.9049997,73.025" orientation="0.99999943,-0.0010695711" id="guide5650" inkscape:locked="true"/>
    <sodipodi:guide position="184.4675,173.0375" orientation="0,1" id="guide10921" inkscape:locked="true"/>
    <sodipodi:guide position="1.2700157,90.17006" orientation="1,0" id="guide2171" inkscape:locked="true"/>
    <sodipodi:guide position="119.6975,130.4925" orientation="0,-1" id="guide91967" inkscape:locked="true"/>
    <sodipodi:guide position="-19.685001,64.769999" orientation="0.99999888,-0.0014979945" id="guide4340" inkscape:locked="true"/>
  </sodipodi:namedview>
  <metadata id="metadata5">
    <rdf:RDF>
      <cc:Work rdf:about="">
        <dc:format>image/svg+xml</dc:format>
        <dc:type rdf:resource="http://purl.org/dc/dcmitype/StillImage"/>
      </cc:Work>
    </rdf:RDF>
  </metadata>
  <g inkscape:groupmode="layer" inkscape:label="symbols" transform="matrix(1.000000,0.000000,0.000000,1.000000,-174.649108,-195.664679)"><g aria-label="ðŸŒ§ï¸" id="g94895" style="font-size:3.52777px;line-height:100%;font-family:'Segoe UI Emoji';-inkscape-font-specification:'Segoe UI Emoji';letter-spacing:0px;word-spacing:0px;writing-mode:lr-tb;display:inline;opacity:1;fill:#000000;fill-opacity:0.992593;stroke:none;stroke-width:0.278621" transform="matrix(0.94961706,0,0,0.94961706,75.879429,195.03011)" inkscape:export-xdpi="600" inkscape:export-ydpi="600" inkscape:label="1">
      <path d="m 97.173043,-11.252711 q 0.137804,0.01895 0.254937,0.0844 0.118855,0.06374 0.204982,0.163642 0.08613,0.09818 0.134359,0.223931 0.04995,0.125746 0.04995,0.265272 0,0.136081 -0.04651,0.258381 -0.04651,0.122301 -0.129191,0.220486 -0.08268,0.098185 -0.19637,0.165364 -0.111965,0.065457 -0.246324,0.08785 v 0.072347 q 0,0.089572 -0.03445,0.1688093 -0.03445,0.079237 -0.09302,0.1378036 -0.05857,0.058566 -0.137804,0.093017 -0.07924,0.034451 -0.168809,0.034451 -0.04823,0 -0.09646,-0.012058 -0.04651,-0.012058 -0.08957,-0.032728 v 0.1050752 q 0,0.089572 -0.03445,0.1688093 -0.03273,0.079237 -0.0913,0.1378035 -0.05857,0.058566 -0.137804,0.093017 -0.07924,0.034451 -0.168809,0.034451 -0.08957,0 -0.168809,-0.034451 -0.07924,-0.034451 -0.137804,-0.093017 -0.05857,-0.058566 -0.09302,-0.1378035 -0.03445,-0.079237 -0.03445,-0.1688093 0,-0.017226 0,-0.034451 0.0017,-0.015503 0.0034,-0.032728 -0.07062,-0.010335 -0.127468,-0.037896 v 0.1050752 q 0,0.089572 -0.03445,0.1688093 -0.03273,0.079237 -0.0913,0.1378035 -0.05857,0.058566 -0.137804,0.093017 -0.07924,0.034451 -0.168809,0.034451 -0.08957,0 -0.168809,-0.034451 -0.07924,-0.034451 -0.137804,-0.093017 -0.05857,-0.058566 -0.09302,-0.1378035 -0.03445,-0.079237 -0.03445,-0.1688093 0,-0.032728 0.0052,-0.067179 -0.08096,-0.010335 -0.149862,-0.048231 -0.06718,-0.037896 -0.118855,-0.09474 -0.04995,-0.056844 -0.07924,-0.1291908 -0.02756,-0.074069 -0.02756,-0.155029 0,-0.067179 0.01895,-0.1309133 0.02067,-0.065457 0.06029,-0.1205781 -0.07751,-0.062011 -0.139526,-0.1378031 -0.06029,-0.07579 -0.10163,-0.161919 -0.04134,-0.08785 -0.06373,-0.18259 -0.02239,-0.09646 -0.02239,-0.194648 0,-0.179144 0.06718,-0.335896 0.0689,-0.158474 0.186035,-0.275607 0.118855,-0.118855 0.275607,-0.186034 0.158474,-0.0689 0.337618,-0.0689 0.02928,0 0.05684,0.0017 0.02756,0.0017 0.05684,0.0052 0.0689,-0.142971 0.173977,-0.258382 0.106798,-0.11541 0.235989,-0.19637 0.130913,-0.08268 0.280774,-0.127468 0.151584,-0.04479 0.310058,-0.04479 0.19637,0 0.373792,0.06546 0.179145,0.06373 0.323839,0.180867 0.144693,0.11541 0.246323,0.275607 0.10163,0.160196 0.144694,0.351399 z m -2.203134,1.231619 h 2.104949 q 0.103353,0 0.192925,-0.0379 0.08957,-0.03962 0.156751,-0.106798 0.06718,-0.06718 0.105076,-0.156751 0.03962,-0.08957 0.03962,-0.192925 0,-0.10163 -0.03962,-0.191203 -0.0379,-0.0913 -0.105076,-0.158474 -0.06718,-0.06718 -0.156751,-0.106798 -0.08957,-0.03962 -0.192925,-0.03962 h -0.124023 q 0,-0.179145 -0.0689,-0.335896 -0.06718,-0.158474 -0.186035,-0.275607 -0.117133,-0.118856 -0.275607,-0.186035 -0.156751,-0.0689 -0.335896,-0.0689 -0.153306,0 -0.292832,0.05168 -0.137804,0.04995 -0.251492,0.141248 -0.111965,0.08957 -0.191202,0.215318 -0.07751,0.124023 -0.110243,0.272162 -0.129191,-0.06029 -0.268717,-0.06029 -0.12919,0 -0.241156,0.04823 -0.111965,0.04823 -0.19637,0.132636 -0.0844,0.08441 -0.132636,0.19637 -0.04823,0.111966 -0.04823,0.241156 0,0.127469 0.04823,0.241157 0.04823,0.111965 0.132636,0.19637 0.08441,0.0844 0.19637,0.132635 0.113688,0.04823 0.241156,0.04823 z m 0.37207,0.8044278 v -0.3083354 l -0.272162,0.1446937 q -0.04479,0.024116 -0.07235,0.067179 -0.02756,0.044786 -0.02756,0.096462 0,0.039618 0.01378,0.072347 0.0155,0.034451 0.03962,0.058566 0.02584,0.025838 0.05857,0.039619 0.03445,0.015503 0.07407,0.015503 0.0379,0 0.07062,-0.015503 0.03445,-0.01378 0.06029,-0.039619 0.02584,-0.025838 0.03962,-0.060289 0.0155,-0.032728 0.0155,-0.070624 z m 0.990463,0 v -0.3083354 l -0.272162,0.1446937 q -0.04479,0.024116 -0.07235,0.067179 -0.02756,0.044786 -0.02756,0.096462 0,0.039618 0.01378,0.072347 0.0155,0.034451 0.03962,0.058566 0.02584,0.025838 0.05857,0.039619 0.03445,0.015503 0.07407,0.015503 0.0379,0 0.07062,-0.015503 0.03445,-0.01378 0.06029,-0.039619 0.02584,-0.025838 0.03962,-0.060289 0.0155,-0.032728 0.0155,-0.070624 z m -1.548567,-0.3083354 q 0.0379,0 0.07235,-0.01378 0.03445,-0.015503 0.05857,-0.039619 0.02584,-0.025838 0.03962,-0.058566 0.0155,-0.034451 0.0155,-0.074069 v -0.1860347 q -0.04823,0 -0.09646,-0.00517 -0.04651,-0.00517 -0.0913,-0.018948 l -0.0844,0.044786 q -0.04479,0.024116 -0.07235,0.070624 -0.02756,0.044786 -0.02756,0.09474 0,0.037896 0.01378,0.072347 0.0155,0.032728 0.04134,0.058566 0.02584,0.025838 0.05857,0.041341 0.03445,0.01378 0.07235,0.01378 z m 2.16696,-0.1860348 v -0.1860347 h -0.232544 l -0.03962,0.02067 q -0.04479,0.024116 -0.07235,0.068902 -0.02756,0.044786 -0.02756,0.096462 0,0.037896 0.01378,0.072347 0.0155,0.032728 0.04134,0.058566 0.02584,0.025838 0.05857,0.041341 0.03445,0.01378 0.07235,0.01378 0.0379,0 0.07235,-0.01378 0.03445,-0.015503 0.05857,-0.039619 0.02584,-0.025838 0.03962,-0.058566 0.0155,-0.034451 0.0155,-0.074069 z m -1.176498,0.1860348 q 0.0379,0 0.07235,-0.01378 0.03445,-0.015503 0.05857,-0.039619 0.02584,-0.025838 0.03962,-0.058566 0.0155,-0.034451 0.0155,-0.074069 v -0.1860347 h -0.232543 l -0.03962,0.02067 q -0.04479,0.024116 -0.07235,0.070624 -0.02756,0.044786 -0.02756,0.09474 0,0.037896 0.01378,0.072347 0.0155,0.032728 0.04134,0.058566 0.02584,0.025838 0.05857,0.041341 0.03445,0.01378 0.07235,0.01378 z" style="fill:#000000;fill-opacity:0.992593;stroke:none;stroke-width:0.278621" id="path94893" inkscape:connector-curvature="0"/>
    </g>
    </g></svg>
