<?xml version="1.0" encoding="UTF-8" standalone="no"?>
<!-- Created with Inkscape (http://www.inkscape.org/) -->

<svg
   width="210mm"
   height="297mm"
   viewBox="0 0 210 297"
   version="1.1"
   id="svg5"
   inkscape:version="1.2.1 (9c6d41e410, 2022-07-14)"
   sodipodi:docname="vira-symbols.svg"
   xmlns:inkscape="http://www.inkscape.org/namespaces/inkscape"
   xmlns:sodipodi="http://sodipodi.sourceforge.net/DTD/sodipodi-0.dtd"
   xmlns="http://www.w3.org/2000/svg"
   xmlns:svg="http://www.w3.org/2000/svg">
  <sodipodi:namedview
     id="namedview7"
     pagecolor="#505050"
     bordercolor="#eeeeee"
     borderopacity="1"
     inkscape:showpageshadow="0"
     inkscape:pageopacity="0"
     inkscape:pagecheckerboard="0"
     inkscape:deskcolor="#505050"
     inkscape:document-units="mm"
     showgrid="false"
     inkscape:zoom="4.4727152"
     inkscape:cx="253.31369"
     inkscape:cy="243.47627"
     inkscape:window-width="1920"
     inkscape:window-height="986"
     inkscape:window-x="-11"
     inkscape:window-y="-11"
     inkscape:window-maximized="1"
     inkscape:current-layer="layer1" />
  <defs
     id="defs2" />
  <g
     inkscape:label="Layer 1"
     inkscape:groupmode="layer"
     id="layer1">
    <path
       d="m 56.667232,54.463474 h 4.754227 v 4.754228 h -4.754227 z m 4.456571,4.456572 V 54.76113 h -4.158915 v 4.158916 z m -3.119186,-2.079458 q 0,0.14056 0.06201,0.260449 l -0.219108,0.219108 q -0.06821,-0.107487 -0.10542,-0.229443 -0.03514,-0.121956 -0.03514,-0.250114 0,-0.183968 0.07028,-0.345198 0.07028,-0.163297 0.19017,-0.283187 0.121956,-0.121956 0.283186,-0.192236 0.163298,-0.07028 0.347265,-0.07028 h 0.892968 v -0.446484 l 0.593245,0.595312 -0.593245,0.593245 V 56.247343 H 58.59786 q -0.121956,0 -0.23151,0.04754 -0.107487,0.04548 -0.188102,0.12609 -0.08062,0.08061 -0.128157,0.190169 -0.04547,0.107487 -0.04547,0.229443 z m 2.236554,-0.479557 q 0.06821,0.107487 0.103352,0.229444 0.03721,0.121956 0.03721,0.250113 0,0.183968 -0.07028,0.347266 -0.07028,0.16123 -0.192237,0.283186 -0.119889,0.11989 -0.283186,0.190169 -0.161231,0.07028 -0.345199,0.07028 h -0.892968 v 0.446484 l -0.593244,-0.595312 0.593244,-0.593245 V 57.4359 h 0.892968 q 0.11989,0 0.227377,-0.04754 0.109554,-0.04754 0.190169,-0.128157 0.08062,-0.08268 0.128157,-0.190169 0.04754,-0.107487 0.04754,-0.229444 0,-0.138492 -0.06201,-0.260449 z"
       id="path317"
       style="font-size:4.23333px;line-height:1;font-family:'Segoe UI Emoji';-inkscape-font-specification:'Segoe UI Emoji';stroke-width:0.264583" />
    <path
       d="m 65.747806,54.76113 q 0.1757,0 0.322461,0.01447 0.146761,0.0124 0.285254,0.04341 0.138493,0.02894 0.279052,0.07648 0.14056,0.04548 0.30179,0.109554 v 2.720245 q -0.169498,-0.06821 -0.305924,-0.121956 -0.136425,-0.05374 -0.270784,-0.09095 -0.132292,-0.03721 -0.279053,-0.05581 -0.144693,-0.02067 -0.332796,-0.02067 -0.206705,0 -0.396874,0.02687 -0.188102,0.02687 -0.382405,0.09922 -0.248047,0.09302 -0.494027,0.132291 -0.243912,0.03721 -0.508495,0.03721 -0.150895,0 -0.299723,-0.0124 -0.146761,-0.0124 -0.295589,-0.04134 V 59.21771 H 62.62862 v -3.871595 q -0.07235,-0.07235 -0.111621,-0.165364 -0.03721,-0.09508 -0.03721,-0.196371 0,-0.107486 0.04134,-0.202571 0.04134,-0.09509 0.111621,-0.165364 0.07028,-0.07028 0.165364,-0.111621 0.09508,-0.04134 0.202572,-0.04134 0.107487,0 0.200504,0.04134 0.09508,0.04134 0.165364,0.113688 0.07028,0.07028 0.111621,0.165364 0.04134,0.09302 0.04134,0.200504 0,0.01034 0,0.0186 0,0.0083 -0.0021,0.0186 0.223242,0.03721 0.448551,0.03721 0.206705,0 0.394807,-0.02687 0.190169,-0.02894 0.384473,-0.101286 0.248046,-0.09302 0.491959,-0.130224 0.245979,-0.03927 0.510562,-0.03927 z m -2.970358,0.223242 q 0,0.07235 0.04134,0.130225 0.04134,0.05581 0.107487,0.07855 v 3.726901 h 0.146761 v -3.726901 q 0.06614,-0.02274 0.107486,-0.07855 0.04134,-0.05788 0.04134,-0.130225 0,-0.04548 -0.0186,-0.08475 -0.01654,-0.04134 -0.04754,-0.07235 -0.02894,-0.03101 -0.07028,-0.04754 -0.03927,-0.0186 -0.08475,-0.0186 -0.04754,0 -0.08888,0.0186 -0.03927,0.01654 -0.07028,0.04754 -0.02894,0.02894 -0.04754,0.07028 -0.01654,0.04134 -0.01654,0.08682 z m 3.861259,2.3027 v -2.081525 q -0.210839,-0.08268 -0.438215,-0.113688 -0.227376,-0.03307 -0.452686,-0.03307 -0.23151,0 -0.452685,0.03514 -0.219108,0.03514 -0.438215,0.111621 -0.219108,0.07648 -0.440283,0.113688 -0.219108,0.03514 -0.450618,0.03514 -0.188102,0 -0.376205,-0.02067 -0.186035,-0.02274 -0.367935,-0.07648 v 2.079458 q 0.1819,0.05374 0.367935,0.07648 0.188103,0.02274 0.376205,0.02274 0.23151,0 0.450618,-0.03514 0.221175,-0.03721 0.440283,-0.113688 0.219107,-0.07648 0.438215,-0.111621 0.221175,-0.03721 0.452685,-0.03721 0.223242,0 0.452686,0.03307 0.229443,0.03101 0.438215,0.115755 z"
       id="path319"
       style="font-size:4.23333px;line-height:1;font-family:'Segoe UI Emoji';-inkscape-font-specification:'Segoe UI Emoji';stroke-width:0.264583" />
    <path
       d="m 71.860089,57.070032 q 0.07028,0.03927 0.124023,0.09508 0.05581,0.05374 0.09302,0.121956 0.03927,0.06615 0.05788,0.14056 0.02067,0.07441 0.02067,0.155029 v 0.446484 q 0,0.161231 -0.07855,0.297656 -0.07855,0.136426 -0.217041,0.217041 v 0.08062 q 0,0.124024 -0.04754,0.231511 -0.04547,0.107486 -0.126091,0.188102 -0.08062,0.08062 -0.190169,0.12609 -0.107487,0.04754 -0.23151,0.04754 h -3.268015 v -2.228286 h 0.965315 l 0.816487,-1.089338 v -0.396875 q 0,-0.124023 0.04547,-0.23151 0.04754,-0.107487 0.128158,-0.188102 0.08062,-0.08062 0.188102,-0.12609 0.109554,-0.04754 0.233577,-0.04754 0.121956,0 0.229443,0.04754 0.109554,0.04547 0.190169,0.12609 0.08062,0.08062 0.126091,0.190169 0.04754,0.107487 0.04754,0.229443 v 0.74414 q 0,0.07648 -0.0186,0.146761 h 0.316259 q 0.124023,0 0.23151,0.04754 0.109554,0.04547 0.190169,0.12609 0.08062,0.08062 0.126091,0.190169 0.04754,0.107487 0.04754,0.23151 z m -1.668114,1.850014 q -0.05374,-0.05994 -0.08475,-0.136425 -0.03101,-0.07648 -0.03101,-0.159164 v -1.635041 q 0,-0.09508 0.03514,-0.175699 0.03514,-0.08268 0.09715,-0.142627 0.06201,-0.05994 0.144694,-0.09302 0.08268,-0.03514 0.175699,-0.03514 0.02274,-0.03307 0.04754,-0.06821 0.0248,-0.03514 0.04547,-0.07028 0.02274,-0.03514 0.03514,-0.07441 0.01447,-0.03927 0.01447,-0.08268 v -0.74414 q 0,-0.06201 -0.02481,-0.115755 -0.02274,-0.05374 -0.06408,-0.09302 -0.03927,-0.04134 -0.09302,-0.06408 -0.05374,-0.02481 -0.115755,-0.02481 -0.06201,0 -0.115755,0.02481 -0.05374,0.02274 -0.09508,0.06408 -0.03927,0.03927 -0.06408,0.09302 -0.02274,0.05374 -0.02274,0.115755 v 0.496094 l -0.965315,1.287775 h -0.816487 v 1.632974 z m 1.668114,-0.890901 v -0.148828 h -1.635041 v 0.446484 h 1.337385 q 0.06201,0 0.115755,-0.02274 0.05374,-0.0248 0.09302,-0.06408 0.04134,-0.04134 0.06408,-0.09508 0.02481,-0.05374 0.02481,-0.115755 z m 0,-0.446484 q 0,-0.06201 -0.02481,-0.115755 -0.02274,-0.05374 -0.06408,-0.09302 -0.03927,-0.04134 -0.09302,-0.06408 -0.05374,-0.02274 -0.115755,-0.02274 h -1.337385 v 0.444417 H 71.86008 Z M 71.264777,56.69176 H 70.42762 q -0.02274,0 -0.05374,0.01654 -0.03101,0.01654 -0.04754,0.03307 -0.05374,0.04754 -0.07855,0.113688 -0.02274,0.06408 -0.02274,0.134358 v 0.148828 h 1.337385 v -0.148828 q 0,-0.06201 -0.02481,-0.115755 -0.02274,-0.05374 -0.06408,-0.09302 -0.03927,-0.04134 -0.09302,-0.06408 -0.05374,-0.02481 -0.115755,-0.02481 z m 0.297656,1.932697 v -0.148828 h -1.337385 v 0.148828 q 0,0.06201 0.02274,0.115755 0.0248,0.05374 0.06408,0.09302 0.04134,0.04134 0.09508,0.06408 0.05374,0.02274 0.115755,0.02274 h 0.742073 q 0.06201,0 0.115755,-0.02274 0.05374,-0.02274 0.09302,-0.06408 0.04134,-0.03927 0.06408,-0.09302 0.02481,-0.05374 0.02481,-0.115755 z"
       id="path321"
       style="font-size:4.23333px;line-height:1;font-family:'Segoe UI Emoji';-inkscape-font-specification:'Segoe UI Emoji';stroke-width:0.264583" />
    <path
       d="m 74.10698,54.909958 h 3.268015 v 2.228286 H 76.40968 l -0.816487,1.089339 v 0.396874 q 0,0.124024 -0.04754,0.231511 -0.04547,0.107486 -0.12609,0.188102 -0.08062,0.08062 -0.190169,0.12609 -0.107487,0.04754 -0.23151,0.04754 -0.121957,0 -0.231511,-0.04754 -0.107486,-0.04548 -0.188102,-0.12609 -0.08061,-0.08062 -0.128157,-0.19017 -0.04548,-0.107486 -0.04548,-0.229443 v -0.74414 q 0,-0.07441 0.0186,-0.148828 H 74.10698 q -0.121957,0 -0.231511,-0.04548 -0.107486,-0.04754 -0.188102,-0.128157 -0.08061,-0.08062 -0.128157,-0.188102 -0.04547,-0.109554 -0.04547,-0.231511 v -0.08062 q -0.138493,-0.08062 -0.219108,-0.217041 -0.07855,-0.136425 -0.07855,-0.297656 v -0.444417 q 0,-0.16123 0.07855,-0.295589 0.08061,-0.136425 0.219108,-0.219107 v -0.08062 q 0,-0.121956 0.04547,-0.229443 0.04754,-0.109554 0.128157,-0.190169 0.08062,-0.08062 0.188102,-0.12609 0.109554,-0.04754 0.231511,-0.04754 z m 2.972426,1.93063 v -1.635041 h -1.899624 q 0.05581,0.05994 0.08475,0.138493 0.03101,0.07648 0.03101,0.159163 v 1.635041 q 0,0.09302 -0.03514,0.1757 -0.03514,0.08062 -0.09715,0.14056 -0.06201,0.05994 -0.144694,0.09508 -0.08062,0.03307 -0.173632,0.03307 -0.02274,0.03514 -0.04754,0.07028 -0.0248,0.03307 -0.04754,0.07028 -0.02067,0.03514 -0.03514,0.07441 -0.0124,0.03927 -0.0124,0.08268 v 0.74414 q 0,0.06201 0.02274,0.115755 0.02274,0.05374 0.06201,0.09302 0.04134,0.04134 0.09508,0.06408 0.05374,0.02274 0.115755,0.02274 0.06201,0 0.115755,-0.02274 0.05374,-0.02274 0.09302,-0.06408 0.04134,-0.03927 0.06408,-0.09302 0.02481,-0.05374 0.02481,-0.115755 v -0.496093 l 0.965315,-1.287776 z m -3.565671,-0.297656 q 0,0.06201 0.02274,0.117823 0.02274,0.05374 0.06201,0.09508 0.04134,0.03927 0.09508,0.06201 0.05374,0.02274 0.115755,0.02274 h 1.337385 v -0.446484 h -1.632974 z m 0,-0.444417 v 0.148828 h 1.632974 v -0.446484 h -1.337385 q -0.06201,0 -0.115755,0.02481 -0.05374,0.02274 -0.09508,0.06408 -0.03927,0.03927 -0.06201,0.09302 -0.02274,0.05374 -0.02274,0.115755 z M 74.10698,57.4359 h 0.839224 q 0.02067,0 0.05168,-0.0186 0.031,-0.0186 0.04754,-0.03101 0.05581,-0.04341 0.07855,-0.111621 0.02274,-0.06821 0.02274,-0.136426 v -0.148828 h -1.337385 v 0.148828 q 0,0.06201 0.02274,0.115755 0.02481,0.05374 0.06408,0.09508 0.04134,0.03927 0.09508,0.06408 0.05374,0.02274 0.115755,0.02274 z m -0.297656,-1.932697 v 0.148828 h 1.337385 v -0.148828 q 0,-0.06201 -0.02274,-0.115755 -0.02274,-0.05374 -0.06408,-0.09302 -0.03927,-0.04134 -0.09302,-0.06408 -0.05374,-0.02481 -0.115755,-0.02481 h -0.74414 q -0.06201,0 -0.115755,0.02481 -0.05374,0.02274 -0.09508,0.06408 -0.03927,0.03927 -0.06408,0.09302 -0.02274,0.05374 -0.02274,0.115755 z"
       id="path323"
       style="font-size:4.23333px;line-height:1;font-family:'Segoe UI Emoji';-inkscape-font-specification:'Segoe UI Emoji';stroke-width:0.264583" />
    <path
       d="m 83.189621,55.205547 q 0,0.212907 -0.08268,0.405143 -0.08061,0.190169 -0.229443,0.338997 0.148828,0.148828 0.229443,0.338998 0.08268,0.190169 0.08268,0.403075 v 1.188557 h -0.446484 q -0.200504,0 -0.378271,-0.07028 -0.03721,0.09922 -0.09302,0.192237 -0.05374,0.09095 -0.121956,0.171565 0,0.132292 -0.04547,0.254248 -0.04341,0.121956 -0.124023,0.219108 -0.07855,0.09715 -0.19017,0.165364 -0.109553,0.06821 -0.239778,0.09302 -0.148828,0.148828 -0.338997,0.229443 -0.188102,0.08268 -0.398942,0.08268 -0.210839,0 -0.401009,-0.08268 -0.190169,-0.08061 -0.338997,-0.229443 -0.130224,-0.02687 -0.241845,-0.09508 -0.109554,-0.06615 -0.188102,-0.163297 -0.07855,-0.09715 -0.124024,-0.219108 -0.04341,-0.119889 -0.04341,-0.254248 -0.06821,-0.08062 -0.124023,-0.171565 -0.05374,-0.09302 -0.09095,-0.192237 -0.177766,0.07028 -0.378271,0.07028 H 78.435393 V 56.69176 q 0,-0.212906 0.08062,-0.403075 0.08268,-0.19017 0.23151,-0.338998 -0.148828,-0.148828 -0.23151,-0.338997 -0.08062,-0.192236 -0.08062,-0.405143 v -0.295589 q 0,-0.09302 0.03514,-0.173632 0.03514,-0.08062 0.09508,-0.14056 0.06201,-0.06201 0.142627,-0.09715 0.08061,-0.03514 0.173632,-0.03514 h 0.295589 v 0.446484 q 0,0.05994 0.04341,0.10542 0.04548,0.04341 0.10542,0.04341 h 2.972426 q 0.05994,0 0.103353,-0.04341 0.04547,-0.04547 0.04547,-0.10542 v -0.446484 h 0.295589 q 0.09302,0 0.173633,0.03514 0.08061,0.03514 0.14056,0.09715 0.06201,0.05994 0.09715,0.14056 0.03514,0.08062 0.03514,0.173632 z m -0.297656,2.377114 V 56.69176 q 0,-0.150895 -0.05994,-0.285253 -0.05788,-0.136426 -0.159163,-0.237712 -0.101286,-0.101285 -0.237711,-0.159163 -0.134359,-0.05995 -0.285254,-0.05995 0,-0.121956 -0.04754,-0.229443 -0.04754,-0.109554 -0.128158,-0.190169 -0.08062,-0.08061 -0.190169,-0.128157 -0.107487,-0.04754 -0.229443,-0.04754 h -1.484146 q -0.121956,0 -0.23151,0.04754 -0.107487,0.04754 -0.188102,0.128157 -0.08062,0.08062 -0.128157,0.190169 -0.04754,0.107487 -0.04754,0.229443 -0.138492,0 -0.272851,0.05581 -0.132292,0.05374 -0.237711,0.148828 -0.103353,0.09302 -0.167432,0.221175 -0.06408,0.12609 -0.06408,0.268717 v 0.938443 q 0.08475,0 0.161231,-0.0021 0.07855,-0.0041 0.150895,-0.0186 0.07235,-0.01447 0.140559,-0.04341 0.07028,-0.03101 0.142627,-0.08475 0,-0.225309 -0.0021,-0.444417 0,-0.221175 0,-0.446484 l 0.148828,-0.148828 v 0.892968 q 0,0.124024 0.0124,0.243913 0.01447,0.117822 0.07441,0.229443 l 0.06201,0.115755 q 0,-0.10542 0.03514,-0.198437 0.03514,-0.09508 0.09715,-0.171566 0.06408,-0.07648 0.150895,-0.130224 0.08682,-0.05374 0.188102,-0.07648 0.05788,-0.10542 0.08888,-0.221175 0.03307,-0.117822 0.03307,-0.237712 v -0.742073 q 0,-0.117822 0.04547,-0.227376 0.04548,-0.109554 0.130225,-0.194303 0.08268,-0.08268 0.192236,-0.128157 0.109554,-0.04548 0.227376,-0.04548 0.119889,0 0.23151,0.04754 0.08062,0.03514 0.146761,0.09302 0.06821,0.05581 0.115755,0.128158 0.04754,0.07235 0.07235,0.157096 0.02687,0.08268 0.02687,0.169498 v 0.742073 q 0,0.115755 0.03514,0.235645 0.03514,0.119889 0.08682,0.223242 0.101286,0.02274 0.188102,0.07648 0.08682,0.05374 0.148828,0.130224 0.06408,0.07648 0.09922,0.171566 0.03721,0.09302 0.03721,0.198437 0.08682,-0.136425 0.117822,-0.283186 0.03101,-0.146761 0.03101,-0.305925 v -0.892968 l 0.148828,0.148828 q 0,0.128158 0,0.254248 0.0021,0.126091 0.0021,0.254248 0,0.09715 -0.0021,0.192236 0,0.09302 -0.0021,0.190169 0.07028,0.05581 0.14056,0.08682 0.07028,0.02894 0.142627,0.04341 0.07235,0.01447 0.148828,0.01654 0.07648,0.0021 0.163297,0.0021 z M 80.188256,57.4359 q -0.08682,0 -0.163297,0.03927 -0.07441,0.03721 -0.130224,0.101286 -0.05581,0.06201 -0.08888,0.142627 -0.03307,0.07855 -0.03307,0.16123 v 0.297656 q 0,0.09302 0.03514,0.173633 0.03514,0.08062 0.09508,0.14056 0.05994,0.06201 0.14056,0.09715 0.08061,0.03514 0.173632,0.03514 h 1.188557 q 0.09302,0 0.173633,-0.03514 0.08061,-0.03514 0.14056,-0.09715 0.06201,-0.05994 0.09715,-0.14056 0.03514,-0.08061 0.03514,-0.173633 v -0.297656 q 0,-0.08268 -0.03307,-0.16123 -0.03307,-0.08062 -0.09095,-0.142627 -0.05581,-0.06408 -0.132292,-0.101286 -0.07441,-0.03927 -0.159163,-0.03927 z m 0.624251,-1.783869 q -0.09302,0 -0.173632,0.03514 -0.08062,0.03514 -0.142627,0.09715 -0.05994,0.05994 -0.09508,0.14056 -0.03514,0.08062 -0.03514,0.173632 v 0.742073 q 0,0.115755 -0.02687,0.229444 -0.02687,0.111621 -0.07235,0.21704 h 1.091405 q -0.04547,-0.105419 -0.07235,-0.21704 -0.02687,-0.113689 -0.02687,-0.229444 v -0.742073 q 0,-0.09302 -0.03514,-0.173632 -0.03514,-0.08062 -0.09715,-0.14056 -0.05994,-0.06201 -0.14056,-0.09715 -0.08062,-0.03514 -0.173633,-0.03514 z m 1.676382,0.214974 q 0.09302,-0.04754 0.167432,-0.117822 0.07441,-0.07028 0.12609,-0.155029 0.05374,-0.08682 0.08062,-0.186035 0.02894,-0.09922 0.02894,-0.202572 v -0.295589 q 0,-0.06201 -0.04341,-0.105419 -0.04341,-0.04341 -0.10542,-0.04341 v 0.148828 q 0,0.09302 -0.03514,0.173633 -0.03514,0.08062 -0.09508,0.14056 -0.05994,0.05994 -0.14056,0.09508 -0.08061,0.03514 -0.173633,0.03514 h -0.297656 q 0.05374,0.03927 0.09922,0.09095 0.04754,0.05168 0.08475,0.111621 0.03721,0.05788 0.06201,0.124023 0.02687,0.06408 0.03721,0.130225 0.10542,0.01654 0.204638,0.05581 z m -3.75584,-0.661458 q 0,0.103353 0.02687,0.202572 0.02894,0.09922 0.08061,0.186035 0.05374,0.08475 0.128158,0.155029 0.07441,0.07028 0.167431,0.117822 0.09508,-0.03927 0.202572,-0.05581 0.02687,-0.136426 0.09922,-0.256315 0.07441,-0.119889 0.186035,-0.200505 h -0.297656 q -0.09302,0 -0.173632,-0.03514 -0.08062,-0.03514 -0.14056,-0.09508 -0.05994,-0.05994 -0.09508,-0.14056 -0.03514,-0.08062 -0.03514,-0.173633 V 54.76113 q -0.06201,0 -0.10542,0.04341 -0.04341,0.04341 -0.04341,0.105419 z m 1.114143,0.892968 q 0.04547,0 0.08475,0.0186 0.04134,0.01654 0.07235,0.04754 0.03101,0.02894 0.04754,0.07028 0.0186,0.03927 0.0186,0.08475 v 0.297656 q 0,0.04548 -0.0186,0.08682 -0.01654,0.03927 -0.04754,0.07028 -0.03101,0.03101 -0.07235,0.04961 -0.03928,0.01654 -0.08475,0.01654 -0.04754,0 -0.08888,-0.01654 -0.03927,-0.0186 -0.07028,-0.04754 -0.02894,-0.03101 -0.04754,-0.07028 -0.01654,-0.04134 -0.01654,-0.08888 V 56.31969 q 0,-0.04548 0.01654,-0.08682 0.0186,-0.04134 0.04961,-0.07028 0.03101,-0.02894 0.07028,-0.04547 0.04134,-0.0186 0.08682,-0.0186 z m 1.93063,0 q 0.04547,0 0.08475,0.0186 0.04134,0.01654 0.07235,0.04547 0.03101,0.02894 0.04754,0.07028 0.0186,0.04134 0.0186,0.08682 v 0.297656 q 0,0.04754 -0.0186,0.08888 -0.01654,0.03927 -0.04754,0.07028 -0.02894,0.02894 -0.07028,0.04754 -0.04134,0.01654 -0.08682,0.01654 -0.04547,0 -0.08682,-0.01654 -0.03927,-0.0186 -0.07028,-0.04961 -0.03101,-0.03101 -0.04961,-0.07028 -0.01654,-0.04134 -0.01654,-0.08682 V 56.31969 q 0,-0.04548 0.01654,-0.08475 0.0186,-0.04134 0.04961,-0.07028 0.03101,-0.03101 0.07028,-0.04754 0.04134,-0.0186 0.08682,-0.0186 z m -0.417545,2.129068 q -0.03927,0 -0.07441,-0.01447 -0.03307,-0.01654 -0.06615,-0.03514 l -0.258382,-0.148828 0.291455,-0.167431 q 0.02481,-0.01447 0.05168,-0.02274 0.02894,-0.0083 0.05788,-0.0083 0.04134,0 0.07648,0.01654 0.03514,0.01447 0.05994,0.04341 0.02687,0.02687 0.04134,0.06408 0.01447,0.03514 0.01447,0.07441 0,0.08682 -0.05374,0.142627 -0.05374,0.05581 -0.14056,0.05581 z m -1.097607,0 q -0.04134,0 -0.07648,-0.01447 -0.03514,-0.01654 -0.06201,-0.04341 -0.02481,-0.02894 -0.03927,-0.06408 -0.01447,-0.03514 -0.01447,-0.07648 0,-0.03927 0.01447,-0.07441 0.01447,-0.03721 0.03927,-0.06408 0.02687,-0.02894 0.06201,-0.04341 0.03514,-0.01654 0.07648,-0.01654 0.02894,0 0.05581,0.0083 0.02894,0.0083 0.05374,0.02274 l 0.291455,0.167431 -0.258382,0.148828 q -0.03514,0.02067 -0.06821,0.03514 -0.03307,0.01447 -0.07441,0.01447 z m 0.549837,0.692463 q 0.119889,0 0.233577,-0.03927 0.115756,-0.03721 0.212907,-0.109554 h -0.892968 q 0.09715,0.07235 0.21084,0.109554 0.115755,0.03927 0.235644,0.03927 z"
       id="path325"
       style="font-size:4.23333px;line-height:1;font-family:'Segoe UI Emoji';-inkscape-font-specification:'Segoe UI Emoji';stroke-width:0.264583" />
    <path
       d="m 88.853352,56.172929 q 0.06615,0.05374 0.107487,0.132292 0.04134,0.07648 0.04134,0.163297 0,0.08888 -0.03927,0.167432 -0.03927,0.07648 -0.109554,0.130224 v 0.890901 q 0,0.07855 -0.02894,0.146761 -0.02894,0.06615 -0.08062,0.117822 -0.04961,0.04961 -0.117822,0.07855 -0.06821,0.02894 -0.144694,0.02894 -0.07648,0 -0.144694,-0.02894 -0.06615,-0.02894 -0.117822,-0.07855 -0.04961,-0.05168 -0.07855,-0.119889 -0.02894,-0.06821 -0.02894,-0.144694 v -0.103352 l -1.513084,1.492414 q -0.08475,0.08268 -0.194304,0.12609 -0.107486,0.04548 -0.225309,0.04548 -0.117822,0 -0.227376,-0.04548 -0.109554,-0.04547 -0.192236,-0.128157 l -1.337385,-1.337385 q -0.08475,-0.08475 -0.130224,-0.192237 -0.04341,-0.109553 -0.04341,-0.227376 0,-0.119889 0.04341,-0.227376 0.04548,-0.107487 0.130224,-0.194303 l 1.93063,-1.955435 h 0.386539 q 0.08268,-0.105419 0.186035,-0.188102 0.10542,-0.08268 0.225309,-0.140559 0.11989,-0.05788 0.250114,-0.08682 0.130225,-0.03101 0.264583,-0.03101 0.243913,0 0.460954,0.09509 0.217041,0.09302 0.378271,0.254248 0.16123,0.16123 0.254248,0.378271 0.09508,0.217041 0.09508,0.460953 z m -2.67477,2.747117 q 0.124024,0 0.21084,-0.08682 l 1.870685,-1.843814 v -1.039729 l -0.74414,-0.74414 h -0.241845 q -0.09922,0.08682 -0.150895,0.202572 -0.05168,0.113688 -0.05168,0.243912 0,0.04134 0.0041,0.08475 0.0062,0.04134 0.0186,0.08268 0.05788,-0.0186 0.124023,-0.0186 0.09302,0 0.173633,0.03514 0.08268,0.03514 0.142627,0.09508 0.05994,0.05994 0.09508,0.142627 0.03514,0.08061 0.03514,0.173632 0,0.09302 -0.03514,0.173633 -0.03514,0.08061 -0.09715,0.14056 -0.05994,0.05994 -0.14056,0.09508 -0.08061,0.03514 -0.173633,0.03514 -0.103352,0 -0.186035,-0.03721 -0.08268,-0.03927 -0.140559,-0.105419 -0.05581,-0.06615 -0.08682,-0.152963 -0.03101,-0.08888 -0.03101,-0.188102 0,-0.0124 0.0041,-0.0186 -0.07648,-0.119889 -0.115755,-0.256315 -0.03721,-0.138493 -0.03721,-0.28112 0,-0.233577 0.101286,-0.446484 H 86.47615 l -1.843813,1.870686 q -0.08682,0.08682 -0.08682,0.210839 0,0.121957 0.08682,0.208773 l 1.337385,1.337385 q 0.08682,0.08682 0.208772,0.08682 z m 2.377114,-2.377114 h 0.02687 q 0.02067,0 0.04134,0 0.02274,-0.0021 0.03927,-0.0083 0.0186,-0.0083 0.02894,-0.02274 0.0124,-0.01654 0.0124,-0.04341 0,-0.04961 -0.03307,-0.06201 -0.03101,-0.0124 -0.06821,-0.0124 h -0.04754 v -0.742073 q 0,-0.183968 -0.07028,-0.345198 -0.07028,-0.163297 -0.192236,-0.283186 -0.119889,-0.121957 -0.283186,-0.192237 -0.161231,-0.07028 -0.345199,-0.07028 -0.138492,0 -0.270784,0.04134 -0.132292,0.04134 -0.243913,0.121956 -0.08475,0.06201 -0.155029,0.142627 -0.06821,0.07855 -0.117822,0.171565 -0.04961,0.09095 -0.07648,0.194304 -0.02687,0.101285 -0.02687,0.206705 0,0.02274 0,0.04548 0.0021,0.02067 0.0021,0.04341 0.0062,0.109554 0.04341,0.212907 0.03721,0.103353 0.09715,0.194303 0.06201,0.09095 0.14056,0.165365 0.08062,0.07441 0.173633,0.12609 0.03514,0.02274 0.07235,0.03927 0.03721,0.01654 0.07648,0.02894 0.07235,-0.04341 0.107487,-0.124023 -0.111621,-0.02687 -0.21084,-0.08682 -0.09715,-0.05994 -0.171566,-0.144693 -0.07441,-0.08682 -0.121956,-0.19017 -0.04754,-0.105419 -0.05581,-0.221175 -0.0021,-0.02274 -0.0041,-0.03927 0,-0.0186 0,-0.03721 0,-0.152962 0.05788,-0.28732 0.05994,-0.136426 0.159163,-0.235645 0.101286,-0.101285 0.235645,-0.159163 0.136425,-0.05994 0.289387,-0.05994 0.152962,0 0.287321,0.05994 0.136426,0.05788 0.235644,0.159163 0.101286,0.09922 0.159164,0.235645 0.05994,0.134358 0.05994,0.28732 v 2.005044 q 0,0.02894 0.02274,0.05168 0.02274,0.02274 0.05168,0.02274 0.03101,0 0.05168,-0.02067 0.02274,-0.02274 0.02274,-0.05374 z"
       id="path327"
       style="font-size:4.23333px;line-height:1;font-family:'Segoe UI Emoji';-inkscape-font-specification:'Segoe UI Emoji';stroke-width:0.264583" />
    <path
       d="m 90.060512,54.463474 h 4.754227 v 4.754228 h -4.754227 z m 4.456571,4.456572 V 54.76113 h -4.158915 v 4.158916 z m -3.096449,-2.947621 q 0.194303,-0.225309 0.456819,-0.347265 0.262516,-0.121957 0.560172,-0.121957 0.183968,0 0.355534,0.04754 0.171566,0.04754 0.318327,0.136425 0.148828,0.08682 0.270784,0.208773 0.121956,0.121956 0.208772,0.270784 0.08888,0.146761 0.136426,0.318327 0.04754,0.171565 0.04754,0.355533 h -0.297656 q 0,-0.214973 -0.08268,-0.403075 -0.08061,-0.19017 -0.223242,-0.330729 -0.14056,-0.142627 -0.330729,-0.223242 -0.188102,-0.08268 -0.403076,-0.08268 -0.117822,0 -0.23151,0.02687 -0.111621,0.02481 -0.214974,0.07441 -0.103352,0.04754 -0.194303,0.119889 -0.09095,0.07028 -0.165364,0.161231 l 0.359667,0.359667 h -0.8909 v -0.890901 z m 1.016991,1.907892 q 0.117823,0 0.229444,-0.0248 0.113688,-0.02687 0.21704,-0.07441 0.103353,-0.04961 0.194304,-0.11989 0.09095,-0.07235 0.165364,-0.163297 l -0.359668,-0.359668 h 0.890901 v 0.890901 L 93.454617,57.70876 q -0.194303,0.225309 -0.456819,0.347265 -0.262517,0.121956 -0.560173,0.121956 -0.183967,0 -0.355533,-0.04754 -0.171566,-0.04754 -0.320394,-0.134359 -0.146761,-0.08888 -0.268717,-0.210839 -0.121956,-0.121957 -0.21084,-0.268717 -0.08682,-0.148828 -0.134358,-0.320394 -0.04754,-0.171566 -0.04754,-0.355534 h 0.297656 q 0,0.214974 0.08061,0.405143 0.08268,0.188102 0.223242,0.330729 0.142627,0.14056 0.330729,0.223242 0.190169,0.08061 0.405142,0.08061 z"
       id="path329"
       style="font-size:4.23333px;line-height:1;font-family:'Segoe UI Emoji';-inkscape-font-specification:'Segoe UI Emoji';stroke-width:0.264583" />
    <path
       d="m 95.873073,54.463474 h 4.754227 v 4.754228 h -4.754227 z m 4.456567,4.456572 V 54.76113 h -4.158911 v 4.158916 z m -1.188553,-1.337385 h 0.446484 l -0.595312,0.595312 -0.593244,-0.595312 h 0.444416 v -1.039729 q 0,-0.101285 -0.03307,-0.194303 -0.03307,-0.09508 -0.09302,-0.169498 -0.05994,-0.07648 -0.142627,-0.130225 -0.08268,-0.05581 -0.181901,-0.08062 l -0.30179,-0.299723 q 0.08268,-0.01654 0.159164,-0.01654 0.183967,0 0.345198,0.07028 0.163297,0.07028 0.283186,0.192236 0.121957,0.11989 0.192237,0.283187 0.07028,0.16123 0.07028,0.345198 z m -1.486212,-0.444417 q 0,0.103353 0.03307,0.196371 0.03307,0.09302 0.09302,0.169498 0.06201,0.07441 0.144694,0.130225 0.08268,0.05374 0.181901,0.07855 l 0.30179,0.30179 q -0.03927,0.0062 -0.07855,0.01033 -0.03927,0.0041 -0.08062,0.0041 -0.183968,0 -0.347266,-0.07028 -0.16123,-0.07028 -0.283186,-0.190169 -0.11989,-0.121956 -0.19017,-0.283186 -0.07028,-0.163298 -0.07028,-0.347266 v -1.039729 h -0.446484 l 0.595312,-0.595312 0.593245,0.595312 h -0.446484 z"
       id="path331"
       style="font-size:4.23333px;line-height:1;font-family:'Segoe UI Emoji';-inkscape-font-specification:'Segoe UI Emoji';stroke-width:0.264583" />
  </g>
</svg>
