<?xml version="1.0" encoding="UTF-8" standalone="no"?>
<!-- Created with Inkscape (http://www.inkscape.org/) -->

<svg
   xmlns:dc="http://purl.org/dc/elements/1.1/"
   xmlns:cc="http://creativecommons.org/ns#"
   xmlns:rdf="http://www.w3.org/1999/02/22-rdf-syntax-ns#"
   xmlns:svg="http://www.w3.org/2000/svg"
   xmlns="http://www.w3.org/2000/svg"
   xmlns:sodipodi="http://sodipodi.sourceforge.net/DTD/sodipodi-0.dtd"
   xmlns:inkscape="http://www.inkscape.org/namespaces/inkscape"
   width="1405pt"
   height="37pt"
   viewBox="0 0 495.65276 13.052777"
   version="1.1"
   id="svg8"
   inkscape:version="0.92.3 (2405546, 2018-03-11)"
   sodipodi:docname="vira-ruler.svg">
  <defs
     id="defs2" />
  <sodipodi:namedview
     id="base"
     pagecolor="#ffffff"
     bordercolor="#666666"
     borderopacity="1.0"
     inkscape:pageopacity="0.0"
     inkscape:pageshadow="2"
     inkscape:zoom="1.5708638"
     inkscape:cx="1059.5082"
     inkscape:cy="32.10631"
     inkscape:document-units="mm"
     inkscape:current-layer="layer3"
     showgrid="true"
     inkscape:snap-text-baseline="true"
     fit-margin-top="0"
     fit-margin-left="0"
     fit-margin-right="0"
     fit-margin-bottom="0"
     units="pt"
     inkscape:window-width="1280"
     inkscape:window-height="940"
     inkscape:window-x="1909"
     inkscape:window-y="43"
     inkscape:window-maximized="1">
    <inkscape:grid
       type="xygrid"
       id="grid10"
       originx="-12.52361"
       originy="-190.32359" />
  </sodipodi:namedview>
  <metadata
     id="metadata5">
    <rdf:RDF>
      <cc:Work
         rdf:about="">
        <dc:format>image/svg+xml</dc:format>
        <dc:type
           rdf:resource="http://purl.org/dc/dcmitype/StillImage" />
        <dc:title></dc:title>
      </cc:Work>
    </rdf:RDF>
  </metadata>
  <g
     inkscape:label="Layer 1"
     inkscape:groupmode="layer"
     id="layer1"
     transform="translate(-12.523611,-93.623614)"
     sodipodi:insensitive="true" />
  <g
     inkscape:groupmode="layer"
     id="layer2"
     inkscape:label="BoX"
     transform="translate(-12.523611,-93.623614)"
     sodipodi:insensitive="true">
    <rect
       style="opacity:1;fill:#ffffff;fill-opacity:1;stroke:#504416;stroke-width:0.35277778;stroke-linecap:square;stroke-linejoin:miter;stroke-miterlimit:4;stroke-dasharray:none;stroke-dashoffset:0;stroke-opacity:1;paint-order:markers fill stroke"
       id="rect13"
       width="19.049999"
       height="12.7"
       x="12.7"
       y="93.800003" />
    <rect
       y="93.800003"
       x="31.75"
       height="12.7"
       width="19.049999"
       id="rect824"
       style="opacity:1;fill:#ffffff;fill-opacity:1;stroke:#504416;stroke-width:0.35277778;stroke-linecap:square;stroke-linejoin:miter;stroke-miterlimit:4;stroke-dasharray:none;stroke-dashoffset:0;stroke-opacity:1;paint-order:markers fill stroke" />
    <rect
       style="opacity:1;fill:#ffffff;fill-opacity:1;stroke:#504416;stroke-width:0.35277778;stroke-linecap:square;stroke-linejoin:miter;stroke-miterlimit:4;stroke-dasharray:none;stroke-dashoffset:0;stroke-opacity:1;paint-order:markers fill stroke"
       id="rect830"
       width="19.049999"
       height="12.7"
       x="50.799999"
       y="93.800003" />
    <rect
       y="93.800003"
       x="69.849998"
       height="12.7"
       width="19.049999"
       id="rect836"
       style="opacity:1;fill:#ffffff;fill-opacity:1;stroke:#504416;stroke-width:0.35277778;stroke-linecap:square;stroke-linejoin:miter;stroke-miterlimit:4;stroke-dasharray:none;stroke-dashoffset:0;stroke-opacity:1;paint-order:markers fill stroke" />
    <rect
       style="opacity:1;fill:#ffffff;fill-opacity:1;stroke:#504416;stroke-width:0.35277778;stroke-linecap:square;stroke-linejoin:miter;stroke-miterlimit:4;stroke-dasharray:none;stroke-dashoffset:0;stroke-opacity:1;paint-order:markers fill stroke"
       id="rect842"
       width="19.049999"
       height="12.7"
       x="88.900002"
       y="93.800003" />
    <rect
       y="93.800003"
       x="107.95"
       height="12.7"
       width="19.049999"
       id="rect848"
       style="opacity:1;fill:#ffffff;fill-opacity:1;stroke:#504416;stroke-width:0.35277778;stroke-linecap:square;stroke-linejoin:miter;stroke-miterlimit:4;stroke-dasharray:none;stroke-dashoffset:0;stroke-opacity:1;paint-order:markers fill stroke" />
    <rect
       y="93.800003"
       x="127"
       height="12.7"
       width="19.049999"
       id="rect854"
       style="opacity:1;fill:#ffffff;fill-opacity:1;stroke:#504416;stroke-width:0.35277778;stroke-linecap:square;stroke-linejoin:miter;stroke-miterlimit:4;stroke-dasharray:none;stroke-dashoffset:0;stroke-opacity:1;paint-order:markers fill stroke" />
    <rect
       style="opacity:1;fill:#ffffff;fill-opacity:1;stroke:#504416;stroke-width:0.35277778;stroke-linecap:square;stroke-linejoin:miter;stroke-miterlimit:4;stroke-dasharray:none;stroke-dashoffset:0;stroke-opacity:1;paint-order:markers fill stroke"
       id="rect860"
       width="19.049999"
       height="12.7"
       x="146.05"
       y="93.800003" />
    <rect
       y="93.800003"
       x="165.10001"
       height="12.7"
       width="19.049999"
       id="rect866"
       style="opacity:1;fill:#ffffff;fill-opacity:1;stroke:#504416;stroke-width:0.35277778;stroke-linecap:square;stroke-linejoin:miter;stroke-miterlimit:4;stroke-dasharray:none;stroke-dashoffset:0;stroke-opacity:1;paint-order:markers fill stroke" />
    <rect
       style="opacity:1;fill:#ffffff;fill-opacity:1;stroke:#504416;stroke-width:0.35277778;stroke-linecap:square;stroke-linejoin:miter;stroke-miterlimit:4;stroke-dasharray:none;stroke-dashoffset:0;stroke-opacity:1;paint-order:markers fill stroke"
       id="rect872"
       width="19.049999"
       height="12.7"
       x="184.14999"
       y="93.800003" />
    <rect
       y="93.800003"
       x="203.2"
       height="12.7"
       width="19.049999"
       id="rect878"
       style="opacity:1;fill:#ffffff;fill-opacity:1;stroke:#504416;stroke-width:0.35277778;stroke-linecap:square;stroke-linejoin:miter;stroke-miterlimit:4;stroke-dasharray:none;stroke-dashoffset:0;stroke-opacity:1;paint-order:markers fill stroke" />
    <rect
       style="opacity:1;fill:#ffffff;fill-opacity:1;stroke:#504416;stroke-width:0.35277778;stroke-linecap:square;stroke-linejoin:miter;stroke-miterlimit:4;stroke-dasharray:none;stroke-dashoffset:0;stroke-opacity:1;paint-order:markers fill stroke"
       id="rect884"
       width="19.049999"
       height="12.7"
       x="222.25"
       y="93.800003" />
    <rect
       y="93.800003"
       x="241.3"
       height="12.7"
       width="19.049999"
       id="rect890"
       style="opacity:1;fill:#ffffff;fill-opacity:1;stroke:#504416;stroke-width:0.35277778;stroke-linecap:square;stroke-linejoin:miter;stroke-miterlimit:4;stroke-dasharray:none;stroke-dashoffset:0;stroke-opacity:1;paint-order:markers fill stroke" />
    <rect
       y="93.800003"
       x="260.35001"
       height="12.7"
       width="19.049999"
       id="rect896"
       style="opacity:1;fill:#a0892c;fill-opacity:1;stroke:#504416;stroke-width:0.35277778;stroke-linecap:square;stroke-linejoin:miter;stroke-miterlimit:4;stroke-dasharray:none;stroke-dashoffset:0;stroke-opacity:1;paint-order:markers fill stroke" />
    <rect
       style="opacity:1;fill:#a0892c;fill-opacity:1;stroke:#504416;stroke-width:0.35277778;stroke-linecap:square;stroke-linejoin:miter;stroke-miterlimit:4;stroke-dasharray:none;stroke-dashoffset:0;stroke-opacity:1;paint-order:markers fill stroke"
       id="rect902"
       width="19.049999"
       height="12.7"
       x="279.39999"
       y="93.800003" />
    <rect
       y="93.800003"
       x="298.45001"
       height="12.7"
       width="19.049999"
       id="rect908"
       style="opacity:1;fill:#a0892c;fill-opacity:1;stroke:#504416;stroke-width:0.35277778;stroke-linecap:square;stroke-linejoin:miter;stroke-miterlimit:4;stroke-dasharray:none;stroke-dashoffset:0;stroke-opacity:1;paint-order:markers fill stroke" />
    <rect
       style="opacity:1;fill:#a0892c;fill-opacity:1;stroke:#504416;stroke-width:0.35277778;stroke-linecap:square;stroke-linejoin:miter;stroke-miterlimit:4;stroke-dasharray:none;stroke-dashoffset:0;stroke-opacity:1;paint-order:markers fill stroke"
       id="rect914"
       width="19.049999"
       height="12.7"
       x="317.5"
       y="93.800003" />
    <rect
       y="93.800003"
       x="336.54999"
       height="12.7"
       width="19.049999"
       id="rect920"
       style="opacity:1;fill:#a0892c;fill-opacity:1;stroke:#504416;stroke-width:0.35277778;stroke-linecap:square;stroke-linejoin:miter;stroke-miterlimit:4;stroke-dasharray:none;stroke-dashoffset:0;stroke-opacity:1;paint-order:markers fill stroke" />
    <rect
       style="opacity:1;fill:#a0892c;fill-opacity:1;stroke:#504416;stroke-width:0.35277778;stroke-linecap:square;stroke-linejoin:miter;stroke-miterlimit:4;stroke-dasharray:none;stroke-dashoffset:0;stroke-opacity:1;paint-order:markers fill stroke"
       id="rect926"
       width="19.049999"
       height="12.7"
       x="355.60001"
       y="93.800003" />
    <rect
       style="opacity:1;fill:#a0892c;fill-opacity:1;stroke:#504416;stroke-width:0.35277778;stroke-linecap:square;stroke-linejoin:miter;stroke-miterlimit:4;stroke-dasharray:none;stroke-dashoffset:0;stroke-opacity:1;paint-order:markers fill stroke"
       id="rect932"
       width="19.049999"
       height="12.7"
       x="374.64999"
       y="93.800003" />
    <rect
       y="93.800003"
       x="393.70001"
       height="12.7"
       width="19.049999"
       id="rect938"
       style="opacity:1;fill:#a0892c;fill-opacity:1;stroke:#504416;stroke-width:0.35277778;stroke-linecap:square;stroke-linejoin:miter;stroke-miterlimit:4;stroke-dasharray:none;stroke-dashoffset:0;stroke-opacity:1;paint-order:markers fill stroke" />
    <rect
       style="opacity:1;fill:#a0892c;fill-opacity:1;stroke:#504416;stroke-width:0.35277778;stroke-linecap:square;stroke-linejoin:miter;stroke-miterlimit:4;stroke-dasharray:none;stroke-dashoffset:0;stroke-opacity:1;paint-order:markers fill stroke"
       id="rect944"
       width="19.049999"
       height="12.7"
       x="412.75"
       y="93.800003" />
    <rect
       y="93.800003"
       x="431.79999"
       height="12.7"
       width="19.049999"
       id="rect950"
       style="opacity:1;fill:#a0892c;fill-opacity:1;stroke:#504416;stroke-width:0.35277778;stroke-linecap:square;stroke-linejoin:miter;stroke-miterlimit:4;stroke-dasharray:none;stroke-dashoffset:0;stroke-opacity:1;paint-order:markers fill stroke" />
    <rect
       style="opacity:1;fill:#a0892c;fill-opacity:1;stroke:#504416;stroke-width:0.35277778;stroke-linecap:square;stroke-linejoin:miter;stroke-miterlimit:4;stroke-dasharray:none;stroke-dashoffset:0;stroke-opacity:1;paint-order:markers fill stroke"
       id="rect956"
       width="19.049999"
       height="12.7"
       x="450.85001"
       y="93.800003" />
    <rect
       y="93.800003"
       x="469.89999"
       height="12.7"
       width="19.049999"
       id="rect962"
       style="opacity:1;fill:#a0892c;fill-opacity:1;stroke:#504416;stroke-width:0.35277778;stroke-linecap:square;stroke-linejoin:miter;stroke-miterlimit:4;stroke-dasharray:none;stroke-dashoffset:0;stroke-opacity:1;paint-order:markers fill stroke" />
    <rect
       style="opacity:1;fill:#a0892c;fill-opacity:1;stroke:#504416;stroke-width:0.35277778;stroke-linecap:square;stroke-linejoin:miter;stroke-miterlimit:4;stroke-dasharray:none;stroke-dashoffset:0;stroke-opacity:1;paint-order:markers fill stroke"
       id="rect968"
       width="19.049999"
       height="12.7"
       x="488.95001"
       y="93.800003" />
  </g>
  <g
     inkscape:groupmode="layer"
     id="layer3"
     inkscape:label="text"
     transform="translate(-12.523611,-93.623614)">
    <g
       id="g1105"
       style="fill:#504416;fill-opacity:1">
      <g
         aria-label="1"
         style="font-style:normal;font-variant:normal;font-weight:normal;font-stretch:normal;font-size:11.28888893px;line-height:100%;font-family:Garamond;-inkscape-font-specification:Garamond;font-variant-ligatures:normal;font-variant-caps:normal;font-variant-numeric:normal;text-align:center;letter-spacing:0px;word-spacing:0px;writing-mode:lr-tb;text-anchor:middle;fill:#504416;fill-opacity:1;stroke:none;stroke-width:0.35277778;stroke-miterlimit:4;stroke-dasharray:none"
         id="text17">
        <path
           d="m 23.58099,103.31397 h -2.524566 q -0.0055,-0.0496 -0.0055,-0.0827 0,-0.0937 0.03859,-0.12678 0.03858,-0.0386 0.242535,-0.0772 0.319704,-0.0661 0.518142,-0.15985 0.05512,-0.12127 0.05512,-0.226 v -0.34175 q 0,-0.0606 0.01654,-0.55673 0.0055,-0.18741 0.01102,-1.62057 l 0.01103,-1.29536 -0.01103,-0.755165 q 0,-0.165364 0.01103,-1.041797 -1.251259,0.892969 -1.372526,0.892969 -0.0441,0 -0.09371,-0.0441 -0.04961,-0.04961 -0.04961,-0.09371 0,-0.05512 0.03859,-0.08819 0.07717,-0.07166 0.369314,-0.237023 0.0441,-0.02205 0.380338,-0.297656 0.534679,-0.446484 0.782726,-0.700043 0.248047,-0.253559 0.303169,-0.286632 0.110243,-0.0055 0.170876,-0.0055 0.143316,0 0.176389,0.04961 0.03858,0.0441 0.03858,0.336241 l -0.03858,4.911327 v 0.48507 q 0,0.17639 -0.0055,0.35829 -0.0055,0.17639 -0.0055,0.25907 0,0.19844 0.04961,0.25907 0.03307,0.0386 0.20395,0.0992 l 0.374826,0.0772 q 0.242535,0.0606 0.264584,0.0827 0.05512,0.0496 0.05512,0.15434 z"
           style="font-style:normal;font-variant:normal;font-weight:normal;font-stretch:normal;font-size:11.28888893px;font-family:Garamond;-inkscape-font-specification:Garamond;text-align:center;text-anchor:middle;fill:#504416;fill-opacity:1;stroke-width:0.35277778;stroke-miterlimit:4;stroke-dasharray:none"
           id="path1200" />
      </g>
      <g
         aria-label="2"
         style="font-style:normal;font-variant:normal;font-weight:normal;font-stretch:normal;font-size:11.28888893px;line-height:100%;font-family:Garamond;-inkscape-font-specification:Garamond;font-variant-ligatures:normal;font-variant-caps:normal;font-variant-numeric:normal;text-align:center;letter-spacing:0px;word-spacing:0px;writing-mode:lr-tb;text-anchor:middle;fill:#504416;fill-opacity:1;stroke:none;stroke-width:0.35277778;stroke-miterlimit:4;stroke-dasharray:none"
         id="text828">
        <path
           d="m 43.441278,103.31397 q -0.826823,-0.0331 -2.215886,-0.0331 l -1.196137,0.0331 -0.534679,-0.0165 -0.424436,0.0165 q -0.06614,-0.006 -0.192925,-0.0276 0.09922,-0.23151 0.253559,-0.42443 0.457509,-0.56224 1.339453,-1.4497 1.234722,-1.24023 1.626085,-1.94579 0.391363,-0.711068 0.391363,-1.333941 0,-0.584288 -0.396875,-0.981163 -0.396875,-0.396875 -0.975651,-0.396875 -0.347266,0 -0.672483,0.165364 -0.325217,0.159853 -0.523654,0.4079 -0.12678,0.159852 -0.336241,0.639409 -0.115756,0.264584 -0.137804,0.286632 -0.03307,0.03858 -0.07717,0.03858 -0.0441,0 -0.0882,-0.0441 -0.03858,-0.04961 -0.03858,-0.121267 0,-0.248047 0.248047,-0.79375 0.253559,-0.545703 0.738628,-0.854384 0.490582,-0.30868 1.135504,-0.30868 0.843359,0 1.405599,0.551215 0.567752,0.545703 0.567752,1.30638 0,0.600825 -0.385851,1.223698 -0.385851,0.617361 -1.774913,1.896184 -0.457509,0.41892 -0.650434,0.61736 -0.192926,0.19844 -0.777214,0.85989 0.84336,0.0331 1.532379,0.0331 0.148828,0 0.325217,-0.011 0.325217,-0.011 0.380338,-0.011 l 0.766189,0.0165 q 0.12678,0 0.259072,-0.12126 0.132291,-0.12127 0.35829,-0.68351 l 0.132291,-0.006 q 0.02756,0 0.08268,0.006 0.02756,0.0551 0.02756,0.0827 l -0.01102,0.0441 q -0.0441,0.15985 -0.07717,0.58429 -0.02205,0.24804 -0.08268,0.75516 z"
           style="font-style:normal;font-variant:normal;font-weight:normal;font-stretch:normal;font-size:11.28888893px;font-family:Garamond;-inkscape-font-specification:Garamond;text-align:center;text-anchor:middle;fill:#504416;fill-opacity:1;stroke-width:0.35277778;stroke-miterlimit:4;stroke-dasharray:none"
           id="path1203" />
      </g>
      <g
         aria-label="3"
         style="font-style:normal;font-variant:normal;font-weight:normal;font-stretch:normal;font-size:11.28888893px;line-height:100%;font-family:Garamond;-inkscape-font-specification:Garamond;font-variant-ligatures:normal;font-variant-caps:normal;font-variant-numeric:normal;text-align:center;letter-spacing:0px;word-spacing:0px;writing-mode:lr-tb;text-anchor:middle;fill:#504416;fill-opacity:1;stroke:none;stroke-width:0.35277778;stroke-miterlimit:4;stroke-dasharray:none"
         id="text834">
        <path
           d="m 58.621746,97.768747 -0.181901,-0.09922 q 0.347265,-0.843359 0.826822,-1.185113 0.479558,-0.347265 1.118967,-0.347265 0.595313,0 0.953603,0.264583 0.534679,0.396875 0.534679,0.892969 0,0.402387 -0.275608,0.810286 -0.270095,0.4079 -0.953602,0.915018 l 0.132291,-0.0055 q 0.429948,0 0.826823,0.220487 0.402387,0.214974 0.633898,0.677994 0.23151,0.457506 0.23151,0.986676 0,1.06385 -0.782725,1.82452 -0.777214,0.75517 -1.984376,0.75517 -0.915017,0 -1.350477,-0.26459 -0.237023,-0.1378 -0.237023,-0.34726 0,-0.11576 0.09371,-0.20946 0.09922,-0.0937 0.242535,-0.0937 0.181901,0 0.440972,0.19844 0.611849,0.46853 1.063846,0.46853 0.683506,0 1.212673,-0.57326 0.529167,-0.57878 0.529167,-1.45521 0,-0.72761 -0.35829,-1.19063 -0.352778,-0.46853 -0.898481,-0.46853 -0.407899,0 -0.848872,0.385851 l -0.132291,-0.220486 q 0.275607,-0.237023 0.496094,-0.402387 0.672482,-0.490582 1.003211,-0.964627 0.237023,-0.341754 0.237023,-0.600825 0,-0.43546 -0.308681,-0.733116 -0.30868,-0.303169 -0.810286,-0.303169 -0.826823,0 -1.455208,1.063846 z"
           style="font-style:normal;font-variant:normal;font-weight:normal;font-stretch:normal;font-size:11.28888893px;font-family:Garamond;-inkscape-font-specification:Garamond;text-align:center;text-anchor:middle;fill:#504416;fill-opacity:1;stroke-width:0.35277778;stroke-miterlimit:4;stroke-dasharray:none"
           id="path1206" />
      </g>
      <g
         aria-label="4"
         style="font-style:normal;font-variant:normal;font-weight:normal;font-stretch:normal;font-size:11.28888893px;line-height:100%;font-family:Garamond;-inkscape-font-specification:Garamond;font-variant-ligatures:normal;font-variant-caps:normal;font-variant-numeric:normal;text-align:center;letter-spacing:0px;word-spacing:0px;writing-mode:lr-tb;text-anchor:middle;fill:#504416;fill-opacity:1;stroke:none;stroke-width:0.35277778;stroke-miterlimit:4;stroke-dasharray:none"
         id="text840">
        <path
           d="m 80.427821,96.13715 h 0.253559 q -0.0055,0.170876 -0.0055,0.203949 l 0.01654,0.810287 -0.03307,0.727604 0.02205,0.810286 v 0.63941 l 0.01102,0.870924 q 0,0.20395 -0.01102,0.61736 l 0.115755,0.006 h 0.391363 l 0.374827,0.006 0.30868,-0.011 q 0.01103,0.17087 0.01103,0.25356 0,0.0827 -0.01103,0.25356 -0.341753,0.0165 -0.369314,0.0165 l -0.275608,-0.006 h -0.220486 q -0.08819,0 -0.325217,-0.011 -0.01102,0.78272 0,2.07808 -0.03307,0.0331 -0.07166,0.0441 l -0.341753,0.011 q -0.110243,0 -0.336242,-0.011 0.01654,-0.65043 0.01654,-0.93155 0,-0.24805 -0.01102,-0.452 -0.01654,-0.37482 -0.01654,-0.42994 0,-0.0992 0.01102,-0.30868 -0.23151,0.0276 -0.358289,0.0276 -0.06615,0 -0.148829,-0.006 -0.556727,-0.0276 -0.628385,-0.0276 -0.07166,0 -0.352778,0.0386 l -0.567752,-0.0331 -0.30868,0.0165 -0.209462,-0.0331 -0.264583,0.0551 -0.04961,-0.0386 q -0.01102,-0.12127 -0.01102,-0.18191 0,-0.0606 0.01102,-0.1819 0.154341,-0.20395 0.567752,-0.82682 l 1.07487,-1.559939 q 0.396875,-0.5898 0.66697,-0.937066 0.270096,-0.347265 0.534679,-0.74414 0.264584,-0.402388 0.540191,-0.755165 z m -0.496094,4.67982 0.0055,-0.903996 -0.0055,-0.716579 v -1.846572 q -0.451996,0.595313 -1.25677,1.802474 -0.92053,1.378043 -1.091407,1.664673 0.242535,-0.011 0.363802,-0.011 l 1.51033,0.022 q 0.165365,0 0.474045,-0.011 z"
           style="font-style:normal;font-variant:normal;font-weight:normal;font-stretch:normal;font-size:11.28888893px;font-family:Garamond;-inkscape-font-specification:Garamond;text-align:center;text-anchor:middle;fill:#504416;fill-opacity:1;stroke-width:0.35277778;stroke-miterlimit:4;stroke-dasharray:none"
           id="path1209" />
      </g>
      <g
         aria-label="5"
         style="font-style:normal;font-variant:normal;font-weight:normal;font-stretch:normal;font-size:11.28888893px;line-height:100%;font-family:Garamond;-inkscape-font-specification:Garamond;font-variant-ligatures:normal;font-variant-caps:normal;font-variant-numeric:normal;text-align:center;letter-spacing:0px;word-spacing:0px;writing-mode:lr-tb;text-anchor:middle;fill:#504416;fill-opacity:1;stroke:none;stroke-width:0.35277778;stroke-miterlimit:4;stroke-dasharray:none"
         id="text846">
        <path
           d="m 99.957382,96.963973 q -0.617362,0.04961 -0.9977,0.04961 -0.28112,0 -0.595313,-0.01654 -0.170876,-0.01103 -0.203949,-0.01103 -0.672483,0 -0.722092,0.02756 -0.02205,0.01102 -0.02756,0.04961 -0.01654,0.08819 -0.143316,1.967839 0.248047,-0.12678 0.479557,-0.176389 0.231511,-0.05512 0.611849,-0.05512 0.270096,0 0.374827,0.03307 0.523654,0.170877 0.755165,0.308681 0.319704,0.198437 0.518141,0.451997 0.20395,0.253559 0.37483,0.74414 0.12126,0.35278 0.12126,0.73863 0,0.41892 -0.12126,0.78272 -0.11576,0.35829 -0.29215,0.60083 -0.176386,0.24253 -0.523651,0.50712 -0.347266,0.25907 -0.821311,0.39687 -0.468533,0.13781 -0.628386,0.14332 l -0.799262,-0.0717 q -0.330729,-0.0551 -0.578776,-0.17639 -0.248047,-0.12678 -0.330729,-0.24253 -0.04961,-0.0717 -0.04961,-0.18742 0,-0.0882 0.121267,-0.19292 0.12678,-0.10473 0.308681,-0.10473 0.08268,0 0.181901,0.0496 l 0.43546,0.28112 q 0.148828,0.13229 0.369314,0.24804 0.03307,0.0165 0.165365,0.0386 0.319704,0.0441 0.347265,0.0441 0.121268,0 0.413412,-0.0992 0.292144,-0.0992 0.540191,-0.33624 0.248047,-0.24254 0.424435,-0.60634 0.181901,-0.36932 0.181901,-0.8158 0,-0.79926 -0.501605,-1.3174 -0.501606,-0.518147 -1.207162,-0.518147 -0.314193,0 -0.584288,0.104731 -0.264583,0.104731 -0.35829,0.23151 l -0.08268,0.03307 q -0.06615,0.02756 -0.09371,0.02756 l -0.07166,-0.01654 q -0.01654,-0.09922 -0.01654,-0.148828 0,-0.0441 0.01654,-0.15434 0.03859,-0.270095 0.03859,-0.556727 0.0055,-0.292144 0.06063,-0.523655 l -0.01654,-0.264583 q 0.03858,-0.20395 0.0441,-0.391363 0.01654,-1.267795 0.104731,-1.455208 0.03858,-0.08819 0.132291,-0.08819 0.03858,0 0.12678,0.01102 l 0.03307,0.0055 0.700043,-0.0055 q 0.474045,0.02756 0.700043,0.02756 0.518143,0 0.832336,-0.07166 0.15434,-0.143316 0.237022,-0.143316 0.03307,0 0.121265,0.01102 l 0.0165,0.06615 -0.0441,0.231511 -0.0276,0.369314 q -0.006,0.03858 -0.04961,0.165365 z"
           style="font-style:normal;font-variant:normal;font-weight:normal;font-stretch:normal;font-size:11.28888893px;font-family:Garamond;-inkscape-font-specification:Garamond;text-align:center;text-anchor:middle;fill:#504416;fill-opacity:1;stroke-width:0.35277778;stroke-miterlimit:4;stroke-dasharray:none"
           id="path1212" />
      </g>
      <g
         aria-label="6"
         style="font-style:normal;font-variant:normal;font-weight:normal;font-stretch:normal;font-size:11.28888893px;line-height:100%;font-family:Garamond;-inkscape-font-specification:Garamond;font-variant-ligatures:normal;font-variant-caps:normal;font-variant-numeric:normal;text-align:center;letter-spacing:0px;word-spacing:0px;writing-mode:lr-tb;text-anchor:middle;fill:#504416;fill-opacity:1;stroke:none;stroke-width:0.35277778;stroke-miterlimit:4;stroke-dasharray:none"
         id="text852">
        <path
           d="m 119.16723,96.104077 q 0.0496,0.08268 0.0717,0.181901 -0.0331,0.06063 -0.10473,0.08268 -0.23151,0.06063 -0.68351,0.319705 -0.10473,0.05512 -0.63941,0.51263 -0.23702,0.165365 -0.57326,0.617361 -0.45751,0.606337 -0.65595,1.085894 -0.19844,0.474046 -0.35278,1.24575 -0.0441,0.22048 -0.0606,0.77721 l -0.0165,0.20395 q 0,0.70556 0.41341,1.41111 0.41893,0.70004 1.0418,0.70004 0.32522,0 0.60634,-0.19843 0.28663,-0.19844 0.45199,-0.67249 0.16537,-0.47404 0.16537,-1.14652 0,-0.91502 -0.35278,-1.350481 -0.34727,-0.440972 -0.83785,-0.440972 -0.14883,0 -0.26458,0.0441 l -0.0441,0.01103 q -0.0717,0 -0.14883,-0.159853 0.14332,-0.09371 0.34727,-0.15434 0.20395,-0.06063 0.26458,-0.06063 0.0386,0 0.50161,0.08268 l 0.15985,0.07717 q 0.26459,0.08268 0.40239,0.192925 0.25356,0.20395 0.452,0.51263 0.0992,0.15985 0.26458,0.65043 0.011,0.0331 0.0772,0.48507 l -0.0276,0.55122 q -0.11576,0.49609 -0.22049,0.69453 -0.15434,0.30317 -0.51814,0.66146 -0.18741,0.1819 -0.48507,0.29765 -0.41892,0.15986 -0.88746,0.15986 -0.89297,0 -1.51584,-0.71107 -0.61736,-0.71658 -0.61736,-2.07257 0,-0.755165 0.23151,-1.427648 0.23151,-0.677994 0.65595,-1.240234 0.28663,-0.380338 0.77721,-0.815799 0.49609,-0.43546 0.93707,-0.677994 0.60082,-0.319705 1.18511,-0.429948 z"
           style="font-style:normal;font-variant:normal;font-weight:normal;font-stretch:normal;font-size:11.28888893px;font-family:Garamond;-inkscape-font-specification:Garamond;text-align:center;text-anchor:middle;fill:#504416;fill-opacity:1;stroke-width:0.35277778;stroke-miterlimit:4;stroke-dasharray:none"
           id="path1215" />
      </g>
      <g
         aria-label="7"
         style="font-style:normal;font-variant:normal;font-weight:normal;font-stretch:normal;font-size:11.28888893px;line-height:100%;font-family:Garamond;-inkscape-font-specification:Garamond;font-variant-ligatures:normal;font-variant-caps:normal;font-variant-numeric:normal;text-align:center;letter-spacing:0px;word-spacing:0px;writing-mode:lr-tb;text-anchor:middle;fill:#504416;fill-opacity:1;stroke:none;stroke-width:0.35277778;stroke-miterlimit:4;stroke-dasharray:none"
         id="text858">
        <path
           d="m 134.47999,96.357636 q 0.67799,-0.02756 1.83003,-0.02756 0.52365,0 1.19614,0.01654 0.4079,0.01654 0.53468,0.01654 l 0.53467,-0.0055 h 0.12678 q 0.0441,0.0441 0.0441,0.08268 0,0.06615 -0.12678,0.319705 -0.0606,0.110243 -0.53468,1.207161 -0.23151,0.540191 -0.56775,1.416624 l -0.69453,1.956812 q -0.24805,0.67248 -0.3197,0.93707 l -0.12678,0.51263 q -0.0772,0.226 -0.0772,0.33073 0,0.0827 0.0937,0.25907 -0.0661,0.0882 -0.29765,0.0882 -0.10473,0 -0.19844,-0.0882 0.0331,-0.32522 0.20946,-0.8599 0.0662,-0.19292 0.226,-0.76067 0.15985,-0.56776 0.31419,-1.00322 l 0.62839,-1.708764 q 0.27009,-0.727604 0.52365,-1.339453 0.0882,-0.203949 0.13229,-0.286632 0.11576,-0.203949 0.11576,-0.336241 l -0.0717,0.0055 h -0.0606 l -0.72761,-0.02205 q -0.0331,0 -0.23151,0.01102 -0.19844,0.01102 -0.29765,0.01102 l -0.85439,-0.0055 h -0.25907 l -0.3638,-0.01102 q -0.31971,-0.0055 -0.40239,0.07717 -0.0772,0.07717 -0.0882,0.407899 -0.006,0.08268 -0.0441,0.159853 -0.0606,0.01654 -0.0882,0.01654 -0.0606,0 -0.15986,-0.0441 0.006,-0.137804 0.006,-0.20395 l 0.011,-0.165364 -0.0165,-0.303169 q 0,-0.396875 0.0221,-0.534679 0.011,-0.05512 0.0606,-0.126779 z"
           style="font-style:normal;font-variant:normal;font-weight:normal;font-stretch:normal;font-size:11.28888893px;font-family:Garamond;-inkscape-font-specification:Garamond;text-align:center;text-anchor:middle;fill:#504416;fill-opacity:1;stroke-width:0.35277778;stroke-miterlimit:4;stroke-dasharray:none"
           id="path1218" />
      </g>
      <g
         aria-label="8"
         style="font-style:normal;font-variant:normal;font-weight:normal;font-stretch:normal;font-size:11.28888893px;line-height:100%;font-family:Garamond;-inkscape-font-specification:Garamond;font-variant-ligatures:normal;font-variant-caps:normal;font-variant-numeric:normal;text-align:center;letter-spacing:0px;word-spacing:0px;writing-mode:lr-tb;text-anchor:middle;fill:#504416;fill-opacity:1;stroke:none;stroke-width:0.35277778;stroke-miterlimit:4;stroke-dasharray:none"
         id="text864">
        <path
           d="m 155.05685,99.802731 q -0.53467,-0.286632 -0.7276,-0.457508 -0.27561,-0.237023 -0.46302,-0.611849 -0.1819,-0.374827 -0.1819,-0.76619 0,-0.683507 0.54019,-1.234722 0.5457,-0.556727 1.33394,-0.556727 0.88746,0 1.4056,0.468533 0.51814,0.468533 0.51814,1.141015 0,0.374827 -0.15434,0.683507 -0.15434,0.308681 -0.45751,0.556728 -0.20395,0.170877 -0.70004,0.424436 0.75516,0.402387 0.89848,0.518142 0.29766,0.231514 0.50161,0.611844 0.20395,0.38034 0.20395,0.84336 0,0.86541 -0.60083,1.46072 -0.59531,0.59532 -1.52135,0.59532 -0.95361,0 -1.52136,-0.51815 -0.56224,-0.52365 -0.56224,-1.28984 0,-0.43546 0.14883,-0.78824 0.14883,-0.35829 0.46302,-0.61185 0.24254,-0.19292 0.87643,-0.468529 z m 0.86541,-0.479557 q 0.46302,-0.253559 0.64492,-0.523654 0.29766,-0.446485 0.29766,-1.014237 0,-0.440972 -0.17639,-0.755165 -0.17639,-0.319704 -0.47404,-0.457508 -0.29215,-0.137804 -0.6339,-0.137804 -0.5457,0 -0.89848,0.374826 -0.35278,0.374827 -0.35278,0.92053 0,0.319705 0.0937,0.534679 0.0937,0.209461 0.29765,0.391363 0.13229,0.121267 0.61736,0.43546 0.0717,0.0441 0.34727,0.137803 0.0827,0.02756 0.23702,0.09371 z m -0.59531,0.600825 q -0.39687,0.209461 -0.55673,0.369311 -0.24253,0.23151 -0.38034,0.55122 -0.1378,0.3197 -0.1378,0.88194 0,0.5898 0.25907,0.92604 0.42995,0.55673 1.12448,0.55673 0.6339,0 1.03629,-0.40239 0.40789,-0.40238 0.40789,-1.03628 0,-0.68902 -0.41341,-1.09141 -0.4079,-0.40238 -1.33945,-0.755161 z"
           style="font-style:normal;font-variant:normal;font-weight:normal;font-stretch:normal;font-size:11.28888893px;font-family:Garamond;-inkscape-font-specification:Garamond;text-align:center;text-anchor:middle;fill:#504416;fill-opacity:1;stroke-width:0.35277778;stroke-miterlimit:4;stroke-dasharray:none"
           id="path1221" />
      </g>
      <g
         aria-label="9"
         style="font-style:normal;font-variant:normal;font-weight:normal;font-stretch:normal;font-size:11.28888893px;line-height:100%;font-family:Garamond;-inkscape-font-specification:Garamond;font-variant-ligatures:normal;font-variant-caps:normal;font-variant-numeric:normal;text-align:center;letter-spacing:0px;word-spacing:0px;writing-mode:lr-tb;text-anchor:middle;fill:#504416;fill-opacity:1;stroke:none;stroke-width:0.35277778;stroke-miterlimit:4;stroke-dasharray:none"
         id="text870">
        <path
           d="m 175.92036,96.64978 q 0.4079,0.440972 0.58428,0.87092 0.23703,0.606337 0.23703,1.405599 0,0.903993 -0.26459,1.609551 -0.26458,0.70555 -0.64492,1.2237 -0.37482,0.51263 -0.78824,0.84887 -0.41341,0.33073 -1.01974,0.60633 -0.60634,0.27561 -1.01424,0.27561 h -0.0441 q -0.0661,-0.0496 -0.0661,-0.12127 0,-0.0827 0.0276,-0.11024 0.0276,-0.0276 0.14331,-0.0331 0.20395,-0.0165 0.68902,-0.25356 0.66146,-0.33073 1.00873,-0.72761 0.5898,-0.67248 0.87643,-1.52135 0.29214,-0.848871 0.29214,-1.901692 0,-0.876432 -0.19844,-1.422135 -0.19843,-0.545703 -0.56223,-0.788238 -0.36381,-0.242535 -0.70005,-0.242535 -0.44097,0 -0.74965,0.418924 -0.42444,0.584288 -0.42444,1.686718 0,0.870921 0.39688,1.372527 0.28112,0.352781 0.7717,0.352781 0.17639,0 0.25356,-0.0331 l 0.0441,-0.0165 q 0.0551,0 0.0992,0.0551 0.0662,0.0827 0.0662,0.17088 l -0.0606,0.0496 q -0.12127,0.0551 -0.28112,0.0827 -0.15434,0.0276 -0.34727,0.0276 -0.67799,0 -1.2237,-0.617363 -0.5457,-0.617362 -0.5457,-1.554428 0,-0.959114 0.61185,-1.598524 0.61736,-0.644922 1.47174,-0.644922 0.36932,0 0.65044,0.104731 0.28112,0.104731 0.71107,0.424436 z"
           style="font-style:normal;font-variant:normal;font-weight:normal;font-stretch:normal;font-size:11.28888893px;font-family:Garamond;-inkscape-font-specification:Garamond;text-align:center;text-anchor:middle;fill:#504416;fill-opacity:1;stroke-width:0.35277778;stroke-miterlimit:4;stroke-dasharray:none"
           id="path1224" />
      </g>
      <g
         aria-label="10"
         style="font-style:normal;font-variant:normal;font-weight:normal;font-stretch:normal;font-size:11.28888893px;line-height:100%;font-family:Garamond;-inkscape-font-specification:Garamond;font-variant-ligatures:normal;font-variant-caps:normal;font-variant-numeric:normal;text-align:center;letter-spacing:0px;word-spacing:0px;writing-mode:lr-tb;text-anchor:middle;fill:#504416;fill-opacity:1;stroke:none;stroke-width:0.35277778;stroke-miterlimit:4;stroke-dasharray:none"
         id="text876">
        <path
           d="m 192.38516,103.31397 h -2.52457 q -0.006,-0.0496 -0.006,-0.0827 0,-0.0937 0.0386,-0.12678 0.0386,-0.0386 0.24253,-0.0772 0.31971,-0.0661 0.51814,-0.15985 0.0551,-0.12127 0.0551,-0.226 v -0.34175 q 0,-0.0606 0.0165,-0.55673 0.006,-0.18741 0.011,-1.62057 l 0.011,-1.29536 -0.011,-0.755165 q 0,-0.165364 0.011,-1.041797 -1.25126,0.892969 -1.37253,0.892969 -0.0441,0 -0.0937,-0.0441 -0.0496,-0.04961 -0.0496,-0.09371 0,-0.05512 0.0386,-0.08819 0.0772,-0.07166 0.36932,-0.237023 0.0441,-0.02205 0.38034,-0.297656 0.53467,-0.446484 0.78272,-0.700043 0.24805,-0.253559 0.30317,-0.286632 0.11024,-0.0055 0.17088,-0.0055 0.14331,0 0.17639,0.04961 0.0386,0.0441 0.0386,0.336241 l -0.0386,4.911327 v 0.48507 q 0,0.17639 -0.006,0.35829 -0.006,0.17639 -0.006,0.25907 0,0.19844 0.0496,0.25907 0.0331,0.0386 0.20395,0.0992 l 0.37483,0.0772 q 0.24253,0.0606 0.26458,0.0827 0.0551,0.0496 0.0551,0.15434 z"
           style="font-style:normal;font-variant:normal;font-weight:normal;font-stretch:normal;font-size:11.28888893px;font-family:Garamond;-inkscape-font-specification:Garamond;text-align:center;text-anchor:middle;fill:#504416;fill-opacity:1;stroke-width:0.35277778;stroke-miterlimit:4;stroke-dasharray:none"
           id="path1227" />
        <path
           d="m 198.61389,99.846829 q 0,0.567751 -0.0827,1.008721 -0.14883,0.76068 -0.41341,1.27331 -0.26459,0.51263 -0.62839,0.86541 -0.26458,0.25907 -0.56224,0.37482 -0.29765,0.12127 -0.60633,0.12127 -0.54571,0 -1.03629,-0.3638 -0.48507,-0.3638 -0.84887,-1.20165 -0.3638,-0.83785 -0.3638,-1.973351 0,-0.887456 0.22048,-1.703255 0.22049,-0.815798 0.57878,-1.262283 0.3638,-0.451996 0.71658,-0.650434 0.35829,-0.198437 0.77721,-0.198437 0.5898,0 1.14102,0.463021 0.55673,0.46302 0.88746,1.438671 0.22048,0.655947 0.22048,1.807987 z m -0.82682,-0.181902 q -0.006,-1.355989 -0.0992,-1.841059 -0.15434,-0.799262 -0.50712,-1.118967 -0.34726,-0.319704 -0.8158,-0.319704 -0.39136,0 -0.74414,0.253559 -0.34726,0.253559 -0.47955,0.79375 -0.226,0.876432 -0.226,2.656854 0,1.76389 0.34726,2.46945 0.35278,0.70004 1.05282,0.70004 0.47956,0 0.82683,-0.29766 0.35277,-0.29765 0.5016,-1.10243 0.15434,-0.81028 0.14883,-1.81349 z"
           style="font-style:normal;font-variant:normal;font-weight:normal;font-stretch:normal;font-size:11.28888893px;font-family:Garamond;-inkscape-font-specification:Garamond;text-align:center;text-anchor:middle;fill:#504416;fill-opacity:1;stroke-width:0.35277778;stroke-miterlimit:4;stroke-dasharray:none"
           id="path1229" />
      </g>
      <g
         aria-label="11"
         style="font-style:normal;font-variant:normal;font-weight:normal;font-stretch:normal;font-size:11.28888893px;line-height:100%;font-family:Garamond;-inkscape-font-specification:Garamond;font-variant-ligatures:normal;font-variant-caps:normal;font-variant-numeric:normal;text-align:center;letter-spacing:0px;word-spacing:0px;writing-mode:lr-tb;text-anchor:middle;fill:#504416;fill-opacity:1;stroke:none;stroke-width:0.35277778;stroke-miterlimit:4;stroke-dasharray:none"
         id="text882">
        <path
           d="m 211.43516,103.31397 h -2.52456 q -0.006,-0.0496 -0.006,-0.0827 0,-0.0937 0.0386,-0.12678 0.0386,-0.0386 0.24253,-0.0772 0.31971,-0.0661 0.51815,-0.15985 0.0551,-0.12127 0.0551,-0.226 v -0.34175 q 0,-0.0606 0.0165,-0.55673 0.006,-0.18741 0.011,-1.62057 l 0.011,-1.29536 -0.011,-0.755165 q 0,-0.165364 0.011,-1.041797 -1.25126,0.892969 -1.37252,0.892969 -0.0441,0 -0.0937,-0.0441 -0.0496,-0.04961 -0.0496,-0.09371 0,-0.05512 0.0386,-0.08819 0.0772,-0.07166 0.36931,-0.237023 0.0441,-0.02205 0.38034,-0.297656 0.53468,-0.446484 0.78272,-0.700043 0.24805,-0.253559 0.30317,-0.286632 0.11025,-0.0055 0.17088,-0.0055 0.14332,0 0.17639,0.04961 0.0386,0.0441 0.0386,0.336241 l -0.0386,4.911327 v 0.48507 q 0,0.17639 -0.006,0.35829 -0.006,0.17639 -0.006,0.25907 0,0.19844 0.0496,0.25907 0.0331,0.0386 0.20395,0.0992 l 0.37483,0.0772 q 0.24253,0.0606 0.26458,0.0827 0.0551,0.0496 0.0551,0.15434 z"
           style="font-style:normal;font-variant:normal;font-weight:normal;font-stretch:normal;font-size:11.28888893px;font-family:Garamond;-inkscape-font-specification:Garamond;text-align:center;text-anchor:middle;fill:#504416;fill-opacity:1;stroke-width:0.35277778;stroke-miterlimit:4;stroke-dasharray:none"
           id="path1232" />
        <path
           d="m 216.72683,103.31397 h -2.52457 q -0.006,-0.0496 -0.006,-0.0827 0,-0.0937 0.0386,-0.12678 0.0386,-0.0386 0.24253,-0.0772 0.31971,-0.0661 0.51814,-0.15985 0.0551,-0.12127 0.0551,-0.226 v -0.34175 q 0,-0.0606 0.0165,-0.55673 0.006,-0.18741 0.011,-1.62057 l 0.011,-1.29536 -0.011,-0.755165 q 0,-0.165364 0.011,-1.041797 -1.25126,0.892969 -1.37253,0.892969 -0.0441,0 -0.0937,-0.0441 -0.0496,-0.04961 -0.0496,-0.09371 0,-0.05512 0.0386,-0.08819 0.0772,-0.07166 0.36932,-0.237023 0.0441,-0.02205 0.38034,-0.297656 0.53467,-0.446484 0.78272,-0.700043 0.24805,-0.253559 0.30317,-0.286632 0.11024,-0.0055 0.17088,-0.0055 0.14331,0 0.17639,0.04961 0.0386,0.0441 0.0386,0.336241 l -0.0386,4.911327 v 0.48507 q 0,0.17639 -0.006,0.35829 -0.006,0.17639 -0.006,0.25907 0,0.19844 0.0496,0.25907 0.0331,0.0386 0.20395,0.0992 l 0.37483,0.0772 q 0.24253,0.0606 0.26458,0.0827 0.0551,0.0496 0.0551,0.15434 z"
           style="font-style:normal;font-variant:normal;font-weight:normal;font-stretch:normal;font-size:11.28888893px;font-family:Garamond;-inkscape-font-specification:Garamond;text-align:center;text-anchor:middle;fill:#504416;fill-opacity:1;stroke-width:0.35277778;stroke-miterlimit:4;stroke-dasharray:none"
           id="path1234" />
      </g>
      <g
         aria-label="12"
         style="font-style:normal;font-variant:normal;font-weight:normal;font-stretch:normal;font-size:11.28888893px;line-height:100%;font-family:Garamond;-inkscape-font-specification:Garamond;font-variant-ligatures:normal;font-variant-caps:normal;font-variant-numeric:normal;text-align:center;letter-spacing:0px;word-spacing:0px;writing-mode:lr-tb;text-anchor:middle;fill:#504416;fill-opacity:1;stroke:none;stroke-width:0.35277778;stroke-miterlimit:4;stroke-dasharray:none"
         id="text888">
        <path
           d="m 230.48515,103.31397 h -2.52457 q -0.006,-0.0496 -0.006,-0.0827 0,-0.0937 0.0386,-0.12678 0.0386,-0.0386 0.24253,-0.0772 0.31971,-0.0661 0.51814,-0.15985 0.0551,-0.12127 0.0551,-0.226 v -0.34175 q 0,-0.0606 0.0165,-0.55673 0.006,-0.18741 0.011,-1.62057 l 0.011,-1.29536 -0.011,-0.755165 q 0,-0.165364 0.011,-1.041797 -1.25126,0.892969 -1.37253,0.892969 -0.0441,0 -0.0937,-0.0441 -0.0496,-0.04961 -0.0496,-0.09371 0,-0.05512 0.0386,-0.08819 0.0772,-0.07166 0.36932,-0.237023 0.0441,-0.02205 0.38034,-0.297656 0.53468,-0.446484 0.78272,-0.700043 0.24805,-0.253559 0.30317,-0.286632 0.11024,-0.0055 0.17088,-0.0055 0.14331,0 0.17639,0.04961 0.0386,0.0441 0.0386,0.336241 l -0.0386,4.911327 v 0.48507 q 0,0.17639 -0.006,0.35829 -0.006,0.17639 -0.006,0.25907 0,0.19844 0.0496,0.25907 0.0331,0.0386 0.20395,0.0992 l 0.37483,0.0772 q 0.24253,0.0606 0.26458,0.0827 0.0551,0.0496 0.0551,0.15434 z"
           style="font-style:normal;font-variant:normal;font-weight:normal;font-stretch:normal;font-size:11.28888893px;font-family:Garamond;-inkscape-font-specification:Garamond;text-align:center;text-anchor:middle;fill:#504416;fill-opacity:1;stroke-width:0.35277778;stroke-miterlimit:4;stroke-dasharray:none"
           id="path1237" />
        <path
           d="m 236.5871,103.31397 q -0.82682,-0.0331 -2.21588,-0.0331 l -1.19614,0.0331 -0.53468,-0.0165 -0.42443,0.0165 q -0.0661,-0.006 -0.19293,-0.0276 0.0992,-0.23151 0.25356,-0.42443 0.45751,-0.56224 1.33945,-1.4497 1.23472,-1.24023 1.62609,-1.94579 0.39136,-0.711068 0.39136,-1.333941 0,-0.584288 -0.39687,-0.981163 -0.39688,-0.396875 -0.97566,-0.396875 -0.34726,0 -0.67248,0.165364 -0.32522,0.159853 -0.52365,0.4079 -0.12678,0.159852 -0.33624,0.639409 -0.11576,0.264584 -0.13781,0.286632 -0.0331,0.03858 -0.0772,0.03858 -0.0441,0 -0.0882,-0.0441 -0.0386,-0.04961 -0.0386,-0.121267 0,-0.248047 0.24805,-0.79375 0.25356,-0.545703 0.73863,-0.854384 0.49058,-0.30868 1.1355,-0.30868 0.84336,0 1.4056,0.551215 0.56775,0.545703 0.56775,1.30638 0,0.600825 -0.38585,1.223698 -0.38585,0.617361 -1.77491,1.896184 -0.45751,0.41892 -0.65044,0.61736 -0.19292,0.19844 -0.77721,0.85989 0.84336,0.0331 1.53238,0.0331 0.14883,0 0.32522,-0.011 0.32521,-0.011 0.38033,-0.011 l 0.76619,0.0165 q 0.12678,0 0.25908,-0.12126 0.13229,-0.12127 0.35829,-0.68351 l 0.13229,-0.006 q 0.0276,0 0.0827,0.006 0.0276,0.0551 0.0276,0.0827 l -0.011,0.0441 q -0.0441,0.15985 -0.0772,0.58429 -0.0221,0.24804 -0.0827,0.75516 z"
           style="font-style:normal;font-variant:normal;font-weight:normal;font-stretch:normal;font-size:11.28888893px;font-family:Garamond;-inkscape-font-specification:Garamond;text-align:center;text-anchor:middle;fill:#504416;fill-opacity:1;stroke-width:0.35277778;stroke-miterlimit:4;stroke-dasharray:none"
           id="path1239" />
      </g>
      <g
         aria-label="13"
         style="font-style:normal;font-variant:normal;font-weight:normal;font-stretch:normal;font-size:11.28888893px;line-height:100%;font-family:Garamond;-inkscape-font-specification:Garamond;font-variant-ligatures:normal;font-variant-caps:normal;font-variant-numeric:normal;text-align:center;letter-spacing:0px;word-spacing:0px;writing-mode:lr-tb;text-anchor:middle;fill:#504416;fill-opacity:1;stroke:none;stroke-width:0.35277778;stroke-miterlimit:4;stroke-dasharray:none"
         id="text894">
        <path
           d="m 249.53515,103.31397 h -2.52456 q -0.006,-0.0496 -0.006,-0.0827 0,-0.0937 0.0386,-0.12678 0.0386,-0.0386 0.24253,-0.0772 0.31971,-0.0661 0.51815,-0.15985 0.0551,-0.12127 0.0551,-0.226 v -0.34175 q 0,-0.0606 0.0165,-0.55673 0.006,-0.18741 0.011,-1.62057 l 0.011,-1.29536 -0.011,-0.755165 q 0,-0.165364 0.011,-1.041797 -1.25125,0.892969 -1.37252,0.892969 -0.0441,0 -0.0937,-0.0441 -0.0496,-0.04961 -0.0496,-0.09371 0,-0.05512 0.0386,-0.08819 0.0772,-0.07166 0.36931,-0.237023 0.0441,-0.02205 0.38034,-0.297656 0.53468,-0.446484 0.78273,-0.700043 0.24804,-0.253559 0.30316,-0.286632 0.11025,-0.0055 0.17088,-0.0055 0.14332,0 0.17639,0.04961 0.0386,0.0441 0.0386,0.336241 l -0.0386,4.911327 v 0.48507 q 0,0.17639 -0.006,0.35829 -0.006,0.17639 -0.006,0.25907 0,0.19844 0.0496,0.25907 0.0331,0.0386 0.20395,0.0992 l 0.37483,0.0772 q 0.24254,0.0606 0.26458,0.0827 0.0551,0.0496 0.0551,0.15434 z"
           style="font-style:normal;font-variant:normal;font-weight:normal;font-stretch:normal;font-size:11.28888893px;font-family:Garamond;-inkscape-font-specification:Garamond;text-align:center;text-anchor:middle;fill:#504416;fill-opacity:1;stroke-width:0.35277778;stroke-miterlimit:4;stroke-dasharray:none"
           id="path1242" />
        <path
           d="m 251.76757,97.768747 -0.1819,-0.09922 q 0.34727,-0.843359 0.82683,-1.185113 0.47955,-0.347265 1.11896,-0.347265 0.59532,0 0.95361,0.264583 0.53468,0.396875 0.53468,0.892969 0,0.402387 -0.27561,0.810286 -0.2701,0.4079 -0.95361,0.915018 l 0.1323,-0.0055 q 0.42994,0 0.82682,0.220487 0.40239,0.214974 0.6339,0.677994 0.23151,0.457506 0.23151,0.986676 0,1.06385 -0.78273,1.82452 -0.77721,0.75517 -1.98437,0.75517 -0.91502,0 -1.35048,-0.26459 -0.23702,-0.1378 -0.23702,-0.34726 0,-0.11576 0.0937,-0.20946 0.0992,-0.0937 0.24254,-0.0937 0.1819,0 0.44097,0.19844 0.61185,0.46853 1.06385,0.46853 0.6835,0 1.21267,-0.57326 0.52917,-0.57878 0.52917,-1.45521 0,-0.72761 -0.35829,-1.19063 -0.35278,-0.46853 -0.89848,-0.46853 -0.4079,0 -0.84888,0.385851 l -0.13229,-0.220486 q 0.27561,-0.237023 0.4961,-0.402387 0.67248,-0.490582 1.00321,-0.964627 0.23702,-0.341754 0.23702,-0.600825 0,-0.43546 -0.30868,-0.733116 -0.30868,-0.303169 -0.81029,-0.303169 -0.82682,0 -1.45521,1.063846 z"
           style="font-style:normal;font-variant:normal;font-weight:normal;font-stretch:normal;font-size:11.28888893px;font-family:Garamond;-inkscape-font-specification:Garamond;text-align:center;text-anchor:middle;fill:#504416;fill-opacity:1;stroke-width:0.35277778;stroke-miterlimit:4;stroke-dasharray:none"
           id="path1244" />
      </g>
    </g>
    <g
       id="g1133"
       style="fill:#ffffff">
      <g
         aria-label="14"
         style="font-style:normal;font-variant:normal;font-weight:normal;font-stretch:normal;font-size:11.28888893px;line-height:100%;font-family:Garamond;-inkscape-font-specification:Garamond;font-variant-ligatures:normal;font-variant-caps:normal;font-variant-numeric:normal;text-align:center;letter-spacing:0px;word-spacing:0px;writing-mode:lr-tb;text-anchor:middle;fill:#ffffff;fill-opacity:1;stroke:none;stroke-width:0.35277778;stroke-miterlimit:4;stroke-dasharray:none"
         id="text900">
        <path
           d="m 268.58516,103.31397 h -2.52457 q -0.006,-0.0496 -0.006,-0.0827 0,-0.0937 0.0386,-0.12678 0.0386,-0.0386 0.24254,-0.0772 0.3197,-0.0661 0.51814,-0.15985 0.0551,-0.12127 0.0551,-0.226 v -0.34175 q 0,-0.0606 0.0165,-0.55673 0.006,-0.18741 0.011,-1.62057 l 0.011,-1.29536 -0.011,-0.755165 q 0,-0.165364 0.011,-1.041797 -1.25126,0.892969 -1.37253,0.892969 -0.0441,0 -0.0937,-0.0441 -0.0496,-0.04961 -0.0496,-0.09371 0,-0.05512 0.0386,-0.08819 0.0772,-0.07166 0.36931,-0.237023 0.0441,-0.02205 0.38034,-0.297656 0.53468,-0.446484 0.78273,-0.700043 0.24805,-0.253559 0.30317,-0.286632 0.11024,-0.0055 0.17087,-0.0055 0.14332,0 0.17639,0.04961 0.0386,0.0441 0.0386,0.336241 l -0.0386,4.911327 v 0.48507 q 0,0.17639 -0.006,0.35829 -0.006,0.17639 -0.006,0.25907 0,0.19844 0.0496,0.25907 0.0331,0.0386 0.20395,0.0992 l 0.37482,0.0772 q 0.24254,0.0606 0.26459,0.0827 0.0551,0.0496 0.0551,0.15434 z"
           style="font-style:normal;font-variant:normal;font-weight:normal;font-stretch:normal;font-size:11.28888893px;font-family:Garamond;-inkscape-font-specification:Garamond;text-align:center;text-anchor:middle;fill:#ffffff;stroke-width:0.35277778;stroke-miterlimit:4;stroke-dasharray:none"
           id="path1135" />
        <path
           d="m 273.57365,96.13715 h 0.25356 q -0.006,0.170876 -0.006,0.203949 l 0.0165,0.810287 -0.0331,0.727604 0.022,0.810286 v 0.63941 l 0.011,0.870924 q 0,0.20395 -0.011,0.61736 l 0.11576,0.006 h 0.39136 l 0.37483,0.006 0.30868,-0.011 q 0.011,0.17087 0.011,0.25356 0,0.0827 -0.011,0.25356 -0.34176,0.0165 -0.36932,0.0165 l -0.2756,-0.006 h -0.22049 q -0.0882,0 -0.32522,-0.011 -0.011,0.78272 0,2.07808 -0.0331,0.0331 -0.0716,0.0441 l -0.34176,0.011 q -0.11024,0 -0.33624,-0.011 0.0165,-0.65043 0.0165,-0.93155 0,-0.24805 -0.011,-0.452 -0.0165,-0.37482 -0.0165,-0.42994 0,-0.0992 0.011,-0.30868 -0.23151,0.0276 -0.35829,0.0276 -0.0661,0 -0.14883,-0.006 -0.55672,-0.0276 -0.62838,-0.0276 -0.0717,0 -0.35278,0.0386 l -0.56775,-0.0331 -0.30868,0.0165 -0.20946,-0.0331 -0.26459,0.0551 -0.0496,-0.0386 q -0.011,-0.12127 -0.011,-0.18191 0,-0.0606 0.011,-0.1819 0.15434,-0.20395 0.56775,-0.82682 l 1.07487,-1.559939 q 0.39688,-0.5898 0.66697,-0.937066 0.2701,-0.347265 0.53468,-0.74414 0.26459,-0.402388 0.54019,-0.755165 z m -0.49609,4.67982 0.006,-0.903996 -0.006,-0.716579 v -1.846572 q -0.452,0.595313 -1.25677,1.802474 -0.92053,1.378043 -1.09141,1.664673 0.24254,-0.011 0.36381,-0.011 l 1.51033,0.022 q 0.16536,0 0.47404,-0.011 z"
           style="font-style:normal;font-variant:normal;font-weight:normal;font-stretch:normal;font-size:11.28888893px;font-family:Garamond;-inkscape-font-specification:Garamond;text-align:center;text-anchor:middle;fill:#ffffff;stroke-width:0.35277778;stroke-miterlimit:4;stroke-dasharray:none"
           id="path1137" />
      </g>
      <g
         aria-label="15"
         style="font-style:normal;font-variant:normal;font-weight:normal;font-stretch:normal;font-size:11.28888893px;line-height:100%;font-family:Garamond;-inkscape-font-specification:Garamond;font-variant-ligatures:normal;font-variant-caps:normal;font-variant-numeric:normal;text-align:center;letter-spacing:0px;word-spacing:0px;writing-mode:lr-tb;text-anchor:middle;fill:#ffffff;fill-opacity:1;stroke:none;stroke-width:0.35277778;stroke-miterlimit:4;stroke-dasharray:none"
         id="text906">
        <path
           d="m 287.63514,103.31397 h -2.52456 q -0.006,-0.0496 -0.006,-0.0827 0,-0.0937 0.0386,-0.12678 0.0386,-0.0386 0.24254,-0.0772 0.3197,-0.0661 0.51814,-0.15985 0.0551,-0.12127 0.0551,-0.226 v -0.34175 q 0,-0.0606 0.0165,-0.55673 0.006,-0.18741 0.011,-1.62057 l 0.011,-1.29536 -0.011,-0.755165 q 0,-0.165364 0.011,-1.041797 -1.25125,0.892969 -1.37252,0.892969 -0.0441,0 -0.0937,-0.0441 -0.0496,-0.04961 -0.0496,-0.09371 0,-0.05512 0.0386,-0.08819 0.0772,-0.07166 0.36931,-0.237023 0.0441,-0.02205 0.38034,-0.297656 0.53468,-0.446484 0.78273,-0.700043 0.24804,-0.253559 0.30316,-0.286632 0.11025,-0.0055 0.17088,-0.0055 0.14332,0 0.17639,0.04961 0.0386,0.0441 0.0386,0.336241 l -0.0386,4.911327 v 0.48507 q 0,0.17639 -0.006,0.35829 -0.006,0.17639 -0.006,0.25907 0,0.19844 0.0496,0.25907 0.0331,0.0386 0.20394,0.0992 l 0.37483,0.0772 q 0.24254,0.0606 0.26458,0.0827 0.0551,0.0496 0.0551,0.15434 z"
           style="font-style:normal;font-variant:normal;font-weight:normal;font-stretch:normal;font-size:11.28888893px;font-family:Garamond;-inkscape-font-specification:Garamond;text-align:center;text-anchor:middle;fill:#ffffff;stroke-width:0.35277778;stroke-miterlimit:4;stroke-dasharray:none"
           id="path1140" />
        <path
           d="m 293.1032,96.963973 q -0.61736,0.04961 -0.9977,0.04961 -0.28112,0 -0.59531,-0.01654 -0.17088,-0.01103 -0.20395,-0.01103 -0.67249,0 -0.72209,0.02756 -0.0221,0.01102 -0.0276,0.04961 -0.0165,0.08819 -0.14331,1.967839 0.24805,-0.12678 0.47956,-0.176389 0.23151,-0.05512 0.61185,-0.05512 0.27009,0 0.37482,0.03307 0.52366,0.170877 0.75517,0.308681 0.3197,0.198437 0.51814,0.451997 0.20395,0.253559 0.37483,0.74414 0.12126,0.35278 0.12126,0.73863 0,0.41892 -0.12126,0.78272 -0.11576,0.35829 -0.29215,0.60083 -0.17639,0.24253 -0.52365,0.50712 -0.34727,0.25907 -0.82131,0.39687 -0.46854,0.13781 -0.62839,0.14332 l -0.79926,-0.0717 q -0.33073,-0.0551 -0.57878,-0.17639 -0.24804,-0.12678 -0.33073,-0.24253 -0.0496,-0.0717 -0.0496,-0.18742 0,-0.0882 0.12127,-0.19292 0.12678,-0.10473 0.30868,-0.10473 0.0827,0 0.1819,0.0496 l 0.43546,0.28112 q 0.14883,0.13229 0.36932,0.24804 0.0331,0.0165 0.16536,0.0386 0.31971,0.0441 0.34727,0.0441 0.12126,0 0.41341,-0.0992 0.29214,-0.0992 0.54019,-0.33624 0.24805,-0.24254 0.42444,-0.60634 0.1819,-0.36932 0.1819,-0.8158 0,-0.79926 -0.50161,-1.3174 -0.50161,-0.518147 -1.20716,-0.518147 -0.31419,0 -0.58429,0.104731 -0.26458,0.104731 -0.35829,0.23151 l -0.0827,0.03307 q -0.0661,0.02756 -0.0937,0.02756 l -0.0717,-0.01654 q -0.0165,-0.09922 -0.0165,-0.148828 0,-0.0441 0.0165,-0.15434 0.0386,-0.270095 0.0386,-0.556727 0.006,-0.292144 0.0606,-0.523655 l -0.0165,-0.264583 q 0.0386,-0.20395 0.0441,-0.391363 0.0165,-1.267795 0.10473,-1.455208 0.0386,-0.08819 0.1323,-0.08819 0.0386,0 0.12678,0.01102 l 0.0331,0.0055 0.70004,-0.0055 q 0.47405,0.02756 0.70005,0.02756 0.51814,0 0.83233,-0.07166 0.15434,-0.143316 0.23702,-0.143316 0.0331,0 0.12127,0.01102 l 0.0165,0.06615 -0.0441,0.231511 -0.0276,0.369314 q -0.006,0.03858 -0.0496,0.165365 z"
           style="font-style:normal;font-variant:normal;font-weight:normal;font-stretch:normal;font-size:11.28888893px;font-family:Garamond;-inkscape-font-specification:Garamond;text-align:center;text-anchor:middle;fill:#ffffff;stroke-width:0.35277778;stroke-miterlimit:4;stroke-dasharray:none"
           id="path1142" />
      </g>
      <g
         aria-label="16"
         style="font-style:normal;font-variant:normal;font-weight:normal;font-stretch:normal;font-size:11.28888893px;line-height:100%;font-family:Garamond;-inkscape-font-specification:Garamond;font-variant-ligatures:normal;font-variant-caps:normal;font-variant-numeric:normal;text-align:center;letter-spacing:0px;word-spacing:0px;writing-mode:lr-tb;text-anchor:middle;fill:#ffffff;fill-opacity:1;stroke:none;stroke-width:0.35277778;stroke-miterlimit:4;stroke-dasharray:none"
         id="text912">
        <path
           d="m 306.68516,103.31397 h -2.52456 q -0.006,-0.0496 -0.006,-0.0827 0,-0.0937 0.0386,-0.12678 0.0386,-0.0386 0.24253,-0.0772 0.31971,-0.0661 0.51815,-0.15985 0.0551,-0.12127 0.0551,-0.226 v -0.34175 q 0,-0.0606 0.0165,-0.55673 0.006,-0.18741 0.011,-1.62057 l 0.011,-1.29536 -0.011,-0.755165 q 0,-0.165364 0.011,-1.041797 -1.25126,0.892969 -1.37252,0.892969 -0.0441,0 -0.0937,-0.0441 -0.0496,-0.04961 -0.0496,-0.09371 0,-0.05512 0.0386,-0.08819 0.0772,-0.07166 0.36931,-0.237023 0.0441,-0.02205 0.38034,-0.297656 0.53468,-0.446484 0.78272,-0.700043 0.24805,-0.253559 0.30317,-0.286632 0.11025,-0.0055 0.17088,-0.0055 0.14332,0 0.17639,0.04961 0.0386,0.0441 0.0386,0.336241 l -0.0386,4.911327 v 0.48507 q 0,0.17639 -0.006,0.35829 -0.006,0.17639 -0.006,0.25907 0,0.19844 0.0496,0.25907 0.0331,0.0386 0.20395,0.0992 l 0.37483,0.0772 q 0.24253,0.0606 0.26458,0.0827 0.0551,0.0496 0.0551,0.15434 z"
           style="font-style:normal;font-variant:normal;font-weight:normal;font-stretch:normal;font-size:11.28888893px;font-family:Garamond;-inkscape-font-specification:Garamond;text-align:center;text-anchor:middle;fill:#ffffff;stroke-width:0.35277778;stroke-miterlimit:4;stroke-dasharray:none"
           id="path1145" />
        <path
           d="m 312.31307,96.104077 q 0.0496,0.08268 0.0717,0.181901 -0.0331,0.06063 -0.10473,0.08268 -0.23151,0.06063 -0.68351,0.319705 -0.10473,0.05512 -0.63941,0.51263 -0.23702,0.165365 -0.57326,0.617361 -0.45751,0.606337 -0.65595,1.085894 -0.19844,0.474046 -0.35278,1.24575 -0.0441,0.22048 -0.0606,0.77721 l -0.0165,0.20395 q 0,0.70556 0.41341,1.41111 0.41893,0.70004 1.0418,0.70004 0.32522,0 0.60634,-0.19843 0.28663,-0.19844 0.45199,-0.67249 0.16537,-0.47404 0.16537,-1.14652 0,-0.91502 -0.35278,-1.350481 -0.34726,-0.440972 -0.83785,-0.440972 -0.14882,0 -0.26458,0.0441 l -0.0441,0.01103 q -0.0717,0 -0.14882,-0.159853 0.14331,-0.09371 0.34726,-0.15434 0.20395,-0.06063 0.26458,-0.06063 0.0386,0 0.50161,0.08268 l 0.15985,0.07717 q 0.26459,0.08268 0.40239,0.192925 0.25356,0.20395 0.452,0.51263 0.0992,0.15985 0.26458,0.65043 0.011,0.0331 0.0772,0.48507 l -0.0276,0.55122 q -0.11576,0.49609 -0.22049,0.69453 -0.15434,0.30317 -0.51814,0.66146 -0.18741,0.1819 -0.48507,0.29765 -0.41892,0.15986 -0.88746,0.15986 -0.89296,0 -1.51584,-0.71107 -0.61736,-0.71658 -0.61736,-2.07257 0,-0.755165 0.23151,-1.427648 0.23151,-0.677994 0.65595,-1.240234 0.28663,-0.380338 0.77721,-0.815799 0.4961,-0.43546 0.93707,-0.677994 0.60082,-0.319705 1.18511,-0.429948 z"
           style="font-style:normal;font-variant:normal;font-weight:normal;font-stretch:normal;font-size:11.28888893px;font-family:Garamond;-inkscape-font-specification:Garamond;text-align:center;text-anchor:middle;fill:#ffffff;stroke-width:0.35277778;stroke-miterlimit:4;stroke-dasharray:none"
           id="path1147" />
      </g>
      <g
         aria-label="17"
         style="font-style:normal;font-variant:normal;font-weight:normal;font-stretch:normal;font-size:11.28888893px;line-height:100%;font-family:Garamond;-inkscape-font-specification:Garamond;font-variant-ligatures:normal;font-variant-caps:normal;font-variant-numeric:normal;text-align:center;letter-spacing:0px;word-spacing:0px;writing-mode:lr-tb;text-anchor:middle;fill:#ffffff;fill-opacity:1;stroke:none;stroke-width:0.35277778;stroke-miterlimit:4;stroke-dasharray:none"
         id="text918">
        <path
           d="m 325.73515,103.31397 h -2.52457 q -0.006,-0.0496 -0.006,-0.0827 0,-0.0937 0.0386,-0.12678 0.0386,-0.0386 0.24253,-0.0772 0.31971,-0.0661 0.51814,-0.15985 0.0551,-0.12127 0.0551,-0.226 v -0.34175 q 0,-0.0606 0.0165,-0.55673 0.006,-0.18741 0.011,-1.62057 l 0.011,-1.29536 -0.011,-0.755165 q 0,-0.165364 0.011,-1.041797 -1.25126,0.892969 -1.37253,0.892969 -0.0441,0 -0.0937,-0.0441 -0.0496,-0.04961 -0.0496,-0.09371 0,-0.05512 0.0386,-0.08819 0.0772,-0.07166 0.36932,-0.237023 0.0441,-0.02205 0.38034,-0.297656 0.53468,-0.446484 0.78272,-0.700043 0.24805,-0.253559 0.30317,-0.286632 0.11024,-0.0055 0.17088,-0.0055 0.14331,0 0.17639,0.04961 0.0386,0.0441 0.0386,0.336241 l -0.0386,4.911327 v 0.48507 q 0,0.17639 -0.006,0.35829 -0.006,0.17639 -0.006,0.25907 0,0.19844 0.0496,0.25907 0.0331,0.0386 0.20395,0.0992 l 0.37483,0.0772 q 0.24253,0.0606 0.26458,0.0827 0.0551,0.0496 0.0551,0.15434 z"
           style="font-style:normal;font-variant:normal;font-weight:normal;font-stretch:normal;font-size:11.28888893px;font-family:Garamond;-inkscape-font-specification:Garamond;text-align:center;text-anchor:middle;fill:#ffffff;stroke-width:0.35277778;stroke-miterlimit:4;stroke-dasharray:none"
           id="path1150" />
        <path
           d="m 327.62582,96.357636 q 0.67799,-0.02756 1.83003,-0.02756 0.52366,0 1.19614,0.01654 0.4079,0.01654 0.53468,0.01654 l 0.53468,-0.0055 h 0.12678 q 0.0441,0.0441 0.0441,0.08268 0,0.06615 -0.12677,0.319705 -0.0606,0.110243 -0.53468,1.207161 -0.23151,0.540191 -0.56776,1.416624 l -0.69453,1.956812 q -0.24804,0.67248 -0.3197,0.93707 l -0.12678,0.51263 q -0.0772,0.226 -0.0772,0.33073 0,0.0827 0.0937,0.25907 -0.0661,0.0882 -0.29766,0.0882 -0.10473,0 -0.19844,-0.0882 0.0331,-0.32522 0.20946,-0.8599 0.0662,-0.19292 0.226,-0.76067 0.15985,-0.56776 0.31419,-1.00322 l 0.62839,-1.708764 q 0.2701,-0.727604 0.52365,-1.339453 0.0882,-0.203949 0.1323,-0.286632 0.11575,-0.203949 0.11575,-0.336241 l -0.0717,0.0055 h -0.0606 l -0.7276,-0.02205 q -0.0331,0 -0.23152,0.01102 -0.19843,0.01102 -0.29765,0.01102 l -0.85438,-0.0055 h -0.25908 l -0.3638,-0.01102 q -0.3197,-0.0055 -0.40239,0.07717 -0.0772,0.07717 -0.0882,0.407899 -0.006,0.08268 -0.0441,0.159853 -0.0606,0.01654 -0.0882,0.01654 -0.0606,0 -0.15985,-0.0441 0.006,-0.137804 0.006,-0.20395 l 0.011,-0.165364 -0.0165,-0.303169 q 0,-0.396875 0.022,-0.534679 0.011,-0.05512 0.0606,-0.126779 z"
           style="font-style:normal;font-variant:normal;font-weight:normal;font-stretch:normal;font-size:11.28888893px;font-family:Garamond;-inkscape-font-specification:Garamond;text-align:center;text-anchor:middle;fill:#ffffff;stroke-width:0.35277778;stroke-miterlimit:4;stroke-dasharray:none"
           id="path1152" />
      </g>
      <g
         aria-label="18"
         style="font-style:normal;font-variant:normal;font-weight:normal;font-stretch:normal;font-size:11.28888893px;line-height:100%;font-family:Garamond;-inkscape-font-specification:Garamond;font-variant-ligatures:normal;font-variant-caps:normal;font-variant-numeric:normal;text-align:center;letter-spacing:0px;word-spacing:0px;writing-mode:lr-tb;text-anchor:middle;fill:#ffffff;fill-opacity:1;stroke:none;stroke-width:0.35277778;stroke-miterlimit:4;stroke-dasharray:none"
         id="text924">
        <path
           d="m 344.78517,103.31397 h -2.52457 q -0.006,-0.0496 -0.006,-0.0827 0,-0.0937 0.0386,-0.12678 0.0386,-0.0386 0.24253,-0.0772 0.3197,-0.0661 0.51814,-0.15985 0.0551,-0.12127 0.0551,-0.226 v -0.34175 q 0,-0.0606 0.0165,-0.55673 0.006,-0.18741 0.011,-1.62057 l 0.011,-1.29536 -0.011,-0.755165 q 0,-0.165364 0.011,-1.041797 -1.25126,0.892969 -1.37253,0.892969 -0.0441,0 -0.0937,-0.0441 -0.0496,-0.04961 -0.0496,-0.09371 0,-0.05512 0.0386,-0.08819 0.0772,-0.07166 0.36932,-0.237023 0.0441,-0.02205 0.38033,-0.297656 0.53468,-0.446484 0.78273,-0.700043 0.24805,-0.253559 0.30317,-0.286632 0.11024,-0.0055 0.17088,-0.0055 0.14331,0 0.17638,0.04961 0.0386,0.0441 0.0386,0.336241 l -0.0386,4.911327 v 0.48507 q 0,0.17639 -0.006,0.35829 -0.006,0.17639 -0.006,0.25907 0,0.19844 0.0496,0.25907 0.0331,0.0386 0.20395,0.0992 l 0.37483,0.0772 q 0.24253,0.0606 0.26458,0.0827 0.0551,0.0496 0.0551,0.15434 z"
           style="font-style:normal;font-variant:normal;font-weight:normal;font-stretch:normal;font-size:11.28888893px;font-family:Garamond;-inkscape-font-specification:Garamond;text-align:center;text-anchor:middle;fill:#ffffff;stroke-width:0.35277778;stroke-miterlimit:4;stroke-dasharray:none"
           id="path1155" />
        <path
           d="m 348.2027,99.802731 q -0.53468,-0.286632 -0.7276,-0.457508 -0.27561,-0.237023 -0.46302,-0.611849 -0.1819,-0.374827 -0.1819,-0.76619 0,-0.683507 0.54019,-1.234722 0.5457,-0.556727 1.33394,-0.556727 0.88746,0 1.4056,0.468533 0.51814,0.468533 0.51814,1.141015 0,0.374827 -0.15434,0.683507 -0.15434,0.308681 -0.45751,0.556728 -0.20395,0.170877 -0.70004,0.424436 0.75516,0.402387 0.89848,0.518142 0.29766,0.231514 0.5016,0.611844 0.20395,0.38034 0.20395,0.84336 0,0.86541 -0.60082,1.46072 -0.59531,0.59532 -1.52135,0.59532 -0.95361,0 -1.52136,-0.51815 -0.56224,-0.52365 -0.56224,-1.28984 0,-0.43546 0.14883,-0.78824 0.14883,-0.35829 0.46302,-0.61185 0.24254,-0.19292 0.87643,-0.468529 z m 0.86541,-0.479557 q 0.46302,-0.253559 0.64492,-0.523654 0.29766,-0.446485 0.29766,-1.014237 0,-0.440972 -0.17639,-0.755165 -0.17639,-0.319704 -0.47404,-0.457508 -0.29215,-0.137804 -0.6339,-0.137804 -0.54571,0 -0.89848,0.374826 -0.35278,0.374827 -0.35278,0.92053 0,0.319705 0.0937,0.534679 0.0937,0.209461 0.29765,0.391363 0.13229,0.121267 0.61736,0.43546 0.0717,0.0441 0.34727,0.137803 0.0827,0.02756 0.23702,0.09371 z m -0.59531,0.600825 q -0.39688,0.209461 -0.55673,0.369311 -0.24253,0.23151 -0.38034,0.55122 -0.1378,0.3197 -0.1378,0.88194 0,0.5898 0.25907,0.92604 0.42995,0.55673 1.12448,0.55673 0.6339,0 1.03628,-0.40239 0.4079,-0.40238 0.4079,-1.03628 0,-0.68902 -0.41341,-1.09141 -0.4079,-0.40238 -1.33945,-0.755161 z"
           style="font-style:normal;font-variant:normal;font-weight:normal;font-stretch:normal;font-size:11.28888893px;font-family:Garamond;-inkscape-font-specification:Garamond;text-align:center;text-anchor:middle;fill:#ffffff;stroke-width:0.35277778;stroke-miterlimit:4;stroke-dasharray:none"
           id="path1157" />
      </g>
      <g
         aria-label="19"
         style="font-style:normal;font-variant:normal;font-weight:normal;font-stretch:normal;font-size:11.28888893px;line-height:100%;font-family:Garamond;-inkscape-font-specification:Garamond;font-variant-ligatures:normal;font-variant-caps:normal;font-variant-numeric:normal;text-align:center;letter-spacing:0px;word-spacing:0px;writing-mode:lr-tb;text-anchor:middle;fill:#ffffff;fill-opacity:1;stroke:none;stroke-width:0.35277778;stroke-miterlimit:4;stroke-dasharray:none"
         id="text930">
        <path
           d="m 363.83516,103.31397 h -2.52457 q -0.006,-0.0496 -0.006,-0.0827 0,-0.0937 0.0386,-0.12678 0.0386,-0.0386 0.24254,-0.0772 0.3197,-0.0661 0.51814,-0.15985 0.0551,-0.12127 0.0551,-0.226 v -0.34175 q 0,-0.0606 0.0165,-0.55673 0.006,-0.18741 0.011,-1.62057 l 0.011,-1.29536 -0.011,-0.755165 q 0,-0.165364 0.011,-1.041797 -1.25126,0.892969 -1.37253,0.892969 -0.0441,0 -0.0937,-0.0441 -0.0496,-0.04961 -0.0496,-0.09371 0,-0.05512 0.0386,-0.08819 0.0772,-0.07166 0.36931,-0.237023 0.0441,-0.02205 0.38034,-0.297656 0.53468,-0.446484 0.78273,-0.700043 0.24805,-0.253559 0.30317,-0.286632 0.11024,-0.0055 0.17087,-0.0055 0.14332,0 0.17639,0.04961 0.0386,0.0441 0.0386,0.336241 l -0.0386,4.911327 v 0.48507 q 0,0.17639 -0.006,0.35829 -0.006,0.17639 -0.006,0.25907 0,0.19844 0.0496,0.25907 0.0331,0.0386 0.20395,0.0992 l 0.37482,0.0772 q 0.24254,0.0606 0.26459,0.0827 0.0551,0.0496 0.0551,0.15434 z"
           style="font-style:normal;font-variant:normal;font-weight:normal;font-stretch:normal;font-size:11.28888893px;font-family:Garamond;-inkscape-font-specification:Garamond;text-align:center;text-anchor:middle;fill:#ffffff;stroke-width:0.35277778;stroke-miterlimit:4;stroke-dasharray:none"
           id="path1160" />
        <path
           d="m 369.06619,96.64978 q 0.4079,0.440972 0.58429,0.87092 0.23702,0.606337 0.23702,1.405599 0,0.903993 -0.26458,1.609551 -0.26459,0.70555 -0.64493,1.2237 -0.37482,0.51263 -0.78823,0.84887 -0.41341,0.33073 -1.01975,0.60633 -0.60634,0.27561 -1.01424,0.27561 h -0.0441 q -0.0661,-0.0496 -0.0661,-0.12127 0,-0.0827 0.0276,-0.11024 0.0276,-0.0276 0.14332,-0.0331 0.20395,-0.0165 0.68902,-0.25356 0.66145,-0.33073 1.00872,-0.72761 0.5898,-0.67248 0.87643,-1.52135 0.29215,-0.848871 0.29215,-1.901692 0,-0.876432 -0.19844,-1.422135 -0.19844,-0.545703 -0.56224,-0.788238 -0.3638,-0.242535 -0.70004,-0.242535 -0.44098,0 -0.74966,0.418924 -0.42443,0.584288 -0.42443,1.686718 0,0.870921 0.39687,1.372527 0.28112,0.352781 0.7717,0.352781 0.17639,0 0.25356,-0.0331 l 0.0441,-0.0165 q 0.0551,0 0.0992,0.0551 0.0661,0.0827 0.0661,0.17088 l -0.0606,0.0496 q -0.12127,0.0551 -0.28112,0.0827 -0.15434,0.0276 -0.34727,0.0276 -0.67799,0 -1.22369,-0.617363 -0.54571,-0.617362 -0.54571,-1.554428 0,-0.959114 0.61185,-1.598524 0.61736,-0.644922 1.47175,-0.644922 0.36931,0 0.65043,0.104731 0.28112,0.104731 0.71107,0.424436 z"
           style="font-style:normal;font-variant:normal;font-weight:normal;font-stretch:normal;font-size:11.28888893px;font-family:Garamond;-inkscape-font-specification:Garamond;text-align:center;text-anchor:middle;fill:#ffffff;stroke-width:0.35277778;stroke-miterlimit:4;stroke-dasharray:none"
           id="path1162" />
      </g>
      <g
         aria-label="20"
         style="font-style:normal;font-variant:normal;font-weight:normal;font-stretch:normal;font-size:11.28888893px;line-height:100%;font-family:Garamond;-inkscape-font-specification:Garamond;font-variant-ligatures:normal;font-variant-caps:normal;font-variant-numeric:normal;text-align:center;letter-spacing:0px;word-spacing:0px;writing-mode:lr-tb;text-anchor:middle;fill:#ffffff;fill-opacity:1;stroke:none;stroke-width:0.35277778;stroke-miterlimit:4;stroke-dasharray:none"
         id="text936">
        <path
           d="m 383.69543,103.31397 q -0.82682,-0.0331 -2.21588,-0.0331 l -1.19614,0.0331 -0.53468,-0.0165 -0.42444,0.0165 q -0.0661,-0.006 -0.19292,-0.0276 0.0992,-0.23151 0.25356,-0.42443 0.45751,-0.56224 1.33945,-1.4497 1.23472,-1.24023 1.62609,-1.94579 0.39136,-0.711068 0.39136,-1.333941 0,-0.584288 -0.39688,-0.981163 -0.39687,-0.396875 -0.97565,-0.396875 -0.34726,0 -0.67248,0.165364 -0.32522,0.159853 -0.52366,0.4079 -0.12677,0.159852 -0.33624,0.639409 -0.11575,0.264584 -0.1378,0.286632 -0.0331,0.03858 -0.0772,0.03858 -0.0441,0 -0.0882,-0.0441 -0.0386,-0.04961 -0.0386,-0.121267 0,-0.248047 0.24805,-0.79375 0.25356,-0.545703 0.73863,-0.854384 0.49058,-0.30868 1.1355,-0.30868 0.84336,0 1.4056,0.551215 0.56775,0.545703 0.56775,1.30638 0,0.600825 -0.38585,1.223698 -0.38585,0.617361 -1.77491,1.896184 -0.45751,0.41892 -0.65044,0.61736 -0.19292,0.19844 -0.77721,0.85989 0.84336,0.0331 1.53238,0.0331 0.14882,0 0.32521,-0.011 0.32522,-0.011 0.38034,-0.011 l 0.76619,0.0165 q 0.12678,0 0.25907,-0.12126 0.13229,-0.12127 0.35829,-0.68351 l 0.13229,-0.006 q 0.0276,0 0.0827,0.006 0.0276,0.0551 0.0276,0.0827 l -0.011,0.0441 q -0.0441,0.15985 -0.0772,0.58429 -0.0221,0.24804 -0.0827,0.75516 z"
           style="font-style:normal;font-variant:normal;font-weight:normal;font-stretch:normal;font-size:11.28888893px;font-family:Garamond;-inkscape-font-specification:Garamond;text-align:center;text-anchor:middle;fill:#ffffff;stroke-width:0.35277778;stroke-miterlimit:4;stroke-dasharray:none"
           id="path1165" />
        <path
           d="m 389.11388,99.846829 q 0,0.567751 -0.0827,1.008721 -0.14882,0.76068 -0.41341,1.27331 -0.26458,0.51263 -0.62838,0.86541 -0.26459,0.25907 -0.56224,0.37482 -0.29766,0.12127 -0.60634,0.12127 -0.5457,0 -1.03628,-0.3638 -0.48507,-0.3638 -0.84888,-1.20165 -0.3638,-0.83785 -0.3638,-1.973351 0,-0.887456 0.22049,-1.703255 0.22048,-0.815798 0.57877,-1.262283 0.36381,-0.451996 0.71658,-0.650434 0.35829,-0.198437 0.77722,-0.198437 0.5898,0 1.14101,0.463021 0.55673,0.46302 0.88746,1.438671 0.22049,0.655947 0.22049,1.807987 z m -0.82683,-0.181902 q -0.006,-1.355989 -0.0992,-1.841059 -0.15434,-0.799262 -0.50711,-1.118967 -0.34727,-0.319704 -0.8158,-0.319704 -0.39136,0 -0.74414,0.253559 -0.34727,0.253559 -0.47956,0.79375 -0.226,0.876432 -0.226,2.656854 0,1.76389 0.34727,2.46945 0.35278,0.70004 1.05282,0.70004 0.47956,0 0.82682,-0.29766 0.35278,-0.29765 0.50161,-1.10243 0.15434,-0.81028 0.14883,-1.81349 z"
           style="font-style:normal;font-variant:normal;font-weight:normal;font-stretch:normal;font-size:11.28888893px;font-family:Garamond;-inkscape-font-specification:Garamond;text-align:center;text-anchor:middle;fill:#ffffff;stroke-width:0.35277778;stroke-miterlimit:4;stroke-dasharray:none"
           id="path1167" />
      </g>
      <g
         aria-label="21"
         style="font-style:normal;font-variant:normal;font-weight:normal;font-stretch:normal;font-size:11.28888893px;line-height:100%;font-family:Garamond;-inkscape-font-specification:Garamond;font-variant-ligatures:normal;font-variant-caps:normal;font-variant-numeric:normal;text-align:center;letter-spacing:0px;word-spacing:0px;writing-mode:lr-tb;text-anchor:middle;fill:#ffffff;fill-opacity:1;stroke:none;stroke-width:0.35277778;stroke-miterlimit:4;stroke-dasharray:none"
         id="text942">
        <path
           d="m 402.74545,103.31397 q -0.82682,-0.0331 -2.21589,-0.0331 l -1.19613,0.0331 -0.53468,-0.0165 -0.42444,0.0165 q -0.0661,-0.006 -0.19292,-0.0276 0.0992,-0.23151 0.25356,-0.42443 0.4575,-0.56224 1.33945,-1.4497 1.23472,-1.24023 1.62608,-1.94579 0.39137,-0.711068 0.39137,-1.333941 0,-0.584288 -0.39688,-0.981163 -0.39687,-0.396875 -0.97565,-0.396875 -0.34727,0 -0.67248,0.165364 -0.32522,0.159853 -0.52366,0.4079 -0.12678,0.159852 -0.33624,0.639409 -0.11575,0.264584 -0.1378,0.286632 -0.0331,0.03858 -0.0772,0.03858 -0.0441,0 -0.0882,-0.0441 -0.0386,-0.04961 -0.0386,-0.121267 0,-0.248047 0.24805,-0.79375 0.25355,-0.545703 0.73862,-0.854384 0.49059,-0.30868 1.13551,-0.30868 0.84336,0 1.4056,0.551215 0.56775,0.545703 0.56775,1.30638 0,0.600825 -0.38585,1.223698 -0.38585,0.617361 -1.77492,1.896184 -0.4575,0.41892 -0.65043,0.61736 -0.19293,0.19844 -0.77721,0.85989 0.84336,0.0331 1.53237,0.0331 0.14883,0 0.32522,-0.011 0.32522,-0.011 0.38034,-0.011 l 0.76619,0.0165 q 0.12678,0 0.25907,-0.12126 0.13229,-0.12127 0.35829,-0.68351 l 0.13229,-0.006 q 0.0276,0 0.0827,0.006 0.0276,0.0551 0.0276,0.0827 l -0.011,0.0441 q -0.0441,0.15985 -0.0772,0.58429 -0.022,0.24804 -0.0827,0.75516 z"
           style="font-style:normal;font-variant:normal;font-weight:normal;font-stretch:normal;font-size:11.28888893px;font-family:Garamond;-inkscape-font-specification:Garamond;text-align:center;text-anchor:middle;fill:#ffffff;stroke-width:0.35277778;stroke-miterlimit:4;stroke-dasharray:none"
           id="path1170" />
        <path
           d="m 407.22683,103.31397 h -2.52457 q -0.006,-0.0496 -0.006,-0.0827 0,-0.0937 0.0386,-0.12678 0.0386,-0.0386 0.24253,-0.0772 0.31971,-0.0661 0.51814,-0.15985 0.0551,-0.12127 0.0551,-0.226 v -0.34175 q 0,-0.0606 0.0165,-0.55673 0.006,-0.18741 0.011,-1.62057 l 0.011,-1.29536 -0.011,-0.755165 q 0,-0.165364 0.011,-1.041797 -1.25126,0.892969 -1.37253,0.892969 -0.0441,0 -0.0937,-0.0441 -0.0496,-0.04961 -0.0496,-0.09371 0,-0.05512 0.0386,-0.08819 0.0772,-0.07166 0.36932,-0.237023 0.0441,-0.02205 0.38034,-0.297656 0.53467,-0.446484 0.78272,-0.700043 0.24805,-0.253559 0.30317,-0.286632 0.11024,-0.0055 0.17088,-0.0055 0.14331,0 0.17639,0.04961 0.0386,0.0441 0.0386,0.336241 l -0.0386,4.911327 v 0.48507 q 0,0.17639 -0.006,0.35829 -0.006,0.17639 -0.006,0.25907 0,0.19844 0.0496,0.25907 0.0331,0.0386 0.20395,0.0992 l 0.37483,0.0772 q 0.24253,0.0606 0.26458,0.0827 0.0551,0.0496 0.0551,0.15434 z"
           style="font-style:normal;font-variant:normal;font-weight:normal;font-stretch:normal;font-size:11.28888893px;font-family:Garamond;-inkscape-font-specification:Garamond;text-align:center;text-anchor:middle;fill:#ffffff;stroke-width:0.35277778;stroke-miterlimit:4;stroke-dasharray:none"
           id="path1172" />
      </g>
      <g
         aria-label="22"
         style="font-style:normal;font-variant:normal;font-weight:normal;font-stretch:normal;font-size:11.28888893px;line-height:100%;font-family:Garamond;-inkscape-font-specification:Garamond;font-variant-ligatures:normal;font-variant-caps:normal;font-variant-numeric:normal;text-align:center;letter-spacing:0px;word-spacing:0px;writing-mode:lr-tb;text-anchor:middle;fill:#ffffff;fill-opacity:1;stroke:none;stroke-width:0.35277778;stroke-miterlimit:4;stroke-dasharray:none"
         id="text948">
        <path
           d="m 421.79544,103.31397 q -0.82683,-0.0331 -2.21589,-0.0331 l -1.19614,0.0331 -0.53467,-0.0165 -0.42444,0.0165 q -0.0661,-0.006 -0.19293,-0.0276 0.0992,-0.23151 0.25356,-0.42443 0.45751,-0.56224 1.33946,-1.4497 1.23472,-1.24023 1.62608,-1.94579 0.39136,-0.711068 0.39136,-1.333941 0,-0.584288 -0.39687,-0.981163 -0.39688,-0.396875 -0.97565,-0.396875 -0.34727,0 -0.67248,0.165364 -0.32522,0.159853 -0.52366,0.4079 -0.12678,0.159852 -0.33624,0.639409 -0.11576,0.264584 -0.1378,0.286632 -0.0331,0.03858 -0.0772,0.03858 -0.0441,0 -0.0882,-0.0441 -0.0386,-0.04961 -0.0386,-0.121267 0,-0.248047 0.24804,-0.79375 0.25356,-0.545703 0.73863,-0.854384 0.49058,-0.30868 1.1355,-0.30868 0.84336,0 1.4056,0.551215 0.56776,0.545703 0.56776,1.30638 0,0.600825 -0.38585,1.223698 -0.38586,0.617361 -1.77492,1.896184 -0.45751,0.41892 -0.65043,0.61736 -0.19293,0.19844 -0.77722,0.85989 0.84336,0.0331 1.53238,0.0331 0.14883,0 0.32522,-0.011 0.32522,-0.011 0.38034,-0.011 l 0.76619,0.0165 q 0.12678,0 0.25907,-0.12126 0.13229,-0.12127 0.35829,-0.68351 l 0.13229,-0.006 q 0.0276,0 0.0827,0.006 0.0276,0.0551 0.0276,0.0827 l -0.011,0.0441 q -0.0441,0.15985 -0.0772,0.58429 -0.0221,0.24804 -0.0827,0.75516 z"
           style="font-style:normal;font-variant:normal;font-weight:normal;font-stretch:normal;font-size:11.28888893px;font-family:Garamond;-inkscape-font-specification:Garamond;text-align:center;text-anchor:middle;fill:#ffffff;stroke-width:0.35277778;stroke-miterlimit:4;stroke-dasharray:none"
           id="path1175" />
        <path
           d="m 427.0871,103.31397 q -0.82682,-0.0331 -2.21588,-0.0331 l -1.19614,0.0331 -0.53468,-0.0165 -0.42443,0.0165 q -0.0662,-0.006 -0.19293,-0.0276 0.0992,-0.23151 0.25356,-0.42443 0.45751,-0.56224 1.33945,-1.4497 1.23472,-1.24023 1.62609,-1.94579 0.39136,-0.711068 0.39136,-1.333941 0,-0.584288 -0.39687,-0.981163 -0.39688,-0.396875 -0.97566,-0.396875 -0.34726,0 -0.67248,0.165364 -0.32522,0.159853 -0.52365,0.4079 -0.12678,0.159852 -0.33624,0.639409 -0.11576,0.264584 -0.13781,0.286632 -0.0331,0.03858 -0.0772,0.03858 -0.0441,0 -0.0882,-0.0441 -0.0386,-0.04961 -0.0386,-0.121267 0,-0.248047 0.24805,-0.79375 0.25356,-0.545703 0.73863,-0.854384 0.49058,-0.30868 1.1355,-0.30868 0.84336,0 1.4056,0.551215 0.56775,0.545703 0.56775,1.30638 0,0.600825 -0.38585,1.223698 -0.38585,0.617361 -1.77491,1.896184 -0.45751,0.41892 -0.65044,0.61736 -0.19292,0.19844 -0.77721,0.85989 0.84336,0.0331 1.53238,0.0331 0.14883,0 0.32522,-0.011 0.32521,-0.011 0.38033,-0.011 l 0.76619,0.0165 q 0.12678,0 0.25908,-0.12126 0.13229,-0.12127 0.35829,-0.68351 l 0.13229,-0.006 q 0.0276,0 0.0827,0.006 0.0276,0.0551 0.0276,0.0827 l -0.011,0.0441 q -0.0441,0.15985 -0.0772,0.58429 -0.022,0.24804 -0.0827,0.75516 z"
           style="font-style:normal;font-variant:normal;font-weight:normal;font-stretch:normal;font-size:11.28888893px;font-family:Garamond;-inkscape-font-specification:Garamond;text-align:center;text-anchor:middle;fill:#ffffff;stroke-width:0.35277778;stroke-miterlimit:4;stroke-dasharray:none"
           id="path1177" />
      </g>
      <g
         aria-label="23"
         style="font-style:normal;font-variant:normal;font-weight:normal;font-stretch:normal;font-size:11.28888893px;line-height:100%;font-family:Garamond;-inkscape-font-specification:Garamond;font-variant-ligatures:normal;font-variant-caps:normal;font-variant-numeric:normal;text-align:center;letter-spacing:0px;word-spacing:0px;writing-mode:lr-tb;text-anchor:middle;fill:#ffffff;fill-opacity:1;stroke:none;stroke-width:0.35277778;stroke-miterlimit:4;stroke-dasharray:none"
         id="text954">
        <path
           d="m 440.84545,103.31397 q -0.82682,-0.0331 -2.21588,-0.0331 l -1.19614,0.0331 -0.53468,-0.0165 -0.42443,0.0165 q -0.0661,-0.006 -0.19293,-0.0276 0.0992,-0.23151 0.25356,-0.42443 0.45751,-0.56224 1.33945,-1.4497 1.23473,-1.24023 1.62609,-1.94579 0.39136,-0.711068 0.39136,-1.333941 0,-0.584288 -0.39687,-0.981163 -0.39688,-0.396875 -0.97565,-0.396875 -0.34727,0 -0.67249,0.165364 -0.32521,0.159853 -0.52365,0.4079 -0.12678,0.159852 -0.33624,0.639409 -0.11576,0.264584 -0.13781,0.286632 -0.0331,0.03858 -0.0772,0.03858 -0.0441,0 -0.0882,-0.0441 -0.0386,-0.04961 -0.0386,-0.121267 0,-0.248047 0.24805,-0.79375 0.25356,-0.545703 0.73863,-0.854384 0.49058,-0.30868 1.1355,-0.30868 0.84336,0 1.4056,0.551215 0.56775,0.545703 0.56775,1.30638 0,0.600825 -0.38585,1.223698 -0.38585,0.617361 -1.77491,1.896184 -0.45751,0.41892 -0.65043,0.61736 -0.19293,0.19844 -0.77722,0.85989 0.84336,0.0331 1.53238,0.0331 0.14883,0 0.32522,-0.011 0.32522,-0.011 0.38034,-0.011 l 0.76619,0.0165 q 0.12678,0 0.25907,-0.12126 0.13229,-0.12127 0.35829,-0.68351 l 0.13229,-0.006 q 0.0276,0 0.0827,0.006 0.0276,0.0551 0.0276,0.0827 l -0.011,0.0441 q -0.0441,0.15985 -0.0772,0.58429 -0.022,0.24804 -0.0827,0.75516 z"
           style="font-style:normal;font-variant:normal;font-weight:normal;font-stretch:normal;font-size:11.28888893px;font-family:Garamond;-inkscape-font-specification:Garamond;text-align:center;text-anchor:middle;fill:#ffffff;stroke-width:0.35277778;stroke-miterlimit:4;stroke-dasharray:none"
           id="path1180" />
        <path
           d="m 442.26759,97.768747 -0.1819,-0.09922 q 0.34726,-0.843359 0.82682,-1.185113 0.47956,-0.347265 1.11897,-0.347265 0.59531,0 0.9536,0.264583 0.53468,0.396875 0.53468,0.892969 0,0.402387 -0.27561,0.810286 -0.27009,0.4079 -0.9536,0.915018 l 0.13229,-0.0055 q 0.42995,0 0.82682,0.220487 0.40239,0.214974 0.6339,0.677994 0.23151,0.457506 0.23151,0.986676 0,1.06385 -0.78272,1.82452 -0.77722,0.75517 -1.98438,0.75517 -0.91502,0 -1.35048,-0.26459 -0.23702,-0.1378 -0.23702,-0.34726 0,-0.11576 0.0937,-0.20946 0.0992,-0.0937 0.24253,-0.0937 0.1819,0 0.44098,0.19844 0.61184,0.46853 1.06384,0.46853 0.68351,0 1.21267,-0.57326 0.52917,-0.57878 0.52917,-1.45521 0,-0.72761 -0.35829,-1.19063 -0.35278,-0.46853 -0.89848,-0.46853 -0.4079,0 -0.84887,0.385851 l -0.13229,-0.220486 q 0.27561,-0.237023 0.49609,-0.402387 0.67248,-0.490582 1.00321,-0.964627 0.23703,-0.341754 0.23703,-0.600825 0,-0.43546 -0.30869,-0.733116 -0.30868,-0.303169 -0.81028,-0.303169 -0.82682,0 -1.45521,1.063846 z"
           style="font-style:normal;font-variant:normal;font-weight:normal;font-stretch:normal;font-size:11.28888893px;font-family:Garamond;-inkscape-font-specification:Garamond;text-align:center;text-anchor:middle;fill:#ffffff;stroke-width:0.35277778;stroke-miterlimit:4;stroke-dasharray:none"
           id="path1182" />
      </g>
      <g
         aria-label="24"
         style="font-style:normal;font-variant:normal;font-weight:normal;font-stretch:normal;font-size:11.28888893px;line-height:100%;font-family:Garamond;-inkscape-font-specification:Garamond;font-variant-ligatures:normal;font-variant-caps:normal;font-variant-numeric:normal;text-align:center;letter-spacing:0px;word-spacing:0px;writing-mode:lr-tb;text-anchor:middle;fill:#ffffff;fill-opacity:1;stroke:none;stroke-width:0.35277778;stroke-miterlimit:4;stroke-dasharray:none"
         id="text960">
        <path
           d="m 459.89544,103.31397 q -0.82682,-0.0331 -2.21588,-0.0331 l -1.19614,0.0331 -0.53468,-0.0165 -0.42443,0.0165 q -0.0661,-0.006 -0.19293,-0.0276 0.0992,-0.23151 0.25356,-0.42443 0.45751,-0.56224 1.33945,-1.4497 1.23472,-1.24023 1.62609,-1.94579 0.39136,-0.711068 0.39136,-1.333941 0,-0.584288 -0.39687,-0.981163 -0.39688,-0.396875 -0.97566,-0.396875 -0.34726,0 -0.67248,0.165364 -0.32522,0.159853 -0.52365,0.4079 -0.12678,0.159852 -0.33624,0.639409 -0.11576,0.264584 -0.13781,0.286632 -0.0331,0.03858 -0.0772,0.03858 -0.0441,0 -0.0882,-0.0441 -0.0386,-0.04961 -0.0386,-0.121267 0,-0.248047 0.24805,-0.79375 0.25356,-0.545703 0.73863,-0.854384 0.49058,-0.30868 1.1355,-0.30868 0.84336,0 1.4056,0.551215 0.56775,0.545703 0.56775,1.30638 0,0.600825 -0.38585,1.223698 -0.38585,0.617361 -1.77491,1.896184 -0.45751,0.41892 -0.65044,0.61736 -0.19292,0.19844 -0.77721,0.85989 0.84336,0.0331 1.53238,0.0331 0.14883,0 0.32522,-0.011 0.32521,-0.011 0.38033,-0.011 l 0.76619,0.0165 q 0.12678,0 0.25907,-0.12126 0.1323,-0.12127 0.35829,-0.68351 l 0.1323,-0.006 q 0.0276,0 0.0827,0.006 0.0276,0.0551 0.0276,0.0827 l -0.011,0.0441 q -0.0441,0.15985 -0.0772,0.58429 -0.022,0.24804 -0.0827,0.75516 z"
           style="font-style:normal;font-variant:normal;font-weight:normal;font-stretch:normal;font-size:11.28888893px;font-family:Garamond;-inkscape-font-specification:Garamond;text-align:center;text-anchor:middle;fill:#ffffff;stroke-width:0.35277778;stroke-miterlimit:4;stroke-dasharray:none"
           id="path1185" />
        <path
           d="m 464.07365,96.13715 h 0.25356 q -0.006,0.170876 -0.006,0.203949 l 0.0165,0.810287 -0.0331,0.727604 0.022,0.810286 v 0.63941 l 0.011,0.870924 q 0,0.20395 -0.011,0.61736 l 0.11576,0.006 h 0.39136 l 0.37483,0.006 0.30868,-0.011 q 0.011,0.17087 0.011,0.25356 0,0.0827 -0.011,0.25356 -0.34176,0.0165 -0.36932,0.0165 l -0.2756,-0.006 h -0.22049 q -0.0882,0 -0.32522,-0.011 -0.011,0.78272 0,2.07808 -0.0331,0.0331 -0.0716,0.0441 l -0.34176,0.011 q -0.11024,0 -0.33624,-0.011 0.0165,-0.65043 0.0165,-0.93155 0,-0.24805 -0.011,-0.452 -0.0165,-0.37482 -0.0165,-0.42994 0,-0.0992 0.011,-0.30868 -0.23151,0.0276 -0.35829,0.0276 -0.0661,0 -0.14883,-0.006 -0.55672,-0.0276 -0.62838,-0.0276 -0.0717,0 -0.35278,0.0386 l -0.56775,-0.0331 -0.30868,0.0165 -0.20946,-0.0331 -0.26459,0.0551 -0.0496,-0.0386 q -0.011,-0.12127 -0.011,-0.18191 0,-0.0606 0.011,-0.1819 0.15434,-0.20395 0.56775,-0.82682 l 1.07487,-1.559939 q 0.39688,-0.5898 0.66697,-0.937066 0.2701,-0.347265 0.53468,-0.74414 0.26459,-0.402388 0.54019,-0.755165 z m -0.49609,4.67982 0.006,-0.903996 -0.006,-0.716579 v -1.846572 q -0.452,0.595313 -1.25677,1.802474 -0.92053,1.378043 -1.09141,1.664673 0.24254,-0.011 0.36381,-0.011 l 1.51033,0.022 q 0.16536,0 0.47404,-0.011 z"
           style="font-style:normal;font-variant:normal;font-weight:normal;font-stretch:normal;font-size:11.28888893px;font-family:Garamond;-inkscape-font-specification:Garamond;text-align:center;text-anchor:middle;fill:#ffffff;stroke-width:0.35277778;stroke-miterlimit:4;stroke-dasharray:none"
           id="path1187" />
      </g>
      <g
         aria-label="25"
         style="font-style:normal;font-variant:normal;font-weight:normal;font-stretch:normal;font-size:11.28888893px;line-height:100%;font-family:Garamond;-inkscape-font-specification:Garamond;font-variant-ligatures:normal;font-variant-caps:normal;font-variant-numeric:normal;text-align:center;letter-spacing:0px;word-spacing:0px;writing-mode:lr-tb;text-anchor:middle;fill:#ffffff;fill-opacity:1;stroke:none;stroke-width:0.35277778;stroke-miterlimit:4;stroke-dasharray:none"
         id="text966">
        <path
           d="m 478.94543,103.31397 q -0.82682,-0.0331 -2.21588,-0.0331 l -1.19614,0.0331 -0.53468,-0.0165 -0.42444,0.0165 q -0.0661,-0.006 -0.19292,-0.0276 0.0992,-0.23151 0.25356,-0.42443 0.45751,-0.56224 1.33945,-1.4497 1.23472,-1.24023 1.62609,-1.94579 0.39136,-0.711068 0.39136,-1.333941 0,-0.584288 -0.39688,-0.981163 -0.39687,-0.396875 -0.97565,-0.396875 -0.34726,0 -0.67248,0.165364 -0.32522,0.159853 -0.52366,0.4079 -0.12677,0.159852 -0.33624,0.639409 -0.11575,0.264584 -0.1378,0.286632 -0.0331,0.03858 -0.0772,0.03858 -0.0441,0 -0.0882,-0.0441 -0.0386,-0.04961 -0.0386,-0.121267 0,-0.248047 0.24805,-0.79375 0.25356,-0.545703 0.73863,-0.854384 0.49058,-0.30868 1.1355,-0.30868 0.84336,0 1.4056,0.551215 0.56775,0.545703 0.56775,1.30638 0,0.600825 -0.38585,1.223698 -0.38585,0.617361 -1.77491,1.896184 -0.45751,0.41892 -0.65044,0.61736 -0.19292,0.19844 -0.77721,0.85989 0.84336,0.0331 1.53238,0.0331 0.14882,0 0.32521,-0.011 0.32522,-0.011 0.38034,-0.011 l 0.76619,0.0165 q 0.12678,0 0.25907,-0.12126 0.13229,-0.12127 0.35829,-0.68351 l 0.13229,-0.006 q 0.0276,0 0.0827,0.006 0.0276,0.0551 0.0276,0.0827 l -0.011,0.0441 q -0.0441,0.15985 -0.0772,0.58429 -0.0221,0.24804 -0.0827,0.75516 z"
           style="font-style:normal;font-variant:normal;font-weight:normal;font-stretch:normal;font-size:11.28888893px;font-family:Garamond;-inkscape-font-specification:Garamond;text-align:center;text-anchor:middle;fill:#ffffff;stroke-width:0.35277778;stroke-miterlimit:4;stroke-dasharray:none"
           id="path1190" />
        <path
           d="m 483.6032,96.963973 q -0.61736,0.04961 -0.9977,0.04961 -0.28112,0 -0.59531,-0.01654 -0.17088,-0.01103 -0.20395,-0.01103 -0.67249,0 -0.72209,0.02756 -0.0221,0.01102 -0.0276,0.04961 -0.0165,0.08819 -0.14331,1.967839 0.24805,-0.12678 0.47956,-0.176389 0.23151,-0.05512 0.61185,-0.05512 0.27009,0 0.37482,0.03307 0.52366,0.170877 0.75517,0.308681 0.3197,0.198437 0.51814,0.451997 0.20395,0.253559 0.37483,0.74414 0.12126,0.35278 0.12126,0.73863 0,0.41892 -0.12126,0.78272 -0.11576,0.35829 -0.29215,0.60083 -0.17639,0.24253 -0.52365,0.50712 -0.34727,0.25907 -0.82131,0.39687 -0.46854,0.13781 -0.62839,0.14332 l -0.79926,-0.0717 q -0.33073,-0.0551 -0.57878,-0.17639 -0.24804,-0.12678 -0.33073,-0.24253 -0.0496,-0.0717 -0.0496,-0.18742 0,-0.0882 0.12127,-0.19292 0.12678,-0.10473 0.30868,-0.10473 0.0827,0 0.1819,0.0496 l 0.43546,0.28112 q 0.14883,0.13229 0.36932,0.24804 0.0331,0.0165 0.16536,0.0386 0.31971,0.0441 0.34727,0.0441 0.12126,0 0.41341,-0.0992 0.29214,-0.0992 0.54019,-0.33624 0.24805,-0.24254 0.42444,-0.60634 0.1819,-0.36932 0.1819,-0.8158 0,-0.79926 -0.50161,-1.3174 -0.50161,-0.518147 -1.20716,-0.518147 -0.31419,0 -0.58429,0.104731 -0.26458,0.104731 -0.35829,0.23151 l -0.0827,0.03307 q -0.0661,0.02756 -0.0937,0.02756 l -0.0717,-0.01654 q -0.0165,-0.09922 -0.0165,-0.148828 0,-0.0441 0.0165,-0.15434 0.0386,-0.270095 0.0386,-0.556727 0.006,-0.292144 0.0606,-0.523655 l -0.0165,-0.264583 q 0.0386,-0.20395 0.0441,-0.391363 0.0165,-1.267795 0.10473,-1.455208 0.0386,-0.08819 0.1323,-0.08819 0.0386,0 0.12678,0.01102 l 0.0331,0.0055 0.70004,-0.0055 q 0.47405,0.02756 0.70005,0.02756 0.51814,0 0.83233,-0.07166 0.15434,-0.143316 0.23702,-0.143316 0.0331,0 0.12127,0.01102 l 0.0165,0.06615 -0.0441,0.231511 -0.0276,0.369314 q -0.006,0.03858 -0.0496,0.165365 z"
           style="font-style:normal;font-variant:normal;font-weight:normal;font-stretch:normal;font-size:11.28888893px;font-family:Garamond;-inkscape-font-specification:Garamond;text-align:center;text-anchor:middle;fill:#ffffff;stroke-width:0.35277778;stroke-miterlimit:4;stroke-dasharray:none"
           id="path1192" />
      </g>
      <g
         aria-label="26"
         style="font-style:normal;font-variant:normal;font-weight:normal;font-stretch:normal;font-size:11.28888893px;line-height:100%;font-family:Garamond;-inkscape-font-specification:Garamond;font-variant-ligatures:normal;font-variant-caps:normal;font-variant-numeric:normal;text-align:center;letter-spacing:0px;word-spacing:0px;writing-mode:lr-tb;text-anchor:middle;fill:#ffffff;fill-opacity:1;stroke:none;stroke-width:0.35277778;stroke-miterlimit:4;stroke-dasharray:none"
         id="text972">
        <path
           d="m 497.99545,103.31397 q -0.82682,-0.0331 -2.21589,-0.0331 l -1.19613,0.0331 -0.53468,-0.0165 -0.42444,0.0165 q -0.0661,-0.006 -0.19292,-0.0276 0.0992,-0.23151 0.25356,-0.42443 0.4575,-0.56224 1.33945,-1.4497 1.23472,-1.24023 1.62608,-1.94579 0.39137,-0.711068 0.39137,-1.333941 0,-0.584288 -0.39688,-0.981163 -0.39687,-0.396875 -0.97565,-0.396875 -0.34727,0 -0.67248,0.165364 -0.32522,0.159853 -0.52366,0.4079 -0.12678,0.159852 -0.33624,0.639409 -0.11575,0.264584 -0.1378,0.286632 -0.0331,0.03858 -0.0772,0.03858 -0.0441,0 -0.0882,-0.0441 -0.0386,-0.04961 -0.0386,-0.121267 0,-0.248047 0.24805,-0.79375 0.25355,-0.545703 0.73862,-0.854384 0.49059,-0.30868 1.13551,-0.30868 0.84336,0 1.4056,0.551215 0.56775,0.545703 0.56775,1.30638 0,0.600825 -0.38585,1.223698 -0.38585,0.617361 -1.77492,1.896184 -0.4575,0.41892 -0.65043,0.61736 -0.19293,0.19844 -0.77721,0.85989 0.84336,0.0331 1.53237,0.0331 0.14883,0 0.32522,-0.011 0.32522,-0.011 0.38034,-0.011 l 0.76619,0.0165 q 0.12678,0 0.25907,-0.12126 0.13229,-0.12127 0.35829,-0.68351 l 0.13229,-0.006 q 0.0276,0 0.0827,0.006 0.0276,0.0551 0.0276,0.0827 l -0.011,0.0441 q -0.0441,0.15985 -0.0772,0.58429 -0.022,0.24804 -0.0827,0.75516 z"
           style="font-style:normal;font-variant:normal;font-weight:normal;font-stretch:normal;font-size:11.28888893px;font-family:Garamond;-inkscape-font-specification:Garamond;text-align:center;text-anchor:middle;fill:#ffffff;stroke-width:0.35277778;stroke-miterlimit:4;stroke-dasharray:none"
           id="path1195" />
        <path
           d="m 502.81307,96.104077 q 0.0496,0.08268 0.0717,0.181901 -0.0331,0.06063 -0.10473,0.08268 -0.23151,0.06063 -0.68351,0.319705 -0.10473,0.05512 -0.63941,0.51263 -0.23702,0.165365 -0.57326,0.617361 -0.45751,0.606337 -0.65595,1.085894 -0.19844,0.474046 -0.35278,1.24575 -0.0441,0.22048 -0.0606,0.77721 l -0.0165,0.20395 q 0,0.70556 0.41341,1.41111 0.41893,0.70004 1.0418,0.70004 0.32522,0 0.60634,-0.19843 0.28663,-0.19844 0.45199,-0.67249 0.16537,-0.47404 0.16537,-1.14652 0,-0.91502 -0.35278,-1.350481 -0.34726,-0.440972 -0.83785,-0.440972 -0.14882,0 -0.26458,0.0441 l -0.0441,0.01103 q -0.0717,0 -0.14882,-0.159853 0.14331,-0.09371 0.34726,-0.15434 0.20395,-0.06063 0.26458,-0.06063 0.0386,0 0.50161,0.08268 l 0.15985,0.07717 q 0.26459,0.08268 0.40239,0.192925 0.25356,0.20395 0.452,0.51263 0.0992,0.15985 0.26458,0.65043 0.011,0.0331 0.0772,0.48507 l -0.0276,0.55122 q -0.11576,0.49609 -0.22049,0.69453 -0.15434,0.30317 -0.51814,0.66146 -0.18741,0.1819 -0.48507,0.29765 -0.41892,0.15986 -0.88746,0.15986 -0.89296,0 -1.51584,-0.71107 -0.61736,-0.71658 -0.61736,-2.07257 0,-0.755165 0.23151,-1.427648 0.23151,-0.677994 0.65595,-1.240234 0.28663,-0.380338 0.77721,-0.815799 0.4961,-0.43546 0.93707,-0.677994 0.60082,-0.319705 1.18511,-0.429948 z"
           style="font-style:normal;font-variant:normal;font-weight:normal;font-stretch:normal;font-size:11.28888893px;font-family:Garamond;-inkscape-font-specification:Garamond;text-align:center;text-anchor:middle;fill:#ffffff;stroke-width:0.35277778;stroke-miterlimit:4;stroke-dasharray:none"
           id="path1197" />
      </g>
    </g>
  </g>
</svg>
