<?xml version="1.0" encoding="UTF-8" standalone="no"?>
<svg
   xmlns:dc="http://purl.org/dc/elements/1.1/"
   xmlns:cc="http://creativecommons.org/ns#"
   xmlns:rdf="http://www.w3.org/1999/02/22-rdf-syntax-ns#"
   xmlns:svg="http://www.w3.org/2000/svg"
   xmlns="http://www.w3.org/2000/svg"
   xmlns:sodipodi="http://sodipodi.sourceforge.net/DTD/sodipodi-0.dtd"
   xmlns:inkscape="http://www.inkscape.org/namespaces/inkscape"
   width="127pt"
   height="51.400002pt"
   viewBox="0 0 44.802777 18.132778"
   version="1.1"
   id="svg2376"
   inkscape:version="0.92.5 (2060ec1f9f, 2020-04-08)"
   sodipodi:docname="vira-trumps-horizontal.svg">
  <defs
     id="defs2370" />
  <sodipodi:namedview
     id="base"
     pagecolor="#ffffff"
     bordercolor="#666666"
     borderopacity="1.0"
     inkscape:pageopacity="0.0"
     inkscape:pageshadow="2"
     inkscape:zoom="5.2657143"
     inkscape:cx="144.46517"
     inkscape:cy="-27.466616"
     inkscape:document-units="mm"
     inkscape:current-layer="layer1"
     inkscape:document-rotation="0"
     showgrid="true"
     fit-margin-top="0"
     fit-margin-left="0"
     fit-margin-right="0"
     fit-margin-bottom="0"
     units="pt"
     inkscape:window-width="2880"
     inkscape:window-height="1526"
     inkscape:window-x="2869"
     inkscape:window-y="-11"
     inkscape:window-maximized="1"
     inkscape:snap-grids="false">
    <inkscape:grid
       type="xygrid"
       id="grid39"
       originx="38.27638"
       originy="-29.668575" />
  </sodipodi:namedview>
  <metadata
     id="metadata2373">
    <rdf:RDF>
      <cc:Work
         rdf:about="">
        <dc:format>image/svg+xml</dc:format>
        <dc:type
           rdf:resource="http://purl.org/dc/dcmitype/StillImage" />
        <dc:title></dc:title>
      </cc:Work>
    </rdf:RDF>
  </metadata>
  <g
     inkscape:label="Layer 1"
     inkscape:groupmode="layer"
     id="layer1"
     transform="translate(446.10484,132.45334)">
    <rect
       inkscape:export-ydpi="600"
       inkscape:export-xdpi="600"
       inkscape:export-filename="C:\mine\vira-github\vira\playingcards.io\vira-in-levels.png"
       style="display:inline;fill:#ffffff;fill-opacity:1;stroke:#000000;stroke-width:0.0705557;stroke-linecap:butt;stroke-linejoin:miter;stroke-miterlimit:44.95529938;stroke-dasharray:none;stroke-dashoffset:0;stroke-opacity:1;paint-order:fill markers stroke"
       id="rect1633"
       width="8.8898993"
       height="8.8899708"
       x="123.38712"
       y="-437.03848"
       transform="rotate(-90)" />
    <rect
       inkscape:export-ydpi="600"
       inkscape:export-xdpi="600"
       inkscape:export-filename="C:\mine\vira-github\vira\playingcards.io\vira-in-levels.png"
       style="display:inline;fill:#ffffff;fill-opacity:1;stroke:#000000;stroke-width:0.0705554;stroke-linecap:butt;stroke-linejoin:miter;stroke-miterlimit:44.95529938;stroke-dasharray:none;stroke-dashoffset:0;stroke-opacity:1;paint-order:fill markers stroke"
       id="rect1635"
       width="8.8899641"
       height="8.8900013"
       x="123.38703"
       y="-419.25842"
       transform="rotate(-90)" />
    <rect
       inkscape:export-ydpi="600"
       inkscape:export-xdpi="600"
       inkscape:export-filename="C:\mine\vira-github\vira\playingcards.io\vira-in-levels.png"
       style="display:inline;fill:#ffffff;fill-opacity:1;stroke:#000000;stroke-width:0.0705557;stroke-linecap:butt;stroke-linejoin:miter;stroke-miterlimit:44.95529938;stroke-dasharray:none;stroke-dashoffset:0;stroke-opacity:1;paint-order:fill markers stroke"
       id="rect1657"
       width="8.8900681"
       height="8.889966"
       x="123.38696"
       y="-428.1485"
       transform="rotate(-90)" />
    <rect
       inkscape:export-ydpi="600"
       inkscape:export-xdpi="600"
       inkscape:export-filename="C:\mine\vira-github\vira\playingcards.io\vira-in-levels.png"
       style="display:inline;fill:#ffffff;fill-opacity:1;stroke:#000000;stroke-width:0.0705554;stroke-linecap:butt;stroke-linejoin:miter;stroke-miterlimit:44.95529938;stroke-dasharray:none;stroke-dashoffset:0;stroke-opacity:1;paint-order:fill markers stroke"
       id="rect1659"
       width="8.8900175"
       height="8.8899946"
       x="123.387"
       y="-428.14841"
       transform="rotate(-90)" />
    <rect
       inkscape:export-ydpi="600"
       inkscape:export-xdpi="600"
       inkscape:export-filename="C:\mine\vira-github\vira\playingcards.io\vira-in-levels.png"
       style="display:inline;fill:#ffffff;fill-opacity:1;stroke:#000000;stroke-width:0.0705557;stroke-linecap:butt;stroke-linejoin:miter;stroke-miterlimit:44.95529938;stroke-dasharray:none;stroke-dashoffset:0;stroke-opacity:1;paint-order:fill markers stroke"
       id="rect1663"
       width="8.889925"
       height="8.889822"
       x="123.38711"
       y="-419.25854"
       transform="rotate(-90)" />
    <rect
       inkscape:export-ydpi="600"
       inkscape:export-xdpi="600"
       inkscape:export-filename="C:\mine\vira-github\vira\playingcards.io\vira-in-levels.png"
       style="display:inline;fill:#ffffff;fill-opacity:1;stroke:#000000;stroke-width:0.0705554;stroke-linecap:butt;stroke-linejoin:miter;stroke-miterlimit:44.95529938;stroke-dasharray:none;stroke-dashoffset:0;stroke-opacity:1;paint-order:fill markers stroke"
       id="rect1665"
       width="8.8900127"
       height="8.8899908"
       x="123.387"
       y="-437.03842"
       transform="rotate(-90)" />
    <rect
       inkscape:export-ydpi="600"
       inkscape:export-xdpi="600"
       inkscape:export-filename="C:\mine\vira-github\vira\playingcards.io\vira-in-levels.png"
       style="display:inline;fill:#ffffff;fill-opacity:1;stroke:#000000;stroke-width:0.0705557;stroke-linecap:butt;stroke-linejoin:miter;stroke-miterlimit:44.95529938;stroke-dasharray:none;stroke-dashoffset:0;stroke-opacity:1;paint-order:fill markers stroke"
       id="rect1669"
       width="8.8902397"
       height="8.8901377"
       x="123.38674"
       y="-445.92847"
       transform="rotate(-90)" />
    <rect
       inkscape:export-ydpi="600"
       inkscape:export-xdpi="600"
       inkscape:export-filename="C:\mine\vira-github\vira\playingcards.io\vira-in-levels.png"
       style="display:inline;fill:#ffffff;fill-opacity:1;stroke:#000000;stroke-width:0.0705554;stroke-linecap:butt;stroke-linejoin:miter;stroke-miterlimit:44.95529938;stroke-dasharray:none;stroke-dashoffset:0;stroke-opacity:1;paint-order:fill markers stroke"
       id="rect1671"
       width="8.8900127"
       height="8.8899918"
       x="123.387"
       y="-445.92847"
       transform="rotate(-90)" />
    <rect
       inkscape:export-ydpi="600"
       inkscape:export-xdpi="600"
       inkscape:export-filename="C:\mine\vira-github\vira\playingcards.io\vira-in-levels.png"
       style="display:inline;fill:#ffffff;fill-opacity:1;stroke:#000000;stroke-width:0.0705557;stroke-linecap:butt;stroke-linejoin:miter;stroke-miterlimit:44.95529938;stroke-dasharray:none;stroke-dashoffset:0;stroke-opacity:1;paint-order:fill markers stroke"
       id="rect1675"
       width="8.8898478"
       height="8.8897457"
       x="123.38713"
       y="-410.36841"
       transform="rotate(-90)" />
    <rect
       inkscape:export-ydpi="600"
       inkscape:export-xdpi="600"
       inkscape:export-filename="C:\mine\vira-github\vira\playingcards.io\vira-in-levels.png"
       style="display:inline;fill:#ffffff;fill-opacity:1;stroke:#000000;stroke-width:0.0705554;stroke-linecap:butt;stroke-linejoin:miter;stroke-miterlimit:44.95529938;stroke-dasharray:none;stroke-dashoffset:0;stroke-opacity:1;paint-order:fill markers stroke"
       id="rect1677"
       width="8.8900089"
       height="8.889987"
       x="123.387"
       y="-410.36844"
       transform="rotate(-90)" />
    <rect
       style="display:inline;fill:none;stroke:#000000;stroke-width:0.35277799;stroke-linejoin:miter;stroke-miterlimit:44.95529938;stroke-dasharray:none;paint-order:markers fill stroke"
       id="rect1637"
       width="17.780031"
       height="8.8899994"
       x="-132.27701"
       y="410.36844"
       inkscape:export-filename="C:\mine\vira-github\vira\playingcards.io\vira-in-levels.png"
       inkscape:export-xdpi="600"
       inkscape:export-ydpi="600"
       transform="rotate(90)" />
    <rect
       style="display:inline;fill:none;stroke:#000000;stroke-width:0.35277799;stroke-linejoin:miter;stroke-miterlimit:44.95529938;stroke-dasharray:none;paint-order:markers fill stroke"
       id="rect7112"
       width="17.780031"
       height="8.8899994"
       x="-132.27698"
       y="419.25842"
       inkscape:export-filename="C:\mine\vira-github\vira\playingcards.io\vira-in-levels.png"
       inkscape:export-xdpi="600"
       inkscape:export-ydpi="600"
       transform="rotate(90)" />
    <rect
       style="display:inline;fill:none;stroke:#000000;stroke-width:0.35277799;stroke-linejoin:miter;stroke-miterlimit:44.95529938;stroke-dasharray:none;paint-order:markers fill stroke"
       id="rect7114"
       width="17.780031"
       height="8.8899994"
       x="-132.27698"
       y="428.14844"
       inkscape:export-filename="C:\mine\vira-github\vira\playingcards.io\vira-in-levels.png"
       inkscape:export-xdpi="600"
       inkscape:export-ydpi="600"
       transform="rotate(90)" />
    <rect
       style="display:inline;fill:none;stroke:#000000;stroke-width:0.35277799;stroke-linejoin:miter;stroke-miterlimit:44.95529938;stroke-dasharray:none;paint-order:markers fill stroke"
       id="rect7116"
       width="17.780031"
       height="8.8899994"
       x="-132.27698"
       y="437.03845"
       inkscape:export-filename="C:\mine\vira-github\vira\playingcards.io\vira-in-levels.png"
       inkscape:export-xdpi="600"
       inkscape:export-ydpi="600"
       transform="rotate(90)" />
    <rect
       style="display:inline;fill:none;stroke:#000000;stroke-width:0.35277799;stroke-linejoin:miter;stroke-miterlimit:44.95529938;stroke-dasharray:none;paint-order:markers fill stroke"
       id="rect7118"
       width="17.780031"
       height="8.8899994"
       x="-132.27698"
       y="401.47842"
       inkscape:export-filename="C:\mine\vira-github\vira\playingcards.io\vira-in-levels.png"
       inkscape:export-xdpi="600"
       inkscape:export-ydpi="600"
       transform="rotate(90)" />
    <g
       aria-label="🚫"
       id="text1730"
       style="font-style:normal;font-variant:normal;font-weight:normal;font-stretch:normal;font-size:6.46362019px;line-height:120.00000477%;font-family:'Sweden Sans';-inkscape-font-specification:'Sweden Sans';text-align:end;letter-spacing:0px;word-spacing:0px;writing-mode:lr-tb;text-anchor:end;stroke-width:0.26458299"
       transform="translate(-47.007693,-2.8396687)">
      <path
         d="m -394.47571,-128.16719 q 0.43869,0 0.84267,0.11362 0.40713,0.11362 0.75746,0.32192 0.35348,0.20514 0.64383,0.4955 0.29036,0.29036 0.49551,0.64384 0.2083,0.35032 0.32191,0.75745 0.11362,0.40398 0.11362,0.84267 0,0.4387 -0.11362,0.84583 -0.11361,0.40397 -0.32191,0.75745 -0.20515,0.35033 -0.49551,0.64068 -0.29035,0.29036 -0.64383,0.49551 -0.35033,0.2083 -0.75746,0.32192 -0.40398,0.11361 -0.84267,0.11361 -0.43869,0 -0.84582,-0.11361 -0.40398,-0.11362 -0.75746,-0.32192 -0.35032,-0.20515 -0.64068,-0.49551 -0.29036,-0.29035 -0.49866,-0.64068 -0.20514,-0.35348 -0.31876,-0.75745 -0.11362,-0.40713 -0.11362,-0.84583 0,-0.43869 0.11362,-0.84267 0.11362,-0.40713 0.31876,-0.75745 0.2083,-0.35348 0.49866,-0.64384 0.29036,-0.29036 0.64068,-0.4955 0.35348,-0.2083 0.75746,-0.32192 0.40713,-0.11362 0.84582,-0.11362 z m -2.72368,3.175 q 0,0.37557 0.0978,0.72274 0.0978,0.34717 0.27457,0.65015 0.17674,0.30298 0.42607,0.55231 0.24933,0.24933 0.55231,0.42607 0.30299,0.17674 0.65015,0.27458 0.34717,0.0978 0.72274,0.0978 0.48604,0 0.9342,-0.16727 0.45131,-0.16412 0.82057,-0.47973 l -3.83146,-3.83146 q -0.3156,0.36926 -0.48288,0.82058 -0.16411,0.44816 -0.16411,0.93419 z m 4.80037,1.75477 q 0.31561,-0.37241 0.47972,-0.81742 0.16412,-0.44816 0.16412,-0.93735 0,-0.37557 -0.0978,-0.72274 -0.0978,-0.34716 -0.27458,-0.65015 -0.17674,-0.30298 -0.42606,-0.54915 -0.24618,-0.24933 -0.54916,-0.42607 -0.30298,-0.17674 -0.65015,-0.27458 -0.34717,-0.0978 -0.72274,-0.0978 -0.48919,0 -0.93735,0.16411 -0.445,0.16412 -0.81742,0.47972 z"
         style="font-style:normal;font-variant:normal;font-weight:normal;font-stretch:normal;font-size:6.46362019px;font-family:'Segoe UI Emoji';-inkscape-font-specification:'Segoe UI Emoji';text-align:center;text-anchor:middle;stroke-width:0.26458299"
         id="path36"
         inkscape:connector-curvature="0" />
    </g>
    <path
       inkscape:connector-curvature="0"
       style="display:inline;fill:#808080;fill-opacity:1;stroke:none;stroke-width:0.0705556;stroke-linecap:butt;stroke-linejoin:miter;stroke-miterlimit:4;stroke-dasharray:none;stroke-dashoffset:0;paint-order:normal"
       d="m -423.70357,-131.00699 c -0.60736,0 -1.13896,0.40794 -1.29615,0.99459 -0.15721,0.58667 0.0993,1.20577 0.62519,1.50945 -0.526,-0.30369 -1.19032,-0.21619 -1.61983,0.21328 -0.42946,0.42945 -0.51689,1.09384 -0.21321,1.61982 0.30368,0.52598 0.92281,0.78239 1.50944,0.62522 0.35313,-0.0946 0.64128,-0.32502 0.81496,-0.62582 l -0.53952,2.01347 h 1.43824 l -0.53951,-2.01364 c 0.1736,0.3009 0.46184,0.53133 0.81504,0.62599 0.58663,0.15717 1.20576,-0.0993 1.50944,-0.62522 0.30367,-0.52598 0.21624,-1.19037 -0.21328,-1.61982 -0.42945,-0.42948 -1.09385,-0.51697 -1.61984,-0.21328 0.52599,-0.30369 0.78248,-0.92279 0.62528,-1.50945 -0.15719,-0.58665 -0.68889,-0.99459 -1.29625,-0.99459 z"
       id="path4411"
       inkscape:export-filename="C:\mine\tarot\tarot-git\tarot\playingcards.io\le-plateau\le-plateau-board-heptagon.png"
       inkscape:export-xdpi="150.03937"
       inkscape:export-ydpi="150.03937" />
    <path
       style="display:inline;fill:#800000;fill-opacity:1;stroke:none;stroke-width:0.0705556;stroke-linecap:butt;stroke-linejoin:miter;stroke-miterlimit:4;stroke-dasharray:none;stroke-dashoffset:0;paint-order:normal"
       d="m -414.81362,-131.00707 -2.68385,3.175 2.68385,3.175 2.68384,-3.175 z"
       id="path4413"
       inkscape:connector-curvature="0"
       inkscape:export-filename="C:\mine\tarot\tarot-git\tarot\playingcards.io\le-plateau\le-plateau-board-heptagon.png"
       inkscape:export-xdpi="150.03937"
       inkscape:export-ydpi="150.03937" />
    <path
       inkscape:export-ydpi="150.03937"
       inkscape:export-xdpi="150.03937"
       inkscape:export-filename="C:\mine\tarot\tarot-git\tarot\playingcards.io\le-plateau\le-plateau-board-heptagon.png"
       id="path4449"
       d="m -432.59351,-131.00706 -2.36681,2.79991 h 2.1e-4 a 1.3419125,1.3419125 0 0 0 -0.31721,0.86627 1.3419125,1.3419125 0 0 0 1.34194,1.34193 1.3419125,1.3419125 0 0 0 1.16374,-0.6772 l -0.541,2.01909 h 1.43825 l -0.54041,-2.0169 a 1.3419125,1.3419125 0 0 0 1.16321,0.67501 1.3419125,1.3419125 0 0 0 1.3419,-1.34193 1.3419125,1.3419125 0 0 0 -0.3172,-0.86627 h 1.6e-4 z"
       style="display:inline;fill:#000000;fill-opacity:1;stroke:none;stroke-width:0.0705556;stroke-linecap:butt;stroke-linejoin:miter;stroke-miterlimit:4;stroke-dasharray:none;stroke-dashoffset:0;paint-order:normal"
       inkscape:connector-curvature="0" />
    <path
       inkscape:export-ydpi="150.03937"
       inkscape:export-xdpi="150.03937"
       inkscape:export-filename="C:\mine\tarot\tarot-git\tarot\playingcards.io\le-plateau\le-plateau-board-heptagon.png"
       inkscape:connector-curvature="0"
       id="path276"
       d="m -405.92228,-124.65705 -2.50408,-4.33714 v -3.3e-4 a 1.3419146,1.3419146 0 0 1 -0.18104,-0.67063 1.3419146,1.3419146 0 0 1 1.34191,-1.3419 1.3419146,1.3419146 0 0 1 1.34193,1.3419 1.3419146,1.3419146 0 0 1 1.34191,-1.3419 1.3419146,1.3419146 0 0 1 1.34193,1.3419 1.3419146,1.3419146 0 0 1 -0.18104,0.67062 v 3.3e-4 z"
       style="display:inline;fill:#fb4810;fill-opacity:1;stroke:none;stroke-width:0.0705554;stroke-linecap:butt;stroke-linejoin:miter;stroke-miterlimit:4;stroke-dasharray:none;stroke-dashoffset:0;paint-order:normal" />
  </g>
</svg>
