<?xml version="1.0" encoding="UTF-8" standalone="no"?>
<svg
   xmlns:dc="http://purl.org/dc/elements/1.1/"
   xmlns:cc="http://creativecommons.org/ns#"
   xmlns:rdf="http://www.w3.org/1999/02/22-rdf-syntax-ns#"
   xmlns:svg="http://www.w3.org/2000/svg"
   xmlns="http://www.w3.org/2000/svg"
   xmlns:sodipodi="http://sodipodi.sourceforge.net/DTD/sodipodi-0.dtd"
   xmlns:inkscape="http://www.inkscape.org/namespaces/inkscape"
   width="51.400002pt"
   height="101.8pt"
   viewBox="0 0 18.132778 35.912777"
   version="1.1"
   id="svg2489"
   inkscape:version="1.0.2-2 (e86c870879, 2021-01-15)"
   sodipodi:docname="vira-preference.svg">
  <defs
     id="defs2483" />
  <sodipodi:namedview
     id="base"
     pagecolor="#ffffff"
     bordercolor="#666666"
     borderopacity="1.0"
     inkscape:pageopacity="0.0"
     inkscape:pageshadow="2"
     inkscape:zoom="4.472643"
     inkscape:cx="85.69979"
     inkscape:cy="95.210604"
     inkscape:document-units="mm"
     inkscape:current-layer="layer1"
     inkscape:document-rotation="0"
     showgrid="true"
     fit-margin-top="0"
     fit-margin-left="0"
     fit-margin-right="0"
     fit-margin-bottom="0"
     units="pt"
     inkscape:window-width="2880"
     inkscape:window-height="1526"
     inkscape:window-x="2869"
     inkscape:window-y="-11"
     inkscape:window-maximized="1">
    <inkscape:grid
       type="xygrid"
       id="grid62" />
  </sodipodi:namedview>
  <metadata
     id="metadata2486">
    <rdf:RDF>
      <cc:Work
         rdf:about="">
        <dc:format>image/svg+xml</dc:format>
        <dc:type
           rdf:resource="http://purl.org/dc/dcmitype/StillImage" />
        <dc:title></dc:title>
      </cc:Work>
    </rdf:RDF>
  </metadata>
  <g
     inkscape:label="Layer 1"
     inkscape:groupmode="layer"
     id="layer1"
     transform="translate(-104.06419,-111.53607)">
    <rect
       inkscape:export-ydpi="600"
       inkscape:export-xdpi="600"
       inkscape:export-filename="C:\mine\vira-github\vira\playingcards.io\vira-in-levels.png"
       style="display:inline;fill:#cccccc;fill-opacity:1;stroke:#000000;stroke-width:0.0705557;stroke-linecap:butt;stroke-linejoin:miter;stroke-miterlimit:44.9553;stroke-dasharray:none;stroke-dashoffset:0;stroke-opacity:1;paint-order:fill markers stroke"
       id="rect2209"
       width="8.8898993"
       height="8.8899708"
       x="-120.60238"
       y="113.1305"
       transform="rotate(-90)" />
    <path
       id="rect2211"
       style="display:inline;fill:#ffffff;fill-opacity:1;stroke:#000000;stroke-width:0.0705554;stroke-linecap:butt;stroke-linejoin:miter;stroke-miterlimit:44.9553;stroke-dasharray:none;stroke-dashoffset:0;stroke-opacity:1;paint-order:fill markers stroke"
       transform="scale(-1)"
       d="m -113.13056,-120.60247 h 8.88996 v 8.89 h -8.88996 z" />
    <rect
       inkscape:export-ydpi="600"
       inkscape:export-xdpi="600"
       inkscape:export-filename="C:\mine\vira-github\vira\playingcards.io\vira-in-levels.png"
       style="display:inline;fill:#cccccc;fill-opacity:1;stroke:#000000;stroke-width:0.0705557;stroke-linecap:butt;stroke-linejoin:miter;stroke-miterlimit:44.9553;stroke-dasharray:none;stroke-dashoffset:0;stroke-opacity:1;paint-order:fill markers stroke"
       id="rect2213"
       width="8.8900681"
       height="8.889966"
       x="-129.49252"
       y="113.13059"
       transform="rotate(-90)" />
    <path
       id="rect2215"
       style="display:inline;fill:#ffffff;fill-opacity:1;stroke:#000000;stroke-width:0.0705554;stroke-linecap:butt;stroke-linejoin:miter;stroke-miterlimit:44.9553;stroke-dasharray:none;stroke-dashoffset:0;stroke-opacity:1;paint-order:fill markers stroke"
       transform="scale(-1)"
       d="m -113.13059,-129.49245 h 8.89002 v 8.89 h -8.89002 z" />
    <rect
       inkscape:export-ydpi="600"
       inkscape:export-xdpi="600"
       inkscape:export-filename="C:\mine\vira-github\vira\playingcards.io\vira-in-levels.png"
       style="display:inline;fill:#cccccc;fill-opacity:1;stroke:#000000;stroke-width:0.0705557;stroke-linecap:butt;stroke-linejoin:miter;stroke-miterlimit:44.9553;stroke-dasharray:none;stroke-dashoffset:0;stroke-opacity:1;paint-order:fill markers stroke"
       id="rect2217"
       width="8.889925"
       height="8.889822"
       x="-138.38252"
       y="113.13062"
       transform="rotate(-90)" />
    <path
       id="rect2219"
       style="display:inline;fill:#ffffff;fill-opacity:1;stroke:#000000;stroke-width:0.0705554;stroke-linecap:butt;stroke-linejoin:miter;stroke-miterlimit:44.9553;stroke-dasharray:none;stroke-dashoffset:0;stroke-opacity:1;paint-order:fill markers stroke"
       transform="scale(-1)"
       d="m -113.13059,-138.38246 h 8.89001 v 8.88999 h -8.89001 z" />
    <rect
       inkscape:export-ydpi="600"
       inkscape:export-xdpi="600"
       inkscape:export-filename="C:\mine\vira-github\vira\playingcards.io\vira-in-levels.png"
       style="display:inline;fill:#ffffff;fill-opacity:1;stroke:#000000;stroke-width:0.0705554;stroke-linecap:butt;stroke-linejoin:miter;stroke-miterlimit:44.9553;stroke-dasharray:none;stroke-dashoffset:0;stroke-opacity:1;paint-order:fill markers stroke"
       id="rect2223"
       width="8.8900127"
       height="8.8899918"
       x="-113.13059"
       y="-147.27248"
       transform="scale(-1)" />
    <rect
       inkscape:export-ydpi="600"
       inkscape:export-xdpi="600"
       inkscape:export-filename="C:\mine\vira-github\vira\playingcards.io\vira-in-levels.png"
       style="display:inline;fill:#cccccc;fill-opacity:1;stroke:#000000;stroke-width:0.0705557;stroke-linecap:butt;stroke-linejoin:miter;stroke-miterlimit:44.9553;stroke-dasharray:none;stroke-dashoffset:0;stroke-opacity:1;paint-order:fill markers stroke"
       id="rect2225"
       width="8.8898478"
       height="8.8897457"
       x="-147.27257"
       y="113.13068"
       transform="rotate(-90)" />
    <rect
       style="display:inline;fill:none;stroke:#000000;stroke-width:0.352778;stroke-linejoin:miter;stroke-miterlimit:44.9553;stroke-dasharray:none;paint-order:markers fill stroke"
       id="rect2229"
       width="17.780031"
       height="8.8899994"
       x="104.24058"
       y="111.71246"
       inkscape:export-filename="C:\mine\vira-github\vira\playingcards.io\vira-in-levels.png"
       inkscape:export-xdpi="600"
       inkscape:export-ydpi="600" />
    <rect
       style="display:inline;fill:none;stroke:#000000;stroke-width:0.352778;stroke-linejoin:miter;stroke-miterlimit:44.9553;stroke-dasharray:none;paint-order:markers fill stroke"
       id="rect2231"
       width="17.780031"
       height="8.8899994"
       x="104.24061"
       y="120.60245"
       inkscape:export-filename="C:\mine\vira-github\vira\playingcards.io\vira-in-levels.png"
       inkscape:export-xdpi="600"
       inkscape:export-ydpi="600" />
    <rect
       style="display:inline;fill:none;stroke:#000000;stroke-width:0.352778;stroke-linejoin:miter;stroke-miterlimit:44.9553;stroke-dasharray:none;paint-order:markers fill stroke"
       id="rect2233"
       width="17.780031"
       height="8.8899994"
       x="104.24061"
       y="129.49246"
       inkscape:export-filename="C:\mine\vira-github\vira\playingcards.io\vira-in-levels.png"
       inkscape:export-xdpi="600"
       inkscape:export-ydpi="600" />
    <rect
       style="display:inline;fill:none;stroke:#000000;stroke-width:0.352778;stroke-linejoin:miter;stroke-miterlimit:44.9553;stroke-dasharray:none;paint-order:markers fill stroke"
       id="rect2235"
       width="17.780031"
       height="8.8899994"
       x="104.24061"
       y="138.38249"
       inkscape:export-filename="C:\mine\vira-github\vira\playingcards.io\vira-in-levels.png"
       inkscape:export-xdpi="600"
       inkscape:export-ydpi="600" />
    <path
       d="m 119.64889,114.79225 q 0.23564,0.0324 0.43593,0.14431 0.20324,0.10897 0.35051,0.2798 0.14726,0.16788 0.22974,0.38288 0.0854,0.215 0.0854,0.45357 0,0.23268 -0.0795,0.44179 -0.0795,0.20911 -0.22091,0.37699 -0.14138,0.16788 -0.33578,0.28275 -0.19145,0.11191 -0.4212,0.1502 v 0.1237 q 0,0.15315 -0.0589,0.28863 -0.0589,0.13548 -0.15905,0.23562 -0.10014,0.10014 -0.23563,0.15905 -0.13549,0.0589 -0.28866,0.0589 -0.0825,0 -0.16494,-0.0206 -0.0795,-0.0206 -0.15316,-0.056 v 0.17966 q 0,0.15315 -0.0589,0.28863 -0.056,0.13548 -0.15611,0.23562 -0.10014,0.10014 -0.23563,0.15905 -0.1355,0.0589 -0.28866,0.0589 -0.15316,0 -0.28865,-0.0589 -0.13549,-0.0589 -0.23564,-0.15905 -0.10013,-0.10013 -0.15905,-0.23562 -0.0589,-0.13548 -0.0589,-0.28863 0,-0.0295 0,-0.0589 0.003,-0.0265 0.006,-0.056 -0.12077,-0.0177 -0.21796,-0.0648 v 0.17966 q 0,0.15315 -0.0589,0.28863 -0.056,0.13549 -0.1561,0.23562 -0.10015,0.10014 -0.23564,0.15905 -0.13549,0.0589 -0.28865,0.0589 -0.15316,0 -0.28865,-0.0589 -0.13549,-0.0589 -0.23563,-0.15905 -0.10015,-0.10013 -0.15905,-0.23562 -0.0589,-0.13547 -0.0589,-0.28863 0,-0.056 0.009,-0.11488 -0.13844,-0.0177 -0.25625,-0.0825 -0.11489,-0.0648 -0.20324,-0.16198 -0.0854,-0.0972 -0.13549,-0.2209 -0.0471,-0.12665 -0.0471,-0.26507 0,-0.11488 0.0324,-0.22384 0.0354,-0.11191 0.1031,-0.20617 -0.13255,-0.10602 -0.23858,-0.23562 -0.10309,-0.12959 -0.17378,-0.27685 -0.0707,-0.1502 -0.10898,-0.3122 -0.0383,-0.16494 -0.0383,-0.33282 0,-0.3063 0.11489,-0.57432 0.11782,-0.27097 0.3181,-0.47124 0.20323,-0.20323 0.47127,-0.31809 0.27098,-0.11781 0.57731,-0.11781 0.0501,0 0.0972,0.003 0.0471,0.003 0.0972,0.009 0.11782,-0.24446 0.29749,-0.44179 0.18261,-0.19733 0.40352,-0.33576 0.22385,-0.14137 0.48011,-0.21795 0.25919,-0.0766 0.53017,-0.0766 0.33578,0 0.63915,0.11191 0.30633,0.10898 0.55374,0.30926 0.24742,0.19733 0.4212,0.47124 0.17378,0.27391 0.24742,0.60083 z m -3.76719,2.10586 h 3.5993 q 0.17673,0 0.32989,-0.0648 0.15317,-0.0677 0.26804,-0.18261 0.11488,-0.11487 0.17967,-0.26802 0.0677,-0.15315 0.0677,-0.32987 0,-0.17377 -0.0677,-0.32692 -0.0648,-0.1561 -0.17967,-0.27097 -0.11488,-0.11487 -0.26804,-0.1826 -0.15316,-0.0677 -0.32989,-0.0677 h -0.21206 q 0,-0.30631 -0.11782,-0.57433 -0.11488,-0.27096 -0.3181,-0.47124 -0.2003,-0.20322 -0.47127,-0.31808 -0.26804,-0.11782 -0.57436,-0.11782 -0.26215,0 -0.50072,0.0883 -0.23564,0.0854 -0.43004,0.24152 -0.19145,0.15315 -0.32694,0.36815 -0.13255,0.21206 -0.18851,0.46535 -0.22091,-0.10308 -0.45948,-0.10308 -0.22091,0 -0.41237,0.0825 -0.19145,0.0825 -0.33577,0.22678 -0.14433,0.14431 -0.2268,0.33576 -0.0825,0.19144 -0.0825,0.41234 0,0.21795 0.0825,0.41233 0.0825,0.19145 0.2268,0.33576 0.14431,0.14431 0.33577,0.22679 0.19441,0.0825 0.41237,0.0825 z m 0.6362,1.37543 v -0.5272 l -0.46537,0.2474 q -0.0766,0.0412 -0.12371,0.11488 -0.0471,0.0766 -0.0471,0.16493 0,0.0677 0.0236,0.1237 0.0265,0.0589 0.0677,0.10014 0.0442,0.0442 0.10015,0.0677 0.0589,0.0265 0.12666,0.0265 0.0648,0 0.12076,-0.0265 0.0589,-0.0236 0.1031,-0.0677 0.0442,-0.0442 0.0677,-0.10309 0.0265,-0.056 0.0265,-0.12076 z m 1.69363,0 v -0.5272 l -0.46538,0.2474 q -0.0766,0.0412 -0.1237,0.11488 -0.0471,0.0766 -0.0471,0.16493 0,0.0677 0.0236,0.1237 0.0265,0.0589 0.0677,0.10014 0.0442,0.0442 0.10014,0.0677 0.0589,0.0265 0.12666,0.0265 0.0648,0 0.12077,-0.0265 0.0589,-0.0236 0.10309,-0.0677 0.0442,-0.0442 0.0677,-0.10309 0.0265,-0.056 0.0265,-0.12076 z m -2.64794,-0.5272 q 0.0648,0 0.12371,-0.0236 0.0589,-0.0265 0.10014,-0.0677 0.0442,-0.0442 0.0677,-0.10014 0.0265,-0.0589 0.0265,-0.12665 v -0.31809 q -0.0825,0 -0.16495,-0.009 -0.0795,-0.009 -0.15611,-0.0324 l -0.14432,0.0766 q -0.0766,0.0412 -0.12371,0.12077 -0.0471,0.0766 -0.0471,0.16198 0,0.0648 0.0236,0.1237 0.0265,0.056 0.0707,0.10014 0.0442,0.0442 0.10014,0.0707 0.0589,0.0236 0.12371,0.0236 z m 3.70535,-0.31809 v -0.31808 h -0.39763 l -0.0677,0.0354 q -0.0766,0.0412 -0.1237,0.11781 -0.0471,0.0766 -0.0471,0.16493 0,0.0648 0.0236,0.1237 0.0265,0.056 0.0707,0.10014 0.0442,0.0442 0.10013,0.0707 0.0589,0.0236 0.12371,0.0236 0.0648,0 0.12371,-0.0236 0.0589,-0.0265 0.10014,-0.0677 0.0442,-0.0442 0.0677,-0.10014 0.0265,-0.0589 0.0265,-0.12665 z m -2.01173,0.31809 q 0.0648,0 0.1237,-0.0236 0.0589,-0.0265 0.10015,-0.0677 0.0442,-0.0442 0.0677,-0.10014 0.0265,-0.0589 0.0265,-0.12665 v -0.31809 h -0.39763 l -0.0677,0.0354 q -0.0766,0.0412 -0.12371,0.12077 -0.0471,0.0766 -0.0471,0.16198 0,0.0648 0.0236,0.1237 0.0265,0.056 0.0707,0.10014 0.0442,0.0442 0.10015,0.0707 0.0589,0.0236 0.1237,0.0236 z"
       style="font-size:3.88056px;line-height:100%;font-family:'Segoe UI Emoji';-inkscape-font-specification:'Segoe UI Emoji';letter-spacing:0px;word-spacing:0px;writing-mode:lr-tb;display:inline;stroke-width:0.264581"
       id="path6129" />
    <path
       d="m 120.75057,121.87249 v 4.09558 h -0.41042 q -0.25365,0 -0.49021,0.0656 -0.23371,0.0656 -0.43891,0.1881 -0.20521,0.1197 -0.37337,0.28786 -0.16815,0.16816 -0.2907,0.37336 -0.1197,0.20521 -0.18526,0.43892 -0.0656,0.23656 -0.0656,0.49022 v 0.4104 h -4.09553 v -0.4104 q 0,-0.61278 0.1197,-1.19419 0.12256,-0.58142 0.34771,-1.11439 0.22516,-0.53297 0.54722,-1.00893 0.32491,-0.47597 0.72677,-0.87783 0.40471,-0.40471 0.88068,-0.72677 0.47596,-0.32491 1.00893,-0.55007 0.53297,-0.22516 1.11438,-0.34486 0.58142,-0.12256 1.19419,-0.12256 z m -0.41042,0.41041 q -0.76382,0 -1.47064,0.19951 -0.70397,0.19666 -1.31959,0.55862 -0.61277,0.35911 -1.11724,0.86357 -0.50446,0.50447 -0.86642,1.12009 -0.35912,0.61277 -0.55862,1.31959 -0.19666,0.70682 -0.19666,1.4678 h 0.61277 q 0,-0.67833 0.17671,-1.30535 0.1767,-0.62702 0.49591,-1.17138 0.32206,-0.54722 0.76952,-0.99468 0.45032,-0.45032 0.99469,-0.76953 0.54721,-0.32206 1.17423,-0.49876 0.62702,-0.17671 1.30534,-0.17671 z m 0,1.22839 q -0.59281,0 -1.14288,0.1539 -0.54722,0.15391 -1.02603,0.43607 -0.47882,0.27931 -0.87213,0.67262 -0.39046,0.39046 -0.67262,0.86928 -0.27931,0.47881 -0.43322,1.02888 -0.1539,0.54722 -0.1539,1.14004 h 0.61562 q 0,-0.50732 0.1311,-0.97758 0.13396,-0.47027 0.37336,-0.88068 0.23941,-0.41042 0.57572,-0.74673 0.33631,-0.33631 0.74672,-0.57571 0.41042,-0.23941 0.88068,-0.37052 0.47027,-0.13396 0.97758,-0.13396 z m 0,1.22839 q -0.42466,0 -0.81797,0.11116 -0.39046,0.1083 -0.73247,0.31066 -0.33916,0.19951 -0.62132,0.48167 -0.27931,0.2793 -0.48167,0.62131 -0.19951,0.33917 -0.31066,0.72963 -0.1083,0.39331 -0.1083,0.81798 h 0.61562 q 0,-0.33917 0.0883,-0.65268 0.0883,-0.31351 0.24796,-0.58427 0.1596,-0.27361 0.38476,-0.49876 0.22516,-0.22516 0.49592,-0.38476 0.27361,-0.15961 0.58711,-0.24796 0.31352,-0.0883 0.65267,-0.0883 z"
       style="font-size:3.88056px;line-height:100%;font-family:'Segoe UI Emoji';-inkscape-font-specification:'Segoe UI Emoji';letter-spacing:0px;word-spacing:0px;writing-mode:lr-tb;display:inline;stroke-width:0.264583"
       id="path6131" />
    <path
       d="m 120.11551,142.82749 0.49972,0.44174 q 0.0635,0.0552 0.0994,0.13529 0.0359,0.0773 0.0359,0.16289 0,0.14632 -0.0911,0.25676 -0.0883,0.11044 -0.22916,0.14081 l -0.65432,0.13252 0.20982,0.63224 q 0.0221,0.0662 0.0221,0.12977 0,0.0828 -0.0331,0.15461 -0.0304,0.0718 -0.0856,0.127 -0.0552,0.0552 -0.127,0.0856 -0.0718,0.0331 -0.15461,0.0331 -0.0635,0 -0.12976,-0.0221 l -0.63224,-0.20983 -0.13252,0.65433 q -0.0138,0.0718 -0.0525,0.12977 -0.0359,0.058 -0.0911,0.0994 -0.0524,0.0442 -0.11873,0.0663 -0.0635,0.0249 -0.13529,0.0249 -0.0856,0 -0.16565,-0.0359 -0.0773,-0.0359 -0.13252,-0.0994 l -0.44174,-0.49972 -0.44174,0.49972 q -0.0552,0.0635 -0.13528,0.0994 -0.0773,0.0359 -0.16289,0.0359 -0.14632,0 -0.25676,-0.0911 -0.11043,-0.0883 -0.1408,-0.22916 l -0.13252,-0.65432 -0.63224,0.20982 q -0.0662,0.0221 -0.12977,0.0221 -0.0828,0 -0.15461,-0.0331 -0.0718,-0.0304 -0.12699,-0.0856 -0.0552,-0.0552 -0.0883,-0.127 -0.0304,-0.0718 -0.0304,-0.1546 0,-0.0635 0.0221,-0.12977 l 0.20982,-0.63224 -0.65432,-0.13252 q -0.14082,-0.0304 -0.23192,-0.14081 -0.0883,-0.11044 -0.0883,-0.25677 0,-0.0856 0.0359,-0.16289 0.0359,-0.0801 0.0994,-0.13529 l 0.49972,-0.44174 -0.49972,-0.44174 q -0.0635,-0.0552 -0.0994,-0.13252 -0.0359,-0.0801 -0.0359,-0.16565 0,-0.14633 0.0883,-0.25676 0.0911,-0.11044 0.23192,-0.1408 l 0.65432,-0.13252 -0.20982,-0.63224 q -0.0221,-0.0663 -0.0221,-0.12977 0,-0.0828 0.0304,-0.15461 0.0331,-0.0718 0.0883,-0.127 0.0552,-0.0552 0.12699,-0.0856 0.0718,-0.0331 0.15461,-0.0331 0.0635,0 0.12977,0.0221 l 0.63224,0.20983 0.13252,-0.65433 q 0.0304,-0.14081 0.1408,-0.22915 0.11044,-0.0911 0.25676,-0.0911 0.0856,0 0.16289,0.0359 0.0801,0.0359 0.13528,0.0994 l 0.44174,0.49972 0.44174,-0.49972 q 0.0552,-0.0635 0.13252,-0.0994 0.0801,-0.0359 0.16565,-0.0359 0.0718,0 0.13529,0.0248 0.0663,0.0221 0.11873,0.0663 0.0552,0.0414 0.0911,0.10215 0.0387,0.058 0.0525,0.127 l 0.13252,0.65433 0.63224,-0.20983 q 0.0663,-0.0221 0.12976,-0.0221 0.0828,0 0.15461,0.0331 0.0718,0.0304 0.127,0.0856 0.0552,0.0552 0.0856,0.127 0.0331,0.0718 0.0331,0.15461 0,0.0635 -0.0221,0.12976 l -0.20982,0.63224 0.65432,0.13252 q 0.14082,0.0304 0.22916,0.1408 0.0911,0.11044 0.0911,0.25676 0,0.0856 -0.0359,0.16565 -0.0359,0.0773 -0.0994,0.13253 z m -4.32629,0 q 0,0.24571 0.0635,0.47487 0.0635,0.22915 0.17946,0.42793 0.11872,0.19602 0.28161,0.35892 0.16289,0.16289 0.35891,0.2816 0.19878,0.11595 0.42793,0.17946 0.22916,0.0635 0.47488,0.0635 0.24571,0 0.47487,-0.0635 0.22915,-0.0635 0.42517,-0.17946 0.19878,-0.11872 0.36168,-0.2816 0.16289,-0.1629 0.27884,-0.36168 0.11873,-0.19878 0.18222,-0.42517 0.0635,-0.22916 0.0635,-0.47764 0,-0.24571 -0.0635,-0.4721 -0.0635,-0.22916 -0.18222,-0.42518 -0.11595,-0.19878 -0.27884,-0.36167 -0.1629,-0.16566 -0.36168,-0.28161 -0.19602,-0.11595 -0.42517,-0.17946 -0.22916,-0.0635 -0.47487,-0.0635 -0.24572,0 -0.47488,0.0635 -0.22915,0.0635 -0.42793,0.18222 -0.19602,0.11595 -0.35891,0.27885 -0.16289,0.16289 -0.28161,0.36167 -0.11595,0.19602 -0.17946,0.42518 -0.0635,0.22915 -0.0635,0.47487 z m 0.75924,-1.69794 -1.00772,-0.33683 0.33683,1.00772 q 0.12425,-0.20706 0.29265,-0.37548 0.17117,-0.17117 0.37824,-0.29541 z m 3.06181,-0.33683 -1.00772,0.33683 q 0.20707,0.12425 0.37548,0.29541 0.17117,0.16842 0.29541,0.37548 z m -4.06953,4.06953 1.00772,-0.33683 q -0.20707,-0.12425 -0.37824,-0.29265 -0.16841,-0.17117 -0.29265,-0.37824 z m 3.06181,-0.33683 1.00772,0.33683 -0.33683,-1.00772 q -0.12425,0.20707 -0.29541,0.37824 -0.16841,0.16842 -0.37548,0.29265 z m -3.80448,-0.9525 1.03808,0.21259 q -0.11595,-0.21259 -0.17945,-0.44174 -0.0608,-0.23191 -0.0663,-0.47487 z m 0,-1.49087 0.79237,0.70402 q 0.006,-0.24295 0.0663,-0.47211 0.0635,-0.23191 0.17945,-0.4445 z m 4.51679,1.70346 1.03808,-0.21259 -0.79237,-0.70402 q -0.006,0.24296 -0.069,0.47487 -0.0607,0.22915 -0.17669,0.44174 z m -2.48479,-3.73546 -0.21259,1.03809 q 0.21259,-0.11595 0.44174,-0.1767 0.23192,-0.0635 0.47487,-0.069 z m 1.49087,5.55488 0.21259,-1.03809 q -0.21259,0.11595 -0.4445,0.17945 -0.22915,0.0607 -0.47211,0.0663 z m 2.032,-3.52288 -1.03808,-0.21259 q 0.11595,0.21259 0.17669,0.4445 0.0635,0.22916 0.069,0.47211 z m -2.032,-2.032 -0.70402,0.79237 q 0.24296,0.005 0.47211,0.069 0.23191,0.0607 0.4445,0.17669 z m -1.49087,5.55488 0.70402,-0.79238 q -0.24295,-0.005 -0.47487,-0.0663 -0.22915,-0.0635 -0.44174,-0.17945 z"
       style="font-size:3.88056px;line-height:100%;font-family:'Segoe UI Emoji';-inkscape-font-specification:'Segoe UI Emoji';letter-spacing:0px;word-spacing:0px;writing-mode:lr-tb;display:inline;stroke-width:0.264583"
       id="path6133" />
    <path
       d="m 117.57553,130.76256 q 0.43869,0 0.84267,0.11361 0.40713,0.11361 0.75746,0.32192 0.35347,0.20515 0.64383,0.4955 0.29036,0.29036 0.49551,0.64384 0.2083,0.35033 0.32191,0.75746 0.11362,0.40397 0.11362,0.84267 0,0.43869 -0.11362,0.84582 -0.11361,0.40398 -0.32191,0.75746 -0.20515,0.35033 -0.49551,0.64068 -0.29036,0.29036 -0.64383,0.49551 -0.35033,0.2083 -0.75746,0.32192 -0.40398,0.11361 -0.84267,0.11361 -0.4387,0 -0.84583,-0.11361 -0.40398,-0.11362 -0.75746,-0.32192 -0.35032,-0.20515 -0.64068,-0.49551 -0.29036,-0.29035 -0.49866,-0.64068 -0.20514,-0.35348 -0.31876,-0.75746 -0.11361,-0.40713 -0.11361,-0.84582 0,-0.4387 0.11361,-0.84267 0.11361,-0.40713 0.31876,-0.75746 0.2083,-0.35348 0.49866,-0.64384 0.29036,-0.29035 0.64068,-0.4955 0.35348,-0.2083 0.75746,-0.32192 0.40713,-0.11361 0.84583,-0.11361 z m -2.72369,3.175 q 0,0.37558 0.0978,0.72275 0.0978,0.34716 0.27458,0.65015 0.17674,0.30298 0.42607,0.55231 0.24933,0.24933 0.55231,0.42607 0.30298,0.17674 0.65015,0.27458 0.34717,0.0978 0.72274,0.0978 0.48603,0 0.93419,-0.16728 0.45132,-0.16411 0.82058,-0.47972 l -3.83147,-3.83147 q -0.3156,0.36926 -0.48287,0.82058 -0.16412,0.44816 -0.16412,0.9342 z m 4.80038,1.75478 q 0.31561,-0.37242 0.47972,-0.81742 0.16412,-0.44816 0.16412,-0.93736 0,-0.37557 -0.0978,-0.72274 -0.0978,-0.34716 -0.27458,-0.65015 -0.17674,-0.30298 -0.42607,-0.54915 -0.24617,-0.24933 -0.54915,-0.42607 -0.30299,-0.17674 -0.65015,-0.27458 -0.34717,-0.0978 -0.72274,-0.0978 -0.48919,0 -0.93736,0.16412 -0.445,0.16411 -0.81742,0.47972 z"
       style="font-size:3.88056px;line-height:100%;font-family:'Segoe UI Emoji';-inkscape-font-specification:'Segoe UI Emoji';letter-spacing:0px;word-spacing:0px;writing-mode:lr-tb;display:inline;stroke-width:0.264583"
       id="path6135" />
    <g
       aria-label="×1"
       id="text66"
       style="font-size:6.35px;line-height:100%;font-family:'Sweden Sans';-inkscape-font-specification:'Sweden Sans, Normal';letter-spacing:0px;word-spacing:0px;writing-mode:lr-tb;fill:#cccccc;fill-opacity:1;stroke-width:0.264583">
      <path
         d="m 108.61255,117.42747 -1.0287,-1.02235 1.0287,-1.0287 -0.3556,-0.34925 -1.02235,1.02235 -1.0287,-1.0287 -0.34925,0.3556 1.0287,1.0287 -1.0287,1.02235 0.34925,0.3556 1.0287,-1.0287 1.02235,1.02235 z"
         style="font-size:6.35px;fill:#cccccc;fill-opacity:1;stroke-width:0.264583"
         id="path83" />
      <path
         d="m 111.5145,118.41807 v -0.5207 h -0.8509 v -4.0005 h -0.5842 l -0.81915,0.7366 0.17145,0.50165 0.6477,-0.5461 v 3.30835 h -0.8509 v 0.5207 z"
         style="font-size:6.35px;fill:#cccccc;fill-opacity:1;stroke-width:0.264583"
         id="path85" />
    </g>
    <g
       aria-label="×2"
       id="text70"
       style="font-size:6.35px;line-height:100%;font-family:'Sweden Sans';-inkscape-font-specification:'Sweden Sans, Normal';letter-spacing:0px;word-spacing:0px;writing-mode:lr-tb;fill:#cccccc;fill-opacity:1;stroke-width:0.264583">
      <path
         d="m 108.41253,126.3365 -1.0287,-1.02235 1.0287,-1.0287 -0.3556,-0.34925 -1.02235,1.02235 -1.0287,-1.0287 -0.34925,0.3556 1.0287,1.0287 -1.0287,1.02235 0.34925,0.3556 1.0287,-1.0287 1.02235,1.02235 z"
         style="font-size:6.35px;fill:#cccccc;fill-opacity:1;stroke-width:0.264583"
         id="path88" />
      <path
         d="m 111.71453,127.3271 v -0.6096 h -1.9812 l 1.2192,-1.31445 c 0.33655,-0.3683 0.6604,-0.6985 0.6604,-1.33985 0,-0.7874 -0.4953,-1.2954 -1.28905,-1.2954 -0.81915,0 -1.37795,0.5334 -1.37795,1.4859 h 0.5969 c 0,-0.5842 0.28575,-0.9271 0.78105,-0.9271 0.4699,0 0.69215,0.31115 0.69215,0.762 0,0.33655 -0.127,0.55245 -0.45085,0.9017 l -1.6637,1.77165 v 0.56515 z"
         style="font-size:6.35px;fill:#cccccc;fill-opacity:1;stroke-width:0.264583"
         id="path90" />
    </g>
    <g
       aria-label="×3"
       id="text74"
       style="font-size:6.35px;line-height:100%;font-family:'Sweden Sans';-inkscape-font-specification:'Sweden Sans, Normal';letter-spacing:0px;word-spacing:0px;writing-mode:lr-tb;fill:#cccccc;fill-opacity:1;stroke-width:0.264583">
      <path
         d="m 108.42841,135.20746 -1.0287,-1.02235 1.0287,-1.0287 -0.3556,-0.34925 -1.02235,1.02235 -1.0287,-1.0287 -0.34925,0.3556 1.0287,1.0287 -1.0287,1.02235 0.34925,0.3556 1.0287,-1.0287 1.02235,1.02235 z"
         style="font-size:6.35px;fill:#cccccc;fill-opacity:1;stroke-width:0.264583"
         id="path93" />
      <path
         d="m 108.98086,134.94076 c 0,0.8382 0.5588,1.2954 1.37795,1.2954 0.8128,0 1.33985,-0.4572 1.33985,-1.28905 0,-0.50165 -0.1905,-0.8763 -0.56515,-1.0922 0.3175,-0.1905 0.48895,-0.4826 0.48895,-0.94615 0,-0.8001 -0.50165,-1.27 -1.27,-1.27 -0.79375,0 -1.3208,0.4572 -1.3208,1.2954 h 0.5969 c 0,-0.4699 0.254,-0.7366 0.7239,-0.7366 0.43815,0 0.6731,0.27305 0.6731,0.7239 0,0.45085 -0.23495,0.6858 -0.6731,0.6858 h -0.1905 v 0.5461 h 0.1905 c 0.4953,0 0.7493,0.29845 0.7493,0.78105 0,0.47625 -0.24765,0.74295 -0.74295,0.74295 -0.4953,0 -0.78105,-0.2667 -0.78105,-0.7366 z"
         style="font-size:6.35px;fill:#cccccc;fill-opacity:1;stroke-width:0.264583"
         id="path95" />
    </g>
    <g
       aria-label="×4"
       id="text78"
       style="font-size:6.35px;line-height:100%;font-family:'Sweden Sans';-inkscape-font-specification:'Sweden Sans, Normal';letter-spacing:0px;word-spacing:0px;writing-mode:lr-tb;fill:#cccccc;fill-opacity:1;stroke-width:0.264583">
      <path
         d="m 108.37126,144.09747 -1.0287,-1.02235 1.0287,-1.0287 -0.3556,-0.34925 -1.02235,1.02235 -1.0287,-1.0287 -0.34925,0.3556 1.0287,1.0287 -1.0287,1.02235 0.34925,0.3556 1.0287,-1.0287 1.02235,1.02235 z"
         style="font-size:6.35px;fill:#cccccc;fill-opacity:1;stroke-width:0.264583"
         id="path98" />
      <path
         d="m 111.25416,145.08807 v -0.95885 h 0.50165 v -0.5207 h -0.50165 v -3.04165 h -0.6477 l -1.778,3.1369 v 0.42545 h 1.8415 v 0.95885 z m -0.5842,-1.47955 h -1.1557 l 1.1557,-2.02565 z"
         style="font-size:6.35px;fill:#cccccc;fill-opacity:1;stroke-width:0.264583"
         id="path100" />
    </g>
  </g>
</svg>
