<?xml version="1.0" encoding="UTF-8" standalone="no"?>
<!-- Created with Inkscape (http://www.inkscape.org/) -->

<svg
   xmlns:dc="http://purl.org/dc/elements/1.1/"
   xmlns:cc="http://creativecommons.org/ns#"
   xmlns:rdf="http://www.w3.org/1999/02/22-rdf-syntax-ns#"
   xmlns:svg="http://www.w3.org/2000/svg"
   xmlns="http://www.w3.org/2000/svg"
   xmlns:sodipodi="http://sodipodi.sourceforge.net/DTD/sodipodi-0.dtd"
   xmlns:inkscape="http://www.inkscape.org/namespaces/inkscape"
   width="30.760202mm"
   height="49.601864mm"
   viewBox="0 0 30.760202 49.601864"
   version="1.1"
   id="svg1724"
   inkscape:version="0.92.5 (2060ec1f9f, 2020-04-08)"
   sodipodi:docname="vira-phases.svg">
  <defs
     id="defs1718" />
  <sodipodi:namedview
     id="base"
     pagecolor="#ffffff"
     bordercolor="#666666"
     borderopacity="1.0"
     inkscape:pageopacity="0.0"
     inkscape:pageshadow="2"
     inkscape:zoom="1.7513672"
     inkscape:cx="208.03918"
     inkscape:cy="-152.49147"
     inkscape:document-units="mm"
     inkscape:current-layer="layer1"
     showgrid="false"
     fit-margin-top="0"
     fit-margin-left="0"
     fit-margin-right="0"
     fit-margin-bottom="0"
     inkscape:window-width="2880"
     inkscape:window-height="1526"
     inkscape:window-x="2869"
     inkscape:window-y="-11"
     inkscape:window-maximized="1" />
  <metadata
     id="metadata1721">
    <rdf:RDF>
      <cc:Work
         rdf:about="">
        <dc:format>image/svg+xml</dc:format>
        <dc:type
           rdf:resource="http://purl.org/dc/dcmitype/StillImage" />
        <dc:title></dc:title>
      </cc:Work>
    </rdf:RDF>
  </metadata>
  <g
     inkscape:label="Layer 1"
     inkscape:groupmode="layer"
     id="layer1"
     transform="translate(0.42392809,-58.884767)">
    <g
       aria-label="Phases 1. Deal 2. Auction 3. Upgrade 4. Buy 5. Rebuy? 6. Surrender? 7. Opponents buy 8. Play 9. Payment   "
       transform="matrix(0.99993992,0,0,1.0000601,-373.87165,46.658915)"
       style="font-size:4.2330699px;line-height:120.00000477%;font-family:'Sweden Sans';-inkscape-font-specification:'Sweden Sans, Normal';letter-spacing:0px;word-spacing:0px;writing-mode:lr-tb;display:inline;stroke-width:0.26458299"
       id="text2134">
      <path
         inkscape:connector-curvature="0"
         d="m 374.21942,15.239063 v -1.151395 h 0.4614 c 0.6392,0 0.99477,-0.351345 0.99477,-0.918576 0,-0.571464 -0.35557,-0.943975 -0.99477,-0.943975 h -1.0244 v 3.013946 z m 0,-1.663596 v -0.838148 h 0.43177 c 0.28362,0 0.45294,0.148157 0.45294,0.431773 0,0.27515 -0.16932,0.406375 -0.45294,0.406375 z"
         style="font-weight:bold;line-height:120.00000477%;stroke-width:0.26458299"
         id="path945" />
      <path
         inkscape:connector-curvature="0"
         d="m 377.82712,15.239063 v -1.265688 c 0,-0.673058 -0.42754,-0.905877 -0.77465,-0.905877 -0.1397,0 -0.26245,0.0381 -0.40638,0.139692 v -0.982073 h -0.54183 v 3.013946 h 0.54183 V 13.95221 c 0.0466,-0.300548 0.21165,-0.389442 0.34711,-0.389442 0.12699,0 0.29208,0.0762 0.29208,0.444472 v 1.231823 z"
         style="font-weight:bold;line-height:120.00000477%;stroke-width:0.26458299"
         id="path947" />
      <path
         inkscape:connector-curvature="0"
         d="m 380.02011,15.239063 v -1.405379 c 0,-0.431773 -0.30901,-0.766186 -0.83815,-0.766186 -0.40637,0 -0.75348,0.237052 -0.85508,0.567232 l 0.44448,0.126992 c 0.10159,-0.135458 0.24551,-0.198954 0.39367,-0.198954 0.20319,0 0.31325,0.110059 0.31325,0.309014 v 0.0254 l -0.43601,0.02963 c -0.50797,0.03386 -0.79158,0.249751 -0.79158,0.677291 0,0.465637 0.33441,0.660359 0.74079,0.660359 0.18625,0 0.35134,-0.05503 0.50373,-0.173556 l 0.008,0.148157 z m -0.54183,-0.630727 c -0.13969,0.148157 -0.29632,0.160857 -0.41484,0.160857 -0.23282,0 -0.26668,-0.08889 -0.26668,-0.173556 0,-0.139692 0.0762,-0.228586 0.25398,-0.237052 l 0.42754,-0.0254 z"
         style="font-weight:bold;line-height:120.00000477%;stroke-width:0.26458299"
         id="path949" />
      <path
         inkscape:connector-curvature="0"
         d="m 382.05926,13.685527 c -0.11006,-0.410608 -0.38521,-0.618029 -0.77042,-0.618029 -0.43177,0 -0.76195,0.258218 -0.76195,0.64766 0,0.380976 0.31325,0.512202 0.57993,0.613795 l 0.15662,0.05926 c 0.21166,0.08043 0.29632,0.122759 0.29632,0.215887 0,0.11006 -0.12276,0.16509 -0.27092,0.16509 -0.16509,0 -0.30054,-0.06773 -0.39791,-0.262451 l -0.4741,0.122759 c 0.11429,0.406375 0.39368,0.634961 0.85931,0.634961 0.45718,0 0.84238,-0.224353 0.84238,-0.673058 0,-0.372511 -0.25821,-0.529134 -0.58416,-0.64766 l -0.13969,-0.0508 c -0.22859,-0.08043 -0.32171,-0.114293 -0.32171,-0.190488 0,-0.08043 0.0974,-0.139691 0.21588,-0.139691 0.127,0 0.22012,0.07196 0.29632,0.245518 z"
         style="font-weight:bold;line-height:120.00000477%;stroke-width:0.26458299"
         id="path951" />
      <path
         inkscape:connector-curvature="0"
         d="m 384.38943,14.350119 v -0.182022 c 0,-0.808517 -0.49103,-1.100599 -0.96937,-1.100599 -0.47834,0 -0.96937,0.292082 -0.96937,1.104832 0,0.80005 0.47833,1.092132 0.99054,1.092132 0.4233,0 0.78311,-0.224353 0.89741,-0.634961 l -0.47411,-0.122759 c -0.11006,0.182022 -0.27091,0.262451 -0.436,0.262451 -0.17356,0 -0.37251,-0.06773 -0.41908,-0.419074 z m -1.36728,-0.431774 c 0.0677,-0.283615 0.24129,-0.355577 0.39791,-0.355577 0.15239,0 0.32595,0.0635 0.38944,0.355577 z"
         style="font-weight:bold;line-height:120.00000477%;stroke-width:0.26458299"
         id="path953" />
      <path
         inkscape:connector-curvature="0"
         d="m 386.33367,13.685527 c -0.11006,-0.410608 -0.38521,-0.618029 -0.77042,-0.618029 -0.43177,0 -0.76195,0.258218 -0.76195,0.64766 0,0.380976 0.31325,0.512202 0.57993,0.613795 l 0.15662,0.05926 c 0.21166,0.08043 0.29632,0.122759 0.29632,0.215887 0,0.11006 -0.12276,0.16509 -0.27092,0.16509 -0.16509,0 -0.30055,-0.06773 -0.39791,-0.262451 l -0.4741,0.122759 c 0.11429,0.406375 0.39367,0.634961 0.85931,0.634961 0.45717,0 0.84238,-0.224353 0.84238,-0.673058 0,-0.372511 -0.25821,-0.529134 -0.58416,-0.64766 l -0.13969,-0.0508 c -0.22859,-0.08043 -0.32172,-0.114293 -0.32172,-0.190488 0,-0.08043 0.0974,-0.139691 0.21589,-0.139691 0.12699,0 0.22012,0.07196 0.29632,0.245518 z"
         style="font-weight:bold;line-height:120.00000477%;stroke-width:0.26458299"
         id="path955" />
      <path
         inkscape:connector-curvature="0"
         d="m 375.13799,20.318748 v -0.347112 h -0.56723 v -2.666834 h -0.38944 l -0.54607,0.491036 0.1143,0.334412 0.43177,-0.364044 v 2.20543 h -0.56723 v 0.347112 z"
         style="line-height:120.00000477%;stroke-width:0.26458299"
         id="path957" />
      <path
         inkscape:connector-curvature="0"
         d="m 376.1331,20.073229 c 0,-0.143924 -0.1143,-0.258217 -0.25822,-0.258217 -0.14393,0 -0.25399,0.114293 -0.25399,0.258217 0,0.143925 0.11006,0.253985 0.25399,0.253985 0.14392,0 0.25822,-0.11006 0.25822,-0.253985 z"
         style="line-height:120.00000477%;stroke-width:0.26458299"
         id="path959" />
      <path
         inkscape:connector-curvature="0"
         d="m 378.65601,20.318748 c 0.5376,0 1.12176,-0.410608 1.12176,-1.50274 0,-1.109065 -0.60533,-1.511206 -1.16409,-1.511206 h -0.91435 v 3.013946 z m -0.56724,-0.372511 v -2.268925 h 0.48257 c 0.35982,0 0.80852,0.198954 0.80852,1.147162 0,0.918576 -0.42331,1.121763 -0.76618,1.121763 z"
         style="line-height:120.00000477%;stroke-width:0.26458299"
         id="path961" />
      <path
         inkscape:connector-curvature="0"
         d="m 382.02368,19.357841 v -0.11006 c 0,-0.808517 -0.47834,-1.100598 -0.94398,-1.100598 -0.46563,0 -0.94397,0.292081 -0.94397,1.104831 0,0.80005 0.46564,1.092132 0.96937,1.092132 0.41061,0 0.74925,-0.190488 0.85085,-0.541833 l -0.33865,-0.08889 c -0.11006,0.186255 -0.30478,0.266683 -0.5249,0.266683 -0.24975,0 -0.52913,-0.105827 -0.563,-0.622261 z m -1.49004,-0.296315 c 0.0593,-0.452939 0.32171,-0.550299 0.54606,-0.550299 0.22012,0 0.48681,0.09736 0.54184,0.550299 z"
         style="line-height:120.00000477%;stroke-width:0.26458299"
         id="path963" />
      <path
         inkscape:connector-curvature="0"
         d="M 384.0699,20.318748 V 18.88797 c 0,-0.419074 -0.29631,-0.740787 -0.80005,-0.740787 -0.39367,0 -0.71539,0.194721 -0.80005,0.46987 l 0.31325,0.0889 c 0.10159,-0.131225 0.27515,-0.194721 0.46564,-0.194721 0.28785,0 0.44024,0.148157 0.44024,0.419074 v 0.105826 l -0.56723,0.03386 c -0.48257,0.02963 -0.76196,0.241285 -0.76196,0.64766 0,0.444472 0.33865,0.626494 0.74926,0.626494 0.22435,0 0.42754,-0.05503 0.59263,-0.182022 l 0.008,0.156624 z m -0.38097,-0.584164 c -0.17356,0.215886 -0.38944,0.245518 -0.5503,0.245518 -0.33865,0 -0.38944,-0.135458 -0.38944,-0.270917 0,-0.203187 0.11006,-0.321713 0.37251,-0.338645 l 0.56723,-0.03386 z"
         style="line-height:120.00000477%;stroke-width:0.26458299"
         id="path965" />
      <path
         inkscape:connector-curvature="0"
         d="m 385.70486,20.318748 v -0.347112 h -0.44447 v -2.666834 h -0.82545 v 0.347111 h 0.44447 v 2.319723 h -0.44447 v 0.347112 z"
         style="line-height:120.00000477%;stroke-width:0.26458299"
         id="path967" />
      <path
         inkscape:connector-curvature="0"
         d="m 375.40468,25.398432 v -0.406375 h -1.32072 l 0.81275,-0.876245 c 0.22435,-0.245518 0.44024,-0.465638 0.44024,-0.893178 0,-0.524901 -0.33018,-0.863546 -0.85931,-0.863546 -0.54607,0 -0.91858,0.355577 -0.91858,0.990538 h 0.39791 c 0,-0.389442 0.19049,-0.618028 0.52067,-0.618028 0.31324,0 0.4614,0.20742 0.4614,0.507968 0,0.224353 -0.0847,0.368277 -0.30055,0.601096 l -1.10906,1.181027 v 0.376743 z"
         style="line-height:120.00000477%;stroke-width:0.26458299"
         id="path969" />
      <path
         inkscape:connector-curvature="0"
         d="m 376.33979,25.152914 c 0,-0.143925 -0.11429,-0.258218 -0.25822,-0.258218 -0.14392,0 -0.25398,0.114293 -0.25398,0.258218 0,0.143924 0.11006,0.253984 0.25398,0.253984 0.14393,0 0.25822,-0.11006 0.25822,-0.253984 z"
         style="line-height:120.00000477%;stroke-width:0.26458299"
         id="path971" />
      <path
         inkscape:connector-curvature="0"
         d="m 380.06489,25.398432 -0.99054,-3.013946 h -0.42331 l -0.99053,3.013946 h 0.40214 l 0.24975,-0.770419 h 1.1006 l 0.24975,0.770419 z m -0.77465,-1.142929 h -0.85931 l 0.43177,-1.320718 z"
         style="line-height:120.00000477%;stroke-width:0.26458299"
         id="path973" />
      <path
         inkscape:connector-curvature="0"
         d="m 382.05132,25.398432 v -2.146167 h -0.38097 v 1.312252 c -0.055,0.410608 -0.31325,0.495269 -0.50374,0.495269 -0.19472,0 -0.43177,-0.08466 -0.43177,-0.562998 v -1.244523 h -0.38098 v 1.282621 c 0,0.660358 0.39791,0.888944 0.76196,0.888944 0.20742,0 0.40214,-0.07196 0.56299,-0.215886 l 0.0127,0.190488 z"
         style="line-height:120.00000477%;stroke-width:0.26458299"
         id="path975" />
      <path
         inkscape:connector-curvature="0"
         d="m 383.8724,24.793103 c -0.0931,0.186255 -0.24975,0.266683 -0.45293,0.266683 -0.24976,0 -0.55454,-0.122759 -0.55454,-0.732321 0,-0.613795 0.30478,-0.736554 0.55877,-0.736554 0.19895,0 0.35558,0.0762 0.4487,0.249751 l 0.33865,-0.08889 c -0.0974,-0.347112 -0.39791,-0.524901 -0.77465,-0.524901 -0.4868,0 -0.96091,0.292082 -0.96091,1.100598 0,0.804283 0.46987,1.096365 0.95667,1.096365 0.40215,0 0.68576,-0.198954 0.77889,-0.541833 z"
         style="line-height:120.00000477%;stroke-width:0.26458299"
         id="path977" />
      <path
         inkscape:connector-curvature="0"
         d="m 385.61438,24.987824 c -0.12699,0.04233 -0.23705,0.07196 -0.32171,0.07196 -0.17779,0 -0.22859,-0.122759 -0.22859,-0.355578 v -1.104831 h 0.53337 v -0.347112 h -0.53337 v -0.651892 h -0.38098 v 0.651892 h -0.23705 v 0.347112 h 0.23705 v 1.147162 c 0,0.380976 0.15239,0.677291 0.57993,0.677291 0.14393,0 0.25822,-0.03386 0.37675,-0.105827 z"
         style="line-height:120.00000477%;stroke-width:0.26458299"
         id="path979" />
      <path
         inkscape:connector-curvature="0"
         d="M 387.26746,25.398432 V 25.05132 h -0.44447 v -1.799055 h -0.82545 v 0.347112 h 0.44447 v 1.451943 h -0.44447 v 0.347112 z m -0.36828,-2.768428 c 0,-0.148157 -0.12276,-0.270916 -0.27091,-0.270916 -0.14816,0 -0.26669,0.122759 -0.26669,0.270916 0,0.148158 0.11853,0.266683 0.26669,0.266683 0.14815,0 0.27091,-0.118525 0.27091,-0.266683 z"
         style="line-height:120.00000477%;stroke-width:0.26458299"
         id="path981" />
      <path
         inkscape:connector-curvature="0"
         d="m 388.41317,25.42383 c 0.4614,0 0.93974,-0.292082 0.93974,-1.096365 0,-0.808516 -0.47834,-1.100598 -0.93974,-1.100598 -0.46564,0 -0.94398,0.292082 -0.94398,1.100598 0,0.804283 0.47834,1.096365 0.94398,1.096365 z m 0,-0.364044 c -0.24976,0 -0.55454,-0.122759 -0.55454,-0.732321 0,-0.613795 0.30478,-0.736554 0.55454,-0.736554 0.25398,0 0.55029,0.122759 0.55029,0.736554 0,0.609562 -0.29631,0.732321 -0.55029,0.732321 z"
         style="line-height:120.00000477%;stroke-width:0.26458299"
         id="path983" />
      <path
         inkscape:connector-curvature="0"
         d="m 391.43419,25.398432 v -1.28262 c 0,-0.660359 -0.39791,-0.888945 -0.75772,-0.888945 -0.19896,0 -0.38098,0.07196 -0.52913,0.211653 l -0.008,-0.186255 h -0.35981 v 2.146167 h 0.38097 V 24.08618 c 0.0508,-0.410608 0.28362,-0.495269 0.46988,-0.495269 0.18625,0 0.4233,0.08889 0.4233,0.562998 v 1.244523 z"
         style="line-height:120.00000477%;stroke-width:0.26458299"
         id="path985" />
      <path
         inkscape:connector-curvature="0"
         d="m 373.57176,29.639968 c 0,0.558765 0.37251,0.863546 0.91857,0.863546 0.54184,0 0.89318,-0.304781 0.89318,-0.859313 0,-0.334412 -0.12699,-0.584163 -0.37674,-0.728088 0.21165,-0.126992 0.32595,-0.321713 0.32595,-0.630727 0,-0.533367 -0.33442,-0.846614 -0.84662,-0.846614 -0.52913,0 -0.88048,0.304781 -0.88048,0.863546 h 0.39791 c 0,-0.313247 0.16932,-0.491036 0.48257,-0.491036 0.29208,0 0.44871,0.182022 0.44871,0.48257 0,0.300548 -0.15663,0.457172 -0.44871,0.457172 h -0.12699 v 0.364044 h 0.12699 c 0.33018,0 0.4995,0.198954 0.4995,0.520667 0,0.31748 -0.16509,0.495269 -0.49527,0.495269 -0.33018,0 -0.52066,-0.177789 -0.52066,-0.491036 z"
         style="line-height:120.00000477%;stroke-width:0.26458299"
         id="path987" />
      <path
         inkscape:connector-curvature="0"
         d="m 376.27365,30.232598 c 0,-0.143924 -0.1143,-0.258217 -0.25822,-0.258217 -0.14392,0 -0.25398,0.114293 -0.25398,0.258217 0,0.143924 0.11006,0.253984 0.25398,0.253984 0.14392,0 0.25822,-0.11006 0.25822,-0.253984 z"
         style="line-height:120.00000477%;stroke-width:0.26458299"
         id="path989" />
      <path
         inkscape:connector-curvature="0"
         d="m 379.46115,29.525675 c 0,0.376744 -0.19896,0.605329 -0.6138,0.605329 -0.41484,0 -0.61802,-0.228585 -0.61802,-0.605329 V 27.46417 h -0.38945 v 2.091137 c 0,0.609562 0.39791,0.948207 1.00747,0.948207 0.60957,0 1.00324,-0.338645 1.00324,-0.948207 V 27.46417 h -0.38944 z"
         style="line-height:120.00000477%;stroke-width:0.26458299"
         id="path991" />
      <path
         inkscape:connector-curvature="0"
         d="m 380.76791,31.345895 v -1.066733 c 0.15239,0.148157 0.34711,0.224352 0.57146,0.224352 0.43601,0 0.92281,-0.292081 0.92281,-1.096365 0,-0.808516 -0.4868,-1.100598 -0.92281,-1.100598 -0.22435,0 -0.4233,0.0762 -0.57993,0.237052 l -0.0127,-0.211653 h -0.35982 v 3.013945 z m 0,-2.1377 c 0.0593,-0.444472 0.33441,-0.5376 0.55453,-0.5376 0.25399,0 0.5503,0.122759 0.5503,0.732321 0,0.613795 -0.29631,0.736554 -0.54183,0.736554 -0.24552,0 -0.50374,-0.122759 -0.563,-0.626494 z"
         style="line-height:120.00000477%;stroke-width:0.26458299"
         id="path993" />
      <path
         inkscape:connector-curvature="0"
         d="m 384.09378,30.482349 c 0,0.321713 -0.18202,0.524901 -0.53337,0.524901 -0.22012,0 -0.41484,-0.08043 -0.5249,-0.266684 l -0.33864,0.08889 c 0.0931,0.325946 0.41061,0.541833 0.84661,0.541833 0.57993,0 0.93128,-0.376743 0.93128,-0.888945 V 28.33195 h -0.35981 l -0.0127,0.20742 c -0.15663,-0.15239 -0.35558,-0.232819 -0.57993,-0.232819 -0.43601,0 -0.92281,0.292082 -0.92281,1.096365 0,0.808517 0.4868,1.100598 0.92281,1.100598 0.22012,0 0.41484,-0.07196 0.57146,-0.228585 z m 0,-0.880478 c -0.0593,0.444472 -0.33441,0.537599 -0.55453,0.537599 -0.25399,0 -0.5503,-0.122759 -0.5503,-0.732321 0,-0.613795 0.29631,-0.736554 0.54183,-0.736554 0.24552,0 0.50374,0.122759 0.563,0.626495 z"
         style="line-height:120.00000477%;stroke-width:0.26458299"
         id="path995" />
      <path
         inkscape:connector-curvature="0"
         d="m 386.12976,28.315017 c -0.0508,-0.0042 -0.1143,-0.0085 -0.16509,-0.0085 -0.21589,0 -0.40638,0.101594 -0.55877,0.31748 l -0.0127,-0.292081 h -0.35981 v 2.146166 h 0.38098 V 29.27589 c 0.055,-0.461404 0.30054,-0.554532 0.4995,-0.554532 0.0677,0 0.12699,0.0085 0.17355,0.0254 z"
         style="line-height:120.00000477%;stroke-width:0.26458299"
         id="path997" />
      <path
         inkscape:connector-curvature="0"
         d="m 387.99707,30.478116 v -1.430778 c 0,-0.419074 -0.29632,-0.740787 -0.80005,-0.740787 -0.39368,0 -0.71539,0.194721 -0.80005,0.469871 l 0.31324,0.08889 c 0.1016,-0.131225 0.27515,-0.194721 0.46564,-0.194721 0.28785,0 0.44024,0.148158 0.44024,0.419074 v 0.105827 l -0.56723,0.03386 c -0.48257,0.02963 -0.76195,0.241285 -0.76195,0.64766 0,0.444472 0.33864,0.626494 0.74925,0.626494 0.22435,0 0.42754,-0.05503 0.59263,-0.182022 l 0.008,0.156624 z m -0.38098,-0.584164 c -0.17355,0.215887 -0.38944,0.245518 -0.5503,0.245518 -0.33864,0 -0.38944,-0.135458 -0.38944,-0.270916 0,-0.203187 0.11006,-0.321713 0.37251,-0.338646 l 0.56723,-0.03386 z"
         style="line-height:120.00000477%;stroke-width:0.26458299"
         id="path999" />
      <path
         inkscape:connector-curvature="0"
         d="M 390.27043,30.478116 V 27.46417 h -0.38098 v 1.066734 c -0.15662,-0.148158 -0.35135,-0.224353 -0.57147,-0.224353 -0.436,0 -0.9228,0.292082 -0.9228,1.096365 0,0.808517 0.4868,1.100598 0.9228,1.100598 0.22436,0 0.41908,-0.07619 0.57994,-0.237051 l 0.0127,0.211653 z m -0.38098,-0.876245 c -0.0593,0.444472 -0.33441,0.537599 -0.55453,0.537599 -0.25399,0 -0.5503,-0.122759 -0.5503,-0.736554 0,-0.609562 0.29631,-0.732321 0.54183,-0.732321 0.24552,0 0.50374,0.122759 0.563,0.626495 z"
         style="line-height:120.00000477%;stroke-width:0.26458299"
         id="path1001" />
      <path
         inkscape:connector-curvature="0"
         d="m 392.58155,29.517209 v -0.11006 c 0,-0.808516 -0.47834,-1.100598 -0.94398,-1.100598 -0.46563,0 -0.94397,0.292082 -0.94397,1.104831 0,0.800051 0.46564,1.092132 0.96937,1.092132 0.41061,0 0.74926,-0.190488 0.85085,-0.541832 l -0.33865,-0.0889 c -0.11006,0.186255 -0.30478,0.266683 -0.5249,0.266683 -0.24975,0 -0.52913,-0.105826 -0.563,-0.622261 z m -1.49004,-0.296315 c 0.0593,-0.452938 0.32171,-0.550299 0.54606,-0.550299 0.22012,0 0.48681,0.09736 0.54184,0.550299 z"
         style="line-height:120.00000477%;stroke-width:0.26458299"
         id="path1003" />
      <path
         inkscape:connector-curvature="0"
         d="m 375.12529,35.5578 v -0.639193 h 0.33442 v -0.347112 h -0.33442 v -2.02764 h -0.43177 l -1.18526,2.091136 v 0.283616 h 1.22759 V 35.5578 Z m -0.38944,-0.986305 h -0.77042 l 0.77042,-1.350349 z"
         style="line-height:120.00000477%;stroke-width:0.26458299"
         id="path1005" />
      <path
         inkscape:connector-curvature="0"
         d="m 376.36459,35.312282 c 0,-0.143924 -0.11429,-0.258217 -0.25822,-0.258217 -0.14392,0 -0.25398,0.114293 -0.25398,0.258217 0,0.143925 0.11006,0.253984 0.25398,0.253984 0.14393,0 0.25822,-0.110059 0.25822,-0.253984 z"
         style="line-height:120.00000477%;stroke-width:0.26458299"
         id="path1007" />
      <path
         inkscape:connector-curvature="0"
         d="m 378.9129,35.5578 c 0.60956,0 0.94821,-0.334412 0.94821,-0.846614 0,-0.325946 -0.13546,-0.567231 -0.38944,-0.702689 0.19895,-0.135459 0.30478,-0.342879 0.30478,-0.622262 0,-0.503735 -0.33865,-0.84238 -0.94821,-0.84238 h -0.89741 V 35.5578 Z m -0.59263,-0.37251 v -0.960907 h 0.563 c 0.35981,0 0.57993,0.160857 0.57993,0.478337 0,0.31748 -0.22012,0.48257 -0.57993,0.48257 z m 0,-1.333417 v -0.935508 h 0.47834 c 0.35981,0 0.57993,0.169322 0.57993,0.474104 0,0.309014 -0.22012,0.461404 -0.57993,0.461404 z"
         style="line-height:120.00000477%;stroke-width:0.26458299"
         id="path1009" />
      <path
         inkscape:connector-curvature="0"
         d="m 382.00999,35.5578 v -2.146166 h -0.38098 v 1.312252 c -0.055,0.410607 -0.31325,0.495269 -0.50374,0.495269 -0.19472,0 -0.43177,-0.08466 -0.43177,-0.562999 v -1.244522 h -0.38097 v 1.28262 c 0,0.660359 0.3979,0.888945 0.76195,0.888945 0.20742,0 0.40214,-0.07196 0.563,-0.215887 l 0.0127,0.190488 z"
         style="line-height:120.00000477%;stroke-width:0.26458299"
         id="path1011" />
      <path
         inkscape:connector-curvature="0"
         d="m 383.11144,36.42558 1.09637,-3.013946 h -0.41484 l -0.54183,1.532371 -0.5376,-1.532371 h -0.41485 l 0.75772,2.086903 -0.32594,0.927043 z"
         style="line-height:120.00000477%;stroke-width:0.26458299"
         id="path1013" />
      <path
         inkscape:connector-curvature="0"
         d="m 373.57176,39.883998 c 0,0.507968 0.37674,0.778885 0.90164,0.778885 0.62226,0 0.99477,-0.376743 0.99477,-1.049801 0,-0.673058 -0.36827,-1.045569 -0.93127,-1.045569 -0.18202,0 -0.33865,0.0381 -0.46564,0.105827 l 0.0847,-0.643427 h 1.25722 v -0.406374 h -1.6001 l -0.20318,1.591634 h 0.39367 c 0.0677,-0.173556 0.25822,-0.275149 0.50797,-0.275149 0.38521,0 0.55876,0.241285 0.55876,0.664591 0,0.436007 -0.18202,0.685758 -0.59262,0.685758 -0.31325,0 -0.50797,-0.143925 -0.50797,-0.406375 z"
         style="line-height:120.00000477%;stroke-width:0.26458299"
         id="path1015" />
      <path
         inkscape:connector-curvature="0"
         d="m 376.39766,40.391966 c 0,-0.143924 -0.11429,-0.258217 -0.25821,-0.258217 -0.14393,0 -0.25399,0.114293 -0.25399,0.258217 0,0.143925 0.11006,0.253985 0.25399,0.253985 0.14392,0 0.25821,-0.11006 0.25821,-0.253985 z"
         style="line-height:120.00000477%;stroke-width:0.26458299"
         id="path1017" />
      <path
         inkscape:connector-curvature="0"
         d="m 379.97037,40.637485 -0.84661,-1.308019 c 0.4995,-0.05926 0.77042,-0.368277 0.77042,-0.838148 0,-0.524901 -0.33865,-0.867779 -0.94821,-0.867779 h -0.98207 v 3.013946 h 0.38944 v -1.299553 h 0.31748 l 0.85931,1.299553 z m -1.61703,-1.672063 v -0.969373 h 0.563 c 0.35981,0 0.57993,0.173556 0.57993,0.495269 0,0.321713 -0.22012,0.474104 -0.57993,0.474104 z"
         style="line-height:120.00000477%;stroke-width:0.26458299"
         id="path1019" />
      <path
         inkscape:connector-curvature="0"
         d="m 382.06502,39.676578 v -0.11006 c 0,-0.808516 -0.47834,-1.100598 -0.94398,-1.100598 -0.46564,0 -0.94397,0.292082 -0.94397,1.104831 0,0.80005 0.46563,1.092132 0.96937,1.092132 0.41061,0 0.74925,-0.190488 0.85085,-0.541833 l -0.33865,-0.08889 c -0.11006,0.186255 -0.30478,0.266683 -0.5249,0.266683 -0.24975,0 -0.52913,-0.105827 -0.563,-0.622261 z m -1.49004,-0.296315 c 0.0593,-0.452939 0.32171,-0.550299 0.54606,-0.550299 0.22012,0 0.4868,0.09736 0.54183,0.550299 z"
         style="line-height:120.00000477%;stroke-width:0.26458299"
         id="path1021" />
      <path
         inkscape:connector-curvature="0"
         d="m 382.84675,40.637485 0.0127,-0.207421 c 0.15663,0.156624 0.35135,0.232819 0.5757,0.232819 0.44024,0 0.92704,-0.292082 0.92704,-1.096365 0,-0.808516 -0.4868,-1.100598 -0.9228,-1.100598 -0.22436,0 -0.41485,0.0762 -0.57147,0.228585 v -1.070966 h -0.38098 v 3.013946 z m 0.0212,-1.269921 c 0.0593,-0.444473 0.33441,-0.5376 0.55453,-0.5376 0.25399,0 0.5503,0.122759 0.5503,0.732321 0,0.613795 -0.29631,0.736554 -0.54183,0.736554 -0.24552,0 -0.50374,-0.122759 -0.563,-0.626494 z"
         style="line-height:120.00000477%;stroke-width:0.26458299"
         id="path1023" />
      <path
         inkscape:connector-curvature="0"
         d="m 386.48282,40.637485 v -2.146167 h -0.38098 v 1.312252 c -0.055,0.410608 -0.31324,0.495269 -0.50373,0.495269 -0.19472,0 -0.43178,-0.08466 -0.43178,-0.562998 v -1.244523 h -0.38097 v 1.28262 c 0,0.660359 0.39791,0.888945 0.76195,0.888945 0.20742,0 0.40214,-0.07196 0.563,-0.215887 l 0.0127,0.190489 z"
         style="line-height:120.00000477%;stroke-width:0.26458299"
         id="path1025" />
      <path
         inkscape:connector-curvature="0"
         d="m 387.58428,41.505264 1.09636,-3.013946 h -0.41484 l -0.54183,1.532371 -0.5376,-1.532371 h -0.41484 l 0.75772,2.086904 -0.32595,0.927042 z"
         style="line-height:120.00000477%;stroke-width:0.26458299"
         id="path1027" />
      <path
         inkscape:connector-curvature="0"
         d="m 389.84408,39.854367 v -0.152391 c 0,-0.09313 0.008,-0.177789 0.0677,-0.249751 l 0.15239,-0.182022 c 0.22435,-0.258217 0.48257,-0.512201 0.48257,-0.905877 0,-0.457172 -0.33865,-0.766186 -0.84662,-0.766186 -0.51643,0 -0.84661,0.321714 -0.84661,0.905877 h 0.39791 c 0,-0.338645 0.15662,-0.533366 0.44024,-0.533366 0.27515,0 0.41484,0.177788 0.41484,0.41484 0,0.173556 -0.11006,0.33018 -0.29209,0.571465 l -0.25821,0.347112 c -0.0889,0.110059 -0.11006,0.211653 -0.11006,0.364044 v 0.186255 z m 0.0593,0.537599 c 0,-0.143924 -0.11429,-0.258217 -0.25822,-0.258217 -0.14392,0 -0.25398,0.114293 -0.25398,0.258217 0,0.143925 0.11006,0.253985 0.25398,0.253985 0.14393,0 0.25822,-0.11006 0.25822,-0.253985 z"
         style="line-height:120.00000477%;stroke-width:0.26458299"
         id="path1029" />
      <path
         inkscape:connector-curvature="0"
         d="m 375.0872,42.703223 h -0.48257 l -0.74502,1.18526 c -0.16933,0.270916 -0.28785,0.57993 -0.28785,0.905877 0,0.592629 0.38944,0.948207 0.96514,0.948207 0.56723,0 0.93127,-0.347112 0.93127,-0.969373 0,-0.622261 -0.36827,-0.969373 -0.93127,-0.969373 -0.0635,0 -0.12276,0.0042 -0.17779,0.0127 z m -0.55454,2.666834 c -0.35557,0 -0.56299,-0.215886 -0.56299,-0.596863 0,-0.380976 0.20742,-0.596863 0.56299,-0.596863 0.35982,0 0.5376,0.224353 0.5376,0.596863 0,0.37251 -0.17778,0.596863 -0.5376,0.596863 z"
         style="line-height:120.00000477%;stroke-width:0.26458299"
         id="path1031" />
      <path
         inkscape:connector-curvature="0"
         d="m 376.35632,45.471651 c 0,-0.143925 -0.11429,-0.258218 -0.25821,-0.258218 -0.14393,0 -0.25399,0.114293 -0.25399,0.258218 0,0.143924 0.11006,0.253984 0.25399,0.253984 0.14392,0 0.25821,-0.11006 0.25821,-0.253984 z"
         style="line-height:120.00000477%;stroke-width:0.26458299"
         id="path1033" />
      <path
         inkscape:connector-curvature="0"
         d="m 378.87077,44.417616 c 0.27091,0.105827 0.52067,0.198955 0.52067,0.499503 0,0.325946 -0.29632,0.452938 -0.5884,0.452938 -0.40214,0 -0.61803,-0.237052 -0.66036,-0.626494 l -0.34711,0.07619 c 0,0.575697 0.43177,0.922809 1.02017,0.922809 0.54606,0 0.97784,-0.300548 0.97784,-0.85508 0,-0.444472 -0.27092,-0.630727 -0.62226,-0.770419 l -0.44024,-0.173555 c -0.20742,-0.08043 -0.44871,-0.182022 -0.44871,-0.461405 0,-0.283616 0.25399,-0.431773 0.5249,-0.431773 0.29632,0 0.4995,0.177789 0.5376,0.558765 l 0.34711,-0.07619 c 0,-0.5376 -0.35557,-0.85508 -0.87624,-0.85508 -0.52067,0 -0.93128,0.313247 -0.93128,0.842381 0,0.393675 0.22436,0.596862 0.56723,0.732321 z"
         style="line-height:120.00000477%;stroke-width:0.26458299"
         id="path1035" />
      <path
         inkscape:connector-curvature="0"
         d="m 381.89424,45.717169 v -2.146167 h -0.38098 v 1.312252 c -0.055,0.410608 -0.31325,0.495269 -0.50373,0.495269 -0.19472,0 -0.43178,-0.08466 -0.43178,-0.562998 v -1.244523 h -0.38097 v 1.282621 c 0,0.660358 0.39791,0.888944 0.76195,0.888944 0.20742,0 0.40214,-0.07196 0.563,-0.215886 l 0.0127,0.190488 z"
         style="line-height:120.00000477%;stroke-width:0.26458299"
         id="path1037" />
      <path
         inkscape:connector-curvature="0"
         d="m 383.55023,43.55407 c -0.0508,-0.0042 -0.11429,-0.0085 -0.16509,-0.0085 -0.21589,0 -0.40638,0.101594 -0.55877,0.31748 l -0.0127,-0.292082 h -0.35981 v 2.146167 h 0.38098 v -1.202192 c 0.055,-0.461405 0.30055,-0.554532 0.4995,-0.554532 0.0677,0 0.12699,0.0085 0.17356,0.0254 z"
         style="line-height:120.00000477%;stroke-width:0.26458299"
         id="path1039" />
      <path
         inkscape:connector-curvature="0"
         d="m 384.9392,43.55407 c -0.0508,-0.0042 -0.11429,-0.0085 -0.16509,-0.0085 -0.21588,0 -0.40637,0.101594 -0.55876,0.31748 l -0.0127,-0.292082 h -0.35981 v 2.146167 h 0.38098 v -1.202192 c 0.055,-0.461405 0.30054,-0.554532 0.4995,-0.554532 0.0677,0 0.12699,0.0085 0.17355,0.0254 z"
         style="line-height:120.00000477%;stroke-width:0.26458299"
         id="path1041" />
      <path
         inkscape:connector-curvature="0"
         d="m 386.98431,44.756262 v -0.11006 c 0,-0.808516 -0.47834,-1.100598 -0.94398,-1.100598 -0.46564,0 -0.94397,0.292082 -0.94397,1.104831 0,0.80005 0.46563,1.092132 0.96937,1.092132 0.41061,0 0.74925,-0.190488 0.85085,-0.541833 l -0.33865,-0.08889 c -0.11006,0.186255 -0.30478,0.266683 -0.5249,0.266683 -0.24975,0 -0.52913,-0.105827 -0.563,-0.622261 z m -1.49004,-0.296315 c 0.0593,-0.452938 0.32171,-0.550299 0.54606,-0.550299 0.22012,0 0.4868,0.09736 0.54183,0.550299 z"
         style="line-height:120.00000477%;stroke-width:0.26458299"
         id="path1043" />
      <path
         inkscape:connector-curvature="0"
         d="m 389.06135,45.717169 v -1.28262 c 0,-0.660359 -0.3979,-0.888945 -0.75772,-0.888945 -0.19895,0 -0.38097,0.07196 -0.52913,0.211653 l -0.008,-0.186255 h -0.35982 v 2.146167 h 0.38098 v -1.312252 c 0.0508,-0.410608 0.28362,-0.495269 0.46987,-0.495269 0.18626,0 0.42331,0.08889 0.42331,0.562998 v 1.244523 z"
         style="line-height:120.00000477%;stroke-width:0.26458299"
         id="path1045" />
      <path
         inkscape:connector-curvature="0"
         d="m 391.36176,45.717169 v -3.013946 h -0.38097 v 1.066734 c -0.15663,-0.148158 -0.35135,-0.224353 -0.57147,-0.224353 -0.436,0 -0.92281,0.292082 -0.92281,1.096365 0,0.808516 0.48681,1.100598 0.92281,1.100598 0.22436,0 0.41908,-0.07619 0.57993,-0.237052 l 0.0127,0.211654 z m -0.38097,-0.876246 c -0.0593,0.444473 -0.33442,0.5376 -0.55453,0.5376 -0.25399,0 -0.5503,-0.122759 -0.5503,-0.736554 0,-0.609562 0.29631,-0.732321 0.54183,-0.732321 0.24552,0 0.50373,0.122759 0.563,0.626494 z"
         style="line-height:120.00000477%;stroke-width:0.26458299"
         id="path1047" />
      <path
         inkscape:connector-curvature="0"
         d="m 393.67289,44.756262 v -0.11006 c 0,-0.808516 -0.47834,-1.100598 -0.94398,-1.100598 -0.46563,0 -0.94397,0.292082 -0.94397,1.104831 0,0.80005 0.46564,1.092132 0.96937,1.092132 0.41061,0 0.74925,-0.190488 0.85085,-0.541833 l -0.33865,-0.08889 c -0.11006,0.186255 -0.30478,0.266683 -0.5249,0.266683 -0.24975,0 -0.52913,-0.105827 -0.563,-0.622261 z m -1.49004,-0.296315 c 0.0593,-0.452938 0.32171,-0.550299 0.54606,-0.550299 0.22012,0 0.48681,0.09736 0.54184,0.550299 z"
         style="line-height:120.00000477%;stroke-width:0.26458299"
         id="path1049" />
      <path
         inkscape:connector-curvature="0"
         d="m 395.19117,43.55407 c -0.0508,-0.0042 -0.11429,-0.0085 -0.16509,-0.0085 -0.21589,0 -0.40637,0.101594 -0.55877,0.31748 l -0.0127,-0.292082 h -0.35982 v 2.146167 h 0.38098 v -1.202192 c 0.055,-0.461405 0.30055,-0.554532 0.4995,-0.554532 0.0677,0 0.127,0.0085 0.17356,0.0254 z"
         style="line-height:120.00000477%;stroke-width:0.26458299"
         id="path1051" />
      <path
         inkscape:connector-curvature="0"
         d="M 396.3177,44.934051 V 44.78166 c 0,-0.09313 0.008,-0.177789 0.0677,-0.249751 l 0.15239,-0.182022 c 0.22435,-0.258217 0.48257,-0.512201 0.48257,-0.905877 0,-0.457171 -0.33865,-0.766185 -0.84662,-0.766185 -0.51643,0 -0.84661,0.321713 -0.84661,0.905877 h 0.39791 c 0,-0.338646 0.15662,-0.533367 0.44024,-0.533367 0.27515,0 0.41484,0.177789 0.41484,0.414841 0,0.173555 -0.11006,0.330179 -0.29208,0.571464 l -0.25822,0.347112 c -0.0889,0.11006 -0.11006,0.211653 -0.11006,0.364044 v 0.186255 z m 0.0593,0.5376 c 0,-0.143925 -0.11429,-0.258218 -0.25822,-0.258218 -0.14392,0 -0.25398,0.114293 -0.25398,0.258218 0,0.143924 0.11006,0.253984 0.25398,0.253984 0.14393,0 0.25822,-0.11006 0.25822,-0.253984 z"
         style="line-height:120.00000477%;stroke-width:0.26458299"
         id="path1053" />
      <path
         inkscape:connector-curvature="0"
         d="m 374.13899,50.796853 1.19373,-2.637202 v -0.376744 h -1.86256 v 0.406375 h 1.43502 l -1.19373,2.607571 z"
         style="line-height:120.00000477%;stroke-width:0.26458299"
         id="path1055" />
      <path
         inkscape:connector-curvature="0"
         d="m 375.95121,50.551335 c 0,-0.143924 -0.1143,-0.258217 -0.25822,-0.258217 -0.14393,0 -0.25399,0.114293 -0.25399,0.258217 0,0.143924 0.11006,0.253984 0.25399,0.253984 0.14392,0 0.25822,-0.11006 0.25822,-0.253984 z"
         style="line-height:120.00000477%;stroke-width:0.26458299"
         id="path1057" />
      <path
         inkscape:connector-curvature="0"
         d="m 378.6519,50.822251 c 0.57147,0 1.1768,-0.406374 1.1768,-1.532371 0,-1.125996 -0.60533,-1.532371 -1.1768,-1.532371 -0.57146,0 -1.17679,0.406375 -1.17679,1.532371 0,1.125997 0.60533,1.532371 1.17679,1.532371 z m 0,-0.37251 c -0.35557,0 -0.77888,-0.198954 -0.77888,-1.159861 0,-0.956674 0.42331,-1.159861 0.77888,-1.159861 0.35558,0 0.77889,0.203187 0.77889,1.159861 0,0.960907 -0.42331,1.159861 -0.77889,1.159861 z"
         style="line-height:120.00000477%;stroke-width:0.26458299"
         id="path1059" />
      <path
         inkscape:connector-curvature="0"
         d="m 380.70177,51.664632 v -1.066733 c 0.15239,0.148157 0.34711,0.224352 0.57146,0.224352 0.43601,0 0.92281,-0.292081 0.92281,-1.096365 0,-0.808516 -0.4868,-1.100598 -0.92281,-1.100598 -0.22435,0 -0.4233,0.0762 -0.57993,0.237052 l -0.0127,-0.211653 h -0.35981 v 3.013945 z m 0,-2.1377 c 0.0593,-0.444472 0.33441,-0.5376 0.55453,-0.5376 0.25399,0 0.5503,0.122759 0.5503,0.732321 0,0.613795 -0.29631,0.736554 -0.54183,0.736554 -0.24552,0 -0.50374,-0.122759 -0.563,-0.626494 z"
         style="line-height:120.00000477%;stroke-width:0.26458299"
         id="path1061" />
      <path
         inkscape:connector-curvature="0"
         d="m 383.00019,51.664632 v -1.066733 c 0.15239,0.148157 0.34712,0.224352 0.57147,0.224352 0.436,0 0.92281,-0.292081 0.92281,-1.096365 0,-0.808516 -0.48681,-1.100598 -0.92281,-1.100598 -0.22435,0 -0.42331,0.0762 -0.57993,0.237052 l -0.0127,-0.211653 h -0.35981 v 3.013945 z m 0,-2.1377 c 0.0593,-0.444472 0.33442,-0.5376 0.55454,-0.5376 0.25398,0 0.5503,0.122759 0.5503,0.732321 0,0.613795 -0.29632,0.736554 -0.54184,0.736554 -0.24552,0 -0.50373,-0.122759 -0.563,-0.626494 z"
         style="line-height:120.00000477%;stroke-width:0.26458299"
         id="path1063" />
      <path
         inkscape:connector-curvature="0"
         d="m 385.77577,50.822251 c 0.4614,0 0.93974,-0.292081 0.93974,-1.096365 0,-0.808516 -0.47834,-1.100598 -0.93974,-1.100598 -0.46564,0 -0.94398,0.292082 -0.94398,1.100598 0,0.804284 0.47834,1.096365 0.94398,1.096365 z m 0,-0.364044 c -0.24976,0 -0.55454,-0.122759 -0.55454,-0.732321 0,-0.613795 0.30478,-0.736554 0.55454,-0.736554 0.25398,0 0.55029,0.122759 0.55029,0.736554 0,0.609562 -0.29631,0.732321 -0.55029,0.732321 z"
         style="line-height:120.00000477%;stroke-width:0.26458299"
         id="path1065" />
      <path
         inkscape:connector-curvature="0"
         d="m 388.79679,50.796853 v -1.28262 c 0,-0.660359 -0.39791,-0.888945 -0.75772,-0.888945 -0.19896,0 -0.38098,0.07196 -0.52914,0.211654 l -0.008,-0.186255 h -0.35981 v 2.146166 h 0.38097 v -1.312252 c 0.0508,-0.410607 0.28362,-0.495269 0.46987,-0.495269 0.18626,0 0.42331,0.0889 0.42331,0.562999 v 1.244522 z"
         style="line-height:120.00000477%;stroke-width:0.26458299"
         id="path1067" />
      <path
         inkscape:connector-curvature="0"
         d="m 391.1099,49.835946 v -0.11006 c 0,-0.808516 -0.47834,-1.100598 -0.94398,-1.100598 -0.46564,0 -0.94397,0.292082 -0.94397,1.104831 0,0.800051 0.46563,1.092132 0.96937,1.092132 0.41061,0 0.74925,-0.190488 0.85085,-0.541832 l -0.33865,-0.0889 c -0.11006,0.186255 -0.30478,0.266683 -0.5249,0.266683 -0.24975,0 -0.52913,-0.105826 -0.563,-0.622261 z m -1.49005,-0.296315 c 0.0593,-0.452938 0.32172,-0.550299 0.54607,-0.550299 0.22012,0 0.4868,0.09736 0.54183,0.550299 z"
         style="line-height:120.00000477%;stroke-width:0.26458299"
         id="path1069" />
      <path
         inkscape:connector-curvature="0"
         d="m 393.18694,50.796853 v -1.28262 c 0,-0.660359 -0.3979,-0.888945 -0.75771,-0.888945 -0.19896,0 -0.38098,0.07196 -0.52914,0.211654 l -0.008,-0.186255 h -0.35982 v 2.146166 h 0.38098 v -1.312252 c 0.0508,-0.410607 0.28362,-0.495269 0.46987,-0.495269 0.18626,0 0.42331,0.0889 0.42331,0.562999 v 1.244522 z"
         style="line-height:120.00000477%;stroke-width:0.26458299"
         id="path1071" />
      <path
         inkscape:connector-curvature="0"
         d="m 394.68406,50.386245 c -0.12699,0.04233 -0.23705,0.07196 -0.32171,0.07196 -0.17779,0 -0.22859,-0.122759 -0.22859,-0.355577 v -1.104832 h 0.53337 v -0.347111 h -0.53337 v -0.651893 h -0.38097 v 0.651893 h -0.23706 v 0.347111 h 0.23706 v 1.147162 c 0,0.380977 0.15239,0.677291 0.57993,0.677291 0.14392,0 0.25821,-0.03386 0.37674,-0.105826 z"
         style="line-height:120.00000477%;stroke-width:0.26458299"
         id="path1073" />
      <path
         inkscape:connector-curvature="0"
         d="m 396.52115,49.150189 c -0.0931,-0.355578 -0.35558,-0.524901 -0.70692,-0.524901 -0.41484,0 -0.72809,0.241285 -0.72809,0.609562 0,0.355578 0.29208,0.478337 0.563,0.584164 0.39367,0.15239 0.55453,0.177789 0.55453,0.364044 0,0.203187 -0.18626,0.275149 -0.40214,0.275149 -0.20742,0 -0.37675,-0.06773 -0.47834,-0.266683 l -0.33865,0.0889 c 0.1016,0.35981 0.38098,0.541832 0.80005,0.541832 0.44871,0 0.81699,-0.211653 0.81699,-0.639193 0,-0.359811 -0.25822,-0.503735 -0.563,-0.618028 -0.38098,-0.139692 -0.563,-0.177789 -0.563,-0.338646 0,-0.143924 0.14392,-0.237052 0.33865,-0.237052 0.17355,0 0.29208,0.0762 0.36827,0.249751 z"
         style="line-height:120.00000477%;stroke-width:0.26458299"
         id="path1075" />
      <path
         inkscape:connector-curvature="0"
         d="m 398.39832,50.796853 0.0127,-0.20742 c 0.15662,0.156623 0.35134,0.232818 0.57569,0.232818 0.44024,0 0.92705,-0.292081 0.92705,-1.096365 0,-0.808516 -0.48681,-1.100598 -0.92281,-1.100598 -0.22436,0 -0.41484,0.0762 -0.57147,0.228586 v -1.070967 h -0.38097 v 3.013946 z m 0.0212,-1.269921 c 0.0593,-0.444472 0.33441,-0.5376 0.55453,-0.5376 0.25399,0 0.5503,0.122759 0.5503,0.732321 0,0.613795 -0.29631,0.736554 -0.54183,0.736554 -0.24552,0 -0.50374,-0.122759 -0.563,-0.626494 z"
         style="line-height:120.00000477%;stroke-width:0.26458299"
         id="path1077" />
      <path
         inkscape:connector-curvature="0"
         d="m 402.03439,50.796853 v -2.146166 h -0.38097 v 1.312251 c -0.055,0.410608 -0.31325,0.495269 -0.50374,0.495269 -0.19472,0 -0.43177,-0.08466 -0.43177,-0.562998 v -1.244522 h -0.38098 v 1.28262 c 0,0.660359 0.39791,0.888944 0.76195,0.888944 0.20742,0 0.40215,-0.07196 0.563,-0.215886 l 0.0127,0.190488 z"
         style="line-height:120.00000477%;stroke-width:0.26458299"
         id="path1079" />
      <path
         inkscape:connector-curvature="0"
         d="m 403.13585,51.664632 1.09636,-3.013945 h -0.41484 l -0.54183,1.532371 -0.5376,-1.532371 h -0.41484 l 0.75772,2.086903 -0.32595,0.927042 z"
         style="line-height:120.00000477%;stroke-width:0.26458299"
         id="path1081" />
      <path
         inkscape:connector-curvature="0"
         d="m 375.011,54.297602 c 0.19049,-0.131225 0.29632,-0.342878 0.29632,-0.643426 0,-0.524901 -0.32172,-0.816983 -0.81699,-0.816983 -0.49526,0 -0.81698,0.292082 -0.81698,0.816983 0,0.300548 0.10583,0.512201 0.29208,0.643426 -0.24551,0.135458 -0.39367,0.38521 -0.39367,0.740787 0,0.558766 0.37251,0.863547 0.91857,0.863547 0.54607,0 0.91858,-0.304781 0.91858,-0.863547 0,-0.355577 -0.14816,-0.605329 -0.39791,-0.740787 z m 0,0.732321 c 0,0.325947 -0.18202,0.499503 -0.52067,0.499503 -0.33864,0 -0.52066,-0.173556 -0.52066,-0.499503 0,-0.325946 0.17779,-0.529133 0.52066,-0.529133 0.34288,0 0.52067,0.203187 0.52067,0.529133 z m -0.52067,-0.901644 c -0.26668,0 -0.41907,-0.173555 -0.41907,-0.465637 0,-0.292082 0.15239,-0.452939 0.41907,-0.452939 0.26669,0 0.41908,0.160857 0.41908,0.452939 0,0.292082 -0.15239,0.465637 -0.41908,0.465637 z"
         style="line-height:120.00000477%;stroke-width:0.26458299"
         id="path1083" />
      <path
         inkscape:connector-curvature="0"
         d="m 376.33979,55.631019 c 0,-0.143924 -0.11429,-0.258217 -0.25822,-0.258217 -0.14392,0 -0.25398,0.114293 -0.25398,0.258217 0,0.143925 0.11006,0.253984 0.25398,0.253984 0.14393,0 0.25822,-0.110059 0.25822,-0.253984 z"
         style="line-height:120.00000477%;stroke-width:0.26458299"
         id="path1085" />
      <path
         inkscape:connector-curvature="0"
         d="m 378.29547,55.876537 v -1.214891 h 0.59263 c 0.60956,0 0.9482,-0.338645 0.9482,-0.888944 0,-0.5503 -0.33864,-0.91011 -0.9482,-0.91011 h -0.98208 v 3.013945 z m 0,-1.587401 v -1.054034 h 0.563 c 0.35981,0 0.57993,0.186255 0.57993,0.5376 0,0.351344 -0.22012,0.516434 -0.57993,0.516434 z"
         style="line-height:120.00000477%;stroke-width:0.26458299"
         id="path1087" />
      <path
         inkscape:connector-curvature="0"
         d="m 381.39738,55.876537 v -0.347111 h -0.44447 v -2.666834 h -0.82545 v 0.347111 h 0.44447 v 2.319723 h -0.44447 v 0.347111 z"
         style="line-height:120.00000477%;stroke-width:0.26458299"
         id="path1089" />
      <path
         inkscape:connector-curvature="0"
         d="M 383.35888,55.876537 V 54.44576 c 0,-0.419074 -0.29631,-0.740788 -0.80005,-0.740788 -0.39368,0 -0.71539,0.194722 -0.80005,0.469871 l 0.31325,0.08889 c 0.10159,-0.131225 0.27515,-0.194722 0.46564,-0.194722 0.28784,0 0.44023,0.148158 0.44023,0.419074 v 0.105827 l -0.56723,0.03387 c -0.48257,0.02963 -0.76195,0.241285 -0.76195,0.647659 0,0.444473 0.33865,0.626495 0.74925,0.626495 0.22436,0 0.42754,-0.05503 0.59263,-0.182022 l 0.008,0.156623 z m -0.38098,-0.584163 c -0.17355,0.215886 -0.38944,0.245518 -0.55029,0.245518 -0.33865,0 -0.38945,-0.135459 -0.38945,-0.270917 0,-0.203187 0.11006,-0.321713 0.37251,-0.338645 l 0.56723,-0.03387 z"
         style="line-height:120.00000477%;stroke-width:0.26458299"
         id="path1091" />
      <path
         inkscape:connector-curvature="0"
         d="m 384.40121,56.744317 1.09636,-3.013946 h -0.41484 l -0.54183,1.532371 -0.5376,-1.532371 h -0.41484 l 0.75772,2.086903 -0.32595,0.927043 z"
         style="line-height:120.00000477%;stroke-width:0.26458299"
         id="path1093" />
      <path
         inkscape:connector-curvature="0"
         d="m 374.50727,59.483113 c -0.35981,0 -0.5376,-0.224352 -0.5376,-0.596863 0,-0.37251 0.17779,-0.596862 0.5376,-0.596862 0.35557,0 0.56299,0.215886 0.56299,0.596862 0,0.380977 -0.20742,0.596863 -0.56299,0.596863 z m -0.072,1.473109 0.74502,-1.18526 c 0.16509,-0.26245 0.28785,-0.541833 0.28785,-0.888945 0,-0.613795 -0.38944,-0.96514 -0.9609,-0.96514 -0.57147,0 -0.93551,0.347112 -0.93551,0.969373 0,0.622262 0.36828,0.969373 0.93127,0.969373 0.0593,0 0.11853,-0.0042 0.17779,-0.0127 l -0.72809,1.113298 z"
         style="line-height:120.00000477%;stroke-width:0.26458299"
         id="path1095" />
      <path
         inkscape:connector-curvature="0"
         d="m 376.27365,60.710704 c 0,-0.143925 -0.1143,-0.258218 -0.25822,-0.258218 -0.14392,0 -0.25398,0.114293 -0.25398,0.258218 0,0.143924 0.11006,0.253984 0.25398,0.253984 0.14392,0 0.25822,-0.11006 0.25822,-0.253984 z"
         style="line-height:120.00000477%;stroke-width:0.26458299"
         id="path1097" />
      <path
         inkscape:connector-curvature="0"
         d="m 378.22933,60.956222 v -1.214891 h 0.59263 c 0.60956,0 0.9482,-0.338646 0.9482,-0.888945 0,-0.550299 -0.33864,-0.91011 -0.9482,-0.91011 h -0.98208 v 3.013946 z m 0,-1.587402 v -1.054034 h 0.56299 c 0.35981,0 0.57993,0.186255 0.57993,0.5376 0,0.351345 -0.22012,0.516434 -0.57993,0.516434 z"
         style="line-height:120.00000477%;stroke-width:0.26458299"
         id="path1099" />
      <path
         inkscape:connector-curvature="0"
         d="m 381.70534,60.956222 v -1.430778 c 0,-0.419074 -0.29632,-0.740787 -0.80005,-0.740787 -0.39368,0 -0.71539,0.194721 -0.80005,0.46987 l 0.31324,0.08889 c 0.1016,-0.131225 0.27515,-0.194721 0.46564,-0.194721 0.28785,0 0.44024,0.148157 0.44024,0.419074 v 0.105826 l -0.56723,0.03386 c -0.48257,0.02963 -0.76195,0.241285 -0.76195,0.64766 0,0.444472 0.33864,0.626494 0.74925,0.626494 0.22435,0 0.42754,-0.05503 0.59263,-0.182022 l 0.008,0.156624 z m -0.38098,-0.584164 c -0.17355,0.215886 -0.38944,0.245518 -0.5503,0.245518 -0.33864,0 -0.38944,-0.135458 -0.38944,-0.270916 0,-0.203188 0.11006,-0.321714 0.37251,-0.338646 l 0.56723,-0.03387 z"
         style="line-height:120.00000477%;stroke-width:0.26458299"
         id="path1101" />
      <path
         inkscape:connector-curvature="0"
         d="m 382.74766,61.824001 1.09637,-3.013946 h -0.41484 l -0.54183,1.532371 -0.5376,-1.532371 h -0.41485 l 0.75772,2.086904 -0.32594,0.927042 z"
         style="line-height:120.00000477%;stroke-width:0.26458299"
         id="path1103" />
      <path
         inkscape:connector-curvature="0"
         d="m 386.97683,60.956222 v -1.282621 c 0,-0.660359 -0.39791,-0.888944 -0.75772,-0.888944 -0.24551,0 -0.4614,0.11006 -0.61379,0.325946 -0.14816,-0.232819 -0.39368,-0.325946 -0.6138,-0.325946 -0.18625,0 -0.35134,0.06773 -0.49103,0.198954 l -0.008,-0.173556 h -0.35981 v 2.146167 h 0.38098 V 59.64397 c 0.0466,-0.410608 0.25821,-0.495269 0.43177,-0.495269 0.18202,0 0.41907,0.08889 0.41907,0.562998 v 1.244523 h 0.38098 V 59.64397 c 0.0466,-0.410608 0.25822,-0.495269 0.43177,-0.495269 0.18202,0 0.41908,0.08889 0.41908,0.562998 v 1.244523 z"
         style="line-height:120.00000477%;stroke-width:0.26458299"
         id="path1105" />
      <path
         inkscape:connector-curvature="0"
         d="m 389.291,59.995315 v -0.11006 c 0,-0.808516 -0.47834,-1.100598 -0.94398,-1.100598 -0.46563,0 -0.94397,0.292082 -0.94397,1.104831 0,0.80005 0.46564,1.092132 0.96937,1.092132 0.41061,0 0.74926,-0.190488 0.85085,-0.541833 l -0.33865,-0.08889 c -0.11006,0.186255 -0.30478,0.266683 -0.5249,0.266683 -0.24975,0 -0.52913,-0.105827 -0.563,-0.622261 z M 387.80096,59.699 c 0.0593,-0.452939 0.32171,-0.550299 0.54606,-0.550299 0.22012,0 0.48681,0.09736 0.54184,0.550299 z"
         style="line-height:120.00000477%;stroke-width:0.26458299"
         id="path1107" />
      <path
         inkscape:connector-curvature="0"
         d="m 391.36805,60.956222 v -1.282621 c 0,-0.660359 -0.39791,-0.888944 -0.75772,-0.888944 -0.19896,0 -0.38098,0.07196 -0.52914,0.211653 l -0.008,-0.186255 h -0.35981 v 2.146167 h 0.38097 V 59.64397 c 0.0508,-0.410608 0.28362,-0.495269 0.46987,-0.495269 0.18626,0 0.42331,0.08889 0.42331,0.562998 v 1.244523 z"
         style="line-height:120.00000477%;stroke-width:0.26458299"
         id="path1109" />
      <path
         inkscape:connector-curvature="0"
         d="m 392.86516,60.545614 c -0.12699,0.04233 -0.23705,0.07196 -0.32171,0.07196 -0.17779,0 -0.22858,-0.122759 -0.22858,-0.355578 v -1.104831 h 0.53336 v -0.347112 h -0.53336 V 58.15816 h -0.38098 v 0.651893 h -0.23705 v 0.347112 h 0.23705 v 1.147162 c 0,0.380976 0.15239,0.677291 0.57993,0.677291 0.14392,0 0.25822,-0.03386 0.37674,-0.105827 z"
         style="line-height:120.00000477%;stroke-width:0.26458299"
         id="path1111" />
    </g>
  </g>
</svg>
